<svg version="1.2" xmlns="http://www.w3.org/2000/svg" viewBox="0 0 258 400" width="258" height="180"><defs><linearGradient id="P" gradientUnits="userSpaceOnUse"/><linearGradient id="g1" x1="59.4" y1="20.5" x2="73.2" y2="26.1" href="#P"><stop stop-color="#fff"/><stop offset="1"/></linearGradient><linearGradient id="g2" x1="218.8" y1="126.4" x2="209" y2="126.1" href="#P"><stop stop-color="#fff"/><stop offset="1"/></linearGradient><linearGradient id="g3" x1="88.1" y1="94.6" x2="114.6" y2="78.4" href="#P"><stop stop-color="#fff"/><stop offset="1"/></linearGradient><linearGradient id="g4" x1="138.1" y1="130.5" x2="138.1" y2="74.8" href="#P"><stop offset=".3" stop-color="#fff"/><stop offset=".9" stop-color="#e2eaec"/></linearGradient><linearGradient id="g5" x1="151.5" y1="127.4" x2="153.7" y2="100.6" href="#P"><stop stop-color="#fff"/><stop offset="1"/></linearGradient><linearGradient id="g6" x1="186.4" y1="124.3" x2="186.4" y2="75" href="#P"><stop offset=".3" stop-color="#fff"/><stop offset=".9" stop-color="#e2eaec"/></linearGradient><linearGradient id="g7" x1="170.1" y1="122.2" x2="179.6" y2="125.9" href="#P"><stop stop-color="#fff"/><stop offset="1"/></linearGradient><linearGradient id="g8" x1="40.6" y1="134.7" x2="41.6" y2="122.9" href="#P"><stop stop-color="#fff"/><stop offset="1"/></linearGradient><linearGradient id="g9" x1="166.2" y1="35.1" x2="160.2" y2="47.1" href="#P"><stop stop-color="#fff"/><stop offset="1"/></linearGradient><linearGradient id="g10" x1="121.8" y1="85.3" x2="144.5" y2="85.3" href="#P"><stop stop-color="#fff"/><stop offset="1"/></linearGradient><linearGradient id="g11" x1="169.1" y1="81.7" x2="191.8" y2="81.7" href="#P"><stop stop-color="#fff"/><stop offset="1"/></linearGradient></defs><style>.a{fill:#fff}.b{fill:#f1f1f1}.c{fill:#e2e2e2}.d{fill:#d4d4d4}.e{fill:#c5c5c5}.f{fill:#b7b7b7}.g{fill:#a8a8a8}.h{fill:#9a9a9a}.i{fill:#8b8b8b}.j{fill:#7d7d7d}.k{fill:#6e6e6e}.l{fill:#606060}.m{fill:#0076a7}.n{opacity:.5;mix-blend-mode:multiply;fill:url(#g1)}.o{fill:#28b8ce}.p{fill:url(#g2)}.q{fill:#fcbd1e}.r{opacity:.5;mix-blend-mode:multiply;fill:#f7971f}.s{fill:#f04e24}.t{fill:#b8431a}.u{opacity:.5;mix-blend-mode:multiply;fill:url(#g3)}.v{fill:url(#g4)}.w{opacity:.5;mix-blend-mode:multiply;fill:url(#g5)}.x{fill:url(#g6)}.y{opacity:.5;mix-blend-mode:multiply;fill:url(#g7)}.z{fill:#f9c5a0}.A{fill:url(#g8)}.B{opacity:.5;mix-blend-mode:multiply;fill:url(#g9)}.C{fill:url(#g10)}.D{fill:url(#g11)}.E{fill:#583503}.F{fill:#2c1800}</style><g style="mix-blend-mode:multiply"><path fill-rule="evenodd" class="a" d="m29.6 133.4c0.3-2.3 0.2-4-0.5-5-0.8-1-2.7-1.8-5.1-2.1h-0.4q-1 0.2-1.9 0.2h-0.2q-0.3 0-0.4 0.1h-0.9q-0.5 0.1-0.9 0.2-1.6 0.3-3.1 0.1c-4.3-0.1-8-3.2-8.8-7.5-0.7-4.5 2-8.8 6.4-10.1l4.3-1.1q0.6-0.2 1.2-0.4c5-2.8 8.2-5.9 8.4-8.2 0.2-2.2-1.8-5.4-5-8.4q-0.4-0.2-0.7-0.3l-0.2-0.1q-0.1-0.1-0.3-0.2l-2-0.7c-4.1-1.6-6.5-6-5.5-10.4 1-4.3 5-7.2 9.4-6.9l3.2 0.3q2.1 0.2 3.7 0.2c3.6 0 5.4-0.6 6-0.9 0-1.2-0.7-4.3-3.3-8.5-0.3-0.5-0.5-0.8-0.6-1q-0.1-0.1-0.1-0.1l-1.3-1.8c-2.4-3.4-2.1-8.1 0.7-11.2 2.8-3.1 7.5-3.8 11.1-1.7l1 0.6q0.7 0.2 1 0.2c2.9 0 7.7-6.4 10.7-16.9 1.3-4.4 5.8-7.1 10.3-6.3 4.5 0.9 7.6 5 7.2 9.6-0.2 1.8-0.2 3.8-0.3 5.8v1.2q0 0.5-0.1 1-0.4 2.9-0.5 5.7c1.9-0.3 3.9-0.8 5.1-2.1 1.2-1.4 1.2-3.5 1.2-3.9-0.5-2.9 0.6-5.7 2.7-7.7 2.2-2.1 5.3-2.7 8.2-2q2.1 0.5 4 0.6 0.5 0 0.9 0c5.5 0 7.2-3.3 7.6-6.2 0.3-4 3.3-7.2 7.2-8 2.7-0.5 5.5 0.4 7.5 2.1 2-2.8 5.5-4.2 8.9-3.5 0.3-0.5 0.5-1.1 0.8-1.8q0 0 0-0.1l0.1-0.2c0.8-3.2 3.3-5.6 6.6-6.3 3.3-0.8 6.7 0.5 8.8 3.1q0.2 0.2 0.4 0.4c0.6-0.3 1.8-1.1 3.1-2.5q0.2-0.3 0.3-0.4c2.1-2.8 5.7-4.2 9.2-3.4 4.3 1 7.3 5.1 6.9 9.5q-0.1 0.2-0.1 0.4c0.8-0.1 1.9-0.3 3.3-0.8 0.9-0.3 1.4-0.5 1.4-0.5 4.4-1.9 9.6 0.1 11.6 4.4 1.8 3.8 0.6 8.3-2.6 10.8q1.3 0.2 2.4 0.7c2.6 1.2 4.4 3.6 5 6.4 0.9 4.8 9.5 5.2 9.5 5.2 3.1 0 6 1.6 7.6 4.3 1.6 2.6 1.7 5.8 0.3 8.6-0.2 0.5-0.3 0.9-0.3 1 0.5 0.9 3.1 2.4 4.7 2.8 2.7 0.7 4.8 2.6 5.9 5.2 0.7 1.8 0.9 3.9 0.3 5.8 2.9 0.6 5.3 2.7 6.3 5.5 0.9 2.2 0.8 4.7-0.2 6.8q1.4 2.2 2.5 4.7c1.2-2 1.9-4.3 2.2-6.9 0.4-3.8 3.3-6.9 7.1-7.7 2.1-0.4 4.2-0.1 6 0.9 2.7-2.1 6.5-2.4 9.6-0.7 3.9 2.2 5.6 6.9 4 11.1-0.9 2.4-1.8 7.2-0.6 9.6 0.1 0.4 0.5 1.1 2.1 1.6 2.9 0.9 5.1 3.1 5.9 5.9 0.8 2.8 0.3 5.8-1.6 8.1-0.4 0.6-1.6 2.5-2.1 4.6-0.3 1.8-0.1 3.1 2.1 4.8 3.3 2.5 4.7 7 3 10.8-1.2 2.6-3.4 4.4-6 5 1.4 3.7 0.1 7.9-3.1 10.3-3.5 2.4-8.2 2.2-11.3-0.7-4.6-4.2-9.3-7.9-14.2-11.2q-0.3 1.5-0.6 2.9 0 0.7-0.2 1.5c-2.5 10.8-6 18-10.5 21.4q-0.1 0.1-0.3 0.3c0.6 1.6 0.7 3.4 0.2 5.1-0.7 3-3.1 5.2-6 6.1q-0.1 0.1-0.2 0.1c0.2 2.1-0.5 4.1-1.7 5.9-1.4 1.9-3.5 3-5.7 3.4q-0.4 1.8-1.6 3.4c-1.7 2.3-4.4 3.5-7.3 3.5-4.3 0-5.9 6-6.1 6.7-0.6 2.7-2.4 5-5 6.2-2.6 1.1-5.5 1-8-0.4-0.9-0.5-1.4-0.7-1.7-0.7-0.4 0.4-1.1 1.5-1.4 2.4-0.9 3.3-3.7 5.7-7.1 6.3-3.5 0.6-6.9-1.1-8.9-4-0.7-1.1-1.3-1.7-1.6-2.1-0.6 0.5-1.3 1.3-1.7 1.9-1.5 2.7-4.3 4.3-7.4 4.4q-0.2 0-0.3 0c-3 0-5.8-1.6-7.5-4.2-1.5-2.4-2.7-3-2.9-3-0.7-0.1-2.5 1-3.5 2.1-1.7 2-4.1 3.1-6.8 3.1q0 0-0.1 0c-2.6 0-5.1-1.3-6.8-3.4-2.2-2.8-3.7-3.6-4.2-3.8-0.2 0.1-0.4 0.4-0.4 0.4-2 3.2-5.9 4.8-9.6 3.9-3.5-0.8-6.1-3.6-6.7-7q-0.2-0.5-0.2-1.1-0.1-1.1-0.3-1.9-0.1-0.4-0.2-0.7c-1.3 0.3-3.3 1.3-4.7 2.3-3 2.1-6.9 2.2-9.9 0.3-1.7-1.1-3-2.7-3.6-4.5-0.6-1.5-0.8-3.2-0.5-4.9 0.4-2.3 0.2-3.7 0.1-4.3q0-0.1-0.1-0.2c-0.9-0.6-4.4-0.6-7.1 0.1-3.4 1-7.1-0.1-9.4-2.8-1-1.3-1.7-2.7-1.9-4.3-0.4-1.9-0.1-3.9 0.8-5.7q0.7-1.5 1.1-2.8c-2.4 0.9-5.2 0.7-7.5-0.7-3.6-2.1-5.2-6.3-4.1-10.2q0 0 0 0c-3.6 0.3-7.1-1.5-8.8-4.7-0.6-1.2-0.9-2.4-1-3.6q0-0.1-0.1-0.1l-0.8-0.5c-4-2.6-5.2-7.8-2.9-11.9zm3.4-69.9q-0.3-0.4-0.6-0.7 0.3 0.3 0.6 0.7zm0 0q0 0 0 0 0 0 0 0z"/><path fill-rule="evenodd" class="b" d="m29 132.8c0.3-2.3 0.2-4-0.5-5-0.8-1-2.7-1.8-5.1-2.1h-0.4q-1 0.2-1.9 0.2h-0.2q-0.3 0-0.4 0l-0.9 0.1q-0.5 0.1-0.9 0.2-1.6 0.3-3.1 0c-4.3 0-8-3.1-8.8-7.4-0.7-4.5 2-8.8 6.4-10.1l4.3-1.1q0.6-0.2 1.2-0.4c5-2.8 8.2-5.9 8.4-8.2 0.2-2.2-1.8-5.5-5-8.4q-0.4-0.2-0.7-0.3l-0.2-0.1q-0.1-0.1-0.3-0.2l-2-0.7c-4.2-1.6-6.5-6-5.5-10.4 1-4.3 5-7.2 9.4-6.9l3.2 0.3q2.1 0.2 3.7 0.2c3.6 0 5.4-0.6 6-0.9 0-1.2-0.7-4.3-3.3-8.5-0.3-0.5-0.5-0.8-0.7-1q0-0.1 0-0.2l-1.3-1.7c-2.4-3.4-2.1-8.1 0.7-11.2 2.8-3.1 7.5-3.8 11.1-1.7l1 0.6q0.7 0.2 1 0.2c2.8 0 7.7-6.4 10.7-16.9 1.3-4.4 5.7-7.1 10.3-6.3 4.5 0.9 7.6 5 7.2 9.6-0.2 1.8-0.2 3.7-0.3 5.8v1.2q0 0.5-0.1 0.9-0.4 3-0.5 5.8c1.9-0.3 3.9-0.8 5-2.1 1.3-1.4 1.3-3.5 1.3-3.9-0.5-2.9 0.6-5.7 2.7-7.7 2.2-2.1 5.3-2.7 8.2-2q2.1 0.5 4 0.6 0.5 0 0.9 0c5.5 0 7.2-3.3 7.6-6.2 0.3-4 3.3-7.2 7.2-8 2.7-0.5 5.4 0.4 7.5 2.1 2-2.8 5.5-4.2 8.9-3.5 0.3-0.5 0.5-1.1 0.8-1.8q0 0 0-0.1v-0.2c0.9-3.2 3.4-5.6 6.7-6.3 3.3-0.8 6.7 0.5 8.8 3.1q0.2 0.2 0.4 0.4c0.6-0.3 1.8-1.1 3.1-2.5q0.2-0.3 0.3-0.4c2.1-2.8 5.7-4.2 9.2-3.4 4.3 1 7.3 5.1 6.9 9.5q-0.1 0.2-0.1 0.4c0.8-0.1 1.9-0.3 3.3-0.8 0.9-0.3 1.4-0.5 1.4-0.5 4.4-1.9 9.6 0.1 11.6 4.4 1.8 3.8 0.6 8.3-2.6 10.8q1.3 0.2 2.4 0.7c2.6 1.2 4.4 3.6 5 6.3 0.9 4.9 9.5 5.3 9.5 5.3 3.1 0 6 1.6 7.6 4.2 1.6 2.7 1.7 5.9 0.3 8.7-0.2 0.5-0.3 0.9-0.4 1 0.6 0.9 3.2 2.4 4.8 2.8 2.6 0.7 4.8 2.6 5.8 5.2 0.8 1.8 0.9 3.8 0.4 5.7 2.9 0.7 5.3 2.8 6.3 5.6 0.9 2.2 0.8 4.7-0.2 6.8q1.4 2.2 2.5 4.7c1.1-2 1.9-4.3 2.2-6.9 0.4-3.8 3.3-7 7.1-7.7 2.1-0.5 4.2-0.1 6 0.9 2.7-2.1 6.5-2.4 9.6-0.7 3.9 2.2 5.6 6.9 4 11.1-0.9 2.4-1.8 7.2-0.6 9.6 0.1 0.4 0.5 1.1 2.1 1.6 2.8 0.9 5.1 3.1 5.9 5.9 0.8 2.8 0.3 5.8-1.6 8.1-0.5 0.6-1.7 2.5-2.1 4.6-0.3 1.8-0.1 3.1 2.1 4.8 3.3 2.5 4.7 7 3 10.8-1.2 2.6-3.4 4.4-6 5 1.4 3.7 0.1 7.9-3.1 10.3-3.5 2.4-8.2 2.2-11.3-0.7-4.6-4.2-9.3-7.9-14.2-11.2q-0.3 1.5-0.6 2.9 0 0.7-0.2 1.5c-2.5 10.8-6 18-10.5 21.4q-0.1 0.1-0.3 0.3c0.6 1.6 0.7 3.3 0.2 5.1-0.8 3-3.1 5.2-6 6.1q-0.1 0.1-0.2 0.1c0.2 2.1-0.5 4.1-1.7 5.9-1.4 1.9-3.5 3-5.7 3.4q-0.4 1.8-1.6 3.4c-1.7 2.3-4.4 3.4-7.3 3.4-4.3 0-6 6.1-6.1 6.8-0.6 2.7-2.4 5-5 6.2-2.6 1.1-5.5 0.9-8-0.4-0.9-0.5-1.4-0.7-1.7-0.7-0.5 0.4-1.1 1.5-1.4 2.3-0.9 3.4-3.7 5.8-7.1 6.4-3.5 0.6-6.9-1.1-8.9-4-0.7-1.1-1.3-1.7-1.7-2.1-0.5 0.5-1.2 1.3-1.6 1.9-1.5 2.7-4.3 4.3-7.5 4.4q-0.1 0-0.2 0c-3 0-5.8-1.6-7.5-4.2-1.5-2.4-2.7-3-2.9-3-0.7-0.1-2.5 1-3.5 2.1-1.7 2-4.2 3.1-6.8 3.1q0 0-0.1 0c-2.7 0-5.1-1.3-6.8-3.4-2.2-2.8-3.7-3.6-4.2-3.8-0.2 0.1-0.4 0.4-0.4 0.4-2.1 3.2-5.9 4.8-9.6 3.9-3.5-0.8-6-3.6-6.7-7q-0.2-0.5-0.2-1.1-0.1-1.1-0.3-2-0.1-0.3-0.2-0.6c-1.3 0.3-3.3 1.3-4.7 2.2-3 2.1-6.9 2.3-9.9 0.4-1.7-1.1-3-2.7-3.6-4.5-0.6-1.5-0.8-3.2-0.5-4.9 0.4-2.3 0.2-3.7 0.1-4.3q0-0.1-0.1-0.2c-0.9-0.6-4.4-0.6-7.1 0.1-3.5 1-7.1-0.1-9.4-2.8-1-1.3-1.7-2.8-1.9-4.3-0.4-1.9-0.1-3.9 0.8-5.7q0.7-1.5 1.1-2.8c-2.4 0.9-5.2 0.7-7.5-0.7-3.6-2.1-5.3-6.3-4.1-10.2q0 0 0 0c-3.6 0.3-7.1-1.5-8.8-4.8-0.6-1.1-0.9-2.3-1-3.5q0-0.1-0.1-0.1l-0.8-0.5c-4-2.6-5.2-7.8-2.9-11.9zm3.4-69.9q-0.3-0.4-0.6-0.8 0.3 0.4 0.6 0.8zm0 0q0 0 0 0 0 0 0 0z"/><path fill-rule="evenodd" class="c" d="m28.4 132.2c0.3-2.3 0.1-4.1-0.5-5-0.8-1-2.7-1.8-5.1-2.1h-0.4q-1 0.2-1.9 0.2h-0.2q-0.3 0-0.4 0l-0.9 0.1q-0.5 0.1-0.9 0.2-1.6 0.3-3.1 0c-4.3 0-8-3.1-8.8-7.4-0.7-4.5 2-8.8 6.4-10.1l4.3-1.1q0.6-0.2 1.2-0.4c5-2.8 8.2-5.9 8.4-8.2 0.2-2.2-1.8-5.5-5-8.4q-0.4-0.2-0.7-0.3l-0.2-0.1q-0.1-0.1-0.3-0.2l-2-0.7c-4.2-1.6-6.5-6-5.5-10.4 1-4.3 5-7.2 9.4-6.9l3.2 0.3q2.1 0.2 3.7 0.2c3.6-0.1 5.4-0.6 6-0.9 0-1.2-0.7-4.3-3.3-8.5-0.3-0.5-0.5-0.8-0.7-1q0-0.1 0-0.2l-1.3-1.7c-2.4-3.4-2.1-8.1 0.7-11.2 2.8-3.1 7.5-3.8 11.1-1.7l1 0.6q0.6 0.2 1 0.2c2.8 0 7.7-6.4 10.7-16.9 1.3-4.4 5.7-7.1 10.3-6.3 4.5 0.9 7.6 5 7.2 9.6-0.2 1.8-0.2 3.7-0.3 5.8v1.2q0 0.5-0.1 0.9-0.4 3-0.5 5.8c1.9-0.3 3.9-0.9 5-2.1 1.3-1.4 1.3-3.5 1.3-3.9-0.5-2.9 0.6-5.7 2.7-7.7 2.2-2.1 5.3-2.7 8.2-2q2.1 0.5 4 0.6 0.5 0 0.9 0c5.5 0 7.2-3.3 7.6-6.2 0.3-4 3.2-7.2 7.2-8 2.7-0.5 5.4 0.4 7.5 2.1 2-2.8 5.5-4.2 8.9-3.5 0.3-0.5 0.5-1.1 0.8-1.8q0 0 0-0.1v-0.2c0.9-3.2 3.4-5.6 6.7-6.3 3.3-0.8 6.7 0.5 8.8 3.1q0.2 0.2 0.4 0.4c0.6-0.3 1.8-1.1 3.1-2.5q0.2-0.3 0.3-0.4c2.1-2.8 5.7-4.3 9.2-3.4 4.3 1 7.3 5.1 6.9 9.5q-0.1 0.2-0.1 0.4c0.8-0.1 1.9-0.3 3.3-0.8 0.9-0.3 1.4-0.5 1.4-0.5 4.4-1.9 9.5 0.1 11.6 4.4 1.8 3.8 0.6 8.3-2.6 10.8q1.3 0.2 2.4 0.7c2.6 1.2 4.4 3.6 5 6.3 0.9 4.9 9.5 5.3 9.5 5.3 3.1 0 6 1.6 7.6 4.2 1.6 2.7 1.7 5.9 0.3 8.7-0.2 0.5-0.3 0.9-0.4 1 0.6 0.9 3.2 2.4 4.8 2.8 2.6 0.7 4.8 2.6 5.8 5.1 0.8 1.9 0.9 3.9 0.4 5.8 2.9 0.7 5.3 2.8 6.3 5.6 0.9 2.2 0.8 4.7-0.2 6.8q1.4 2.2 2.5 4.7c1.1-2 1.9-4.3 2.2-6.9 0.4-3.8 3.3-7 7.1-7.7 2.1-0.5 4.2-0.1 6 0.9 2.7-2.1 6.5-2.4 9.6-0.7 3.9 2.2 5.6 6.9 4 11.1-0.9 2.4-1.8 7.2-0.6 9.6 0.1 0.4 0.5 1.1 2.1 1.6 2.8 0.9 5.1 3.1 5.9 5.9 0.8 2.8 0.3 5.8-1.6 8.1-0.5 0.6-1.7 2.5-2.1 4.5-0.4 1.9-0.1 3.2 2.1 4.9 3.3 2.5 4.7 7 3 10.8-1.2 2.6-3.4 4.4-6 5 1.4 3.7 0.1 7.9-3.1 10.2-3.5 2.5-8.2 2.3-11.3-0.6-4.6-4.2-9.3-7.9-14.2-11.2q-0.3 1.5-0.6 2.8 0 0.8-0.2 1.6c-2.5 10.8-6.1 18-10.5 21.4q-0.1 0.1-0.3 0.2c0.6 1.7 0.6 3.4 0.2 5.2-0.8 3-3.1 5.2-6 6.1q-0.2 0.1-0.2 0.1c0.1 2.1-0.5 4.1-1.7 5.9-1.4 1.9-3.5 3-5.7 3.4q-0.4 1.8-1.6 3.4c-1.7 2.3-4.4 3.4-7.3 3.4-4.3 0-6 6.1-6.1 6.8-0.6 2.7-2.4 5-5 6.1-2.6 1.2-5.5 1-8-0.3-0.9-0.5-1.4-0.7-1.7-0.7-0.5 0.4-1.1 1.5-1.4 2.3-0.9 3.4-3.7 5.8-7.1 6.4-3.5 0.6-7-1.1-8.9-4-0.7-1.1-1.3-1.7-1.7-2.1-0.5 0.5-1.2 1.2-1.6 1.9-1.5 2.7-4.3 4.3-7.5 4.4q-0.1 0-0.2 0c-3 0-5.8-1.6-7.5-4.2-1.5-2.4-2.7-3-2.9-3-0.7-0.1-2.5 1-3.5 2.1-1.7 2-4.2 3.1-6.8 3.1q0 0-0.1 0c-2.7 0-5.1-1.3-6.8-3.4-2.2-2.8-3.7-3.6-4.2-3.8-0.2 0.1-0.4 0.4-0.4 0.4-2.1 3.2-5.9 4.8-9.6 3.9-3.5-0.8-6-3.6-6.7-7q-0.2-0.5-0.2-1.1-0.1-1.1-0.3-2-0.1-0.3-0.2-0.6c-1.3 0.3-3.3 1.3-4.7 2.2-3 2.1-6.9 2.3-9.9 0.4-1.7-1.1-3-2.7-3.7-4.5-0.5-1.5-0.7-3.2-0.4-4.9 0.4-2.3 0.2-3.7 0.1-4.3q0-0.1-0.1-0.2c-0.9-0.6-4.4-0.6-7.1 0.1-3.5 1-7.1-0.1-9.4-2.8-1-1.3-1.7-2.8-1.9-4.3-0.4-1.9-0.1-3.9 0.8-5.7q0.7-1.5 1.1-2.8c-2.4 0.9-5.2 0.7-7.6-0.7-3.5-2.1-5.2-6.3-4-10.2q0 0 0 0c-3.6 0.3-7.1-1.5-8.8-4.8-0.6-1.1-0.9-2.3-1-3.5q-0.1-0.1-0.1-0.1l-0.8-0.5c-4-2.6-5.2-7.8-2.9-11.9zm3.4-69.9q-0.3-0.4-0.6-0.8 0.3 0.4 0.6 0.8z"/><path fill-rule="evenodd" class="d" d="m27.8 131.6c0.3-2.3 0.1-4.1-0.5-5-0.8-1-2.7-1.8-5.1-2.2l-0.4 0.1q-1 0.2-1.9 0.2h-0.2q-0.3 0-0.4 0l-0.9 0.1q-0.5 0.1-1 0.2-1.5 0.3-3 0c-4.3 0-8-3.1-8.8-7.4-0.7-4.5 2-8.8 6.4-10.1l4.3-1.2q0.6-0.1 1.2-0.3c5-2.8 8.2-5.9 8.4-8.2 0.2-2.2-1.8-5.5-5-8.4q-0.4-0.2-0.7-0.3l-0.2-0.1q-0.1-0.1-0.3-0.2l-2-0.8c-4.2-1.5-6.5-5.9-5.5-10.3 1-4.3 5-7.2 9.4-6.9l3.2 0.3q2.1 0.2 3.7 0.2c3.6-0.1 5.3-0.6 6-0.9 0-1.2-0.7-4.3-3.3-8.5-0.3-0.5-0.5-0.8-0.7-1q0-0.1-0.1-0.2l-1.2-1.7c-2.4-3.4-2.1-8.1 0.7-11.2 2.8-3.1 7.5-3.8 11.1-1.7l1 0.6q0.6 0.2 1 0.2c2.8 0 7.6-6.4 10.7-16.9 1.3-4.4 5.7-7.1 10.3-6.3 4.5 0.9 7.6 5 7.2 9.6-0.2 1.8-0.2 3.7-0.3 5.8v1.2q0 0.5-0.1 0.9-0.4 3-0.5 5.8c1.9-0.3 3.9-0.9 5-2.1 1.3-1.4 1.3-3.5 1.3-3.9-0.5-2.9 0.5-5.7 2.7-7.7 2.2-2.1 5.3-2.7 8.2-2q2.1 0.5 4 0.6 0.5 0 0.9 0c5.5 0 7.2-3.3 7.6-6.2 0.3-4 3.2-7.2 7.2-8 2.7-0.5 5.4 0.4 7.5 2.1 2-2.8 5.5-4.2 8.9-3.5 0.3-0.5 0.5-1.1 0.7-1.8q0.1 0 0.1-0.1v-0.2c0.9-3.2 3.4-5.6 6.7-6.3 3.3-0.8 6.6 0.5 8.8 3.1q0.2 0.2 0.4 0.4c0.6-0.3 1.8-1.1 3-2.5q0.3-0.3 0.4-0.4c2.1-2.8 5.7-4.3 9.2-3.4 4.3 1 7.3 5 6.8 9.5q0 0.2 0 0.4c0.8-0.1 1.9-0.3 3.3-0.8 0.9-0.3 1.4-0.5 1.4-0.5 4.4-1.9 9.5 0.1 11.6 4.4 1.7 3.8 0.6 8.3-2.6 10.8q1.3 0.2 2.4 0.7c2.6 1.2 4.4 3.6 5 6.3 0.9 4.9 9.4 5.3 9.5 5.3 3.1 0 6 1.6 7.6 4.2 1.6 2.7 1.7 5.9 0.3 8.7-0.2 0.5-0.3 0.8-0.4 1 0.6 0.9 3.2 2.4 4.8 2.8 2.6 0.7 4.8 2.6 5.8 5.1 0.8 1.9 0.9 3.9 0.4 5.8 2.9 0.7 5.3 2.8 6.3 5.6 0.9 2.2 0.8 4.7-0.2 6.8q1.4 2.2 2.5 4.6c1.1-1.9 1.9-4.2 2.2-6.8 0.4-3.8 3.3-7 7.1-7.7 2-0.5 4.2-0.1 6 0.9 2.7-2.1 6.4-2.4 9.6-0.7 3.9 2.2 5.6 6.9 4 11-0.9 2.5-1.8 7.3-0.6 9.7 0.1 0.4 0.5 1 2.1 1.6 2.8 0.9 5.1 3.1 5.9 5.9 0.8 2.8 0.3 5.8-1.6 8.1-0.5 0.6-1.7 2.5-2.1 4.5-0.4 1.9-0.1 3.2 2.1 4.9 3.3 2.5 4.7 7 3 10.7-1.2 2.7-3.4 4.5-6 5.1 1.4 3.7 0.1 7.9-3.1 10.2-3.5 2.5-8.2 2.3-11.3-0.6-4.6-4.2-9.3-7.9-14.2-11.2q-0.3 1.5-0.6 2.8 0 0.8-0.2 1.6c-2.5 10.8-6.1 18-10.5 21.4q-0.1 0.1-0.3 0.2c0.6 1.7 0.6 3.4 0.2 5.2-0.8 3-3.1 5.2-6.1 6.1q-0.1 0.1-0.1 0.1c0.1 2.1-0.5 4.1-1.8 5.9-1.3 1.9-3.4 3-5.6 3.4q-0.4 1.8-1.6 3.4c-1.7 2.3-4.4 3.4-7.3 3.4-4.3 0-6 6.1-6.1 6.8-0.6 2.7-2.4 5-5 6.1-2.6 1.2-5.5 1-8-0.3-0.9-0.5-1.4-0.7-1.7-0.7-0.5 0.4-1.1 1.5-1.4 2.3-0.9 3.4-3.7 5.8-7.1 6.4-3.5 0.6-7-1.1-8.9-4-0.7-1.1-1.3-1.7-1.7-2.1-0.5 0.5-1.2 1.2-1.6 1.9-1.5 2.7-4.3 4.3-7.5 4.4q-0.1 0-0.2 0c-3 0-5.8-1.6-7.5-4.2-1.5-2.4-2.7-3-2.9-3-0.7-0.1-2.5 1-3.5 2.1-1.7 2-4.2 3.1-6.8 3.1q0 0-0.1 0c-2.7 0-5.1-1.3-6.8-3.4-2.2-2.8-3.7-3.6-4.2-3.8-0.2 0.1-0.4 0.4-0.4 0.4-2.1 3.2-5.9 4.8-9.6 3.9-3.5-0.8-6-3.6-6.7-7q-0.2-0.5-0.2-1.1-0.1-1.1-0.3-2-0.1-0.3-0.2-0.6c-1.3 0.3-3.3 1.3-4.7 2.2-3 2.1-6.9 2.3-9.9 0.3-1.7-1-3-2.6-3.7-4.4-0.5-1.5-0.7-3.2-0.4-4.9 0.4-2.4 0.2-3.7 0.1-4.3q0-0.2-0.1-0.2c-0.9-0.6-4.4-0.7-7.1 0.1-3.5 1-7.1-0.1-9.4-2.8-1-1.3-1.7-2.8-1.9-4.3-0.4-1.9-0.1-3.9 0.8-5.7q0.7-1.5 1.1-2.8c-2.4 0.9-5.2 0.7-7.6-0.7-3.5-2.1-5.2-6.3-4-10.2q0 0 0 0c-3.6 0.3-7.1-1.5-8.8-4.8-0.6-1.1-0.9-2.3-1-3.6q-0.1 0-0.1 0l-0.8-0.5c-4-2.6-5.2-7.8-2.9-11.9zm3.4-69.9q-0.3-0.4-0.6-0.8 0.3 0.4 0.6 0.8zm0 0q0 0 0 0 0 0 0 0z"/><path fill-rule="evenodd" class="e" d="m27.2 131c0.3-2.3 0.1-4.1-0.5-5-0.8-1-2.7-1.8-5.1-2.2l-0.4 0.1q-1 0.2-1.9 0.2h-0.2q-0.3 0-0.4 0l-0.9 0.1q-0.5 0.1-1 0.2-1.5 0.3-3 0c-4.3 0-8-3.1-8.8-7.4-0.7-4.5 2-8.8 6.4-10.1l4.3-1.2q0.6-0.1 1.2-0.3c5-2.8 8.2-5.9 8.4-8.2 0.2-2.2-1.8-5.5-5.1-8.4q-0.3-0.2-0.6-0.3l-0.2-0.1q-0.1-0.1-0.3-0.2l-2-0.8c-4.2-1.6-6.5-5.9-5.5-10.3 1-4.3 5-7.2 9.4-6.9l3.2 0.3q2.1 0.1 3.6 0.1c3.7 0 5.4-0.5 6.1-0.8 0-1.2-0.8-4.3-3.3-8.5-0.3-0.5-0.5-0.8-0.7-1q0-0.1-0.1-0.2l-1.2-1.7c-2.4-3.4-2.1-8.1 0.7-11.2 2.8-3.1 7.4-3.8 11.1-1.7l1 0.6q0.6 0.2 1 0.1c2.8 0 7.6-6.3 10.7-16.8 1.3-4.4 5.7-7.1 10.2-6.3 4.6 0.9 7.7 5 7.3 9.6-0.2 1.8-0.2 3.7-0.3 5.8v1.2q0 0.5-0.1 0.9-0.4 3-0.5 5.8c1.9-0.3 3.9-0.9 5-2.1 1.3-1.4 1.3-3.5 1.3-3.9-0.5-3 0.5-5.7 2.7-7.7 2.2-2.1 5.3-2.7 8.2-2q2.1 0.5 4 0.6 0.5 0 0.9 0c5.5 0 7.2-3.3 7.6-6.2 0.3-4 3.2-7.2 7.2-8 2.7-0.5 5.4 0.4 7.4 2.1 2.1-2.8 5.6-4.2 9-3.5 0.3-0.5 0.5-1.1 0.7-1.8q0.1-0.1 0.1-0.1v-0.2c0.9-3.2 3.4-5.6 6.7-6.3 3.3-0.8 6.6 0.5 8.8 3.1q0.2 0.2 0.4 0.4c0.6-0.3 1.8-1.1 3-2.5q0.3-0.3 0.4-0.4c2-2.8 5.7-4.3 9.2-3.4 4.3 1 7.3 5 6.8 9.5q0 0.2 0 0.4c0.8-0.1 1.9-0.3 3.3-0.8 0.9-0.3 1.4-0.5 1.4-0.5 4.4-1.9 9.5 0.1 11.6 4.4 1.7 3.8 0.6 8.3-2.6 10.8q1.3 0.2 2.4 0.7c2.6 1.2 4.4 3.6 5 6.3 0.9 4.9 9.4 5.3 9.5 5.3 3.1 0 5.9 1.6 7.6 4.2 1.6 2.7 1.7 5.9 0.3 8.7-0.2 0.5-0.3 0.8-0.4 1 0.6 0.9 3.2 2.4 4.8 2.8 2.6 0.7 4.8 2.6 5.8 5.1 0.8 1.9 0.9 3.9 0.4 5.8 2.9 0.7 5.3 2.8 6.3 5.6 0.9 2.2 0.8 4.7-0.2 6.8q1.4 2.2 2.5 4.6c1.1-1.9 1.9-4.2 2.2-6.8 0.4-3.8 3.3-7 7-7.7 2.1-0.5 4.3-0.1 6.1 0.9 2.7-2.1 6.4-2.4 9.6-0.7 3.9 2.2 5.6 6.9 4 11-0.9 2.5-1.8 7.3-0.6 9.7 0.1 0.4 0.5 1 2.1 1.6 2.8 0.9 5.1 3.1 5.9 5.9 0.8 2.8 0.3 5.8-1.6 8.1-0.5 0.6-1.7 2.5-2.1 4.5-0.4 1.9-0.1 3.2 2.1 4.9 3.3 2.5 4.6 7 3 10.7-1.2 2.6-3.4 4.5-6 5.1 1.4 3.7 0.1 7.9-3.1 10.2-3.5 2.5-8.2 2.3-11.3-0.6-4.6-4.2-9.3-7.9-14.2-11.2q-0.3 1.4-0.6 2.8 0 0.8-0.2 1.6c-2.5 10.8-6.1 18-10.5 21.4q-0.1 0.1-0.3 0.2c0.6 1.7 0.6 3.4 0.2 5.2-0.8 3-3.1 5.2-6.1 6.1q-0.1 0.1-0.2 0.1c0.2 2.1-0.4 4.1-1.7 5.9-1.3 1.9-3.4 3-5.6 3.4q-0.5 1.8-1.6 3.4c-1.7 2.3-4.4 3.4-7.3 3.4-4.3 0-6 6.1-6.1 6.8-0.6 2.7-2.4 5-5 6.1-2.6 1.2-5.5 1-8-0.3-0.9-0.5-1.4-0.7-1.7-0.7-0.5 0.4-1.1 1.5-1.4 2.3-0.9 3.4-3.7 5.8-7.1 6.4-3.5 0.6-7-1.1-8.9-4-0.7-1.1-1.3-1.7-1.7-2.1-0.5 0.5-1.2 1.2-1.6 1.9-1.6 2.7-4.3 4.3-7.5 4.4q-0.1 0-0.2 0c-3 0-5.8-1.6-7.5-4.2-1.5-2.4-2.7-3-2.9-3-0.7-0.1-2.5 1-3.5 2.1-1.7 2-4.2 3.1-6.8 3.1q0 0-0.1 0c-2.7 0-5.1-1.3-6.8-3.4-2.2-2.8-3.7-3.6-4.2-3.8-0.2 0.1-0.4 0.3-0.4 0.3-2.1 3.3-5.9 4.9-9.6 4-3.5-0.8-6-3.6-6.7-7q-0.2-0.5-0.2-1.1-0.1-1.1-0.3-2-0.1-0.3-0.2-0.6c-1.3 0.3-3.3 1.2-4.7 2.2-3 2.1-6.9 2.3-9.9 0.3-1.7-1-3-2.6-3.7-4.4-0.5-1.5-0.7-3.2-0.5-4.9 0.4-2.4 0.3-3.7 0.2-4.3q0-0.2-0.1-0.2c-0.9-0.6-4.4-0.7-7.1 0.1-3.5 1-7.1-0.1-9.4-2.8-1-1.3-1.7-2.8-1.9-4.3-0.4-1.9-0.1-3.9 0.8-5.7q0.7-1.5 1.1-2.8c-2.4 0.9-5.2 0.7-7.6-0.7-3.5-2.1-5.2-6.3-4-10.2q0 0 0 0c-3.6 0.3-7.1-1.5-8.8-4.8-0.6-1.1-0.9-2.3-1-3.6q-0.1 0-0.1 0l-0.8-0.5c-4-2.6-5.2-7.8-2.9-11.9zm3.4-69.9q-0.3-0.4-0.6-0.8 0.3 0.4 0.6 0.8zm0 0q0 0 0 0 0 0 0 0z"/><path fill-rule="evenodd" class="f" d="m26.6 130.4c0.3-2.3 0.1-4.1-0.5-5-0.8-1-2.7-1.8-5.2-2.2l-0.3 0.1q-1 0.2-1.9 0.2h-0.2q-0.3 0-0.4 0l-0.9 0.1q-0.5 0.1-1 0.2-1.5 0.3-3 0c-4.3 0-8-3.1-8.8-7.4-0.7-4.5 2-8.8 6.4-10.1l4.3-1.2q0.6-0.1 1.2-0.3c5-2.8 8.2-5.9 8.4-8.2 0.2-2.2-1.8-5.5-5.1-8.4q-0.3-0.2-0.6-0.3l-0.2-0.1q-0.1-0.1-0.3-0.2l-2-0.8c-4.2-1.6-6.5-5.9-5.5-10.3 1-4.3 5-7.2 9.4-6.9l3.2 0.3q2.1 0.1 3.6 0.1c3.7 0 5.4-0.5 6.1-0.8 0-1.2-0.8-4.3-3.3-8.5-0.3-0.5-0.5-0.8-0.7-1q0-0.1-0.1-0.2l-1.2-1.7c-2.4-3.4-2.1-8.1 0.7-11.2 2.8-3.1 7.4-3.8 11.1-1.7l1 0.6q0.6 0.2 1 0.1c2.8 0 7.6-6.3 10.7-16.8 1.3-4.4 5.7-7.2 10.2-6.3 4.6 0.9 7.7 5 7.3 9.6-0.2 1.8-0.2 3.7-0.3 5.8v1.2q0 0.5-0.1 0.9-0.4 3-0.5 5.8c1.9-0.3 3.9-0.9 5-2.1 1.2-1.4 1.3-3.5 1.3-3.9-0.5-3 0.5-5.7 2.7-7.7 2.2-2.1 5.3-2.7 8.2-2q2.1 0.5 4 0.6 0.5 0 0.9 0c5.5 0 7.2-3.3 7.6-6.2 0.3-4 3.2-7.2 7.2-8 2.7-0.5 5.4 0.4 7.4 2.1 2.1-2.8 5.6-4.2 9-3.5 0.3-0.5 0.5-1.1 0.7-1.8q0.1-0.1 0.1-0.1v-0.2c0.9-3.2 3.4-5.6 6.7-6.3 3.3-0.8 6.6 0.5 8.8 3.1q0.2 0.2 0.4 0.4c0.6-0.3 1.8-1.1 3-2.5q0.3-0.3 0.4-0.4c2-2.9 5.7-4.3 9.2-3.4 4.3 1 7.2 5 6.8 9.5q0 0.2 0 0.4c0.8-0.1 1.9-0.4 3.3-0.8 0.9-0.3 1.4-0.5 1.4-0.5 4.4-1.9 9.5 0.1 11.6 4.4 1.7 3.8 0.6 8.3-2.6 10.8q1.3 0.2 2.4 0.7c2.6 1.2 4.4 3.6 5 6.3 0.9 4.9 9.4 5.3 9.5 5.3 3.1 0 5.9 1.6 7.6 4.2 1.6 2.7 1.7 5.9 0.3 8.7-0.2 0.5-0.3 0.8-0.4 1 0.6 0.9 3.2 2.4 4.8 2.8 2.6 0.7 4.8 2.6 5.8 5.1 0.8 1.9 0.9 3.9 0.4 5.8 2.9 0.7 5.3 2.8 6.3 5.6 0.9 2.2 0.8 4.7-0.2 6.8q1.4 2.2 2.4 4.6c1.2-1.9 2-4.2 2.3-6.8 0.4-3.9 3.3-7 7-7.7 2.1-0.5 4.3-0.1 6.1 0.8 2.7-2 6.4-2.3 9.6-0.6 3.9 2.2 5.6 6.9 4 11-1 2.5-1.8 7.3-0.7 9.7 0.2 0.4 0.6 1 2.2 1.6 2.8 0.9 5.1 3.1 5.9 5.9 0.8 2.8 0.3 5.8-1.6 8.1-0.5 0.6-1.7 2.5-2.1 4.5-0.4 1.9-0.1 3.2 2.1 4.8 3.3 2.6 4.6 7 3 10.8-1.2 2.6-3.4 4.5-6 5.1 1.3 3.7 0.1 7.9-3.1 10.2-3.5 2.5-8.2 2.2-11.3-0.6-4.6-4.2-9.3-7.9-14.2-11.2q-0.3 1.4-0.6 2.8 0 0.8-0.2 1.5c-2.5 10.9-6.1 18.1-10.5 21.5q-0.2 0.1-0.3 0.2c0.6 1.7 0.6 3.4 0.2 5.2-0.8 3-3.2 5.2-6.1 6.1q-0.1 0.1-0.2 0.1c0.2 2.1-0.4 4.1-1.7 5.9-1.3 1.9-3.4 3-5.7 3.4q-0.4 1.8-1.5 3.4c-1.7 2.3-4.4 3.4-7.3 3.4-4.3 0-6 6.1-6.1 6.7-0.6 2.8-2.4 5.1-5 6.2-2.6 1.2-5.5 1-8-0.3-0.9-0.5-1.4-0.7-1.7-0.7-0.5 0.4-1.1 1.5-1.4 2.3-0.9 3.4-3.7 5.8-7.1 6.4-3.5 0.6-7-1.1-8.9-4-0.7-1.1-1.3-1.7-1.7-2.1-0.5 0.5-1.2 1.2-1.6 1.9-1.6 2.7-4.3 4.3-7.5 4.4q-0.1 0-0.2 0c-3 0-5.8-1.6-7.5-4.2-1.5-2.5-2.7-3-2.9-3-0.7-0.1-2.5 1-3.5 2.1-1.7 2-4.2 3.1-6.8 3.1q0 0-0.1 0c-2.7 0-5.1-1.3-6.8-3.4-2.2-2.8-3.7-3.6-4.2-3.8-0.2 0.1-0.4 0.3-0.4 0.3-2.1 3.3-5.9 4.9-9.7 4-3.4-0.8-5.9-3.6-6.6-7q-0.2-0.5-0.2-1.1-0.1-1.1-0.3-2-0.1-0.3-0.2-0.6c-1.3 0.3-3.3 1.2-4.7 2.2-3 2.1-6.9 2.3-9.9 0.3-1.7-1-3-2.6-3.7-4.4-0.6-1.5-0.7-3.2-0.5-4.9 0.4-2.4 0.3-3.7 0.2-4.3q0-0.2-0.1-0.2c-0.9-0.6-4.4-0.7-7.2 0.1-3.4 1-7-0.1-9.3-2.8-1-1.3-1.7-2.8-1.9-4.3-0.4-1.9-0.1-3.9 0.8-5.7q0.7-1.5 1.1-2.8c-2.4 0.8-5.2 0.7-7.6-0.7-3.5-2.1-5.2-6.3-4-10.2q0 0 0 0c-3.6 0.3-7.1-1.5-8.8-4.8-0.6-1.1-0.9-2.3-1-3.6q-0.1 0-0.1 0l-0.8-0.5c-4-2.6-5.2-7.8-2.9-11.9zm3.4-69.9q-0.3-0.4-0.6-0.8 0.3 0.4 0.6 0.8z"/><path fill-rule="evenodd" class="g" d="m26 129.8c0.3-2.3 0.1-4.1-0.5-5-0.8-1-2.7-1.8-5.2-2.2l-0.3 0.1q-1 0.2-1.9 0.2h-0.2q-0.3 0-0.4 0l-0.9 0.1q-0.5 0.1-1 0.2-1.5 0.3-3 0c-4.3 0-8-3.1-8.8-7.4-0.7-4.5 2-8.9 6.4-10.1l4.3-1.2q0.6-0.1 1.2-0.3c5-2.8 8.2-5.9 8.4-8.2 0.2-2.2-1.8-5.5-5.1-8.4q-0.3-0.2-0.6-0.3l-0.2-0.1q-0.2-0.1-0.3-0.2l-2-0.8c-4.2-1.6-6.5-6-5.5-10.3 1-4.3 5-7.2 9.4-6.9l3.2 0.3q2.1 0.1 3.6 0.1c3.7 0 5.4-0.5 6.1-0.8 0-1.2-0.8-4.3-3.3-8.5-0.3-0.5-0.5-0.8-0.7-1q0-0.1-0.1-0.2l-1.2-1.7c-2.4-3.5-2.1-8.1 0.7-11.2 2.8-3.1 7.4-3.8 11.1-1.7l1 0.6q0.6 0.2 1 0.1c2.8 0 7.6-6.3 10.7-16.8 1.3-4.4 5.7-7.2 10.2-6.3 4.6 0.8 7.7 5 7.3 9.6-0.2 1.8-0.2 3.7-0.3 5.8v1.2q0 0.5-0.1 0.9-0.4 3-0.5 5.8c1.9-0.3 3.9-0.9 5-2.1 1.2-1.4 1.3-3.5 1.3-4-0.5-2.9 0.5-5.6 2.7-7.6 2.2-2.1 5.2-2.7 8.2-2q2.1 0.5 4 0.6 0.5 0 0.9 0c5.5 0 7.2-3.3 7.6-6.2 0.3-4 3.2-7.2 7.2-8 2.7-0.5 5.4 0.3 7.4 2.1 2.1-2.8 5.6-4.2 9-3.5 0.3-0.5 0.5-1.1 0.7-1.8q0.1-0.1 0.1-0.1v-0.2c0.9-3.2 3.4-5.6 6.7-6.3 3.3-0.8 6.6 0.5 8.8 3.1q0.2 0.2 0.4 0.4c0.6-0.3 1.8-1.1 3-2.5q0.3-0.3 0.4-0.4c2-2.9 5.7-4.3 9.2-3.4 4.3 1 7.2 5 6.8 9.5q0 0.2 0 0.4c0.8-0.1 1.9-0.4 3.3-0.8 0.8-0.3 1.4-0.5 1.4-0.5 4.4-1.9 9.5 0.1 11.6 4.4 1.7 3.8 0.6 8.3-2.6 10.8q1.3 0.2 2.4 0.7c2.6 1.2 4.4 3.6 5 6.3 0.9 4.9 9.4 5.3 9.5 5.3 3.1 0 5.9 1.6 7.5 4.2 1.7 2.7 1.8 5.9 0.4 8.7-0.3 0.5-0.3 0.8-0.4 1 0.6 0.9 3.2 2.3 4.8 2.8 2.6 0.7 4.8 2.6 5.8 5.1 0.8 1.9 0.9 3.9 0.4 5.8 2.9 0.7 5.3 2.8 6.3 5.5 0.9 2.3 0.8 4.7-0.2 6.9q1.3 2.2 2.4 4.6c1.2-2 2-4.2 2.3-6.8 0.4-3.9 3.3-7 7-7.7 2.1-0.5 4.3-0.1 6 0.8 2.8-2 6.5-2.3 9.7-0.6 3.9 2.1 5.6 6.9 4 11-1 2.5-1.8 7.3-0.7 9.7 0.2 0.4 0.5 1 2.2 1.6 2.8 0.9 5.1 3.1 5.9 5.9 0.8 2.8 0.3 5.8-1.6 8.1-0.5 0.6-1.7 2.5-2.1 4.5-0.4 1.9-0.2 3.2 2.1 4.8 3.3 2.5 4.6 7 2.9 10.8-1.1 2.6-3.3 4.5-5.9 5.1 1.3 3.7 0.1 7.9-3.2 10.2-3.4 2.5-8.1 2.2-11.2-0.6-4.6-4.2-9.3-8-14.2-11.2q-0.3 1.4-0.6 2.8 0 0.8-0.2 1.5c-2.5 10.9-6.1 18.1-10.5 21.5q-0.2 0.1-0.3 0.2c0.6 1.7 0.6 3.4 0.2 5.2-0.8 3-3.2 5.2-6.1 6.1q-0.1 0-0.2 0.1c0.2 2.1-0.4 4.1-1.7 5.9-1.3 1.9-3.4 3-5.7 3.4q-0.4 1.8-1.5 3.3c-1.7 2.4-4.4 3.5-7.3 3.5-4.3 0-6 6.1-6.1 6.7-0.6 2.8-2.4 5-5 6.2-2.6 1.2-5.6 1-8-0.3-0.9-0.5-1.4-0.7-1.7-0.7-0.5 0.4-1.1 1.5-1.4 2.3-0.9 3.4-3.7 5.8-7.2 6.4-3.4 0.5-6.9-1.1-8.8-4-0.7-1.1-1.3-1.7-1.7-2.1-0.5 0.5-1.2 1.2-1.6 1.9-1.6 2.7-4.4 4.3-7.5 4.4q-0.1 0-0.2 0c-3 0-5.8-1.6-7.5-4.2-1.6-2.5-2.7-3-2.9-3-0.7-0.1-2.5 1-3.5 2.1-1.7 2-4.2 3.1-6.8 3.1q0 0-0.1 0c-2.7 0-5.1-1.3-6.8-3.4-2.2-2.8-3.7-3.6-4.2-3.8-0.2 0.1-0.4 0.3-0.4 0.3-2.1 3.3-5.9 4.9-9.7 4-3.4-0.8-5.9-3.6-6.7-7q-0.1-0.5-0.1-1.1-0.1-1.1-0.3-2-0.1-0.3-0.2-0.6c-1.3 0.3-3.3 1.2-4.7 2.2-3 2.1-6.9 2.3-10 0.3-1.7-1-2.9-2.6-3.6-4.4-0.6-1.5-0.8-3.3-0.5-4.9 0.4-2.4 0.3-3.7 0.2-4.3q0-0.2-0.1-0.2c-0.9-0.6-4.4-0.7-7.2 0.1-3.4 1-7-0.1-9.3-2.8-1-1.3-1.7-2.8-1.9-4.3-0.4-1.9-0.1-3.9 0.8-5.7q0.7-1.5 1.1-2.8c-2.4 0.8-5.2 0.7-7.6-0.7-3.5-2.1-5.2-6.3-4-10.2q0 0 0 0c-3.6 0.3-7.1-1.5-8.8-4.8-0.6-1.1-0.9-2.3-1-3.6q-0.1 0-0.1 0l-0.8-0.5c-4-2.6-5.2-7.8-2.9-11.9zm3.4-69.9q-0.3-0.4-0.6-0.8 0.3 0.4 0.6 0.8z"/><path fill-rule="evenodd" class="h" d="m25.4 129.2c0.3-2.3 0.1-4.1-0.6-5-0.7-1-2.6-1.8-5.1-2.2l-0.3 0.1q-1 0.2-1.9 0.2h-0.2q-0.3 0-0.4 0l-0.9 0.1q-0.5 0.1-1 0.2-1.5 0.3-3 0c-4.3 0-8-3.1-8.8-7.4-0.7-4.5 2-8.9 6.4-10.1l4.2-1.2q0.7-0.1 1.3-0.3c5-2.8 8.1-5.9 8.4-8.3 0.2-2.1-1.8-5.4-5.1-8.3q-0.3-0.2-0.6-0.3l-0.2-0.1q-0.2-0.1-0.3-0.2l-2-0.8c-4.2-1.6-6.5-6-5.5-10.3 1-4.3 5-7.2 9.4-6.9l3.2 0.3q2.1 0.1 3.6 0.1c3.7 0 5.4-0.5 6.1-0.8 0-1.2-0.8-4.3-3.3-8.5-0.3-0.5-0.5-0.8-0.7-1q0-0.1-0.1-0.2l-1.2-1.7c-2.4-3.5-2.2-8.1 0.7-11.2 2.8-3.1 7.4-3.8 11.1-1.7l1 0.6q0.6 0.2 1 0.1c2.8 0 7.6-6.3 10.7-16.8 1.3-4.5 5.7-7.2 10.2-6.3 4.5 0.8 7.7 5 7.3 9.6-0.2 1.8-0.2 3.7-0.3 5.8v1.2q0 0.5-0.1 0.9-0.4 3-0.5 5.8c1.9-0.3 3.9-0.9 5-2.1 1.2-1.4 1.3-3.5 1.2-4-0.4-2.9 0.6-5.6 2.8-7.6 2.2-2.1 5.2-2.7 8.2-2q2.1 0.5 4 0.6 0.5 0 0.9 0c5.5 0 7.2-3.3 7.6-6.2 0.3-4 3.2-7.2 7.2-8 2.7-0.5 5.4 0.3 7.4 2.1 2.1-2.8 5.6-4.2 9-3.5 0.3-0.5 0.5-1.1 0.7-1.8q0.1-0.1 0.1-0.1v-0.2c0.9-3.2 3.4-5.6 6.7-6.3 3.2-0.8 6.6 0.5 8.8 3.1q0.2 0.2 0.4 0.4c0.6-0.3 1.8-1.1 3-2.5q0.2-0.3 0.4-0.4c2-2.9 5.6-4.3 9.2-3.4 4.3 1 7.2 5 6.8 9.5q0 0.2 0 0.4c0.8-0.1 1.9-0.4 3.3-0.8 0.8-0.3 1.4-0.5 1.4-0.5 4.4-1.9 9.5 0 11.6 4.4 1.7 3.8 0.6 8.3-2.6 10.8q1.3 0.2 2.4 0.7c2.6 1.2 4.4 3.6 5 6.3 0.9 4.9 9.4 5.3 9.5 5.3 3.1 0 5.9 1.6 7.5 4.2 1.6 2.7 1.8 5.9 0.4 8.7-0.3 0.5-0.3 0.8-0.4 1 0.6 0.9 3.2 2.3 4.8 2.8 2.6 0.7 4.8 2.6 5.8 5.1 0.8 1.9 0.9 3.9 0.4 5.8 2.9 0.7 5.3 2.8 6.3 5.5 0.9 2.3 0.8 4.7-0.2 6.9q1.3 2.2 2.4 4.6c1.2-2 2-4.2 2.3-6.8 0.4-3.9 3.3-7 7-7.7 2.1-0.5 4.2-0.1 6 0.8 2.8-2 6.5-2.3 9.7-0.6 3.9 2.1 5.6 6.9 4 11-1 2.5-1.8 7.3-0.7 9.7 0.2 0.4 0.5 1 2.2 1.6 2.8 0.9 5.1 3.1 5.9 5.9 0.8 2.8 0.3 5.8-1.6 8.1-0.5 0.6-1.7 2.5-2.1 4.5-0.4 1.9-0.2 3.2 2.1 4.8 3.3 2.5 4.6 7 2.9 10.8-1.1 2.6-3.3 4.5-5.9 5.1 1.3 3.7 0.1 7.9-3.2 10.2-3.4 2.5-8.1 2.2-11.2-0.6-4.6-4.2-9.3-8-14.2-11.2q-0.3 1.4-0.6 2.8 0 0.8-0.2 1.5c-2.5 10.9-6.1 18.1-10.5 21.5q-0.2 0.1-0.3 0.2c0.6 1.6 0.6 3.4 0.2 5.2-0.8 3-3.2 5.2-6.1 6.1q-0.1 0-0.2 0.1c0.2 2.1-0.4 4.1-1.7 5.9-1.3 1.9-3.4 3-5.7 3.4q-0.4 1.8-1.5 3.3c-1.7 2.4-4.4 3.5-7.3 3.5-4.3 0-6 6.1-6.1 6.7-0.6 2.8-2.4 5-5 6.2-2.6 1.2-5.6 1-8-0.3-0.9-0.5-1.4-0.7-1.7-0.7-0.5 0.4-1.1 1.5-1.4 2.3-0.9 3.4-3.7 5.8-7.2 6.4-3.4 0.5-6.9-1.1-8.8-4-0.7-1.1-1.3-1.7-1.7-2.1-0.5 0.5-1.2 1.2-1.6 1.9-1.6 2.7-4.4 4.3-7.5 4.4q-0.1 0-0.2 0c-3 0-5.8-1.6-7.5-4.2-1.6-2.5-2.7-3-2.9-3.1-0.7 0-2.5 1.1-3.5 2.2-1.7 2-4.2 3.1-6.8 3.1q-0.1 0-0.1 0c-2.7 0-5.1-1.3-6.8-3.4-2.2-2.8-3.7-3.6-4.2-3.8-0.2 0.1-0.4 0.3-0.4 0.3-2.1 3.3-5.9 4.9-9.7 4-3.4-0.8-5.9-3.6-6.7-7q-0.1-0.6-0.1-1.1-0.1-1.1-0.3-2-0.1-0.3-0.2-0.6c-1.3 0.3-3.4 1.2-4.7 2.2-3 2.1-6.9 2.3-10 0.3-1.7-1-2.9-2.6-3.6-4.4-0.6-1.5-0.8-3.3-0.5-4.9 0.4-2.4 0.3-3.7 0.2-4.3q0-0.2-0.1-0.2c-0.9-0.6-4.4-0.7-7.2 0.1-3.4 1-7-0.1-9.3-2.8-1-1.3-1.7-2.8-1.9-4.3-0.4-1.9-0.2-3.9 0.8-5.7q0.7-1.5 1.1-2.9c-2.4 0.9-5.2 0.7-7.6-0.6-3.5-2.1-5.2-6.3-4-10.2q0 0 0-0.1c-3.6 0.4-7.1-1.4-8.8-4.7-0.6-1.1-0.9-2.3-1-3.6q-0.1 0-0.1 0l-0.8-0.5c-4-2.6-5.2-7.8-2.9-11.9zm3.4-69.9q-0.3-0.4-0.6-0.8 0.2 0.4 0.6 0.8zm0 0q0 0 0 0 0 0 0 0z"/><path fill-rule="evenodd" class="i" d="m24.8 128.6c0.3-2.3 0.1-4.1-0.6-5-0.7-1-2.6-1.8-5.1-2.2l-0.4 0.1q-0.9 0.2-1.8 0.2h-0.2q-0.3 0-0.4 0l-0.9 0.1q-0.5 0.1-1 0.2-1.5 0.3-3 0c-4.3 0-8-3.1-8.8-7.4-0.7-4.5 2-8.9 6.4-10.1l4.2-1.2q0.7-0.1 1.3-0.3c5-2.8 8.1-5.9 8.4-8.3 0.2-2.1-1.8-5.4-5.1-8.3q-0.3-0.2-0.6-0.3l-0.2-0.1q-0.2-0.1-0.3-0.2l-2-0.8c-4.2-1.6-6.5-6-5.5-10.3 1-4.3 5-7.3 9.4-6.9l3.2 0.3q2.1 0.1 3.6 0.1c3.7 0 5.4-0.5 6.1-0.8 0-1.3-0.8-4.3-3.3-8.5-0.3-0.5-0.5-0.8-0.7-1q0-0.1-0.1-0.2l-1.2-1.7c-2.4-3.5-2.2-8.1 0.7-11.2 2.8-3.1 7.4-3.8 11.1-1.7l1 0.6q0.6 0.1 1 0.1c2.8 0 7.6-6.3 10.7-16.8 1.3-4.5 5.7-7.2 10.2-6.3 4.5 0.8 7.7 5 7.3 9.6-0.2 1.8-0.3 3.7-0.3 5.8v1.2q-0.1 0.5-0.1 0.9-0.4 3-0.5 5.8c1.9-0.3 3.9-0.9 5-2.1 1.2-1.4 1.3-3.5 1.2-4-0.4-2.9 0.6-5.6 2.8-7.6 2.2-2.1 5.2-2.7 8.1-2q2.2 0.5 4.1 0.6 0.5 0 0.9 0c5.5 0 7.2-3.3 7.6-6.2 0.3-4 3.2-7.2 7.2-8 2.7-0.5 5.4 0.3 7.4 2.1 2.1-2.9 5.6-4.2 9-3.6 0.2-0.4 0.5-1.1 0.7-1.7q0-0.1 0.1-0.1v-0.2c0.9-3.2 3.4-5.6 6.7-6.3 3.2-0.8 6.6 0.5 8.8 3.1q0.2 0.2 0.4 0.4c0.6-0.3 1.8-1.1 3-2.6q0.2-0.2 0.4-0.3c2-2.9 5.6-4.3 9.2-3.4 4.3 1 7.2 5 6.8 9.5q0 0.2 0 0.4c0.8-0.1 1.9-0.4 3.3-0.8 0.8-0.3 1.4-0.5 1.4-0.5 4.4-1.9 9.5 0 11.6 4.4 1.7 3.8 0.6 8.3-2.6 10.8q1.3 0.2 2.4 0.7c2.6 1.2 4.4 3.6 4.9 6.3 1 4.9 9.5 5.3 9.6 5.3 3.1 0 5.9 1.6 7.5 4.2 1.6 2.6 1.8 5.9 0.4 8.7-0.3 0.5-0.3 0.8-0.4 1 0.6 0.9 3.2 2.3 4.8 2.8 2.6 0.7 4.8 2.6 5.8 5.1 0.8 1.9 0.9 3.9 0.4 5.8 2.9 0.7 5.3 2.8 6.3 5.5 0.9 2.3 0.8 4.7-0.2 6.9q1.3 2.2 2.4 4.6c1.2-2 2-4.2 2.3-6.8 0.4-3.9 3.3-7 7-7.7 2.1-0.5 4.2-0.1 6 0.8 2.8-2 6.5-2.3 9.7-0.6 3.9 2.1 5.6 6.9 4 11-1 2.5-1.8 7.3-0.7 9.7 0.2 0.3 0.5 1 2.2 1.6 2.8 0.9 5.1 3.1 5.9 5.9 0.8 2.8 0.2 5.8-1.6 8.1-0.5 0.6-1.7 2.5-2.1 4.5-0.4 1.9-0.2 3.2 2.1 4.8 3.3 2.5 4.6 7 2.9 10.8-1.1 2.6-3.3 4.5-5.9 5.1 1.3 3.7 0.1 7.9-3.2 10.2-3.4 2.5-8.1 2.2-11.2-0.6-4.6-4.2-9.4-8-14.2-11.2q-0.3 1.4-0.6 2.8-0.1 0.8-0.2 1.5c-2.5 10.9-6.1 18.1-10.5 21.5q-0.2 0.1-0.3 0.2c0.6 1.6 0.6 3.4 0.2 5.2-0.8 3-3.2 5.2-6.1 6.1q-0.1 0-0.2 0.1c0.2 2.1-0.4 4.1-1.7 5.9-1.3 1.9-3.4 3-5.7 3.4q-0.4 1.8-1.5 3.3c-1.7 2.3-4.4 3.5-7.3 3.5-4.3 0-6 6.1-6.1 6.7-0.6 2.8-2.4 5-5 6.2-2.6 1.2-5.6 1-8-0.3-0.9-0.5-1.5-0.7-1.7-0.7-0.5 0.4-1.1 1.5-1.4 2.3-1 3.4-3.7 5.8-7.2 6.4-3.4 0.5-6.9-1.1-8.8-4-0.7-1.1-1.3-1.7-1.7-2.1-0.5 0.5-1.2 1.2-1.6 1.9-1.6 2.7-4.4 4.3-7.5 4.4q-0.1 0-0.2 0c-3.1 0-5.8-1.6-7.5-4.2-1.6-2.5-2.7-3-2.9-3.1-0.7 0-2.5 1.1-3.5 2.2-1.7 2-4.2 3.1-6.8 3.1q-0.1 0-0.1 0c-2.7 0-5.1-1.3-6.8-3.4-2.2-2.8-3.7-3.6-4.2-3.8-0.2 0.1-0.4 0.3-0.4 0.3-2.1 3.3-5.9 4.9-9.7 4-3.4-0.8-5.9-3.6-6.7-7q-0.1-0.6-0.1-1.1-0.1-1.1-0.3-2-0.1-0.3-0.2-0.6c-1.3 0.3-3.4 1.2-4.7 2.2-3 2.1-6.9 2.2-10 0.3-1.7-1-2.9-2.6-3.6-4.4-0.6-1.6-0.8-3.3-0.5-5 0.4-2.3 0.3-3.6 0.2-4.2q-0.1-0.2-0.1-0.2c-0.9-0.6-4.4-0.7-7.2 0.1-3.4 1-7-0.1-9.3-2.8-1-1.3-1.7-2.8-1.9-4.3-0.4-1.9-0.2-3.9 0.7-5.7q0.8-1.5 1.2-2.9c-2.4 0.9-5.2 0.7-7.6-0.6-3.5-2.1-5.2-6.3-4-10.2q0 0 0-0.1c-3.6 0.4-7.1-1.4-8.8-4.7-0.6-1.1-0.9-2.3-1-3.6q-0.1 0-0.1-0.1l-0.8-0.4c-4-2.6-5.3-7.8-2.9-11.9zm3.4-69.9q-0.3-0.4-0.6-0.8 0.3 0.4 0.6 0.8z"/><path fill-rule="evenodd" class="j" d="m24.2 127.9c0.3-2.2 0.1-4-0.6-4.9-0.7-1-2.6-1.8-5.1-2.2l-0.4 0.1q-0.9 0.2-1.8 0.2h-0.2q-0.3 0-0.4 0l-0.9 0.1q-0.5 0.1-1 0.2-1.5 0.3-3 0c-4.3 0-8.1-3.1-8.8-7.4-0.7-4.5 2-8.9 6.4-10.1l4.2-1.2q0.7-0.1 1.3-0.3c5-2.8 8.1-5.9 8.4-8.3 0.2-2.1-1.8-5.4-5.1-8.3q-0.3-0.2-0.6-0.4h-0.2q-0.2-0.1-0.3-0.2l-2-0.8c-4.2-1.6-6.5-6-5.5-10.3 1-4.3 5-7.3 9.4-6.9l3.2 0.3q2.1 0.1 3.6 0.1c3.7 0 5.4-0.5 6.1-0.8 0-1.3-0.8-4.3-3.3-8.5-0.3-0.5-0.5-0.9-0.7-1q0-0.1-0.1-0.2l-1.2-1.7c-2.4-3.5-2.2-8.1 0.7-11.2 2.8-3.1 7.4-3.8 11.1-1.7l1 0.6q0.6 0.1 1 0.1c2.8 0 7.6-6.3 10.7-16.9 1.3-4.4 5.7-7.1 10.2-6.2 4.5 0.8 7.7 5 7.3 9.5-0.2 1.9-0.3 3.8-0.3 5.9v1.2q-0.1 0.5-0.1 0.9-0.4 3-0.5 5.8c1.9-0.3 3.9-0.9 5-2.1 1.2-1.4 1.3-3.5 1.2-4-0.4-2.9 0.6-5.6 2.8-7.6 2.2-2.1 5.2-2.7 8.1-2q2.2 0.5 4.1 0.6 0.5 0 0.9 0c5.5 0 7.2-3.3 7.6-6.2 0.3-4 3.2-7.2 7.2-8 2.7-0.5 5.4 0.3 7.4 2.1 2.1-2.9 5.6-4.2 9-3.6 0.2-0.4 0.5-1.1 0.7-1.7q0-0.1 0.1-0.1v-0.2c0.9-3.2 3.4-5.6 6.7-6.3 3.2-0.8 6.6 0.5 8.8 3.1q0.1 0.2 0.4 0.4c0.6-0.3 1.8-1.1 3-2.6q0.2-0.2 0.4-0.3c2-2.9 5.6-4.3 9.2-3.4 4.3 1 7.2 5 6.8 9.5q0 0.2 0 0.4c0.8-0.1 1.9-0.4 3.3-0.8 0.8-0.3 1.4-0.5 1.4-0.5 4.4-1.9 9.5 0 11.6 4.4 1.7 3.8 0.6 8.3-2.6 10.8q1.3 0.2 2.4 0.7c2.6 1.2 4.4 3.6 4.9 6.3 1 4.9 9.5 5.3 9.6 5.3 3.1 0 5.9 1.6 7.5 4.2 1.6 2.6 1.8 5.9 0.4 8.7-0.3 0.5-0.4 0.8-0.4 1 0.6 0.9 3.2 2.3 4.8 2.8 2.6 0.7 4.8 2.6 5.8 5.1 0.8 1.9 0.9 3.9 0.4 5.8 2.9 0.7 5.3 2.8 6.3 5.5 0.9 2.3 0.8 4.7-0.2 6.9q1.3 2.2 2.4 4.6c1.2-2 1.9-4.2 2.2-6.8 0.5-3.9 3.3-7 7.1-7.8 2.1-0.4 4.2 0 6 0.9 2.8-2 6.5-2.3 9.7-0.6 3.9 2.1 5.6 6.8 4 11-1 2.5-1.8 7.3-0.7 9.7 0.2 0.3 0.5 1 2.2 1.6 2.8 0.9 5.1 3 5.9 5.9 0.8 2.8 0.2 5.8-1.6 8.1-0.5 0.6-1.7 2.5-2.1 4.5-0.4 1.8-0.2 3.2 2.1 4.8 3.3 2.5 4.6 7 2.9 10.8-1.1 2.6-3.3 4.5-5.9 5.1 1.3 3.7 0.1 7.9-3.2 10.2-3.4 2.5-8.1 2.2-11.2-0.6-4.6-4.2-9.4-8-14.2-11.2q-0.3 1.4-0.6 2.8-0.1 0.8-0.2 1.5c-2.6 10.9-6.1 18.1-10.5 21.5q-0.2 0.1-0.3 0.2c0.6 1.6 0.6 3.4 0.2 5.2-0.8 3-3.2 5.2-6.1 6.1q-0.1 0-0.2 0.1c0.2 2-0.4 4.1-1.7 5.9-1.3 1.9-3.4 3-5.7 3.4q-0.4 1.8-1.5 3.3c-1.7 2.3-4.4 3.5-7.3 3.5-4.3 0-6 6.1-6.1 6.7-0.6 2.8-2.5 5-5 6.2-2.6 1.2-5.6 1-8-0.3-0.9-0.5-1.5-0.7-1.7-0.7-0.5 0.4-1.1 1.5-1.4 2.3-1 3.4-3.7 5.8-7.2 6.4-3.4 0.5-6.9-1.1-8.8-4-0.7-1.1-1.3-1.7-1.7-2.1-0.5 0.5-1.2 1.2-1.6 1.9-1.6 2.7-4.4 4.3-7.5 4.4q-0.1 0-0.2 0c-3.1 0-5.8-1.6-7.5-4.2-1.6-2.5-2.7-3-2.9-3.1-0.7 0-2.5 1.1-3.6 2.2-1.6 2-4.1 3.1-6.7 3.1q-0.1 0-0.1 0c-2.7 0-5.1-1.3-6.8-3.4-2.3-2.8-3.7-3.6-4.2-3.8-0.2 0.1-0.4 0.3-0.5 0.3-2 3.3-5.9 4.9-9.6 4-3.4-0.8-5.9-3.6-6.7-7q-0.1-0.6-0.1-1.1-0.1-1.1-0.3-2-0.1-0.3-0.2-0.6c-1.3 0.3-3.4 1.2-4.7 2.2-3 2.1-6.9 2.2-10 0.3-1.7-1-2.9-2.6-3.6-4.4-0.6-1.6-0.8-3.3-0.5-5 0.4-2.3 0.3-3.6 0.2-4.2q-0.1-0.2-0.1-0.2c-0.9-0.6-4.4-0.7-7.2 0.1-3.4 1-7-0.1-9.3-2.8-1-1.3-1.7-2.8-1.9-4.3-0.4-1.9-0.2-3.9 0.7-5.7q0.8-1.5 1.2-2.9c-2.4 0.9-5.2 0.7-7.6-0.6-3.5-2.1-5.2-6.3-4-10.2q0 0 0-0.1c-3.6 0.4-7.1-1.4-8.8-4.7-0.6-1.1-0.9-2.3-1-3.6q-0.1 0-0.1-0.1l-0.8-0.5c-4-2.5-5.3-7.7-2.9-11.9zm3.4-69.8q-0.3-0.4-0.6-0.8 0.2 0.4 0.6 0.8zm0 0q0 0 0 0 0 0 0 0z"/><path fill-rule="evenodd" class="k" d="m23.6 127.3c0.3-2.2 0.1-4-0.6-4.9-0.7-1-2.6-1.8-5.1-2.2l-0.4 0.1q-0.9 0.2-1.8 0.2h-0.2q-0.3 0-0.4 0l-0.9 0.1q-0.5 0.1-1 0.2-1.5 0.3-3 0c-4.3 0-8.1-3.1-8.8-7.4-0.8-4.5 2-8.9 6.4-10.1l4.2-1.2q0.6-0.1 1.3-0.3c5-2.8 8.1-5.9 8.4-8.3 0.2-2.1-1.8-5.4-5.1-8.4q-0.3-0.1-0.6-0.3h-0.2q-0.2-0.1-0.3-0.2l-2-0.8c-4.2-1.6-6.5-6-5.5-10.3 1-4.3 5-7.3 9.4-6.9l3.2 0.3q2.1 0.1 3.6 0.1c3.7 0 5.4-0.5 6.1-0.8 0-1.3-0.8-4.3-3.3-8.5-0.3-0.5-0.5-0.9-0.7-1.1q0 0-0.1-0.1l-1.2-1.7c-2.5-3.5-2.2-8.1 0.7-11.2 2.8-3.1 7.4-3.8 11.1-1.7l1 0.6q0.6 0.1 1 0.1c2.8 0 7.6-6.3 10.7-16.9 1.3-4.4 5.7-7.1 10.2-6.2 4.5 0.8 7.7 5 7.3 9.5-0.2 1.9-0.3 3.8-0.3 5.9v1.2q-0.1 0.5-0.1 0.9-0.4 3-0.6 5.8c2-0.3 4-0.9 5.1-2.1 1.2-1.4 1.2-3.5 1.2-4-0.4-2.9 0.6-5.6 2.8-7.6 2.2-2.1 5.2-2.7 8.1-2q2.2 0.5 4.1 0.6 0.5 0 0.9 0c5.5 0 7.2-3.4 7.6-6.2 0.3-4 3.2-7.2 7.2-8 2.7-0.5 5.4 0.3 7.4 2.1 2.1-2.9 5.6-4.2 9-3.6 0.2-0.5 0.5-1.1 0.7-1.7q0-0.1 0.1-0.1v-0.2c0.9-3.2 3.4-5.6 6.7-6.4 3.2-0.7 6.6 0.6 8.8 3.1q0.1 0.3 0.4 0.5c0.6-0.3 1.8-1.1 3-2.6q0.2-0.2 0.4-0.4c2-2.8 5.6-4.2 9.2-3.3 4.3 1 7.2 5 6.8 9.5q0 0.2 0 0.4c0.8-0.1 1.9-0.4 3.3-0.8 0.8-0.3 1.3-0.5 1.4-0.5 4.4-1.9 9.5 0 11.5 4.4 1.8 3.8 0.7 8.2-2.5 10.8q1.2 0.2 2.4 0.7c2.6 1.2 4.4 3.6 4.9 6.3 1 4.9 9.5 5.2 9.6 5.2 3.1 0.1 5.9 1.7 7.5 4.3 1.6 2.6 1.8 5.9 0.4 8.7-0.3 0.5-0.4 0.8-0.4 1 0.6 0.9 3.2 2.3 4.8 2.8 2.6 0.7 4.8 2.6 5.8 5.1 0.8 1.9 0.9 3.9 0.4 5.8 2.9 0.7 5.2 2.8 6.3 5.5 0.9 2.3 0.8 4.7-0.2 6.9q1.3 2.2 2.4 4.6c1.2-2 1.9-4.2 2.2-6.8 0.5-3.9 3.3-7 7.1-7.8 2.1-0.4 4.2 0 6 0.9 2.8-2 6.5-2.3 9.6-0.6 4 2.1 5.7 6.8 4.1 11-1 2.5-1.8 7.3-0.7 9.7 0.2 0.3 0.5 1 2.2 1.6 2.8 0.9 5.1 3 5.9 5.9 0.8 2.8 0.2 5.8-1.6 8-0.5 0.7-1.7 2.6-2.1 4.6-0.4 1.8-0.2 3.2 2.1 4.8 3.3 2.5 4.6 7 2.9 10.8-1.1 2.6-3.3 4.5-5.9 5.1 1.3 3.7 0.1 7.9-3.2 10.2-3.4 2.5-8.1 2.2-11.2-0.6-4.6-4.2-9.4-8-14.2-11.2q-0.3 1.4-0.6 2.8-0.1 0.8-0.2 1.5c-2.6 10.9-6.1 18.1-10.5 21.5q-0.2 0.1-0.3 0.2c0.6 1.6 0.6 3.4 0.2 5.2-0.8 3-3.2 5.1-6.1 6.1q-0.1 0-0.2 0.1c0.2 2-0.4 4.1-1.7 5.9-1.3 1.9-3.4 3-5.7 3.4q-0.4 1.8-1.5 3.3c-1.7 2.3-4.4 3.5-7.3 3.5-4.3 0-6 6.1-6.2 6.7-0.5 2.8-2.4 5-4.9 6.2-2.6 1.2-5.6 1-8.1-0.4-0.8-0.4-1.4-0.6-1.6-0.6-0.5 0.4-1.1 1.5-1.4 2.3-1 3.4-3.7 5.8-7.2 6.4-3.4 0.5-6.9-1.1-8.8-4-0.7-1.1-1.3-1.7-1.7-2.1-0.5 0.5-1.2 1.2-1.6 1.9-1.6 2.7-4.4 4.3-7.5 4.4q-0.1 0-0.2 0c-3.1 0-5.9-1.6-7.5-4.2-1.6-2.5-2.7-3-2.9-3.1-0.7 0-2.5 1.1-3.6 2.2-1.7 2-4.1 3.1-6.7 3.1q-0.1 0-0.1 0c-2.7 0-5.1-1.3-6.8-3.4-2.3-2.8-3.7-3.6-4.2-3.8-0.2 0.1-0.5 0.3-0.5 0.3-2 3.3-5.9 4.8-9.6 4-3.4-0.8-5.9-3.6-6.7-7q-0.1-0.6-0.2-1.2 0-1-0.2-1.9-0.1-0.3-0.2-0.6c-1.3 0.3-3.4 1.2-4.8 2.2-2.9 2.1-6.8 2.2-9.9 0.3-1.7-1-2.9-2.6-3.6-4.4-0.6-1.6-0.8-3.3-0.5-5 0.4-2.3 0.3-3.6 0.2-4.2q-0.1-0.2-0.1-0.2c-0.9-0.6-4.4-0.7-7.2 0.1-3.4 1-7-0.1-9.3-2.9-1-1.2-1.7-2.7-1.9-4.2-0.4-1.9-0.2-3.9 0.7-5.7q0.8-1.6 1.2-2.9c-2.4 0.9-5.2 0.7-7.6-0.6-3.5-2.1-5.2-6.3-4-10.2q0 0 0-0.1c-3.6 0.4-7.1-1.4-8.8-4.7-0.6-1.1-0.9-2.3-1-3.6q-0.1 0-0.1-0.1l-0.8-0.5c-4-2.5-5.3-7.8-2.9-11.9zm3.4-69.8q-0.3-0.4-0.6-0.8 0.3 0.4 0.6 0.8z"/><path fill-rule="evenodd" class="l" d="m23 126.7c0.3-2.2 0.1-4-0.6-4.9-0.7-1-2.6-1.8-5.1-2.2l-0.4 0.1q-0.9 0.2-1.9 0.2h-0.1q-0.3 0-0.4 0l-0.9 0.1q-0.5 0.1-1 0.2-1.5 0.3-3 0c-4.3 0-8.1-3.1-8.8-7.4-0.8-4.5 2-8.9 6.4-10.1l4.2-1.2q0.6-0.2 1.2-0.3c5.1-2.8 8.2-5.9 8.5-8.3 0.2-2.1-1.8-5.4-5.1-8.4q-0.3-0.1-0.6-0.3h-0.2q-0.2-0.1-0.3-0.2l-2-0.8c-4.2-1.6-6.5-6-5.5-10.3 1-4.3 5-7.3 9.4-6.9l3.2 0.3q2.1 0.1 3.6 0.1c3.7 0 5.4-0.5 6.1-0.8 0-1.3-0.8-4.3-3.3-8.5-0.3-0.5-0.6-0.9-0.7-1.1q0 0-0.1-0.1l-1.2-1.7c-2.5-3.5-2.2-8.1 0.7-11.2 2.8-3.1 7.4-3.8 11.1-1.7l0.9 0.6q0.7 0.1 1.1 0.1c2.8 0 7.6-6.3 10.7-16.9 1.3-4.4 5.7-7.1 10.2-6.2 4.5 0.8 7.7 5 7.3 9.5-0.2 1.9-0.3 3.8-0.3 5.9v1.2q-0.1 0.5-0.1 0.9-0.4 2.9-0.6 5.8c2-0.3 4-0.9 5.1-2.1 1.2-1.4 1.2-3.5 1.2-4-0.4-2.9 0.6-5.6 2.8-7.6 2.1-2.1 5.2-2.7 8.1-2q2.2 0.5 4.1 0.6 0.5 0 0.9 0c5.5 0 7.2-3.4 7.6-6.2 0.3-4.1 3.2-7.2 7.2-8 2.7-0.5 5.4 0.3 7.4 2.1 2.1-2.9 5.6-4.2 9-3.6 0.2-0.5 0.5-1.1 0.7-1.7q0-0.1 0.1-0.1v-0.2c0.9-3.2 3.4-5.6 6.7-6.4 3.2-0.7 6.6 0.6 8.8 3.1q0.1 0.3 0.4 0.5c0.6-0.3 1.8-1.1 3-2.6q0.2-0.2 0.4-0.4c2-2.8 5.6-4.2 9.2-3.4 4.3 1.1 7.2 5.1 6.8 9.5q0 0.3 0 0.5c0.8-0.1 1.9-0.4 3.3-0.8 0.8-0.3 1.3-0.5 1.3-0.5 4.5-1.9 9.6 0 11.6 4.4 1.8 3.8 0.7 8.2-2.5 10.8q1.2 0.1 2.4 0.7c2.6 1.2 4.4 3.5 4.9 6.3 1 4.9 9.5 5.2 9.6 5.2 3.1 0.1 5.9 1.7 7.5 4.3 1.6 2.6 1.8 5.9 0.4 8.7-0.3 0.5-0.4 0.8-0.4 1 0.6 0.9 3.2 2.3 4.8 2.8 2.6 0.7 4.8 2.6 5.8 5.1 0.8 1.9 0.9 3.9 0.4 5.8 2.9 0.7 5.2 2.7 6.3 5.5 0.9 2.3 0.8 4.7-0.2 6.9q1.3 2.2 2.4 4.6c1.2-2 1.9-4.2 2.2-6.8 0.5-3.9 3.3-7 7.1-7.8 2.1-0.4 4.2 0 6 0.9 2.8-2 6.5-2.3 9.6-0.6 4 2.1 5.7 6.9 4.1 11-1 2.5-1.8 7.3-0.7 9.7 0.2 0.3 0.5 1 2.2 1.6 2.8 0.9 5 3 5.9 5.9 0.8 2.8 0.2 5.8-1.6 8-0.5 0.7-1.7 2.6-2.1 4.6-0.4 1.8-0.2 3.1 2 4.8 3.4 2.5 4.7 7 3 10.8-1.1 2.6-3.3 4.5-5.9 5.1 1.3 3.7 0.1 7.9-3.2 10.2-3.4 2.5-8.1 2.2-11.2-0.6-4.6-4.2-9.4-8-14.2-11.2q-0.3 1.4-0.6 2.8-0.1 0.8-0.2 1.5c-2.6 10.9-6.1 18.1-10.5 21.5q-0.2 0.1-0.3 0.2c0.6 1.6 0.6 3.4 0.2 5.2-0.8 3-3.2 5.1-6.1 6.1q-0.1 0-0.2 0.1c0.2 2-0.4 4.1-1.7 5.9-1.3 1.9-3.4 3-5.7 3.4q-0.4 1.8-1.5 3.3c-1.7 2.3-4.4 3.5-7.3 3.5-4.3 0-6 6.1-6.2 6.7-0.5 2.8-2.4 5-4.9 6.2-2.6 1.2-5.6 1-8.1-0.4-0.8-0.4-1.4-0.6-1.6-0.6-0.5 0.4-1.2 1.5-1.5 2.3-0.9 3.4-3.6 5.8-7.1 6.4-3.4 0.5-6.9-1.1-8.8-4-0.7-1.1-1.3-1.7-1.7-2.1-0.5 0.5-1.2 1.2-1.6 1.9-1.6 2.7-4.4 4.3-7.5 4.4q-0.1 0-0.2 0c-3.1 0-5.9-1.6-7.5-4.2-1.6-2.5-2.7-3-2.9-3.1-0.7 0-2.5 1.1-3.6 2.2-1.7 2-4.1 3.1-6.7 3.1q-0.1 0-0.1 0c-2.7 0-5.1-1.3-6.8-3.4-2.3-2.8-3.7-3.6-4.2-3.9-0.2 0.2-0.5 0.4-0.5 0.4-2 3.3-5.9 4.8-9.6 4-3.4-0.9-6-3.6-6.7-7q-0.1-0.6-0.2-1.2-0.1-1-0.2-1.9-0.1-0.4-0.2-0.6c-1.3 0.3-3.4 1.2-4.8 2.2-2.9 2.1-6.8 2.2-9.9 0.3-1.7-1-2.9-2.6-3.6-4.4-0.6-1.6-0.8-3.3-0.5-5 0.4-2.3 0.3-3.6 0.2-4.2q-0.1-0.2-0.1-0.2c-0.9-0.6-4.4-0.7-7.2 0.1-3.4 1-7-0.1-9.3-2.9-1-1.2-1.7-2.7-1.9-4.2-0.4-1.9-0.2-3.9 0.7-5.7q0.8-1.6 1.2-2.9c-2.4 0.9-5.2 0.7-7.6-0.6-3.5-2.1-5.2-6.3-4-10.2q0 0 0-0.1c-3.6 0.4-7.1-1.4-8.8-4.7-0.6-1.1-0.9-2.4-1-3.6q-0.1 0-0.1-0.1l-0.8-0.5c-4-2.5-5.3-7.8-2.9-11.9zm3.4-69.8q-0.3-0.4-0.6-0.8 0.2 0.4 0.6 0.8zm0 0q0 0 0 0 0 0 0 0z"/></g><path fill-rule="evenodd" class="a" d="m23 126.7c0.3-2.2 0.1-4-0.6-4.9-0.7-1-2.6-1.8-5.1-2.2l-0.4 0.1q-0.9 0.2-1.9 0.2h-0.1q-0.3 0-0.4 0l-0.9 0.1q-0.5 0.1-1 0.2-1.5 0.3-3 0c-4.3 0-8.1-3.1-8.8-7.4-0.8-4.5 2-8.9 6.4-10.1l4.2-1.2q0.6-0.2 1.2-0.3c5.1-2.8 8.2-5.9 8.5-8.3 0.2-2.1-1.8-5.4-5.1-8.4q-0.3-0.1-0.6-0.3h-0.2q-0.2-0.1-0.3-0.2l-2-0.8c-4.2-1.6-6.5-6-5.5-10.3 1-4.3 5-7.3 9.4-6.9l3.2 0.3q2.1 0.1 3.6 0.1c3.7 0 5.4-0.5 6.1-0.8 0-1.3-0.8-4.3-3.3-8.5-0.3-0.5-0.6-0.9-0.7-1.1q0 0-0.1-0.1l-1.2-1.7c-2.5-3.5-2.2-8.1 0.7-11.2 2.8-3.1 7.4-3.8 11.1-1.7l0.9 0.6q0.7 0.1 1.1 0.1c2.8 0 7.6-6.3 10.7-16.9 1.3-4.4 5.7-7.1 10.2-6.2 4.5 0.8 7.7 5 7.3 9.5-0.2 1.9-0.3 3.8-0.3 5.9v1.2q-0.1 0.5-0.1 0.9-0.4 2.9-0.6 5.8c2-0.3 4-0.9 5.1-2.1 1.2-1.4 1.2-3.5 1.2-4-0.4-2.9 0.6-5.6 2.8-7.6 2.1-2.1 5.2-2.7 8.1-2q2.2 0.5 4.1 0.6 0.5 0 0.9 0c5.5 0 7.2-3.4 7.6-6.2 0.3-4.1 3.2-7.2 7.2-8 2.7-0.5 5.4 0.3 7.4 2.1 2.1-2.9 5.6-4.2 9-3.6 0.2-0.5 0.5-1.1 0.7-1.7q0-0.1 0.1-0.1v-0.2c0.9-3.2 3.4-5.6 6.7-6.4 3.2-0.7 6.6 0.6 8.8 3.1q0.1 0.3 0.4 0.5c0.6-0.3 1.8-1.1 3-2.6q0.2-0.2 0.4-0.4c2-2.8 5.6-4.2 9.2-3.4 4.3 1.1 7.2 5.1 6.8 9.5q0 0.3 0 0.5c0.8-0.1 1.9-0.4 3.3-0.8 0.8-0.3 1.3-0.5 1.3-0.5 4.5-1.9 9.6 0 11.6 4.4 1.8 3.8 0.7 8.2-2.5 10.8q1.2 0.1 2.4 0.7c2.6 1.2 4.4 3.5 4.9 6.3 1 4.9 9.5 5.2 9.6 5.2 3.1 0.1 5.9 1.7 7.5 4.3 1.6 2.6 1.8 5.9 0.4 8.7-0.3 0.5-0.4 0.8-0.4 1 0.6 0.9 3.2 2.3 4.8 2.8 2.6 0.7 4.8 2.6 5.8 5.1 0.8 1.9 0.9 3.9 0.4 5.8 2.9 0.7 5.2 2.7 6.3 5.5 0.9 2.3 0.8 4.7-0.2 6.9q1.3 2.2 2.4 4.6c1.2-2 1.9-4.2 2.2-6.8 0.5-3.9 3.3-7 7.1-7.8 2.1-0.4 4.2 0 6 0.9 2.8-2 6.5-2.3 9.6-0.6 4 2.1 5.7 6.9 4.1 11-1 2.5-1.8 7.3-0.7 9.7 0.2 0.3 0.5 1 2.2 1.6 2.8 0.9 5 3 5.9 5.9 0.8 2.8 0.2 5.8-1.6 8-0.5 0.7-1.7 2.6-2.1 4.6-0.4 1.8-0.2 3.1 2 4.8 3.4 2.5 4.7 7 3 10.8-1.1 2.6-3.3 4.5-5.9 5.1 1.3 3.7 0.1 7.9-3.2 10.2-3.4 2.5-8.1 2.2-11.2-0.6-4.6-4.2-9.4-8-14.2-11.2q-0.3 1.4-0.6 2.8-0.1 0.8-0.2 1.5c-2.6 10.9-6.1 18.1-10.5 21.5q-0.2 0.1-0.3 0.2c0.6 1.6 0.6 3.4 0.2 5.2-0.8 3-3.2 5.1-6.1 6.1q-0.1 0-0.2 0.1c0.2 2-0.4 4.1-1.7 5.9-1.3 1.9-3.4 3-5.7 3.4q-0.4 1.8-1.5 3.3c-1.7 2.3-4.4 3.5-7.3 3.5-4.3 0-6 6.1-6.2 6.7-0.5 2.8-2.4 5-4.9 6.2-2.6 1.2-5.6 1-8.1-0.4-0.8-0.4-1.4-0.6-1.6-0.6-0.5 0.4-1.2 1.5-1.5 2.3-0.9 3.4-3.6 5.8-7.1 6.4-3.4 0.5-6.9-1.1-8.8-4-0.7-1.1-1.3-1.7-1.7-2.1-0.5 0.5-1.2 1.2-1.6 1.9-1.6 2.7-4.4 4.3-7.5 4.4q-0.1 0-0.2 0c-3.1 0-5.9-1.6-7.5-4.2-1.6-2.5-2.7-3-2.9-3.1-0.7 0-2.5 1.1-3.6 2.2-1.7 2-4.1 3.1-6.7 3.1q-0.1 0-0.1 0c-2.7 0-5.1-1.3-6.8-3.4-2.3-2.8-3.7-3.6-4.2-3.9-0.2 0.2-0.5 0.4-0.5 0.4-2 3.3-5.9 4.8-9.6 4-3.4-0.9-6-3.6-6.7-7q-0.1-0.6-0.2-1.2-0.1-1-0.2-1.9-0.1-0.4-0.2-0.6c-1.3 0.3-3.4 1.2-4.8 2.2-2.9 2.1-6.8 2.2-9.9 0.3-1.7-1-2.9-2.6-3.6-4.4-0.6-1.6-0.8-3.3-0.5-5 0.4-2.3 0.3-3.6 0.2-4.2q-0.1-0.2-0.1-0.2c-0.9-0.6-4.4-0.7-7.2 0.1-3.4 1-7-0.1-9.3-2.9-1-1.2-1.7-2.7-1.9-4.2-0.4-1.9-0.2-3.9 0.7-5.7q0.8-1.6 1.2-2.9c-2.4 0.9-5.2 0.7-7.6-0.6-3.5-2.1-5.2-6.3-4-10.2q0 0 0-0.1c-3.6 0.4-7.1-1.4-8.8-4.7-0.6-1.1-0.9-2.4-1-3.6q-0.1 0-0.1-0.1l-0.8-0.5c-4-2.5-5.3-7.8-2.9-11.9zm3.4-69.8q-0.3-0.4-0.6-0.8 0.2 0.4 0.6 0.8zm0 0q0 0 0 0 0 0 0 0z"/><path class="m" d="m82.9 114.5c-1.8 3.8-6.1 5.8-12.4 5.8-1.8 0-3.7-0.1-5.7-0.4q-3.4-0.5-6.6-0.5c-18.3 0-26.6 12.1-26.7 12.2l-0.8-0.5q0.3-0.4 0.7-1c3.6-16.3-8.8-19.1-14.6-19.5q-0.5 0.1-1.1 0.2l-0.7 0.2h-0.1c-0.6 0-0.9 0-0.9 0l-1.6 0.1q-0.8 0.2-1.5 0.3 0.5-0.1 0.9-0.3l-2.2 0.2 4.2-1.2q1.2-0.3 2.3-0.6c24.8-13.3 10-28.2 4.7-32.6q-0.5-0.2-0.9-0.4-0.3-0.1-0.6-0.2l-0.1-0.1q-0.3-0.2-0.3-0.2l-2.8-1.1 3.1 0.3q2.4 0.1 4.4 0.1c7.3 0 12-1.7 13.9-5.2 3.2-5.6-1.4-14.2-3.5-17.7-0.6-1-1.1-1.6-1.1-1.6l-1.2-1.8 1.8 1.1q2.4 0.8 4.7 0.8c11.4 0 17.4-16.9 19.3-23.3-0.3 2.6-0.3 5.1-0.4 7.6-4.1 30.7 11.5 44.8 11.7 45 12.3 14.9 17.4 27.4 14.1 34.3z"/><path class="n" d="m82.9 114.5c-1.8 3.8-6.1 5.8-12.4 5.8-1.8 0-3.7-0.1-5.7-0.4q-3.4-0.5-6.6-0.5c-18.3 0-26.6 12.1-26.7 12.2l-0.8-0.5q0.3-0.4 0.7-1c3.6-16.3-8.8-19.1-14.6-19.5q-0.5 0.1-1.1 0.2l-0.7 0.2h-0.1c-0.6 0-0.9 0-0.9 0l-1.6 0.1q-0.8 0.2-1.5 0.3 0.5-0.1 0.9-0.3l-2.2 0.2 4.2-1.2q1.2-0.3 2.3-0.6c24.8-13.3 10-28.2 4.7-32.6q-0.5-0.2-0.9-0.4-0.3-0.1-0.6-0.2l-0.1-0.1q-0.3-0.2-0.3-0.2l-2.8-1.1 3.1 0.3q2.4 0.1 4.4 0.1c7.3 0 12-1.7 13.9-5.2 3.2-5.6-1.4-14.2-3.5-17.7-0.6-1-1.1-1.6-1.1-1.6l-1.2-1.8 1.8 1.1q2.4 0.8 4.7 0.8c11.4 0 17.4-16.9 19.3-23.3-0.3 2.6-0.3 5.1-0.4 7.6-4.1 30.7 11.5 44.8 11.7 45 12.3 14.9 17.4 27.4 14.1 34.3z"/><path class="o" d="m195 99.8c0 0 26-1.8 28.6-24.6 0 0 3.9 6.9 9.5-0.7 0 0-7.1 18.3 7.2 22.9 0 0-10.3 13.1 1.6 22 0 0-12.1-1.7-6 11.8-8.1-7.5-17.1-13.9-26.4-18.5-5.5-2.5-12.1-3.2-14.2-5.7-3.8-4.2-1.5-7.3-0.3-7.2z"/><g style="opacity:.5;mix-blend-mode:multiply"><path class="p" d="m219.4 118.4q-4.9-3.2-9.9-5.7c-5.5-2.5-12.1-3.2-14.2-5.7-3.8-4.2-1.5-7.3-0.3-7.2 0 0 14-1 22.5-10.6 0.9 4.5 1.1 9.1 1.5 13.5 0.4 5.2 0.7 10.5 0.4 15.7z"/></g><path class="q" d="m120.6 25c4.3 8.2 12.9 0 12.9 0 5 8.6 16.4 2.8 16.4 2.8 5.8 11.2 17.3 5.1 17.3 5.1 2.4 12.2 18.2 12.4 18.2 12.4-6 11.9 10 16.4 10 16.4-4.9 8.9 6.6 11 6.6 11-3.2 4.1-0.3 7-0.3 7 13.1 19.3 4.6 59.7-2.8 65.3-7.4 5.7-3.5 10.1-3.5 10.1-8.4 2.8-6.5 9.1-6.5 9.1-9.2-0.3-7.2 6.7-7.2 6.7-11.8 0-14.8 13.7-14.8 13.7-12-6.6-16 6.8-16 6.8-9.6-14.5-18.3 0.2-18.3 0.2-9.5-14.9-20.7-2-20.7-2-11.7-14.5-19.2-2.6-19.2-2.6-1.8-19.6-19.3-7-19.3-7 3.7-21.2-18.4-14.8-18.4-14.8 9.5-18.9-10.7-23.5-10.7-23.5 7-11.1-3.7-20-3.7-20 9.2-5.2 2.5-18.1 2.5-18.1 11.6-7.9 3-17.1 3-17.1 12.6-4.9 7.7-19 7.7-19 15.9-2.5 10.3-16.3 10.3-16.3 18.4-0.9 16.5-16 16.5-16 21.6 5 23.5-13.4 23.5-13.4 6.4 13.5 16.5 3.2 16.5 3.2z"/><path class="r" d="m206.2 128.9c-1.9 8.1-4.6 14.4-7.2 16.4-7.4 5.7-3.5 10.1-3.5 10.1-8.5 2.8-6.5 9-6.5 9-9.2-0.3-7.2 6.8-7.2 6.8-11.8 0-14.9 13.6-14.9 13.6-11.9-6.6-15.9 6.9-15.9 6.9-9.6-14.5-18.4 0.2-18.4 0.2-9.5-14.9-20.7-2-20.7-2-11.6-14.6-19.1-2.6-19.1-2.6-1.9-19.6-19.3-7.1-19.3-7.1 3.7-21.1-18.4-14.7-18.4-14.7 9.5-19-10.7-23.6-10.7-23.6 7-11-3.7-19.9-3.7-19.9 4.9-2.8 5.3-7.8 4.5-11.8 1.9 1.8 9.5 9.8 3.3 19.5 0 0 20.2 4.6 10.7 23.6 0 0 22.1-6.4 18.4 14.8 0 0 17.5-12.6 19.3 7 0 0 7.5-12 19.2 2.6 0 0 11.2-12.9 20.7 2 0 0 8.7-14.7 18.4-0.2 0 0 3.9-13.4 15.9-6.8 0 0 3-13.7 14.8-13.7 0 0-1.9-7 7.3-6.7 0 0-2-6.3 6.4-9.1 0 0-3.8-4.4 3.5-10.1 1-0.8 2.1-2.2 3.1-4.2z"/><path class="s" d="m156.6 54.2q0.4-0.3 0.6-0.7 0.4-0.3 0.6-0.7 0.3-0.4 0.6-0.7c0.1-0.3 0.4-0.5 0.5-0.8q0.2-0.4 0.4-0.7l0.4-0.8c0.1-0.1 0.2-0.2 0.2-0.4l0.1-0.4 0.3-0.8 2.5-6.6-0.7 7c0 0.2 0 0.5 0 0.8q0 0.4 0 0.8 0.1 0.9 0.2 1.7 0.1 0.2 0.1 0.4 0.1 0.3 0.1 0.4 0.1 0.2 0.2 0.4l0.2 0.4 0.2 0.4c0 0.1 0.1 0.2 0.2 0.3 0.2 0.3 0.4 0.5 0.7 0.7l-0.5-0.1q-0.3 0-0.5-0.2c-0.3-0.1-0.6-0.3-0.8-0.5l-0.4-0.4c-0.1-0.1-0.2-0.3-0.3-0.4q-0.2-0.2-0.3-0.5-0.1-0.2-0.2-0.4-0.3-0.5-0.4-1-0.1-0.5-0.2-1-0.1-0.5-0.1-1c0-0.3 0-0.6 0-1l1.8 0.3-0.4 1c-0.1 0.3-0.2 0.7-0.5 0.9l-0.5 0.9q-0.3 0.4-0.7 0.7c-0.2 0.3-0.5 0.5-0.7 0.7q-0.4 0.3-0.9 0.6c-0.5 0.3-1.1 0.6-1.8 0.7z"/><path class="s" d="m181 64.1q0.7-0.2 1.4-0.6 0.4-0.1 0.7-0.3 0.4-0.1 0.7-0.3c0.2-0.1 0.4-0.2 0.6-0.4q0.3-0.2 0.6-0.4c0.2-0.1 0.4-0.2 0.6-0.4q0.3-0.2 0.6-0.4l2.3-1.4-1 2.5c-0.1 0.3-0.2 0.7-0.3 1q-0.1 0.5-0.3 1.1-0.1 0.5-0.2 1-0.1 0.5-0.1 1.1c-0.1 0.1 0 0.3-0.1 0.5q0 0.3 0 0.5 0 0.3 0.1 0.5v0.6q0.1 0.2 0.2 0.5c0 0.2 0.1 0.4 0.1 0.5 0.1 0.2 0.1 0.4 0.2 0.5l0.3 0.6q-0.2-0.2-0.5-0.3-0.3-0.2-0.5-0.4c-0.1-0.2-0.3-0.3-0.4-0.5q-0.2-0.3-0.3-0.6l-0.3-0.6c-0.1-0.2-0.1-0.4-0.2-0.6q-0.1-0.3-0.1-0.6c-0.1-0.2-0.1-0.4-0.1-0.6q0-0.7 0-1.3c0-0.2 0-0.4 0-0.6q0.1-0.3 0.2-0.6 0.1-0.6 0.3-1.2c0.1-0.4 0.2-0.8 0.4-1.2l1.3 1.1q-0.3 0.2-0.7 0.4c-0.2 0.1-0.5 0.2-0.7 0.3q-0.4 0.2-0.8 0.3c-0.3 0.1-0.5 0.2-0.8 0.3q-0.4 0.1-0.8 0.1-0.4 0.1-0.8 0.1-0.4 0-0.8 0-0.4-0.1-0.8-0.2z"/><path class="s" d="m155.9 40c-0.5-0.2-1-0.5-1.5-0.9q-0.3-0.2-0.6-0.6c-0.1-0.2-0.4-0.4-0.5-0.6q-0.2-0.4-0.4-0.8-0.1-0.5-0.3-0.9 0-0.2-0.1-0.4v-0.5q0-0.4 0-0.9l1.7 0.4c-0.1 0.3-0.2 0.5-0.3 0.7q-0.2 0.3-0.4 0.6c-0.3 0.3-0.7 0.7-1 0.9q-0.6 0.5-1.2 0.8c-0.4 0.2-0.9 0.3-1.3 0.3 0.2-0.4 0.5-0.6 0.8-1q0.1-0.3 0.3-0.5 0.2-0.2 0.4-0.5 0.1-0.2 0.3-0.5 0.1-0.2 0.3-0.5 0.1-0.2 0.2-0.5c0.1-0.2 0.2-0.4 0.2-0.5l1.6-3.5 0.2 3.9q0 0.4 0 0.7 0 0.3 0.1 0.7 0 0.3 0.1 0.6 0.1 0.4 0.2 0.7c0 0.2 0.2 0.4 0.2 0.7q0.1 0.3 0.3 0.7 0.2 0.3 0.3 0.7c0.2 0.2 0.3 0.4 0.4 0.7z"/><path class="s" d="m121.7 40c-0.8-0.3-1.4-0.7-2.1-1.1q-1-0.6-1.9-1.4-0.9-0.7-1.7-1.7-0.1-0.2-0.3-0.5c-0.1-0.2-0.3-0.3-0.4-0.5-0.2-0.4-0.3-0.8-0.5-1.2l1.8-0.4c0.1 0.5 0.1 0.9 0.1 1.3q0 0.7-0.1 1.3-0.1 0.7-0.2 1.3-0.1 0.6-0.4 1.2c-0.1 0.4-0.3 0.8-0.5 1.2-0.2 0.4-0.4 0.8-0.6 1.1l-0.5 0.5c-0.1 0.2-0.3 0.3-0.4 0.5q-0.3 0.2-0.5 0.4l-0.6 0.3c0.3-0.4 0.5-0.7 0.7-1.1 0-0.2 0.2-0.3 0.2-0.5l0.2-0.5c0.2-0.4 0.3-0.8 0.4-1.1q0.1-0.6 0.2-1.1c0.1-0.4 0.1-0.8 0.2-1.2q0-0.5 0-1.1 0.1-0.6 0-1.2c0-0.3 0-0.7 0-1.1l-0.6-7.3 2.4 7q0.1 0.4 0.3 0.8c0.1 0.2 0.2 0.3 0.3 0.5q0.1 0.2 0.2 0.4c0.4 0.6 0.9 1.2 1.3 1.8l0.7 0.8 0.8 0.9z"/><path class="s" d="m99.6 42.3c-0.9 0.3-1.8 0.5-2.8 0.7q-0.7 0.1-1.4 0.1-0.7 0-1.5-0.1-0.7 0-1.4-0.2-0.8-0.2-1.5-0.5-0.3-0.2-0.7-0.4-0.3-0.2-0.6-0.5c-0.2-0.1-0.4-0.3-0.6-0.5q-0.3-0.3-0.6-0.6l1.6-0.9c0.2 0.5 0.3 0.9 0.4 1.4q0.2 0.6 0.2 1.3 0.1 0.7 0.2 1.4c0 0.4-0.1 0.9-0.1 1.3-0.1 0.5-0.1 0.9-0.2 1.4-0.1 0.4-0.3 0.9-0.4 1.3-0.2 0.4-0.4 0.8-0.7 1.2-0.1 0.1-0.3 0.3-0.4 0.5l-0.5 0.4c0.1-0.4 0.3-0.7 0.5-1.2 0-0.2 0.1-0.4 0.1-0.6l0.1-0.6c0.1-0.4 0.1-0.8 0.1-1.2q0-0.6 0-1.2-0.1-1.2-0.3-2.4-0.2-0.6-0.3-1.2c-0.1-0.4-0.3-0.8-0.4-1.1l-1.5-4.1 3.1 3.2q0.2 0.2 0.4 0.4c0.1 0.2 0.3 0.3 0.4 0.4 0.2 0.1 0.3 0.3 0.5 0.4 0.2 0.1 0.3 0.2 0.5 0.3q0.6 0.3 1.2 0.5 0.3 0.1 0.6 0.2c0.2 0.1 0.4 0.1 0.6 0.2q0.6 0.2 1.3 0.3 0.7 0.1 1.3 0.2 1.4 0.1 2.8 0.2z"/><path class="s" d="m83.3 57c-0.8 0.2-1.7 0.3-2.5 0.3q-1.3-0.1-2.6-0.4c-0.4-0.1-0.8-0.2-1.2-0.3-0.5-0.2-0.9-0.3-1.2-0.5-0.5-0.2-0.8-0.4-1.2-0.7-0.4-0.2-0.7-0.4-1.1-0.7l1.3-1.2c0.2 0.2 0.3 0.5 0.4 0.7q0.2 0.4 0.4 0.8 0.3 0.8 0.4 1.7 0.1 0.4 0.1 0.8 0 0.5-0.2 0.9-0.1 0.5-0.4 0.8-0.3 0.4-0.7 0.6 0.2-0.4 0.3-0.8 0-0.3 0-0.7-0.1-0.7-0.4-1.3c-0.1-0.4-0.4-0.9-0.6-1.3q-0.2-0.3-0.4-0.6c-0.1-0.2-0.3-0.4-0.4-0.6l-3-3.9 4.3 2.7c0.3 0.2 0.6 0.4 1 0.6q0.4 0.3 1 0.6 0.5 0.2 1 0.5 0.5 0.3 1.1 0.5 0.5 0.2 1.1 0.4 0.5 0.2 1.1 0.4c0.8 0.3 1.6 0.5 2.4 0.7z"/><path class="s" d="m74.6 70.6c-0.1 0.8-0.4 1.5-0.8 2.3q-0.4 0.5-0.8 1-0.3 0.2-0.6 0.4-0.2 0.2-0.5 0.4c-0.3 0-0.5 0.2-0.7 0.2-0.2 0.1-0.5 0.1-0.7 0.1h-0.7q-0.4 0-0.7-0.1c-0.5 0-0.9-0.3-1.3-0.4q-0.6-0.3-1.1-0.7l1.2-1.4c0.3 0.4 0.5 0.7 0.8 1q0.4 0.5 0.8 1c0.5 0.7 0.9 1.5 1.3 2.2q0.3 0.6 0.5 1.2c0.1 0.4 0.2 0.8 0.3 1.2 0.1 0.5 0.2 0.9 0.2 1.3 0.1 0.4 0 0.9 0 1.3-0.2-0.4-0.3-0.8-0.5-1.2-0.1-0.3-0.3-0.7-0.5-1q-0.3-0.6-0.6-1.1c-0.2-0.3-0.5-0.6-0.7-0.9-0.4-0.7-0.9-1.3-1.4-1.9q-0.4-0.5-0.8-0.9c-0.2-0.3-0.5-0.6-0.8-0.9l-4.5-4.8 5.7 3.4q0.5 0.3 0.9 0.6c0.3 0.1 0.6 0.3 0.9 0.4l0.5 0.1h0.4c0.2 0.1 0.3 0 0.5 0 0.1 0 0.3 0 0.4-0.1q0.3 0 0.5-0.1c0.1-0.1 0.3-0.2 0.4-0.2q0.5-0.3 0.9-0.7 0.4-0.4 0.8-0.8 0.3-0.4 0.7-0.9z"/><path class="s" d="m113.4 56.1c-0.6 0.2-1.3 0.3-2 0.3q-0.9 0-1.9-0.3c-0.7-0.1-1.3-0.4-1.9-0.7q-0.5-0.2-0.9-0.5c-0.3-0.2-0.5-0.5-0.8-0.7l1.4-1.1c0.1 0.1 0.2 0.3 0.3 0.5l0.2 0.4q0.2 0.5 0.4 1c0.2 0.7 0.4 1.4 0.4 2.2 0 0.7 0 1.4-0.2 2.1q-0.2 0.6-0.5 1c-0.2 0.3-0.5 0.6-0.7 0.8q0.3-1 0.2-1.9 0-0.9-0.2-1.8c-0.2-0.6-0.4-1.2-0.7-1.7q-0.1-0.5-0.3-0.9l-0.3-0.4-0.2-0.4-2.7-4.8 4.1 3.7c0.5 0.3 0.9 0.7 1.4 1 0.2 0.2 0.4 0.3 0.7 0.5 0.2 0.1 0.5 0.3 0.8 0.4q1.5 0.8 3.4 1.3z"/><path class="s" d="m98.5 71.2c-0.3 0.2-0.5 0.4-0.8 0.5q-0.4 0.2-0.8 0.3-0.4 0.2-0.8 0.2c-0.3 0.1-0.6 0.2-0.9 0.1q-0.5 0.1-1 0-0.4 0-0.9-0.1c-0.3-0.1-0.6-0.2-0.9-0.3q-0.4-0.1-0.8-0.3l1.2-1.3c0.1 0.2 0.2 0.4 0.3 0.6q0.2 0.3 0.3 0.6 0.3 0.6 0.4 1.3 0.2 0.6 0.3 1.3 0 0.7 0 1.3c0 0.5-0.2 0.9-0.2 1.3-0.2 0.5-0.3 0.9-0.5 1.3-0.1 0.2-0.2 0.4-0.3 0.6l-0.4 0.5c-0.3 0.3-0.6 0.6-0.9 0.9 0.1-0.4 0.3-0.8 0.4-1.2q0.1-0.6 0.2-1.1 0.1-0.3 0.1-0.6v-0.6-0.5c0-0.2 0-0.4 0-0.6q0-0.5-0.2-1.1-0.1-0.5-0.2-1-0.2-0.6-0.4-1.1-0.1-0.2-0.2-0.5c-0.1-0.1-0.2-0.3-0.2-0.5l-1.3-2.3 2.5 1.1q0.3 0.2 0.6 0.3c0.2 0.2 0.5 0.3 0.7 0.4q0.3 0.1 0.7 0.2 0.4 0.1 0.7 0.2c0.3 0.1 0.5 0.1 0.8 0.1q0.4 0.1 0.8 0.1 0.4 0 0.8 0 0.4 0 0.9-0.1z"/><path class="s" d="m81.2 96.8c-0.6 0.7-1.4 1.3-2.2 1.7q-1.3 0.8-2.8 1.1c-1 0.1-2.1 0.1-3.2-0.2-1-0.2-1.9-0.8-2.7-1.5l1.3-1.2q1.3 2 2.3 4.1 0.2 0.6 0.5 1.1 0.2 0.5 0.4 1.1c0.1 0.4 0.3 0.7 0.4 1.1q0.2 0.6 0.3 1.2l-1.4-1.9q-0.7-0.9-1.4-1.9-1.3-1.9-2.6-3.8l-3.4-5.1 4.8 3.9q0.9 0.8 2.1 1.2 1.1 0.4 2.4 0.4 1.3-0.1 2.6-0.4 1.3-0.4 2.6-0.9z"/><path class="s" d="m63.3 88.7q-0.7 0.6-1.6 1-0.4 0.2-0.8 0.4-0.5 0.2-1 0.2-0.5 0.1-1 0.1-0.2 0.1-0.5 0-0.2 0-0.5 0c-0.3-0.1-0.7-0.1-1-0.3-0.3 0-0.7-0.2-1-0.4l1.2-1.4c0.2 0.2 0.3 0.4 0.4 0.5q0.2 0.3 0.3 0.6 0.3 0.5 0.6 1 0.2 0.6 0.4 1.2c0.1 0.4 0.2 0.8 0.2 1.2q0 0.6 0 1.2-0.1 0.3-0.1 0.6-0.1 0.3-0.2 0.6c-0.1 0.4-0.3 0.7-0.5 1.1-0.1 0.3-0.4 0.6-0.6 0.9 0-0.4 0.1-0.7 0.1-1.1l0.1-0.5c0-0.2 0-0.4 0-0.6 0-0.3-0.1-0.6-0.1-1-0.1-0.3-0.1-0.6-0.2-0.9q-0.1-0.5-0.3-1-0.2-0.5-0.4-0.9-0.3-0.4-0.5-0.9l-0.3-0.4c-0.1-0.1-0.2-0.3-0.3-0.4l-2.6-3.2 3.8 1.9c0.2 0.1 0.4 0.2 0.6 0.3q0.4 0.2 0.7 0.3c0.5 0.1 1 0.2 1.6 0.2q0.8 0 1.7 0 0.9-0.1 1.8-0.3z"/><path class="s" d="m82.6 130.8c0 0.6-0.2 1.2-0.4 1.9-0.3 0.6-0.5 1.2-0.9 1.7-0.2 0.3-0.4 0.6-0.6 0.8q-0.4 0.4-0.8 0.7-0.4 0.4-0.9 0.6c-0.3 0.2-0.6 0.3-1 0.4l0.1-1.7c0.2 0.1 0.3 0.2 0.5 0.3q0.3 0.1 0.5 0.2c0.3 0.2 0.5 0.5 0.8 0.7 0.3 0.2 0.5 0.5 0.7 0.7 0.3 0.3 0.4 0.6 0.6 0.8q0.3 0.4 0.5 0.9l0.4 0.9q0.1 0.2 0.2 0.5 0 0.2 0.1 0.4 0.1 0.5 0.2 1-0.3-0.4-0.7-0.7c-0.2-0.3-0.3-0.5-0.6-0.7l-0.6-0.7q-0.3-0.4-0.6-0.6c-0.2-0.2-0.4-0.5-0.6-0.6q-0.4-0.3-0.7-0.6c-0.2-0.1-0.5-0.3-0.7-0.4l-0.3-0.2-0.3-0.2-2.1-0.9 2.1-0.8c0.2-0.1 0.5-0.2 0.7-0.3 0.3-0.1 0.5-0.2 0.7-0.4q0.3-0.2 0.7-0.5 0.3-0.2 0.6-0.5 0.6-0.6 1.2-1.3 0.6-0.7 1.2-1.4z"/><path class="s" d="m65.8 141.8c0.3 0.7 0.5 1.5 0.6 2.3q0.1 1.2 0 2.4-0.1 0.6-0.3 1.2l-0.2 0.6c0 0.3-0.2 0.4-0.3 0.6q-0.1 0.3-0.3 0.6c-0.1 0.2-0.3 0.4-0.5 0.6-0.1 0.1-0.3 0.3-0.5 0.4q-0.3 0.2-0.6 0.4l-0.6-1.7c0.3-0.1 0.6-0.1 0.8-0.1q0.4 0 0.7 0 0.8 0 1.5 0.2 0.7 0.1 1.4 0.5c0.2 0.1 0.4 0.2 0.6 0.3q0.4 0.2 0.7 0.4 0.2 0.3 0.5 0.6c0.2 0.1 0.3 0.3 0.5 0.5l0.4 0.6q0.1 0.4 0.3 0.7 0.1 0.3 0.2 0.7l0.1 0.6c0.1 0.3 0.1 0.5 0.1 0.7v0.7l-0.3-0.6c-0.1-0.2-0.2-0.4-0.3-0.6l-0.3-0.5q-0.2-0.3-0.4-0.6-0.1-0.2-0.4-0.4l-0.4-0.4c-0.1-0.2-0.3-0.3-0.4-0.4q-0.2-0.2-0.5-0.3c-0.2-0.1-0.3-0.2-0.5-0.3-0.2-0.1-0.4-0.2-0.5-0.2q-0.6-0.2-1.2-0.3-0.5-0.1-1.1-0.1-0.3 0-0.6 0c-0.2 0-0.4 0.1-0.5 0.1l-4.3 0.6 3.7-2.4q0.2-0.1 0.4-0.2c0.1 0 0.2-0.1 0.3-0.2 0.1-0.1 0.2-0.2 0.3-0.3 0.1-0.2 0.2-0.3 0.3-0.4 0.1-0.1 0.2-0.3 0.3-0.4l0.2-0.5c0.1-0.3 0.2-0.6 0.3-1 0.1-0.3 0.2-0.7 0.3-1q0.1-0.6 0.2-1.1 0.2-1.1 0.3-2.3z"/><path class="s" d="m75 162.3c0.7-0.1 1.4 0 2.1 0.2q0.5 0.3 1 0.6c0.2 0.1 0.3 0.3 0.4 0.4 0.2 0.2 0.3 0.4 0.4 0.5q0.2 0.3 0.3 0.6 0.1 0.3 0.1 0.6c0.1 0.2 0.1 0.4 0.1 0.6v0.6c0 0.2 0 0.4-0.1 0.6l-0.1 0.6q-0.1 0.5-0.4 1l-1.3-1.1q0.2-0.2 0.4-0.3 0.2-0.1 0.5-0.3 0.4-0.2 1-0.4 0.5-0.1 1-0.2 0.2-0.1 0.5-0.1 0.3 0 0.6 0 0.5 0 1 0.2c0.2 0 0.4 0.1 0.5 0.2 0.2 0 0.4 0.1 0.5 0.2q0.5 0.3 0.8 0.6c0.3 0.3 0.4 0.6 0.6 0.8-0.3-0.1-0.6-0.3-0.9-0.4q-0.2 0-0.4-0.1-0.2 0-0.4-0.1-0.2 0-0.4 0c-0.2 0-0.3-0.1-0.4 0q-0.3 0-0.5 0h-0.4q-0.8 0.2-1.5 0.5-0.4 0.2-0.8 0.4l-0.3 0.2c-0.1 0.1-0.3 0.2-0.3 0.3l-2.4 1.8 1-2.9c0.1-0.3 0.2-0.6 0.3-0.9l0.1-0.4c0-0.1 0.1-0.3 0.1-0.4v-0.4c0.1-0.1 0-0.2 0-0.4q0-0.2 0-0.3c0-0.2 0-0.3-0.1-0.4-0.1-0.1-0.1-0.3-0.1-0.4q-0.1-0.1-0.3-0.3-0.2-0.4-0.5-0.7c-0.5-0.4-1.1-0.7-1.7-1z"/><path class="s" d="m89.5 159c0.5-1 1.3-1.9 2.3-2.6 0.5-0.4 1-0.7 1.7-0.9q0.4-0.1 1-0.2 0.5 0 1 0.1 0.5 0 1 0.3 0.5 0.2 0.9 0.5 0.4 0.3 0.7 0.6c0.3 0.3 0.4 0.5 0.6 0.8q0.6 0.7 1 1.5c0.3 0.6 0.5 1.1 0.7 1.7l-1.6-0.2c0.2-0.2 0.3-0.4 0.5-0.6q0.2-0.3 0.5-0.5 0.5-0.6 1-1 0.3-0.3 0.6-0.5c0.2-0.1 0.4-0.3 0.6-0.4 0.3-0.1 0.5-0.2 0.7-0.3q0.4-0.1 0.7-0.3 0.4 0 0.8-0.1 0.4 0 0.8 0c0.2 0 0.5 0.1 0.7 0.1q0.4 0.1 0.7 0.3c0.2 0.1 0.5 0.1 0.7 0.3q0.3 0.2 0.5 0.4c0.2 0.2 0.4 0.4 0.5 0.5l0.5 0.5-0.6-0.3c-0.2-0.1-0.4-0.2-0.6-0.3l-0.6-0.2c-0.2-0.1-0.4-0.1-0.6-0.2q-0.3 0-0.6 0c-0.2 0-0.4-0.1-0.6 0q-0.3 0-0.6 0.1-0.3 0.1-0.5 0.2l-0.6 0.3c-0.1 0.1-0.3 0.2-0.4 0.3q-0.3 0.2-0.5 0.4-0.3 0.2-0.5 0.4-0.4 0.4-0.8 0.9-0.2 0.3-0.4 0.5c-0.1 0.2-0.2 0.3-0.3 0.5l-0.9 1.5-0.7-1.7q-0.4-0.7-0.7-1.4-0.4-0.8-0.8-1.4c-0.1-0.2-0.3-0.4-0.5-0.6q-0.2-0.3-0.5-0.5-0.2-0.2-0.5-0.4-0.3-0.2-0.6-0.2c-0.9-0.3-1.9-0.1-2.9 0.3q-0.7 0.3-1.4 0.8-0.7 0.5-1.4 1z"/><path class="s" d="m118.9 164.8q0.2-0.6 0.7-1 0.2-0.3 0.5-0.5c0.2-0.1 0.5-0.1 0.7-0.2 0.2 0 0.5 0 0.7 0.1q0.2 0 0.4 0.1l0.3 0.1q0.4 0.2 0.6 0.4c0.2 0.2 0.4 0.3 0.5 0.5q0.2 0.2 0.4 0.5c0.2 0.2 0.2 0.3 0.4 0.5q0.3 0.5 0.6 1.1c0.1 0.4 0.3 0.7 0.4 1.1q0.3 0.6 0.4 1.2l-1.7-0.1q0.2-0.5 0.5-1 0.2-0.5 0.5-1 0.5-0.9 1.3-1.7 0.4-0.4 0.8-0.8 0.4-0.3 0.9-0.6 0.3-0.2 0.5-0.2 0.3-0.2 0.6-0.2c0.2-0.1 0.3-0.1 0.5-0.1h0.6l-0.5 0.2c-0.2 0.1-0.3 0.2-0.4 0.3q-0.2 0.2-0.4 0.3c-0.1 0.1-0.2 0.2-0.4 0.4q-0.3 0.3-0.6 0.7-0.2 0.4-0.5 0.8-0.3 0.4-0.5 0.9-0.2 0.4-0.4 0.8l-0.4 0.9c-0.1 0.3-0.3 0.7-0.4 0.9l-0.8 2.4-0.9-2.4c-0.3-0.7-0.5-1.4-0.8-2.1l-0.2-0.5-0.2-0.5c-0.1-0.1-0.1-0.3-0.2-0.5q-0.2-0.2-0.3-0.4c0-0.2-0.2-0.3-0.3-0.4q-0.1-0.2-0.3-0.3l-0.1-0.2-0.2-0.1c-0.1-0.1-0.2-0.1-0.4-0.1-0.1-0.1-0.3-0.1-0.4-0.1q-0.3 0.1-0.5 0.2-0.5 0.2-1 0.6z"/><path class="s" d="m138.5 174q-0.1-0.8 0.1-1.6c0.1-0.5 0.2-1 0.6-1.5 0.2-0.2 0.4-0.4 0.7-0.6 0.4-0.1 0.7-0.2 1.1-0.2 0.3 0 0.6 0.1 0.9 0.3q0.4 0.1 0.8 0.4 0.7 0.5 1.2 1 0.6 0.6 1 1.2 1 1.3 1.7 2.6l-1.6 0.1c0.3-0.7 0.7-1.4 1.1-2.1q0.6-1 1.4-1.8 0.4-0.5 0.8-0.9 0.5-0.4 1-0.7 0.5-0.3 1.1-0.5 0.3-0.1 0.6-0.1h0.6l-0.6 0.2-0.4 0.3q-0.5 0.3-0.8 0.7c-0.1 0.1-0.2 0.3-0.3 0.4q-0.2 0.2-0.4 0.5-0.3 0.4-0.5 0.8c-0.4 0.7-0.7 1.3-1.1 2q-0.2 0.4-0.4 0.9c-0.2 0.4-0.3 0.7-0.5 1l-0.6 1.6-1-1.5q-0.7-1.2-1.5-2.4c-0.6-0.8-1.1-1.5-1.8-2.1q-0.2-0.2-0.4-0.4c-0.2-0.1-0.4-0.2-0.5-0.2-0.3-0.1-0.6 0-0.9 0.2-0.3 0.3-0.6 0.6-0.8 1.1q-0.4 0.6-0.6 1.3z"/><path class="s" d="m103.3 173.3q0.3-0.6 0.9-1c0.2-0.1 0.4-0.3 0.6-0.3q0.3-0.2 0.7-0.2c0.3-0.1 0.6 0 0.8 0 0.3 0.1 0.6 0.2 0.8 0.3 0.2 0.2 0.5 0.3 0.6 0.5q0.3 0.3 0.5 0.5c0.3 0.4 0.6 0.9 0.7 1.3l0.3 0.6c0.1 0.2 0.1 0.4 0.2 0.6 0.1 0.5 0.3 0.9 0.3 1.3q0.1 0.7 0.2 1.3l-1.6-0.3c0.2-0.3 0.4-0.5 0.6-0.7q0.3-0.3 0.6-0.6c0.4-0.3 0.9-0.7 1.5-0.9q0.2 0 0.4-0.1 0.3 0 0.5 0c0.1 0 0.3 0 0.5 0q0.2 0 0.4 0.1l0.4 0.2q0.2 0.1 0.4 0.2c0.2 0.2 0.3 0.4 0.5 0.6-0.3 0-0.5-0.2-0.7-0.2q-0.4-0.1-0.7-0.1c-0.1 0-0.2 0-0.3 0.1q-0.2 0-0.3 0-0.2 0.1-0.3 0.2-0.1 0.1-0.3 0.2-0.2 0.1-0.5 0.3-0.2 0.3-0.4 0.5-0.3 0.3-0.5 0.6c-0.1 0.2-0.2 0.4-0.3 0.5l-1.1 2-0.5-2.3q-0.2-0.6-0.3-1.2c0-0.4-0.2-0.8-0.3-1.2 0-0.1 0-0.3-0.1-0.5l-0.2-0.6q-0.1-0.2-0.2-0.5l-0.2-0.5q-0.2-0.2-0.3-0.4c-0.1-0.2-0.2-0.2-0.3-0.4-0.1-0.1-0.2-0.1-0.4-0.2-0.1-0.1-0.2-0.2-0.4-0.2q-0.2 0-0.5 0c-0.2 0-0.4 0-0.5 0.1q-0.6 0.1-1.2 0.4z"/><path class="s" d="m126.5 178.8q0.8 0.2 1.4 0.7 0.4 0.2 0.7 0.4 0.3 0.3 0.6 0.5c0.8 0.8 1.4 1.7 1.8 2.7l-1.7 0.1c0.1-0.3 0.2-0.6 0.3-0.9q0.1-0.4 0.3-0.8 0.4-0.8 1-1.5c0.3-0.5 0.8-0.9 1.4-1.2 0.3-0.1 0.6-0.2 0.9-0.3q0.5 0 0.9 0.1c-1.1 0.5-1.5 1.4-2 2.2q-0.3 0.7-0.6 1.4-0.1 0.4-0.2 0.7c-0.1 0.3-0.2 0.5-0.2 0.7l-0.8 2.7-1-2.6q-0.4-1.2-1.1-2.4-0.4-0.7-0.8-1.3-0.4-0.6-0.9-1.2z"/><path class="s" d="m192.1 139.7c0.6-0.1 1.1 0 1.7 0.1q0.4 0.1 0.8 0.3c0.2 0.1 0.5 0.2 0.7 0.4q0.4 0.2 0.7 0.4c0.2 0.3 0.4 0.5 0.6 0.7q0.3 0.3 0.5 0.7 0.2 0.4 0.5 0.7l-1.8 0.3 0.1-0.6q0-0.3 0.1-0.6 0-0.6 0-1.3 0-0.3 0.1-0.6c0-0.2-0.1-0.4-0.1-0.6q0-0.3 0-0.7 0-0.3-0.1-0.7 0.3 0.3 0.5 0.5c0.2 0.2 0.3 0.4 0.4 0.6q0.3 0.3 0.4 0.7 0.1 0.3 0.2 0.7c0.1 0.4 0.2 0.9 0.2 1.4q0.1 0.4 0.1 0.7c0 0.2 0 0.5-0.1 0.7l-0.3 2.6-1.4-2.3q-0.2-0.3-0.3-0.6c-0.1-0.2-0.2-0.4-0.4-0.5q-0.2-0.3-0.4-0.6-0.2-0.2-0.4-0.5c-0.2-0.2-0.3-0.3-0.5-0.4q-0.2-0.3-0.5-0.5-0.3-0.3-0.6-0.5-0.3-0.2-0.7-0.5z"/><path class="t" d="m96.8 142.3c0 0 0.4 0.6 1.1 1.2q0.3 0.3 0.6 0.5c0.3 0.2 0.5 0.3 0.8 0.5 0.3 0.1 0.5 0.3 0.8 0.4q0.5 0.2 1 0.3 0.4 0.1 0.9 0.2 0.5 0.1 0.9 0.2c0.3 0 0.6 0.1 0.9 0.1q0.5 0 0.8 0.1c0.6 0 1 0 1.3 0.1q0.4 0 0.5 0-0.1 0.1-0.5 0.2c-0.3 0-0.7 0.2-1.3 0.2q-0.3 0.1-0.8 0.1-0.5 0-0.9 0-0.5 0-1.1-0.1-0.5-0.1-1-0.2-0.5-0.2-1-0.4c-0.4-0.1-0.6-0.4-0.9-0.5-0.3-0.2-0.6-0.4-0.8-0.6q-0.3-0.4-0.6-0.7c-0.3-0.4-0.5-0.9-0.6-1.2q-0.1-0.4-0.1-0.4z"/><path class="t" d="m109.1 84.7c0 0 0.1-0.3 0.2-0.7 0.1-0.4 0.3-1 0.7-1.6 0.3-0.7 0.8-1.4 1.3-2.1 0.3-0.4 0.5-0.8 0.9-1.1q0.5-0.5 1-1.1 0.6-0.4 1.1-0.9c0.4-0.3 0.8-0.5 1.2-0.8 0.4-0.2 0.8-0.4 1.2-0.6q0.6-0.2 1.1-0.4 0.5-0.2 0.9-0.3 0.5-0.1 0.8-0.1c0.4-0.1 0.6-0.2 0.6-0.2 0 0-0.2 0.2-0.6 0.3q-0.2 0.1-0.6 0.3-0.4 0.2-0.9 0.5-0.5 0.2-1 0.5c-0.3 0.3-0.7 0.5-1 0.7q-0.6 0.4-1.1 0.8-0.6 0.4-1.1 0.9c-0.7 0.6-1.3 1.3-1.9 2-0.3 0.3-0.5 0.6-0.8 1q-0.4 0.4-0.7 0.9c-0.4 0.5-0.7 1-0.9 1.4-0.3 0.3-0.4 0.6-0.4 0.6z"/><path class="s" d="m190.9 77c0 0 0.8-0.2 2-0.2q0.5 0 1 0.1c0.3 0.1 0.7 0.2 1.1 0.3q1.1 0.3 2.2 0.9c0.3 0.2 0.6 0.4 1 0.6 0.3 0.3 0.6 0.5 0.9 0.8 0.3 0.2 0.5 0.5 0.7 0.8 0.3 0.2 0.4 0.5 0.6 0.8 0.2 0.2 0.3 0.4 0.4 0.7q0.2 0.3 0.3 0.5c0.2 0.3 0.3 0.5 0.3 0.5 0 0-0.2-0.1-0.4-0.4q-0.2-0.2-0.4-0.4c-0.2-0.2-0.4-0.4-0.6-0.6-0.2-0.2-0.4-0.4-0.7-0.6q-0.3-0.4-0.8-0.7-0.4-0.3-0.8-0.6c-0.4-0.2-0.7-0.5-1-0.6q-1-0.6-2-1-1-0.3-1.9-0.5c-1.1-0.3-1.9-0.4-1.9-0.4z"/><path class="u" d="m109.8 104.1c1.6-10.7 8.5-21.5 18.7-27.7 10.2-6.1 21.5-2.9 27.4 4.8 7 9.1 6.6 22.6 3.4 33.4-3.3 11.8-15.5 20.7-29.4 17.8-16.4-3.4-22-15.7-20.1-28.3z"/><path class="v" d="m115.7 103.2c1.3-9.9 7.1-20 16-25.5 8.8-5.6 18.7-2.5 23.9 4.8 6.3 8.6 6.1 21.1 3.5 31.2-2.8 10.9-13.3 19.1-25.4 16.2-14.4-3.5-19.5-15-18-26.7z"/><path class="w" d="m162 108.9c-1.5-9.6 1.5-21 8.7-29.1 7.2-8 17.9-8.4 25.1-3.4 8.6 6 11.8 17.7 12.1 28 0.2 11.1-7.9 22.1-20.8 23.4-15.2 1.6-23.4-7.5-25.1-18.9z"/><path class="x" d="m166.9 106.5c-1.6-8.8 0.7-18.8 6.7-25.9 6-7.1 15.2-7.1 21.6-2.3 7.6 5.6 10.8 16.2 11.3 25.5 0.5 10-6.2 19.7-17.3 20.5-13.1 0.9-20.4-7.5-22.3-17.8z"/><path class="a" d="m165.4 149.9c0 0 0 0.2-0.1 0.4 0 0.3-0.1 0.7-0.3 1.1q0 0.4-0.2 0.8c0 0.2-0.1 0.5-0.2 0.8q-0.1 0.4-0.2 0.8-0.1 0.4-0.2 0.8c-0.1 0.3-0.2 0.6-0.2 0.9q-0.1 0.4-0.2 0.9c0 0.2-0.1 0.5-0.1 0.7q-0.1 0.4-0.1 0.8c-0.1 0.4-0.1 0.8-0.2 1.1q0 0.4 0 0.4 0 0-0.2-0.4c-0.1-0.2-0.4-0.6-0.4-1.1q-0.1-0.3-0.2-0.8 0-0.4 0-0.9 0-0.4 0.1-0.9c0-0.3 0-0.7 0.1-1 0.2-0.6 0.4-1.2 0.7-1.8 0.2-0.5 0.6-1 0.8-1.4 0.3-0.4 0.6-0.7 0.8-0.9q0.3-0.3 0.3-0.3z"/><path class="y" d="m177.8 160.3c-5.6 6.7-12.7 5.7-18.8 9.1-5.2 2.9-9.3-9.8-3-19.1 11.6-17.3 27.3-16.2 27.3-16.2z"/><path class="t" d="m181.3 133.4c0 0-0.6 0.4-1.6 0.7-0.4 0.2-1 0.3-1.6 0.3q-0.5 0.1-1 0c-0.4 0-0.7-0.1-1-0.1q-0.6-0.1-1-0.3c-0.4-0.1-0.7-0.2-1-0.4-0.2-0.2-0.5-0.3-0.7-0.5-0.3-0.3-0.5-0.4-0.7-0.6q-0.2-0.4-0.4-0.6c-0.1-0.2-0.1-0.4-0.2-0.5q-0.2-0.5-0.2-0.5c0 0 0.2 0.1 0.5 0.2q0.1 0.1 0.4 0.3 0.3 0.1 0.6 0.2c0.2 0.1 0.4 0.2 0.6 0.3 0.3 0.1 0.5 0.1 0.8 0.2 0.2 0.1 0.5 0.1 0.8 0.2q0.4 0.1 0.8 0.2c1.2 0.2 2.3 0.4 3.3 0.6 0.9 0.1 1.6 0.3 1.6 0.3z"/><path class="t" d="m164.6 168.8c0 0-0.6 0.1-1.4 0.2q-0.6 0-1.2 0.1-0.4 0-0.7 0.1c-0.2 0-0.4 0.1-0.6 0.1q-0.3 0.1-0.6 0.2c-0.2 0.1-0.4 0.1-0.5 0.2q-0.3 0.1-0.5 0.3-0.3 0.1-0.5 0.3c-0.1 0.1-0.2 0.2-0.3 0.3q-0.2 0.2-0.3 0.3-0.3 0.3-0.3 0.3c0 0 0-0.1-0.1-0.4 0-0.2 0-0.6 0.1-1q0.1-0.4 0.4-0.7 0.2-0.4 0.5-0.7c0.2-0.2 0.5-0.4 0.8-0.6q0.4-0.2 0.9-0.3c0.3 0 0.6-0.1 0.9-0.1q0.4 0 0.8 0.1c0.6 0.1 1 0.2 1.4 0.4 0.8 0.4 1.2 0.9 1.2 0.9z"/><path class="z" d="m173.8 137.5c2.8-2.4 8-6.4 11.3-2.2 1.5 2 1.7 4.7 0.8 6.9-0.8 2.3-2.1 4.3-3.2 6.4-2.5 5-2.4 10.9-5.6 15.5-1.7 2.3-4 4.2-6.8 4.9-2.3 0.6-6 0.4-7.8-1.7-2.3-2.7-2.3-7.3-1.8-10.7 0.5-2.7 1.7-5.5 3.1-7.8 1.8-2.9 4-5.6 6.5-8q1.7-1.8 3.5-3.3z"/><path fill-rule="evenodd" class="t" d="m170.3 140.8c0 0 1.1-1.1 3-2.8 0.9-1 2.2-2 3.7-3 0.7-0.5 1.6-1 2.6-1.3 1-0.4 2.1-0.6 3.2-0.3 2.4 0.7 3.9 3.2 4 5.9q0.1 1-0.1 2.1c-0.1 0.3-0.2 0.6-0.3 1q-0.2 0.5-0.4 1c-0.5 1.3-1.1 2.5-1.8 3.7q-0.4 1-0.9 1.9c-0.2 0.7-0.5 1.3-0.8 1.9-0.2 0.7-0.4 1.4-0.6 2.1q-0.2 1-0.5 2.1c-0.3 1.4-0.7 2.9-1.1 4.3-0.3 0.7-0.5 1.5-0.8 2.2l-0.5 1.1c-0.2 0.4-0.4 0.7-0.6 1-1.6 2.7-4.2 5-7.2 5.9-1.6 0.5-3.2 0.6-4.7 0.3-0.4 0-0.8-0.1-1.1-0.2-0.4-0.1-0.8-0.2-1.2-0.4-0.3-0.1-0.7-0.3-1-0.6-0.4-0.2-0.6-0.5-0.9-0.7l-0.2-0.2c0 0-0.1-0.1-0.1-0.1l-0.1-0.2-0.3-0.4c-0.2-0.3-0.4-0.7-0.6-1-0.1-0.4-0.3-0.7-0.4-1q-0.1-0.5-0.2-1.1-0.5-2-0.4-4 0.1-2 0.5-3.8 0.3-0.9 0.5-1.7 0.3-0.8 0.6-1.6c0.9-2.1 1.9-3.9 3-5.4 0.5-0.8 1-1.4 1.5-2.1q0.4-0.4 0.7-0.8 0.4-0.5 0.7-0.8c0.8-1 1.6-1.8 2-2.3q0.8-0.7 0.8-0.7zm0 0q0 0-0.8 0.7c-0.4 0.5-1.1 1.3-2 2.3q-0.3 0.4-0.7 0.8-0.3 0.4-0.6 0.9-0.8 0.9-1.5 2.1c-1 1.5-1.9 3.3-2.7 5.4q-0.3 0.8-0.5 1.6-0.2 0.9-0.4 1.8c-0.2 1.1-0.3 2.4-0.3 3.6 0 1.3 0.2 2.6 0.6 3.8 0.3 1.2 1 2.4 1.8 3.3 0.2 0.2 0.5 0.5 0.8 0.6 0.2 0.1 0.4 0.2 0.8 0.3 0.3 0.1 0.6 0.2 0.9 0.3 0.3 0.1 0.6 0.1 1 0.1 1.3 0.2 2.7 0 3.9-0.4 2.6-0.9 4.9-2.8 6.2-5.3 0.2-0.3 0.4-0.6 0.6-0.9l0.4-0.9c0.3-0.7 0.5-1.3 0.8-2 0.4-1.4 0.8-2.8 1.2-4.3q0.3-1 0.6-2.1c0.2-0.7 0.5-1.4 0.7-2.1 0.3-0.7 0.6-1.4 0.9-2q0.6-1 1.1-1.9c0.7-1.2 1.4-2.4 2-3.6q0.2-0.4 0.4-0.8c0.1-0.3 0.2-0.7 0.3-1q0.2-0.8 0.2-1.8c0-1.2-0.3-2.4-0.8-3.4l-0.3-0.3v-0.1q0 0 0 0l-0.1-0.1-0.1-0.2c-0.2-0.2-0.4-0.4-0.6-0.6-0.4-0.3-0.9-0.6-1.4-0.8-1-0.3-2.1-0.2-3 0.1-1 0.3-1.9 0.8-2.6 1.2-1.6 1-2.8 2-3.8 2.9-1.9 1.8-3 2.8-3 2.8zm14.6-5.3q0 0 0 0z"/><path class="s" d="m178 143.2c0.2 0 0.6 0 1 0.3 0.3 0.3 0.4 0.9 0.4 1.5q0 0.4-0.2 0.9-0.1 0.6-0.2 1.1c-0.3 0.7-0.6 1.5-1 2.3-0.2 0.4-0.4 0.8-0.6 1.1q-0.4 0.6-0.8 1.2c-0.5 0.7-1.2 1.4-1.9 1.9-0.7 0.6-1.6 1-2.2 1-0.1 0-0.1-0.1-0.2-0.1 0 0-0.2 0-0.3-0.1h-0.1c0.1 0 0 0 0.1 0.1v-0.1h-0.2q0-0.1-0.1-0.2-0.3-0.2-0.4-0.8c-0.2-0.8-0.1-1.8 0.1-2.7 0.3-1.8 1.1-3.5 2-4.6 0.5-0.7 1-1.1 1.5-1.5 0.5-0.4 1-0.7 1.4-0.8q0.6-0.3 1-0.4 0.3-0.1 0.4-0.1 0 0 0.3 0z"/><g style="opacity:.5;mix-blend-mode:multiply"><path class="A" d="m87.3 121c-1.2 3.7-8.5 5.9-13.6 10.1-5.9 4.8-11.4 10.3-16.5 16.1-1.2-4.1-2-8.2-3-11.9-1.7-7.1-3-13.9-3.3-21.2-0.2-3.4-0.1-6.7-0.1-10 13.8 11 32.6 7 32.6 7 1.4-0.4 5.8 3.3 3.9 9.9z"/></g><path class="B" d="m157.6 34.3c-8.4 6.5-14 13.3-14 13.3-1.3-13.7-8.2-10.3-8.2-10.3-0.8-3.3-2-6.2-3.5-8.7q0.3-0.2 0.6-0.3c2.6-1.1 5.4-1.6 8.1-2.2 2-0.4 5-1.4 6.9-0.3 1.2 0.8 2.9 2 3.2 3.4 0.5 2.2 4 4 6.9 5.1z"/><path class="o" d="m86.6 120.1c-1.6 3.5-9.2 4.8-14.8 8.3-9.7 6-18.7 13.6-26.7 21.7 4.2-14.5-9.4-11.4-9.4-11.4 11.7-10.9-2.8-22.5-2.8-22.5 14.5-8.7 2.2-26.7 2.2-26.7 7.8 6.4 10-3.1 10-3.1 9.2 25.9 38.9 23.4 38.9 23.4 1.5-0.2 5.4 4 2.6 10.3z"/><path class="m" d="m163.1 17.1c-14.9 7.5-19.7 30.5-19.7 30.5-3.3-13.3-9.6-9-9.6-9-4.3-10.8-13.8-16.8-16.7-18.4q1.3 0.6 2.5 0.7c5.1 0.3 7.7-6.4 8.4-8.4q0.2-0.6 0.2-0.7 0.6 0.8 1.3 1.4c6.5 6 13.4-0.6 15.7-3.3 0.5-0.5 0.7-0.8 0.8-0.9q0-0.1 0-0.1c-1.2 13.1 10.3 10.5 15.1 8.9 1.2-0.4 2-0.7 2-0.7z"/><g style="opacity:.5;mix-blend-mode:multiply"><path class="C" d="m145.3 102.3c1.4 6.7-2.8 13.4-9.5 14.8-6.7 1.5-13.3-2.7-14.8-9.4-1.5-6.7 2.7-13.3 9.4-14.8 6.7-1.5 13.4 2.7 14.9 9.4z"/><path class="D" d="m183.1 113.5c-6.7 1.5-13.3-2.7-14.8-9.4-1.5-6.7 2.7-13.3 9.4-14.8 6.7-1.5 13.4 2.7 14.9 9.4 1.4 6.7-2.8 13.4-9.5 14.8z"/></g><path class="E" d="m145.9 100.7c1.5 6.7-2.7 13.4-9.4 14.9-6.7 1.5-13.3-2.8-14.8-9.5-1.5-6.7 2.7-13.3 9.4-14.8 6.7-1.5 13.4 2.7 14.8 9.4z"/><path class="F" d="m141.6 101.3c0.9 4.4-1.8 8.7-6.1 9.6-4.4 1-8.7-1.7-9.6-6.1-1-4.3 1.7-8.6 6.1-9.6 4.3-0.9 8.6 1.8 9.6 6.1z"/><path class="a" d="m140.6 97.1c0.5 1.9-0.8 3.9-2.8 4.3-1.9 0.5-3.9-0.8-4.3-2.8-0.5-1.9 0.8-3.9 2.8-4.3 1.9-0.5 3.9 0.8 4.3 2.8z"/><path class="E" d="m193.2 97.1c1.5 6.7-2.7 13.4-9.4 14.9-6.7 1.5-13.4-2.8-14.8-9.5-1.5-6.7 2.7-13.3 9.4-14.8 6.7-1.5 13.3 2.7 14.8 9.4z"/><path class="F" d="m188.9 97.7c0.9 4.4-1.8 8.7-6.1 9.6-4.4 1-8.7-1.7-9.6-6.1-1-4.3 1.7-8.6 6.1-9.6 4.3-0.9 8.6 1.8 9.6 6.1z"/><path class="a" d="m187.9 93.4c0.5 2-0.8 4-2.8 4.4-1.9 0.4-3.9-0.8-4.3-2.8-0.5-1.9 0.8-3.9 2.8-4.3 1.9-0.5 3.9 0.8 4.3 2.7z"/></svg>