<svg version="1.2" xmlns="http://www.w3.org/2000/svg" viewBox="0 0 250 650" width="250" height="245"><style>.a{fill:#fff}.b{fill:#f1f1f1}.c{fill:#e2e2e2}.d{fill:#d4d4d4}.e{fill:#c5c5c5}.f{fill:#b7b7b7}.g{fill:#a8a8a8}.h{fill:#9a9a9a}.i{fill:#8b8b8b}.j{fill:#7d7d7d}.k{fill:#6e6e6e}.l{fill:#606060}.m{fill:#5c2f10}.n{fill:#3b8ec4}.o{mix-blend-mode:screen;fill:#1e6c98}.p{fill:#1e6c98}.q{fill:#f15d45}.r{mix-blend-mode:screen;fill:#3b8ec4}.s{opacity:.5;mix-blend-mode:multiply;fill:#1e6c98}.t{fill:#62b9de}.u{mix-blend-mode:multiply;fill:#465f75}</style><g style="mix-blend-mode:multiply"><path fill-rule="evenodd" class="a" d="m34.2 234.2c-1.5-1.6-2.9-3.5-3.7-4.6q-0.2-0.3-0.3-0.5c-3.1-4.1-4.4-8.9-5.4-13-0.6-2.5-0.9-5-0.9-7.5-3.5 2.2-7.3 1.5-9.6-0.4-7.2-5.7-4.1-16.3-2.4-21.9l0.2-0.8q0.3-1.1 0.6-2.4c1-3.7 2.2-8.3 5-12.1 1.1-1.9 2.6-3.4 4.3-4.5-0.2-2 0.4-4.3 2.1-6.5 3-3.9 7.4-4.8 11.2-4.8q-0.4-0.1-0.7-0.2-0.2-0.1-0.6-0.1c-1.5-0.4-3.7-0.8-5.9-1.9-4.8-1.1-8.8-6-10.6-13.6q-0.2-0.6-0.4-1.5c-1.2-4.1-2.9-10.1-0.5-15.2 1.1-4.9 4.1-11 8.3-14.2q1.1-0.8 2.3-1.2 1.7-0.6 3.5-0.5c-1.4-4.3-1.9-7.8-2-8.2-0.2-1.4-0.9-8.1 1.9-13.4-0.8-3.2-1-7.5 0.2-13.1 2.2-9.5 6.6-18.7 13.2-27.2 5.9-7.6 13.9-17.2 24.3-24.4 2.9-2 6.3-4.3 10-6.3q0.5-0.2 1-0.4c1.2-0.5 2.4-0.8 3.4-1.2q0.2 0 0.6-0.1c6.9-2.3 12.1-3.3 16.2-0.9 2.5 1.4 4 4.1 3.9 7q-0.1 1.5-0.4 2.8 0.8 0.2 1.6 0.5 0.2 0.1 0.4 0.2 1.1 0.6 2 1.5c1.6 1.4 3.9 4.7 2.2 10.2q-0.1 0.5-0.4 1c-1.5 3.3-4.1 6.1-6.7 8.6v0.1c-3.1 3-4.5 8.5-5.9 14.4-0.7 2.9-1.4 5.9-2.4 8.7-2.2 6.5-6 15.9-13.2 21.9q-0.5 0.4-1 0.9c-1.9 1.6-4.1 3.5-6.9 4.8q0.3 1.5 0.4 3.1 0.8 0.2 1.6 0.5c1.9 0.7 3.4 1.6 4.7 2.3l0.2 0.2q0.6 0.3 1 0.7 0.6 0 1.2 0.1 2 0.3 3.9 1.1c-1.2-2.3-1.8-4.7-1.7-7.3 0.1-8.5 7.1-15.3 15.5-15.3q0.1 0 0.2 0c4.2 0.1 8.1 1.8 10.9 4.7 1.4 1.4 2.4 3 3.2 4.7 1.1-0.3 2.4-0.3 3.5-0.1q0.5-0.4 1-0.8 2-1.5 4.6-2c1.3-0.2 4.1-0.3 6.6 1.7 2.6-2 5.3-1.9 6.6-1.7 1.7 0.3 3.3 1 4.7 2q0.5 0.4 0.9 0.8c1.8-0.3 3.7-0.1 5.4 0.9 0.7-2 1.9-3.9 3.4-5.5 2.9-2.9 6.8-4.6 10.9-4.7 8.6-0.1 15.6 6.7 15.8 15.3 0 2.3-0.4 4.5-1.3 6.5q0.7-0.2 1.3-0.3 0.6-0.1 1.2-0.1 0.5-0.4 1-0.7l0.3-0.2c1.2-0.7 2.7-1.6 4.6-2.3q0.8-0.3 1.6-0.5 0.1-1.6 0.5-3.1c-2.9-1.3-5-3.2-6.9-4.8q-0.5-0.5-1.1-0.9c-7.1-6-10.9-15.4-13.2-21.9-1-2.8-1.7-5.8-2.4-8.7-1.4-5.9-2.7-11.4-5.8-14.4l-0.1-0.1c-1.8-1.7-5-4.8-6.7-8.6q-0.2-0.5-0.4-1c-1.6-5.5 0.7-8.8 2.2-10.2 0.6-0.6 1.2-1.1 2-1.5q0 0 0.1 0 0.2-0.1 0.4-0.2 0.8-0.3 1.6-0.5-0.4-1.3-0.5-2.8c-0.1-2.9 1.4-5.6 3.9-7 4.2-2.4 9.3-1.4 16.3 0.9q0.3 0.1 0.5 0.1c1.1 0.4 2.2 0.7 3.4 1.2q0.5 0.2 1 0.4c3.7 2 7 4.2 10.1 6.3 8.1 5.7 15.5 13.2 24.2 24.4 6.6 8.5 11.1 17.7 13.2 27.2 1.3 5.6 1 9.9 0.2 13.1 2.9 5.3 2.1 12 1.9 13.4-0.1 0.4-0.6 3.9-2 8.1q1.8 0 3.6 0.6 1.2 0.4 2.2 1.2c4.2 3.2 7.2 9.3 8.3 14.2 2.4 5.1 0.7 11.1-0.4 15.2q-0.3 0.8-0.4 1.5c-1.9 7.6-5.8 12.5-10.7 13.6-2.1 1.1-4.4 1.5-5.9 1.9q-0.3 0-0.6 0.1-0.3 0.1-0.6 0.2c3.8 0 8.1 0.9 11.1 4.8 1.7 2.2 2.3 4.5 2.1 6.5 1.7 1.2 3.3 2.6 4.4 4.5 2.8 3.8 3.9 8.4 4.9 12.2q0.3 1.2 0.6 2.3l0.2 0.8c1.6 5.2 4.8 16.2-2.4 21.9-2.3 1.9-6.1 2.6-9.6 0.4 0.1 2.5-0.2 5-0.9 7.5-0.9 4.1-2.3 8.9-5.3 13q-0.2 0.2-0.4 0.5c-0.8 1.1-2.1 3-3.7 4.6-5.5 5.7-10.5 4-12.4 3-1.8-1-4.3-3-5-7.1-1.2 3.7-3.8 7-6.4 9.8q-0.4 0.4-0.9 0.8c-2.1 1.7-4.3 2.8-6.6 3.4q-1.8 0.4-3.8 0.5-0.1 0-0.2 0-0.3 0-0.6-0.1c-2.7-0.2-5.3-1-7.5-2.4-5.3-3.2-8.4-7.7-8.8-12.5-0.6-6.8 3.4-10.5 5.9-12.6 0.1-1.6 0.3-3.1 0.5-4.5q0.1-1.1 0.3-2.2c0.1-0.9-1.2-1.9-5.5-4.2q-0.7-0.4-1.4-0.8-2.6-0.4-4.7-1.2-1.3 0.3-2.7 0.5c-5 1-10.1 1.5-15 2q-0.3 0-0.6 0-0.5 0-0.9 0h-0.1c-6.1 0.9-12.1 0.8-17.9 0.8q-1.4 0-2.7 0h-0.8c-3.7 0-7.4 0-11.2-0.4q-0.7 0-1.5-0.1c-1 0-2.3-0.1-3.5-0.3q-0.2 0-0.4 0-0.4 0-0.7 0-0.4 0-0.7 0c-4.9-0.5-9.9-1-15-2q-1.3-0.2-2.7-0.5-2.1 0.7-4.7 1.2-0.7 0.4-1.4 0.8c-4.3 2.3-5.5 3.3-5.4 4.2q0.1 1 0.3 2.1c0.2 1.5 0.4 3 0.5 4.6 2.4 2.1 6.4 5.8 5.9 12.6-0.4 4.8-3.6 9.3-8.8 12.5-2.3 1.4-4.9 2.2-7.5 2.4q-0.5 0.1-0.9 0.1-1.9-0.1-3.8-0.5c-2.2-0.6-4.4-1.7-6.6-3.4q-0.5-0.4-0.9-0.8c-2.5-2.8-5.1-6.1-6.4-9.8-0.6 4.1-3.2 6.1-5 7.1-1.9 1-6.9 2.7-12.4-3zm170.9-32.2c2.8 3.6 5 8 5.9 12.5q0.7-1.4 1.4-2.8c-0.1-0.3-0.2-0.6-0.2-0.7-1.7-4-3.5-8-5.2-11.9q-0.6-0.4-1.2-0.8c-0.1 1.3-0.3 2.6-0.7 3.7zm-153.1-2.9c-1.7 3.9-3.5 7.9-5.1 11.9-0.1 0.1-0.2 0.4-0.3 0.7q0.7 1.4 1.4 2.8c0.9-4.5 3.2-8.9 5.9-12.5-0.4-1.1-0.6-2.4-0.6-3.7q-0.6 0.4-1.3 0.8zm159.7-65.3q1-0.1 2-0.1c1 0 2.6-0.1 3.5-0.2q0-0.1 0-0.1 0.4-0.8 1-1.5c0.7-0.8 1.1-1.3 1.3-1.9l0.2-0.2q0.1-0.6 0.3-1.2c0.5-1.9 0.5-2.2 0.4-2.7l-0.2-0.7q-0.2-1-0.5-2c-1.6 4.2-4.5 7.7-8 10.6zm-169.8-0.3c0.8 0.1 2.4 0.2 3.5 0.2q1 0 1.9 0.1c-3.4-2.9-6.4-6.4-8-10.6q-0.2 1-0.5 2l-0.1 0.7c-0.2 0.5-0.1 0.8 0.4 2.7q0.1 0.6 0.3 1.2 0 0 0 0 0 0.1 0.1 0.2c0.2 0.6 0.6 1.1 1.3 1.9q0.6 0.7 1 1.5 0 0 0.1 0.1z"/><path fill-rule="evenodd" class="b" d="m33.4 233.4c-1.6-1.6-2.9-3.5-3.7-4.6q-0.2-0.3-0.4-0.5c-3-4.2-4.4-8.9-5.3-13.1-0.7-2.4-1-4.9-1-7.5-3.4 2.3-7.2 1.5-9.5-0.4-7.2-5.7-4.1-16.2-2.5-21.9l0.3-0.7q0.3-1.2 0.6-2.4c0.9-3.7 2.1-8.3 4.9-12.2 1.1-1.8 2.7-3.3 4.3-4.5-0.1-2 0.5-4.3 2.2-6.4 3-3.9 7.3-4.8 11.1-4.9q-0.3-0.1-0.6-0.2-0.3 0-0.6-0.1c-1.5-0.3-3.8-0.8-5.9-1.9-4.9-1.1-8.8-6-10.7-13.6q-0.1-0.6-0.4-1.4c-1.1-4.1-2.8-10.2-0.4-15.3 1.1-4.8 4.1-11 8.3-14.2q1-0.8 2.2-1.2 1.8-0.5 3.6-0.5c-1.4-4.3-2-7.8-2-8.2-0.2-1.4-1-8.1 1.9-13.3-0.9-3.2-1.1-7.5 0.2-13.1 2.1-9.6 6.6-18.7 13.2-27.3 5.8-7.5 13.9-17.1 24.2-24.3 2.9-2 6.4-4.4 10.1-6.3q0.5-0.3 1-0.5c1.2-0.4 2.3-0.8 3.4-1.1q0.2-0.1 0.5-0.2c7-2.3 12.1-3.2 16.3-0.8 2.5 1.4 4 4.1 3.8 6.9q0 1.5-0.4 2.8 0.9 0.2 1.7 0.6 0.2 0.1 0.3 0.2 1.2 0.5 2.1 1.4c1.5 1.5 3.8 4.7 2.2 10.3q-0.2 0.5-0.4 1c-1.5 3.3-4.1 6.1-6.7 8.5l-0.1 0.1c-3.1 3-4.4 8.6-5.8 14.5-0.7 2.8-1.4 5.8-2.4 8.7-2.3 6.5-6.1 15.8-13.2 21.8q-0.6 0.5-1.1 1c-1.9 1.6-4.1 3.4-6.9 4.8q0.4 1.4 0.4 3.1 0.8 0.2 1.7 0.5c1.9 0.6 3.4 1.5 4.6 2.3l0.3 0.2q0.5 0.3 1 0.6 0.6 0.1 1.1 0.2 2 0.3 3.9 1c-1.1-2.2-1.7-4.7-1.7-7.3 0.2-8.4 7.1-15.2 15.5-15.2q0.2 0 0.3 0c4.1 0 8 1.7 10.9 4.7 1.3 1.4 2.4 3 3.1 4.7 1.2-0.3 2.4-0.3 3.6-0.1q0.4-0.4 0.9-0.8 2.1-1.6 4.7-2c1.3-0.3 4-0.4 6.6 1.7 2.5-2.1 5.3-2 6.6-1.7 1.7 0.3 3.2 0.9 4.6 2q0.5 0.3 0.9 0.8c1.9-0.4 3.8-0.1 5.4 0.8 0.8-2 1.9-3.8 3.5-5.4 2.9-3 6.7-4.7 10.9-4.7 8.6-0.2 15.6 6.7 15.7 15.2 0.1 2.3-0.4 4.5-1.3 6.5q0.7-0.1 1.4-0.2 0.6-0.1 1.2-0.2 0.4-0.3 0.9-0.6l0.3-0.2c1.3-0.8 2.8-1.7 4.6-2.3q0.9-0.3 1.7-0.5 0.1-1.7 0.4-3.1c-2.8-1.4-5-3.2-6.9-4.8q-0.5-0.5-1-1c-7.2-6-11-15.3-13.2-21.8-1-2.9-1.7-5.9-2.4-8.7-1.4-5.9-2.8-11.5-5.9-14.5l-0.1-0.1c-1.7-1.6-4.9-4.8-6.6-8.5q-0.3-0.5-0.4-1c-1.7-5.6 0.6-8.8 2.2-10.3 0.5-0.5 1.2-1 1.9-1.4q0.1 0 0.2-0.1 0.1-0.1 0.3-0.1 0.8-0.4 1.6-0.6-0.3-1.3-0.4-2.8c-0.1-2.8 1.4-5.5 3.9-6.9 4.1-2.4 9.3-1.5 16.2 0.8q0.4 0.1 0.6 0.2c1 0.3 2.1 0.7 3.4 1.1q0.5 0.2 1 0.5c3.6 1.9 7 4.2 10 6.3 8.1 5.6 15.6 13.1 24.3 24.3 6.6 8.6 11 17.7 13.1 27.3 1.3 5.6 1.1 9.9 0.2 13.1 2.9 5.2 2.2 11.9 1.9 13.3 0 0.4-0.5 3.9-1.9 8.2q1.8 0 3.5 0.5 1.2 0.5 2.3 1.2c4.1 3.2 7.2 9.4 8.3 14.2 2.4 5.1 0.7 11.2-0.5 15.3q-0.2 0.8-0.4 1.5c-1.8 7.5-5.8 12.4-10.7 13.5-2.1 1.1-4.3 1.6-5.8 1.9q-0.4 0.1-0.7 0.1-0.3 0.1-0.6 0.2c3.8 0.1 8.2 1 11.2 4.8 1.7 2.2 2.2 4.5 2.1 6.5 1.6 1.2 3.2 2.7 4.3 4.5 2.8 3.9 4 8.5 4.9 12.2q0.4 1.2 0.7 2.4l0.2 0.7c1.5 5.3 4.8 16.2-2.4 21.9-2.4 1.9-6.2 2.6-9.6 0.4 0 2.6-0.3 5.1-1 7.5-0.9 4.2-2.2 8.9-5.3 13.1q-0.1 0.2-0.4 0.5c-0.7 1.1-2.1 3-3.6 4.6-5.5 5.7-10.5 3.9-12.4 2.9-1.8-1-4.4-3-5-7-1.3 3.7-3.9 6.9-6.4 9.7q-0.4 0.5-0.9 0.9c-2.2 1.7-4.4 2.8-6.7 3.3q-1.8 0.4-3.7 0.5-0.2 0-0.3 0-0.3 0-0.6 0c-2.6-0.2-5.2-1-7.5-2.4-5.3-3.3-8.4-7.7-8.8-12.6-0.5-6.7 3.5-10.4 5.9-12.5 0.1-1.6 0.3-3.2 0.5-4.6q0.2-1.1 0.3-2.1c0.1-1-1.2-2-5.4-4.3q-0.7-0.4-1.4-0.7-2.6-0.5-4.8-1.2-1.3 0.3-2.6 0.5c-5.1 0.9-10.1 1.4-15 1.9q-0.4 0-0.7 0-0.4 0.1-0.9 0.1h-0.1c-6.1 0.8-12.1 0.8-17.9 0.8q-1.3-0.1-2.7-0.1h-0.8c-3.6 0-7.3 0-11.1-0.3q-0.7-0.1-1.5-0.1c-1.1-0.1-2.3-0.2-3.6-0.3q-0.2 0-0.3 0-0.4 0-0.8-0.1-0.3 0-0.6 0c-4.9-0.5-10-1-15-1.9q-1.4-0.2-2.7-0.5-2.2 0.7-4.7 1.2-0.7 0.3-1.4 0.7c-4.3 2.3-5.6 3.3-5.5 4.2q0.1 1.1 0.3 2.2c0.2 1.4 0.4 3 0.5 4.6 2.5 2.1 6.5 5.8 5.9 12.5-0.4 4.9-3.5 9.3-8.8 12.6-2.2 1.4-4.8 2.2-7.5 2.4q-0.4 0-0.8 0-2-0.1-3.8-0.5c-2.3-0.5-4.5-1.6-6.6-3.3q-0.5-0.4-0.9-0.9c-2.6-2.8-5.2-6-6.5-9.7-0.6 4-3.1 6-4.9 7-1.9 1-6.9 2.8-12.4-2.9zm170.9-32.2c2.7 3.5 5 7.9 5.9 12.5q0.7-1.5 1.4-2.9c-0.1-0.3-0.2-0.6-0.3-0.7-1.6-3.9-3.4-8-5.1-11.8q-0.7-0.4-1.3-0.8c0 1.3-0.3 2.5-0.6 3.7zm-153.1-2.9c-1.7 3.8-3.5 7.9-5.2 11.8 0 0.1-0.1 0.4-0.2 0.7q0.7 1.4 1.4 2.9c0.9-4.6 3.1-9 5.8-12.5-0.3-1.2-0.5-2.4-0.6-3.7q-0.6 0.4-1.2 0.8zm159.7-65.4q0.9 0 1.9 0c1.1-0.1 2.7-0.1 3.5-0.3q0 0 0.1 0 0.4-0.8 1-1.5c0.7-0.8 1-1.4 1.3-1.9l0.1-0.3q0.2-0.6 0.3-1.2c0.5-1.9 0.6-2.2 0.4-2.7l-0.1-0.7q-0.3-0.9-0.5-2c-1.6 4.3-4.6 7.7-8 10.6zm-169.9-0.3c0.9 0.2 2.5 0.2 3.5 0.3q1 0 1.9 0c-3.4-2.9-6.3-6.3-7.9-10.6q-0.3 1-0.5 2l-0.2 0.7c-0.1 0.5-0.1 0.8 0.4 2.8q0.2 0.5 0.3 1.1 0 0 0 0 0.1 0.2 0.1 0.3c0.3 0.5 0.7 1.1 1.4 1.9q0.6 0.7 1 1.5 0 0 0 0z"/><path fill-rule="evenodd" class="c" d="m32.5 232.5c-1.5-1.6-2.9-3.5-3.7-4.6q-0.2-0.3-0.3-0.5c-3.1-4.1-4.4-8.9-5.4-13-0.7-2.5-0.9-5-0.9-7.5-3.5 2.2-7.3 1.5-9.6-0.4-7.2-5.7-4.1-16.3-2.4-21.9l0.2-0.8q0.3-1.1 0.6-2.4c1-3.7 2.2-8.3 5-12.1 1.1-1.9 2.6-3.4 4.3-4.5-0.2-2 0.4-4.3 2.1-6.5 3-3.9 7.4-4.8 11.1-4.8q-0.3-0.1-0.6-0.2-0.2-0.1-0.6-0.1c-1.5-0.4-3.7-0.8-5.9-1.9-4.8-1.2-8.8-6-10.6-13.6q-0.2-0.7-0.4-1.5c-1.2-4.1-2.9-10.1-0.5-15.2 1.1-4.9 4.1-11 8.3-14.2q1.1-0.8 2.3-1.2 1.7-0.6 3.5-0.6c-1.4-4.2-1.9-7.7-2-8.1-0.2-1.4-0.9-8.1 1.9-13.4-0.8-3.2-1-7.5 0.2-13.1 2.2-9.5 6.6-18.7 13.2-27.2 5.9-7.6 13.9-17.2 24.3-24.4 2.9-2 6.3-4.3 10-6.3q0.5-0.2 1-0.4c1.2-0.5 2.4-0.8 3.4-1.2q0.2 0 0.6-0.1c6.9-2.3 12.1-3.3 16.2-0.9 2.5 1.4 4 4.1 3.9 7q-0.1 1.5-0.4 2.8 0.8 0.2 1.6 0.5 0.2 0.1 0.4 0.2 1.1 0.6 2 1.5c1.6 1.4 3.9 4.7 2.2 10.2q-0.1 0.5-0.4 1c-1.5 3.3-4.1 6.1-6.7 8.6v0.1c-3.1 3-4.5 8.5-5.9 14.4-0.7 2.9-1.4 5.9-2.4 8.7-2.2 6.5-6 15.9-13.2 21.9q-0.5 0.4-1.1 0.9c-1.8 1.6-4 3.5-6.8 4.8q0.3 1.5 0.4 3.1 0.8 0.2 1.6 0.5c1.9 0.7 3.4 1.6 4.7 2.3l0.2 0.2q0.6 0.3 1 0.7 0.6 0 1.2 0.1 2 0.3 3.9 1.1c-1.2-2.3-1.8-4.7-1.7-7.3 0.1-8.5 7.1-15.3 15.5-15.3q0.1 0 0.2 0c4.2 0.1 8.1 1.8 10.9 4.7 1.4 1.4 2.4 3 3.2 4.7 1.1-0.3 2.4-0.3 3.5-0.1q0.5-0.4 1-0.8 2-1.5 4.6-2c1.3-0.2 4.1-0.3 6.6 1.7 2.6-2 5.3-1.9 6.6-1.7 1.7 0.3 3.3 1 4.7 2q0.5 0.4 0.9 0.8c1.8-0.3 3.7-0.1 5.4 0.9 0.7-2 1.9-3.9 3.4-5.5 2.9-2.9 6.8-4.6 10.9-4.7 8.6-0.1 15.6 6.7 15.8 15.3 0 2.3-0.4 4.5-1.3 6.5q0.7-0.2 1.3-0.3 0.6-0.1 1.2-0.1 0.5-0.4 1-0.7l0.3-0.2c1.2-0.7 2.7-1.6 4.6-2.3q0.8-0.3 1.6-0.5 0.1-1.6 0.5-3.1c-2.9-1.3-5-3.2-6.9-4.8q-0.5-0.5-1.1-0.9c-7.2-6-10.9-15.4-13.2-21.9-1-2.8-1.7-5.8-2.4-8.7-1.4-5.9-2.7-11.4-5.8-14.4l-0.1-0.1c-1.8-1.7-5-4.8-6.7-8.6q-0.2-0.5-0.4-1c-1.6-5.5 0.7-8.8 2.2-10.2 0.6-0.6 1.2-1.1 2-1.5q0 0 0.1 0 0.2-0.1 0.4-0.2 0.8-0.3 1.6-0.5-0.4-1.3-0.5-2.8c-0.1-2.9 1.4-5.6 3.9-7 4.2-2.4 9.3-1.4 16.3 0.9q0.3 0.1 0.5 0.1c1.1 0.4 2.2 0.7 3.4 1.2q0.5 0.2 1 0.4c3.7 2 7 4.2 10.1 6.3 8.1 5.6 15.5 13.2 24.2 24.4 6.6 8.5 11.1 17.7 13.2 27.2 1.3 5.6 1 9.9 0.2 13.1 2.9 5.3 2.1 12 1.9 13.4-0.1 0.4-0.6 3.9-2 8.1q1.8 0 3.6 0.6 1.2 0.4 2.2 1.2c4.2 3.2 7.2 9.3 8.3 14.2 2.4 5.1 0.7 11.1-0.4 15.2q-0.3 0.8-0.4 1.5c-1.9 7.6-5.8 12.4-10.7 13.6-2.1 1.1-4.4 1.5-5.9 1.9q-0.4 0-0.6 0.1-0.3 0.1-0.6 0.2c3.7 0 8.1 0.9 11.1 4.8 1.7 2.2 2.3 4.4 2.1 6.5 1.7 1.1 3.2 2.6 4.4 4.5 2.8 3.8 3.9 8.4 4.9 12.2q0.3 1.2 0.6 2.3l0.2 0.8c1.6 5.2 4.8 16.2-2.4 21.9-2.3 1.9-6.1 2.6-9.6 0.4 0.1 2.5-0.2 5-0.9 7.5-0.9 4.1-2.3 8.9-5.4 13q-0.1 0.2-0.3 0.5c-0.8 1.1-2.1 3-3.7 4.6-5.5 5.7-10.5 4-12.4 3-1.8-1-4.3-3-5-7.1-1.2 3.7-3.8 7-6.4 9.8q-0.4 0.4-0.9 0.8c-2.1 1.7-4.3 2.8-6.6 3.4q-1.8 0.4-3.8 0.5-0.1 0-0.2 0-0.3 0-0.6-0.1c-2.7-0.2-5.3-1-7.5-2.4-5.3-3.2-8.4-7.7-8.8-12.5-0.6-6.8 3.4-10.5 5.9-12.6 0.1-1.6 0.3-3.1 0.5-4.5q0.1-1.1 0.3-2.2c0.1-0.9-1.2-1.9-5.5-4.2q-0.7-0.4-1.4-0.8-2.6-0.5-4.7-1.2-1.3 0.3-2.7 0.5c-5 1-10.1 1.5-15 2q-0.3 0-0.6 0-0.5 0-0.9 0h-0.1c-6.1 0.9-12.1 0.8-17.9 0.8q-1.4 0-2.7 0h-0.9c-3.6 0-7.3 0-11.1-0.4q-0.7 0-1.5-0.1c-1-0.1-2.3-0.1-3.5-0.3q-0.2 0-0.4 0-0.4 0-0.7 0-0.4 0-0.7 0c-4.9-0.5-9.9-1-15-2q-1.3-0.2-2.7-0.5-2.1 0.7-4.7 1.2-0.7 0.4-1.4 0.8c-4.3 2.3-5.5 3.3-5.4 4.2q0.1 1 0.3 2.1c0.2 1.5 0.4 3 0.5 4.6 2.4 2.1 6.4 5.8 5.9 12.6-0.4 4.8-3.6 9.3-8.8 12.5-2.3 1.4-4.9 2.2-7.5 2.4q-0.5 0.1-0.9 0.1-1.9-0.1-3.8-0.5c-2.2-0.6-4.5-1.7-6.6-3.4q-0.5-0.4-0.9-0.8c-2.5-2.8-5.1-6.1-6.4-9.8-0.6 4.1-3.2 6.1-5 7.1-1.9 1-6.9 2.7-12.4-3zm170.9-32.2c2.8 3.6 5 8 5.9 12.5q0.7-1.4 1.4-2.8c-0.1-0.3-0.2-0.6-0.2-0.7-1.7-4-3.5-8-5.2-11.9q-0.6-0.4-1.2-0.8c-0.1 1.3-0.3 2.6-0.7 3.7zm-153.1-2.9c-1.7 3.9-3.5 7.9-5.1 11.9-0.1 0.1-0.2 0.4-0.3 0.7q0.7 1.4 1.4 2.8c0.9-4.5 3.2-8.9 5.9-12.5-0.4-1.1-0.6-2.4-0.6-3.7q-0.6 0.4-1.3 0.8zm159.7-65.3q1-0.1 2-0.1c1 0 2.6-0.1 3.5-0.2q0-0.1 0-0.1 0.4-0.8 1-1.5c0.7-0.8 1.1-1.3 1.3-1.9l0.2-0.2q0.1-0.6 0.3-1.2c0.5-1.9 0.5-2.2 0.4-2.7l-0.2-0.7q-0.2-1-0.5-2c-1.6 4.2-4.5 7.7-8 10.6zm-169.8-0.3c0.8 0.1 2.4 0.2 3.5 0.2q1 0 1.9 0.1c-3.4-2.9-6.4-6.4-8-10.6q-0.2 1-0.5 2l-0.1 0.7c-0.2 0.5-0.1 0.8 0.4 2.7q0.1 0.6 0.3 1.2 0 0 0 0 0 0.1 0.1 0.2c0.2 0.6 0.6 1.1 1.3 1.9q0.6 0.7 1 1.5 0 0 0.1 0.1z"/><path fill-rule="evenodd" class="d" d="m31.7 231.7c-1.6-1.6-2.9-3.5-3.7-4.6q-0.2-0.4-0.4-0.5c-3-4.2-4.4-8.9-5.3-13.1-0.7-2.4-1-4.9-1-7.5-3.4 2.2-7.2 1.5-9.5-0.4-7.2-5.7-4.1-16.2-2.5-21.9l0.3-0.7q0.3-1.2 0.6-2.4c0.9-3.7 2.1-8.3 4.9-12.2 1.1-1.8 2.7-3.3 4.3-4.5-0.1-2 0.5-4.3 2.2-6.4 3-3.9 7.3-4.8 11.1-4.9q-0.3-0.1-0.6-0.2-0.3 0-0.6-0.1c-1.5-0.3-3.8-0.8-5.9-1.9-4.9-1.1-8.8-6-10.7-13.6q-0.1-0.6-0.4-1.4c-1.1-4.1-2.8-10.2-0.4-15.3 1.1-4.8 4.1-11 8.3-14.2q1-0.8 2.2-1.2 1.8-0.5 3.6-0.5c-1.4-4.3-2-7.8-2-8.2-0.2-1.4-1-8.1 1.9-13.3-0.9-3.2-1.1-7.5 0.2-13.2 2.1-9.5 6.6-18.6 13.2-27.2 5.8-7.5 13.8-17.1 24.2-24.3 2.9-2 6.4-4.4 10.1-6.3q0.5-0.3 1-0.5c1.2-0.4 2.3-0.8 3.4-1.1q0.2-0.1 0.5-0.2c7-2.3 12.1-3.2 16.3-0.9 2.5 1.5 4 4.2 3.8 7q0 1.5-0.4 2.8 0.9 0.2 1.7 0.6 0.2 0.1 0.3 0.2 1.2 0.5 2.1 1.4c1.5 1.5 3.8 4.7 2.2 10.3q-0.2 0.5-0.4 1c-1.5 3.3-4.1 6.1-6.7 8.5l-0.1 0.1c-3.1 3-4.4 8.6-5.8 14.4-0.7 2.9-1.4 5.9-2.4 8.8-2.3 6.5-6.1 15.8-13.2 21.8q-0.6 0.5-1.1 1c-1.9 1.6-4.1 3.4-6.9 4.8q0.4 1.4 0.4 3.1 0.8 0.2 1.7 0.5c1.9 0.6 3.4 1.5 4.6 2.3l0.3 0.1q0.5 0.4 1 0.7 0.5 0.1 1.1 0.2 2 0.3 3.9 1c-1.1-2.2-1.7-4.7-1.7-7.3 0.2-8.4 7.1-15.2 15.5-15.2q0.2 0 0.3 0c4.1 0 8 1.7 10.9 4.7 1.3 1.4 2.4 3 3.1 4.7 1.2-0.3 2.4-0.4 3.6-0.1q0.4-0.4 0.9-0.8 2.1-1.6 4.7-2c1.3-0.3 4-0.4 6.6 1.7 2.5-2.1 5.2-2 6.6-1.7 1.7 0.3 3.2 0.9 4.6 2q0.5 0.3 0.9 0.8c1.8-0.4 3.8-0.1 5.4 0.8 0.8-2 1.9-3.8 3.5-5.4 2.9-3 6.7-4.7 10.9-4.7 8.6-0.2 15.6 6.7 15.7 15.2 0.1 2.3-0.4 4.5-1.3 6.5q0.7-0.1 1.4-0.2 0.6-0.1 1.2-0.2 0.4-0.3 0.9-0.7l0.3-0.1c1.3-0.8 2.8-1.7 4.6-2.3q0.9-0.3 1.7-0.5 0.1-1.7 0.4-3.1c-2.8-1.4-5-3.2-6.9-4.8q-0.5-0.5-1.1-1c-7.1-6-10.9-15.3-13.1-21.8-1-2.9-1.7-5.9-2.4-8.8-1.4-5.8-2.8-11.4-5.9-14.4l-0.1-0.1c-1.7-1.6-4.9-4.8-6.7-8.5q-0.2-0.5-0.3-1c-1.7-5.6 0.6-8.8 2.2-10.3 0.5-0.5 1.2-1 1.9-1.4q0.1 0 0.2-0.1 0.1-0.1 0.3-0.1 0.8-0.4 1.6-0.6-0.4-1.3-0.4-2.8c-0.1-2.8 1.4-5.5 3.9-7 4.1-2.3 9.3-1.4 16.2 0.9q0.4 0.1 0.5 0.2c1.1 0.3 2.2 0.7 3.5 1.1q0.5 0.2 1 0.5c3.6 1.9 7 4.2 10 6.3 8.1 5.6 15.6 13.1 24.3 24.3 6.6 8.6 11 17.7 13.1 27.3 1.3 5.6 1.1 9.9 0.2 13.1 2.9 5.2 2.2 11.9 1.9 13.3 0 0.4-0.5 3.9-1.9 8.2q1.7 0 3.5 0.5 1.2 0.4 2.2 1.2c4.2 3.2 7.3 9.4 8.4 14.2 2.4 5.1 0.7 11.2-0.5 15.3q-0.2 0.8-0.4 1.5c-1.9 7.5-5.8 12.4-10.7 13.5-2.1 1.1-4.3 1.6-5.8 1.9q-0.4 0.1-0.7 0.1-0.3 0.1-0.6 0.2c3.8 0.1 8.2 1 11.2 4.8 1.7 2.2 2.2 4.5 2.1 6.5 1.6 1.2 3.2 2.7 4.3 4.5 2.8 3.9 4 8.5 4.9 12.2q0.4 1.2 0.7 2.4l0.2 0.7c1.5 5.3 4.7 16.2-2.4 21.9-2.4 1.9-6.2 2.6-9.6 0.4 0 2.6-0.3 5.1-1 7.5-0.9 4.2-2.2 8.9-5.3 13.1q-0.1 0.1-0.4 0.5c-0.7 1.1-2.1 3-3.6 4.6-5.5 5.7-10.5 3.9-12.4 2.9-1.8-1-4.4-3-5-7-1.3 3.7-3.9 6.9-6.4 9.7q-0.4 0.5-0.9 0.9c-2.2 1.7-4.4 2.8-6.7 3.3q-1.8 0.4-3.7 0.5-0.2 0-0.3 0-0.3 0-0.6 0c-2.6-0.2-5.2-1-7.5-2.4-5.3-3.3-8.4-7.7-8.8-12.6-0.5-6.7 3.5-10.4 5.9-12.5 0.1-1.6 0.3-3.2 0.5-4.6q0.2-1.1 0.3-2.1c0.1-1-1.2-2-5.4-4.3q-0.7-0.4-1.4-0.7-2.6-0.5-4.8-1.2-1.3 0.3-2.6 0.5c-5.1 0.9-10.2 1.4-15 1.9q-0.4 0-0.7 0-0.4 0.1-0.9 0.1h-0.1c-6.1 0.8-12.1 0.8-17.9 0.8q-1.3-0.1-2.7-0.1h-0.8c-3.6 0-7.4 0-11.1-0.3q-0.7-0.1-1.5-0.1c-1.1-0.1-2.3-0.2-3.6-0.3q-0.2 0-0.3 0-0.4 0-0.8-0.1-0.3 0-0.6 0c-4.9-0.5-10-1-15-1.9q-1.4-0.2-2.7-0.5-2.2 0.7-4.7 1.2-0.7 0.3-1.4 0.7c-4.3 2.3-5.6 3.3-5.5 4.2q0.1 1.1 0.3 2.2c0.2 1.4 0.4 3 0.5 4.6 2.5 2.1 6.5 5.8 5.9 12.5-0.4 4.9-3.5 9.3-8.8 12.6-2.3 1.4-4.8 2.2-7.5 2.4q-0.4 0-0.8 0-2-0.1-3.8-0.5c-2.3-0.5-4.5-1.6-6.6-3.3q-0.5-0.4-0.9-0.9c-2.6-2.8-5.2-6-6.5-9.7-0.6 4-3.1 6-4.9 7-1.9 1-6.9 2.8-12.4-2.9zm170.9-32.2c2.7 3.5 5 7.9 5.9 12.5q0.7-1.5 1.4-2.9c-0.1-0.3-0.2-0.6-0.3-0.7-1.6-3.9-3.4-8-5.1-11.8q-0.7-0.4-1.3-0.8c0 1.3-0.3 2.5-0.6 3.7zm-153.1-3c-1.7 3.9-3.5 8-5.2 11.9 0 0.1-0.1 0.4-0.2 0.7q0.7 1.4 1.4 2.9c0.9-4.6 3.1-9 5.8-12.5-0.3-1.2-0.5-2.4-0.6-3.7q-0.6 0.4-1.2 0.7zm159.7-65.3q0.9 0 1.9 0c1.1-0.1 2.7-0.1 3.5-0.3q0 0 0.1 0 0.4-0.8 1-1.5c0.7-0.8 1-1.4 1.3-1.9l0.1-0.3q0.2-0.6 0.3-1.2c0.5-1.9 0.5-2.2 0.4-2.7l-0.1-0.7q-0.3-1-0.5-2c-1.6 4.3-4.6 7.7-8 10.6zm-169.9-0.3c0.8 0.2 2.5 0.2 3.5 0.3q1 0 1.9 0c-3.4-2.9-6.4-6.3-8-10.6q-0.2 1-0.4 2l-0.2 0.7c-0.1 0.5-0.1 0.8 0.4 2.7q0.2 0.6 0.3 1.2 0 0 0 0 0.1 0.2 0.1 0.3c0.3 0.5 0.7 1.1 1.4 1.9q0.6 0.7 1 1.5 0 0 0 0z"/><path fill-rule="evenodd" class="e" d="m30.8 230.8c-1.5-1.6-2.9-3.5-3.7-4.6q-0.2-0.3-0.3-0.5c-3.1-4.1-4.4-8.9-5.4-13-0.7-2.5-0.9-5-0.9-7.5-3.5 2.2-7.3 1.4-9.6-0.4-7.2-5.7-4.1-16.3-2.4-21.9l0.2-0.8q0.3-1.1 0.6-2.4c1-3.7 2.2-8.3 5-12.1 1.1-1.9 2.6-3.4 4.3-4.5-0.2-2.1 0.4-4.3 2.1-6.5 3-3.9 7.4-4.8 11.1-4.8q-0.3-0.1-0.6-0.2-0.2-0.1-0.6-0.1c-1.5-0.4-3.7-0.8-5.9-2-4.8-1.1-8.8-5.9-10.6-13.5q-0.2-0.7-0.4-1.5c-1.2-4.1-2.9-10.1-0.5-15.2 1.1-4.9 4.1-11 8.3-14.2q1-0.8 2.3-1.2 1.7-0.6 3.5-0.6c-1.4-4.2-1.9-7.7-2-8.1-0.2-1.4-0.9-8.1 1.9-13.4-0.8-3.2-1-7.5 0.2-13.1 2.2-9.5 6.6-18.7 13.2-27.2 5.9-7.6 13.9-17.2 24.3-24.4 2.9-2 6.3-4.3 10-6.3q0.5-0.2 1-0.4c1.2-0.5 2.4-0.8 3.4-1.2q0.2 0 0.6-0.2c6.9-2.2 12.1-3.2 16.2-0.8 2.5 1.4 4 4.1 3.9 7q-0.1 1.5-0.4 2.8 0.8 0.2 1.6 0.5 0.2 0.1 0.4 0.2 1.1 0.6 2 1.5c1.5 1.4 3.9 4.7 2.2 10.2q-0.1 0.5-0.4 1c-1.5 3.3-4.1 6.1-6.7 8.6v0.1c-3.2 3-4.5 8.5-5.9 14.4-0.7 2.9-1.4 5.9-2.4 8.7-2.2 6.5-6 15.9-13.2 21.9q-0.5 0.4-1.1 0.9c-1.8 1.6-4 3.5-6.8 4.8q0.3 1.5 0.4 3.1 0.8 0.2 1.6 0.5c1.9 0.7 3.4 1.6 4.7 2.3l0.2 0.2q0.6 0.3 1 0.7 0.6 0 1.2 0.1 2 0.3 3.9 1.1c-1.2-2.3-1.8-4.7-1.7-7.3 0.1-8.5 7-15.3 15.5-15.3q0.1 0 0.2 0c4.2 0.1 8.1 1.8 10.9 4.7 1.4 1.4 2.4 3 3.2 4.7 1.1-0.3 2.4-0.3 3.5-0.1q0.5-0.4 1-0.8 2-1.5 4.6-2c1.3-0.2 4-0.3 6.6 1.7 2.6-2 5.3-1.9 6.6-1.7 1.7 0.3 3.3 1 4.6 2q0.6 0.4 1 0.8c1.8-0.3 3.7-0.1 5.4 0.9 0.7-2 1.9-3.9 3.4-5.5 2.9-2.9 6.8-4.6 10.9-4.7 8.6-0.1 15.6 6.7 15.8 15.3 0 2.3-0.4 4.5-1.3 6.5q0.7-0.2 1.3-0.3 0.6-0.1 1.2-0.1 0.5-0.4 1-0.7l0.3-0.2c1.2-0.7 2.7-1.6 4.6-2.3q0.8-0.3 1.6-0.5 0.1-1.6 0.5-3.1c-2.9-1.3-5-3.2-6.9-4.8q-0.5-0.5-1.1-0.9c-7.2-6-11-15.4-13.2-21.9-1-2.8-1.7-5.8-2.4-8.7-1.4-5.9-2.7-11.4-5.8-14.4l-0.1-0.1c-1.8-1.7-5-4.8-6.7-8.6q-0.2-0.5-0.4-1c-1.6-5.5 0.7-8.8 2.2-10.2 0.6-0.6 1.2-1.1 2-1.5q0 0 0.1 0 0.2-0.1 0.4-0.2 0.8-0.3 1.6-0.5-0.4-1.3-0.5-2.8c-0.1-2.9 1.4-5.6 3.9-7 4.2-2.4 9.3-1.4 16.3 0.8q0.3 0.2 0.5 0.2c1.1 0.4 2.2 0.7 3.4 1.2q0.5 0.2 1 0.4c3.7 2 7 4.2 10.1 6.3 8.1 5.6 15.5 13.2 24.2 24.4 6.6 8.5 11.1 17.7 13.2 27.2 1.3 5.6 1 9.9 0.2 13.1 2.9 5.3 2.1 12 1.9 13.4-0.1 0.4-0.6 3.9-2 8.1q1.8 0 3.6 0.6 1.2 0.4 2.2 1.2c4.2 3.2 7.2 9.3 8.3 14.2 2.4 5.1 0.7 11.1-0.4 15.2q-0.3 0.8-0.4 1.5c-1.9 7.6-5.8 12.4-10.7 13.6-2.1 1.1-4.4 1.5-5.9 1.9q-0.4 0-0.6 0.1-0.3 0.1-0.6 0.2c3.7 0 8.1 0.9 11.1 4.8 1.7 2.2 2.3 4.4 2.1 6.5 1.7 1.1 3.2 2.6 4.4 4.5 2.8 3.8 3.9 8.4 4.9 12.2q0.3 1.2 0.6 2.3l0.2 0.8c1.6 5.2 4.8 16.2-2.4 21.9-2.3 1.9-6.1 2.6-9.6 0.4 0.1 2.5-0.2 5-0.9 7.5-0.9 4.1-2.3 8.9-5.4 13q-0.1 0.2-0.3 0.5c-0.8 1.1-2.1 3-3.7 4.6-5.5 5.7-10.5 4-12.4 3-1.8-1-4.3-3-5-7.1-1.2 3.7-3.8 7-6.4 9.8q-0.4 0.4-0.9 0.8c-2.1 1.7-4.4 2.8-6.6 3.4q-1.8 0.4-3.8 0.5-0.1 0-0.2 0-0.3 0-0.6-0.1c-2.7-0.2-5.3-1-7.5-2.4-5.3-3.2-8.4-7.7-8.8-12.5-0.6-6.8 3.4-10.5 5.9-12.6 0.1-1.6 0.3-3.1 0.5-4.6q0.1-1 0.3-2.1c0.1-0.9-1.2-1.9-5.5-4.2q-0.7-0.4-1.4-0.8-2.6-0.5-4.7-1.2-1.3 0.3-2.7 0.5c-5 1-10.1 1.5-15 2q-0.3 0-0.6 0-0.5 0-0.9 0h-0.1c-6.1 0.9-12.1 0.8-17.9 0.8q-1.4 0-2.7 0h-0.9c-3.6 0-7.3 0-11.1-0.4q-0.7 0-1.5-0.1c-1-0.1-2.3-0.1-3.5-0.3q-0.2 0-0.4 0-0.4 0-0.7 0-0.4 0-0.7 0c-4.9-0.5-9.9-1-15-2q-1.3-0.2-2.7-0.5-2.1 0.7-4.7 1.2-0.7 0.4-1.4 0.8c-4.3 2.3-5.5 3.3-5.4 4.2q0.1 1 0.2 2.1c0.3 1.5 0.5 3 0.6 4.6 2.4 2.1 6.4 5.8 5.9 12.6-0.4 4.8-3.6 9.3-8.8 12.5-2.3 1.4-4.9 2.2-7.6 2.4q-0.4 0.1-0.8 0.1-1.9-0.1-3.8-0.5c-2.2-0.6-4.5-1.7-6.6-3.4q-0.5-0.4-0.9-0.8c-2.5-2.8-5.1-6.1-6.4-9.8-0.6 4-3.2 6.1-5 7.1-1.9 1-6.9 2.7-12.4-3zm170.9-32.2c2.8 3.6 5 8 5.9 12.5q0.7-1.4 1.4-2.8c-0.1-0.3-0.2-0.6-0.2-0.7-1.7-4-3.5-8-5.2-11.9q-0.6-0.4-1.2-0.8c-0.1 1.3-0.3 2.6-0.7 3.7zm-153.1-2.9c-1.7 3.9-3.5 7.9-5.1 11.9-0.1 0.1-0.2 0.4-0.3 0.7q0.7 1.4 1.4 2.8c0.9-4.5 3.2-8.9 5.9-12.5-0.4-1.1-0.6-2.4-0.6-3.7q-0.6 0.4-1.3 0.8zm159.7-65.3q1-0.1 2-0.1c1 0 2.6-0.1 3.5-0.2q0-0.1 0-0.1 0.4-0.8 1-1.5c0.7-0.8 1.1-1.3 1.3-1.9l0.2-0.3q0.1-0.5 0.3-1.1c0.5-1.9 0.5-2.2 0.4-2.7l-0.2-0.7q-0.2-1-0.5-2c-1.6 4.2-4.5 7.7-8 10.6zm-169.8-0.3c0.8 0.1 2.4 0.2 3.5 0.2q1 0 1.9 0.1c-3.4-2.9-6.4-6.4-8-10.6q-0.2 1-0.5 2l-0.2 0.7c-0.1 0.5 0 0.8 0.5 2.7q0.1 0.6 0.3 1.1 0 0.1 0 0.1 0 0.1 0.1 0.2c0.2 0.6 0.6 1.1 1.3 1.9q0.6 0.7 1 1.5 0 0 0.1 0.1z"/><path fill-rule="evenodd" class="f" d="m30 230c-1.6-1.6-2.9-3.5-3.7-4.6q-0.2-0.4-0.4-0.5c-3-4.2-4.4-8.9-5.3-13.1-0.7-2.4-1-5-1-7.5-3.4 2.2-7.2 1.5-9.5-0.4-7.2-5.7-4.1-16.2-2.5-21.9l0.3-0.7q0.3-1.2 0.6-2.4c0.9-3.7 2.1-8.3 4.9-12.2 1.1-1.8 2.7-3.3 4.3-4.5-0.1-2 0.5-4.3 2.2-6.4 3-3.9 7.3-4.8 11.1-4.9q-0.3-0.1-0.6-0.2-0.3 0-0.6-0.1c-1.6-0.3-3.8-0.8-5.9-1.9-4.9-1.1-8.8-6-10.7-13.6q-0.1-0.6-0.4-1.4c-1.1-4.1-2.8-10.2-0.4-15.3 1.1-4.8 4.1-11 8.3-14.2q1-0.8 2.2-1.2 1.8-0.6 3.6-0.5c-1.4-4.3-2-7.8-2-8.2-0.2-1.4-1-8.1 1.9-13.3-0.9-3.2-1.1-7.5 0.2-13.2 2.1-9.5 6.5-18.6 13.2-27.2 5.8-7.5 13.8-17.1 24.2-24.3 2.9-2 6.4-4.4 10.1-6.3q0.5-0.3 1-0.5c1.2-0.4 2.3-0.8 3.4-1.1q0.2-0.1 0.5-0.2c7-2.3 12.1-3.2 16.3-0.9 2.5 1.5 4 4.2 3.8 7q0 1.5-0.4 2.8 0.9 0.2 1.7 0.6 0.2 0.1 0.3 0.2 1.2 0.5 2.1 1.4c1.5 1.5 3.8 4.7 2.2 10.3q-0.2 0.5-0.4 1c-1.5 3.3-4.1 6-6.7 8.5l-0.1 0.1c-3.1 3-4.4 8.6-5.8 14.4-0.7 2.9-1.5 5.9-2.4 8.8-2.3 6.5-6.1 15.8-13.2 21.8q-0.6 0.5-1.1 0.9c-1.9 1.7-4.1 3.5-6.9 4.9q0.4 1.4 0.4 3.1 0.8 0.2 1.7 0.5c1.9 0.6 3.4 1.5 4.6 2.3l0.3 0.1q0.5 0.4 1 0.7 0.5 0.1 1.1 0.2 2 0.3 3.9 1c-1.1-2.2-1.7-4.7-1.7-7.3 0.2-8.4 7.1-15.2 15.5-15.2q0.2 0 0.3 0c4.1 0 8 1.7 10.9 4.7 1.3 1.4 2.4 3 3.1 4.7 1.2-0.3 2.4-0.4 3.6-0.1q0.4-0.4 0.9-0.8 2.1-1.6 4.7-2c1.3-0.3 4-0.4 6.6 1.7 2.5-2.1 5.2-2 6.6-1.7 1.7 0.3 3.2 0.9 4.6 2q0.5 0.3 0.9 0.8c1.8-0.4 3.8-0.1 5.4 0.8 0.8-2 1.9-3.8 3.5-5.4 2.9-3 6.7-4.7 10.9-4.7 8.6-0.2 15.6 6.7 15.7 15.2 0.1 2.3-0.4 4.5-1.3 6.5q0.7-0.1 1.4-0.2 0.6-0.1 1.2-0.2 0.4-0.3 0.9-0.7l0.3-0.1c1.2-0.8 2.8-1.7 4.6-2.3q0.9-0.3 1.7-0.5 0.1-1.7 0.4-3.1c-2.8-1.4-5-3.2-6.9-4.8q-0.5-0.5-1.1-1c-7.1-6-10.9-15.3-13.1-21.8-1-2.9-1.7-5.9-2.4-8.8-1.4-5.8-2.8-11.4-5.9-14.4l-0.1-0.1c-1.7-1.6-4.9-4.8-6.7-8.5q-0.2-0.5-0.3-1c-1.7-5.6 0.6-8.8 2.2-10.3 0.5-0.5 1.2-1 1.9-1.4q0.1 0 0.2-0.1 0.1-0.1 0.3-0.1 0.8-0.4 1.6-0.6-0.4-1.3-0.4-2.8c-0.1-2.8 1.4-5.5 3.9-7 4.1-2.3 9.3-1.4 16.2 0.9q0.4 0.1 0.5 0.2c1.1 0.3 2.2 0.7 3.5 1.1q0.5 0.2 1 0.5c3.6 1.9 7 4.2 10 6.3 8.1 5.6 15.6 13.1 24.3 24.3 6.6 8.6 11 17.7 13.1 27.3 1.3 5.6 1.1 9.9 0.2 13.1 2.9 5.2 2.2 11.9 1.9 13.3 0 0.4-0.6 3.9-1.9 8.2q1.7 0 3.5 0.5 1.2 0.4 2.2 1.2c4.2 3.2 7.3 9.4 8.4 14.2 2.3 5.1 0.7 11.2-0.5 15.3q-0.2 0.8-0.4 1.4c-1.9 7.6-5.8 12.5-10.7 13.6-2.1 1.1-4.3 1.6-5.8 1.9q-0.4 0.1-0.7 0.1-0.3 0.1-0.6 0.2c3.8 0.1 8.2 1 11.2 4.8 1.7 2.2 2.2 4.5 2.1 6.5 1.6 1.2 3.2 2.7 4.3 4.5 2.8 3.9 4 8.5 4.9 12.2q0.3 1.2 0.7 2.4l0.2 0.7c1.5 5.3 4.7 16.2-2.4 21.9-2.4 1.9-6.2 2.6-9.6 0.4 0 2.6-0.3 5.1-1 7.5-0.9 4.2-2.2 8.9-5.3 13.1q-0.1 0.1-0.4 0.5c-0.8 1.1-2.1 3-3.6 4.6-5.5 5.7-10.5 3.9-12.4 2.9-1.8-1-4.4-3-5-7-1.3 3.7-3.9 6.9-6.4 9.7q-0.4 0.5-0.9 0.9c-2.2 1.7-4.4 2.8-6.7 3.3q-1.8 0.4-3.7 0.5-0.2 0-0.3 0-0.3 0-0.6 0c-2.6-0.2-5.2-1-7.5-2.4-5.3-3.3-8.4-7.7-8.8-12.6-0.5-6.7 3.5-10.4 5.9-12.5 0.1-1.6 0.3-3.2 0.5-4.6q0.2-1.1 0.3-2.2c0.1-0.9-1.2-1.9-5.4-4.2q-0.7-0.4-1.4-0.7-2.6-0.5-4.8-1.2-1.3 0.3-2.6 0.5c-5.1 0.9-10.2 1.4-15 1.9q-0.4 0-0.7 0-0.4 0.1-0.9 0.1h-0.1c-6.1 0.8-12.1 0.8-17.9 0.7q-1.3 0-2.7 0h-0.8c-3.6 0-7.4 0-11.1-0.3q-0.7-0.1-1.5-0.1c-1.1-0.1-2.3-0.2-3.6-0.3q-0.2 0-0.3 0-0.4 0-0.8-0.1-0.3 0-0.6 0c-4.9-0.5-10-1-15-1.9q-1.4-0.2-2.7-0.5-2.2 0.7-4.7 1.2-0.7 0.3-1.4 0.7c-4.3 2.3-5.6 3.3-5.5 4.2q0.1 1.1 0.3 2.2c0.2 1.4 0.4 3 0.5 4.6 2.4 2.1 6.5 5.8 5.9 12.5-0.4 4.9-3.5 9.3-8.8 12.6-2.3 1.4-4.8 2.2-7.5 2.4q-0.4 0-0.8 0-2-0.1-3.8-0.5c-2.3-0.5-4.5-1.6-6.6-3.3q-0.5-0.4-0.9-0.9c-2.6-2.8-5.2-6-6.5-9.7-0.6 4-3.1 6-4.9 7-1.9 1-6.9 2.8-12.4-2.9zm170.9-32.2c2.7 3.5 5 7.9 5.9 12.5q0.7-1.5 1.4-2.9c-0.1-0.3-0.2-0.6-0.3-0.7-1.6-3.9-3.4-8-5.1-11.9q-0.7-0.3-1.3-0.7c0 1.3-0.3 2.5-0.6 3.7zm-153.1-3c-1.8 3.9-3.5 8-5.2 11.9-0.1 0.1-0.1 0.4-0.2 0.7q0.7 1.4 1.4 2.9c0.9-4.6 3.1-9 5.8-12.5-0.3-1.2-0.6-2.4-0.6-3.7q-0.6 0.4-1.2 0.7zm159.7-65.3q0.9 0 1.9 0c1.1-0.1 2.7-0.1 3.5-0.3q0 0 0.1 0 0.4-0.8 1-1.5c0.7-0.8 1-1.4 1.3-1.9l0.1-0.3q0.2-0.6 0.3-1.2c0.5-1.9 0.5-2.2 0.4-2.7l-0.1-0.7q-0.3-1-0.5-2c-1.6 4.3-4.6 7.7-8 10.6zm-169.9-0.3c0.8 0.2 2.5 0.2 3.5 0.3q1 0 1.9 0c-3.4-2.9-6.4-6.3-8-10.6q-0.2 1-0.4 2l-0.2 0.7c-0.1 0.5-0.1 0.8 0.4 2.7q0.2 0.6 0.3 1.2 0 0 0 0 0.1 0.2 0.1 0.3c0.3 0.5 0.7 1.1 1.4 1.9q0.6 0.7 1 1.5 0 0 0 0z"/><path fill-rule="evenodd" class="g" d="m29.1 229.1c-1.5-1.6-2.9-3.5-3.7-4.6q-0.2-0.3-0.3-0.5c-3.1-4.1-4.4-8.9-5.4-13-0.7-2.5-0.9-5-0.9-7.5-3.5 2.2-7.3 1.4-9.6-0.4-7.2-5.7-4.1-16.3-2.4-21.9l0.2-0.8q0.3-1.1 0.6-2.4c1-3.7 2.2-8.3 5-12.1 1.1-1.9 2.6-3.4 4.3-4.5-0.2-2.1 0.4-4.3 2.1-6.5 3-3.9 7.4-4.8 11.1-4.8q-0.3-0.1-0.6-0.2-0.2-0.1-0.6-0.1c-1.5-0.4-3.7-0.8-5.9-2-4.8-1.1-8.8-5.9-10.6-13.5q-0.2-0.7-0.4-1.5c-1.2-4.1-2.9-10.1-0.5-15.2 1.1-4.9 4.1-11 8.3-14.2q1-0.8 2.3-1.2 1.7-0.6 3.5-0.6c-1.4-4.2-1.9-7.7-2-8.1-0.2-1.4-1-8.1 1.9-13.4-0.8-3.2-1-7.5 0.2-13.1 2.2-9.5 6.6-18.7 13.2-27.2 5.9-7.6 13.9-17.2 24.3-24.4 2.9-2 6.3-4.3 10-6.3q0.5-0.2 1-0.4c1.2-0.5 2.3-0.8 3.4-1.2q0.2 0 0.6-0.2c6.9-2.2 12.1-3.2 16.2-0.8 2.5 1.4 4 4.1 3.9 7q-0.1 1.5-0.4 2.8 0.8 0.2 1.6 0.5 0.2 0.1 0.4 0.2 1.1 0.6 2 1.5c1.5 1.4 3.8 4.7 2.2 10.2q-0.1 0.5-0.4 1c-1.5 3.3-4.1 6.1-6.7 8.6v0.1c-3.2 3-4.5 8.5-5.9 14.4-0.7 2.9-1.4 5.9-2.4 8.7-2.2 6.5-6 15.9-13.2 21.9q-0.5 0.4-1.1 0.9c-1.8 1.6-4 3.5-6.8 4.8q0.3 1.5 0.4 3.1 0.8 0.2 1.6 0.5c1.9 0.7 3.4 1.6 4.7 2.3l0.2 0.2q0.6 0.3 1 0.7 0.6 0 1.2 0.1 2 0.3 3.9 1.1c-1.2-2.3-1.8-4.8-1.7-7.3 0.1-8.5 7-15.3 15.5-15.3q0.1 0 0.2 0c4.2 0.1 8.1 1.8 10.9 4.7 1.4 1.4 2.4 3 3.2 4.7 1.1-0.3 2.4-0.3 3.5-0.1q0.5-0.4 0.9-0.8 2.1-1.5 4.7-2c1.3-0.2 4-0.3 6.6 1.7 2.6-2 5.3-1.9 6.6-1.7 1.7 0.3 3.3 1 4.6 2q0.6 0.4 1 0.8c1.8-0.3 3.7-0.1 5.4 0.9 0.7-2 1.9-3.9 3.4-5.5 2.9-2.9 6.8-4.6 10.9-4.7 8.6-0.1 15.6 6.7 15.8 15.3 0 2.3-0.4 4.5-1.3 6.5q0.6-0.2 1.3-0.3 0.6-0.1 1.2-0.1 0.5-0.4 1-0.7l0.3-0.2c1.2-0.7 2.7-1.6 4.6-2.3q0.8-0.3 1.6-0.5 0.1-1.6 0.5-3.1c-2.9-1.3-5-3.2-6.9-4.8q-0.5-0.5-1.1-0.9c-7.2-6-11-15.4-13.2-21.9-1-2.8-1.7-5.8-2.4-8.7-1.4-5.9-2.7-11.4-5.8-14.4l-0.1-0.1c-1.8-1.7-5-4.8-6.7-8.6q-0.2-0.5-0.4-1c-1.6-5.5 0.7-8.8 2.2-10.3 0.6-0.5 1.2-1 2-1.4q0 0 0.1 0 0.2-0.1 0.3-0.2 0.9-0.3 1.7-0.5-0.4-1.3-0.5-2.8c-0.1-2.9 1.4-5.6 3.9-7 4.2-2.4 9.3-1.4 16.3 0.8q0.3 0.2 0.5 0.2c1.1 0.4 2.2 0.7 3.4 1.2q0.5 0.2 1 0.4c3.7 2 7 4.2 10.1 6.3 8.1 5.6 15.5 13.2 24.2 24.4 6.6 8.5 11.1 17.7 13.2 27.2 1.3 5.6 1 9.9 0.2 13.1 2.9 5.3 2.1 12 1.9 13.4-0.1 0.4-0.6 3.9-2 8.1q1.8 0 3.6 0.6 1.2 0.4 2.2 1.2c4.2 3.2 7.2 9.3 8.3 14.2 2.4 5.1 0.7 11.1-0.4 15.2q-0.3 0.8-0.4 1.5c-1.9 7.6-5.8 12.4-10.7 13.5-2.1 1.2-4.4 1.6-5.9 2q-0.4 0-0.6 0.1-0.3 0.1-0.6 0.2c3.7 0 8.1 0.9 11.1 4.8 1.7 2.2 2.3 4.4 2.1 6.5 1.7 1.1 3.2 2.6 4.4 4.5 2.8 3.8 3.9 8.4 4.9 12.2q0.3 1.2 0.6 2.3l0.2 0.7c1.6 5.3 4.8 16.3-2.4 22-2.3 1.9-6.1 2.6-9.6 0.4 0.1 2.5-0.2 5-0.9 7.5-0.9 4.1-2.3 8.9-5.4 13q-0.1 0.2-0.3 0.5c-0.8 1.1-2.1 3-3.7 4.6-5.5 5.7-10.5 4-12.4 3-1.8-1-4.3-3.1-5-7.1-1.2 3.7-3.8 7-6.4 9.8q-0.4 0.4-0.9 0.8c-2.1 1.7-4.4 2.8-6.6 3.4q-1.8 0.4-3.8 0.5-0.1 0-0.2 0-0.3 0-0.6-0.1c-2.7-0.2-5.3-1-7.5-2.4-5.3-3.2-8.4-7.7-8.8-12.5-0.6-6.8 3.4-10.5 5.9-12.6 0.1-1.6 0.3-3.1 0.5-4.6q0.1-1.1 0.3-2.1c0.1-1-1.2-1.9-5.5-4.2q-0.7-0.4-1.4-0.8-2.6-0.5-4.7-1.2-1.3 0.3-2.7 0.5c-5 1-10.1 1.5-15 2q-0.3 0-0.6 0-0.5 0-1 0c-6.1 0.8-12.1 0.8-17.9 0.8q-1.4 0-2.7 0h-0.9c-3.6 0-7.3 0-11.1-0.4q-0.7 0-1.5-0.1c-1-0.1-2.3-0.1-3.5-0.3q-0.2 0-0.4 0-0.4 0-0.7 0-0.4 0-0.7 0c-4.9-0.5-9.9-1-15-2q-1.3-0.2-2.7-0.5-2.1 0.7-4.7 1.2-0.7 0.4-1.4 0.8c-4.3 2.3-5.5 3.2-5.4 4.2q0.1 1 0.2 2.1c0.2 1.5 0.5 3 0.6 4.6 2.4 2.1 6.4 5.8 5.8 12.6-0.3 4.8-3.5 9.3-8.7 12.5-2.3 1.4-4.9 2.2-7.6 2.4q-0.4 0.1-0.8 0.1-1.9-0.1-3.8-0.5c-2.2-0.6-4.5-1.7-6.6-3.4q-0.5-0.4-0.9-0.8c-2.5-2.8-5.1-6.1-6.4-9.8-0.6 4-3.2 6.1-5 7.1-1.9 1-6.9 2.7-12.4-3zm170.9-32.2c2.7 3.6 5 8 5.9 12.5q0.7-1.4 1.4-2.8c-0.1-0.3-0.2-0.6-0.2-0.7-1.7-4-3.5-8-5.2-11.9q-0.6-0.4-1.2-0.8c-0.1 1.3-0.3 2.6-0.7 3.7zm-153.1-2.9c-1.7 3.9-3.5 7.9-5.2 11.9 0 0.1-0.1 0.4-0.2 0.7q0.7 1.4 1.4 2.8c0.9-4.5 3.2-8.9 5.9-12.5-0.4-1.1-0.6-2.4-0.6-3.7q-0.6 0.4-1.3 0.8zm159.7-65.3q1-0.1 2-0.1c1 0 2.6-0.1 3.5-0.2q0-0.1 0-0.1 0.4-0.8 1-1.5c0.7-0.8 1.1-1.3 1.3-1.9l0.2-0.3q0.1-0.5 0.3-1.1c0.5-1.9 0.5-2.2 0.4-2.7l-0.2-0.7q-0.2-1-0.5-2.1c-1.6 4.3-4.6 7.8-8 10.7zm-169.9-0.3c0.9 0.1 2.5 0.2 3.6 0.2q1 0 1.9 0.1c-3.4-2.9-6.4-6.4-8-10.7q-0.2 1.1-0.5 2l-0.2 0.8c-0.1 0.5 0 0.8 0.5 2.7q0.1 0.6 0.3 1.1 0 0.1 0 0.1 0 0.1 0.1 0.2c0.2 0.6 0.6 1.1 1.3 1.9q0.6 0.7 1 1.5 0 0 0 0.1z"/><path fill-rule="evenodd" class="h" d="m28.3 228.3c-1.6-1.6-2.9-3.5-3.7-4.6q-0.2-0.4-0.4-0.5c-3-4.2-4.4-8.9-5.3-13.1-0.7-2.4-1-5-1-7.5-3.4 2.2-7.2 1.5-9.5-0.4-7.2-5.7-4.1-16.2-2.5-21.9l0.3-0.7q0.3-1.2 0.6-2.4c0.9-3.7 2.1-8.3 4.9-12.2 1.1-1.8 2.7-3.3 4.3-4.5-0.1-2 0.5-4.3 2.1-6.4 3.1-3.9 7.4-4.8 11.2-4.9q-0.3-0.1-0.6-0.2-0.3 0-0.6-0.1c-1.6-0.3-3.8-0.8-5.9-1.9-4.9-1.1-8.8-6-10.7-13.6q-0.1-0.6-0.4-1.4c-1.1-4.1-2.8-10.2-0.4-15.3 1.1-4.9 4.1-11 8.3-14.2q1-0.8 2.2-1.2 1.8-0.6 3.6-0.5c-1.4-4.3-2-7.8-2-8.2-0.2-1.4-1-8.1 1.9-13.3-0.9-3.2-1.1-7.5 0.2-13.2 2.1-9.5 6.5-18.6 13.2-27.2 5.8-7.5 13.8-17.1 24.2-24.3 2.9-2 6.4-4.4 10.1-6.3q0.5-0.3 1-0.5c1.2-0.4 2.3-0.8 3.4-1.1q0.2-0.1 0.5-0.2c7-2.3 12.1-3.2 16.3-0.9 2.5 1.5 3.9 4.2 3.8 7q0 1.5-0.4 2.8 0.9 0.2 1.7 0.6 0.2 0.1 0.3 0.2 1.2 0.5 2.1 1.4c1.5 1.5 3.8 4.7 2.2 10.3q-0.2 0.5-0.4 1c-1.5 3.3-4.1 6-6.7 8.5l-0.1 0.1c-3.1 3-4.4 8.6-5.8 14.4-0.7 2.9-1.5 5.9-2.4 8.8-2.3 6.5-6.1 15.8-13.2 21.8q-0.6 0.5-1.1 0.9c-1.9 1.7-4.1 3.5-6.9 4.9q0.4 1.4 0.4 3.1 0.8 0.2 1.7 0.5c1.9 0.6 3.4 1.5 4.6 2.3l0.3 0.1q0.5 0.4 1 0.7 0.5 0.1 1.1 0.1 2 0.4 3.9 1.1c-1.1-2.2-1.7-4.7-1.7-7.3 0.2-8.4 7.1-15.2 15.5-15.2q0.2 0 0.3 0c4.1 0 8 1.7 10.9 4.7 1.3 1.4 2.4 3 3.1 4.7 1.2-0.3 2.4-0.4 3.6-0.1q0.4-0.5 0.9-0.8 2.1-1.6 4.7-2c1.3-0.3 4-0.4 6.6 1.7 2.5-2.1 5.2-2 6.6-1.7 1.7 0.3 3.2 0.9 4.6 2q0.5 0.3 0.9 0.8c1.8-0.4 3.8-0.1 5.4 0.8 0.8-2 1.9-3.8 3.5-5.4 2.9-3 6.7-4.7 10.9-4.7 8.6-0.2 15.6 6.7 15.7 15.2 0.1 2.3-0.4 4.5-1.3 6.5q0.7-0.1 1.4-0.3 0.6 0 1.2-0.1 0.4-0.3 0.9-0.7l0.3-0.1c1.2-0.8 2.8-1.7 4.6-2.3q0.9-0.3 1.7-0.5 0-1.7 0.4-3.1c-2.8-1.4-5-3.2-6.9-4.9q-0.5-0.4-1.1-0.9c-7.1-6-10.9-15.3-13.1-21.8-1-2.9-1.7-5.9-2.4-8.8-1.4-5.8-2.8-11.4-5.9-14.4l-0.1-0.1c-1.7-1.6-4.9-4.8-6.7-8.5q-0.2-0.5-0.3-1c-1.7-5.6 0.6-8.8 2.2-10.3 0.5-0.5 1.2-1 1.9-1.4q0.1 0 0.2-0.1 0.1-0.1 0.3-0.1 0.8-0.4 1.6-0.6-0.4-1.3-0.4-2.8c-0.1-2.8 1.4-5.5 3.9-7 4.1-2.3 9.3-1.4 16.2 0.9q0.3 0.1 0.5 0.2c1.1 0.3 2.2 0.7 3.4 1.1q0.6 0.2 1 0.5c3.7 1.9 7.1 4.2 10.1 6.3 8.1 5.6 15.6 13.1 24.3 24.3 6.6 8.6 11 17.7 13.1 27.2 1.3 5.7 1.1 10 0.2 13.2 2.9 5.2 2.1 11.9 1.9 13.3 0 0.4-0.6 3.9-1.9 8.2q1.7 0 3.5 0.5 1.2 0.4 2.2 1.2c4.2 3.2 7.3 9.4 8.3 14.2 2.4 5.1 0.8 11.2-0.4 15.2q-0.2 0.9-0.4 1.5c-1.9 7.6-5.8 12.5-10.7 13.6-2.1 1.1-4.3 1.6-5.8 1.9q-0.4 0.1-0.7 0.1-0.3 0.1-0.6 0.2c3.8 0.1 8.2 1 11.2 4.8 1.7 2.2 2.2 4.5 2.1 6.5 1.6 1.2 3.2 2.7 4.3 4.5 2.8 3.9 4 8.5 4.9 12.2q0.3 1.2 0.7 2.3l0.2 0.8c1.5 5.3 4.7 16.2-2.4 21.9-2.4 1.9-6.2 2.6-9.6 0.4 0 2.6-0.3 5.1-1 7.5-0.9 4.2-2.2 8.9-5.3 13.1q-0.1 0.1-0.4 0.5c-0.8 1.1-2.1 3-3.6 4.6-5.5 5.7-10.5 3.9-12.4 2.9-1.8-1-4.4-3-5-7-1.3 3.7-3.9 6.9-6.4 9.7q-0.4 0.5-0.9 0.8c-2.2 1.7-4.4 2.9-6.7 3.4q-1.8 0.4-3.7 0.5-0.2 0-0.3 0-0.3 0-0.6 0c-2.6-0.2-5.2-1-7.5-2.4-5.3-3.3-8.4-7.7-8.8-12.6-0.5-6.7 3.5-10.4 5.9-12.5 0.1-1.6 0.3-3.2 0.5-4.6q0.2-1.1 0.3-2.2c0.1-0.9-1.2-1.9-5.4-4.2q-0.7-0.4-1.4-0.7-2.6-0.5-4.8-1.2-1.3 0.2-2.6 0.5c-5.1 0.9-10.2 1.4-15 1.9q-0.4 0-0.7 0-0.4 0.1-0.9 0h-0.1c-6.1 0.9-12.1 0.9-17.9 0.8q-1.3 0-2.7 0h-0.8c-3.6 0-7.4 0-11.1-0.3q-0.7-0.1-1.5-0.1c-1.1-0.1-2.3-0.2-3.6-0.4q-0.2 0-0.3 0-0.4 0-0.8 0-0.3 0-0.6 0c-4.9-0.5-10-1-15-1.9q-1.4-0.3-2.7-0.5-2.2 0.7-4.7 1.2-0.7 0.3-1.4 0.7c-4.3 2.3-5.6 3.3-5.5 4.2q0.1 1.1 0.3 2.2c0.2 1.4 0.4 3 0.5 4.6 2.4 2.1 6.5 5.8 5.9 12.5-0.4 4.9-3.5 9.3-8.8 12.6-2.3 1.4-4.8 2.2-7.5 2.4q-0.4 0-0.8 0-2-0.1-3.8-0.5c-2.3-0.5-4.5-1.7-6.6-3.4q-0.5-0.3-0.9-0.8c-2.6-2.8-5.2-6-6.5-9.7-0.6 4-3.1 6-4.9 7-1.9 1-6.9 2.8-12.4-2.9zm170.9-32.2c2.7 3.5 5 7.9 5.9 12.5q0.7-1.5 1.4-2.9c-0.1-0.3-0.2-0.6-0.3-0.7-1.6-3.9-3.4-8-5.1-11.9q-0.7-0.3-1.3-0.7c0 1.3-0.3 2.5-0.6 3.7zm-153.1-3c-1.8 3.9-3.5 7.9-5.2 11.9-0.1 0.1-0.1 0.4-0.2 0.7q0.7 1.4 1.4 2.9c0.9-4.6 3.1-9 5.8-12.5-0.3-1.2-0.6-2.4-0.6-3.7q-0.6 0.4-1.2 0.7zm159.7-65.3q0.9 0 1.9 0c1.1-0.1 2.7-0.1 3.5-0.3q0 0 0.1 0 0.4-0.8 1-1.5c0.7-0.8 1-1.4 1.3-1.9l0.1-0.3q0.2-0.6 0.3-1.2c0.5-1.9 0.5-2.2 0.4-2.7l-0.1-0.7q-0.3-1-0.5-2c-1.6 4.2-4.6 7.7-8 10.6zm-169.9-0.3c0.8 0.2 2.5 0.2 3.5 0.3q1 0 1.9 0c-3.4-2.9-6.4-6.4-8-10.6q-0.2 1-0.4 2l-0.2 0.7c-0.1 0.5-0.1 0.8 0.4 2.7q0.2 0.6 0.3 1.2 0 0 0 0 0.1 0.1 0.1 0.3c0.3 0.5 0.7 1.1 1.4 1.9q0.6 0.7 1 1.5 0 0 0 0z"/><path fill-rule="evenodd" class="i" d="m27.4 227.4c-1.6-1.6-2.9-3.5-3.7-4.6q-0.2-0.3-0.3-0.5c-3.1-4.1-4.5-8.9-5.4-13-0.7-2.5-0.9-5-0.9-7.5-3.5 2.2-7.3 1.4-9.6-0.4-7.2-5.7-4.1-16.3-2.4-21.9l0.2-0.8q0.3-1.1 0.6-2.4c1-3.7 2.2-8.3 5-12.1 1.1-1.9 2.6-3.4 4.3-4.5-0.2-2.1 0.4-4.3 2.1-6.5 3-3.9 7.4-4.8 11.1-4.8q-0.3-0.1-0.6-0.2-0.2-0.1-0.6-0.2c-1.5-0.3-3.7-0.8-5.9-1.9-4.8-1.1-8.8-5.9-10.6-13.5q-0.2-0.7-0.4-1.5c-1.2-4.1-2.9-10.1-0.5-15.2 1.1-4.9 4.1-11 8.3-14.2q1-0.8 2.3-1.2 1.7-0.6 3.5-0.6c-1.4-4.2-1.9-7.7-2-8.1-0.2-1.4-1-8.1 1.9-13.4-0.8-3.2-1-7.5 0.2-13.1 2.2-9.5 6.6-18.7 13.2-27.2 5.9-7.6 13.9-17.2 24.3-24.4 2.9-2 6.3-4.3 10-6.3q0.5-0.2 1-0.4c1.2-0.5 2.3-0.8 3.4-1.2q0.2 0 0.6-0.2c6.9-2.2 12.1-3.2 16.2-0.8 2.5 1.4 4 4.1 3.9 7q-0.1 1.5-0.4 2.8 0.8 0.2 1.6 0.5 0.2 0.1 0.4 0.2 1.1 0.6 2 1.5c1.5 1.4 3.8 4.7 2.2 10.2q-0.1 0.5-0.4 1c-1.5 3.3-4.1 6.1-6.7 8.6v0.1c-3.2 3-4.5 8.5-5.9 14.4-0.7 2.9-1.4 5.9-2.4 8.7-2.2 6.5-6 15.9-13.2 21.9q-0.5 0.4-1.1 0.9c-1.8 1.6-4 3.5-6.8 4.8q0.3 1.4 0.4 3.1 0.8 0.2 1.6 0.5c1.9 0.7 3.4 1.6 4.6 2.3l0.3 0.2q0.6 0.3 1 0.7 0.6 0 1.2 0.1 2 0.3 3.9 1.1c-1.2-2.3-1.8-4.8-1.7-7.3 0.1-8.5 7-15.3 15.5-15.3q0.1 0 0.2 0c4.2 0.1 8 1.8 10.9 4.7 1.4 1.4 2.4 3 3.2 4.7 1.1-0.3 2.4-0.3 3.5-0.1q0.5-0.4 0.9-0.8 2.1-1.5 4.7-2c1.3-0.2 4-0.3 6.6 1.7 2.6-2 5.3-1.9 6.6-1.7 1.7 0.3 3.3 1 4.6 2q0.6 0.4 1 0.8c1.8-0.3 3.7-0.1 5.4 0.9 0.7-2 1.9-3.9 3.4-5.5 2.9-2.9 6.8-4.6 10.9-4.7 8.6-0.1 15.6 6.7 15.8 15.3 0 2.3-0.4 4.5-1.3 6.5q0.6-0.2 1.3-0.3 0.6-0.1 1.2-0.1 0.5-0.4 1-0.7l0.3-0.2c1.2-0.7 2.7-1.6 4.6-2.3q0.8-0.3 1.6-0.5 0.1-1.7 0.5-3.1c-2.9-1.3-5-3.2-6.9-4.8q-0.6-0.5-1.1-0.9c-7.2-6-11-15.4-13.2-21.9-1-2.8-1.7-5.8-2.4-8.7-1.4-5.9-2.7-11.4-5.8-14.4l-0.1-0.1c-1.8-1.7-5-4.8-6.7-8.6q-0.2-0.5-0.4-1c-1.6-5.5 0.7-8.8 2.2-10.3 0.6-0.5 1.2-1 2-1.4q0 0 0.1 0 0.2-0.1 0.3-0.2 0.8-0.4 1.7-0.5-0.4-1.3-0.5-2.8c-0.1-2.9 1.4-5.6 3.9-7 4.2-2.4 9.3-1.4 16.3 0.8q0.3 0.2 0.5 0.2c1.1 0.3 2.2 0.7 3.4 1.2q0.5 0.2 1 0.4c3.7 2 7 4.2 10.1 6.3 8.1 5.6 15.5 13.2 24.2 24.4 6.6 8.5 11.1 17.7 13.2 27.2 1.3 5.6 1 9.9 0.2 13.1 2.9 5.3 2.1 12 1.9 13.4-0.1 0.4-0.6 3.9-2 8.1q1.8 0 3.6 0.6 1.2 0.4 2.2 1.2c4.2 3.2 7.2 9.3 8.3 14.2 2.4 5.1 0.7 11.1-0.4 15.2q-0.3 0.8-0.5 1.5c-1.8 7.6-5.7 12.4-10.6 13.5-2.1 1.1-4.4 1.6-5.9 1.9q-0.4 0.1-0.6 0.2-0.3 0.1-0.6 0.2c3.7 0 8.1 0.9 11.1 4.8 1.7 2.2 2.3 4.4 2.1 6.5 1.7 1.1 3.2 2.6 4.4 4.5 2.8 3.8 3.9 8.4 4.9 12.1q0.3 1.3 0.6 2.4l0.2 0.7c1.6 5.3 4.8 16.3-2.4 22-2.3 1.8-6.1 2.6-9.6 0.4 0.1 2.5-0.2 5-0.9 7.5-0.9 4.1-2.3 8.9-5.4 13q-0.1 0.2-0.3 0.5c-0.8 1.1-2.1 3-3.7 4.6-5.5 5.7-10.5 4-12.4 3-1.8-1-4.3-3.1-5-7.1-1.2 3.7-3.8 7-6.4 9.8q-0.4 0.4-0.9 0.8c-2.1 1.7-4.4 2.8-6.6 3.4q-1.8 0.4-3.8 0.5-0.1 0-0.2 0-0.3 0-0.6-0.1c-2.7-0.2-5.3-1-7.5-2.4-5.3-3.2-8.4-7.7-8.8-12.5-0.6-6.8 3.4-10.5 5.9-12.6 0.1-1.6 0.3-3.1 0.5-4.6q0.1-1.1 0.3-2.1c0.1-1-1.2-1.9-5.5-4.2q-0.7-0.4-1.4-0.8-2.6-0.5-4.7-1.2-1.3 0.3-2.7 0.5c-5.1 1-10.1 1.5-15 2q-0.3 0-0.6 0-0.5 0-1 0c-6.1 0.8-12.1 0.8-17.9 0.8q-1.4 0-2.7 0h-0.9c-3.6 0-7.3 0-11.1-0.4q-0.7 0-1.5-0.1c-1.1-0.1-2.3-0.1-3.5-0.3q-0.2 0-0.4 0-0.4 0-0.7 0-0.4 0-0.7 0c-4.9-0.5-9.9-1-15-2q-1.3-0.2-2.7-0.5-2.1 0.7-4.7 1.2-0.7 0.4-1.4 0.8c-4.3 2.3-5.5 3.2-5.4 4.2q0.1 1 0.2 2.1c0.2 1.5 0.5 3 0.6 4.6 2.4 2.1 6.4 5.8 5.8 12.6-0.3 4.8-3.5 9.3-8.7 12.5-2.3 1.4-4.9 2.2-7.6 2.4q-0.4 0.1-0.8 0.1-1.9-0.1-3.8-0.5c-2.2-0.6-4.5-1.7-6.6-3.4q-0.5-0.4-0.9-0.8c-2.5-2.8-5.1-6.1-6.4-9.8-0.6 4-3.2 6.1-5 7.1-1.9 1-6.9 2.7-12.4-3zm170.9-32.2c2.7 3.6 5 8 5.9 12.5q0.7-1.4 1.4-2.8c-0.1-0.3-0.2-0.6-0.2-0.7-1.7-4-3.5-8-5.2-11.9q-0.6-0.4-1.2-0.8c-0.1 1.3-0.3 2.6-0.7 3.7zm-153.1-2.9c-1.7 3.9-3.5 7.9-5.2 11.9 0 0.1-0.1 0.4-0.2 0.7q0.7 1.4 1.4 2.8c0.9-4.5 3.2-8.9 5.9-12.5-0.4-1.1-0.6-2.4-0.6-3.7q-0.6 0.4-1.3 0.8zm159.7-65.3q1-0.1 2-0.1c1 0 2.6-0.1 3.5-0.2q0-0.1 0-0.1 0.4-0.8 1-1.5c0.7-0.8 1.1-1.3 1.3-1.9l0.2-0.3q0.1-0.6 0.3-1.1c0.5-1.9 0.5-2.2 0.4-2.7l-0.2-0.7q-0.2-1-0.5-2.1c-1.6 4.3-4.6 7.8-8 10.7zm-169.9-0.3c0.9 0.1 2.5 0.2 3.6 0.2q0.9 0 1.9 0.1c-3.4-2.9-6.4-6.4-8-10.7q-0.2 1.1-0.5 2l-0.2 0.8c-0.1 0.5-0.1 0.8 0.5 2.7q0.1 0.6 0.3 1.1 0 0.1 0 0.1 0 0.1 0.1 0.2c0.2 0.6 0.6 1.1 1.3 1.9q0.6 0.7 1 1.5 0 0 0 0.1z"/><path fill-rule="evenodd" class="j" d="m26.6 226.6c-1.6-1.6-2.9-3.5-3.7-4.6q-0.2-0.4-0.4-0.5c-3-4.2-4.4-8.9-5.3-13.1-0.7-2.4-1-5-1-7.5-3.4 2.2-7.2 1.5-9.5-0.4-7.2-5.7-4.1-16.2-2.5-21.9l0.3-0.8q0.3-1.1 0.6-2.3c0.9-3.7 2.1-8.3 4.9-12.2 1.1-1.9 2.7-3.3 4.3-4.5-0.1-2 0.5-4.3 2.1-6.4 3.1-3.9 7.4-4.8 11.2-4.9q-0.3-0.1-0.6-0.2-0.3 0-0.6-0.1c-1.6-0.3-3.8-0.8-5.9-1.9-4.9-1.1-8.8-6-10.7-13.6q-0.1-0.6-0.4-1.4c-1.1-4.1-2.8-10.2-0.4-15.3 1-4.9 4.1-11 8.3-14.2q1-0.8 2.2-1.2 1.8-0.6 3.6-0.5c-1.4-4.3-2-7.8-2-8.2-0.2-1.4-1-8.1 1.9-13.3-0.9-3.2-1.1-7.5 0.2-13.2 2.1-9.5 6.5-18.6 13.2-27.2 5.8-7.5 13.8-17.1 24.2-24.3 2.9-2 6.4-4.4 10.1-6.3q0.5-0.3 1-0.5c1.2-0.4 2.3-0.8 3.4-1.1q0.2-0.1 0.5-0.2c7-2.3 12.1-3.2 16.3-0.9 2.5 1.5 3.9 4.2 3.8 7q0 1.5-0.4 2.8 0.9 0.2 1.7 0.6 0.2 0.1 0.3 0.2 1.2 0.5 2.1 1.4c1.5 1.5 3.8 4.7 2.2 10.2q-0.2 0.6-0.4 1.1c-1.5 3.3-4.1 6-6.7 8.5l-0.1 0.1c-3.1 3-4.4 8.6-5.8 14.4-0.7 2.9-1.5 5.9-2.4 8.8-2.3 6.5-6.1 15.8-13.2 21.8q-0.6 0.5-1.1 0.9c-1.9 1.7-4.1 3.5-6.9 4.9q0.4 1.4 0.4 3.1 0.8 0.2 1.7 0.5c1.8 0.6 3.4 1.5 4.6 2.3l0.3 0.1q0.5 0.4 1 0.7 0.5 0 1.1 0.1 2 0.4 3.9 1.1c-1.1-2.2-1.7-4.7-1.7-7.3 0.2-8.4 7.1-15.2 15.5-15.2q0.2 0 0.3 0c4.1 0 8 1.7 10.9 4.7 1.3 1.4 2.4 3 3.1 4.7 1.2-0.3 2.4-0.4 3.6-0.1q0.4-0.5 0.9-0.8 2.1-1.6 4.7-2c1.3-0.3 4-0.4 6.6 1.7 2.5-2.1 5.2-2 6.6-1.7 1.7 0.3 3.2 0.9 4.6 2q0.5 0.3 0.9 0.8c1.8-0.4 3.8-0.1 5.4 0.8 0.8-2 1.9-3.8 3.5-5.4 2.8-3 6.7-4.7 10.9-4.7 8.5-0.2 15.6 6.7 15.7 15.2 0.1 2.3-0.4 4.5-1.3 6.5q0.7-0.1 1.4-0.3 0.6-0.1 1.2-0.1 0.4-0.3 0.9-0.7l0.3-0.1c1.2-0.8 2.8-1.7 4.6-2.3q0.9-0.3 1.7-0.5 0-1.7 0.4-3.1c-2.8-1.4-5-3.2-6.9-4.9q-0.5-0.4-1.1-0.9c-7.1-6-10.9-15.3-13.1-21.8-1-2.9-1.7-5.9-2.4-8.8-1.4-5.8-2.8-11.4-5.9-14.4l-0.1-0.1c-1.7-1.7-4.9-4.8-6.7-8.5q-0.2-0.5-0.3-1.1c-1.7-5.5 0.6-8.7 2.2-10.2 0.5-0.5 1.2-1 1.9-1.4q0.1 0 0.1-0.1 0.2-0.1 0.4-0.1 0.8-0.4 1.6-0.6-0.4-1.3-0.4-2.8c-0.1-2.8 1.4-5.5 3.9-7 4.1-2.3 9.3-1.4 16.2 0.9q0.3 0.1 0.5 0.2c1.1 0.3 2.2 0.7 3.4 1.1q0.6 0.2 1 0.5c3.7 1.9 7.1 4.1 10.1 6.3 8.1 5.6 15.6 13.1 24.3 24.3 6.6 8.6 11 17.7 13.1 27.2 1.3 5.7 1.1 10 0.2 13.2 2.9 5.2 2.1 11.9 1.9 13.3 0 0.4-0.6 3.9-1.9 8.2q1.7-0.1 3.5 0.5 1.2 0.4 2.2 1.2c4.2 3.2 7.3 9.3 8.3 14.2 2.4 5.1 0.8 11.2-0.4 15.2q-0.2 0.9-0.4 1.5c-1.9 7.6-5.8 12.5-10.7 13.6-2.1 1.1-4.3 1.6-5.8 1.9q-0.4 0.1-0.7 0.1-0.3 0.1-0.6 0.2c3.8 0.1 8.2 1 11.2 4.8 1.7 2.2 2.2 4.5 2.1 6.5 1.6 1.2 3.2 2.6 4.3 4.5 2.8 3.9 4 8.5 4.9 12.2q0.3 1.2 0.7 2.3l0.2 0.8c1.5 5.3 4.7 16.2-2.4 21.9-2.4 1.9-6.2 2.6-9.6 0.4 0 2.5-0.3 5.1-1 7.5-0.9 4.2-2.2 8.9-5.3 13q-0.1 0.2-0.4 0.6c-0.8 1.1-2.1 3-3.6 4.6-5.5 5.7-10.5 3.9-12.4 2.9-1.8-1-4.4-3-5-7-1.3 3.7-3.9 6.9-6.4 9.7q-0.4 0.5-0.9 0.8c-2.2 1.7-4.4 2.9-6.7 3.4q-1.8 0.4-3.7 0.5-0.2 0-0.3 0-0.3 0-0.6 0c-2.6-0.2-5.2-1-7.5-2.4-5.3-3.3-8.4-7.7-8.8-12.6-0.5-6.7 3.5-10.4 5.9-12.5 0.1-1.6 0.3-3.2 0.5-4.6q0.2-1.1 0.3-2.2c0.1-0.9-1.2-1.9-5.4-4.2q-0.7-0.4-1.4-0.7-2.6-0.5-4.8-1.2-1.3 0.2-2.6 0.5c-5.1 0.9-10.2 1.4-15 1.9q-0.4 0-0.7 0-0.4 0-0.9 0h-0.1c-6.1 0.9-12.1 0.9-17.9 0.8q-1.3 0-2.7 0h-0.8c-3.6 0-7.4 0-11.1-0.3q-0.7-0.1-1.5-0.1c-1.1-0.1-2.3-0.2-3.6-0.4q-0.2 0-0.3 0-0.4 0-0.8 0-0.3 0-0.6 0c-4.9-0.5-10-1-15-1.9q-1.4-0.3-2.7-0.5-2.2 0.7-4.8 1.2-0.6 0.3-1.3 0.7c-4.3 2.3-5.6 3.3-5.5 4.2q0.1 1.1 0.3 2.2c0.2 1.4 0.4 3 0.5 4.6 2.4 2 6.4 5.8 5.9 12.5-0.4 4.9-3.5 9.3-8.8 12.6-2.3 1.4-4.9 2.2-7.5 2.4q-0.4 0-0.8 0-2-0.1-3.8-0.5c-2.3-0.5-4.5-1.7-6.7-3.4q-0.4-0.3-0.8-0.8c-2.6-2.8-5.2-6-6.5-9.7-0.6 4-3.1 6-4.9 7-1.9 1-7 2.8-12.4-2.9zm170.9-32.2c2.7 3.5 5 7.9 5.9 12.5q0.6-1.5 1.4-2.9c-0.1-0.3-0.2-0.6-0.3-0.7-1.6-4-3.4-8-5.1-11.9q-0.7-0.3-1.3-0.7c0 1.3-0.3 2.5-0.6 3.7zm-153.1-3c-1.8 3.9-3.5 7.9-5.2 11.9-0.1 0.1-0.1 0.4-0.2 0.7q0.7 1.4 1.4 2.9c0.9-4.6 3.1-9 5.8-12.6-0.3-1.1-0.6-2.3-0.6-3.6q-0.6 0.4-1.2 0.7zm159.7-65.3q0.9 0 1.9 0c1-0.1 2.7-0.1 3.5-0.3q0 0 0 0 0.5-0.8 1.1-1.5c0.7-0.8 1-1.4 1.3-1.9l0.1-0.3q0.2-0.6 0.3-1.2c0.5-1.9 0.5-2.2 0.4-2.7l-0.1-0.7q-0.3-1-0.5-2c-1.6 4.2-4.6 7.7-8 10.6zm-169.9-0.3c0.8 0.2 2.5 0.2 3.5 0.3q1 0 1.9 0c-3.4-2.9-6.4-6.4-8-10.6q-0.2 1-0.4 2l-0.2 0.7c-0.1 0.5-0.1 0.8 0.4 2.7q0.2 0.6 0.3 1.2 0 0 0 0 0.1 0.1 0.1 0.3c0.3 0.5 0.7 1.1 1.4 1.9q0.6 0.7 1 1.5 0 0 0 0z"/><path fill-rule="evenodd" class="k" d="m25.7 225.7c-1.6-1.6-2.9-3.5-3.7-4.6q-0.2-0.3-0.3-0.5c-3.1-4.1-4.5-8.9-5.4-13.1-0.7-2.4-0.9-4.9-0.9-7.4-3.5 2.2-7.3 1.4-9.6-0.4-7.2-5.7-4.1-16.3-2.4-21.9l0.2-0.8q0.3-1.1 0.6-2.4c1-3.7 2.2-8.3 5-12.1 1.1-1.9 2.6-3.4 4.3-4.5-0.2-2.1 0.4-4.3 2.1-6.5 3-3.9 7.4-4.8 11.1-4.8q-0.3-0.1-0.6-0.2-0.2-0.1-0.6-0.2c-1.5-0.3-3.7-0.8-5.9-1.9-4.8-1.1-8.8-5.9-10.6-13.5q-0.2-0.7-0.4-1.5c-1.2-4.1-2.9-10.1-0.5-15.2 1.1-4.9 4.1-11 8.3-14.2q1-0.8 2.3-1.2 1.7-0.6 3.5-0.6c-1.4-4.2-1.9-7.8-2-8.1-0.2-1.4-1-8.1 1.9-13.4-0.8-3.2-1-7.5 0.2-13.1 2.2-9.5 6.6-18.7 13.2-27.2 5.8-7.6 13.9-17.2 24.3-24.4 2.8-2 6.3-4.3 10-6.3q0.5-0.3 1-0.4c1.2-0.5 2.3-0.9 3.4-1.2q0.2 0 0.6-0.2c6.9-2.3 12.1-3.2 16.2-0.8 2.5 1.4 4 4.1 3.9 7q-0.1 1.5-0.4 2.8 0.8 0.2 1.6 0.5 0.2 0.1 0.4 0.2 1.1 0.6 2 1.5c1.5 1.4 3.8 4.7 2.2 10.2q-0.1 0.5-0.4 1c-1.5 3.3-4.1 6.1-6.7 8.6v0.1c-3.2 3-4.5 8.5-5.9 14.4-0.7 2.9-1.4 5.9-2.4 8.7-2.2 6.5-6 15.9-13.2 21.9q-0.5 0.4-1.1 0.9c-1.8 1.6-4 3.5-6.9 4.8q0.4 1.4 0.5 3.1 0.8 0.2 1.6 0.5c1.9 0.7 3.4 1.6 4.6 2.3l0.3 0.2q0.6 0.3 1 0.7 0.6 0 1.2 0.1 2 0.3 3.8 1.1c-1.1-2.3-1.7-4.8-1.6-7.3 0.1-8.5 7-15.3 15.5-15.3q0.1 0 0.2 0c4.2 0.1 8 1.8 10.9 4.7 1.4 1.4 2.4 3 3.2 4.7 1.1-0.3 2.4-0.3 3.5-0.1q0.5-0.4 0.9-0.8 2.1-1.5 4.7-2c1.3-0.2 4-0.3 6.6 1.7 2.6-2 5.3-1.9 6.6-1.7 1.7 0.3 3.3 1 4.6 2q0.5 0.4 1 0.8c1.8-0.3 3.7-0.1 5.4 0.9 0.7-2 1.9-3.9 3.4-5.5 2.9-2.9 6.8-4.6 10.9-4.7 8.6-0.1 15.6 6.7 15.8 15.3 0 2.2-0.4 4.5-1.3 6.5q0.6-0.2 1.3-0.3 0.6-0.1 1.2-0.1 0.5-0.4 1-0.7l0.3-0.2c1.2-0.7 2.7-1.6 4.6-2.3q0.8-0.3 1.6-0.5 0.1-1.7 0.5-3.1c-2.9-1.3-5-3.2-6.9-4.8q-0.6-0.5-1.1-0.9c-7.2-6-11-15.4-13.2-21.9-1-2.8-1.7-5.8-2.4-8.7-1.4-5.9-2.7-11.4-5.8-14.4l-0.1-0.1c-1.8-1.7-5-4.8-6.7-8.6q-0.2-0.5-0.4-1c-1.6-5.5 0.7-8.8 2.2-10.3 0.6-0.5 1.2-1 2-1.4q0 0 0.1 0 0.2-0.1 0.3-0.2 0.8-0.4 1.7-0.5-0.4-1.3-0.5-2.8c-0.1-2.9 1.4-5.6 3.9-7 4.2-2.4 9.3-1.5 16.3 0.8q0.3 0.2 0.5 0.2c1.1 0.3 2.2 0.7 3.4 1.2q0.5 0.1 1 0.4c3.7 2 7 4.2 10.1 6.3 8.1 5.6 15.5 13.1 24.2 24.4 6.6 8.5 11.1 17.7 13.2 27.2 1.3 5.6 1 9.9 0.2 13.1 2.9 5.3 2.1 12 1.9 13.4-0.1 0.3-0.6 3.9-2 8.1q1.8 0 3.6 0.6 1.2 0.4 2.2 1.2c4.2 3.2 7.2 9.3 8.3 14.2 2.4 5.1 0.7 11.1-0.4 15.2q-0.3 0.8-0.5 1.5c-1.8 7.6-5.7 12.4-10.6 13.5-2.1 1.1-4.4 1.6-5.9 1.9q-0.4 0.1-0.6 0.2-0.3 0.1-0.6 0.2c3.7 0 8.1 0.9 11.1 4.8 1.7 2.2 2.3 4.4 2.1 6.5 1.7 1.1 3.2 2.6 4.3 4.5 2.9 3.8 4 8.4 5 12.1q0.3 1.3 0.6 2.4l0.2 0.7c1.6 5.3 4.8 16.3-2.4 22-2.3 1.8-6.1 2.6-9.6 0.4 0 2.5-0.2 5-0.9 7.4-0.9 4.2-2.3 9-5.4 13.1q-0.1 0.2-0.3 0.5c-0.8 1.1-2.1 3-3.7 4.6-5.5 5.7-10.5 4-12.4 3-1.8-1-4.3-3.1-5-7.1-1.2 3.7-3.8 7-6.4 9.8q-0.4 0.4-0.9 0.8c-2.1 1.7-4.4 2.8-6.6 3.4q-1.8 0.4-3.8 0.5-0.1 0-0.2 0-0.3 0-0.6-0.1c-2.7-0.2-5.3-1-7.5-2.4-5.3-3.2-8.4-7.7-8.8-12.5-0.6-6.8 3.4-10.5 5.9-12.6 0.1-1.6 0.3-3.1 0.5-4.6q0.1-1.1 0.2-2.1c0.2-1-1.1-1.9-5.4-4.2q-0.7-0.4-1.4-0.8-2.6-0.5-4.7-1.2-1.3 0.3-2.7 0.5c-5.1 0.9-10.1 1.5-15 2q-0.3 0-0.6 0-0.5 0-1 0h-0.1c-6 0.8-12 0.8-17.8 0.8q-1.4 0-2.7 0h-0.9c-3.6 0-7.3 0-11.1-0.4q-0.7 0-1.5-0.1c-1.1-0.1-2.3-0.1-3.5-0.3q-0.2 0-0.4 0-0.4 0-0.7 0-0.4 0-0.7 0c-4.9-0.5-9.9-1.1-15-2q-1.3-0.2-2.7-0.5-2.1 0.7-4.7 1.2-0.7 0.4-1.4 0.8c-4.3 2.3-5.5 3.2-5.4 4.2q0.1 1 0.2 2.1c0.2 1.5 0.5 3 0.6 4.6 2.4 2.1 6.4 5.8 5.8 12.6-0.3 4.8-3.5 9.3-8.8 12.5-2.2 1.4-4.8 2.2-7.5 2.4q-0.4 0.1-0.8 0.1-1.9-0.1-3.8-0.5c-2.2-0.6-4.5-1.7-6.6-3.4q-0.5-0.4-0.9-0.8c-2.5-2.8-5.1-6.1-6.4-9.8-0.7 4-3.2 6.1-5 7.1-1.9 1-6.9 2.7-12.4-3zm170.9-32.2c2.7 3.6 5 8 5.9 12.5q0.7-1.5 1.4-2.8c-0.1-0.3-0.2-0.6-0.2-0.7-1.7-4-3.5-8-5.2-11.9q-0.6-0.4-1.2-0.8c-0.1 1.3-0.3 2.6-0.7 3.7zm-153.1-2.9c-1.7 3.9-3.5 7.9-5.2 11.9 0 0.1-0.1 0.4-0.2 0.7q0.7 1.3 1.4 2.8c0.9-4.5 3.2-8.9 5.9-12.5-0.4-1.1-0.6-2.4-0.6-3.7q-0.6 0.4-1.3 0.8zm159.7-65.3q1-0.1 2-0.1c1 0 2.6-0.1 3.5-0.2q0-0.1 0-0.1 0.4-0.8 1-1.5c0.7-0.8 1.1-1.3 1.3-1.9l0.2-0.3q0.1-0.6 0.3-1.1c0.5-2 0.5-2.2 0.4-2.7l-0.2-0.7q-0.2-1-0.5-2.1c-1.6 4.3-4.6 7.8-8 10.7zm-169.9-0.3c0.9 0.1 2.5 0.2 3.6 0.2q0.9 0 1.9 0.1c-3.4-2.9-6.4-6.4-8-10.7q-0.2 1.1-0.5 2l-0.2 0.8c-0.1 0.5-0.1 0.8 0.5 2.7q0.1 0.5 0.3 1.1 0 0 0 0.1 0 0.1 0.1 0.2c0.2 0.6 0.6 1.1 1.3 1.9q0.6 0.7 1 1.5 0 0 0 0.1z"/><path fill-rule="evenodd" class="l" d="m24.9 224.9c-1.6-1.6-2.9-3.5-3.7-4.6q-0.2-0.4-0.4-0.6c-3-4.1-4.4-8.8-5.3-13-0.7-2.4-1-5-1-7.5-3.4 2.2-7.2 1.5-9.5-0.4-7.2-5.7-4.1-16.2-2.5-21.9l0.3-0.8q0.3-1.1 0.6-2.3c0.9-3.7 2.1-8.3 4.9-12.2 1.1-1.9 2.7-3.3 4.3-4.5-0.1-2 0.5-4.3 2.1-6.5 3.1-3.8 7.4-4.7 11.2-4.8q-0.3-0.1-0.6-0.2-0.3 0-0.6-0.1c-1.6-0.3-3.8-0.8-5.9-1.9-4.9-1.1-8.8-6-10.7-13.6q-0.1-0.6-0.4-1.4c-1.1-4.1-2.8-10.2-0.4-15.3 1-4.9 4.1-11 8.3-14.2q1-0.8 2.2-1.2 1.8-0.6 3.6-0.5c-1.4-4.3-2-7.8-2-8.2-0.2-1.4-1-8.1 1.9-13.3-0.9-3.2-1.1-7.5 0.2-13.2 2.1-9.5 6.5-18.6 13.2-27.2 5.8-7.5 13.8-17.1 24.2-24.3 2.9-2 6.4-4.4 10.1-6.3q0.5-0.3 1-0.5c1.2-0.4 2.3-0.8 3.4-1.1q0.2-0.1 0.5-0.2c7-2.3 12.1-3.2 16.3-0.9 2.5 1.5 3.9 4.2 3.8 7q0 1.5-0.4 2.8 0.9 0.2 1.7 0.6 0.2 0.1 0.3 0.2 1.2 0.5 2.1 1.4c1.5 1.5 3.8 4.7 2.2 10.2q-0.2 0.6-0.4 1.1c-1.5 3.3-4.1 6-6.7 8.5l-0.1 0.1c-3.1 3-4.4 8.6-5.9 14.4-0.6 2.9-1.4 5.9-2.3 8.8-2.3 6.5-6.1 15.8-13.2 21.8q-0.6 0.5-1.1 0.9c-1.9 1.7-4.1 3.5-6.9 4.9q0.4 1.4 0.4 3.1 0.8 0.2 1.7 0.5c1.8 0.6 3.4 1.5 4.6 2.3l0.3 0.1q0.5 0.3 1 0.7 0.5 0 1.1 0.1 2 0.4 3.9 1.1c-1.1-2.2-1.7-4.7-1.7-7.3 0.2-8.4 7.1-15.2 15.5-15.2q0.2 0 0.3 0c4.1 0 8 1.7 10.9 4.7 1.3 1.4 2.4 3 3.1 4.7 1.2-0.3 2.4-0.4 3.6-0.1q0.4-0.5 0.9-0.8 2.1-1.6 4.7-2c1.3-0.3 4-0.4 6.6 1.7 2.5-2.1 5.2-2 6.6-1.7 1.7 0.3 3.2 0.9 4.6 2q0.5 0.3 0.9 0.8c1.8-0.4 3.8-0.1 5.4 0.8 0.8-2 1.9-3.8 3.5-5.4 2.8-3 6.7-4.7 10.9-4.7 8.5-0.2 15.6 6.7 15.7 15.2 0.1 2.3-0.4 4.5-1.3 6.5q0.7-0.1 1.4-0.3 0.6-0.1 1.2-0.1 0.4-0.4 0.9-0.7l0.3-0.1c1.2-0.8 2.8-1.7 4.6-2.3q0.9-0.3 1.7-0.5 0-1.7 0.4-3.1c-2.8-1.4-5-3.2-6.9-4.9q-0.5-0.4-1.1-0.9c-7.1-6-10.9-15.3-13.1-21.8-1-2.9-1.7-5.9-2.4-8.8-1.4-5.8-2.8-11.4-5.9-14.4l-0.1-0.1c-1.7-1.7-4.9-4.8-6.7-8.5q-0.2-0.5-0.3-1.1c-1.7-5.5 0.6-8.8 2.1-10.2 0.6-0.5 1.3-1 2-1.4q0.1-0.1 0.1-0.1 0.2-0.1 0.4-0.1 0.8-0.4 1.6-0.6-0.4-1.3-0.4-2.8c-0.1-2.8 1.4-5.5 3.9-7 4.1-2.3 9.3-1.4 16.2 0.9q0.3 0.1 0.5 0.2c1.1 0.3 2.2 0.7 3.4 1.1q0.6 0.2 1 0.5c3.7 1.9 7.1 4.1 10.1 6.3 8.1 5.6 15.6 13.1 24.3 24.3 6.6 8.6 11 17.7 13.1 27.2 1.3 5.7 1.1 10 0.2 13.2 2.9 5.2 2.1 11.9 1.9 13.3 0 0.4-0.6 3.9-2 8.2q1.8-0.1 3.6 0.5 1.2 0.4 2.2 1.2c4.2 3.2 7.3 9.3 8.3 14.2 2.4 5.1 0.7 11.2-0.4 15.2q-0.2 0.9-0.4 1.5c-1.9 7.6-5.8 12.5-10.7 13.6-2.1 1.1-4.3 1.6-5.9 1.9q-0.3 0.1-0.6 0.1-0.3 0.1-0.6 0.2c3.8 0.1 8.2 1 11.2 4.8 1.7 2.2 2.2 4.5 2.1 6.5 1.6 1.2 3.2 2.6 4.3 4.5 2.8 3.9 4 8.5 4.9 12.2q0.3 1.2 0.7 2.3l0.2 0.8c1.5 5.3 4.7 16.2-2.4 21.9-2.4 1.9-6.2 2.6-9.6 0.4 0 2.5-0.3 5.1-1 7.5-0.9 4.2-2.3 8.9-5.3 13q-0.2 0.2-0.4 0.6c-0.8 1.1-2.1 3-3.6 4.6-5.5 5.7-10.5 3.9-12.4 2.9-1.8-1-4.4-3-5-7-1.3 3.7-3.9 6.9-6.4 9.7q-0.5 0.5-0.9 0.8c-2.2 1.7-4.4 2.9-6.7 3.4q-1.8 0.4-3.7 0.5-0.2 0-0.3 0-0.3 0-0.6 0c-2.6-0.2-5.2-1.1-7.5-2.4-5.3-3.3-8.4-7.7-8.8-12.6-0.5-6.7 3.5-10.5 5.9-12.5 0.1-1.6 0.3-3.2 0.5-4.6q0.2-1.1 0.3-2.2c0.1-0.9-1.2-1.9-5.5-4.2q-0.6-0.4-1.3-0.7-2.6-0.5-4.8-1.2-1.3 0.2-2.6 0.5c-5.1 0.9-10.2 1.4-15 1.9q-0.4 0-0.7 0-0.4 0-0.9 0h-0.1c-6.1 0.9-12.1 0.9-17.9 0.8q-1.3 0-2.7 0h-0.8c-3.6 0-7.4 0-11.1-0.3q-0.7-0.1-1.5-0.1c-1.1-0.1-2.3-0.2-3.6-0.4q-0.2 0-0.3 0-0.4 0-0.8 0-0.3 0-0.6 0c-4.9-0.5-10-1-15-1.9q-1.4-0.3-2.7-0.5-2.2 0.7-4.8 1.2-0.7 0.3-1.3 0.7c-4.3 2.3-5.6 3.3-5.5 4.2q0.1 1.1 0.3 2.2c0.2 1.4 0.4 2.9 0.5 4.6 2.4 2 6.4 5.8 5.9 12.5-0.4 4.9-3.5 9.3-8.8 12.6-2.3 1.3-4.9 2.2-7.5 2.4q-0.4 0-0.8 0-2-0.1-3.8-0.5c-2.3-0.5-4.5-1.7-6.7-3.4q-0.4-0.3-0.9-0.8c-2.5-2.8-5.1-6-6.4-9.7-0.6 4-3.1 6-4.9 7-1.9 1-7 2.8-12.4-2.9zm170.9-32.3c2.7 3.6 4.9 8 5.9 12.6q0.6-1.5 1.4-2.9c-0.1-0.3-0.2-0.6-0.3-0.7-1.7-3.9-3.4-8-5.1-11.9q-0.7-0.3-1.3-0.7c0 1.3-0.3 2.5-0.6 3.6zm-153.1-2.9c-1.8 3.9-3.5 8-5.2 11.9-0.1 0.1-0.2 0.4-0.2 0.7q0.7 1.4 1.3 2.9c1-4.6 3.2-9 5.9-12.6-0.3-1.1-0.6-2.3-0.6-3.6q-0.6 0.4-1.2 0.7zm159.7-65.3q0.9 0 1.9 0c1-0.1 2.7-0.1 3.5-0.3q0 0 0 0 0.5-0.8 1.1-1.5c0.7-0.8 1-1.4 1.3-1.9l0.1-0.3q0.2-0.6 0.3-1.2c0.5-1.9 0.5-2.2 0.4-2.7l-0.2-0.7q-0.2-1-0.4-2c-1.6 4.2-4.6 7.7-8 10.6zm-169.9-0.3c0.8 0.2 2.5 0.2 3.5 0.3q1 0 1.9 0c-3.4-2.9-6.4-6.4-8-10.6q-0.2 1-0.4 2l-0.2 0.7c-0.1 0.5-0.1 0.8 0.4 2.7q0.2 0.6 0.3 1.2 0 0 0 0 0.1 0.1 0.1 0.3c0.3 0.5 0.7 1.1 1.4 1.9q0.5 0.7 1 1.4 0 0.1 0 0.1z"/></g><path fill-rule="evenodd" class="a" d="m24.9 224.9c-1.6-1.6-2.9-3.5-3.7-4.6q-0.2-0.4-0.4-0.6c-3-4.1-4.4-8.8-5.3-13-0.7-2.4-1-5-1-7.5-3.4 2.2-7.2 1.5-9.5-0.4-7.2-5.7-4.1-16.2-2.5-21.9l0.3-0.8q0.3-1.1 0.6-2.3c0.9-3.7 2.1-8.3 4.9-12.2 1.1-1.9 2.7-3.3 4.3-4.5-0.1-2 0.5-4.3 2.1-6.5 3.1-3.8 7.4-4.7 11.2-4.8q-0.3-0.1-0.6-0.2-0.3 0-0.6-0.1c-1.6-0.3-3.8-0.8-5.9-1.9-4.9-1.1-8.8-6-10.7-13.6q-0.1-0.6-0.4-1.4c-1.1-4.1-2.8-10.2-0.4-15.3 1-4.9 4.1-11 8.3-14.2q1-0.8 2.2-1.2 1.8-0.6 3.6-0.5c-1.4-4.3-2-7.8-2-8.2-0.2-1.4-1-8.1 1.9-13.3-0.9-3.2-1.1-7.5 0.2-13.2 2.1-9.5 6.5-18.6 13.2-27.2 5.8-7.5 13.8-17.1 24.2-24.3 2.9-2 6.4-4.4 10.1-6.3q0.5-0.3 1-0.5c1.2-0.4 2.3-0.8 3.4-1.1q0.2-0.1 0.5-0.2c7-2.3 12.1-3.2 16.3-0.9 2.5 1.5 3.9 4.2 3.8 7q0 1.5-0.4 2.8 0.9 0.2 1.7 0.6 0.2 0.1 0.3 0.2 1.2 0.5 2.1 1.4c1.5 1.5 3.8 4.7 2.2 10.2q-0.2 0.6-0.4 1.1c-1.5 3.3-4.1 6-6.7 8.5l-0.1 0.1c-3.1 3-4.4 8.6-5.9 14.4-0.6 2.9-1.4 5.9-2.3 8.8-2.3 6.5-6.1 15.8-13.2 21.8q-0.6 0.5-1.1 0.9c-1.9 1.7-4.1 3.5-6.9 4.9q0.4 1.4 0.4 3.1 0.8 0.2 1.7 0.5c1.8 0.6 3.4 1.5 4.6 2.3l0.3 0.1q0.5 0.3 1 0.7 0.5 0 1.1 0.1 2 0.4 3.9 1.1c-1.1-2.2-1.7-4.7-1.7-7.3 0.2-8.4 7.1-15.2 15.5-15.2q0.2 0 0.3 0c4.1 0 8 1.7 10.9 4.7 1.3 1.4 2.4 3 3.1 4.7 1.2-0.3 2.4-0.4 3.6-0.1q0.4-0.5 0.9-0.8 2.1-1.6 4.7-2c1.3-0.3 4-0.4 6.6 1.7 2.5-2.1 5.2-2 6.6-1.7 1.7 0.3 3.2 0.9 4.6 2q0.5 0.3 0.9 0.8c1.8-0.4 3.8-0.1 5.4 0.8 0.8-2 1.9-3.8 3.5-5.4 2.8-3 6.7-4.7 10.9-4.7 8.5-0.2 15.6 6.7 15.7 15.2 0.1 2.3-0.4 4.5-1.3 6.5q0.7-0.1 1.4-0.3 0.6-0.1 1.2-0.1 0.4-0.4 0.9-0.7l0.3-0.1c1.2-0.8 2.8-1.7 4.6-2.3q0.9-0.3 1.7-0.5 0-1.7 0.4-3.1c-2.8-1.4-5-3.2-6.9-4.9q-0.5-0.4-1.1-0.9c-7.1-6-10.9-15.3-13.1-21.8-1-2.9-1.7-5.9-2.4-8.8-1.4-5.8-2.8-11.4-5.9-14.4l-0.1-0.1c-1.7-1.7-4.9-4.8-6.7-8.5q-0.2-0.5-0.3-1.1c-1.7-5.5 0.6-8.8 2.1-10.2 0.6-0.5 1.3-1 2-1.4q0.1-0.1 0.1-0.1 0.2-0.1 0.4-0.1 0.8-0.4 1.6-0.6-0.4-1.3-0.4-2.8c-0.1-2.8 1.4-5.5 3.9-7 4.1-2.3 9.3-1.4 16.2 0.9q0.3 0.1 0.5 0.2c1.1 0.3 2.2 0.7 3.4 1.1q0.6 0.2 1 0.5c3.7 1.9 7.1 4.1 10.1 6.3 8.1 5.6 15.6 13.1 24.3 24.3 6.6 8.6 11 17.7 13.1 27.2 1.3 5.7 1.1 10 0.2 13.2 2.9 5.2 2.1 11.9 1.9 13.3 0 0.4-0.6 3.9-2 8.2q1.8-0.1 3.6 0.5 1.2 0.4 2.2 1.2c4.2 3.2 7.3 9.3 8.3 14.2 2.4 5.1 0.7 11.2-0.4 15.2q-0.2 0.9-0.4 1.5c-1.9 7.6-5.8 12.5-10.7 13.6-2.1 1.1-4.3 1.6-5.9 1.9q-0.3 0.1-0.6 0.1-0.3 0.1-0.6 0.2c3.8 0.1 8.2 1 11.2 4.8 1.7 2.2 2.2 4.5 2.1 6.5 1.6 1.2 3.2 2.6 4.3 4.5 2.8 3.9 4 8.5 4.9 12.2q0.3 1.2 0.7 2.3l0.2 0.8c1.5 5.3 4.7 16.2-2.4 21.9-2.4 1.9-6.2 2.6-9.6 0.4 0 2.5-0.3 5.1-1 7.5-0.9 4.2-2.3 8.9-5.3 13q-0.2 0.2-0.4 0.6c-0.8 1.1-2.1 3-3.6 4.6-5.5 5.7-10.5 3.9-12.4 2.9-1.8-1-4.4-3-5-7-1.3 3.7-3.9 6.9-6.4 9.7q-0.5 0.5-0.9 0.8c-2.2 1.7-4.4 2.9-6.7 3.4q-1.8 0.4-3.7 0.5-0.2 0-0.3 0-0.3 0-0.6 0c-2.6-0.2-5.2-1.1-7.5-2.4-5.3-3.3-8.4-7.7-8.8-12.6-0.5-6.7 3.5-10.5 5.9-12.5 0.1-1.6 0.3-3.2 0.5-4.6q0.2-1.1 0.3-2.2c0.1-0.9-1.2-1.9-5.5-4.2q-0.6-0.4-1.3-0.7-2.6-0.5-4.8-1.2-1.3 0.2-2.6 0.5c-5.1 0.9-10.2 1.4-15 1.9q-0.4 0-0.7 0-0.4 0-0.9 0h-0.1c-6.1 0.9-12.1 0.9-17.9 0.8q-1.3 0-2.7 0h-0.8c-3.6 0-7.4 0-11.1-0.3q-0.7-0.1-1.5-0.1c-1.1-0.1-2.3-0.2-3.6-0.4q-0.2 0-0.3 0-0.4 0-0.8 0-0.3 0-0.6 0c-4.9-0.5-10-1-15-1.9q-1.4-0.3-2.7-0.5-2.2 0.7-4.8 1.2-0.7 0.3-1.3 0.7c-4.3 2.3-5.6 3.3-5.5 4.2q0.1 1.1 0.3 2.2c0.2 1.4 0.4 2.9 0.5 4.6 2.4 2 6.4 5.8 5.9 12.5-0.4 4.9-3.5 9.3-8.8 12.6-2.3 1.3-4.9 2.2-7.5 2.4q-0.4 0-0.8 0-2-0.1-3.8-0.5c-2.3-0.5-4.5-1.7-6.7-3.4q-0.4-0.3-0.9-0.8c-2.5-2.8-5.1-6-6.4-9.7-0.6 4-3.1 6-4.9 7-1.9 1-7 2.8-12.4-2.9zm177.5-100.5q0.9 0 1.9 0c1-0.1 2.7-0.1 3.5-0.3q0 0 0 0 0.5-0.8 1.1-1.5c0.7-0.8 1-1.4 1.3-1.9l0.1-0.3q0.2-0.6 0.3-1.2c0.5-1.9 0.5-2.2 0.4-2.7l-0.2-0.7q-0.2-1-0.4-2c-1.6 4.2-4.6 7.7-8 10.6zm-6.6 68.2c2.7 3.6 4.9 8 5.9 12.6q0.6-1.5 1.4-2.9c-0.1-0.3-0.2-0.6-0.3-0.7-1.7-3.9-3.4-8-5.1-11.9q-0.7-0.3-1.3-0.7c0 1.3-0.3 2.5-0.6 3.6zm-153.1-2.9c-1.8 3.9-3.5 8-5.2 11.9-0.1 0.1-0.2 0.4-0.2 0.7q0.7 1.4 1.3 2.9c1-4.6 3.2-9 5.9-12.6-0.3-1.1-0.6-2.3-0.6-3.6q-0.6 0.4-1.2 0.7zm-10.2-65.6c0.8 0.2 2.5 0.2 3.5 0.3q1 0 1.9 0c-3.4-2.9-6.4-6.4-8-10.6q-0.2 1-0.4 2l-0.2 0.7c-0.1 0.5-0.1 0.8 0.4 2.7q0.2 0.6 0.3 1.2 0 0 0 0 0.1 0.1 0.1 0.3c0.3 0.5 0.7 1.1 1.4 1.9q0.5 0.7 1 1.4 0 0.1 0 0.1z"/><path class="m" d="m86.3 180c0.4 5.8-6.3 7.7-11 8.5q-0.3 0-0.6 0.1c-5.1 3-12.8 5.6-12 13.2 0.4 2.9 1.1 6.1 0.8 9.2 2.3 2.8 6.3 4.1 5.9 8.6-0.2 2.9-2.9 5.2-5.1 6.6-1.2 0.7-2.7 1.2-4.1 1.3q-1.1 0-2.2-0.3c-1.3-0.3-2.5-1-3.7-1.9-2-2.2-5-5.8-5.2-9-6.8-5-1.6-16.7 4.6-22.3-1.9-3.2-3.3-5.8-0.4-9.3 0.7-0.8 4.5-3.1 5.9-2.6 1.7-4.2 8.1-7.5 12.3-7.4q0.1 0 0.1 0.1c5.9-1.2 14.2-1 14.7 5.2z"/><path class="n" d="m63.1 212.8q0.4 0.4 0.9 0.7c0.9 0.8 1.8 1.5 2.6 2.3 3.7 3.7 0.1 8.2-4.1 9.7-2.8 1-5.8-0.8-7.6-2.7-1.3-1.4-3.4-3.6-4.4-5.7q1.3 0.7 3 1c3.9 0.9 8.5-1.3 9.6-5.3z"/><path class="o" d="m60.1 225.7c-2-0.2-3.9-1.5-5.2-2.9-1.3-1.4-3.4-3.6-4.4-5.7q1.1 0.6 2.6 0.9c1.7 3.1 4.1 5.9 7 7.7z"/><path class="n" d="m61 201.2c-0.1 3.1 0.5 6.1 0.6 9.1 0.2 6.8-6.9 6.5-10.8 4.2-7.4-4.3-0.9-16.2 4.1-19.9 0.3-0.2 1.2-1.1 0.9-1.7-0.8-1.4-0.6-0.7-2.1-2.6-2.5-3.5 2.2-6.5 5-6.3-0.2 4.9 7.6 5.3 12.9 4.9-5.1 2.5-10.5 6.1-10.6 12.3z"/><path class="o" d="m51.7 214.9q-0.5-0.2-0.9-0.4c-7.4-4.3-0.9-16.2 4.1-19.9 0.3-0.2 1.2-1.1 0.9-1.7-0.8-1.4-0.6-0.7-2.1-2.6-2.5-3.5 2.2-6.5 5-6.3 0 1.2 0.4 2.1 1.1 2.8-1.3 0.7-2.3 1.6-2.5 2.8-0.2 1.9 1.6 3.2 0.5 5.2-1 2-3.1 3.5-4.4 5.4-2.2 3.1-3.4 6.8-2.8 10.6q0.3 2.1 1.1 4.1z"/><path class="n" d="m78.8 186.8q-0.3 0.1-0.6 0.2c-2 0.7-4.1 1.1-6.3 1.1-1.7 0.1-3.4 0.1-4.8-0.2-2.8-0.4-9.6-3.6-4.8-7.8 1.4-1.2 3.2-2.3 5.1-3.2 4.2-1.3 8.2-1.8 12.5-0.5 3 0.8 4.9 2.3 5.4 5.6 0.4 2.6-5 4.3-6.5 4.8z"/><path class="o" d="m62.3 180.1c1.4-1.2 3.2-2.3 5.1-3.2 3.6-1.1 7-1.6 10.7-1q-0.4 0.4-0.8 0.7c-3.6 2.9-7.4 5.5-11.5 7.8-0.9 0.4-2.2 0.8-3.6 1.3-1.7-1.4-2.5-3.3 0.1-5.6z"/><path class="m" d="m65 170.3c0.3 1.1 0.3 2.3-0.9 2.9-2.3 1.2-4.9 1.2-7.4 1.7-4 0.9-7.8 2.2-11.5 4.1-2.5 1.2-4.5 3-6.9 4.4-0.4 0.2-1 0.6-1.7 0.8q-0.2 0.6-0.5 1.3c-1.9 4.4-3.9 8.7-5.7 13.1-0.5 1.1-0.9 2.9-1.5 4.4 2.3 4.3 4.4 8.5 5.4 13.3 0.3 1.4 1 3.8-0.7 4.7-2.1 1.1-5.6-4.5-6.6-5.8-2.2-3-3.3-6.8-4-10.4-2.1-6.8 0.6-15.2 3-21.5 0.5-1.2 3.4-4 5.2-4.4 0.8-2.8 3.8-5.9 6.3-7.5 5.7-3.6 13.3-5.6 20.1-4.4 1.8 0.1 4 0.5 5.5 1.3q0.6 0.3 1.1 0.7 0.6 0.6 0.8 1.3z"/><path class="n" d="m29.3 206.3c1.4 1.3 1.7 3.9 2.3 5.7q0 0 0.1 0.1 0 0.2 0.1 0.4 0 0 0 0c0.8 2.1 1.9 4.4 1.8 6.6 0 0.3-0.2 0.6-0.6 0.6q0 0-0.1-0.1c-0.2 0.1-0.3 0.1-0.5 0q-0.1-0.1-0.2-0.1c-1.4-0.6-2.5-2.3-3.4-3.5-1.7-2.8-3.5-5.9-4.1-9.2-0.3-1.7 1.5-2.1 2.8-2q0.2 0 0.3 0.1 0.1-0.1 0.1-0.2 0.1 0.1 0.1 0.2c0.7 0.2 1 0.8 1.3 1.4z"/><path class="o" d="m31.8 219.2c-1.3-0.7-2.2-2.1-3-3.2-1.7-2.8-3.5-5.9-4.1-9.2-0.3-1.3 0.7-1.8 1.8-1.9 0.7 3.6 2 7.2 3.5 10.5 0.5 1.2 1 2.5 1.8 3.8z"/><path class="n" d="m31.9 191.7q-1.2 2.8-2.3 5.6-0.5 1.8-1 3.5c-0.4 1.4-1.9 2.8-3.5 2.4-1.6-0.5-1.7-2.4-1.5-3.8q0.2-1.1 0.5-2.3c0.1-1.5 0.3-3 0.6-4.4 0.4-2.4 2.7-13.2 6.4-12.2 0.1 1.6 1.1 2.9 3.6 3.7 0.9 1.9-2.2 6-2.8 7.5z"/><path class="o" d="m26.2 203.2q-0.5 0.1-1.1 0c-1.6-0.5-1.7-2.4-1.5-3.8q0.2-1.1 0.5-2.3c0.1-1.5 0.3-3 0.6-4.4 0.4-2.4 2.7-13.2 6.4-12.2q0 1.2 0.9 2.2c-4.9 5.7-6.9 12.5-5.9 20.1q0.1 0.2 0.1 0.4z"/><path class="n" d="m55.2 174.1c-4.4 1-9 2.9-12.8 5.3q-1.4 0.8-2.6 1.9-0.2 0-0.3 0.1c-1.1 0.9-2.5 1.5-4 1.3-2-0.2-2.5-1.6-2.4-3.2q0-1 0.2-2.4c2.2-3.8 6.1-5.2 10-6.6 5.6-2 10.7-2.5 16.5-1.7q1.1 0.5 2.3 1.2c4.2 2.2-5.9 3.9-6.9 4.1z"/><path class="o" d="m33.4 181.3c-0.3-0.5-0.3-1.2-0.3-1.8q0-1 0.2-2.4c2.2-3.8 6.1-5.2 10-6.6 3.8-1.3 7.3-2 11-2q-0.5 0.1-1 0.3c-7.4 2.3-14.5 6.9-19.9 12.5z"/><path class="m" d="m52.1 161.1c-6.6 0.8-13.4-0.6-19.9 1.7-3.4 1.2-6.6 2.7-9.9 4.2-4.5 4.5-7.6 9.5-8.4 16.2-0.4 3.2-0.7 6.9-3.2 9.3-0.2 0.1-0.6 0.5-0.9 0.3-3.4-2.7-0.6-11.2 0.4-14.5 1.1-4 1.9-9.1 4.6-12.5 1.2-2.5 5.3-4 7.6-4.9 9-3.7 19.4-6.9 29.4-7q0.1-0.2 0.3-0.2c1.5-0.2 2.6-0.1 3.4 0.4q0.2 0 0.4 0c0.1 0 0.1 0.1 0 0.2 2.4 1.8 0.6 6.3-3.8 6.8z"/><path class="n" d="m13.2 179.3c-0.4 1.9-0.6 3.9-0.7 5.9-0.2 1.9-0.1 4.5-1.9 5.7-0.2 0.2-0.6 0.1-0.8-0.2-1.1-2.1-0.4-5.2 0.1-7.4q1.1-4.6 2.4-9c0.6-2.3 1.2-4.6 2.1-6.6 0 1.3 0.7 2.3 2.5 1.6q1.4-0.5 2.7-1.1c-3 3-5 6.8-6.4 11.1z"/><path class="o" d="m12.8 182q-0.2 1.6-0.3 3.2c-0.1 1.7-0.1 3.9-1.3 5.2 0.8-2.1 0.8-4.8 1.2-6.8q0.2-0.8 0.4-1.6z"/><path class="o" d="m9.8 190.7c-1.1-2.1-0.4-5.2 0.1-7.4q1.1-4.6 2.4-9c0.6-2.3 1.2-4.6 2.1-6.6 0 1.1 0.6 2.1 1.9 1.8-1.8 2.6-2.9 5.9-3.7 8.9-0.7 2.3-1.2 4.6-1.7 6.9-0.3 1.6-0.2 3.9-1 5.4q0 0-0.1 0z"/><path class="n" d="m54.2 157.3q0 0.9-0.3 2.2c-1.6 0.5-4.6 0.1-6.4 0.1-3 0-6.2 0-9.2 0.5-3.7 0.6-7.2 1.7-10.5 3.1q-0.2 0.1-0.3 0.2c-3.1 1.5-6.2 3.1-9.3 4.5-1.2 0.5-2.2 0.2-2.5-1-0.2-0.8 0.4-1.4 1.1-1.8 1.4-1.6 4.7-3 6-3.4 5-1.7 10-3.3 15.1-4.5 4.3-1.1 8.8-2.2 13.2-2.4 1.8-0.2 3.4 0.2 3.2 2.3q0 0.1-0.1 0.2z"/><path class="o" d="m15.7 166.9c-0.2-0.8 0.4-1.4 1.1-1.8 1.4-1.6 4.7-3 6-3.4q3.6-1.2 7.3-2.4c-4.4 2.7-9.1 5-12.6 8.8-0.9 0.2-1.6-0.3-1.8-1.2z"/><path class="m" d="m57 138.2c0.4 3.1-1.8 8.3-4.1 8-2.6 1.2-5 0.3-8.1-1.2-5.6-2.7-11.5-5.1-17.5-6.8-1.2-0.3-4.5-0.8-5.9-2.1-3.1 0.5-5.2-5.5-5.8-7.9-0.7-3-3-9-1.1-12q0-0.1 0.1-0.2c0.5-3.6 3-8.7 5.6-10.8 0.7-0.2 1.4-0.2 2.1 0.2q0.5 0.3 0.8 0.7c0.1 0.7 0.1 1.5 0 2-0.2 2.2-0.8 4.5-1.3 6.7-0.7 2.8 0.1 4.8 0.7 7.5q0 0.1 0 0.2 0.3 0.7 0.6 1.3c0.7 1.5 1.6 2.7 2.5 3.8 0.6 1.2 1.4 2.2 2.4 2.9q0 0-0.1 0.1 0.1 0 0.2 0c2.8 1.7 6.7 1.3 9.8 1.6 5.6 0.4 16.5-0.2 19.1 6z"/><path class="n" d="m17.7 110.4c0.6-1.1 3.7-6.1 4.1-2 0.3 2.9-1.2 5.9-1.7 8.8q-0.2-0.4-0.5-0.8c-0.7-1.3-2.6-1.8-3.9-1.2 0.5-1.7 1.1-3.3 2-4.8z"/><path class="o" d="m17.7 115.1c-0.7-0.2-1.4-0.2-2 0.1 0.5-1.7 1.1-3.3 2-4.8 0.4-0.7 1.9-3.1 2.9-3.5-1.4 2.5-2.4 5.3-2.9 8.2z"/><path class="n" d="m21.3 134.2c-0.1 0.3-0.4 0.5-0.6 0.4q0 0.1 0 0.1 0 0-0.1-0.1-0.1 0-0.2 0c-1.6-1.2-2.2-3.1-2.9-4.9q-0.5-1.3-0.8-2.7c-2-4.3-3.7-9.4-0.6-10.3 0.7-0.1 1.3 0.1 1.8 0.6q0.2 0.2 0.4 0.4c0.6 0.7 1.1 1.6 1.4 2.1 1.9 3.5 3.2 7.2 6.2 9.9 0.3 0.4 0.1 1-0.4 1-2.5-0.1-3.7 1.3-4.2 3.5z"/><path class="o" d="m22.4 131.9q-0.8 0.9-1.1 2.3c-0.1 0.3-0.4 0.5-0.6 0.4q0 0.1 0 0.1 0 0-0.1-0.1-0.1 0-0.2 0c-1.6-1.2-2.2-3.1-2.9-4.9q-0.5-1.3-0.8-2.7c-2-4.3-3.7-9.4-0.6-10.3 0.5-0.1 0.9 0 1.3 0.3-0.4 5 0.7 10 4.2 14.1q0.4 0.4 0.8 0.8z"/><path class="n" d="m52.9 144.9c-5 1.5-11.3-3.5-15.9-5.1-4.5-1.6-9.9-2.6-14.1-4.8q0.8-3.5 3.7-2.7c1.6 0.1 3.2 0.4 4.8 0.7 2.9 0.5 6.1 0.5 9 0.7 3 0.1 5.7 0.3 8.6 1.1q2.1 0.5 4 1.5l1.1 0.7q4.1 3.4-1.2 7.9z"/><path class="o" d="m45.3 143.7c-2.9-1.3-5.9-3.1-8.3-3.9-4.5-1.6-9.9-2.6-14.1-4.8q0.3-1.3 0.9-2c3.2 2 7.5 2.6 10.8 3.9 4.1 1.6 7.5 4 10.7 6.8z"/><path class="m" d="m92.5 22.3c-1.2 2.5-3.9 5-5.1 6.3-6.7 6.4-7.3 17.6-10.2 26.2-2.2 6.4-5.5 13.9-10.9 18.4-3 2.6-5.5 5.1-9.6 5.7-2.1 0.3-4.3 0.7-6.4 1.1 1.6 1 3.2 2.4 4.6 4.6 2.6 4.1 0.2 8.3-2.6 11.3q0.6-0.1 1.3-0.2c2.3-0.4 4.6 1.1 6.8 2.2-0.6-0.8-1.2-1.6-1.5-2.4q0-0.1 0-0.2c1.3 0 2.6 0 3.9 0.4 1.3 0.5 2.4 1.2 3.5 1.9 1.3 1.3 3.3 3.8 5.2 4.7-0.3-0.8-0.6-1.6-0.5-2.5q0.1-0.2 0.1-0.5 2.5 0.5 4.6 1.8c1.5 2 2.3 4.9 4.4 6.4 0.1 0.1 0.8-2.5 1.3-2.7q0.3 0 0.6 0 0.6 0.3 1.2 0.6c1.1 0.7 1.7 2.5 2.3 3.6 0.7 1.3 1.8 2 3 2.6 1.3 0.7 2.6 1.4 3.8 2.1 0.9 0.7 1.7 1.5 2.3 2.7 2.2 4.2-2.1 10.7-5.2 13q-1.5 1.1-3 1.9c-1.7 0.7-3.4 1.3-5.1 1.8-1.7 0.4-3.4 0.7-5.1 0.7q-1 0-1.9-0.2-0.3 0-0.7-0.1-0.3 0-0.6-0.1-0.7-0.1-1.4-0.3c-5.9-1.3-11.6-4-16.6-6.8-6.3-3.5-16-8.6-18.1-16.1-0.6-2-0.4-3.4 0.3-4.6-6 0.4-9.6-13.6-10.2-17.5-0.4-3.1-0.2-10.1 3.8-10.5-3.2-2.7-2.6-9.5-1.8-13.2 2-8.8 6.2-17 11.7-24.2 6.5-8.3 13.9-16.6 22.6-22.7 2.6-1.8 5.8-4 9.3-5.8q1.5-0.6 3-1.1c1.5-0.4 8.5-3 10.7-1.7-0.1 3.1-3 3-5.3 4-3.4 1.5-3.3 4.5-6.4 5.9-4.1 1.9-4.5 2.9-5.5 6.9-0.4 1.3-0.9 2-2.1 2.6-4 2.2-8.4 4.5-8.1 9.9 0 0.7-0.3 1.9-0.9 2.5-0.6 0.7-1.6 1.1-2.3 1.7-4.9 3.8 1.7 3.4 2.7 3.3 3.3-0.7 3.4-4.5 5.1-6.7 1.7-2.1 2.7-1.6 5.1-2.3 1.6-0.5 3.6-5.7 5-7.4 1.2-1.5 2.2-0.5 3.4-0.4 5.5 0.3 4.1-3.3 6-5.6 1.4-1.7 2.7-0.4 4.4-1 0.7-0.3 1.3-0.9 1.9-1.4q0 0 0 0c0.7-0.5 2.1-2 3-1.1 0.6 0.5 0.5 1.5 0.2 2.5z"/><path class="p" d="m54.8 97.7c2.4 0.3 4.6 2.1 6.9 2.9 0.6 0.2 0.8-1.2 0.7-1.6-0.1-1-0.6-1.9-1.2-2.8 2 0.9 3.7 2.4 5.2 3.9 1.3 1.3 3.5 4.1 5.5 4.4 0.5 0.1 0.7-0.8 0.8-1.1 0.1-0.9-0.3-1.8-0.6-2.6 4 1.1 4.8 6.7 7.8 9 0.2 0.1 0.4 0 0.6-0.2 0.4-0.4 1.1-3 1.8-2.4 1.7 1.3 2.2 3.4 3.8 4.9 1 0.9 2.6 1.6 3.8 2.3 10 5.5-1.4 14.4-7 16.8-4.3 1.9-9.5 0.3-13.9 0-9.3-3-18.3-9.1-24.9-14.3-2.8-2.3-4.6-5.1-6.4-8.2-1.7-3 6-6.7 7.6-7.9 2.3-1.8 6.7-3.3 9.5-3.1z"/><path class="p" d="m51.9 83.5q0.8 0.8 1.4 1.5c4.5 5.1-0.2 8.3-2.6 11.4-2.5 0.9-4.8 2.2-6.9 3.8-1.9 1.4-4.1 2.6-5.5 4-0.6 0.6-1.5 0.7-2.7-0.3-2.4-2.1-3.8-4.7-4.7-7.6q-0.5-1-1-1.9c-1.6-3-2.5-9-1.6-12.3 0.9-3.5 4.5-2.2 6.7-1.8 4.5-0.2 10-1.4 14.1 0.9 1.2 0.6 2.1 1.4 2.8 2.3z"/><path class="n" d="m89 24.6c-1.7 1.7-3.6 3.6-4.9 5.6-3.4 5.1-4.1 11.2-5.8 17-2.4 8-5.5 17.5-12 23.3-2.9 2.6-5.3 4.5-9.2 5.5-3.1 0.8-6.2 1.8-9.2 3-1.3-0.4-2.6-0.5-3.9-0.6q-0.9 0-1.9-0.1-1.6 0-3.3 0c-1.4 0.1-2.9 0.2-4.3 0-1.9-0.3-3.4-1.8-3.9-3.6-4.1-7.6 2.4-20 6.1-26.3 4.2-7.2 9.9-13.7 15.8-19.7 6.6-6.7 14.4-12.4 23-16.2 1-0.4 3.8-0.9 6.2-1.5q0.1 0 0.1 0c-1.5 0.4-3.1 0.6-4.1 1.3-0.8 0.5-1.2 1.9-1.4 2.7-0.6 1.7-3.2 2.6-4.5 3.6-1.6 1-2.5 2.4-3.3 3.9-0.5 1.5-0.9 3-1.8 4.3-1.5 2.1-4.4 2.9-6.5 4.2-1.4 1.6-2.4 3.4-2.5 5.3-0.2 3.9-5.9 5.3-5.2 9.4 0.5 3.3 6.2 2.7 8 1.1 1-0.9 1.9-2.8 2.4-4 1.9-4.5 5.3-3 7.9-5.5 1.5-1.5 1.7-7.1 5-6.6 2.1 0.4 3.1 0.5 5-0.5 0.9-0.5 1.5-1.9 1.7-2.8 0.6-2.5 4.8-2.9 6.9-4.5 3.4-2.7 1.5-0.3-0.4 1.7z"/><path class="q" d="m89 24.6c-1.7 1.7-3.6 3.6-4.9 5.6-3.4 5.1-4.1 11.2-5.8 17-1.2 4.2-2.7 8.8-4.7 13 0.7-3 0.7-6-0.7-8.8-3.5-6.8-10.9 1.6-14.2 4-1.6 1.3-4.3 2.3-6.4 1.7-1.5-0.4-2.1-2.2-2.5-3.5-0.9-2.5-1.3-5.8-3.5-7.6-2.7-2.3-5.5-1.8-8-0.2 4-6.2 9.1-11.8 14.2-17.1 6.6-6.7 14.4-12.4 23-16.2 1-0.4 3.8-0.9 6.2-1.5q0.1 0 0.1 0c-1.5 0.4-3.1 0.6-4.1 1.3-0.8 0.5-1.2 1.9-1.4 2.7-0.6 1.7-3.2 2.6-4.5 3.6-1.6 1-2.5 2.4-3.3 3.9-0.5 1.5-0.9 3-1.8 4.3-1.5 2.1-4.4 2.9-6.5 4.2-1.4 1.6-2.4 3.4-2.5 5.3-0.2 3.9-5.9 5.3-5.2 9.4 0.5 3.3 6.2 2.7 8 1.1 1-0.9 1.9-2.8 2.4-4 1.9-4.5 5.3-3 7.9-5.5 1.5-1.5 1.7-7.1 5-6.6 2.1 0.4 3.1 0.5 5-0.5 0.9-0.5 1.5-1.9 1.7-2.8 0.6-2.5 4.8-2.9 6.9-4.5 3.4-2.7 1.5-0.3-0.4 1.7z"/><path class="o" d="m78.2 132.1c-3 0.1-6.3-0.7-9.2-0.9-9.3-3-18.3-9.1-24.9-14.3-2.8-2.3-4.6-5.1-6.4-8.2-1.1-2.1 2.2-4.5 4.9-6.2-0.9 1.4-1.3 3-1 5.1 0.4 2.6 2.7 4.7 4.5 6.4 2.6 2.5 5.5 4.7 8.5 6.8 6.8 4.9 15.1 9.3 23.6 11.3z"/><path class="o" d="m40.2 102.7c-0.7 0.5-1.4 1-1.9 1.5-0.6 0.6-1.5 0.7-2.7-0.3-2.4-2.1-3.8-4.7-4.7-7.6q-0.5-1-1-1.9c-1.6-3-2.5-9-1.6-12.3 0.9-3.5 4.5-2.2 6.7-1.8 2.1-0.1 4.3-0.4 6.4-0.5-5.2 0.5-10 2.5-10.1 7.6 0 4.8 3.2 14.7 8.9 15.3z"/><path class="r" d="m42.1 78.3q-1.6 0-3.3 0c-1.4 0.1-2.9 0.2-4.3 0-1.9-0.3-3.4-1.8-3.9-3.6-4.1-7.6 2.4-20 6.1-26.3 4.2-7.2 9.9-13.7 15.8-19.7 5.5-5.6 11.9-10.5 18.9-14.2-12.9 8.1-24 20-31.9 32.5-3.7 5.8-8 13.3-7.6 20.4 0.3 6.7 4.8 9.1 10.2 10.9z"/><path class="s" d="m92.5 22.3c-1.2 2.5-3.9 5-5.1 6.3-6.7 6.4-7.3 17.6-10.2 26.2-2.2 6.4-5.5 13.9-10.9 18.4-3 2.6-5.5 5.1-9.6 5.7-2.1 0.3-4.3 0.7-6.4 1.1 1.6 1 3.2 2.4 4.6 4.6 2.6 4.1 0.2 8.3-2.6 11.3q0.6-0.1 1.3-0.2c2.3-0.4 4.6 1.1 6.8 2.2-0.6-0.8-1.2-1.6-1.5-2.4q0-0.1 0-0.2c1.3 0 2.6 0 3.9 0.4 1.3 0.5 2.4 1.2 3.5 1.9 1.3 1.3 3.3 3.8 5.2 4.7-0.3-0.8-0.6-1.6-0.5-2.5q0.1-0.2 0.1-0.5 2.5 0.5 4.6 1.8c1.5 2 2.3 4.9 4.4 6.4 0.1 0.1 0.8-2.5 1.3-2.7q0.3 0 0.6 0 0.6 0.3 1.2 0.6c1.1 0.7 1.7 2.5 2.3 3.6 0.7 1.3 1.8 2 3 2.6 1.3 0.7 2.6 1.4 3.8 2.1 0.9 0.7 1.7 1.5 2.3 2.7 2.2 4.2-2.1 10.7-5.2 13q-1.5 1.1-3 1.9c-1.7 0.7-3.4 1.3-5.1 1.8-1.7 0.4-3.4 0.7-5.1 0.7q-1 0-1.9-0.2-0.3 0-0.7-0.1-0.3 0-0.6-0.1-0.6-0.1-1.3-0.2c2.1-2.3 3.1-5.2 1.2-7.6-1.2-1.4-2.9-1.5-3.9-3.2-1-1.9 1.4-3.3 2.7-4.1 2.2-1.2 4.8-2.1 6.4-4.1 0.2-0.3 0.1-0.6-0.1-0.8-2.2-1.7-4.6-2.8-6.9-4.2-2.1-1.3-4.1-3-6.5-3.9-0.4-0.1-0.8 0.2-0.7 0.6 0.1 1.1 0.3 2.2 0.5 3.2-3.6-2.1-6.4-5.3-10.1-7.3-4.5-2.3-8.2 0.2-12.7 0.2 1.3-2.3 4.4-3.4 5.8-5.6 1.6-2.4 1.7-5.3 1-8-0.7-2.9-2.7-5.3-5.2-6.8-1.5-1-3.6-1.2-5.5-1.5 6.9-0.9 13.1-3.6 18.5-8.5 6.1-5.5 11.7-12.9 14.6-20.7 1.3-3.6 2-7.4 3.7-10.9 2-3.9 5.1-7.1 8.5-9.9 3.2-2.6 8.8-5.9 8.3-10.5 0.4-0.1 0.7-0.1 1 0.2 0.6 0.5 0.5 1.5 0.2 2.5z"/><path class="m" d="m168.7 174.8q0-0.1 0.1-0.1c4.2-0.1 10.6 3.2 12.3 7.4 1.4-0.5 5.3 1.8 5.9 2.6 2.9 3.5 1.5 6.1-0.3 9.3 6.1 5.6 11.3 17.3 4.5 22.3-0.1 3.2-3.2 6.8-5.2 9-1.2 0.9-2.4 1.6-3.6 1.9q-1.2 0.3-2.3 0.3c-1.4-0.1-2.8-0.6-4-1.3-2.3-1.4-5-3.7-5.2-6.6-0.4-4.5 3.6-5.8 5.9-8.6-0.3-3.1 0.4-6.3 0.8-9.2 0.8-7.6-6.8-10.2-11.9-13.2q-0.4-0.1-0.7-0.1c-4.7-0.8-11.4-2.7-10.9-8.5 0.4-6.2 8.7-6.4 14.6-5.2z"/><path class="n" d="m186.8 218.1q1.7-0.3 3-1c-1 2.1-3.1 4.3-4.4 5.7-1.8 1.9-4.8 3.7-7.6 2.7-4.2-1.5-7.8-6-4.1-9.7 0.8-0.8 1.7-1.5 2.7-2.3q0.4-0.3 0.8-0.7c1.1 4 5.7 6.2 9.6 5.3z"/><path class="o" d="m187.2 218q1.5-0.3 2.6-0.9c-1 2.1-3.1 4.3-4.4 5.7-1.3 1.4-3.2 2.7-5.2 2.9 3-1.8 5.4-4.6 7-7.7z"/><path class="n" d="m168.7 188.9c5.3 0.4 13.2 0 12.9-4.9 2.9-0.2 7.5 2.8 5 6.3-1.5 1.9-1.2 1.2-2.1 2.6-0.3 0.6 0.6 1.5 0.9 1.7 5 3.7 11.5 15.6 4.1 19.9-3.9 2.3-11 2.6-10.8-4.2 0.1-3 0.7-6 0.6-9.1-0.1-6.2-5.5-9.8-10.6-12.3z"/><path class="o" d="m189.8 210.8c0.6-3.8-0.7-7.5-2.9-10.6-1.3-1.9-3.3-3.4-4.4-5.4-1.1-2 0.7-3.3 0.5-5.2-0.2-1.2-1.2-2.1-2.5-2.8 0.7-0.7 1.1-1.6 1.1-2.8 2.9-0.2 7.5 2.8 5 6.3-1.5 1.9-1.2 1.2-2.1 2.6-0.3 0.6 0.6 1.5 0.9 1.7 5 3.7 11.5 15.6 4.1 19.9q-0.4 0.2-0.9 0.4 0.8-2 1.2-4.1z"/><path class="n" d="m155 182c0.5-3.3 2.4-4.8 5.4-5.6 4.4-1.3 8.4-0.8 12.5 0.5 1.9 0.9 3.7 2 5.1 3.2 4.8 4.2-2 7.4-4.8 7.8-1.4 0.3-3.1 0.3-4.8 0.2-2.2 0-4.3-0.4-6.3-1.1q-0.3-0.1-0.6-0.2c-1.5-0.5-6.9-2.2-6.5-4.8z"/><path class="o" d="m178.1 185.7c-1.4-0.5-2.7-0.9-3.6-1.3-4-2.3-7.9-4.9-11.5-7.8q-0.3-0.3-0.8-0.7c3.7-0.6 7.1-0.1 10.7 1 1.9 0.9 3.7 2 5.1 3.2 2.6 2.3 1.8 4.2 0.1 5.6z"/><path class="m" d="m176.1 169q0.5-0.4 1.1-0.7c1.6-0.8 3.7-1.2 5.5-1.3 6.8-1.2 14.4 0.8 20.1 4.4 2.6 1.6 5.5 4.7 6.3 7.5 1.8 0.4 4.7 3.2 5.2 4.4 2.4 6.3 5.1 14.7 3.1 21.5-0.8 3.6-1.9 7.4-4.1 10.4-1 1.3-4.5 6.9-6.6 5.8-1.7-0.9-1-3.3-0.7-4.7 1-4.8 3.1-9 5.4-13.3-0.6-1.5-1-3.3-1.5-4.4-1.8-4.4-3.8-8.7-5.7-13.1q-0.3-0.7-0.5-1.3c-0.6-0.2-1.3-0.6-1.7-0.8-2.4-1.4-4.4-3.2-6.9-4.4-3.7-1.9-7.5-3.2-11.5-4.1-2.5-0.5-5.1-0.5-7.4-1.7-1.2-0.6-1.2-1.8-0.9-2.9q0.2-0.7 0.8-1.3z"/><path class="n" d="m212.3 204.9q0-0.1 0.1-0.2 0.1 0.1 0.1 0.2 0.2-0.1 0.3-0.1c1.3-0.1 3.2 0.3 2.8 2-0.5 3.3-2.3 6.4-4.1 9.2-0.9 1.2-1.9 2.9-3.4 3.5q-0.1 0-0.2 0.1c-0.1 0.1-0.3 0.1-0.5 0q-0.1 0.1-0.1 0.1c-0.4 0-0.6-0.3-0.6-0.6-0.1-2.2 1-4.5 1.8-6.6q0 0 0 0 0.1-0.2 0.1-0.4 0.1-0.1 0.1-0.1c0.6-1.8 0.9-4.4 2.3-5.7 0.3-0.6 0.7-1.2 1.3-1.4z"/><path class="o" d="m210.3 215.4c1.5-3.3 2.8-6.9 3.5-10.5 1.1 0.1 2.1 0.6 1.8 1.9-0.5 3.3-2.3 6.4-4.1 9.2-0.8 1.1-1.7 2.5-2.9 3.2 0.7-1.3 1.2-2.6 1.7-3.8z"/><path class="n" d="m205.6 184.2c2.5-0.8 3.5-2.1 3.6-3.7 3.8-1 6 9.8 6.4 12.2 0.3 1.4 0.5 2.9 0.6 4.4q0.3 1.2 0.5 2.3c0.2 1.4 0.2 3.3-1.5 3.8-1.6 0.4-3-1-3.5-2.4q-0.5-1.7-1-3.5-1.1-2.8-2.3-5.6c-0.6-1.5-3.7-5.6-2.8-7.5z"/><path class="o" d="m214.2 202.8c1.1-7.6-1-14.4-5.9-20.1q0.9-1 0.9-2.2c3.8-1 6 9.8 6.4 12.2 0.3 1.4 0.5 2.9 0.6 4.4q0.3 1.2 0.5 2.3c0.2 1.4 0.2 3.3-1.5 3.8q-0.6 0.1-1.1 0 0.1-0.2 0.1-0.4z"/><path class="n" d="m178.2 170q1.2-0.7 2.3-1.2c5.8-0.8 10.9-0.3 16.5 1.7 3.9 1.4 7.9 2.8 10 6.6q0.2 1.4 0.2 2.4c0.1 1.6-0.4 3-2.4 3.2-1.5 0.2-2.8-0.4-4-1.3q-0.1-0.1-0.2-0.1-1.2-1.1-2.7-1.9c-3.8-2.4-8.4-4.3-12.8-5.3-1-0.2-11.1-1.9-6.9-4.1z"/><path class="o" d="m187 168.8q-0.5-0.2-1-0.3c3.7 0 7.2 0.7 11 2 3.9 1.4 7.9 2.8 10 6.6q0.2 1.4 0.2 2.4c0 0.6 0 1.3-0.3 1.8-5.4-5.6-12.5-10.2-19.9-12.5z"/><path class="m" d="m184.4 154.3c-0.1-0.1-0.1-0.2 0-0.2q0.2 0 0.4 0c0.8-0.5 1.9-0.6 3.4-0.4q0.2 0 0.4 0.2c9.9 0.1 20.3 3.3 29.3 7 2.3 0.9 6.4 2.4 7.6 4.9 2.7 3.4 3.5 8.5 4.6 12.5 1 3.3 3.8 11.8 0.4 14.5-0.3 0.2-0.7-0.2-0.9-0.3-2.5-2.4-2.8-6.1-3.2-9.3-0.8-6.7-3.9-11.7-8.4-16.2-3.3-1.5-6.5-3-9.9-4.2-6.5-2.3-13.3-0.9-19.9-1.7-4.4-0.5-6.2-5-3.8-6.8z"/><path class="n" d="m220.7 168.2q1.3 0.6 2.7 1.1c1.8 0.7 2.5-0.3 2.5-1.6 0.9 2 1.5 4.3 2.1 6.6q1.3 4.4 2.4 9c0.5 2.2 1.2 5.3 0.1 7.4-0.2 0.3-0.6 0.4-0.8 0.2-1.7-1.2-1.7-3.8-1.9-5.7-0.1-2-0.3-4-0.7-5.9-1.4-4.3-3.4-8.1-6.4-11.1z"/><path class="o" d="m230.5 190.7c-0.8-1.5-0.8-3.8-1.1-5.4-0.5-2.3-1-4.6-1.6-6.9-0.9-3-2-6.3-3.8-8.9 1.3 0.3 1.9-0.7 1.9-1.8 0.9 2 1.5 4.3 2.1 6.6q1.3 4.4 2.4 9c0.5 2.2 1.2 5.3 0.1 7.4q0 0 0 0z"/><path class="n" d="m186 157.1c-0.2-2.1 1.5-2.5 3.2-2.3 4.5 0.2 8.9 1.3 13.2 2.4 5.1 1.2 10.2 2.8 15.1 4.5 1.3 0.4 4.6 1.8 6 3.4 0.7 0.4 1.3 1 1.1 1.8-0.3 1.2-1.3 1.5-2.5 1-3.1-1.4-6.2-3-9.3-4.5q-0.1-0.1-0.2-0.2c-3.4-1.4-6.9-2.5-10.6-3.1-3-0.5-6.1-0.5-9.2-0.5-1.8 0-4.8 0.4-6.4-0.1q-0.3-1.3-0.3-2.2-0.1-0.1-0.1-0.2z"/><path class="o" d="m222.8 168.1c-3.5-3.8-8.2-6.1-12.5-8.8q3.6 1.2 7.2 2.4c1.3 0.4 4.6 1.8 6 3.4 0.7 0.4 1.3 1 1.1 1.8-0.2 0.9-0.9 1.4-1.8 1.2z"/><path class="m" d="m202.4 132.2c3.1-0.3 7.1 0.1 9.8-1.6q0.1 0 0.2 0 0-0.1 0-0.1c0.9-0.7 1.7-1.7 2.3-2.9 1-1.1 1.8-2.3 2.5-3.8q0.3-0.6 0.6-1.3 0-0.1 0-0.2c0.7-2.7 1.4-4.7 0.7-7.5-0.5-2.2-1.1-4.5-1.3-6.7-0.1-0.5-0.1-1.3 0-2q0.3-0.4 0.8-0.7c0.7-0.4 1.4-0.4 2.1-0.2 2.7 2.1 5.1 7.2 5.6 10.8q0.1 0.1 0.1 0.2c1.9 3-0.3 9-1.1 12-0.6 2.4-2.7 8.4-5.7 7.9-1.5 1.3-4.8 1.8-6 2.1-6 1.7-11.8 4.1-17.5 6.8-3.1 1.5-5.5 2.4-8.1 1.2-2.3 0.3-4.5-4.9-4.1-8 2.6-6.2 13.5-5.6 19.1-6z"/><path class="n" d="m224.6 115.2c-1.3-0.6-3.2-0.1-3.9 1.2q-0.2 0.4-0.5 0.8c-0.5-2.9-2-5.9-1.7-8.8 0.4-4.1 3.5 0.9 4.1 2 0.9 1.5 1.5 3.1 2 4.8z"/><path class="o" d="m219.7 106.9c1 0.4 2.5 2.8 2.9 3.5 0.9 1.5 1.5 3.1 2 4.8-0.6-0.3-1.3-0.3-2-0.1-0.5-2.9-1.5-5.7-2.9-8.2z"/><path class="n" d="m214.9 130.7c-0.5 0-0.8-0.6-0.5-1 3-2.7 4.3-6.4 6.2-9.9 0.3-0.5 0.8-1.4 1.4-2.1q0.2-0.2 0.4-0.4c0.6-0.5 1.1-0.7 1.8-0.6 3.1 0.9 1.4 6-0.6 10.3q-0.3 1.4-0.8 2.7c-0.7 1.8-1.3 3.7-2.9 4.9q-0.1 0-0.2 0 0 0.1 0 0.1 0 0 0-0.1c-0.3 0.1-0.6-0.1-0.7-0.4-0.5-2.2-1.7-3.6-4.1-3.5z"/><path class="o" d="m218.7 131.1c3.5-4.1 4.7-9.1 4.2-14.1 0.4-0.3 0.8-0.4 1.3-0.3 3.1 0.9 1.4 6-0.6 10.3q-0.3 1.4-0.8 2.7c-0.7 1.8-1.3 3.7-2.9 4.9q-0.1 0-0.2 0 0 0.1 0 0.1 0 0 0-0.1c-0.3 0.1-0.6-0.1-0.7-0.4q-0.3-1.4-1.1-2.3 0.4-0.4 0.8-0.8z"/><path class="n" d="m186.2 137l1.1-0.7q1.9-1 4-1.5c2.9-0.8 5.6-1 8.6-1.1 2.9-0.2 6.1-0.2 9-0.7 1.6-0.3 3.2-0.6 4.8-0.7q2.9-0.8 3.7 2.7c-4.2 2.2-9.6 3.2-14.1 4.8-4.6 1.6-10.9 6.6-15.9 5.1q-5.3-4.5-1.2-7.9z"/><path class="o" d="m205.7 136.9c3.3-1.3 7.6-1.9 10.8-3.9q0.6 0.7 0.9 2c-4.2 2.2-9.6 3.2-14.1 4.8-2.4 0.8-5.3 2.6-8.3 3.9 3.2-2.8 6.6-5.2 10.7-6.8z"/><path class="m" d="m148 19.8c0.9-0.9 2.3 0.6 3 1.1q0 0 0 0c0.6 0.5 1.2 1.1 2 1.4 1.6 0.6 2.9-0.7 4.3 1 1.9 2.3 0.6 5.9 6 5.6 1.2-0.1 2.2-1.1 3.4 0.4 1.4 1.7 3.4 6.9 5 7.4 2.4 0.7 3.5 0.2 5.1 2.3 1.7 2.2 1.8 6 5.2 6.7 0.9 0.1 7.5 0.5 2.7-3.3-0.8-0.6-1.8-1-2.4-1.7-0.5-0.6-0.9-1.8-0.9-2.5 0.3-5.4-4.1-7.7-8.1-9.9-1.2-0.6-1.7-1.3-2-2.6-1.1-4-1.5-5-5.6-6.9-3-1.4-3-4.4-6.4-5.9-2.3-1-5.2-0.9-5.3-4 2.2-1.3 9.2 1.3 10.7 1.7q1.5 0.5 3 1.1c3.5 1.8 6.7 4 9.3 5.8 8.8 6.1 16.1 14.4 22.6 22.7 5.5 7.2 9.7 15.4 11.7 24.2 0.8 3.7 1.4 10.5-1.8 13.2 4 0.4 4.3 7.4 3.8 10.5-0.6 3.9-4.2 17.9-10.2 17.5 0.7 1.2 0.9 2.6 0.3 4.6-2.1 7.5-11.8 12.6-18.1 16.1-5 2.8-10.7 5.5-16.6 6.8q-0.7 0.2-1.4 0.3-0.3 0.1-0.6 0.1-0.3 0.1-0.7 0.1-0.9 0.2-1.9 0.2c-1.7 0-3.4-0.3-5-0.7-1.8-0.5-3.5-1.1-5.2-1.8q-1.5-0.8-3-1.9c-3.1-2.3-7.4-8.8-5.2-13 0.6-1.2 1.4-2 2.3-2.7 1.2-0.7 2.6-1.4 3.8-2.1 1.2-0.6 2.3-1.3 3-2.6 0.6-1.1 1.2-2.9 2.3-3.6q0.6-0.3 1.2-0.6 0.3 0 0.6 0c0.5 0.2 1.2 2.8 1.4 2.7 2-1.5 2.8-4.4 4.4-6.4 1.3-0.9 2.8-1.5 4.5-1.8q0.1 0.3 0.1 0.5c0.1 0.9-0.2 1.7-0.5 2.5 1.9-0.9 3.9-3.4 5.2-4.7 1.1-0.7 2.3-1.4 3.5-1.9 1.3-0.4 2.6-0.4 3.9-0.4q0 0.1 0 0.2c-0.3 0.8-0.9 1.6-1.5 2.4 2.2-1.1 4.5-2.6 6.8-2.2q0.7 0.1 1.4 0.2c-2.9-3-5.3-7.2-2.7-11.3 1.4-2.2 3-3.6 4.6-4.6-2.1-0.4-4.3-0.8-6.4-1.1-4.1-0.6-6.5-3.1-9.6-5.7-5.3-4.5-8.6-12-10.9-18.4-2.9-8.6-3.4-19.8-10.1-26.2-1.3-1.3-4-3.8-5.2-6.3-0.2-1-0.4-2 0.2-2.5z"/><path class="p" d="m195 100.8c1.6 1.2 9.3 4.9 7.6 7.9-1.7 3.1-3.5 5.9-6.3 8.2-6.7 5.2-15.7 11.3-25 14.3-4.4 0.3-9.6 1.9-13.9 0-5.5-2.4-17-11.3-7-16.8 1.2-0.7 2.8-1.4 3.8-2.3 1.6-1.5 2.1-3.6 3.8-4.9 0.7-0.6 1.4 2 1.9 2.4 0.1 0.2 0.3 0.3 0.5 0.2 3.1-2.3 3.8-7.9 7.8-9-0.3 0.8-0.7 1.7-0.6 2.6 0.1 0.3 0.3 1.2 0.8 1.1 2-0.3 4.2-3.1 5.5-4.4 1.6-1.5 3.3-3 5.2-3.9-0.6 0.9-1.1 1.8-1.2 2.8-0.1 0.4 0.1 1.8 0.7 1.6 2.3-0.8 4.5-2.6 6.9-2.9 2.9-0.2 7.2 1.3 9.5 3.1z"/><path class="p" d="m191.2 81.2c4.1-2.3 9.6-1.1 14.1-0.9 2.2-0.4 5.8-1.7 6.7 1.8 0.9 3.3 0 9.3-1.6 12.3q-0.5 0.9-1 1.9c-0.9 2.9-2.3 5.5-4.7 7.6-1.2 1-2 0.9-2.7 0.3-1.4-1.4-3.5-2.6-5.5-4-2-1.6-4.4-2.9-6.9-3.8-2.3-3.1-7.1-6.3-2.6-11.4q0.7-0.7 1.4-1.5c0.7-0.9 1.6-1.7 2.8-2.3z"/><path class="n" d="m151 22.9c2 1.6 6.2 2 6.8 4.5 0.3 0.9 0.8 2.3 1.7 2.8 2 1 2.9 0.9 5.1 0.5 3.2-0.5 3.4 5.1 4.9 6.6 2.6 2.5 6 1 7.9 5.5 0.5 1.2 1.4 3.1 2.4 4 1.8 1.6 7.5 2.2 8.1-1.1 0.7-4.1-5.1-5.5-5.3-9.4-0.1-1.9-1.1-3.7-2.4-5.3-2.2-1.3-5.1-2.1-6.6-4.2-0.9-1.3-1.3-2.8-1.8-4.3-0.8-1.5-1.7-2.9-3.2-3.9-1.4-1-4-1.9-4.5-3.6-0.3-0.8-0.7-2.2-1.5-2.7-1-0.7-2.6-0.9-4.1-1.3q0.1 0 0.1 0c2.4 0.6 5.2 1.1 6.2 1.5 8.6 3.8 16.4 9.5 23 16.2 5.9 6 11.6 12.5 15.8 19.7 3.7 6.3 10.2 18.7 6.1 26.3-0.5 1.8-2 3.3-3.9 3.6-1.4 0.2-2.9 0.1-4.3 0q-1.7 0-3.3 0-1 0.1-1.9 0.1c-1.3 0.1-2.6 0.2-3.8 0.6-3.1-1.2-6.2-2.2-9.3-3-3.9-1-6.3-2.9-9.2-5.5-6.5-5.8-9.6-15.3-12-23.3-1.7-5.8-2.3-11.9-5.7-17-1.4-2-3.3-3.9-5-5.6-1.9-2-3.8-4.4-0.3-1.7z"/><path class="q" d="m151 22.9c2 1.6 6.2 2 6.8 4.5 0.3 0.9 0.8 2.3 1.7 2.8 2 1 2.9 0.9 5.1 0.5 3.2-0.5 3.4 5.1 4.9 6.6 2.6 2.5 6 1 7.9 5.5 0.5 1.2 1.4 3.1 2.4 4 1.8 1.6 7.5 2.2 8.1-1.1 0.7-4.1-5.1-5.5-5.3-9.4-0.1-1.9-1.1-3.7-2.4-5.3-2.2-1.3-5.1-2.1-6.6-4.2-0.9-1.3-1.3-2.8-1.8-4.3-0.8-1.5-1.7-2.9-3.2-3.9-1.4-1-4-1.9-4.5-3.6-0.3-0.8-0.7-2.2-1.5-2.7-1-0.7-2.6-0.9-4.1-1.3q0.1 0 0.1 0c2.4 0.6 5.2 1.1 6.2 1.5 8.6 3.8 16.4 9.5 23 16.2 5.2 5.3 10.2 10.9 14.2 17.1-2.5-1.6-5.3-2.1-8 0.2-2.2 1.8-2.6 5.1-3.5 7.6-0.4 1.3-1 3.1-2.5 3.5-2.1 0.6-4.7-0.4-6.4-1.7-3.3-2.4-10.7-10.8-14.2-4-1.4 2.8-1.4 5.8-0.7 8.8-2-4.2-3.4-8.8-4.7-13-1.7-5.8-2.3-11.9-5.7-17-1.4-2-3.3-3.9-5-5.6-1.9-2-3.8-4.4-0.3-1.7z"/><path class="o" d="m185.7 120.8c3-2.1 5.9-4.3 8.5-6.8 1.9-1.7 4.1-3.8 4.5-6.4 0.4-2.1-0.1-3.7-1-5.1 2.7 1.7 6.1 4.1 4.9 6.2-1.7 3.1-3.5 5.9-6.3 8.2-6.7 5.2-15.7 11.3-25 14.3-2.9 0.2-6.1 1-9.2 0.9 8.5-2 16.8-6.4 23.6-11.3z"/><path class="o" d="m209 87.4c-0.1-5.1-4.9-7.1-10.1-7.6 2.2 0.1 4.4 0.4 6.4 0.5 2.2-0.4 5.8-1.7 6.7 1.8 0.9 3.3 0 9.3-1.6 12.3q-0.5 0.9-1 1.9c-0.9 2.9-2.3 5.5-4.7 7.6-1.2 1-2 0.9-2.7 0.3-0.5-0.5-1.2-1-1.9-1.5 5.8-0.6 8.9-10.5 8.9-15.3z"/><path class="r" d="m208.4 67.4c0.4-7.1-3.9-14.6-7.6-20.4-7.9-12.5-19-24.4-31.9-32.5 7 3.7 13.4 8.6 18.9 14.2 5.9 6 11.6 12.5 15.8 19.7 3.7 6.3 10.2 18.7 6.1 26.3-0.5 1.8-2 3.3-3.9 3.6-1.4 0.2-2.9 0.1-4.3 0q-1.7 0-3.2 0c5.3-1.8 9.8-4.2 10.1-10.9z"/><path class="s" d="m148 19.8c0.3-0.3 0.6-0.3 1-0.2-0.5 4.6 5.1 7.9 8.3 10.5 3.4 2.8 6.5 6 8.5 9.9 1.7 3.5 2.4 7.3 3.7 10.9 2.9 7.8 8.5 15.2 14.6 20.7 5.5 4.9 11.6 7.6 18.5 8.5-1.9 0.3-4 0.5-5.5 1.5-2.5 1.5-4.5 3.9-5.2 6.8-0.7 2.7-0.6 5.6 1 8 1.4 2.2 4.5 3.3 5.8 5.6-4.5 0-8.2-2.5-12.7-0.2-3.7 2-6.5 5.2-10.1 7.3 0.2-1 0.4-2.1 0.6-3.2 0-0.4-0.4-0.7-0.8-0.6-2.4 0.9-4.3 2.6-6.5 3.9-2.3 1.4-4.7 2.5-6.9 4.2-0.2 0.2-0.3 0.5-0.1 0.8 1.6 2 4.2 2.9 6.4 4.1 1.4 0.8 3.7 2.2 2.7 4.1-0.9 1.7-2.7 1.8-3.9 3.2-1.9 2.4-0.9 5.3 1.2 7.6q-0.7 0.1-1.3 0.2-0.3 0.1-0.6 0.1-0.3 0.1-0.7 0.1-0.9 0.2-1.9 0.2c-1.7 0-3.4-0.3-5-0.7-1.8-0.5-3.5-1.1-5.2-1.8q-1.5-0.8-3-1.9c-3.1-2.3-7.4-8.8-5.2-13 0.6-1.2 1.4-2 2.3-2.7 1.2-0.7 2.6-1.4 3.8-2.1 1.2-0.6 2.3-1.3 3-2.6 0.6-1.1 1.2-2.9 2.3-3.6q0.6-0.3 1.2-0.6 0.3 0 0.6 0c0.5 0.2 1.2 2.8 1.4 2.7 2-1.5 2.8-4.4 4.4-6.4 1.3-0.9 2.8-1.5 4.5-1.8q0.1 0.3 0.1 0.5c0.1 0.9-0.2 1.7-0.5 2.5 1.9-0.9 3.9-3.4 5.2-4.7 1.1-0.7 2.3-1.4 3.5-1.9 1.3-0.4 2.6-0.4 3.9-0.4q0 0.1 0 0.2c-0.3 0.8-0.9 1.6-1.5 2.4 2.2-1.1 4.5-2.6 6.8-2.2q0.7 0.1 1.4 0.2c-2.9-3-5.3-7.2-2.7-11.3 1.4-2.2 3-3.6 4.6-4.6-2.1-0.4-4.3-0.8-6.4-1.1-4.1-0.6-6.5-3.1-9.6-5.7-5.3-4.5-8.6-12-10.9-18.4-2.9-8.6-3.4-19.8-10.1-26.2-1.3-1.3-4-3.8-5.2-6.3-0.2-1-0.4-2 0.2-2.5z"/><path class="m" d="m98.8 102.2q-0.1-0.1-0.2-0.2-0.4 0.1-0.7-0.1c-2.7-1.9-4.5-5.4-6.4-8.2-0.9-1.3-2-2.5-2-3.7q-0.3-0.9-0.7-1.7c-0.1-0.3 0.5-1.1 0.8-0.8q0.3 0.3 0.6 0.7c0.3-0.4 1-1 1.5-0.9 2.1 0.6 3.1 3.9 4.2 5.5 1 1.7 2 3.4 3.4 4.8 0.6 0.7 1.6 1.3 1.8 2.2 0.2 0.7-1.5 3.3-2.3 2.4z"/><path class="m" d="m90 93.6c-4.3-0.1-7.7-3.6-7.7-8 0.1-4.3 3.7-7.7 8-7.6 4.3 0 7.7 3.6 7.6 7.9 0 4.3-3.6 7.8-7.9 7.7z"/><path class="a" d="m96.6 85.9c0 3.6-2.9 6.6-6.5 6.6-3.6 0-6.6-3-6.6-6.6 0-3.5 3-6.5 6.6-6.5 3.6 0 6.5 3 6.5 6.5z"/><path class="m" d="m93.2 85.3c0.7 2.2 0 4.5-1.7 5.1-1.7 0.5-3.6-0.8-4.4-3-0.8-2.3 0-4.6 1.7-5.1 1.6-0.6 3.6 0.8 4.4 3z"/><path class="a" d="m89.6 84.8c0.2 0.6 0 1.3-0.5 1.5-0.5 0.2-1.1-0.2-1.4-0.9-0.2-0.7 0-1.4 0.6-1.6 0.5-0.1 1.1 0.3 1.3 1z"/><path class="m" d="m141.3 99.8c0.3-0.9 1.2-1.5 1.8-2.2 1.4-1.4 2.4-3.1 3.5-4.8 1-1.6 2.1-4.9 4.1-5.5 0.5-0.1 1.2 0.5 1.5 0.9q0.3-0.4 0.7-0.7c0.2-0.3 0.8 0.5 0.7 0.8q-0.3 0.8-0.7 1.7c0 1.2-1 2.4-2 3.7-1.8 2.8-3.7 6.3-6.4 8.2q-0.3 0.2-0.7 0.1-0.1 0.1-0.2 0.2c-0.8 0.9-2.5-1.7-2.3-2.4z"/><path class="m" d="m144.5 85.9c-0.1-4.3 3.4-7.9 7.7-7.9 4.3-0.1 7.8 3.3 7.9 7.6 0.1 4.4-3.4 7.9-7.7 8-4.3 0.1-7.8-3.4-7.9-7.7z"/><path class="a" d="m152.4 79.4c3.6 0 6.5 3 6.5 6.5 0 3.6-2.9 6.6-6.5 6.6-3.6 0-6.5-3-6.5-6.6 0-3.5 2.9-6.5 6.5-6.5z"/><path class="m" d="m153.7 82.3c1.7 0.5 2.4 2.8 1.6 5.1-0.7 2.2-2.7 3.5-4.4 3-1.6-0.6-2.4-2.9-1.6-5.1 0.7-2.2 2.7-3.6 4.4-3z"/><path class="a" d="m154.2 83.8c0.5 0.2 0.7 0.9 0.5 1.6-0.2 0.7-0.8 1.1-1.3 0.9-0.6-0.2-0.8-0.9-0.6-1.5 0.3-0.7 0.9-1.1 1.4-1z"/><path class="m" d="m219.9 156.9c-2.1 2.4-5.9 2.5-8.8 3.2-5.1 1.2-9.6 2.8-13.9 6-3.9 2.9-7.4 6.1-11.2 8.8-7.9 7.7-21.6 11-31.7 12.8-4.8 0.9-9.6 1.3-14.4 1.8q-0.7 0-1.5 0c-6.6 1-13.3 0.8-20 0.8-3.7 0-7.5 0.1-11.2-0.3-1.5-0.1-3.4-0.2-5.3-0.5q-0.7 0-1.5 0c-4.8-0.5-9.6-0.9-14.4-1.8-10.1-1.8-23.8-5.1-31.7-12.8-3.8-2.7-7.3-5.9-11.2-8.8-4.3-3.2-8.8-4.8-13.9-6-2.9-0.7-6.7-0.8-8.7-3.2-0.4-0.4 0.1-1.2 0.3-1.5 2.4-3.1 8.7-1.4 11.9-1.7 5.1-0.3 15-6.1 11.1-12.5-0.2-1.6-0.9-3-1.6-4.6 1.9-0.1 3.8-0.5 5.3-1.4 2.9-1.7 2-5.1 1-7.9 2.5-0.2 5-0.7 6.9-2.2 1-0.4 1.4-1 1.5-1.7 0.8-1.7 0.9-3.8 0.3-5.4q0-0.1 0.1-0.2c1.8 0.4 3.7 0.3 5.1-0.4 1-0.5 1.8-1.3 1.9-2.5 0.1-0.8-0.1-1.6-0.4-2.4-0.6-1.5-0.7-2.7-0.5-4.2 1.8-2.2 5.5 0.1 7.8-0.5 5.9-1.7 11.1-7.1 16.5-10.1 4.7-2.6 9.4-4.7 14.6-5.9 1.3 0.2 2.8 0 3.1-1.5 0.1-0.7 0.1-1.5 0.2-2.3q0.3-0.4 0.6-0.7 0.1-0.1 0.2-0.2c1.3 1.2 3.3 3.8 4.6 3 0.8-0.5 1.1-1.7 1.4-2.6 0.3-0.8 0.7-1.8 1.1-2.6q0.6-0.4 1.4-0.5c0.7-0.2 1.4 1.4 1.6 1.9 1 1.9 2 2.9 3.7 3.8 1.6-0.9 2.6-1.9 3.6-3.8 0.2-0.5 0.9-2.1 1.7-1.9q0.7 0.1 1.3 0.5c0.5 0.8 0.8 1.8 1.1 2.6 0.3 0.9 0.6 2.1 1.4 2.6 1.3 0.8 3.3-1.8 4.6-3q0.1 0.1 0.2 0.2 0.3 0.3 0.6 0.7c0.1 0.8 0.1 1.6 0.2 2.3 0.3 1.5 1.8 1.7 3.1 1.5 5.2 1.2 9.9 3.3 14.6 5.9 5.4 3 10.6 8.4 16.6 10.1 2.2 0.6 5.9-1.7 7.7 0.5 0.2 1.5 0.1 2.7-0.5 4.2-0.3 0.8-0.5 1.6-0.4 2.4 0.1 1.2 0.9 2 1.9 2.5 1.4 0.7 3.3 0.8 5.1 0.4q0.1 0.1 0.1 0.2c-0.6 1.6-0.5 3.7 0.3 5.4 0.1 0.7 0.5 1.3 1.5 1.7 1.9 1.5 4.4 2 6.9 2.2-1 2.8-1.8 6.2 1 7.9 1.5 0.9 3.4 1.3 5.3 1.4-0.7 1.6-1.4 3-1.6 4.6-3.8 6.4 6 12.2 11.1 12.5 3.2 0.3 9.5-1.4 11.9 1.7 0.3 0.3 0.7 1.1 0.4 1.5z"/><path class="p" d="m204.7 158.8c-3.3 1.2-6.6 2.7-9.4 5-3 2.5-6.1 5.2-9.3 7.7-6.1 5.3-12.9 9.2-20.8 11.6-6.6 2.1-13.4 3.1-20.1 3.8-7.3 2-15.2 2.5-22.4 2.3-5.9-0.1-11.8-0.4-17.6-0.8-3.1-0.2-6.2-0.6-9.1-1.4-7-0.7-14-1.7-20.9-3.9-7.9-2.4-14.7-6.3-20.7-11.6-3.3-2.5-6.4-5.2-9.4-7.7-2.8-2.3-6.1-3.8-9.4-5-3.3-1.3-8.4-1-11.7-2.8 2.8 0 7.6 0.6 9.1 0.3 3.6-0.7 6.8-2.2 9.3-4.9 1.9-2 3.9-5.2 4.4-8 0.6-3.1-1.3-4-2.3-6 2.4-0.3 5-0.2 6.4-2.3 1.6-2.4 0.7-4.1-0.9-6.3 0.8 1.1 7.1-1.8 8.2-3.2 0.9-1.1 1.2-1.9 1.4-3.3 0.1-0.4-0.3-1.6-0.6-2.4 2.5 0 4.6-0.3 6.4-2.6 0.4-0.4 0.6-0.8 0.8-1.2 0-0.9-0.3-1.8-0.8-2.8-0.4-0.8-0.8-1.6-1-2.5-0.3-1.1 0.6-1.6 1.5-1.8 0.9-0.1 1.7 0.3 2.6 0.3 1.5 0 3.1-0.3 4.6-0.7q1.2-0.4 2.4-0.8 0.9-0.5 1.7-1.3c7.5-6.1 17.5-11.5 27.1-12.8 0.7-0.1 1.3-0.9 1.5-1.5 1-2.4 1.9-2.2 4.2-0.3 1.1 1 2.2-0.1 2.9-0.9 1.4-1.8 0.2-5.5 2.1-2.1 1.3 2.2 2.9 3.1 5.3 2.7 2.3 0.4 4-0.5 5.2-2.7 1.9-3.4 0.7 0.3 2.1 2.1 0.7 0.8 1.9 1.9 3 0.9 2.2-1.9 3.1-2.1 4.1 0.3 0.2 0.6 0.8 1.4 1.5 1.5 9.6 1.3 19.6 6.7 27.1 12.8q0.8 0.8 1.7 1.3 1.2 0.4 2.4 0.8c1.5 0.4 3.1 0.7 4.6 0.7 0.9 0 1.8-0.4 2.6-0.3 0.9 0.2 1.8 0.7 1.6 1.8-0.3 0.9-0.7 1.7-1.1 2.5-0.5 1-0.8 1.9-0.8 2.8 0.2 0.4 0.5 0.8 0.8 1.2 1.8 2.3 3.9 2.6 6.4 2.6-0.3 0.8-0.7 2-0.6 2.4 0.2 1.4 0.5 2.2 1.4 3.3 1.1 1.4 7.4 4.3 8.2 3.2-1.6 2.2-2.5 3.9-0.9 6.3 1.4 2.1 4 2 6.4 2.3-1 2-2.9 2.9-2.3 6 0.5 2.8 2.5 6 4.4 8 2.5 2.7 5.7 4.2 9.3 4.9 1.5 0.3 6.3-0.3 9.1-0.3-3.3 1.8-8.4 1.5-11.7 2.8z"/><path class="t" d="m216.4 156c-3.3 1.8-8.4 1.5-11.7 2.8-1.8 0.7-3.6 1.4-5.4 2.3 0.5-0.9 1.1-1.8 2-2.6 0.4-0.3 0.2-0.8-0.2-1-6.8-2.3-13.6-7.4-9.6-15.2 0.2-0.4-0.1-0.8-0.5-0.8-5.7-0.1-5.9-6.1-3.9-10.1 0.1-0.2 0.1-0.6-0.2-0.7-4-1.9-8.7-3.1-7.6-8.6 0.1-0.3-0.1-0.7-0.5-0.7-6.2 0.3-4.4-5.3-5-9.5-0.1-0.2-0.3-0.5-0.6-0.4-8.8 1.1-15.4-6.1-22.2-10.5-3.9-2.5-10.4-6.8-15.6-5.7-0.6-0.6-1.1-1.3-1.6-2.3-0.2-0.3-0.6-0.3-0.9-0.1-2.9 2.6-5.4 0.6-6.7-2.3-0.2-0.3-0.6-0.4-0.8-0.3-3.3 2.4-7 5.1-9.7 0.4-0.3-0.4-0.8-0.3-1 0-0.7 0.9-1.3 1.7-2 2.5-1.5 1.8-3.2 0.4-4.4-0.7-0.3-0.2-0.7-0.2-0.9 0.2-0.6 0.8-1.2 1.6-1.8 2.4-5-0.1-10.3 2-14.7 4.4-3.5 1.8-6.7 4-9.6 6.6-3.8 3.3-7.5 6-12.8 5.2-0.4-0.1-0.8 0.2-0.7 0.7 0.7 4.2-0.5 7.1-4.9 7.9-0.3 0-0.5 0.3-0.5 0.5 0.4 4.6-3.2 8.8-7.6 9.6-0.3 0.1-0.4 0.4-0.4 0.7 1 3.7-1.4 7.4-5.3 7.7-0.4 0-0.8 0.5-0.5 0.9 8.8 13.2-13.4 21.1-23.6 16.7 2.8 0.2 6.7 0.6 8 0.3 3.6-0.7 6.8-2.2 9.3-4.9 1.9-2 3.9-5.2 4.4-8 0.6-3.1-1.3-4-2.3-6 2.4-0.3 5-0.2 6.4-2.3 1.6-2.4 0.7-4.1-0.9-6.3 0.8 1.1 7.1-1.8 8.2-3.2 0.9-1.1 1.2-1.9 1.4-3.3 0.1-0.4-0.3-1.6-0.6-2.4 2.5 0 4.6-0.3 6.4-2.6 0.4-0.4 0.6-0.8 0.8-1.2 0-0.9-0.3-1.8-0.8-2.8-0.4-0.8-0.8-1.6-1-2.5-0.3-1.1 0.6-1.6 1.5-1.8 0.9-0.1 1.7 0.3 2.6 0.3 1.5 0 3.1-0.3 4.6-0.7q1.2-0.4 2.4-0.8 0.9-0.5 1.7-1.3c7.5-6.1 17.5-11.5 27.1-12.8 0.7-0.1 1.3-0.9 1.5-1.5 1-2.4 1.9-2.2 4.2-0.3 1.1 1 2.2-0.1 2.9-0.9 1.4-1.8 0.2-5.5 2.1-2.1 1.3 2.2 2.9 3.1 5.3 2.7 2.3 0.4 4-0.5 5.2-2.7 1.9-3.4 0.7 0.3 2.1 2.1 0.7 0.8 1.9 1.9 3 0.9 2.2-1.9 3.1-2.1 4.1 0.3 0.2 0.6 0.8 1.4 1.5 1.5 9.6 1.3 19.6 6.7 27.1 12.8q0.8 0.8 1.7 1.3 1.2 0.4 2.4 0.8c1.5 0.4 3.1 0.7 4.6 0.7 0.9 0 1.8-0.4 2.6-0.3 0.9 0.2 1.8 0.7 1.6 1.8-0.3 0.9-0.7 1.7-1.1 2.5-0.5 1-0.8 1.9-0.8 2.8 0.2 0.4 0.5 0.8 0.8 1.2 1.8 2.3 3.9 2.6 6.4 2.6-0.3 0.8-0.7 2-0.6 2.4 0.2 1.4 0.5 2.2 1.4 3.3 1.1 1.4 7.4 4.3 8.2 3.2-1.6 2.2-2.5 3.9-0.9 6.3 1.4 2.1 4 2 6.4 2.3-1 2-2.9 2.9-2.3 6 0.5 2.8 2.5 6 4.4 8 2.5 2.7 5.7 4.2 9.3 4.9 1.5 0.3 6.3-0.3 9.1-0.3z"/><path class="q" d="m216.4 156c-3.3 1.8-8.4 1.5-11.7 2.8-3.3 1.2-6.6 2.7-9.4 5-3 2.5-6.1 5.2-9.3 7.7-6.1 5.3-12.9 9.2-20.8 11.6-6.6 2.1-13.4 3.1-20.1 3.8-7.3 2-15.2 2.5-22.4 2.3-5.9-0.1-11.8-0.4-17.6-0.8-3.1-0.2-6.2-0.6-9.1-1.4-7-0.7-14-1.7-20.9-3.9-7.9-2.4-14.7-6.3-20.7-11.6-3.3-2.5-6.4-5.2-9.4-7.7-2.8-2.3-6.1-3.8-9.4-5-3.3-1.3-8.4-1-11.7-2.8 2.8 0 7.6 0.6 9.1 0.3 3.6-0.7 6.8-2.2 9.3-4.9 1.2-1.3 2.5-3 3.4-4.9 0.2-0.1 0.4-0.4 0.3-0.6q0.5-1.3 0.7-2.5c0.1-0.6 0.1-1.2 0.1-1.7 0.4 1.7 0.2 3.5-0.6 5.6-0.9 2.3-2 5-1.5 7.6 0.7 4.3 4.4 7.4 7.8 9.9 9.1 6.8 18 12.3 28.8 15.6 30 9.3 68.3 6 96.7-7.5 4.8-2.3 9.3-5.1 13.6-8.3 1.9-1.4 4-2.9 5-5q0.6-0.5 1.1-1.2c1.4-2.1 0.1-4.2-1.2-5.8-1.4-1.9-2.3-4.5-2.3-7 0.9 2.2 2.4 4.3 3.8 5.8 2.5 2.7 5.7 4.2 9.3 4.9 1.5 0.3 6.3-0.3 9.1-0.3z"/><path class="u" d="m216.4 156c-3.3 1.8-8.4 1.5-11.7 2.8-3.3 1.2-6.6 2.7-9.4 5-3 2.5-6.1 5.2-9.3 7.7-6.1 5.3-12.9 9.2-20.8 11.6-6.6 2.1-13.4 3.1-20.1 3.8-7.3 2-15.2 2.5-22.4 2.3-5.9-0.1-11.8-0.4-17.6-0.8-3.1-0.2-6.2-0.6-9.1-1.4-7-0.7-14-1.7-20.9-3.9-7.9-2.4-14.7-6.3-20.7-11.6-3.3-2.5-6.4-5.2-9.4-7.7-2.8-2.3-6.1-3.8-9.4-5-3.3-1.3-8.4-1-11.7-2.8 2.8 0 7.6 0.6 9.1 0.3 3.6-0.7 6.8-2.2 9.3-4.9 1.9-2 3.9-5.2 4.4-8 0.6-3.1-1.3-4-2.3-6 2.4-0.3 5-0.2 6.4-2.3 1.6-2.4 0.7-4.1-0.9-6.3 0.1 0.2 0.5 0.2 1 0.2 1 1 1.9 2.1 2.8 3.3 2.3 3.4 0 7.6-1.4 10.9-2 4.6-2.1 8.1 1.3 12.1 4.2 5 10.8 8.4 16.7 10.9 6.8 2.8 14 4.7 21.2 6 15.5 2.8 31.7 3 47.3 1.8 8.4-0.7 16.6-2.1 24.7-4.4 6.4-1.8 13.1-4.2 18.7-7.9 5.9-3.9 8.2-9.8 6.8-16.7-0.8-3.6-1.8-7.4-1.2-11.1 0.3-1.5 0.9-2.8 1.8-3.9-1 1.7-1.4 3.1-0.1 5.1 1.4 2.1 4 2 6.4 2.3-1 2-2.9 2.9-2.3 6 0.5 2.8 2.5 6 4.4 8 2.5 2.7 5.7 4.2 9.3 4.9 1.5 0.3 6.3-0.3 9.1-0.3z"/><path class="t" d="m111.9 138.3c-5.4 3.3-7.1-3.8-10.6-6.3-7.9-5.6-17.1 4.1-23.3 8.4-5.3 3.6-11 7.9-16.9 10.6-3.2 1.5-7.2 1-8.2-3-0.1-0.2 0.4-0.8 0.6-0.5 4.9 8.9 27-11.8 32-14.6 4.6-2.7 9.3-5.8 14.8-4.6 4.7 1 6.4 10.5 11.9 8.8 0.7-0.2-0.1 1-0.3 1.2z"/><path class="t" d="m132.8 137.1c5.5 1.7 7.2-7.8 11.9-8.8 5.5-1.2 10.2 1.9 14.8 4.6 5 2.8 27.1 23.5 32 14.6 0.2-0.3 0.7 0.3 0.6 0.5-1 4-5 4.5-8.2 3-5.9-2.7-11.6-7-16.9-10.6-6.2-4.3-15.4-14-23.3-8.4-3.5 2.5-5.2 9.6-10.6 6.3-0.2-0.2-1-1.4-0.3-1.2z"/></svg>