<svg version="1.2" xmlns="http://www.w3.org/2000/svg" viewBox="0 0 470 350" width="0" height="180"><style>.a{fill:#fff}.b{fill:#f1f1f1}.c{fill:#e2e2e2}.d{fill:#d4d4d4}.e{fill:#c5c5c5}.f{fill:#b7b7b7}.g{fill:#a8a8a8}.h{fill:#9a9a9a}.i{fill:#8b8b8b}.j{fill:#7d7d7d}.k{fill:#6e6e6e}.l{fill:#606060}.m{fill:#5e2c00}.n{fill:#b49355}.o{fill:#ebb9a7}.p{fill:#8fa6a8}.q{mix-blend-mode:screen;fill:#8fa6a8}.r{fill:#e9eeeb}.s{mix-blend-mode:multiply;fill:#b49355}.t{fill:#5a5d5e}</style><g style="mix-blend-mode:multiply"><path class="a" d="m409.7 116.4c1.5 2.8 1.8 6 0.9 8.9-1.1 3.4-4.3 7.7-13 9.5-2 0.4-3.9 0.6-5.6 0.7q-0.1 0.1-0.3 0.1-0.4 0.6-0.9 1.2c-8.9 10.5-17.7 13.9-25.3 13.9 0.1 1.8-0.3 3.7-1.4 5.5-3.7 6.2-9.3 11.2-14.7 15.8q-0.6 0.5-1.2 1c-3.6 3.1-8.1 7-14.6 8.1-1 0.2-2 0.2-3.2 0.1-4.4-0.3-9.9-3.3-14.7-13.1-2.3-4.8-4.1-10.1-5.9-15.7-3.3-10.1-6.7-20.5-13.2-25.7q-4.2-0.9-8.3-1.4-5.6-0.7-11.6-0.9c-2.3 4.9-7.3 9.3-12.3 10.4-7.3 1.6-12.9 0-18.5-1.9-7.7-2.6-13.9-3.6-19.7-3.4-1.9 0.5-3.4 0.9-4.8 1.2-22 5.8-41.8 10.8-62.9 13.9-10 1.5-20.6 2.8-31.7 1.6h-0.3c-12-1.2-18.5-3-22.3-5q-5.7 1.2-11.8 1.7c-5.3 0.4-12 0.9-18.6-0.1-3.3-0.5-6.3-1.3-9.2-2-2.3-0.6-4.5-1.2-6.7-1.6q-2.6-0.4-5.4-0.9c-8.9-1.5-19.1-3.1-27.6-7.3-6.1-3.1-7.5-7.1-7.6-9.9-0.1-1.1 0.1-2.5 0.6-3.9-4.6-1.2-7.7-4.4-8.7-8.9-0.6-3.2 0.5-6.1 1.7-8.4 3.3-11.8 12.8-22.4 20.3-29.3 9.5-8.7 21.2-16.6 34.8-23.5 5.6-2.8 12.9-6.1 20.8-6.7 19.6-8.7 39.5-14.4 59.2-17 1.8-0.9 3.6-2.1 5.5-3.4 3-2.1 6.2-4.2 9.9-5.6 7-2.8 13.5-4 20.5-3.9 14.6 0.1 29.7 2.1 46.1 6.2q1.6 0.4 3.4 0.9c12.7 3 30.2 7.3 38.2 19 1.8 2.8 2.1 6.1 0.7 9q-0.3 0.5-0.6 0.9 7.8 4.1 15 8.7c15.1 9.7 28.7 21.9 43.8 39.4 3.6-0.2 9.3 0 18.8 1.1l0.6 0.1c12 1.3 21.1 2.8 29.8 4.9h0.1c24 5.9 29.7 11.8 31.9 15.7z"/><path class="b" d="m408.9 115.5c1.6 2.8 1.9 6 0.9 9-1.1 3.3-4.2 7.6-12.9 9.4-2 0.4-4 0.6-5.7 0.8q-0.1 0-0.2 0-0.5 0.6-1 1.2c-8.9 10.6-17.7 13.9-25.3 13.9 0.1 1.8-0.2 3.7-1.3 5.6-3.7 6.2-9.3 11.1-14.7 15.7q-0.7 0.5-1.3 1.1c-3.6 3.1-8.1 6.9-14.6 8-0.9 0.2-2 0.2-3.1 0.2-4.5-0.4-9.9-3.4-14.7-13.2-2.4-4.7-4.1-10.1-6-15.7-3.3-10.1-6.7-20.5-13.1-25.7q-4.2-0.9-8.3-1.4-5.7-0.7-11.7-0.9c-2.2 5-7.3 9.3-12.2 10.4-7.3 1.6-12.9 0-18.5-1.8-7.8-2.7-13.9-3.7-19.7-3.5-1.9 0.5-3.4 0.9-4.9 1.3-21.9 5.7-41.8 10.8-62.9 13.8-9.9 1.5-20.6 2.8-31.6 1.7l-0.3-0.1c-12.1-1.1-18.6-2.9-22.4-5q-5.6 1.2-11.7 1.7c-5.4 0.4-12 0.9-18.7-0.1-3.2-0.5-6.2-1.3-9.1-2-2.4-0.6-4.6-1.2-6.7-1.6q-2.7-0.4-5.4-0.9c-9-1.4-19.1-3.1-27.6-7.3-6.1-3.1-7.5-7.1-7.7-9.9 0-1.1 0.1-2.5 0.6-3.9-4.6-1.2-7.7-4.4-8.6-8.9-0.7-3.2 0.4-6.1 1.7-8.3 3.2-11.9 12.7-22.5 20.2-29.4 9.6-8.7 21.3-16.6 34.8-23.5 5.6-2.8 13-6.1 20.8-6.7 19.6-8.7 39.6-14.4 59.3-17 1.7-0.9 3.5-2.1 5.4-3.4 3.1-2 6.2-4.2 10-5.6 6.9-2.7 13.5-4 20.5-3.9 14.6 0.1 29.6 2.1 46 6.2q1.6 0.4 3.4 0.9c12.8 3.1 30.3 7.3 38.2 19 1.9 2.8 2.1 6.1 0.7 9q-0.2 0.5-0.5 0.9 7.8 4.1 14.9 8.7c15.1 9.7 28.7 21.9 43.8 39.4 3.6-0.2 9.3 0 18.8 1.1l0.6 0.1c12 1.3 21.2 2.8 29.8 4.9h0.1c24.1 5.9 29.7 11.8 31.9 15.7z"/><path class="c" d="m408.2 114.7c1.5 2.8 1.8 5.9 0.9 8.9-1.1 3.3-4.3 7.6-13 9.4-2 0.5-3.9 0.6-5.6 0.8q-0.1 0-0.3 0-0.4 0.6-0.9 1.2c-8.9 10.6-17.7 13.9-25.3 13.9 0.1 1.8-0.3 3.7-1.4 5.6-3.7 6.2-9.3 11.1-14.7 15.7q-0.6 0.5-1.2 1.1c-3.6 3.1-8.2 6.9-14.6 8-1 0.2-2 0.3-3.2 0.2-4.4-0.4-9.9-3.4-14.7-13.2-2.3-4.7-4.1-10.1-5.9-15.7-3.3-10.1-6.7-20.5-13.2-25.7q-4.2-0.9-8.3-1.4-5.6-0.6-11.6-0.9c-2.3 5-7.3 9.3-12.3 10.4-7.3 1.6-12.9 0.1-18.5-1.8-7.7-2.7-13.9-3.7-19.7-3.4-1.9 0.4-3.4 0.8-4.8 1.2-22 5.7-41.8 10.8-62.9 13.8-10 1.5-20.6 2.8-31.7 1.7l-0.3-0.1c-12-1.1-18.5-2.9-22.3-5q-5.7 1.2-11.8 1.7c-5.3 0.4-12 0.9-18.6-0.1-3.3-0.5-6.3-1.3-9.2-2-2.3-0.6-4.5-1.2-6.7-1.6q-2.6-0.4-5.4-0.9c-8.9-1.4-19.1-3.1-27.6-7.3-6.1-3-7.5-7.1-7.6-9.9-0.1-1.1 0.1-2.4 0.6-3.8-4.6-1.3-7.7-4.5-8.7-9-0.6-3.2 0.5-6.1 1.7-8.3 3.3-11.9 12.8-22.5 20.3-29.4 9.5-8.7 21.2-16.6 34.8-23.5 5.6-2.8 12.9-6.1 20.8-6.7 19.6-8.7 39.5-14.3 59.2-17 1.8-0.9 3.6-2.1 5.5-3.4 3-2 6.2-4.2 9.9-5.6 7-2.7 13.5-4 20.5-3.9 14.6 0.1 29.7 2.1 46.1 6.2q1.6 0.4 3.4 0.9c12.7 3.1 30.2 7.3 38.1 19 1.9 2.8 2.2 6.2 0.8 9q-0.3 0.5-0.6 0.9 7.8 4.1 15 8.7c15.1 9.7 28.7 22 43.8 39.4 3.6-0.2 9.3 0 18.8 1.1l0.6 0.1c12 1.3 21.1 2.8 29.8 4.9l0.1 0.1c24 5.8 29.7 11.7 31.9 15.7z"/><path class="d" d="m407.4 113.8c1.6 2.8 1.9 5.9 0.9 8.9-1.1 3.3-4.2 7.6-12.9 9.5-2 0.4-4 0.5-5.7 0.7q-0.1 0-0.2 0-0.5 0.6-1 1.2c-8.9 10.6-17.7 13.9-25.3 13.9 0.1 1.8-0.2 3.7-1.3 5.6-3.7 6.2-9.3 11.1-14.7 15.7q-0.7 0.5-1.3 1.1c-3.6 3.1-8.1 6.9-14.6 8-0.9 0.2-2 0.3-3.1 0.2-4.5-0.4-9.9-3.4-14.7-13.1-2.4-4.8-4.1-10.2-6-15.8-3.3-10.1-6.7-20.5-13.1-25.7q-4.3-0.9-8.3-1.4-5.7-0.6-11.7-0.9c-2.2 5-7.3 9.3-12.2 10.4-7.3 1.6-12.9 0.1-18.5-1.8-7.8-2.6-13.9-3.7-19.7-3.4-1.9 0.4-3.5 0.8-4.9 1.2-21.9 5.8-41.8 10.8-62.9 13.8-9.9 1.5-20.6 2.8-31.6 1.7h-0.3c-12.1-1.2-18.6-3-22.4-5.1q-5.6 1.3-11.7 1.7c-5.4 0.4-12 0.9-18.7-0.1-3.2-0.5-6.2-1.3-9.1-2-2.4-0.6-4.6-1.2-6.7-1.5q-2.7-0.5-5.4-1c-9-1.4-19.1-3.1-27.6-7.3-6.1-3-7.5-7.1-7.7-9.9 0-1.1 0.1-2.4 0.6-3.8-4.6-1.3-7.7-4.5-8.6-9-0.7-3.2 0.4-6 1.7-8.3 3.2-11.9 12.7-22.5 20.2-29.4 9.6-8.7 21.3-16.6 34.8-23.5 5.6-2.8 13-6.1 20.8-6.7 19.6-8.6 39.6-14.3 59.3-17 1.7-0.8 3.5-2.1 5.4-3.4 3.1-2 6.2-4.2 10-5.6 6.9-2.7 13.5-4 20.5-3.9 14.6 0.1 29.6 2.1 46 6.3q1.6 0.4 3.4 0.8c12.8 3.1 30.3 7.3 38.2 19 1.9 2.8 2.1 6.2 0.7 9.1q-0.2 0.4-0.5 0.9 7.8 4.1 14.9 8.6c15.1 9.7 28.7 22 43.8 39.4 3.6-0.2 9.3 0.1 18.8 1.2h0.6c12 1.3 21.2 2.8 29.8 4.9l0.1 0.1c24.1 5.8 29.7 11.7 31.9 15.7z"/><path class="e" d="m406.7 112.9c1.5 2.8 1.8 5.9 0.9 8.9-1.1 3.3-4.3 7.7-13 9.5-2 0.4-3.9 0.5-5.6 0.7q-0.1 0-0.3 0-0.4 0.7-0.9 1.3c-9 10.5-17.7 13.8-25.3 13.8 0.1 1.8-0.3 3.7-1.4 5.6-3.7 6.2-9.3 11.2-14.7 15.7q-0.6 0.6-1.2 1.1c-3.6 3.1-8.2 6.9-14.6 8-1 0.2-2 0.3-3.2 0.2-4.4-0.4-9.9-3.4-14.7-13.1-2.3-4.8-4.1-10.1-5.9-15.8-3.3-10.1-6.7-20.5-13.2-25.7q-4.2-0.9-8.3-1.4-5.6-0.6-11.6-0.9c-2.3 5-7.3 9.3-12.3 10.4-7.3 1.6-12.9 0.1-18.5-1.8-7.7-2.6-13.9-3.7-19.7-3.4-1.9 0.4-3.4 0.8-4.8 1.2-22 5.8-41.8 10.8-62.9 13.9-10 1.4-20.6 2.7-31.7 1.6h-0.3c-12-1.2-18.5-3-22.3-5.1q-5.7 1.3-11.8 1.7c-5.3 0.4-12 0.9-18.6-0.1-3.3-0.5-6.3-1.3-9.2-2-2.3-0.6-4.5-1.1-6.7-1.5q-2.6-0.5-5.4-0.9c-8.9-1.5-19.1-3.2-27.6-7.4-6.1-3-7.5-7-7.6-9.9-0.1-1.1 0.1-2.4 0.6-3.8-4.6-1.3-7.7-4.5-8.7-9-0.6-3.2 0.5-6 1.7-8.3 3.3-11.9 12.8-22.5 20.3-29.4 9.5-8.7 21.2-16.6 34.8-23.4 5.6-2.9 12.9-6.2 20.8-6.8 19.6-8.6 39.5-14.3 59.2-16.9 1.8-0.9 3.6-2.2 5.5-3.4 3-2.1 6.2-4.2 9.9-5.7 7-2.7 13.5-3.9 20.5-3.9 14.6 0.1 29.7 2.1 46.1 6.3q1.6 0.4 3.4 0.8c12.7 3.1 30.2 7.3 38.1 19 1.9 2.8 2.2 6.2 0.8 9.1q-0.3 0.4-0.6 0.9 7.8 4.1 15 8.7c15.1 9.6 28.7 21.9 43.8 39.3 3.6-0.1 9.3 0.1 18.8 1.2h0.6c12 1.3 21.1 2.8 29.8 5h0.1c24 5.9 29.7 11.7 31.9 15.7z"/><path class="f" d="m405.9 112c1.6 2.8 1.9 6 0.9 8.9-1.1 3.3-4.2 7.7-12.9 9.5-2 0.4-4 0.6-5.7 0.7q-0.1 0-0.2 0-0.5 0.7-1 1.3c-8.9 10.5-17.7 13.8-25.3 13.8 0.1 1.8-0.2 3.7-1.3 5.6-3.7 6.2-9.3 11.2-14.7 15.7q-0.7 0.6-1.3 1.1c-3.6 3.1-8.1 7-14.6 8.1-0.9 0.1-2 0.2-3.1 0.1-4.5-0.4-9.9-3.3-14.7-13.1-2.4-4.8-4.1-10.1-6-15.8-3.3-10-6.7-20.4-13.1-25.7q-4.3-0.9-8.3-1.3-5.7-0.7-11.7-0.9c-2.2 4.9-7.3 9.2-12.2 10.3-7.3 1.7-12.9 0.1-18.5-1.8-7.8-2.6-13.9-3.7-19.7-3.4-1.9 0.4-3.5 0.8-4.9 1.2-21.9 5.8-41.8 10.8-62.9 13.9-9.9 1.4-20.6 2.7-31.6 1.6h-0.3c-12.1-1.2-18.6-3-22.4-5.1q-5.6 1.3-11.7 1.7c-5.4 0.4-12 0.9-18.7-0.1-3.2-0.5-6.2-1.2-9.1-2-2.4-0.6-4.6-1.1-6.7-1.5q-2.7-0.5-5.4-0.9c-9-1.5-19.1-3.2-27.6-7.4-6.1-3-7.5-7-7.7-9.9 0-1.1 0.1-2.4 0.6-3.8-4.6-1.3-7.7-4.5-8.6-8.9-0.7-3.3 0.4-6.1 1.7-8.4 3.2-11.9 12.7-22.5 20.2-29.3 9.6-8.8 21.3-16.7 34.8-23.5 5.6-2.9 12.9-6.1 20.8-6.8 19.6-8.6 39.5-14.3 59.3-16.9 1.7-0.9 3.5-2.1 5.4-3.4 3.1-2.1 6.2-4.2 10-5.7 6.9-2.7 13.5-3.9 20.5-3.9 14.6 0.1 29.6 2.2 46 6.3q1.6 0.4 3.4 0.8c12.8 3.1 30.3 7.3 38.2 19.1 1.9 2.7 2.1 6.1 0.7 9q-0.2 0.4-0.5 0.9 7.8 4.1 14.9 8.7c15.1 9.7 28.7 21.9 43.8 39.4 3.6-0.2 9.3 0 18.8 1.1h0.6c12 1.3 21.2 2.9 29.8 5h0.1c24.1 5.9 29.7 11.8 31.9 15.7z"/><path class="g" d="m405.2 111.1c1.5 2.8 1.8 6 0.9 8.9-1.1 3.3-4.3 7.7-13 9.5-2 0.4-3.9 0.6-5.6 0.7q-0.2 0-0.3 0-0.4 0.7-0.9 1.3c-9 10.5-17.8 13.9-25.3 13.8 0.1 1.9-0.3 3.7-1.4 5.6-3.7 6.2-9.3 11.2-14.7 15.7q-0.6 0.6-1.2 1.1c-3.7 3.1-8.2 7-14.6 8.1-1 0.1-2 0.2-3.2 0.1-4.4-0.4-9.9-3.3-14.7-13.1-2.3-4.8-4.1-10.1-5.9-15.8-3.3-10-6.7-20.4-13.2-25.7q-4.2-0.8-8.3-1.3-5.6-0.7-11.6-0.9c-2.3 4.9-7.3 9.2-12.3 10.3-7.3 1.7-12.9 0.1-18.5-1.8-7.7-2.6-13.9-3.7-19.7-3.4-1.9 0.5-3.4 0.8-4.8 1.2-22 5.8-41.8 10.8-62.9 13.9-10 1.4-20.6 2.7-31.7 1.6h-0.3c-12-1.2-18.5-3-22.3-5.1q-5.7 1.3-11.8 1.8c-5.3 0.3-12 0.8-18.6-0.2-3.3-0.5-6.3-1.2-9.2-2-2.3-0.6-4.5-1.1-6.7-1.5q-2.6-0.5-5.4-0.9c-8.9-1.5-19.1-3.1-27.6-7.4-6.1-3-7.5-7-7.6-9.9-0.1-1.1 0.1-2.4 0.6-3.8-4.6-1.2-7.7-4.5-8.7-8.9-0.6-3.2 0.5-6.1 1.7-8.4 3.3-11.8 12.8-22.4 20.3-29.3 9.5-8.7 21.2-16.7 34.8-23.5 5.6-2.9 12.9-6.1 20.8-6.8 19.6-8.6 39.5-14.3 59.2-16.9 1.7-0.9 3.6-2.1 5.5-3.4 3-2.1 6.2-4.2 9.9-5.7 7-2.7 13.5-3.9 20.5-3.9 14.6 0.1 29.7 2.2 46.1 6.3q1.6 0.4 3.4 0.8c12.7 3.1 30.2 7.3 38.1 19.1 1.9 2.7 2.2 6.1 0.8 9q-0.3 0.5-0.6 0.9 7.8 4.1 15 8.7c15.1 9.7 28.7 21.9 43.8 39.4 3.6-0.2 9.3 0 18.8 1.1l0.6 0.1c11.9 1.2 21.1 2.8 29.8 4.9h0.1c24 5.9 29.7 11.8 31.9 15.7z"/><path class="h" d="m404.4 110.2c1.6 2.8 1.9 6 0.9 8.9-1.1 3.3-4.2 7.7-12.9 9.5-2 0.4-4 0.6-5.7 0.7q-0.1 0-0.2 0-0.5 0.7-1 1.3c-8.9 10.5-17.7 13.9-25.3 13.9 0.1 1.8-0.2 3.6-1.3 5.5-3.7 6.2-9.3 11.2-14.7 15.8q-0.7 0.5-1.3 1c-3.6 3.1-8.1 7-14.6 8.1-0.9 0.1-2 0.2-3.1 0.1-4.5-0.4-9.9-3.3-14.7-13.1-2.4-4.8-4.1-10.1-6-15.8-3.3-10-6.7-20.4-13.1-25.7q-4.3-0.8-8.3-1.3-5.7-0.7-11.7-0.9c-2.2 4.9-7.3 9.3-12.2 10.4-7.3 1.6-12.9 0-18.5-1.9-7.8-2.6-13.9-3.7-19.7-3.4-1.9 0.5-3.5 0.8-4.9 1.2-21.9 5.8-41.8 10.8-62.9 13.9-9.9 1.4-20.6 2.7-31.6 1.6h-0.3c-12.1-1.2-18.6-3-22.4-5q-5.6 1.2-11.7 1.7c-5.4 0.4-12 0.9-18.7-0.2-3.2-0.4-6.2-1.2-9.1-2-2.4-0.6-4.6-1.1-6.7-1.5q-2.7-0.5-5.4-0.9c-9-1.5-19.1-3.1-27.6-7.4-6.1-3-7.5-7-7.7-9.8 0-1.2 0.1-2.5 0.6-3.9-4.6-1.2-7.7-4.4-8.6-8.9-0.7-3.2 0.4-6.1 1.7-8.4 3.2-11.8 12.7-22.4 20.2-29.3 9.6-8.7 21.3-16.6 34.8-23.5 5.6-2.9 12.9-6.1 20.8-6.8 19.6-8.6 39.5-14.3 59.3-16.9 1.7-0.9 3.5-2.1 5.4-3.4 3.1-2.1 6.2-4.2 10-5.7 6.9-2.7 13.5-3.9 20.5-3.9 14.6 0.1 29.6 2.2 46 6.3q1.6 0.4 3.4 0.8c12.8 3.1 30.3 7.4 38.2 19.1 1.9 2.7 2.1 6.1 0.7 9q-0.2 0.5-0.5 0.9 7.8 4.1 14.9 8.7c15.1 9.7 28.7 21.9 43.8 39.4 3.6-0.2 9.3 0 18.8 1.1l0.6 0.1c12 1.3 21.2 2.8 29.8 4.9h0.1c24.1 5.9 29.7 11.8 31.9 15.7z"/><path class="i" d="m403.7 109.3c1.5 2.8 1.8 6 0.9 8.9-1.1 3.4-4.3 7.7-13 9.5-2 0.4-3.9 0.6-5.6 0.7q-0.2 0-0.3 0.1-0.4 0.6-0.9 1.2c-9 10.5-17.8 13.9-25.3 13.9 0.1 1.8-0.3 3.7-1.4 5.5-3.7 6.2-9.3 11.2-14.7 15.8q-0.6 0.5-1.2 1c-3.7 3.1-8.2 7-14.6 8.1-1 0.2-2.1 0.2-3.2 0.1-4.4-0.3-9.9-3.3-14.7-13.1-2.3-4.8-4.1-10.1-5.9-15.7-3.3-10.1-6.7-20.5-13.2-25.7q-4.2-0.9-8.3-1.4-5.6-0.7-11.6-0.9c-2.3 4.9-7.3 9.3-12.3 10.4-7.3 1.6-12.9 0-18.5-1.9-7.7-2.6-13.9-3.7-19.7-3.4-1.9 0.5-3.4 0.9-4.8 1.2-22 5.8-41.8 10.8-62.9 13.9-10 1.4-20.6 2.8-31.7 1.6h-0.3c-12-1.2-18.5-3-22.3-5q-5.7 1.2-11.8 1.7c-5.3 0.4-12 0.9-18.6-0.1-3.3-0.5-6.3-1.3-9.2-2-2.3-0.6-4.5-1.2-6.7-1.6q-2.6-0.5-5.4-0.9c-8.9-1.5-19.1-3.1-27.6-7.4-6.1-3-7.5-7-7.6-9.8-0.1-1.2 0.1-2.5 0.6-3.9-4.6-1.2-7.7-4.4-8.7-8.9-0.6-3.2 0.5-6.1 1.7-8.4 3.3-11.8 12.8-22.4 20.3-29.3 9.5-8.7 21.2-16.6 34.7-23.5 5.7-2.8 13-6.1 20.9-6.7 19.6-8.7 39.5-14.4 59.2-17 1.7-0.9 3.6-2.1 5.5-3.4 3-2.1 6.2-4.2 9.9-5.6 7-2.8 13.5-4 20.5-3.9 14.6 0 29.7 2.1 46.1 6.2q1.6 0.4 3.4 0.8c12.7 3.1 30.2 7.4 38.1 19.1 1.9 2.8 2.2 6.1 0.8 9q-0.3 0.5-0.6 0.9 7.8 4.1 15 8.7c15.1 9.7 28.7 21.9 43.8 39.4 3.6-0.2 9.3 0 18.7 1.1l0.7 0.1c11.9 1.3 21.1 2.8 29.8 4.9h0.1c24 5.9 29.7 11.8 31.9 15.7z"/><path class="j" d="m402.9 108.4c1.6 2.8 1.9 6 0.9 8.9-1.1 3.4-4.2 7.7-12.9 9.5-2 0.4-4 0.6-5.7 0.7q-0.1 0.1-0.2 0.1-0.5 0.6-1 1.2c-8.9 10.5-17.7 13.9-25.3 13.9 0.1 1.8-0.2 3.7-1.3 5.5-3.7 6.2-9.3 11.2-14.7 15.8q-0.7 0.5-1.3 1.1c-3.6 3.1-8.1 6.9-14.6 8-0.9 0.2-2 0.2-3.1 0.1-4.5-0.3-9.9-3.3-14.7-13.1-2.4-4.7-4.1-10.1-6-15.7-3.3-10.1-6.7-20.5-13.1-25.7q-4.3-0.9-8.3-1.4-5.7-0.7-11.7-0.9c-2.2 5-7.3 9.3-12.2 10.4-7.3 1.6-12.9 0-18.5-1.8-7.8-2.7-13.9-3.7-19.7-3.5-1.9 0.5-3.5 0.9-4.9 1.2-21.9 5.8-41.8 10.9-62.9 13.9-9.9 1.5-20.6 2.8-31.6 1.7l-0.3-0.1c-12.1-1.1-18.6-3-22.4-5q-5.6 1.2-11.7 1.7c-5.4 0.4-12.1 0.9-18.7-0.1-3.2-0.5-6.2-1.3-9.1-2-2.4-0.6-4.6-1.2-6.7-1.6q-2.7-0.4-5.5-0.9c-8.9-1.4-19-3.1-27.5-7.3-6.1-3.1-7.5-7.1-7.7-9.9 0-1.1 0.1-2.5 0.6-3.9-4.6-1.2-7.7-4.4-8.6-8.9-0.7-3.2 0.4-6.1 1.7-8.3 3.2-11.9 12.7-22.5 20.2-29.4 9.6-8.7 21.3-16.6 34.8-23.5 5.6-2.8 12.9-6.1 20.8-6.7 19.6-8.7 39.5-14.4 59.3-17 1.7-0.9 3.5-2.1 5.4-3.4 3.1-2 6.2-4.2 10-5.6 6.9-2.7 13.5-4 20.5-3.9 14.6 0.1 29.6 2.1 46 6.2q1.6 0.4 3.4 0.9c12.8 3 30.3 7.3 38.2 19 1.9 2.8 2.1 6.1 0.7 9q-0.2 0.5-0.5 0.9 7.8 4.1 14.9 8.7c15.1 9.7 28.7 21.9 43.8 39.4 3.6-0.2 9.3 0 18.8 1.1l0.6 0.1c12 1.3 21.2 2.8 29.8 4.9h0.1c24.1 5.9 29.7 11.8 31.9 15.7z"/><path class="k" d="m402.1 107.5c1.6 2.9 1.9 6 1 9-1.1 3.3-4.3 7.6-13 9.4-2 0.5-3.9 0.6-5.6 0.8q-0.2 0-0.3 0-0.4 0.6-0.9 1.2c-9 10.6-17.8 13.9-25.3 13.9 0.1 1.8-0.3 3.7-1.4 5.6-3.7 6.2-9.3 11.1-14.7 15.7q-0.6 0.5-1.2 1.1c-3.7 3.1-8.2 6.9-14.6 8-1 0.2-2.1 0.3-3.2 0.2-4.4-0.4-9.9-3.4-14.7-13.2-2.3-4.7-4.1-10.1-5.9-15.7-3.3-10.1-6.7-20.5-13.2-25.7q-4.2-0.9-8.3-1.4-5.6-0.6-11.6-0.9c-2.3 5-7.3 9.3-12.3 10.4-7.3 1.6-12.9 0.1-18.5-1.8-7.7-2.7-13.9-3.7-19.7-3.5-1.9 0.5-3.4 0.9-4.8 1.3-22 5.7-41.8 10.8-63 13.8-9.9 1.5-20.5 2.8-31.6 1.7l-0.3-0.1c-12-1.1-18.5-2.9-22.3-5q-5.7 1.2-11.8 1.7c-5.3 0.4-12 0.9-18.6-0.1-3.3-0.5-6.3-1.3-9.2-2-2.3-0.6-4.5-1.2-6.7-1.6q-2.6-0.4-5.4-0.9c-8.9-1.4-19.1-3.1-27.6-7.3-6.1-3.1-7.5-7.1-7.6-9.9-0.1-1.1 0.1-2.5 0.6-3.9-4.6-1.2-7.7-4.4-8.7-8.9-0.6-3.2 0.5-6.1 1.7-8.3 3.3-11.9 12.8-22.5 20.3-29.4 9.5-8.7 21.2-16.6 34.7-23.5 5.7-2.8 13-6.1 20.9-6.7 19.6-8.7 39.5-14.4 59.2-17 1.7-0.9 3.6-2.1 5.5-3.4 3-2 6.2-4.2 9.9-5.6 7-2.7 13.5-4 20.5-3.9 14.6 0.1 29.7 2.1 46 6.2q1.7 0.4 3.5 0.9c12.7 3.1 30.2 7.3 38.1 19 1.9 2.8 2.2 6.2 0.8 9q-0.3 0.5-0.6 0.9 7.8 4.1 15 8.7c15.1 9.7 28.7 22 43.8 39.4 3.6-0.2 9.3 0 18.7 1.1l0.7 0.1c11.9 1.3 21.1 2.8 29.8 4.9l0.1 0.1c24 5.8 29.7 11.7 31.8 15.6z"/><path class="l" d="m401.4 106.7c1.6 2.8 1.9 5.9 0.9 8.9-1.1 3.3-4.2 7.6-12.9 9.4-2 0.5-4 0.6-5.7 0.8q-0.1 0-0.2 0-0.5 0.6-1 1.2c-8.9 10.6-17.7 13.9-25.3 13.9 0.1 1.8-0.2 3.7-1.4 5.6-3.6 6.2-9.2 11.1-14.6 15.7q-0.7 0.5-1.3 1.1c-3.6 3.1-8.1 6.9-14.6 8-0.9 0.2-2 0.3-3.1 0.2-4.5-0.4-9.9-3.4-14.7-13.2-2.4-4.7-4.1-10.1-6-15.7-3.3-10.1-6.7-20.5-13.1-25.7q-4.3-0.9-8.3-1.4-5.7-0.6-11.7-0.9c-2.2 5-7.3 9.3-12.2 10.4-7.3 1.6-12.9 0.1-18.5-1.8-7.8-2.7-13.9-3.7-19.7-3.4-1.9 0.4-3.5 0.8-4.9 1.2-21.9 5.7-41.8 10.8-62.9 13.8-9.9 1.5-20.6 2.8-31.6 1.7l-0.3-0.1c-12.1-1.1-18.6-2.9-22.4-5q-5.6 1.3-11.7 1.7c-5.4 0.4-12.1 0.9-18.7-0.1-3.2-0.5-6.2-1.3-9.1-2-2.4-0.6-4.6-1.2-6.7-1.6q-2.7-0.4-5.5-0.9c-8.9-1.4-19-3.1-27.5-7.3-6.1-3-7.5-7.1-7.7-9.9 0-1.1 0.1-2.4 0.6-3.8-4.6-1.3-7.7-4.5-8.6-9-0.7-3.2 0.4-6 1.7-8.3 3.2-11.9 12.7-22.5 20.2-29.4 9.6-8.7 21.3-16.6 34.8-23.5 5.6-2.8 12.9-6.1 20.8-6.7 19.6-8.6 39.5-14.3 59.3-17 1.7-0.8 3.5-2.1 5.4-3.4 3.1-2 6.2-4.2 10-5.6 6.9-2.7 13.5-4 20.5-3.9 14.6 0.1 29.6 2.1 46 6.2q1.6 0.4 3.4 0.9c12.8 3.1 30.3 7.3 38.2 19 1.9 2.8 2.1 6.2 0.7 9q-0.2 0.5-0.5 1 7.8 4 14.9 8.6c15.1 9.7 28.7 22 43.8 39.4 3.6-0.2 9.3 0 18.8 1.1l0.6 0.1c12 1.3 21.2 2.8 29.8 4.9l0.1 0.1c24.1 5.8 29.7 11.7 31.9 15.7z"/></g><path class="a" d="m401.4 106.7c1.6 2.8 1.9 5.9 0.9 8.9-1.1 3.3-4.2 7.6-12.9 9.4-2 0.5-4 0.6-5.7 0.8q-0.1 0-0.2 0-0.5 0.6-1 1.2c-8.9 10.6-17.7 13.9-25.3 13.9 0.1 1.8-0.2 3.7-1.4 5.6-3.6 6.2-9.2 11.1-14.6 15.7q-0.7 0.5-1.3 1.1c-3.6 3.1-8.1 6.9-14.6 8-0.9 0.2-2 0.3-3.1 0.2-4.5-0.4-9.9-3.4-14.7-13.2-2.4-4.7-4.1-10.1-6-15.7-3.3-10.1-6.7-20.5-13.1-25.7q-4.3-0.9-8.3-1.4-5.7-0.6-11.7-0.9c-2.2 5-7.3 9.3-12.2 10.4-7.3 1.6-12.9 0.1-18.5-1.8-7.8-2.7-13.9-3.7-19.7-3.4-1.9 0.4-3.5 0.8-4.9 1.2-21.9 5.7-41.8 10.8-62.9 13.8-9.9 1.5-20.6 2.8-31.6 1.7l-0.3-0.1c-12.1-1.1-18.6-2.9-22.4-5q-5.6 1.3-11.7 1.7c-5.4 0.4-12.1 0.9-18.7-0.1-3.2-0.5-6.2-1.3-9.1-2-2.4-0.6-4.6-1.2-6.7-1.6q-2.7-0.4-5.5-0.9c-8.9-1.4-19-3.1-27.5-7.3-6.1-3-7.5-7.1-7.7-9.9 0-1.1 0.1-2.4 0.6-3.8-4.6-1.3-7.7-4.5-8.6-9-0.7-3.2 0.4-6 1.7-8.3 3.2-11.9 12.7-22.5 20.2-29.4 9.6-8.7 21.3-16.6 34.8-23.5 5.6-2.8 12.9-6.1 20.8-6.7 19.6-8.6 39.5-14.3 59.3-17 1.7-0.8 3.5-2.1 5.4-3.4 3.1-2 6.2-4.2 10-5.6 6.9-2.7 13.5-4 20.5-3.9 14.6 0.1 29.6 2.1 46 6.2q1.6 0.4 3.4 0.9c12.8 3.1 30.3 7.3 38.2 19 1.9 2.8 2.1 6.2 0.7 9q-0.2 0.5-0.5 1 7.8 4 14.9 8.6c15.1 9.7 28.7 22 43.8 39.4 3.6-0.2 9.3 0 18.8 1.1l0.6 0.1c12 1.3 21.2 2.8 29.8 4.9l0.1 0.1c24.1 5.8 29.7 11.7 31.9 15.7z"/><path class="m" d="m395.2 113.2c-0.9 2.8-4.9 4-7.3 4.6-2.7 0.5-5.4 0.5-8.1 0.9-0.8 0.1-2.3 2.8-3 3.5-7.8 9.2-17.1 14.4-28.6 9.1-5.2-2.4-14.2-5.1-17.7-10 3 4.2 7.9 7 11.7 10.4 1.7 1.6 9.1 7.8 7.2 11-3.1 5.3-8.3 9.9-13 13.8-3.8 3.2-7.3 6.6-12.3 7.5-4.7 0.8-8.3-5.6-10-8.9-6.6-13.7-9.1-35.9-22.6-45.1q-5.2-1.2-10.6-1.9c-6.4-0.7-12.9-1.1-19.4-1.1 2.8 3.3-2.8 9.8-7 10.7-5.3 1.2-9.4 0.1-14.4-1.6-7.6-2.5-15.2-4.2-23.2-3.7q-2.8 0.6-5.7 1.4c-20.6 5.4-41 10.6-62.1 13.7-9.8 1.4-19.8 2.6-29.8 1.6-2.1-0.2-19.2-1.7-21.6-5.8-4.6 1.3-9.3 2-14.1 2.4-5.6 0.4-11.3 0.8-17-0.1-5.3-0.8-10.3-2.5-15.6-3.5-10-1.8-21.9-3-31-7.6-4.2-2.1-4.9-4.5-0.7-7.1 5-3.1 12.3-4 18-4.4q3.9-0.3 7.7-0.8c-4.8-0.6-9.6-1.4-14.4-1.5-3.9-0.1-7.8 0.3-11.7-0.3-4 0.3-9.7 0.9-10.6-3.4-0.3-1.1 0.5-2.6 1.3-4 2.5-10.2 11.2-20.1 18.4-26.7 9.7-8.9 21.3-16.4 33.1-22.3 6.3-3.2 12.7-5.8 19.2-6.1 19-8.5 39.2-14.5 59.6-17 5.5-2.5 10.4-7.2 16-9.4 5.8-2.2 11.5-3.4 17.7-3.4 15.2 0.1 29.6 2.4 44.3 6.1 11.2 2.8 30.2 6.4 37.2 16.8 2.4 3.5-8.2 4.5-13.2 4.8 10.7 4.5 21 9.8 30.5 15.9 17.5 11.2 31.5 25.3 44.8 41 4.8-1.4 19.8 0.5 21.6 0.7 9.7 1.1 19.3 2.4 28.8 4.8 4.1 1 30.2 7.3 27.6 15z"/><path class="n" d="m158.4 12.2c11.6-3.9 26.6-1.7 38.6 0.2 12.5 2 25.1 5.4 37 9.7 5.5 2.1 10.7 4.7 15.6 8 4 2.7-2.1 3.2-2.9 3.3-2.4 0.3-4.6 0.8-6.9 1.5-28.1-11.4-59.3-17-88.8-15.1q-4.4 0.3-8.7 0.8c5.4-2.5 10.6-6.5 16.1-8.4z"/><path class="o" d="m244.1 115.3q-2.4-0.8-4.8-1.5c-2.4-0.8-4.9-1.3-7.4-1.8-3.2-0.7-6.6-0.9-9.9-0.8 11.5-2.3 23.4-3.8 35.2-4.1q0 0 0.1 0.1-4.1 12.5-13.2 8.1z"/><path class="p" d="m291.1 106.6c-20.9-4.4-42.7-2.5-63.5 1.1-40.9 6.9-85.7 29.3-127.2 14.8 2.5-0.9 5-1.9 7.4-3.1 11.3-5.7 24.4-23.9 15.6-36.7-0.3-0.4-1.3 0-1.1 0.5 5.8 13.8-5.9 28.9-17.6 34.8-11.8 6.1-28.8 6.4-41.5 3.8-13.5-2.8-27.6-5.2-40.5-10-4.8-1.7 3.9-4.4 4.7-4.5 2.9-0.7 6-1.3 9-1.7 1.4-0.2 2.9-0.5 4.4-0.8 3.7-0.2 7.4-0.5 10.9-1.2 4.2-0.8 10.3-1.8 13.2-5.5 0 0.5 0.1 1.1 0.3 1.4 0.7 0.7 1.8-0.1 2.2-0.7 1.1-1.3 1.4-4-0.4-5-2.2-1.1-5.3 1-7.2 2.1q0 0 0 0c-0.2 0.1-0.4 0.3-0.3 0.5 0.5 0.5 1 0.4 1.5 0.3 0.9-0.1 1.7-0.3 2.5-0.4-5.6 5-13.6 4.3-20.8 3.4-4.5-0.6-9.1-1.3-13.7-1.1-4.1 0.2-8.2 0-12.3-0.1-4.4 0-5-1.9-4.3-4.3 0-3.7 3-8.4 4.5-11q1.5-2.7 3.3-5.1-0.2 0.2-0.4 0.4c10.2-13.5 26.3-23.8 40-31.3 2.3-1.3 4.7-2.5 7.1-3.5 4.7-2.8 9.6-4.8 14.8-3.3q0.2-0.1 0.3-0.1c5.7 0.7 11.3 4.3 15.9 7.2 8.1 5.2 14.6 11.7 21.8 17.8-1.7-2.3-3.5-4.4-4.8-6.2q-0.7-0.9-1.4-1.9c-5.9-5.8-11.9-11.3-19.7-15.8-2.5-1.5-5-2.4-7.5-3 26.3-10.9 54.6-16.8 83-15.7 38.5 1.4 79.4 16.4 110.3 39.2 14.6 10.7 26.7 24 38.7 37.4q0.5 0.6 1 1.2c0.4 1.1 0.7 2.4 0.9 3.6 1.7 7.5-5.3 8.2-11 7.6-5.9-2.2-12-3.8-18.1-5.1z"/><path class="q" d="m12.2 96.2q-0.1-0.9 0.2-2c0-3.7 3-8.4 4.5-11q1.5-2.7 3.3-5.1-0.2 0.2-0.4 0.4c10.2-13.5 26.3-23.8 40-31.3 2.3-1.3 4.7-2.5 7.1-3.5 4.7-2.8 9.6-4.8 14.8-3.3q0.2-0.1 0.3-0.1c5.7 0.7 11.3 4.3 15.9 7.2 2.9 1.8 5.6 3.9 8.1 6-6-3.8-12.4-7.1-19.3-8.6-11.9-2.6-22 2.4-32.3 7.8-17.5 9.2-34.9 24.6-42.2 43.5z"/><path class="q" d="m93.8 41.4c-2.5-1.5-5-2.4-7.5-3 26.3-10.9 54.6-16.8 83-15.7 38.5 1.4 79.4 16.4 110.3 39.2 14.6 10.7 26.7 24 38.7 37.4q0.5 0.6 1 1.2 0.2 0.5 0.3 1c-3.9-4.4-8.3-8.6-12.3-12.6-7.2-7-15-13.4-23.1-19.4-16.4-12.2-34.6-22-53.8-29.2-37.7-14.4-81.7-18.9-120.4-5.9-4.3 1.5-8.5 3.2-12.6 5.2-0.4 0.2-0.6 0.8-0.2 1.2 3.3 3.8 7.4 6.9 10.7 10.7q0.5 0.6 1 1.3c-4.5-4.2-9.3-8.1-15.1-11.4z"/><path class="r" d="m317.9 110.7c-2.2 1.2-5.6 1.3-8.7 1-5.9-2.2-12-3.8-18.1-5.1-20.9-4.4-42.7-2.5-63.5 1.1-40.9 6.9-85.7 29.3-127.2 14.8 2.5-0.9 5-1.9 7.4-3.1 11.3-5.7 24.4-23.9 15.6-36.7-0.3-0.4-1.3 0-1.1 0.5 5.8 13.8-5.9 28.9-17.6 34.8-11.8 6.1-28.8 6.4-41.5 3.8-13.5-2.8-27.6-5.2-40.5-10-4.8-1.7 3.9-4.4 4.7-4.5 2.9-0.7 6-1.3 9-1.7 1.4-0.2 2.9-0.5 4.4-0.8 3.7-0.2 7.4-0.5 10.9-1.2 4.2-0.8 10.3-1.8 13.2-5.5 0 0.5 0.1 1.1 0.3 1.4 0.7 0.7 1.8-0.1 2.2-0.7 1.1-1.3 1.4-4-0.4-5-2.2-1.1-5.3 1-7.2 2.1q0 0 0 0c-0.2 0.1-0.4 0.3-0.3 0.5 0.5 0.5 1 0.4 1.5 0.3 0.9-0.1 1.7-0.3 2.5-0.4-5.6 5-13.6 4.3-20.8 3.4-4.5-0.6-9.1-1.3-13.7-1.1-4.1 0.2-8.2 0-12.3-0.1-2.9 0-4.1-0.8-4.5-2.1 14.2-4.7 29.9 4.6 44.8 0.2 0.7-0.2 0.8-1.1 0.1-1.4-1.3-0.7-2.7-1.2-4.1-1.7 18.6-6 38.9 6.5 56.6-5 9.6-6.2 10-16.8 5.6-25.7 6.9 4.7 12.9 10.1 17.4 17.7 0.3 0.6 1.2 0.6 1.4 0 1.7-4 2.8-8.1 4.1-12.2 1.5 3.4 1.9 7.1 2.3 10.8 0.1 0.5 0.7 0.7 1.1 0.5 31.9-12.5 68.1-11.3 100.9-3 16.8 4.3 34.4 10.2 49.4 18.8 8.4 4.8 16.8 11.8 26.1 15.3z"/><path class="o" d="m165 122.9c-21.8 4.8-43.6 6.9-64.6-0.4 2.5-0.9 5-1.9 7.4-3.1 11.3-5.7 24.4-23.9 15.6-36.7-0.3-0.4-1.3 0-1.1 0.5 5.8 13.8-5.9 28.9-17.6 34.8-11.8 6.1-28.8 6.4-41.5 3.8-13.5-2.8-27.6-5.2-40.5-10-1.1-0.4-1.4-0.8-1.4-1.2 4.1-0.3 8.5 1.1 12.4 2 7.3 1.5 14.9 2.2 22.4 2.8 11 0.7 22.1 0.3 32.7-2.3 16.1-4 33-14.2 31.8-32.6 9.7 4.8 9.1 22.7 3.7 30.3-0.5 0.7 0.2 1.5 0.9 1.2 3.4-1.6 5.7-4.3 8.2-7-0.2 3.8-1.9 8.2-3.6 11.3-0.4 0.8-1.9 1.5-1.2 2.6 0.9 1.5 3.6 2.4 5.1 3.1 3.5 1.5 7.6 1.6 11.2 1.7 6.7 0.1 13.4-0.1 20.1-0.8z"/><path class="n" d="m382.8 116.1c-8.2 0.8-10.7 7.9-17 12.8-12.1 9.3-23.9-8.5-35.8-9-0.5 0-1.1 0.3-1.4 0.8-0.9 2.5 5.4 6.4 7 7.6 4.4 3.4 15.8 10.8 9.6 17.5-4.3 4.5-9.8 8.7-14.8 12.5-11.7 8.8-19.2-19.9-21.8-27-2.6-7.2-6-14.8-11.7-20.1q0.1 0 0.2 0c3.8 0.5 7.4 1.2 11.1 2 2.1 0.5 4.5 1 6.8 0.9q-0.1-0.1-0.2-0.1c1.8-0.3 3.5-1 5.1-2.1 3-3.7 4.1-7.7 2.1-12.5q-0.3-0.8-0.7-1.7-0.9-1.1-1.8-2.2-0.3-0.3-0.6-0.7c13.1-0.1 25.8 1.4 38.7 3.8 8.2 1.5 16.2 3.9 23.9 7.1 3.1 1.2 6.1 2.9 8.8 4.9 5.9 4.2-7.6 5.5-7.5 5.5z"/><path class="s" d="m321.2 121c0.2 1.4 0.5 2.7 0.9 4.1-1-1.6-2.3-3.1-3.9-4-0.5-0.2-1.1 0-1.2 0.6-0.7 5.8 0.9 11.5 3.1 17-1-1.6-1.9-3.3-2.7-4.9-1.8-3.9-3.2-7.9-6.1-11.1-0.5-0.5-1.3-0.2-1.4 0.5-1 5.9 0.3 11.7 1.9 17.4-1.4-3.9-2.5-7.4-3.2-9.3-2.6-7.2-6-14.8-11.7-20.1q0.1 0 0.2 0c3.8 0.5 7.4 1.2 11.1 2 2.1 0.5 4.5 1 6.8 0.9q-0.1-0.1-0.2-0.1c1.8-0.3 3.5-1 5.1-2.1 3-3.7 4.1-7.7 2.1-12.5q-0.3-0.8-0.7-1.7-0.9-1.1-1.8-2.2-0.3-0.3-0.6-0.7c13.1-0.1 25.8 1.4 38.7 3.8q6.5 1.2 12.7 3.1c-4.3-0.7-8.6-1-12.9-1.6-5.7-0.8-11.4-1.7-17.1-0.4-0.5 0.1-0.8 0.8-0.4 1.2 3.1 3.4 7.3 5.3 11.2 7.6 3.3 1.9 6.5 4.3 9.4 7-8.7-5.7-19-10.9-29.2-9.6-0.5 0-0.8 0.7-0.6 1.1 1.7 2.5 4.2 3.9 6.8 5.2 2.6 1.4 4.7 3.3 6.7 5.4-4.7-2.5-10.1-4.2-14.9-3.6-0.7 0.1-0.7 1-0.3 1.4 4.8 4.4 10.6 7.3 15.9 10.9-5-3-9.9-6.2-14.9-6.4-0.5 0-1.1 0.3-1.4 0.8-0.9 2.5 5.4 6.4 7 7.6 3 2.3 9.1 6.4 10.9 10.8-7.3-7.1-15.3-13.5-24.1-18.9-0.6-0.4-1.3 0.1-1.2 0.8z"/><path class="m" d="m195.2 89.6c-9.3 19.8-41.2 11.2-56.6 5-0.6-0.3-0.2-1 0.2-1.2q0.6-0.4 1.1-0.8-0.2 0.1-0.5 0.1c-0.3 0.1-0.2-0.2 0-0.3 12.3-5.2 24.9-11.8 38.5-12.5 5.2-0.3 22.3-1 17.3 9.7z"/><path class="n" d="m155.1 97.1c-3.2-0.8-6.7-1.3-9.8-2.4-4.9-1.7-5.7-0.5-1.7-2.9 5.4-1.6 10.9-4.3 16.2-5.7 5-1.3 31.2-8.4 28.2 4-3 12.2-24.4 9.3-32.9 7z"/><path class="m" d="m46.2 96.5c-9.4-0.5-19-4.4-28.4-2.9-0.3 0 0-0.3 0.1-0.4 9.2-2.8 20.1-0.8 29 2.2 0.8 0.3-0.2 1.2-0.7 1.1z"/><path class="m" d="m64.1 74.9c-0.3 3.2-2.4 5.6-4.8 5.4-2.4-0.2-4.1-3-3.8-6.1 0.3-3.2 2.4-5.6 4.8-5.4 2.4 0.2 4.1 2.9 3.8 6.1z"/><path class="a" d="m60 72.3c-0.1 1-0.8 1.7-1.5 1.6-0.7 0-1.2-0.9-1.1-1.8 0-1 0.7-1.7 1.4-1.7 0.7 0.1 1.3 0.9 1.2 1.9z"/><path class="t" d="m91.2 59.3c-0.4 2.2-2.6 5.1-5.2 4.2-2.3-0.9-3.7-4.6-2.1-6.6 0.5-0.7 1.5-1.5 2.5-1.5 0.6-0.5 1.3-0.8 2.1-0.8 2.2 0.1 3 2.8 2.7 4.7z"/><path class="t" d="m96.2 70.7c-0.7 0.3-1.2 0.1-1.5-0.5-0.3-0.5-0.6-1-0.6-1.6 0-0.5 0.4-1 0.9-1.1 0.3-0.1 0.5 0.1 0.7 0.3 0.3-0.2 0.8-0.2 1.2-0.1 1.5 0.5 0.2 2.6-0.7 3z"/><path class="t" d="m109.1 68.2c-0.9 1.3-2.4 2.7-4.1 2.7-1.9 0.1-2.9-1.4-3.2-3.1-0.2-1.8 0.4-4 1.7-5.3 0.7-0.6 1.4-0.8 2.3-0.8q0 0 0.1 0c1.3-0.2 2.6 0.3 3.4 1.7 1 1.5 0.7 3.3-0.2 4.8z"/><path class="t" d="m87.1 82.4c-1 0.8-3.4 1.7-3.5-0.4-0.1-0.8 0.2-1.5 0.8-2 0.4-0.4 0.8-0.3 1.2-0.1 0.3-0.2 0.7-0.3 1-0.4 0.6-0.1 1.4 0.1 1.6 0.8 0.1 0.9-0.4 1.6-1.1 2.1z"/><path class="t" d="m158.1 47.6c-1.3 1.7-3.8 3-6 2.1-1.4-0.6-1.9-2.2-1.8-3.6 0.2-1.7 1.2-3.8 3-4.3q0.3 0 0.5 0c0.8-0.5 1.8-0.9 2.7-0.7 0.8 0.3 1.3 0.7 1.9 1.4 1.2 1.4 0.8 3.6-0.3 5.1z"/><path class="t" d="m173.4 53.5c-0.3 0.4-1.1 1.1-1.8 0.9q-0.1-0.1-0.2-0.1c-1.4-0.5 0.3-2 1.1-2.1q0.1 0 0.3-0.1c0.9-0.1 1 0.8 0.6 1.4z"/><path class="t" d="m226.2 51.3c-1.4 0.4-3.1 0.3-4.2-0.7-2.8-2.8 2.8-8.7 5.6-6.5 1.4 0.1 2.5 1 2.7 2.4 0.3 2.3-2.2 4.2-4.1 4.8z"/><path class="t" d="m285.4 74.9c-0.7 1-2.3 1.8-3.4 1.2q-0.3-0.2-0.4-0.4c-0.7-0.5-0.5-1.5-0.1-2.1 0.4-0.4 0.9-0.8 1.4-0.6 0.6-0.4 1.3-0.5 1.8-0.2 0.9 0.3 1.2 1.2 0.7 2.1z"/><path class="t" d="m303.5 89.3c-0.8 0-2.2 1.6-1.1 1.7 0.9 0.1 2.3-1.6 1.1-1.7z"/><path class="t" d="m184.5 35.2c-0.3 1.6-2.7 3.3-4.1 1.8-0.9-1-0.1-2.3 0.8-3 0.3-0.2 1.5-0.7 1.6 0.1q0 0.1 0 0.2c0.3-0.1 0.6-0.2 1-0.1 0.4 0.1 0.8 0.5 0.7 1z"/><path class="t" d="m133.5 41.2c-0.4 0.5-1.2 1.2-1.9 1q-0.1 0-0.1 0-0.3 0.1-0.6 0c-0.3 0-0.5-0.1-0.7-0.2-0.7-0.3-0.4-1.3-0.1-1.7 0.5-0.8 1.3-1.3 2.1-1.4 0.7-0.1 1.5 0.1 1.7 0.8 0.1 0.5-0.1 1.1-0.4 1.5z"/><path class="t" d="m142.6 32q0 0.3-0.2 0.7c-0.2 0.3-0.5 0.7-0.8 0.9q0 0 0 0c-0.4 0.4-1.3 0.9-1.8 0.6-1.6-1 0.4-3 1.8-3.1q0.1 0 0.1 0 0.2 0 0.3 0c0.3 0.1 0.6 0.1 0.8 0.4 0.2 0.1 0 0.3-0.2 0.5z"/></svg>