<svg version="1.2" xmlns="http://www.w3.org/2000/svg" viewBox="0 0 237 420" width="237" height="213"><style>.a{fill:#fff}.b{fill:#f1f1f1}.c{fill:#e2e2e2}.d{fill:#d4d4d4}.e{fill:#c5c5c5}.f{fill:#b7b7b7}.g{fill:#a8a8a8}.h{fill:#9a9a9a}.i{fill:#8b8b8b}.j{fill:#7d7d7d}.k{fill:#6e6e6e}.l{fill:#606060}.m{fill:#5c2f10}.n{fill:#f16a4c}.o{mix-blend-mode:multiply;fill:#e83f55}.p{fill:#fffcd7}.q{fill:#f9b9b6}.r{fill:#f6f192}</style><g style="mix-blend-mode:multiply"><path fill-rule="evenodd" class="a" d="m235.4 131c1.4 8.1-3.6 16.3-11.9 19.5-3.3 1.3-7.1 0.6-9.6-1.8-1.2-1.1-2-2.5-2.4-4.1-3.2 2.5-6.6 5-10.4 7.1q-0.8 0.5-1.8 1c3.8 2.6 7.2 5.8 10.2 9.9 5.9 8.2 6.9 19 2.7 27.4-2.8 5.5-6.4 7.1-8.9 7.4-3.2 0.5-6.4-0.6-8.3-2.8-1.8-2-2.4-4.8-1.6-7.5q0.4-1.2 1.1-2.2-0.8-1.5-1.7-2.3-2.5-2.3-5.7-3.6c-5.2-2.2-10.9-3.2-17-4.2l-0.8-0.2q-1.3-0.2-2.7-0.4c2.4 8 2.7 15.4 0.9 22-3.5 13.3-12.1 15.7-13.8 16.1-3.1 0.6-6.7-0.6-8.7-3.1-1.8-2.3-2.3-5.4-1.1-8.1 0.4-0.8 1.2-2.8 3.4-4.1q0 0 0.1 0c-0.3-2.7-1.2-5.5-2.5-7-1.4-1.6-3.7-3-5.8-4.1-1.4-0.8-2.8-1.5-4.3-2.2-5.5-2.7-11.8-5.7-16.4-11.8q-0.7-0.8-1.3-1.7c-2.4 1.8-4.9 3.3-7.3 4.8l-0.9 0.5c-6 3.7-12.2 7.4-14.8 13-2 4.3-1.3 5.7-1.3 5.9l0.3 0.4c0.1 0.2 0.3 0.6 0.5 0.9 1.1 0.2 2.5 0.6 3.8 1.6 2.2 1.6 3.1 4.3 2.5 7.1-1.1 5-6.1 7.8-10.3 8.3q-1.2 0.2-2.3 0.2c-4.4 0-8.8-1.6-12.2-4.4-8.1-6.9-9.5-18.9-7.3-27.9q0.2-0.7 0.4-1.5-2.8-0.4-5.5-0.9l-1.6-0.2q-0.7-0.2-1.5-0.3c-4.1-0.7-9.6-1.6-12.8-0.6-1.9 0.5-3.7 1.6-4.9 2.9-0.6 0.7-0.7 0.9-1.2 2.7l-0.1 0.6q-0.2 0.6-0.4 1.1-0.1 0.2-0.2 0.6-0.3 1.2-1.1 2.2-0.9 1.3-2.2 2.1c-2.8 1.7-6.6 1-8.6-1.6-1.7-2.1-2.8-4.6-3.3-7.4q-0.1-0.5-0.1-1.1 0-0.7 0-1.2c0.3-4.4 1.3-8.1 3-11 4-6.7 9.1-11.5 15.5-14.5-2.5-1-5-1.9-7.5-2.6-4.9-1.3-8.3-1.4-10.5-0.3q0 0 0 0.1c0 2.2-1.2 4.4-2.9 6-2.5 2.1-5.7 2.6-8.5 1.3-4.1-1.9-5.5-6.7-5.5-9.5-0.1-4.2 1.3-8.5 4-12.3 4.7-6.8 12.7-10.8 23.6-11.7q2.5-0.2 4.9-0.2-0.6-2-1.1-3.9c-0.5-1.8-0.9-3.4-1.5-5-0.4-1.4-0.8-1.9-0.9-2.2q-0.1 0-0.1 0-0.2 0.3-0.5 0.7c-2.2 3.3-6.4 4.3-9.7 2.4-2-1.2-3.4-3.2-3.9-5.5-0.7-2.8 0.1-6 2.3-9.3 1.8-3 5-5.2 8.7-6.2 9.4-2.4 18.7 1.4 25.5 10.6 4.8 6.7 8.7 11.4 14.3 11.8 4.1 0.3 8-0.2 10.2-1.1 1.3-0.5 2.6-1.6 3.5-2.9-0.1-2.3-0.7-4.5-1.8-6.5-6.5-6.3-11.4-16.6-8.1-26.3 1.6-4.5 5.4-8.6 9.9-10.9 0-3.2 0.3-6 1-8.7 1.5-5.6 3.3-12.1 6.6-17.8 10-17.1 24.6-28.7 41-32.6 8.4-2 17.6-2 26.6 0.1q0.2 0 0.3 0.1h0.1q0.8 0.1 1.4 0.3 0.9 0.3 1.8 0.5c7.7 2.3 17.9 7.9 23.4 16.8 6 9.7 8.6 19.1 8 28.7-0.7 9.9-4.1 18.7-10.1 26.3-4.3 5.3-11.2 12.5-19.8 16.8l-1.6 0.8c-3.9 2-8.3 4.2-13 5.8-0.6 1.9-0.6 3.2-0.2 3.6 0.8 0.8 1.4 1 2.1 1q0 0 0.1 0c2.7 0 7.1-2.6 11.3-6.7 17.4-16.7 33.1-23.5 47.9-20.8 11.8 2.2 20 9.7 21.5 19.7 1.1 7.2-1.5 14.1-6.3 18.4 3 2.6 5 5.9 5.7 9.7zm-20.7-20.7c-1.6-0.8-3.8-1.1-6.1-1.1-2 0-4 0.3-5.4 0.8-1.8 0.8-3.8 1.6-5 2.8-0.9 0.8-1.8 2-2.7 3.4q-0.5 0.7-1.1 1.5c-0.9 1.3-1.8 2.6-2.8 3.9q-1 1.5-2 3c1.7-0.8 3.5-1.7 5.4-2.6 4.5-2.3 9.2-4.6 14.8-5.6q0.6-0.1 1.2-0.2 0.2-1.3 0.9-2.6 0.2-0.5 0.6-1 0.1-0.2 0.2-0.3 0.3-0.4 0.5-0.7 0.2-0.2 0.3-0.3 0.4-0.4 0.9-0.8 0.1-0.1 0.3-0.2 0 0 0 0z"/><path fill-rule="evenodd" class="b" d="m234.6 130.3c1.5 8.1-3.5 16.3-11.8 19.5-3.4 1.3-7.1 0.6-9.6-1.8-1.3-1.1-2.1-2.6-2.5-4.1-3.2 2.5-6.5 5-10.4 7.1q-0.8 0.5-1.7 0.9c3.7 2.6 7.2 5.8 10.2 10 5.8 8.2 6.9 19 2.7 27.4-2.8 5.5-6.4 7.1-9 7.4-3.1 0.5-6.3-0.6-8.2-2.8-1.8-2-2.4-4.8-1.6-7.5q0.3-1.2 1-2.2-0.8-1.5-1.7-2.3-2.5-2.3-5.6-3.7c-5.2-2.1-11-3.1-17-4.2l-0.8-0.1q-1.3-0.2-2.8-0.5c2.4 8 2.8 15.4 1 22-3.5 13.4-12.1 15.8-13.8 16.1-3.2 0.7-6.7-0.6-8.7-3.1-1.9-2.2-2.3-5.3-1.1-8 0.3-0.8 1.2-2.8 3.4-4.1q0 0 0-0.1c-0.2-2.6-1.1-5.4-2.4-6.9-1.4-1.7-3.7-3-5.8-4.2-1.4-0.7-2.8-1.4-4.3-2.1-5.6-2.7-11.8-5.7-16.5-11.8q-0.6-0.8-1.2-1.7c-2.4 1.7-4.9 3.2-7.4 4.7l-0.9 0.6c-5.9 3.6-12.1 7.4-14.7 12.9-2.1 4.4-1.4 5.8-1.3 5.9l0.3 0.5c0.1 0.2 0.3 0.6 0.5 0.9 1.1 0.2 2.5 0.6 3.8 1.6 2.1 1.6 3.1 4.3 2.5 7-1.1 5-6.2 7.9-10.4 8.4q-1.1 0.2-2.3 0.2c-4.4 0-8.7-1.6-12.1-4.5-8.2-6.8-9.6-18.9-7.4-27.8q0.2-0.8 0.5-1.6-2.8-0.4-5.5-0.8l-1.6-0.3q-0.7-0.1-1.5-0.2c-4.1-0.7-9.7-1.6-12.8-0.7-1.9 0.6-3.7 1.7-4.9 3-0.6 0.6-0.7 0.9-1.2 2.7l-0.1 0.6q-0.2 0.5-0.4 1.1-0.1 0.2-0.2 0.6-0.3 1.2-1.1 2.2-0.9 1.3-2.2 2c-2.9 1.8-6.6 1.1-8.7-1.6-1.6-2.1-2.7-4.5-3.2-7.3q-0.1-0.6-0.1-1.2-0.1-0.6 0-1.2c0.3-4.3 1.3-8 3-10.9 4-6.8 9-11.6 15.5-14.5-2.5-1-5-1.9-7.5-2.6-5-1.4-8.3-1.5-10.5-0.3q0 0 0 0c-0.1 2.3-1.2 4.5-3 6-2.4 2.1-5.6 2.6-8.4 1.4-4.1-1.9-5.6-6.7-5.6-9.5 0-4.2 1.4-8.5 4.1-12.3 4.7-6.9 12.6-10.8 23.6-11.8q2.5-0.2 4.8-0.1-0.6-2-1.1-4c-0.4-1.7-0.9-3.4-1.4-5-0.5-1.3-0.8-1.9-1-2.1q0 0 0 0-0.2 0.3-0.5 0.6c-2.3 3.4-6.4 4.4-9.7 2.5-2-1.3-3.4-3.2-4-5.5-0.6-2.9 0.2-6 2.3-9.4 1.9-2.9 5.1-5.1 8.8-6.1 9.4-2.5 18.6 1.4 25.4 10.6 4.9 6.6 8.8 11.3 14.3 11.7 4.1 0.3 8.1-0.1 10.3-1 1.2-0.6 2.5-1.7 3.5-2.9-0.1-2.3-0.7-4.6-1.8-6.6-6.6-6.3-11.5-16.5-8.1-26.2 1.6-4.6 5.4-8.6 9.8-10.9 0.1-3.2 0.4-6 1.1-8.7 1.4-5.7 3.2-12.2 6.6-17.8 10-17.2 24.5-28.7 40.9-32.7 8.5-2 17.7-1.9 26.6 0.1q0.2 0.1 0.4 0.1h0.1q0.7 0.2 1.4 0.4 0.9 0.2 1.8 0.5c7.7 2.3 17.9 7.9 23.4 16.8 6 9.7 8.6 19.1 8 28.7-0.7 9.9-4.1 18.7-10.1 26.2-4.3 5.3-11.2 12.6-19.9 16.9l-1.5 0.8c-3.9 1.9-8.3 4.1-13 5.7-0.6 2-0.6 3.3-0.3 3.6 0.8 0.9 1.5 1.1 2.2 1.1q0 0 0.1 0c2.6 0 7.1-2.6 11.3-6.7 17.4-16.7 33.1-23.6 47.8-20.8 11.8 2.1 20.1 9.7 21.6 19.7 1.1 7.2-1.5 14.1-6.3 18.4 3 2.5 5 5.8 5.6 9.7zm-20.6-20.8c-1.6-0.7-3.9-1.1-6.1-1.1-2 0-4 0.3-5.4 0.9-1.9 0.7-3.8 1.6-5 2.7-1 0.9-1.8 2.1-2.7 3.4q-0.6 0.8-1.1 1.6c-0.9 1.2-1.8 2.5-2.8 3.9q-1 1.5-2 2.9c1.7-0.7 3.5-1.6 5.3-2.5 4.6-2.3 9.2-4.7 14.8-5.6q0.7-0.1 1.3-0.2 0.2-1.3 0.8-2.6 0.3-0.6 0.6-1.1 0.1-0.1 0.2-0.3 0.3-0.3 0.6-0.6 0.1-0.2 0.3-0.3 0.4-0.5 0.9-0.8 0.1-0.1 0.3-0.2 0 0 0-0.1z"/><path fill-rule="evenodd" class="c" d="m233.9 129.5c1.5 8.2-3.5 16.4-11.9 19.6-3.3 1.2-7.1 0.5-9.6-1.8-1.2-1.1-2-2.6-2.4-4.1-3.2 2.4-6.6 5-10.4 7.1q-0.8 0.4-1.7 0.9c3.7 2.6 7.2 5.8 10.2 10 5.8 8.2 6.9 18.9 2.6 27.3-2.7 5.5-6.3 7.1-8.9 7.5-3.2 0.4-6.3-0.6-8.3-2.8-1.7-2.1-2.3-4.9-1.6-7.5q0.4-1.2 1.1-2.2-0.8-1.5-1.7-2.3-2.5-2.4-5.7-3.7c-5.2-2.2-10.9-3.1-17-4.2l-0.8-0.1q-1.2-0.2-2.7-0.5c2.4 8 2.7 15.4 1 22-3.6 13.3-12.1 15.8-13.8 16.1-3.2 0.7-6.7-0.6-8.7-3.1-1.9-2.3-2.3-5.4-1.1-8.1 0.3-0.7 1.1-2.7 3.3-4q0.1-0.1 0.1-0.1c-0.2-2.6-1.2-5.4-2.4-6.9-1.4-1.7-3.7-3.1-5.8-4.2-1.4-0.7-2.8-1.4-4.4-2.2-5.5-2.6-11.7-5.7-16.4-11.7q-0.6-0.9-1.2-1.7c-2.4 1.7-4.9 3.2-7.4 4.7l-0.9 0.6c-6 3.6-12.1 7.4-14.7 12.9-2.1 4.4-1.4 5.8-1.3 5.9l0.2 0.5c0.2 0.2 0.4 0.5 0.6 0.9 1.1 0.1 2.4 0.6 3.8 1.6 2.1 1.6 3.1 4.3 2.5 7-1.2 5-6.2 7.9-10.4 8.4q-1.1 0.1-2.3 0.1c-4.4 0-8.7-1.5-12.1-4.4-8.2-6.8-9.6-18.9-7.4-27.8q0.2-0.8 0.4-1.6-2.7-0.4-5.5-0.8l-1.5-0.3q-0.8-0.1-1.6-0.3c-4-0.6-9.6-1.6-12.8-0.6-1.8 0.6-3.6 1.6-4.9 2.9-0.6 0.7-0.7 1-1.1 2.7l-0.2 0.7q-0.1 0.5-0.3 1-0.2 0.3-0.3 0.6-0.3 1.3-1 2.3-0.9 1.2-2.2 2c-2.9 1.8-6.6 1.1-8.7-1.6-1.6-2.1-2.7-4.6-3.2-7.3q-0.2-0.6-0.2-1.2 0-0.7 0.1-1.2c0.3-4.4 1.3-8 3-10.9 3.9-6.8 9-11.6 15.5-14.5-2.6-1.1-5.1-1.9-7.6-2.6-4.9-1.4-8.2-1.5-10.4-0.3q0 0 0 0c-0.1 2.2-1.2 4.5-3 6-2.4 2.1-5.7 2.6-8.5 1.3-4-1.8-5.5-6.6-5.5-9.4 0-4.2 1.4-8.5 4-12.4 4.8-6.8 12.7-10.7 23.7-11.7q2.5-0.2 4.8-0.1-0.6-2.1-1.1-4c-0.5-1.7-0.9-3.4-1.4-5-0.5-1.3-0.8-1.9-1-2.2q0 0-0.1 0-0.2 0.4-0.4 0.7c-2.3 3.4-6.5 4.4-9.7 2.4-2.1-1.2-3.5-3.1-4-5.4-0.6-2.9 0.1-6.1 2.3-9.4 1.9-2.9 5.1-5.1 8.8-6.1 9.3-2.5 18.6 1.4 25.4 10.6 4.9 6.6 8.8 11.3 14.3 11.7 4.1 0.3 8.1-0.1 10.3-1.1 1.2-0.5 2.5-1.6 3.5-2.8-0.2-2.4-0.8-4.6-1.8-6.6-6.6-6.3-11.5-16.6-8.1-26.2 1.5-4.6 5.3-8.6 9.8-10.9 0-3.2 0.4-6.1 1.1-8.7 1.4-5.7 3.2-12.2 6.5-17.9 10-17.1 24.6-28.7 41-32.6 8.5-2 17.7-2 26.6 0.1q0.2 0 0.4 0.1h0.1q0.7 0.2 1.4 0.4 0.9 0.2 1.8 0.5c7.7 2.3 17.8 7.9 23.3 16.7 6.1 9.7 8.7 19.1 8 28.7-0.6 9.9-4 18.8-10.1 26.3-4.2 5.3-11.2 12.6-19.8 16.9l-1.5 0.7c-4 2-8.4 4.2-13 5.8-0.7 1.9-0.6 3.2-0.3 3.6 0.8 0.9 1.4 1 2.1 1.1q0.1 0 0.1 0c2.7 0 7.1-2.6 11.4-6.7 17.4-16.8 33-23.6 47.8-20.9 11.8 2.2 20.1 9.8 21.6 19.8 1 7.1-1.5 14.1-6.4 18.4 3.1 2.5 5 5.8 5.7 9.6zm-20.6-20.7c-1.6-0.7-3.9-1.1-6.1-1.1-2.1 0-4 0.3-5.4 0.8-1.9 0.8-3.8 1.6-5.1 2.8-0.9 0.9-1.7 2-2.7 3.4q-0.5 0.8-1.1 1.5c-0.9 1.3-1.8 2.6-2.7 4q-1 1.4-2.1 2.9c1.8-0.7 3.6-1.6 5.4-2.6 4.5-2.2 9.2-4.6 14.8-5.6q0.6-0.1 1.3-0.1 0.2-1.4 0.8-2.7 0.3-0.5 0.6-1 0.1-0.2 0.2-0.3 0.3-0.4 0.6-0.7 0.1-0.1 0.3-0.3 0.4-0.4 0.9-0.8 0.1 0 0.2-0.1 0.1-0.1 0.1-0.1z"/><path fill-rule="evenodd" class="d" d="m233.2 128.8c1.4 8.1-3.6 16.4-11.9 19.5-3.3 1.3-7.1 0.6-9.6-1.7-1.2-1.2-2-2.6-2.4-4.2-3.2 2.5-6.6 5-10.4 7.2q-0.8 0.4-1.8 0.9c3.8 2.6 7.3 5.8 10.2 10 5.9 8.2 6.9 18.9 2.7 27.3-2.8 5.5-6.4 7.1-8.9 7.5-3.2 0.4-6.4-0.7-8.3-2.9-1.7-2-2.4-4.8-1.6-7.4q0.4-1.2 1.1-2.3-0.8-1.4-1.7-2.3-2.5-2.3-5.7-3.6c-5.2-2.2-10.9-3.2-17-4.2l-0.8-0.2q-1.3-0.2-2.7-0.4c2.4 8 2.7 15.4 1 22-3.6 13.3-12.2 15.7-13.8 16.1-3.2 0.6-6.7-0.6-8.8-3.1-1.8-2.3-2.2-5.4-1.1-8.1 0.4-0.8 1.2-2.7 3.4-4.1q0 0 0.1 0c-0.2-2.7-1.2-5.5-2.5-7-1.3-1.6-3.7-3-5.7-4.1-1.4-0.8-2.9-1.5-4.4-2.2-5.5-2.7-11.8-5.7-16.4-11.8q-0.6-0.8-1.3-1.7c-2.4 1.8-4.9 3.3-7.3 4.8l-0.9 0.5c-6 3.7-12.2 7.4-14.8 13-2 4.3-1.3 5.7-1.2 5.9l0.2 0.4c0.1 0.2 0.3 0.6 0.5 0.9 1.1 0.2 2.5 0.6 3.9 1.7 2.1 1.6 3 4.2 2.4 7-1.1 5-6.1 7.8-10.3 8.4q-1.2 0.1-2.3 0.1c-4.4 0-8.7-1.6-12.1-4.4-8.2-6.9-9.6-18.9-7.4-27.8q0.2-0.8 0.4-1.6-2.8-0.4-5.5-0.9l-1.6-0.2q-0.7-0.2-1.5-0.3c-4-0.7-9.6-1.6-12.8-0.6-1.9 0.5-3.7 1.6-4.9 2.9-0.6 0.7-0.7 0.9-1.1 2.7l-0.2 0.7q-0.1 0.5-0.4 1-0.1 0.3-0.2 0.6-0.3 1.2-1 2.2-1 1.3-2.2 2.1c-2.9 1.8-6.7 1.1-8.7-1.6-1.6-2.1-2.7-4.6-3.3-7.3q-0.1-0.6-0.1-1.2 0-0.7 0-1.2c0.3-4.4 1.4-8.1 3-10.9 4-6.8 9.1-11.6 15.6-14.6-2.6-1-5.1-1.9-7.6-2.6-4.9-1.3-8.3-1.4-10.4-0.3q0 0.1 0 0.1c-0.1 2.2-1.2 4.4-3 6-2.5 2.1-5.7 2.6-8.5 1.3-4-1.8-5.5-6.7-5.5-9.4 0-4.3 1.4-8.6 4-12.4 4.7-6.8 12.7-10.8 23.6-11.7q2.5-0.2 4.9-0.2-0.6-2-1.1-3.9c-0.5-1.8-0.9-3.4-1.5-5-0.4-1.3-0.7-1.9-0.9-2.2q-0.1 0-0.1 0-0.2 0.3-0.4 0.7c-2.3 3.3-6.5 4.4-9.7 2.4-2.1-1.2-3.5-3.2-4-5.4-0.7-2.9 0.1-6.1 2.3-9.4 1.9-2.9 5.1-5.2 8.7-6.1 9.4-2.5 18.7 1.3 25.5 10.5 4.8 6.7 8.7 11.4 14.3 11.8 4.1 0.3 8-0.1 10.3-1.1 1.2-0.5 2.5-1.6 3.4-2.8-0.1-2.4-0.7-4.6-1.7-6.6-6.6-6.3-11.5-16.6-8.2-26.2 1.6-4.6 5.4-8.7 9.9-11 0-3.1 0.4-6 1-8.7 1.5-5.6 3.3-12.1 6.6-17.8 10-17.1 24.6-28.7 41-32.6 8.5-2 17.7-2 26.6 0.1q0.2 0 0.4 0.1h0.1q0.7 0.2 1.3 0.3 0.9 0.3 1.8 0.5c7.7 2.3 17.9 8 23.4 16.8 6 9.7 8.7 19.1 8 28.7-0.6 9.9-4 18.7-10.1 26.3-4.3 5.3-11.2 12.5-19.8 16.8l-1.5 0.8c-4 2-8.4 4.2-13.1 5.8-0.6 1.9-0.6 3.2-0.2 3.6 0.8 0.8 1.4 1 2.1 1q0.1 0 0.1 0c2.7 0 7.1-2.6 11.4-6.7 17.4-16.7 33-23.5 47.8-20.8 11.8 2.2 20 9.7 21.5 19.7 1.1 7.2-1.4 14.1-6.3 18.4 3 2.6 5 5.9 5.7 9.7zm-20.6-20.7c-1.7-0.8-3.9-1.1-6.2-1.1-2 0-4 0.3-5.3 0.8-1.9 0.8-3.9 1.6-5.1 2.8-0.9 0.8-1.7 2-2.7 3.4q-0.5 0.7-1.1 1.5c-0.9 1.3-1.8 2.6-2.7 3.9q-1.1 1.5-2.1 3c1.8-0.8 3.5-1.7 5.4-2.6 4.5-2.3 9.2-4.6 14.8-5.6q0.6-0.1 1.2-0.2 0.2-1.3 0.9-2.6 0.2-0.5 0.6-1 0.1-0.2 0.2-0.3 0.3-0.4 0.6-0.7 0.1-0.2 0.2-0.3 0.5-0.4 0.9-0.8 0.2-0.1 0.3-0.2 0 0 0.1 0z"/><path fill-rule="evenodd" class="e" d="m232.4 128.1c1.5 8.1-3.5 16.3-11.8 19.5-3.4 1.3-7.1 0.6-9.6-1.8-1.2-1.1-2.1-2.5-2.4-4.1-3.3 2.5-6.6 5-10.4 7.1q-0.8 0.5-1.8 1c3.7 2.6 7.2 5.8 10.2 9.9 5.9 8.2 6.9 19 2.7 27.4-2.8 5.5-6.4 7.1-8.9 7.4-3.2 0.5-6.4-0.6-8.3-2.8-1.8-2-2.4-4.8-1.6-7.5q0.3-1.2 1.1-2.2-0.9-1.5-1.7-2.3-2.5-2.3-5.7-3.6c-5.2-2.2-10.9-3.2-17-4.2l-0.8-0.2q-1.3-0.2-2.7-0.5c2.3 8.1 2.7 15.4 0.9 22-3.5 13.4-12.1 15.8-13.8 16.1-3.2 0.7-6.7-0.5-8.7-3-1.8-2.3-2.3-5.4-1.1-8.1 0.3-0.8 1.2-2.8 3.4-4.1q0 0 0 0c-0.2-2.7-1.1-5.5-2.4-7-1.4-1.7-3.7-3-5.8-4.1-1.4-0.8-2.8-1.5-4.3-2.2-5.5-2.7-11.8-5.7-16.4-11.8q-0.7-0.8-1.3-1.7c-2.4 1.7-4.9 3.3-7.3 4.8l-0.9 0.5c-6 3.7-12.2 7.4-14.8 12.9-2 4.4-1.4 5.8-1.3 5.9l0.3 0.5c0.1 0.2 0.3 0.6 0.5 0.9 1.1 0.2 2.5 0.6 3.8 1.6 2.1 1.6 3.1 4.3 2.5 7-1.1 5.1-6.1 7.9-10.4 8.4q-1.1 0.2-2.2 0.2c-4.5 0-8.8-1.6-12.2-4.4-8.1-6.9-9.6-19-7.3-27.9q0.2-0.8 0.4-1.5-2.8-0.4-5.5-0.9l-1.6-0.3q-0.7-0.1-1.5-0.2c-4.1-0.7-9.7-1.6-12.8-0.7-1.9 0.6-3.7 1.7-4.9 3-0.6 0.6-0.7 0.9-1.2 2.7l-0.1 0.6q-0.2 0.6-0.4 1.1-0.1 0.2-0.2 0.6-0.3 1.2-1.1 2.2-0.9 1.3-2.2 2.1c-2.8 1.7-6.6 1-8.6-1.6-1.7-2.2-2.8-4.6-3.3-7.4q-0.1-0.5-0.1-1.1 0-0.7 0-1.2c0.3-4.4 1.3-8.1 3-11 4-6.8 9.1-11.5 15.5-14.5-2.5-1-5-1.9-7.5-2.6-5-1.4-8.3-1.5-10.5-0.3q0 0 0 0c0 2.3-1.2 4.5-2.9 6-2.5 2.1-5.7 2.7-8.5 1.4-4.1-1.9-5.5-6.7-5.6-9.5 0-4.2 1.4-8.5 4.1-12.3 4.7-6.9 12.7-10.8 23.6-11.7q2.5-0.2 4.9-0.2-0.6-2-1.1-3.9c-0.5-1.8-0.9-3.5-1.5-5-0.4-1.4-0.8-2-0.9-2.2q-0.1 0-0.1 0-0.2 0.3-0.5 0.7c-2.2 3.3-6.4 4.3-9.7 2.4-2-1.3-3.4-3.2-3.9-5.5-0.7-2.8 0.1-6 2.2-9.4 1.9-2.9 5.1-5.1 8.8-6.1 9.4-2.4 18.7 1.4 25.4 10.6 4.9 6.6 8.8 11.4 14.4 11.8 4.1 0.2 8-0.2 10.2-1.1 1.3-0.6 2.6-1.6 3.5-2.9-0.1-2.3-0.7-4.5-1.8-6.6-6.5-6.2-11.4-16.5-8.1-26.2 1.6-4.5 5.4-8.6 9.9-10.9 0-3.2 0.3-6 1-8.7 1.4-5.6 3.2-12.1 6.6-17.8 10-17.2 24.5-28.7 41-32.6 8.4-2 17.6-2 26.6 0q0.1 0.1 0.3 0.1l0.1 0.1q0.7 0.1 1.4 0.3 0.9 0.2 1.8 0.5c7.7 2.3 17.9 7.9 23.4 16.8 6 9.7 8.6 19.1 8 28.7-0.7 9.9-4.1 18.7-10.1 26.2-4.3 5.4-11.2 12.6-19.9 16.9l-1.5 0.8c-3.9 2-8.3 4.2-13 5.8-0.6 1.9-0.6 3.2-0.3 3.5 0.9 0.9 1.5 1.1 2.2 1.1q0 0 0.1 0c2.7 0 7.1-2.6 11.3-6.7 17.4-16.7 33.1-23.6 47.9-20.8 11.7 2.1 20 9.7 21.5 19.7 1.1 7.2-1.5 14.1-6.3 18.4 3 2.5 5 5.8 5.6 9.7zm-20.6-20.7c-1.6-0.8-3.9-1.2-6.1-1.2-2 0-4 0.3-5.4 0.9-1.8 0.8-3.8 1.6-5 2.7-0.9 0.9-1.8 2.1-2.7 3.4q-0.6 0.8-1.1 1.6c-0.9 1.3-1.8 2.5-2.8 3.9q-1 1.5-2 3c1.7-0.8 3.5-1.7 5.3-2.6 4.6-2.3 9.3-4.6 14.9-5.6q0.6-0.1 1.2-0.2 0.2-1.3 0.8-2.6 0.3-0.5 0.7-1 0.1-0.2 0.2-0.3 0.2-0.4 0.5-0.7 0.2-0.2 0.3-0.3 0.4-0.4 0.9-0.8 0.1-0.1 0.3-0.2 0 0 0 0z"/><path fill-rule="evenodd" class="f" d="m231.7 127.3c1.5 8.2-3.5 16.4-11.9 19.6-3.3 1.2-7 0.5-9.6-1.8-1.2-1.1-2-2.6-2.4-4.1-3.2 2.4-6.5 5-10.4 7.1q-0.8 0.4-1.7 0.9c3.7 2.6 7.2 5.8 10.2 10 5.8 8.2 6.9 18.9 2.6 27.4-2.7 5.4-6.3 7-8.9 7.4-3.2 0.5-6.3-0.6-8.2-2.8-1.8-2-2.4-4.8-1.6-7.5q0.3-1.2 1-2.2-0.8-1.5-1.7-2.3-2.5-2.4-5.6-3.7c-5.2-2.2-11-3.1-17-4.2l-0.9-0.1q-1.2-0.2-2.7-0.5c2.4 8 2.7 15.4 1 22-3.5 13.4-12.1 15.8-13.8 16.1-3.2 0.7-6.7-0.6-8.7-3.1-1.9-2.3-2.3-5.3-1.1-8 0.3-0.8 1.2-2.8 3.3-4.1q0.1 0 0.1-0.1c-0.2-2.6-1.2-5.4-2.4-6.9-1.4-1.7-3.7-3.1-5.8-4.2-1.4-0.7-2.8-1.4-4.4-2.1-5.5-2.7-11.7-5.7-16.4-11.8q-0.6-0.8-1.2-1.7c-2.4 1.7-4.9 3.2-7.4 4.7l-0.9 0.6c-5.9 3.6-12.1 7.4-14.7 12.9-2.1 4.4-1.4 5.8-1.3 5.9l0.3 0.5c0.1 0.2 0.3 0.5 0.5 0.9 1.1 0.2 2.5 0.6 3.8 1.6 2.1 1.6 3.1 4.3 2.5 7-1.2 5-6.2 7.9-10.4 8.4q-1.1 0.1-2.3 0.1c-4.4 0-8.7-1.5-12.1-4.4-8.2-6.8-9.6-18.9-7.4-27.8q0.2-0.8 0.5-1.6-2.8-0.4-5.6-0.8l-1.5-0.3q-0.8-0.1-1.5-0.2c-4.1-0.7-9.7-1.6-12.9-0.7-1.8 0.6-3.6 1.7-4.8 3-0.7 0.6-0.7 0.9-1.2 2.6l-0.2 0.7q-0.1 0.5-0.3 1-0.1 0.3-0.2 0.7-0.4 1.2-1.1 2.2-0.9 1.2-2.2 2c-2.9 1.8-6.6 1.1-8.7-1.6-1.6-2.1-2.7-4.6-3.2-7.3q-0.1-0.6-0.2-1.2 0-0.6 0.1-1.2c0.3-4.4 1.3-8 3-10.9 3.9-6.8 9-11.6 15.5-14.5-2.5-1-5-1.9-7.6-2.6-4.9-1.4-8.2-1.5-10.4-0.3q0 0 0 0c-0.1 2.2-1.2 4.5-3 6-2.4 2.1-5.7 2.6-8.5 1.3-4-1.8-5.5-6.6-5.5-9.4 0-4.2 1.4-8.5 4.1-12.4 4.7-6.8 12.6-10.7 23.6-11.7q2.5-0.2 4.8-0.1-0.6-2.1-1.1-4c-0.4-1.7-0.9-3.4-1.4-5-0.5-1.3-0.8-1.9-1-2.1q0 0-0.1-0.1-0.2 0.4-0.4 0.7c-2.3 3.4-6.4 4.4-9.7 2.5-2-1.3-3.4-3.2-4-5.5-0.6-2.9 0.1-6 2.3-9.4 1.9-2.9 5.1-5.1 8.8-6.1 9.4-2.5 18.6 1.4 25.4 10.6 4.9 6.6 8.8 11.3 14.3 11.7 4.1 0.3 8.1-0.1 10.3-1.1 1.2-0.5 2.5-1.6 3.5-2.8-0.2-2.3-0.8-4.6-1.8-6.6-6.6-6.3-11.5-16.6-8.1-26.2 1.6-4.6 5.4-8.6 9.8-10.9 0.1-3.2 0.4-6.1 1.1-8.7 1.4-5.7 3.2-12.2 6.5-17.9 10.1-17.1 24.6-28.7 41-32.6 8.5-2 17.7-1.9 26.6 0.1q0.2 0.1 0.4 0.1h0.1q0.7 0.2 1.4 0.4 0.9 0.2 1.8 0.5c7.7 2.3 17.9 7.9 23.3 16.8 6.1 9.7 8.7 19.1 8.1 28.7-0.7 9.9-4.1 18.7-10.1 26.2-4.3 5.3-11.2 12.6-19.9 16.9l-1.5 0.7c-4 2-8.4 4.2-13 5.8-0.7 2-0.6 3.3-0.3 3.6 0.8 0.9 1.5 1.1 2.2 1.1q0 0 0.1 0c2.6 0 7.1-2.6 11.3-6.7 17.4-16.8 33.1-23.6 47.8-20.9 11.8 2.2 20.1 9.8 21.6 19.8 1 7.1-1.5 14.1-6.3 18.4 3 2.5 4.9 5.8 5.6 9.6zm-20.6-20.7c-1.6-0.7-3.9-1.1-6.1-1.1-2 0-4 0.3-5.4 0.9-1.9 0.7-3.8 1.6-5 2.7-1 0.9-1.8 2.1-2.7 3.4q-0.6 0.8-1.1 1.6c-1 1.2-1.9 2.5-2.8 3.9q-1 1.4-2.1 2.9c1.8-0.7 3.6-1.6 5.4-2.5 4.5-2.3 9.2-4.7 14.8-5.6q0.7-0.1 1.3-0.2 0.2-1.4 0.8-2.6 0.3-0.6 0.6-1.1 0.1-0.1 0.2-0.3 0.3-0.3 0.6-0.7 0.1-0.1 0.3-0.2 0.4-0.5 0.9-0.8 0.1-0.1 0.2-0.2 0.1 0 0.1-0.1z"/><path fill-rule="evenodd" class="g" d="m231 126.6c1.4 8.2-3.6 16.4-11.9 19.6-3.3 1.2-7.1 0.5-9.6-1.8-1.2-1.2-2-2.6-2.4-4.2-3.2 2.5-6.6 5.1-10.4 7.2q-0.8 0.4-1.8 0.9c3.8 2.6 7.3 5.8 10.2 10 5.9 8.2 6.9 18.9 2.7 27.3-2.7 5.5-6.4 7.1-8.9 7.5-3.2 0.4-6.3-0.6-8.3-2.8-1.7-2.1-2.3-4.9-1.6-7.5q0.4-1.2 1.1-2.2-0.8-1.5-1.7-2.4-2.5-2.3-5.7-3.6c-5.2-2.2-10.9-3.2-17-4.2l-0.8-0.1q-1.2-0.3-2.7-0.5c2.4 8 2.7 15.4 1 22-3.6 13.3-12.1 15.7-13.8 16.1-3.2 0.6-6.7-0.6-8.8-3.1-1.8-2.3-2.2-5.4-1-8.1 0.3-0.8 1.1-2.7 3.3-4.1q0.1 0 0.1 0c-0.2-2.6-1.2-5.4-2.4-7-1.4-1.6-3.7-3-5.8-4.1-1.4-0.7-2.9-1.4-4.4-2.2-5.5-2.6-11.8-5.7-16.4-11.7q-0.6-0.9-1.3-1.8c-2.4 1.8-4.8 3.3-7.3 4.8l-0.9 0.6c-6 3.6-12.1 7.4-14.7 12.9-2.1 4.4-1.4 5.7-1.3 5.9l0.2 0.4c0.2 0.3 0.4 0.6 0.6 1 1 0.1 2.4 0.5 3.8 1.6 2.1 1.6 3.1 4.3 2.4 7-1.1 5-6.1 7.9-10.3 8.4q-1.2 0.1-2.3 0.1c-4.4 0-8.7-1.5-12.1-4.4-8.2-6.9-9.6-18.9-7.4-27.8q0.2-0.8 0.4-1.6-2.8-0.4-5.5-0.9l-1.6-0.2q-0.7-0.1-1.5-0.3c-4-0.6-9.6-1.6-12.8-0.6-1.9 0.6-3.6 1.6-4.9 2.9-0.6 0.7-0.7 0.9-1.1 2.7l-0.2 0.7q-0.1 0.5-0.4 1-0.1 0.3-0.2 0.6-0.3 1.2-1 2.3-0.9 1.2-2.2 2c-2.9 1.8-6.6 1.1-8.7-1.6-1.6-2.1-2.7-4.6-3.3-7.3q-0.1-0.6-0.1-1.2 0-0.7 0-1.2c0.4-4.4 1.4-8 3.1-10.9 3.9-6.8 9-11.6 15.5-14.6-2.6-1-5.1-1.9-7.6-2.6-4.9-1.3-8.2-1.4-10.4-0.2q0 0 0 0c-0.1 2.2-1.2 4.4-3 6-2.4 2.1-5.7 2.6-8.5 1.3-4-1.8-5.5-6.6-5.5-9.4 0-4.3 1.4-8.5 4-12.4 4.7-6.8 12.7-10.8 23.7-11.7q2.5-0.2 4.8-0.1-0.6-2.1-1.1-4c-0.5-1.8-0.9-3.4-1.4-5-0.5-1.3-0.8-1.9-1-2.2q0 0-0.1 0-0.2 0.3-0.4 0.7c-2.3 3.3-6.5 4.4-9.7 2.4-2.1-1.2-3.5-3.1-4-5.4-0.7-2.9 0.1-6.1 2.3-9.4 1.9-2.9 5.1-5.2 8.7-6.1 9.4-2.5 18.7 1.4 25.5 10.6 4.9 6.6 8.7 11.3 14.3 11.7 4.1 0.3 8-0.1 10.3-1.1 1.2-0.5 2.5-1.6 3.4-2.8-0.1-2.4-0.7-4.6-1.7-6.6-6.6-6.3-11.5-16.6-8.2-26.2 1.6-4.6 5.4-8.7 9.9-11 0-3.1 0.4-6 1.1-8.7 1.4-5.6 3.2-12.1 6.5-17.8 10-17.1 24.6-28.7 41-32.6 8.5-2 17.7-2 26.6 0.1q0.2 0 0.4 0.1h0.1q0.7 0.2 1.3 0.3 1 0.3 1.9 0.6c7.6 2.3 17.8 7.9 23.3 16.7 6.1 9.7 8.7 19.1 8 28.7-0.6 9.9-4 18.8-10.1 26.3-4.3 5.3-11.2 12.6-19.8 16.9l-1.5 0.7c-4 2-8.4 4.2-13 5.8-0.7 1.9-0.6 3.2-0.3 3.6 0.8 0.9 1.4 1 2.1 1.1q0.1 0 0.1 0c2.7 0 7.1-2.7 11.4-6.7 17.4-16.8 33-23.6 47.8-20.9 11.8 2.2 20 9.8 21.5 19.8 1.1 7.1-1.4 14.1-6.3 18.3 3 2.6 5 5.9 5.7 9.7zm-20.6-20.7c-1.6-0.8-3.9-1.1-6.1-1.1-2.1 0-4 0.3-5.4 0.8-1.9 0.8-3.8 1.6-5.1 2.8-0.9 0.9-1.7 2-2.7 3.4q-0.5 0.8-1.1 1.5c-0.9 1.3-1.8 2.6-2.7 4q-1 1.4-2.1 2.9c1.8-0.8 3.6-1.6 5.4-2.6 4.5-2.2 9.2-4.6 14.8-5.6q0.6-0.1 1.3-0.1 0.1-1.4 0.8-2.7 0.3-0.5 0.6-1 0.1-0.2 0.2-0.3 0.3-0.4 0.6-0.7 0.1-0.1 0.2-0.3 0.5-0.4 1-0.8 0.1-0.1 0.2-0.2 0 0 0.1 0z"/><path fill-rule="evenodd" class="h" d="m230.3 125.9c1.4 8.1-3.6 16.3-11.9 19.5-3.3 1.3-7.1 0.6-9.6-1.7-1.2-1.2-2-2.6-2.4-4.2-3.2 2.5-6.6 5-10.4 7.1q-0.8 0.5-1.8 1c3.8 2.6 7.3 5.8 10.2 9.9 5.9 8.2 6.9 19 2.7 27.4-2.8 5.5-6.4 7.1-8.9 7.4-3.2 0.5-6.4-0.6-8.3-2.8-1.8-2-2.4-4.8-1.6-7.5q0.4-1.2 1.1-2.2-0.8-1.5-1.7-2.3-2.5-2.3-5.7-3.6c-5.2-2.2-10.9-3.2-17-4.2l-0.8-0.2q-1.3-0.2-2.7-0.4c2.4 8 2.7 15.4 0.9 22-3.5 13.3-12.1 15.7-13.8 16.1-3.1 0.6-6.6-0.6-8.7-3.1-1.8-2.3-2.2-5.4-1.1-8.1 0.4-0.8 1.2-2.7 3.4-4.1q0 0 0.1 0c-0.3-2.7-1.2-5.5-2.5-7-1.4-1.6-3.7-3-5.8-4.1-1.4-0.8-2.8-1.5-4.3-2.2-5.5-2.7-11.8-5.7-16.4-11.8q-0.6-0.8-1.3-1.7c-2.4 1.8-4.9 3.3-7.3 4.8l-0.9 0.5c-6 3.7-12.2 7.4-14.8 13-2 4.3-1.3 5.7-1.3 5.9l0.3 0.4c0.1 0.2 0.3 0.6 0.5 0.9 1.1 0.2 2.5 0.6 3.9 1.6 2.1 1.6 3 4.3 2.4 7.1-1.1 5-6.1 7.8-10.3 8.3q-1.2 0.2-2.3 0.2c-4.4 0-8.8-1.6-12.2-4.4-8.1-6.9-9.5-18.9-7.3-27.9q0.2-0.7 0.4-1.5-2.8-0.4-5.5-0.9l-1.6-0.2q-0.7-0.2-1.5-0.3c-4.1-0.7-9.6-1.6-12.8-0.6-1.9 0.5-3.7 1.6-4.9 2.9-0.6 0.7-0.7 0.9-1.2 2.7l-0.1 0.6q-0.2 0.6-0.4 1.1-0.1 0.2-0.2 0.6-0.3 1.2-1.1 2.2-0.9 1.3-2.2 2.1c-2.8 1.7-6.6 1-8.6-1.6-1.7-2.1-2.7-4.6-3.3-7.3q-0.1-0.6-0.1-1.2 0-0.7 0-1.2c0.3-4.4 1.4-8.1 3-10.9 4-6.8 9.1-11.6 15.5-14.6-2.5-1-5-1.9-7.5-2.6-4.9-1.3-8.3-1.4-10.5-0.3q0 0 0 0.1c0 2.2-1.2 4.4-2.9 6-2.5 2.1-5.7 2.6-8.5 1.3-4.1-1.9-5.5-6.7-5.5-9.5-0.1-4.2 1.3-8.5 4-12.3 4.7-6.8 12.7-10.8 23.6-11.7q2.5-0.2 4.9-0.2-0.6-2-1.1-3.9c-0.5-1.8-0.9-3.4-1.5-5-0.4-1.4-0.7-1.9-0.9-2.2q-0.1 0-0.1 0-0.2 0.3-0.4 0.7c-2.3 3.3-6.5 4.3-9.8 2.4-2-1.2-3.4-3.2-3.9-5.5-0.7-2.8 0.1-6 2.3-9.3 1.8-2.9 5-5.2 8.7-6.1 9.4-2.5 18.7 1.3 25.5 10.5 4.8 6.7 8.7 11.4 14.3 11.8 4.1 0.3 8-0.2 10.2-1.1 1.3-0.5 2.6-1.6 3.5-2.8-0.1-2.4-0.7-4.6-1.8-6.6-6.5-6.3-11.4-16.6-8.1-26.3 1.6-4.5 5.4-8.6 9.9-10.9 0-3.2 0.4-6 1-8.7 1.5-5.6 3.3-12.1 6.6-17.8 10-17.1 24.6-28.7 41-32.6 8.4-2 17.6-2 26.6 0.1q0.2 0 0.3 0.1h0.1q0.8 0.1 1.4 0.3 0.9 0.3 1.8 0.5c7.7 2.3 17.9 7.9 23.4 16.8 6 9.7 8.6 19.1 8 28.7-0.7 9.9-4.1 18.7-10.1 26.3-4.3 5.3-11.2 12.5-19.8 16.8l-1.6 0.8c-3.9 2-8.3 4.2-13 5.8-0.6 1.9-0.6 3.2-0.2 3.6 0.8 0.8 1.4 1 2.1 1q0.1 0 0.1 0c2.7 0 7.1-2.6 11.3-6.7 17.4-16.7 33.1-23.5 47.9-20.8 11.8 2.2 20 9.7 21.5 19.7 1.1 7.2-1.5 14.1-6.3 18.4 3 2.6 5 5.9 5.7 9.7zm-20.6-20.7c-1.7-0.8-3.9-1.1-6.2-1.1-2 0-4 0.3-5.3 0.8-1.9 0.8-3.9 1.6-5.1 2.8-0.9 0.8-1.8 2-2.7 3.4q-0.5 0.7-1.1 1.5c-0.9 1.3-1.8 2.6-2.8 3.9q-1 1.5-2 3c1.7-0.8 3.5-1.7 5.4-2.6 4.5-2.3 9.2-4.6 14.8-5.6q0.6-0.1 1.2-0.2 0.2-1.3 0.9-2.6 0.2-0.5 0.6-1 0.1-0.2 0.2-0.3 0.3-0.4 0.5-0.7 0.2-0.2 0.3-0.3 0.4-0.4 0.9-0.8 0.2-0.1 0.3-0.2 0 0 0.1 0z"/><path fill-rule="evenodd" class="i" d="m229.5 125.2c1.5 8.1-3.5 16.3-11.8 19.5-3.4 1.3-7.1 0.6-9.6-1.8-1.3-1.1-2.1-2.6-2.4-4.1-3.3 2.5-6.6 5-10.5 7.1q-0.8 0.5-1.7 0.9c3.7 2.7 7.2 5.9 10.2 10 5.8 8.2 6.9 19 2.7 27.4-2.8 5.5-6.4 7.1-9 7.4-3.1 0.5-6.3-0.6-8.2-2.8-1.8-2-2.4-4.8-1.6-7.5q0.3-1.2 1-2.2-0.8-1.5-1.7-2.3-2.5-2.3-5.6-3.7c-5.2-2.1-11-3.1-17-4.2l-0.8-0.1q-1.3-0.2-2.7-0.5c2.3 8 2.7 15.4 0.9 22-3.5 13.4-12.1 15.8-13.8 16.1-3.2 0.7-6.7-0.6-8.7-3.1-1.9-2.2-2.3-5.3-1.1-8 0.3-0.8 1.2-2.8 3.4-4.1q0 0 0-0.1c-0.2-2.6-1.1-5.4-2.4-6.9-1.4-1.7-3.7-3-5.8-4.2-1.4-0.7-2.8-1.4-4.3-2.1-5.6-2.7-11.8-5.7-16.4-11.8q-0.7-0.8-1.3-1.7c-2.4 1.7-4.9 3.3-7.3 4.7l-1 0.6c-5.9 3.6-12.1 7.4-14.7 12.9-2.1 4.4-1.4 5.8-1.3 5.9l0.3 0.5c0.1 0.2 0.3 0.6 0.5 0.9 1.1 0.2 2.5 0.6 3.8 1.6 2.1 1.6 3.1 4.3 2.5 7-1.1 5-6.2 7.9-10.4 8.4q-1.1 0.2-2.3 0.2c-4.4 0-8.7-1.6-12.1-4.5-8.1-6.8-9.6-18.9-7.4-27.8q0.2-0.8 0.5-1.6-2.8-0.4-5.5-0.8l-1.6-0.3q-0.7-0.1-1.5-0.2c-4.1-0.7-9.7-1.6-12.8-0.7-1.9 0.6-3.7 1.7-4.9 3-0.6 0.6-0.7 0.9-1.2 2.7l-0.1 0.6q-0.2 0.6-0.4 1.1-0.1 0.2-0.2 0.6-0.3 1.2-1.1 2.2-0.9 1.3-2.2 2c-2.9 1.8-6.6 1.1-8.7-1.6-1.6-2.1-2.7-4.5-3.2-7.3q-0.1-0.6-0.1-1.1 0-0.7 0-1.3c0.3-4.3 1.3-8 3-10.9 4-6.8 9-11.6 15.5-14.5-2.5-1-5-1.9-7.5-2.6-5-1.4-8.3-1.5-10.5-0.3q0 0 0 0c-0.1 2.3-1.2 4.5-3 6-2.4 2.1-5.6 2.6-8.4 1.4-4.1-1.9-5.6-6.7-5.6-9.5 0-4.2 1.4-8.5 4.1-12.3 4.7-6.9 12.6-10.8 23.6-11.7q2.5-0.3 4.8-0.2-0.6-2-1.1-4c-0.4-1.7-0.9-3.4-1.4-5-0.5-1.3-0.8-1.9-1-2.1q0 0 0 0-0.2 0.3-0.5 0.6c-2.3 3.4-6.4 4.4-9.7 2.5-2-1.3-3.4-3.2-4-5.5-0.6-2.9 0.2-6 2.3-9.4 1.9-2.9 5.1-5.1 8.8-6.1 9.4-2.5 18.7 1.4 25.4 10.6 4.9 6.6 8.8 11.3 14.3 11.7 4.1 0.3 8.1-0.1 10.3-1 1.2-0.6 2.5-1.7 3.5-2.9-0.1-2.3-0.7-4.6-1.8-6.6-6.5-6.3-11.5-16.5-8.1-26.2 1.6-4.6 5.4-8.6 9.8-10.9 0.1-3.2 0.4-6 1.1-8.7 1.4-5.7 3.2-12.2 6.6-17.8 10-17.2 24.5-28.7 41-32.6 8.4-2.1 17.6-2 26.6 0q0.1 0.1 0.3 0.1h0.1q0.7 0.2 1.4 0.4 0.9 0.2 1.8 0.5c7.7 2.3 17.9 7.9 23.4 16.8 6 9.7 8.6 19.1 8 28.7-0.7 9.9-4.1 18.7-10.1 26.2-4.3 5.4-11.2 12.6-19.9 16.9l-1.5 0.8c-3.9 1.9-8.3 4.1-13 5.7-0.6 2-0.6 3.3-0.3 3.6 0.8 0.9 1.5 1.1 2.2 1.1q0 0 0.1 0c2.6 0 7.1-2.6 11.3-6.7 17.4-16.7 33.1-23.6 47.8-20.8 11.8 2.1 20.1 9.7 21.6 19.7 1.1 7.2-1.5 14.1-6.3 18.4 3 2.5 5 5.8 5.6 9.7zm-20.6-20.8c-1.6-0.7-3.9-1.1-6.1-1.1-2 0-4 0.3-5.4 0.9-1.9 0.7-3.8 1.6-5 2.7-1 0.9-1.8 2.1-2.7 3.4q-0.6 0.8-1.1 1.6c-0.9 1.2-1.8 2.5-2.8 3.9q-1 1.5-2 2.9c1.7-0.7 3.5-1.6 5.3-2.5 4.6-2.3 9.2-4.7 14.8-5.6q0.7-0.1 1.3-0.2 0.2-1.3 0.8-2.6 0.3-0.6 0.6-1.1 0.2-0.1 0.2-0.3 0.3-0.3 0.6-0.6 0.2-0.2 0.3-0.3 0.4-0.5 0.9-0.8 0.1-0.1 0.3-0.2 0 0 0-0.1z"/><path fill-rule="evenodd" class="j" d="m228.8 124.4c1.5 8.2-3.5 16.4-11.9 19.6-3.3 1.2-7.1 0.5-9.6-1.8-1.2-1.1-2-2.6-2.4-4.1-3.2 2.4-6.5 5-10.4 7.1q-0.8 0.4-1.7 0.9c3.7 2.6 7.2 5.8 10.2 10 5.8 8.2 6.9 18.9 2.6 27.3-2.7 5.5-6.3 7.1-8.9 7.5-3.2 0.4-6.3-0.6-8.3-2.8-1.7-2.1-2.3-4.9-1.6-7.5q0.4-1.2 1.1-2.2-0.8-1.5-1.7-2.3-2.5-2.4-5.7-3.7c-5.2-2.2-10.9-3.1-17-4.2l-0.8-0.1q-1.2-0.2-2.7-0.5c2.4 8 2.7 15.4 1 22-3.6 13.3-12.1 15.8-13.8 16.1-3.2 0.7-6.7-0.6-8.7-3.1-1.9-2.3-2.3-5.4-1.1-8.1 0.3-0.7 1.1-2.7 3.3-4q0.1-0.1 0.1-0.1c-0.2-2.6-1.2-5.4-2.4-6.9-1.4-1.7-3.7-3.1-5.8-4.2-1.4-0.7-2.8-1.4-4.4-2.2-5.5-2.6-11.7-5.6-16.4-11.7q-0.6-0.9-1.2-1.7c-2.4 1.7-4.9 3.2-7.4 4.7l-0.9 0.6c-6 3.6-12.1 7.4-14.7 12.9-2.1 4.4-1.4 5.8-1.3 5.9l0.2 0.5c0.2 0.2 0.4 0.5 0.6 0.9 1.1 0.1 2.4 0.6 3.8 1.6 2.1 1.6 3.1 4.3 2.5 7-1.2 5-6.2 7.9-10.4 8.4q-1.1 0.1-2.3 0.1c-4.4 0-8.7-1.5-12.1-4.4-8.2-6.8-9.6-18.9-7.4-27.8q0.2-0.8 0.5-1.6-2.8-0.4-5.6-0.8l-1.5-0.3q-0.8-0.1-1.5-0.3c-4.1-0.6-9.7-1.6-12.9-0.6-1.8 0.6-3.6 1.6-4.9 2.9-0.6 0.7-0.7 1-1.1 2.7l-0.2 0.7q-0.1 0.5-0.3 1-0.2 0.3-0.3 0.6-0.3 1.3-1 2.3-0.9 1.2-2.2 2c-2.9 1.8-6.6 1.1-8.7-1.6-1.6-2.1-2.7-4.6-3.2-7.3q-0.2-0.6-0.2-1.2 0-0.7 0.1-1.2c0.3-4.4 1.3-8 3-10.9 3.9-6.8 9-11.6 15.5-14.5-2.6-1.1-5.1-1.9-7.6-2.6-4.9-1.4-8.2-1.5-10.4-0.3q0 0 0 0c-0.1 2.2-1.2 4.5-3 6-2.4 2.1-5.7 2.6-8.5 1.3-4-1.8-5.5-6.6-5.5-9.4 0-4.2 1.4-8.5 4-12.4 4.8-6.8 12.7-10.7 23.7-11.7q2.5-0.2 4.8-0.1-0.6-2.1-1.1-4c-0.4-1.7-0.9-3.4-1.4-5-0.5-1.3-0.8-1.9-1-2.2q0 0-0.1 0-0.2 0.4-0.4 0.7c-2.3 3.4-6.5 4.4-9.7 2.4-2.1-1.2-3.5-3.1-4-5.4-0.6-2.9 0.1-6 2.3-9.4 1.9-2.9 5.1-5.1 8.8-6.1 9.3-2.5 18.6 1.4 25.4 10.6 4.9 6.6 8.8 11.3 14.3 11.7 4.1 0.3 8.1-0.1 10.3-1.1 1.2-0.5 2.5-1.6 3.5-2.8-0.2-2.4-0.8-4.6-1.8-6.6-6.6-6.3-11.5-16.6-8.1-26.2 1.6-4.6 5.3-8.6 9.8-10.9 0-3.2 0.4-6.1 1.1-8.7 1.4-5.7 3.2-12.2 6.5-17.9 10-17.1 24.6-28.7 41-32.6 8.5-2 17.7-2 26.6 0.1q0.2 0.1 0.4 0.1h0.1q0.7 0.2 1.4 0.4 0.9 0.2 1.8 0.5c7.7 2.3 17.8 7.9 23.3 16.7 6.1 9.7 8.7 19.1 8 28.7-0.6 9.9-4 18.8-10.1 26.3-4.2 5.3-11.2 12.6-19.8 16.9l-1.5 0.7c-4 2-8.4 4.2-13 5.8-0.7 2-0.6 3.2-0.3 3.6 0.8 0.9 1.4 1.1 2.1 1.1q0.1 0 0.1 0c2.7 0 7.1-2.6 11.4-6.7 17.4-16.8 33-23.6 47.8-20.9 11.8 2.2 20.1 9.8 21.6 19.8 1 7.1-1.5 14.1-6.4 18.4 3.1 2.5 5 5.8 5.7 9.6zm-20.6-20.7c-1.6-0.7-3.9-1.1-6.1-1.1-2 0-4 0.3-5.4 0.9-1.9 0.7-3.8 1.5-5.1 2.7-0.9 0.9-1.7 2-2.7 3.4q-0.5 0.8-1.1 1.5c-0.9 1.3-1.8 2.6-2.7 4q-1 1.4-2.1 2.9c1.8-0.7 3.6-1.6 5.4-2.6 4.5-2.2 9.2-4.6 14.8-5.5q0.6-0.2 1.3-0.2 0.2-1.4 0.8-2.7 0.3-0.5 0.6-1 0.1-0.2 0.2-0.3 0.3-0.4 0.6-0.7 0.1-0.1 0.3-0.3 0.4-0.4 0.9-0.7 0.1-0.1 0.2-0.2 0.1-0.1 0.1-0.1z"/><path fill-rule="evenodd" class="k" d="m228.1 123.7c1.4 8.1-3.6 16.4-11.9 19.5-3.3 1.3-7.1 0.6-9.6-1.7-1.2-1.2-2-2.6-2.4-4.2-3.2 2.5-6.6 5-10.4 7.2q-0.8 0.4-1.8 0.9c3.8 2.6 7.3 5.8 10.2 10 5.9 8.2 6.9 18.9 2.7 27.3-2.8 5.5-6.4 7.1-8.9 7.5-3.2 0.4-6.4-0.7-8.3-2.9-1.7-2-2.4-4.8-1.6-7.4q0.4-1.2 1.1-2.3-0.8-1.4-1.7-2.3-2.5-2.3-5.7-3.6c-5.2-2.2-10.9-3.2-17-4.2l-0.8-0.2q-1.2-0.2-2.7-0.4c2.4 8 2.7 15.4 1 22-3.6 13.3-12.2 15.7-13.8 16.1-3.2 0.6-6.7-0.6-8.8-3.1-1.8-2.3-2.2-5.4-1.1-8.1 0.4-0.8 1.2-2.7 3.4-4.1q0 0 0.1 0c-0.2-2.7-1.2-5.5-2.5-7-1.3-1.6-3.7-3-5.7-4.1-1.4-0.8-2.9-1.4-4.4-2.2-5.5-2.7-11.8-5.7-16.4-11.8q-0.6-0.8-1.3-1.7c-2.4 1.8-4.9 3.3-7.3 4.8l-0.9 0.5c-6 3.7-12.2 7.5-14.8 13-2 4.3-1.3 5.7-1.2 5.9l0.2 0.4c0.1 0.2 0.3 0.6 0.5 0.9 1.1 0.2 2.5 0.6 3.9 1.7 2.1 1.6 3 4.3 2.4 7-1.1 5-6.1 7.8-10.3 8.4q-1.2 0.1-2.3 0.1c-4.4 0-8.7-1.6-12.1-4.4-8.2-6.9-9.6-18.9-7.4-27.8q0.2-0.8 0.4-1.6-2.8-0.4-5.5-0.9l-1.6-0.2q-0.7-0.1-1.5-0.3c-4-0.7-9.6-1.6-12.8-0.6-1.9 0.5-3.7 1.6-4.9 2.9-0.6 0.7-0.7 0.9-1.1 2.7l-0.2 0.7q-0.1 0.5-0.4 1-0.1 0.3-0.2 0.6-0.3 1.2-1 2.2-1 1.3-2.2 2.1c-2.9 1.8-6.7 1.1-8.7-1.6-1.6-2.1-2.7-4.6-3.3-7.3q-0.1-0.6-0.1-1.2 0-0.7 0-1.2c0.3-4.4 1.4-8.1 3-10.9 4-6.8 9.1-11.6 15.6-14.6-2.6-1-5.1-1.9-7.6-2.6-4.9-1.3-8.2-1.4-10.4-0.3q0 0.1 0 0.1c-0.1 2.2-1.2 4.4-3 6-2.5 2.1-5.7 2.6-8.5 1.3-4-1.8-5.5-6.7-5.5-9.4 0-4.3 1.4-8.5 4-12.4 4.7-6.8 12.7-10.8 23.6-11.7q2.5-0.2 4.9-0.2-0.6-2-1.1-3.9c-0.5-1.8-0.9-3.4-1.5-5-0.4-1.3-0.7-1.9-0.9-2.2q-0.1 0-0.1 0-0.2 0.3-0.4 0.7c-2.3 3.3-6.5 4.4-9.7 2.4-2.1-1.2-3.5-3.2-4-5.4-0.7-2.9 0.1-6.1 2.3-9.4 1.9-2.9 5.1-5.2 8.7-6.1 9.4-2.5 18.7 1.3 25.5 10.5 4.9 6.7 8.7 11.4 14.3 11.8 4.1 0.3 8-0.1 10.3-1.1 1.2-0.5 2.5-1.6 3.4-2.8-0.1-2.4-0.7-4.6-1.7-6.6-6.6-6.3-11.5-16.6-8.2-26.2 1.6-4.6 5.4-8.7 9.9-11 0-3.1 0.4-6 1-8.7 1.5-5.6 3.3-12.1 6.6-17.8 10-17.1 24.6-28.7 41-32.6 8.5-2 17.7-2 26.6 0.1q0.2 0 0.4 0.1h0.1q0.7 0.2 1.3 0.3 0.9 0.3 1.8 0.5c7.7 2.3 17.9 8 23.4 16.8 6 9.7 8.7 19.1 8 28.7-0.6 9.9-4 18.8-10.1 26.3-4.3 5.3-11.2 12.5-19.8 16.8l-1.5 0.8c-4 2-8.4 4.2-13.1 5.8-0.6 1.9-0.6 3.2-0.2 3.6 0.8 0.8 1.4 1 2.1 1q0.1 0 0.1 0c2.7 0 7.1-2.6 11.4-6.7 17.4-16.7 33-23.5 47.8-20.8 11.8 2.2 20 9.7 21.5 19.7 1.1 7.2-1.4 14.1-6.3 18.4 3 2.6 5 5.9 5.7 9.7zm-20.6-20.7c-1.7-0.8-3.9-1.1-6.1-1.1-2.1 0-4.1 0.3-5.4 0.8-1.9 0.8-3.9 1.6-5.1 2.8-0.9 0.8-1.7 2-2.7 3.4q-0.5 0.7-1.1 1.5c-0.9 1.3-1.8 2.6-2.7 3.9q-1 1.5-2.1 3c1.8-0.8 3.5-1.7 5.4-2.6 4.5-2.3 9.2-4.6 14.8-5.6q0.6-0.1 1.2-0.2 0.2-1.3 0.9-2.6 0.2-0.5 0.6-1 0.1-0.2 0.2-0.3 0.3-0.4 0.6-0.7 0.1-0.1 0.2-0.3 0.5-0.4 0.9-0.8 0.2-0.1 0.3-0.2 0 0 0.1 0z"/><path fill-rule="evenodd" class="l" d="m227.4 123c1.4 8.1-3.6 16.3-11.9 19.5-3.4 1.3-7.1 0.6-9.6-1.8-1.2-1.1-2.1-2.5-2.4-4.1-3.3 2.5-6.6 5-10.4 7.1q-0.8 0.5-1.8 1c3.7 2.6 7.2 5.8 10.2 9.9 5.9 8.2 6.9 19 2.7 27.4-2.8 5.5-6.4 7.1-8.9 7.4-3.2 0.5-6.4-0.6-8.3-2.8-1.8-2-2.4-4.8-1.6-7.5q0.3-1.2 1.1-2.2-0.9-1.5-1.7-2.3-2.5-2.3-5.7-3.6c-5.2-2.2-10.9-3.2-17-4.2l-0.8-0.2q-1.3-0.2-2.7-0.5c2.4 8.1 2.7 15.4 0.9 22-3.5 13.4-12.1 15.8-13.8 16.1-3.2 0.7-6.7-0.5-8.7-3-1.8-2.3-2.3-5.4-1.1-8.1 0.3-0.8 1.2-2.8 3.4-4.1q0 0 0 0c-0.2-2.7-1.1-5.5-2.4-7-1.4-1.7-3.7-3-5.8-4.1-1.4-0.8-2.8-1.5-4.3-2.2-5.5-2.7-11.8-5.7-16.4-11.8q-0.7-0.8-1.3-1.7c-2.4 1.7-4.9 3.3-7.3 4.8l-0.9 0.5c-6 3.7-12.2 7.4-14.8 13-2 4.3-1.4 5.7-1.3 5.8l0.3 0.5c0.1 0.2 0.3 0.6 0.5 0.9 1.1 0.2 2.5 0.6 3.8 1.6 2.2 1.6 3.1 4.3 2.5 7-1.1 5.1-6.1 7.9-10.3 8.4q-1.2 0.2-2.3 0.2c-4.4 0-8.8-1.6-12.2-4.4-8.1-6.9-9.6-19-7.3-27.9q0.2-0.8 0.4-1.5-2.8-0.4-5.5-0.9l-1.6-0.3q-0.7-0.1-1.5-0.2c-4.1-0.7-9.6-1.6-12.8-0.7-1.9 0.6-3.7 1.7-4.9 3-0.6 0.6-0.7 0.9-1.2 2.7l-0.1 0.6q-0.2 0.6-0.4 1.1-0.1 0.2-0.2 0.6-0.3 1.2-1.1 2.2-0.9 1.3-2.2 2.1c-2.8 1.7-6.6 1-8.6-1.6-1.7-2.2-2.8-4.6-3.3-7.4q-0.1-0.5-0.1-1.1 0-0.7 0-1.2c0.3-4.4 1.3-8.1 3-11 4-6.8 9.1-11.5 15.5-14.5-2.5-1-5-1.9-7.5-2.6-5-1.4-8.3-1.5-10.5-0.3q0 0 0 0c-0.1 2.3-1.2 4.5-2.9 6-2.5 2.1-5.7 2.7-8.5 1.4-4.1-1.9-5.5-6.7-5.6-9.5 0-4.2 1.4-8.5 4.1-12.3 4.7-6.9 12.7-10.8 23.6-11.7q2.5-0.2 4.9-0.2-0.6-2-1.1-3.9c-0.5-1.8-0.9-3.5-1.5-5-0.4-1.4-0.8-2-0.9-2.2q-0.1 0-0.1 0-0.2 0.3-0.5 0.7c-2.2 3.3-6.4 4.3-9.7 2.4-2-1.3-3.4-3.2-3.9-5.5-0.7-2.8 0.1-6 2.3-9.4 1.8-2.9 5-5.1 8.7-6.1 9.4-2.4 18.7 1.4 25.4 10.6 4.9 6.6 8.8 11.4 14.4 11.8 4.1 0.2 8-0.2 10.2-1.1 1.3-0.6 2.6-1.6 3.5-2.9-0.1-2.3-0.7-4.5-1.8-6.5-6.5-6.3-11.4-16.6-8.1-26.3 1.6-4.5 5.4-8.6 9.9-10.9 0-3.2 0.3-6 1-8.7 1.4-5.6 3.3-12.1 6.6-17.8 10-17.2 24.6-28.7 41-32.6 8.4-2 17.6-2 26.6 0.1q0.2 0 0.3 0l0.1 0.1q0.7 0.1 1.4 0.3 0.9 0.2 1.8 0.5c7.7 2.3 17.9 7.9 23.4 16.8 6 9.7 8.6 19.1 8 28.7-0.7 9.9-4.1 18.7-10.1 26.2-4.3 5.4-11.2 12.6-19.9 16.9l-1.5 0.8c-3.9 2-8.3 4.2-13 5.8-0.6 1.9-0.6 3.2-0.2 3.5 0.8 0.9 1.4 1.1 2.1 1.1q0 0 0.1 0c2.7 0 7.1-2.6 11.3-6.7 17.4-16.7 33.1-23.5 47.9-20.8 11.7 2.2 20 9.7 21.5 19.7 1.1 7.2-1.5 14.1-6.3 18.4 3 2.5 5 5.8 5.7 9.7zm-20.7-20.7c-1.6-0.8-3.9-1.2-6.1-1.2-2 0-4 0.3-5.4 0.9-1.8 0.8-3.8 1.6-5 2.7-0.9 0.9-1.8 2.1-2.7 3.5q-0.6 0.7-1.1 1.5c-0.9 1.3-1.8 2.5-2.8 3.9q-1 1.5-2 3c1.7-0.8 3.5-1.7 5.3-2.6 4.6-2.3 9.3-4.6 14.9-5.6q0.6-0.1 1.2-0.2 0.2-1.3 0.8-2.6 0.3-0.5 0.7-1 0.1-0.2 0.2-0.3 0.2-0.4 0.5-0.7 0.2-0.2 0.3-0.3 0.4-0.4 0.9-0.8 0.1-0.1 0.3-0.2 0 0 0 0z"/></g><path fill-rule="evenodd" class="a" d="m227.4 123c1.4 8.1-3.6 16.3-11.9 19.5-3.4 1.3-7.1 0.6-9.6-1.8-1.2-1.1-2.1-2.5-2.4-4.1-3.3 2.5-6.6 5-10.4 7.1q-0.8 0.5-1.8 1c3.7 2.6 7.2 5.8 10.2 9.9 5.9 8.2 6.9 19 2.7 27.4-2.8 5.5-6.4 7.1-8.9 7.4-3.2 0.5-6.4-0.6-8.3-2.8-1.8-2-2.4-4.8-1.6-7.5q0.3-1.2 1.1-2.2-0.9-1.5-1.7-2.3-2.5-2.3-5.7-3.6c-5.2-2.2-10.9-3.2-17-4.2l-0.8-0.2q-1.3-0.2-2.7-0.5c2.4 8.1 2.7 15.4 0.9 22-3.5 13.4-12.1 15.8-13.8 16.1-3.2 0.7-6.7-0.5-8.7-3-1.8-2.3-2.3-5.4-1.1-8.1 0.3-0.8 1.2-2.8 3.4-4.1q0 0 0 0c-0.2-2.7-1.1-5.5-2.4-7-1.4-1.7-3.7-3-5.8-4.1-1.4-0.8-2.8-1.5-4.3-2.2-5.5-2.7-11.8-5.7-16.4-11.8q-0.7-0.8-1.3-1.7c-2.4 1.7-4.9 3.3-7.3 4.8l-0.9 0.5c-6 3.7-12.2 7.4-14.8 13-2 4.3-1.4 5.7-1.3 5.8l0.3 0.5c0.1 0.2 0.3 0.6 0.5 0.9 1.1 0.2 2.5 0.6 3.8 1.6 2.2 1.6 3.1 4.3 2.5 7-1.1 5.1-6.1 7.9-10.3 8.4q-1.2 0.2-2.3 0.2c-4.4 0-8.8-1.6-12.2-4.4-8.1-6.9-9.6-19-7.3-27.9q0.2-0.8 0.4-1.5-2.8-0.4-5.5-0.9l-1.6-0.3q-0.7-0.1-1.5-0.2c-4.1-0.7-9.6-1.6-12.8-0.7-1.9 0.6-3.7 1.7-4.9 3-0.6 0.6-0.7 0.9-1.2 2.7l-0.1 0.6q-0.2 0.6-0.4 1.1-0.1 0.2-0.2 0.6-0.3 1.2-1.1 2.2-0.9 1.3-2.2 2.1c-2.8 1.7-6.6 1-8.6-1.6-1.7-2.2-2.8-4.6-3.3-7.4q-0.1-0.5-0.1-1.1 0-0.7 0-1.2c0.3-4.4 1.3-8.1 3-11 4-6.8 9.1-11.5 15.5-14.5-2.5-1-5-1.9-7.5-2.6-5-1.4-8.3-1.5-10.5-0.3q0 0 0 0c-0.1 2.3-1.2 4.5-2.9 6-2.5 2.1-5.7 2.7-8.5 1.4-4.1-1.9-5.5-6.7-5.6-9.5 0-4.2 1.4-8.5 4.1-12.3 4.7-6.9 12.7-10.8 23.6-11.7q2.5-0.2 4.9-0.2-0.6-2-1.1-3.9c-0.5-1.8-0.9-3.5-1.5-5-0.4-1.4-0.8-2-0.9-2.2q-0.1 0-0.1 0-0.2 0.3-0.5 0.7c-2.2 3.3-6.4 4.3-9.7 2.4-2-1.3-3.4-3.2-3.9-5.5-0.7-2.8 0.1-6 2.3-9.4 1.8-2.9 5-5.1 8.7-6.1 9.4-2.4 18.7 1.4 25.4 10.6 4.9 6.6 8.8 11.4 14.4 11.8 4.1 0.2 8-0.2 10.2-1.1 1.3-0.6 2.6-1.6 3.5-2.9-0.1-2.3-0.7-4.5-1.8-6.5-6.5-6.3-11.4-16.6-8.1-26.3 1.6-4.5 5.4-8.6 9.9-10.9 0-3.2 0.3-6 1-8.7 1.4-5.6 3.3-12.1 6.6-17.8 10-17.2 24.6-28.7 41-32.6 8.4-2 17.6-2 26.6 0.1q0.2 0 0.3 0l0.1 0.1q0.7 0.1 1.4 0.3 0.9 0.2 1.8 0.5c7.7 2.3 17.9 7.9 23.4 16.8 6 9.7 8.6 19.1 8 28.7-0.7 9.9-4.1 18.7-10.1 26.2-4.3 5.4-11.2 12.6-19.9 16.9l-1.5 0.8c-3.9 2-8.3 4.2-13 5.8-0.6 1.9-0.6 3.2-0.2 3.5 0.8 0.9 1.4 1.1 2.1 1.1q0 0 0.1 0c2.7 0 7.1-2.6 11.3-6.7 17.4-16.7 33.1-23.5 47.9-20.8 11.7 2.2 20 9.7 21.5 19.7 1.1 7.2-1.5 14.1-6.3 18.4 3 2.5 5 5.8 5.7 9.7zm-20.7-20.7c-1.6-0.8-3.9-1.2-6.1-1.2-2 0-4 0.3-5.4 0.9-1.8 0.8-3.8 1.6-5 2.7-0.9 0.9-1.8 2.1-2.7 3.5q-0.6 0.7-1.1 1.5c-0.9 1.3-1.8 2.5-2.8 3.9q-1 1.5-2 3c1.7-0.8 3.5-1.7 5.3-2.6 4.6-2.3 9.3-4.6 14.9-5.6q0.6-0.1 1.2-0.2 0.2-1.3 0.8-2.6 0.3-0.5 0.7-1 0.1-0.2 0.2-0.3 0.2-0.4 0.5-0.7 0.2-0.2 0.3-0.3 0.4-0.4 0.9-0.8 0.1-0.1 0.3-0.2 0 0 0 0z"/><path class="m" d="m99 141.9c0.1 4.5-0.6 8.3-3.6 11.8-2.9 3.4-6.9 6-10.9 7.9-4.3 2.1-8.3 3.3-13.1 3.6-5.7 0.3-11.6-0.9-17.2-1.8-5.2-0.8-12.2-2.2-17.3-0.7-2.9 0.9-5.7 2.6-7.8 4.8-2 2.1-2.3 3.9-2.9 6.2q-0.4 0.8-0.6 1.6-0.1 0.2-0.3 0.3c-1-1.3-1.7-2.9-2-4.5q0-0.4 0-0.7c0.2-2.7 0.8-5.7 2.1-8 3.5-6 8-10.3 14.6-12.7 7.3-2.7 15.5-2.9 23.3-3.6 4.2-0.3 8.6-0.7 12.6-2.4 2.1-0.9 4.2-2.1 5.9-3.8 0.7-0.6 1.9-1.6 2.6-2.7q-0.5 0.4-1 0.9c-0.5 0.5-0.5-0.2-0.2-0.5q0.9-0.9 1.8-1.6 0-0.1 0-0.1c0-0.1 0.3-0.3 0.3-0.2 2.2-1.6 4.6-2.3 7.5-1.7 3.7 0.8 6.2 4.1 6.2 7.9z"/><path class="n" d="m92.7 155.2c-8.4 7.4-19.4 10.1-30.3 8.4-4.4-0.7-8.8-1.6-13.3-2.1-4.1-0.5-8.5-0.8-12.6 0.2-4.2 0.9-6.6 3-8.5 5.7-1.7 2.4-2.2 4.2-2.8 6.7-0.6-1-0.9-3.3-0.9-3.6-0.2-1.8 0.4-3.7 0.9-5.4 1.3-4.8 4.8-8.7 8.8-11.5 6.7-4.7 15.6-5.1 23.4-5.7 6.7-0.6 13.8-0.8 19.9-3.9 2.3-1.2 6.9-4.3 7.9-7.3 3.4-2.3 7.6-2.9 10.8 0.2 1.9 1.9 2.2 4.8 2.1 7.3 0 4.4-2.2 8.2-5.4 11z"/><path class="o" d="m98.1 144.2c0 4.4-2.2 8.2-5.4 11-8.4 7.4-19.4 10.1-30.3 8.4q-1.8-0.3-3.7-0.6c5.1-0.8 9.8-2.6 13.5-5.6 0.4-0.4 0-1.1-0.5-1.1-5.2-0.2-10.1-0.5-15.2-2-3.7-1-8.7-2.1-11.5-5 4.1-0.8 8.4-1.1 12.4-1.4 6.7-0.6 13.8-0.8 19.9-3.9 2.3-1.2 6.9-4.3 7.9-7.3 3.4-2.3 7.6-2.9 10.8 0.2 1.9 1.9 2.2 4.8 2.1 7.3z"/><path class="p" d="m24.7 172.8c-0.2-1-0.4-2.1-0.4-2.3-0.2-1.8 0.4-3.7 0.9-5.4 1.3-4.8 4.8-8.7 8.8-11.5 6.7-4.7 15.6-5.1 23.4-5.7 4.2-0.4 8.5-0.6 12.7-1.5-2 1.7-5.1 2.3-7.5 2.7-6.9 1.4-13.9 1.3-20.7 3.3-5.3 1.5-9.9 5.2-13.7 9.2-2.9 3-3.4 7.2-3.5 11.2z"/><path class="m" d="m213.1 136.3c-1.6 0.7-3.8-0.3-3.2-2.4 0.6-1.9 4-0.7 4.4-2.2 1-4-3.9-5.6-6.7-5-3 0.7-5.1 2.3-7.4 4.1-3.3 2.5-6.6 5.1-10.3 7.1-3.7 2.1-8.5 4.4-13.6 6.1q0.1 0 0.1 0.1c7.8 3.4 14.7 7.3 19.7 14.4 4.2 5.8 5.5 13.9 2.2 20.5-0.8 1.5-2.1 3.6-4 3.9-1.3 0.2-3-0.4-2.6-1.9 0.1-0.4 0.4-0.7 0.8-0.8q0.1 0 0.2 0c0.1 0 0.2 0 0.3 0.1q1.4-1.7 0.6-3.5-0.2-0.5-0.3-0.9-0.4-1-0.9-1.9c-0.8-1.5-1.9-3-3.2-4.2-2.2-2.1-4.8-3.8-7.6-4.9-6.1-2.6-12.7-3.7-19.2-4.8-4.7-0.8-10.5-1.8-15.8-3.8 1.9 2.8 3.6 5.8 4.8 9.2 2.3 6.6 3.6 14.1 1.8 20.9-1.1 4.1-4.2 10.4-8.8 11.4-1.1 0.2-3-0.7-2.4-2.1 0.1-0.4 0.3-0.8 0.7-1.1 1.7-1 3.3-2.3 3.3-4.6 0-4-1.4-9.1-4-12.2-2.1-2.5-4.9-4.2-7.8-5.8-6.6-3.5-13.8-5.8-18.6-12.1-1.8-2.3-3.7-5.1-4.3-8q0-0.2 0-0.4c-3.7 4.2-8.3 7-13.1 9.9-6.9 4.2-14.5 8.6-18.1 16.2-1.6 3.6-3.1 8.4-1 12.1 0.8 1.2 2.2 4.1 3.9 4.4 0.9 0.1 1.8 0 2.4 0.5 0.1 0 0.1 0.2 0.1 0.3-0.5 1.9-3 3.1-4.8 3.3-3.4 0.4-6.7-0.6-9.3-2.8-5.8-4.9-7-14.1-5.2-21.2 1.9-7.8 7.5-14.9 13.4-20.1 1.6-1.5 3.2-2.9 4.7-4.3q-0.7 0.2-1.5 0.3c-19.1 3.7-35.8-9.7-53.4-14.6-5-1.3-10.8-2.2-15.5 0.4-2.3 1.3-3.2 2.9-3.3 5.5 0 0.4-0.3 1-0.7 1.3-1.8 1.6-3.1-1.9-3.1-3.2 0-3.1 1.2-6 2.9-8.6 4.2-6.1 11.7-8.3 18.8-8.9 5.6-0.4 10.7 0.4 15.8 1.6q-1.5-1.8-2.8-4c-2.6-4.9-3.3-10.2-5-15.4-1.1-2.9-2.5-5.9-6-6.5-1.6-0.3-6.1-0.6-6.6 2-0.2 0.8-0.2 0.8-0.6 1.5-0.2 0.2-0.6 0.6-0.9 0.4-2-1.2-0.5-4.1 0.5-5.6 1.1-1.6 3-2.8 4.9-3.3 7.7-2 14 2.1 18.4 8.1 4.9 6.6 10.3 13.8 19.2 14.4 4.1 0.3 9.5 0.1 13.3-1.6 2.9-1.2 5.9-3.9 7.5-7 0.2-4.3-0.8-8.7-3.1-12.6-5.6-5-9.6-13-7.2-19.9 1.5-4.2 6.1-8 10.6-8.5-0.2-1.5-0.4-3.2-0.4-3.8 0-2.7 0.2-5.3 0.9-7.9 1.4-5.4 3-11.2 5.9-16.1 8.2-14 20.7-25.7 36.8-29.5 8.7-2.1 18.3-1.6 26.8 0.9 7.4 2.2 15.5 7.3 19.7 14 4.8 7.6 7.6 15.6 7 24.8-0.6 8.4-3.3 15.9-8.7 22.5-4.6 5.8-10.8 11.7-17.6 15.1-5.1 2.5-10.7 5.5-16.4 7.1-2.2 4.2-3.7 9.8-0.3 13.5 7 7.4 17.4 0 23-5.4 10.8-10.4 26.1-22.1 42.1-19.1 7.6 1.4 14.9 5.9 16.2 14.2 0.9 5.8-1.8 12.4-7.6 14.5-1.1 0.4-5.3 0.5-4.2-1.9 1.4-2.6 5.5 0.3 5.4-4.1-0.1-10.3-15.4-11.3-22.3-8.5-2.6 1-5.1 2.1-7.1 4-1.9 1.8-3.2 3.9-4.6 5.9-2.5 3.4-4.8 7-7.4 10.3-2.6 3.3-5.2 6.6-8.6 8.4 4.2 1.1 8.8 1 12.7 0.2 8.9-1.9 16.1-8.3 25.1-9.8 6.5-1.1 16.6 1.5 18 9.2 0.9 5.4-2.9 10.4-7.8 12.2z"/><path class="n" d="m39.5 110.2c-1.6-5.3-1.8-12.2-8.1-13.8-1.8-0.4-4.3-0.2-5.9 0.7-0.8 0.6-1.5 1.1-2.1 1.9-0.3 0.3-0.4 0.6-0.4 0.9q-1.4-2.4 1.5-4.8c1.3-1.2 3.2-1.6 4.9-1.9 2-0.4 4.3 0.1 6.3 0.5 4.4 0.9 7.3 4.4 10 7.7 2.5 3.2 4.5 6.5 7.4 9.4 2.4 2.3 5.3 3.9 8.3 5 3.4 1.3 7.3 0.8 10.7 0.5 3.3-0.3 6.5-1.3 9.2-3 1.6-1 3.4-2.8 4.8-4.9-0.5 3.9-1.9 7.8-4.1 11.2-1.6 2.3-3.4 4.4-5.7 6-2.1 1.5-4.6 1.8-7.1 2.3-4.7 0.9-9.7-0.6-14.2-1.6-2.7-0.6-5.3-1.3-7.9-2-3.8-3.9-6-9-7.6-14.1z"/><path class="p" d="m37 94c3.7 1.3 6.3 4.4 8.7 7.4 2.5 3.2 4.5 6.5 7.4 9.4 2.4 2.3 5.3 3.9 8.3 5 3.4 1.3 7.3 0.8 10.7 0.5 3.3-0.3 6.5-1.3 9.2-3 1.6-1 3.4-2.8 4.8-4.9q-0.2 1.5-0.6 3c-3.2 5.2-9.2 8.9-15.1 8.9-7.4 0.1-14.5-4.4-19.6-9.3-5.4-5.1-8.1-12.3-13.8-17z"/><path class="n" d="m219.4 129.2c-0.8 2.8-3.5 5.2-6.3 5.9-0.5 0.1-3.3-1.2-1.2-1.2 0.5 0 1.1 0 1.6-0.2 1.2-0.6 2.3-2.3 2.2-3.6-0.3-2.7-2.2-4.1-4.8-4.7-2.6-0.6-5.3 0.7-7.5 2-3.8 2.1-7 5.3-10.7 7.7-5.4 3.4-11.8 6.2-18.2 8.1-6-2.6-12.2-5.1-17.1-9.5 2.7 3.9 7.9 6.7 11.7 8.4 3 1.4 5.8 2.6 8.6 4.2 1.9 0.9 3.9 1.9 5.8 2.9 5.4 3.1 10 7.7 13.2 13 1.7 2.7 2.2 5.9 2.2 9 0 1.8-0.3 3.5-0.7 5.2q-0.2 1-0.6 2-1.9 1.7-3.9 3.4-0.2-0.2-0.4-0.4c3.2-0.8 0.4-7.4-0.4-9-3-5.9-9.9-8.6-15.8-10.5-7.9-2.6-16.4-3.3-24.5-5.1-2.6-0.6-5.2-1.6-7.6-2.8-1.6-2.1-3.4-4.2-5.1-6.3q-1-1.4-2.1-2.7c1.2 2.7 2.7 5.3 4.6 7.6 2 2.5 3.7 5 5 7.8 2.9 5.1 4.4 10.8 5.2 16.6 0.6 4.4 0.1 8.8-1.6 13-0.8 2.1-3.8 6.6-6.5 6.5-2.3 0-0.5-1.3 0-1.8 3.4-3.2 2.9-7.5 1.7-11.6-1.8-6.1-5.6-9.2-10.9-12.2-5.7-3.2-11.9-5.1-16.6-9.8-2.3-2.3-4.3-5.1-5.7-8q-0.6-1.3-0.9-2.6 0.3-0.4 0.7-0.8c2.7-3.7 4.3-8.7 3.7-13.3-0.1 5.1-1.8 10.4-5.4 13.9q0 0 0 0c-6.4 7.5-18.3 12.2-25.1 18.4-4 3.8-7.3 8.4-8.7 13.9-1.1 4.5 0.6 12.4 6.3 12.8q-0.4 1.5-2.2 1.4c-1.2 0.3-2.5 0-3.7-0.3-1.9-0.3-3.5-1.3-5-2.5-2.9-2.3-4.5-5.9-5.3-9.3-2-8.9 1.8-17.5 7.3-24.4 3.3-4.1 7.5-7.3 11.3-11 1.5-0.5 2.9-1.5 4.4-2.9q-1 0.4-2 0.8-1.1 0.5-2.4 0.8-0.4 0.1-0.9 0.2-2.6 0.7-5.3 1c-5.2 0.6-10.7-0.8-15.7-2-9.5-2.2-18.2-7.3-27.2-10.8-7-2.7-16-5.5-23-1.4-2.3 1.3-3.6 2.4-4.3 5-0.1 0.6-0.1 1.1-0.2 1.6 0.1-0.3-1-1.6-1.1-2.1-1-3.4 1.3-7.4 3.5-9.7 7-7.7 20.2-7.7 29.7-5.8q1.5 0.4 3 0.8c1.6 0.1 3.1 0.3 4.5 0.7 1.9 0.6 3.6 1.4 5.4 2.1 3.9 1 8 2.3 12.1 2 3.5-0.3 6.8-0.9 9.8-2.8 3-1.9 5.2-5 7-7.9 2.3-3.6 3.7-8 3.8-12.3q0-0.1 0.1-0.1-0.1-0.9-0.2-1.8c-0.3-1.8-0.6-3.6-0.8-5.4q-0.6-2.2-1.8-4.2 1.6 1.3 3.3 2.1c-1.4-1.7-3-3.3-4.3-5.1-2.9-3-5.1-6.3-6.4-10.6-1.4-4.8-0.3-9.9 3.8-12.9 1.8-1.3 3.8-1.9 5.9-1.9q0 0 0 0c0.8-0.2 1.6-0.2 2.6 0.1 1.6 0.4 3 1.2 4.3 2.2-1.6-2.4-3.9-3.4-6.2-3.4-1.1-8.5 1.6-17.3 5.1-25.1 3.7-8.4 10.2-15.8 17.4-21.4 7.9-6.1 16.9-10.1 27-10.5 9.6-0.3 19.1 0.9 27.4 6.1 16.1 10 22.1 31.2 14.1 48.3-2 4.4-5.5 9.2-9.3 12.1-3.7 2.8-6.6 6.7-10.8 8.7-5.2 2.5-10.5 5.2-16 7q-3.7 1.8-7.8 2.9 2.4-0.2 4.8-0.8c-1.7 3.2-2.5 6.7-2.2 10.3 0.6 7.2 8.9 8.5 14.5 6.7 3.4-1.2 6.5-3.7 9.2-5.9 3.9-3 7.5-6.5 11.3-9.7 6.9-5.9 15.4-10.3 24.5-11.4 8.5-1 19.7 2.2 22.7 11.2 1.8 5.5 1.2 13.4-5.6 15.1-0.6 0.1-3.2-0.6-1.2-0.5 0.3 0 0.6-0.2 0.9-0.3 0.8-0.5 1.5-1.3 2-2.1 4-5.2-3-10.9-7.4-12.2-7-2.2-15.4-0.7-21.2 3.8-4.6 3.6-7.8 9.1-11.1 13.9-3.3 4.9-6.8 10.1-12.2 12.2q-2.3-0.8-4.3-2.1c0.8 1.5 2.3 2.6 4 3.4q0 0 0 0c1.7 0.6 3.5 0.9 5.3 1.2 7.5 1.1 14.7-1.9 21.3-5.3 3.9-2.1 8-3.9 12.4-4.9 4.6-1 8.9 0.3 12.9 2.7 3.4 2 5.3 6.4 4.3 10.2z"/><path class="p" d="m76.8 196.3c-1.5-0.5-2.9-1.3-4.1-2.3-2.9-2.3-4.5-5.9-5.3-9.3-2-8.9 1.8-17.5 7.3-24.4 3.3-4.1 7.5-7.3 11.3-11 1.5-0.5 2.9-1.5 4.4-2.9q-0.1 0-0.2 0.1 1.2-0.7 2.4-1.5c2-1.4 3.8-3.1 5.4-4.8 0.7-0.7 1.8-1.7 2.8-3-1.8 5.8-8.9 10.5-13.1 13.8-6.5 5-12.2 11-15.8 18.4-3.4 7.2-3.2 15.4 0.7 22.4 1.1 1.9 2.5 3.4 4.2 4.5z"/><path class="q" d="m84.4 95.1q1.5 1.2 3.1 2 0.7 0.9 1.4 1.9c-1.5-1.2-3.1-2.5-4.5-3.8q0-0.1 0-0.1z"/><path class="p" d="m77 81.5c-1.4-4.8-0.3-9.9 3.8-12.9 1.8-1.3 3.8-1.9 5.9-1.9q0 0 0 0c0.8-0.2 1.6-0.2 2.6 0.1 1.6 0.4 3 1.2 4.3 2.2-1.6-2.4-3.9-3.4-6.2-3.4-1.1-8.5 1.6-17.3 5.1-25.1 3.7-8.4 10.2-15.8 17.4-21.4q4-3.1 8.4-5.4c-7.1 4.7-13.1 11.4-18 18.4-5.3 7.6-9.4 17.1-10 26.5-0.2 3.2 0.9 6.1 2.6 8.8 0.8 1.3 1.6 2.5 2.4 3.7-3.4-2.4-7.4-3.4-11.7-1.3-5.1 2.5-5.1 9-3.9 13.8 1.3 4.7 4.1 8.6 7.1 12.5-1.2-1.3-2.4-2.6-3.4-4-2.9-3-5.1-6.3-6.4-10.6z"/><path class="p" d="m8.1 138.8c-0.5-3.2 1.7-6.9 3.7-9 7-7.7 20.2-7.7 29.7-5.8q1.5 0.4 3 0.8c1.6 0.1 3.1 0.3 4.5 0.7 1.9 0.6 3.6 1.4 5.4 2.1 3.9 1 8 2.3 12.1 2 3.5-0.3 6.8-0.9 9.8-2.8 3-1.9 5.2-5 7-7.9q1.5-2.3 2.4-4.8-0.4 2.2-1.3 4.6c-2.3 6.1-6.8 10.7-13.2 12.2-10.5 2.3-21.5-3.1-31.4-5.5-9.9-2.4-19-1.7-27.1 4.9-2.4 1.9-3.4 4.7-4.3 7.5q-0.1 0.5-0.3 1z"/><path class="m" d="m133.3 73.1c-2.4-2.4-5.5-4.5-9.1-4.5-3.5 0-6.2 0.9-8.8 2.9q-0.5 0.1-0.9 0.2c2.6-2.6 5.4-4.4 9.4-4.5 4.8-0.1 9 2.1 11.7 6 4.3 6.1 1.2 13.8-3.4 19.1q-1 0.7-2 1.3c5-5.4 9-14.4 3.1-20.5z"/><path class="m" d="m123.8 87.7c-0.3 2.3-1.8 4.1-3.3 3.9-1.5-0.2-2.5-2.3-2.2-4.6 0.4-2.4 1.8-4.2 3.3-4 1.6 0.2 2.5 2.3 2.2 4.7z"/><path class="a" d="m121.3 85.6c-0.1 0.8-0.5 1.3-1 1.2-0.5 0-0.8-0.7-0.7-1.4 0.1-0.7 0.6-1.2 1-1.2 0.5 0.1 0.8 0.7 0.7 1.4z"/><path class="m" d="m92.2 87.6c0.6 2.3-0.1 4.5-1.6 4.9-1.4 0.4-3.1-1.2-3.7-3.5-0.6-2.4 0.1-4.5 1.6-4.9 1.4-0.4 3.1 1.2 3.7 3.5z"/><path class="a" d="m89.1 86.6c0.2 0.7 0 1.4-0.5 1.5-0.4 0.1-0.9-0.3-1.1-1-0.2-0.7 0-1.4 0.5-1.5 0.4-0.1 0.9 0.3 1.1 1z"/><path class="o" d="m220.9 124.1c0.9 5.4-2.9 10.4-7.8 12.2-1.6 0.7-3.8-0.3-3.2-2.4 0.6-1.9 4-0.7 4.4-2.2 1-4-3.9-5.6-6.7-5-3 0.7-5.1 2.3-7.4 4.1-3.3 2.5-6.6 5.1-10.3 7.1-3.7 2.1-8.5 4.4-13.6 6.1q0.1 0 0.1 0.1c7.8 3.4 14.7 7.3 19.7 14.4 4.2 5.8 5.5 13.9 2.2 20.5-0.8 1.5-2.1 3.6-4 3.9-1.3 0.2-3-0.4-2.6-1.9 0.1-0.4 0.4-0.7 0.8-0.8q0.1 0 0.2 0c0.1 0 0.2 0 0.3 0.1q1.4-1.7 0.6-3.5-0.2-0.5-0.3-0.9-0.4-1-0.9-1.9c-0.8-1.5-1.9-3-3.2-4.2-2.2-2.1-4.8-3.8-7.6-4.9-6.1-2.6-12.7-3.7-19.2-4.8-4.7-0.8-10.5-1.8-15.8-3.8 1.9 2.8 3.6 5.8 4.8 9.2 2.3 6.6 3.6 14.1 1.8 20.9-1.1 4.1-4.2 10.4-8.8 11.4-1.1 0.2-3-0.7-2.4-2.1 0.1-0.4 0.3-0.8 0.7-1.1 1.7-1 3.3-2.3 3.3-4.6 0-4-1.4-9.1-4-12.2-2.1-2.5-4.9-4.2-7.8-5.8-6.6-3.5-13.8-5.8-18.6-12.1-1.8-2.3-3.7-5.1-4.3-8q0-0.2 0-0.4c-3.7 4.2-8.3 7-13.1 9.9-6.9 4.2-14.5 8.6-18.1 16.2-1.6 3.6-3.1 8.4-1 12.1 0.8 1.2 2.2 4.1 3.9 4.4 0.9 0.1 1.8 0 2.4 0.5q0.1 0 0.1 0.1c-4.4 0.8-8.7-1-11.5-5.2-2.9-4.4-2.3-10.7-0.6-15.5 3.1-8.8 12-14.3 19.6-18.8 7.5-4.5 15.3-8.6 20.9-15.5q1.2-1.5 2.4-3.3c0.4 1.1 0.7 2.2 0.8 3.3 0.2 2.4-1.4 6.4 4.5 15.6 5.1 7.9 20.8 12.2 20.4 11.8-12.1-15.8-18.2-26.2-20.1-43.6 14.5 27.6 40.9 12.7 33.7 9.7-7.2-3-18.2-8.9-22.6-12.6-5.5-4.5-7.4-11.1-6.9-18 0.6-6.1 3.7-11.4 4.9-17.3 1.5-7.3-2-16.6-10.9-15.4-2.8 0.4-6.5 1.8-9.4 4 1.8-2.9 4.5-5.3 7.1-6.3 2.7-1 5.7-0.8 8.4-1.9 2.3-0.9 4.2-2.8 5.8-4.6 3.8-4.2 6.8-9.2 10-13.8 3.4-4.9 5.7-10.6 6.4-16.5 1.2-11-5.5-20.8-16.6-22.3q-1-0.2-2-0.2c8.7-2.1 18.2-1.6 26.7 0.9 7.4 2.2 15.5 7.3 19.7 14 4.8 7.6 7.6 15.6 7 24.8-0.6 8.4-3.3 15.9-8.7 22.5-4.6 5.8-10.8 11.7-17.6 15.1-5.1 2.5-10.7 5.5-16.4 7.1-2.2 4.2-3.7 9.8-0.3 13.5 7 7.4 17.4 0 23-5.4 10.8-10.4 26.1-22.1 42.1-19.1 7.6 1.4 14.9 5.9 16.2 14.2 0.9 5.8-1.8 12.4-7.6 14.5-1.1 0.4-5.3 0.5-4.2-1.9 1-1.8 3.2-1 4.5-1.7q0-0.1 0-0.1c0.1-0.3 0.4-0.5 0.6-0.7 0.2-0.3 0.3-0.9 0.3-1.6-0.1-10.3-15.4-11.3-22.3-8.5-2.6 1-5.1 2.1-7.1 4-1.9 1.8-3.2 3.9-4.6 5.9-2.5 3.4-4.8 7-7.4 10.3-2.6 3.3-5.2 6.6-8.6 8.4 4.2 1.1 8.8 1 12.7 0.2 8.9-1.9 16.1-8.3 25.1-9.8 6.5-1.1 16.6 1.5 18 9.2z"/><path class="r" d="m49.6 124.7c-0.5-0.1-1-0.4-1.3-0.9-0.4-0.4-0.7-0.9-0.7-1.4-0.2-1.1 0.5-1.5 1.2-1.1 0.4 0.1 0.8 0.4 1.1 0.8 0.3 0.4 0.5 0.8 0.7 1.2 0.2 0.9-0.2 1.6-1 1.4z"/><path class="r" d="m45 119.4c-0.8-0.5-1.4-1.8-1.3-2.9 0.1-1 0.8-1.4 1.6-0.9 0.8 0.5 1.3 1.8 1.3 2.8-0.1 1.1-0.7 1.5-1.6 1z"/><path class="r" d="m42.6 113.2c-0.6-0.5-1.1-1.6-1-2.4 0.1-0.9 0.7-1.3 1.4-0.8 0.6 0.4 1.1 1.5 1 2.4-0.1 0.9-0.7 1.3-1.4 0.8z"/><path class="r" d="m41.1 107.9c-0.5-0.4-0.9-1.3-0.9-2 0.1-0.7 0.5-1 1.1-0.7 0.6 0.4 1 1.3 0.9 2 0 0.7-0.5 1-1.1 0.7z"/><path class="r" d="m39.3 103.6c-0.7-0.4-1.2-1.4-1.3-2.2-0.1-0.9 0.4-1.4 1.2-1 0.7 0.3 1.4 1.4 1.4 2.3 0 0.9-0.6 1.3-1.3 0.9z"/><path class="r" d="m36.8 99.4c-0.6-0.1-1.2-0.7-1.5-1.3q-0.2-0.6-0.1-0.9c0.1-0.2 0.3-0.4 0.7-0.3 0.3 0 0.7 0.2 1.1 0.5 0.3 0.3 0.6 0.7 0.7 1.1 0.2 0.7-0.3 1.1-0.9 0.9z"/><path class="r" d="m33.6 97.1c-0.5 0.1-1.3 0-1.7-0.4-0.5-0.3-0.6-0.8-0.1-1.1 0.3-0.1 0.7-0.1 1-0.1 0.4 0.1 0.7 0.2 0.9 0.5 0.5 0.4 0.4 0.9-0.1 1.1z"/><path class="r" d="m29.9 96.6c-0.4 0.3-1.1 0.4-1.6 0.3-0.5-0.1-0.7-0.5-0.4-0.9 0.4-0.4 1.2-0.6 1.8-0.4 0.6 0.2 0.6 0.7 0.2 1z"/><path class="r" d="m26.5 97.4c-0.2 0.4-0.7 0.7-1.2 0.8-0.5 0-0.8-0.2-0.6-0.7 0.2-0.4 0.8-0.8 1.3-0.8 0.5 0 0.7 0.4 0.5 0.7z"/><path class="r" d="m24 99.3c0 0.2-0.1 0.3-0.1 0.5-0.1 0.1-0.2 0.3-0.3 0.4-0.2 0.3-0.5 0.5-0.7 0.1-0.2-0.4 0.1-1.1 0.4-1.3 0.4-0.2 0.7 0 0.7 0.3z"/><path class="r" d="m77.1 148.6c-0.8 0.3-1.9 0.5-2.9 0.3-1.1 0-2.2-0.4-3-0.9-1.6-1-1.6-2.3 0-2.8 1.5-0.6 4-0.3 5.6 0.5 1.5 0.9 1.9 2.1 0.3 2.9z"/><path class="r" d="m66.1 146.7c-0.7 0.1-1.6 0.2-2.5-0.1-0.8-0.3-1.7-0.7-2.3-1.2-1.2-1-1.1-2.1 0.3-2.4 1.4-0.3 3.4 0.4 4.7 1.3 1.2 0.9 1.2 2-0.2 2.4z"/><path class="r" d="m56.8 143.6c-1.1 0.1-2.9-0.6-3.8-1.5-0.9-1-0.6-1.8 0.5-1.9 1.1-0.1 2.8 0.5 3.7 1.4 0.9 0.9 0.8 1.8-0.4 2z"/><path class="r" d="m49 140c-1.1 0.1-2.7-0.7-3.4-1.6-0.8-1-0.6-1.7 0.5-1.8 1.1 0 2.6 0.8 3.4 1.7 0.8 0.9 0.6 1.7-0.5 1.7z"/><path class="r" d="m41.8 136.4c-0.9 0.1-2.2-0.5-3-1.2-0.7-0.7-0.6-1.4 0.3-1.5 0.9-0.1 2.3 0.4 3.1 1.2 0.7 0.7 0.5 1.4-0.4 1.5z"/><path class="r" d="m35 133.7c-0.7 0.2-1.8-0.1-2.5-0.6-0.6-0.6-0.6-1.1 0.1-1.3 0.8-0.2 2 0.1 2.6 0.7 0.7 0.5 0.6 1.1-0.2 1.2z"/><path class="r" d="m29.5 132.5c-0.8 0.3-2.2 0.1-3.1-0.4-0.8-0.5-0.9-1.2 0-1.6 0.8-0.3 2.3-0.1 3.2 0.4 0.9 0.6 0.8 1.3-0.1 1.6z"/><path class="r" d="m23.7 131.7c-0.7 0.4-1.8 0.4-2.6 0.1-0.9-0.3-1-0.9-0.4-1.3 0.7-0.4 2-0.5 2.8-0.1 0.8 0.4 0.9 1 0.2 1.3z"/><path class="r" d="m18.5 132c-0.5 0.3-1.4 0.6-2.1 0.5-0.7-0.1-0.9-0.5-0.5-0.9 0.5-0.5 1.5-0.8 2.2-0.7 0.8 0.2 0.9 0.7 0.4 1.1z"/><path class="r" d="m14.2 133.4c-0.3 0.5-1 1-1.6 1.1-0.6 0.2-1 0-0.8-0.6 0.2-0.6 1.1-1.2 1.8-1.3 0.7-0.1 0.9 0.3 0.6 0.8z"/><path class="r" d="m11 136.1c0 0.5-0.4 1.1-0.8 1.5-0.4 0.4-0.8 0.3-0.9-0.2 0-0.5 0.4-1.3 0.9-1.6 0.5-0.3 0.9-0.1 0.8 0.3z"/><path class="r" d="m9.4 139.7c0.1 0.3 0.1 0.9-0.2 1.3-0.2 0.4-0.5 0.5-0.7 0.1-0.1-0.4-0.1-1.1 0.2-1.5 0.3-0.4 0.6-0.3 0.7 0.1z"/><path class="r" d="m109.4 151.2c-0.4 1.5-2.2 3.1-3.9 3.5-1.7 0.4-2.6-0.5-2.1-1.9 0.3-0.7 0.8-1.4 1.5-2 0.6-0.6 1.5-1.1 2.2-1.3 1.6-0.5 2.7 0.1 2.3 1.7z"/><path class="r" d="m101.6 157.3c-0.5 1.1-2.2 2.3-3.7 2.4-1.4 0.1-2.1-0.8-1.5-1.9 0.7-1 2.2-2.2 3.6-2.3 1.4-0.2 2.2 0.5 1.6 1.8z"/><path class="r" d="m94 161.5c-0.6 0.9-2 1.6-3.2 1.5-1.2 0-1.6-0.7-1-1.6 0.6-0.9 1.9-1.6 3.1-1.5 1.2 0 1.7 0.7 1.1 1.6z"/><path class="r" d="m87.3 164.7c-0.2 0.4-0.7 0.8-1.1 1.1-0.5 0.3-1 0.6-1.6 0.7-1 0.2-1.7-0.3-1.3-1.3 0.4-0.9 1.6-1.9 2.8-2 1.2-0.1 1.6 0.6 1.2 1.5z"/><path class="r" d="m81.7 168.8c-0.2 0.8-0.9 1.7-1.8 2.1-0.8 0.4-1.4 0.1-1.3-0.8 0.1-0.8 0.9-1.9 1.9-2.2 0.9-0.3 1.4 0.1 1.2 0.9z"/><path class="r" d="m77.8 173.7c0 0.3-0.2 0.7-0.4 1.1-0.1 0.3-0.4 0.7-0.7 0.9-0.6 0.5-1.2 0.3-1.2-0.4-0.1-0.7 0.4-1.7 1.1-2.1 0.6-0.4 1.2-0.2 1.2 0.5z"/><path class="r" d="m75.7 178.2c0.2 0.8-0.1 1.9-0.7 2.6-0.5 0.7-1.2 0.7-1.5-0.1-0.3-0.8 0.1-2.1 0.7-2.8 0.7-0.7 1.4-0.5 1.5 0.3z"/><path class="r" d="m74.5 183.1c0.2 0.3 0.3 0.7 0.3 1.1 0 0.4-0.1 0.8-0.2 1.2-0.2 0.7-0.8 0.9-1.3 0.4-0.5-0.6-0.5-1.8-0.1-2.6 0.4-0.7 1-0.7 1.3-0.1z"/><path class="r" d="m75 187.5c0.4 0.4 0.8 1.1 0.8 1.7 0.1 0.6-0.3 1-0.8 0.7-0.6-0.3-1-1.2-1-1.8 0.1-0.7 0.5-0.9 1-0.6z"/><path class="r" d="m76.9 191.3q0.4 0.1 0.8 0.4 0.3 0.4 0.5 0.8c0.2 0.6 0 0.9-0.6 0.9-0.5-0.1-1.2-0.8-1.3-1.4-0.2-0.6 0.1-0.9 0.6-0.7z"/><path class="r" d="m79.2 194.2c0.4 0 1 0.3 1.3 0.7 0.3 0.4 0.2 0.8-0.2 0.8-0.5 0.1-1.2-0.3-1.5-0.7-0.3-0.5-0.1-0.8 0.4-0.8z"/><path class="r" d="m81.7 195.5c0.3-0.1 0.8-0.1 1.1 0.1 0.3 0.1 0.4 0.4 0.1 0.6-0.3 0.1-0.8 0.1-1.2-0.1-0.3-0.2-0.3-0.5 0-0.6z"/><path class="r" d="m116.4 151.6c1.2 0.6 2.2 2.2 2.3 3.7 0.1 1.5-0.8 2.4-2.1 1.9-1.4-0.6-2.5-2.4-2.5-4 0-1.7 1.1-2.3 2.3-1.6z"/><path class="r" d="m120.8 158.6c1.1 0.3 2.3 1.4 2.7 2.6 0.4 1.1-0.1 2.1-1.3 2-0.7-0.1-1.3-0.5-1.9-1-0.5-0.5-0.9-1.2-1.1-1.8-0.3-1.4 0.5-2.1 1.6-1.8z"/><path class="r" d="m126.2 163.4c0.9 0 2 0.4 2.8 1.2 0.7 0.8 0.5 1.6-0.4 1.9q-0.4 0.1-0.8 0.1-0.4-0.1-0.9-0.2c-0.6-0.3-1.1-0.7-1.4-1.1-0.7-1-0.2-1.7 0.7-1.9z"/><path class="r" d="m132.3 166c0.9-0.1 2.2 0.5 2.8 1.3 0.5 0.9 0.2 1.7-0.7 1.8-0.9 0.1-2-0.5-2.6-1.3-0.6-0.8-0.4-1.6 0.5-1.8z"/><path class="r" d="m138 169.3c0.7 0 1.7 0.7 2.1 1.5 0.3 0.8 0 1.4-0.8 1.3-0.7 0-1.7-0.6-2-1.4-0.4-0.7-0.1-1.4 0.7-1.4z"/><path class="r" d="m142.5 173c0.6 0.1 1.4 0.8 1.5 1.5 0.2 0.7-0.2 1.1-0.8 1-0.6-0.2-1.2-0.8-1.4-1.4-0.2-0.7 0.1-1.2 0.7-1.1z"/><path class="r" d="m145.7 176.3c0.8 0.3 1.5 1.3 1.5 2.2 0.1 0.9-0.5 1.2-1.2 0.9-0.6-0.3-1.3-1.1-1.4-2-0.1-0.8 0.4-1.3 1.1-1.1z"/><path class="r" d="m148.1 180.6c0.6 0.4 0.9 1.4 0.8 2.1-0.2 0.8-0.8 0.9-1.3 0.5-0.4-0.4-0.7-1.2-0.6-1.9 0.1-0.7 0.6-1.1 1.1-0.7z"/><path class="r" d="m149 184.9c0.4 0.4 0.4 1.3 0.1 1.8-0.3 0.5-0.8 0.5-1.1 0.1-0.3-0.5-0.2-1.2 0-1.7 0.2-0.5 0.7-0.6 1-0.2z"/><path class="r" d="m148.7 188.7c0.3 0.5 0 1.3-0.4 1.7-0.4 0.4-0.9 0.2-1-0.2-0.1-0.5 0.1-1.2 0.4-1.6 0.4-0.4 0.9-0.4 1 0.1z"/><path class="r" d="m147.5 192.1c0 0.5-0.3 1.1-0.7 1.3-0.4 0.2-0.8 0.1-0.8-0.4 0-0.4 0.2-0.9 0.6-1.2 0.4-0.2 0.8-0.1 0.9 0.3z"/><path class="r" d="m145.6 194.8c0 0.4-0.3 0.8-0.7 0.9-0.4 0.2-0.6 0-0.6-0.4 0.1-0.3 0.4-0.7 0.7-0.8 0.4-0.2 0.7 0 0.6 0.3z"/><path class="r" d="m147.3 151.4c1.2-0.1 2.8 0.7 3.8 1.8 0.9 1.1 0.8 2.4-0.6 2.7-1.4 0.4-3.5-0.5-4.4-1.9-0.5-0.7-0.5-1.4-0.2-1.8 0.3-0.4 0.7-0.7 1.4-0.8z"/><path class="r" d="m154.7 154.6c1.1-0.4 2.7-0.1 3.7 0.8 1 0.7 1 1.8-0.1 2.3-1.1 0.5-2.9 0.1-3.9-0.7-1-0.9-0.8-2 0.3-2.4z"/><path class="r" d="m162 156.2c0.8-0.5 2.2-0.4 3.1 0.3 0.9 0.6 0.9 1.4 0 1.9-0.8 0.5-2.2 0.4-3.1-0.3-0.9-0.6-0.9-1.5 0-1.9z"/><path class="r" d="m168.6 156.9c0.8-0.4 2.1-0.3 3 0.3 0.8 0.7 0.7 1.5-0.1 1.9-0.8 0.4-2.1 0.3-2.9-0.3-0.8-0.6-0.8-1.4 0-1.9z"/><path class="r" d="m174.9 158c0.7-0.4 1.9-0.2 2.5 0.4 0.7 0.6 0.6 1.3-0.1 1.6-0.7 0.3-1.8 0.1-2.5-0.5-0.6-0.5-0.6-1.2 0.1-1.5z"/><path class="r" d="m180.5 159.4c0.6-0.2 1.6 0.1 2 0.6 0.5 0.6 0.3 1.1-0.3 1.3-0.6 0.1-1.4-0.1-1.9-0.6-0.5-0.5-0.4-1.1 0.2-1.3z"/><path class="r" d="m168.5 139.8c1.1-0.8 2.9-0.9 4.2-0.6 1.4 0.4 1.8 1.4 0.8 2.2-0.5 0.5-1.2 0.8-2.1 0.9-0.8 0.1-1.6 0.1-2.3-0.2-1.4-0.5-1.6-1.6-0.6-2.3z"/><path class="r" d="m176.8 138.5c0.3-0.4 0.8-0.7 1.4-0.9 0.6-0.2 1.2-0.4 1.8-0.4 1.2 0.1 1.7 0.8 1.1 1.7-0.4 0.4-0.9 0.8-1.5 1.1-0.6 0.2-1.4 0.3-2 0.2-1.2-0.1-1.5-0.9-0.8-1.7z"/><path class="r" d="m70.7 163c-0.4 0.3-1.1 0.5-1.7 0.5-0.7 0-1.3-0.2-1.9-0.5-1-0.5-1-1.4-0.1-2 0.8-0.5 2.3-0.4 3.3 0 1.1 0.5 1.3 1.3 0.4 2z"/><path class="r" d="m63.5 162.6c-1 0.4-2.5 0.2-3.5-0.4-0.9-0.7-0.8-1.6 0.1-2 1-0.4 2.4-0.2 3.3 0.4 1 0.6 1 1.5 0.1 2z"/><path class="r" d="m57 161.5c-0.9 0.4-2.3 0.2-3.1-0.4-0.9-0.6-0.9-1.5 0-1.9 0.9-0.4 2.3-0.2 3.2 0.5 0.8 0.6 0.8 1.4-0.1 1.8z"/><path class="r" d="m50.7 160.3c-0.7 0.3-1.9 0.2-2.7-0.2-0.8-0.5-0.8-1.2-0.1-1.6 0.7-0.4 2-0.3 2.7 0.2 0.8 0.5 0.8 1.2 0.1 1.6z"/><path class="r" d="m44.6 159.7c-0.6 0.4-1.5 0.4-2.2 0.1-0.7-0.3-0.8-0.9-0.2-1.3 0.5-0.4 1.6-0.4 2.2 0 0.7 0.3 0.7 0.9 0.2 1.2z"/><path class="r" d="m39.9 160.1c-0.7 0.4-1.8 0.6-2.6 0.4-0.9-0.3-1.2-0.9-0.6-1.5 0.6-0.6 1.9-0.8 2.8-0.5 0.8 0.4 1 1 0.4 1.6z"/><path class="r" d="m35 160.9c-0.4 0.5-1.3 0.9-2 0.8-0.8 0-1.2-0.5-0.8-1.1 0.4-0.6 1.4-1 2.2-0.9 0.8 0.1 1 0.7 0.6 1.2z"/><path class="r" d="m31 162.6q-0.1 0.4-0.5 0.7c-0.3 0.2-0.6 0.4-0.9 0.5-0.6 0.1-1-0.1-0.8-0.7 0.2-0.6 0.8-1.2 1.5-1.3 0.6 0 0.9 0.3 0.7 0.8z"/><path class="r" d="m28.2 165.2c0 0.5-0.4 1.1-0.9 1.4-0.5 0.3-0.9 0.2-1-0.4 0-0.5 0.5-1.3 1-1.5 0.6-0.3 1 0 0.9 0.5z"/><path class="r" d="m26.3 168.3c0.1 0.4-0.1 1-0.4 1.4-0.4 0.3-0.8 0.3-0.9-0.1-0.1-0.5 0.1-1.2 0.5-1.5 0.4-0.3 0.8-0.2 0.8 0.2z"/><path class="r" d="m25.3 171.5c0.1 0.3 0.1 0.8-0.2 1.2-0.2 0.3-0.5 0.3-0.7 0-0.1-0.4 0-0.9 0.2-1.3 0.3-0.3 0.6-0.3 0.7 0.1z"/><path class="r" d="m161.8 120.8c0.9-1.4 2.9-2.8 4.7-3.5 0.9-0.3 1.6-0.3 2 0 0.4 0.3 0.6 1 0.2 1.8-0.6 1.7-3 3.6-5.1 3.9-1 0.2-1.7 0-2-0.5q-0.4-0.6 0.2-1.7z"/><path class="r" d="m170.3 113.7c0.1-0.7 0.5-1.5 1-2.2 0.5-0.8 1.1-1.5 1.7-2 1.3-1 2.4-0.8 2.3 0.7 0 0.8-0.4 1.7-0.9 2.6q-0.2 0.3-0.4 0.6-0.2 0.3-0.5 0.6-0.5 0.5-1.1 0.8c-1.5 0.9-2.4 0.3-2.1-1.1z"/><path class="r" d="m175.8 105.1c0-1.2 1.1-2.9 2.3-3.7 1.2-0.7 2-0.3 1.8 0.9-0.2 1.2-1.2 2.7-2.3 3.5-1.1 0.9-1.9 0.6-1.8-0.7z"/><path class="r" d="m181.3 97.7c0.2-0.5 0.6-1.2 1.1-1.7 0.6-0.5 1.3-1 1.9-1.2 1.3-0.3 1.9 0.3 1.4 1.3-0.5 1-1.7 2.1-2.8 2.6-1.2 0.5-1.9 0.1-1.6-1z"/><path class="p" d="m109.4 89.8c13.5 0 15.3 5.3 15.3 5.3-19.3-5.9-37-0.6-37-0.6 1.9-4.2 8.3-4.7 21.7-4.7z"/></svg>