<svg version="1.2" xmlns="http://www.w3.org/2000/svg" viewBox="0 0 1450 1700" width="1332" height="200"><style>.a{fill:#fff}.b{fill:#f1f1f1}.c{fill:#e2e2e2}.d{fill:#d4d4d4}.e{fill:#c5c5c5}.f{fill:#b7b7b7}.g{fill:#a8a8a8}.h{fill:#9a9a9a}.i{fill:#8b8b8b}.j{fill:#7d7d7d}.k{fill:#6e6e6e}.l{fill:#606060}.m{fill:#665c5b}.n{fill:#564c4c}.o{fill:#423838}.p{fill:#7a706e}.q{fill:#211c19}.r{fill:#aa9f9b}.s{fill:#3a3330}.t{fill:#3f3734}.u{fill:#a39693}</style><g style="mix-blend-mode:multiply"><path class="a" d="m1331.5 808.1c-1.3 17.1-12.2 29.5-28.1 32.7-0.2 3.4-0.9 6.8-2.3 10.1-3.3 8.3-9.6 14.6-18.3 18.1-3.4 1.4-7 2-10.8 2-6.8 0-14-2.2-21.1-5.5-4.7 4.8-11.4 7.7-19.1 7.7-14.9 0-30.2-10.3-32-11.4-46.1-31.9-77-70.6-87.9-108.8q-15.7 10.3-35.4 19.1 0.1 0.1 0.1 0.3 2.7 3.4 4.3 7.4c23.6 4.2 39.3 18.4 42.1 39 6.2 46.1-67.3 57.7-102.6 63.2l-4.3 0.7c-43.6 7.3-90.3 10.5-151.6 10.5q-12.8 0-25.5-0.2h-7.3c-49.8-0.3-148-1-178.9-50.6-18.9 3.8-39.3 6.2-60.6 7q-0.1 0-0.2 0c-12.5 0.4-20.8 0.4-33.3 0q-0.2 0-0.4-0.1c-21.2-0.7-41.5-3.1-60.5-6.9-30.9 49.6-129.1 50.3-178.8 50.6h-7.3q-12.8 0.2-25.5 0.2c-61.3 0-108.1-3.2-151.6-10.5l-4.4-0.7c-35.3-5.5-108.8-17.1-102.5-63.1 2.8-20.7 18.5-34.9 42.1-39.1 1.2-2.9 2.7-5.6 4.7-8 9.1-11.7 25.4-16.8 39.9-19q0.3-1 0.6-1.7c0.7-1.9 1.7-3.7 3-5.3 13-15.9 38.2-23.3 79.4-23.3 4.4 0 8.8 0.1 13 0.2-14.9-25.1-27.5-63.9-25.2-122.8 3.5-89.2 50.5-192.7 82.3-242.5 45.5-160.7 160.7-332.5 307.8-332.5 102.8 0 203.5 86.5 270.6 231.8 2 1.9 3.6 4.2 4.7 6.9 63.9 159.9 156.3 219.8 223.7 263.6 22.6 14.7 43.1 28 59.5 43 15.8-22.7 38.2-44.3 66-63.5 1.8-1.2 17.1-11.5 32-11.5 7.7 0 14.4 2.9 19.1 7.8 7.1-3.4 14.3-5.6 21.1-5.6 3.8 0 7.4 0.7 10.7 2 8.8 3.6 15.1 9.8 18.4 18.1 1.4 3.4 2.1 6.8 2.3 10.1 15.9 3.3 26.8 15.6 28.1 32.8 2.5 33.2-26.1 55.8-45.1 70.7-29.3 23.1-54.2 40.7-75.2 53.1 20.9 12.4 45.8 30 75 53 19.2 15.1 47.8 37.7 45.3 70.9z"/><path class="b" d="m1329 805.9c-1.3 17.1-12.2 29.5-28 32.7-0.3 3.4-1 6.8-2.3 10.1-3.3 8.3-9.7 14.6-18.4 18.1-3.3 1.3-6.9 2-10.8 2-6.8 0-13.9-2.2-21-5.5-4.7 4.8-11.4 7.7-19.1 7.7-14.9 0-30.3-10.3-32-11.4-46.2-31.9-77-70.6-87.9-108.8q-15.7 10.3-35.5 19.1 0.1 0.1 0.2 0.2 2.6 3.5 4.2 7.5c23.6 4.2 39.3 18.3 42.2 39 6.2 46.1-67.3 57.7-102.6 63.2l-4.3 0.7c-43.6 7.3-90.4 10.5-151.7 10.5q-12.7 0-25.5-0.2h-7.3c-49.7-0.4-147.9-1-178.8-50.6-19 3.8-39.3 5.9-60.6 6.9q-0.1 0.1-0.3 0.1c-12.5 0.4-20.7 0.5-33.2 0q-0.3 0-0.5-0.1c-21.1-1-41.4-3.1-60.4-6.9-30.9 49.6-129.1 50.2-178.8 50.6h-7.4q-12.7 0.2-25.4 0.2c-61.3 0-108.1-3.2-151.7-10.5l-4.3-0.7c-35.3-5.5-108.8-17.1-102.6-63.1 2.9-20.7 18.6-34.9 42.2-39.1q1.7-4.3 4.7-8.1c9.1-11.6 25.4-16.7 39.8-18.9q0.4-1 0.6-1.7c0.8-1.9 1.8-3.7 3.1-5.3 12.9-15.9 38.2-23.3 79.4-23.3 4.4 0 8.7 0.1 13 0.2-15-25.1-27.5-63.9-25.2-122.9 3.4-89.1 50.5-192.6 82.3-242.4 45.5-160.7 160.7-332.5 307.8-332.5 102.8 0 203.5 86.5 270.6 231.8 2 1.9 3.6 4.2 4.7 6.9 63.9 159.8 156.2 219.8 223.7 263.6 22.6 14.7 43.1 28 59.5 43 15.8-22.7 38.2-44.3 66-63.5 1.7-1.2 17.1-11.5 32-11.5 7.7 0 14.4 2.9 19.1 7.8 7.1-3.4 14.2-5.6 21-5.6 3.9 0 7.5 0.7 10.8 2 8.7 3.6 15.1 9.8 18.4 18.1 1.3 3.4 2 6.8 2.3 10.1 15.8 3.3 26.7 15.6 28 32.7 2.6 33.3-26.1 55.8-45 70.8-29.4 23.1-54.3 40.7-75.3 53.1 21 12.4 45.9 30 75.1 53 19.2 15.1 47.8 37.7 45.2 70.9z"/><path class="c" d="m1326.6 803.7c-1.3 17.1-12.2 29.5-28 32.7-0.3 3.4-1 6.8-2.3 10.1-3.3 8.3-9.7 14.6-18.4 18.1-3.3 1.3-7 2-10.8 2-6.8 0-13.9-2.2-21-5.5-4.7 4.8-11.5 7.7-19.2 7.7-14.8 0-30.2-10.3-31.9-11.5-46.2-31.8-77-70.5-87.9-108.7q-15.7 10.3-35.5 19.1 0.1 0.1 0.2 0.2c1.8 2.3 3.1 4.8 4.2 7.5 23.6 4.2 39.3 18.3 42.1 39 6.3 46.1-67.2 57.7-102.5 63.2l-4.4 0.7c-43.5 7.3-90.3 10.5-151.6 10.5q-12.7 0-25.5-0.2h-7.3c-49.7-0.4-147.9-1-178.8-50.7-19 3.9-39.3 5.8-60.7 7q-0.1 0.1-0.2 0c-12.5 0.5-20.8 0.7-33.2 0.1q-0.3-0.1-0.5-0.1c-21.2-1-41.5-3.1-60.5-7-30.9 49.7-129.1 50.3-178.8 50.7h-7.3q-12.7 0.2-25.5 0.2c-61.3 0-108-3.2-151.6-10.5l-4.3-0.7c-35.4-5.5-108.9-17.1-102.6-63.1 2.8-20.7 18.5-34.9 42.1-39.1 1.2-2.9 2.8-5.6 4.7-8.1 9.2-11.6 25.5-16.7 39.9-18.9q0.3-1 0.6-1.7c0.7-1.9 1.8-3.7 3.1-5.3 12.9-15.9 38.1-23.3 79.4-23.3 4.3 0 8.7 0 13 0.2-15-25.1-27.5-63.9-25.2-122.9 3.4-89.1 50.4-192.6 82.2-242.5 45.5-160.6 160.8-332.4 307.9-332.4 102.7 0 203.5 86.5 270.6 231.8 2 1.9 3.6 4.2 4.6 6.9 64 159.8 156.3 219.8 223.7 263.6 22.7 14.7 43.2 28 59.6 43 15.8-22.7 38.2-44.3 66-63.5 1.7-1.2 17.1-11.5 31.9-11.5 7.7 0 14.5 2.9 19.2 7.8 7.1-3.4 14.2-5.6 21-5.6 3.8 0 7.5 0.7 10.8 2 8.7 3.6 15.1 9.8 18.4 18.1 1.3 3.4 2 6.8 2.3 10.1 15.8 3.3 26.7 15.6 28 32.7 2.5 33.3-26.1 55.8-45 70.8-29.4 23.1-54.3 40.7-75.3 53.1 21 12.4 45.8 30 75 53 19.2 15.1 47.8 37.7 45.3 70.9z"/><path class="d" d="m1324.2 801.5c-1.3 17.1-12.2 29.5-28 32.7-0.3 3.4-1 6.8-2.3 10.1-3.4 8.3-9.7 14.5-18.4 18.1-3.4 1.3-7 2-10.8 2-6.8 0-14-2.2-21.1-5.5-4.7 4.8-11.4 7.7-19.1 7.7-14.9 0-30.2-10.3-31.9-11.5-46.2-31.8-77-70.5-87.9-108.7q-15.8 10.3-35.5 19.1 0.1 0.1 0.2 0.2 2.6 3.5 4.2 7.4c23.6 4.3 39.3 18.4 42.1 39.1 6.3 46.1-67.2 57.7-102.6 63.2l-4.3 0.7c-43.6 7.3-90.3 10.5-151.6 10.5q-12.8 0-25.5-0.2h-7.3c-49.7-0.4-147.9-1-178.8-50.7-19 3.9-39.4 6-60.7 7q-0.1 0-0.2 0c-12.5 0.5-20.8 0.7-33.3 0q-0.2 0-0.4 0c-21.2-0.7-41.5-3.1-60.5-7-30.9 49.7-129.1 50.3-178.8 50.7h-7.3q-12.7 0.2-25.5 0.2c-61.3 0-108.1-3.2-151.6-10.5l-4.4-0.7c-35.3-5.5-108.8-17.1-102.5-63.2 2.8-20.7 18.5-34.8 42.1-39.1q1.8-4.2 4.7-8c9.2-11.6 25.5-16.7 39.9-18.9q0.3-1 0.6-1.7c0.7-1.9 1.7-3.7 3.1-5.3 12.9-15.9 38.1-23.3 79.3-23.3 4.4 0 8.8 0 13.1 0.2-15-25.1-27.5-63.9-25.3-122.9 3.5-89.1 50.5-192.6 82.3-242.5 45.5-160.6 160.8-332.4 307.8-332.4 102.8 0 203.5 86.5 270.7 231.8 1.9 1.9 3.5 4.2 4.6 6.9 63.9 159.8 156.3 219.8 223.7 263.6 22.6 14.7 43.1 28 59.6 43 15.7-22.7 38.1-44.3 66-63.5 1.7-1.2 17-11.5 31.9-11.5 7.7 0 14.4 2.9 19.1 7.8 7.1-3.4 14.3-5.6 21.1-5.6 3.8 0 7.4 0.7 10.7 2 8.8 3.6 15.1 9.8 18.5 18.1 1.3 3.3 2 6.8 2.3 10.1 15.8 3.2 26.7 15.6 28 32.7 2.5 33.3-26.1 55.8-45.1 70.8-29.3 23.1-54.2 40.7-75.2 53.1 20.9 12.4 45.8 30 75 53 19.2 15.1 47.8 37.7 45.3 70.9z"/><path class="e" d="m1321.8 799.3c-1.3 17.1-12.2 29.5-28.1 32.7-0.2 3.4-0.9 6.8-2.3 10.1-3.3 8.3-9.6 14.5-18.4 18.1-3.3 1.3-6.9 2-10.8 2-6.8 0-13.9-2.2-21-5.5-4.7 4.8-11.4 7.7-19.1 7.7-14.9 0-30.3-10.3-32-11.5-46.2-31.8-77-70.5-87.9-108.7q-15.7 10.3-35.4 19.1 0 0.1 0.1 0.2 2.6 3.5 4.2 7.4c23.7 4.3 39.3 18.4 42.2 39.1 6.2 46.1-67.3 57.7-102.6 63.2l-4.3 0.7c-43.6 7.2-90.4 10.5-151.7 10.5q-12.7 0-25.4-0.2h-7.4c-49.7-0.4-147.9-1-178.8-50.7-19 3.9-39.3 6-60.6 7q-0.1 0-0.2 0c-12.5 0.5-20.8 0.5-33.3 0q-0.3 0-0.5 0c-21.1-1-41.4-3.1-60.4-7-30.9 49.7-129.1 50.3-178.8 50.7h-7.3q-12.8 0.2-25.5 0.2c-61.3 0-108.1-3.3-151.6-10.5l-4.4-0.7c-35.3-5.5-108.8-17.1-102.5-63.2 2.8-20.7 18.5-34.8 42.1-39.1 1.1-2.8 2.7-5.5 4.7-8 9.1-11.6 25.4-16.7 39.9-18.9q0.3-1 0.5-1.7c0.8-1.9 1.8-3.7 3.1-5.4 13-15.8 38.2-23.2 79.4-23.2 4.4 0 8.8 0 13 0.2-14.9-25.1-27.5-63.9-25.2-122.9 3.4-89.1 50.5-192.6 82.3-242.5 45.5-160.7 160.7-332.4 307.8-332.4 102.8 0 203.5 86.5 270.6 231.8 2 1.9 3.6 4.2 4.7 6.9 63.9 159.8 156.2 219.8 223.7 263.6 22.6 14.7 43.1 28 59.5 43 15.8-22.7 38.2-44.3 66-63.5 1.7-1.2 17.1-11.5 32-11.5 7.7 0 14.4 2.9 19.1 7.8 7.1-3.4 14.2-5.6 21-5.6 3.9 0 7.5 0.7 10.8 2 8.8 3.6 15.1 9.8 18.4 18.1 1.4 3.3 2.1 6.7 2.3 10.1 15.9 3.2 26.8 15.6 28.1 32.7 2.5 33.3-26.1 55.8-45.1 70.7-29.3 23.2-54.3 40.8-75.2 53.2 20.9 12.4 45.8 30 75 53 19.2 15.1 47.8 37.7 45.3 70.9z"/><path class="f" d="m1319.3 797.1c-1.3 17.1-12.2 29.5-28 32.7-0.3 3.4-1 6.8-2.3 10.1-3.3 8.3-9.7 14.5-18.4 18.1-3.3 1.3-7 2-10.8 2-6.8 0-13.9-2.2-21-5.6-4.7 4.9-11.4 7.8-19.1 7.8-14.9 0-30.3-10.3-32-11.5-46.2-31.8-77-70.5-87.9-108.7q-15.7 10.3-35.5 19.1 0.1 0.1 0.2 0.2c1.8 2.3 3.2 4.8 4.2 7.4 23.6 4.3 39.3 18.4 42.2 39.1 6.2 46.1-67.3 57.6-102.6 63.2l-4.3 0.7c-43.6 7.2-90.4 10.5-151.7 10.5q-12.7 0-25.5-0.2h-7.3c-49.7-0.4-147.9-1-178.8-50.7-19 3.9-39.4 5.3-60.6 7q-0.1 0-0.3 0c-12.5 0.5-20.7 0.5-33.2 0q-0.3 0-0.5 0c-21.1-1-41.5-3.1-60.4-7-30.9 49.7-129.1 50.3-178.8 50.7h-7.4q-12.7 0.2-25.4 0.2c-61.3 0-108.1-3.3-151.7-10.5l-4.3-0.7c-35.3-5.6-108.8-17.1-102.6-63.2 2.9-20.7 18.5-34.8 42.2-39.1q1.7-4.2 4.6-8c9.2-11.6 25.5-16.8 39.9-18.9q0.4-1.1 0.6-1.7c0.8-1.9 1.8-3.8 3.1-5.4 12.9-15.8 38.2-23.3 79.4-23.3 4.4 0 8.7 0.1 13 0.3-15-25.1-27.5-63.9-25.2-122.9 3.4-89.1 50.4-192.6 82.3-242.5 45.5-160.7 160.7-332.4 307.8-332.4 102.8 0 203.5 86.5 270.6 231.8 2 1.9 3.6 4.2 4.7 6.9 63.9 159.8 156.2 219.8 223.6 263.6 22.7 14.7 43.2 28 59.6 43 15.8-22.7 38.2-44.3 66-63.5 1.7-1.2 17.1-11.5 32-11.5 7.7 0 14.4 2.9 19.1 7.8 7.1-3.4 14.2-5.6 21-5.6 3.8 0 7.5 0.7 10.8 2 8.7 3.6 15.1 9.8 18.4 18.1 1.3 3.3 2 6.7 2.3 10.1 15.8 3.2 26.7 15.6 28 32.7 2.5 33.3-26.1 55.8-45 70.7-29.4 23.2-54.3 40.8-75.3 53.2 21 12.4 45.8 30 75 53 19.2 15.1 47.8 37.7 45.3 70.9z"/><path class="g" d="m1316.9 794.9c-1.3 17.1-12.2 29.5-28 32.7-0.3 3.4-1 6.8-2.3 10.1-3.3 8.3-9.7 14.5-18.4 18.1-3.4 1.3-7 2-10.8 2-6.8 0-13.9-2.2-21.1-5.6-4.6 4.9-11.4 7.8-19.1 7.8-14.8 0-30.2-10.3-31.9-11.5-46.2-31.8-77-70.5-87.9-108.7q-15.8 10.3-35.5 19.1 0.1 0.1 0.2 0.2c1.7 2.4 3.1 4.8 4.2 7.4 23.6 4.2 39.3 18.4 42.1 39.1 6.3 46.1-67.2 57.6-102.5 63.2l-4.4 0.7c-43.5 7.2-90.3 10.5-151.6 10.5q-12.8 0-25.5-0.2l-7.3-0.1c-49.7-0.3-147.9-0.9-178.8-50.6-19 3.9-39.4 5.9-60.7 7q-0.1 0-0.2 0c-12.5 0.5-20.8 0.5-33.2 0q-0.3 0-0.5 0c-21.2-1-41.5-3.1-60.5-7-30.9 49.7-129.1 50.3-178.8 50.6l-7.3 0.1q-12.7 0.2-25.5 0.2c-61.3 0-108-3.3-151.6-10.5l-4.3-0.7c-35.4-5.6-108.9-17.1-102.6-63.2 2.8-20.7 18.5-34.9 42.1-39.1 1.2-2.8 2.8-5.5 4.7-8 9.2-11.6 25.5-16.8 39.9-18.9q0.3-1.1 0.6-1.7c0.7-2 1.8-3.8 3.1-5.4 12.9-15.9 38.1-23.3 79.3-23.3 4.4 0 8.8 0.1 13.1 0.3-15-25.1-27.5-63.9-25.3-122.9 3.5-89.1 50.5-192.6 82.3-242.5 45.5-160.7 160.8-332.5 307.9-332.5 102.7 0 203.5 86.5 270.6 231.9 2 1.9 3.6 4.2 4.6 6.9 64 159.8 156.3 219.8 223.7 263.6 22.7 14.7 43.2 28 59.6 43 15.7-22.7 38.2-44.4 66-63.5 1.7-1.2 17.1-11.5 31.9-11.5 7.7 0 14.5 2.9 19.2 7.8 7.1-3.4 14.2-5.6 21-5.6 3.8 0 7.4 0.7 10.8 2 8.7 3.6 15.1 9.8 18.4 18.1 1.3 3.3 2 6.7 2.3 10.1 15.8 3.2 26.7 15.6 28 32.7 2.5 33.3-26.1 55.8-45 70.7-29.4 23.2-54.3 40.8-75.3 53.2 21 12.4 45.8 30 75 53 19.2 15.1 47.8 37.6 45.3 70.9z"/><path class="h" d="m1314.5 792.7c-1.3 17.1-12.2 29.5-28.1 32.7-0.2 3.4-0.9 6.8-2.3 10.1-3.3 8.3-9.6 14.5-18.3 18.1-3.4 1.3-7 2-10.8 2-6.8 0-14-2.2-21.1-5.6-4.7 4.9-11.4 7.8-19.1 7.8-14.9 0-30.2-10.3-31.9-11.5-46.2-31.8-77.1-70.5-88-108.7q-15.7 10.2-35.4 19.1 0.1 0.1 0.1 0.2 2.7 3.5 4.3 7.4c23.6 4.2 39.3 18.4 42.1 39.1 6.3 46.1-67.2 57.6-102.6 63.2l-4.3 0.7c-43.6 7.2-90.3 10.5-151.6 10.5q-12.8 0-25.5-0.2l-7.3-0.1c-49.7-0.3-147.9-0.9-178.8-50.6-19 3.9-39.4 6-60.7 7q-0.1 0-0.2 0c-12.5 0.5-20.8 0.5-33.3 0q-0.2 0-0.4 0c-21.2-1-41.5-3.1-60.5-7-30.9 49.7-129.1 50.3-178.8 50.6l-7.3 0.1q-12.8 0.2-25.5 0.2c-61.3 0-108.1-3.3-151.6-10.5l-4.4-0.7c-35.3-5.6-108.8-17.1-102.5-63.2 2.8-20.7 18.5-34.9 42.1-39.1q1.7-4.2 4.7-8c9.2-11.7 25.5-16.8 39.9-18.9q0.3-1.1 0.6-1.7c0.7-2 1.7-3.8 3-5.4 13-15.9 38.2-23.3 79.4-23.3 4.4 0 8.8 0.1 13 0.3-14.9-25.1-27.5-63.9-25.2-122.9 3.5-89.2 50.5-192.6 82.3-242.5 45.5-160.7 160.8-332.5 307.8-332.5 102.8 0 203.5 86.5 270.6 231.9 2 1.9 3.6 4.2 4.7 6.9 63.9 159.8 156.3 219.8 223.7 263.6 22.6 14.7 43.1 28 59.5 43 15.8-22.7 38.2-44.4 66.1-63.5 1.7-1.2 17-11.5 31.9-11.5 7.7 0 14.4 2.9 19.1 7.8 7.1-3.4 14.3-5.6 21.1-5.6 3.8 0 7.4 0.7 10.7 2 8.8 3.6 15.1 9.8 18.4 18.1 1.4 3.3 2.1 6.7 2.3 10.1 15.9 3.2 26.8 15.6 28.1 32.7 2.5 33.3-26.1 55.8-45.1 70.7-29.3 23.2-54.2 40.8-75.2 53.2 20.9 12.4 45.8 29.9 75 53 19.2 15.1 47.8 37.6 45.3 70.9z"/><path class="i" d="m1312.1 790.5c-1.4 17.1-12.3 29.5-28.1 32.7-0.2 3.4-1 6.8-2.3 10.1-3.3 8.3-9.6 14.5-18.4 18.1-3.3 1.3-6.9 2-10.8 2-6.8 0-13.9-2.2-21-5.6-4.7 4.9-11.4 7.8-19.1 7.8-14.9 0-30.3-10.3-32-11.5-46.2-31.8-77-70.5-87.9-108.8q-15.7 10.3-35.5 19.2 0.1 0.1 0.2 0.2 2.6 3.5 4.2 7.4c23.6 4.2 39.3 18.4 42.2 39.1 6.2 46.1-67.3 57.6-102.6 63.2l-4.3 0.7c-43.6 7.2-90.4 10.5-151.7 10.5q-12.7 0-25.5-0.2l-7.3-0.1c-49.7-0.3-147.9-0.9-178.8-50.6-19 3.9-39.3 5.3-60.6 7q-0.1 0-0.3 0c-12.4 0.5-20.7 0.4-33.2 0q-0.3 0-0.5 0c-21.1-1-41.4-3.1-60.4-7-30.9 49.7-129.1 50.3-178.8 50.6l-7.3 0.1q-12.8 0.2-25.5 0.2c-61.3 0-108.1-3.3-151.7-10.5l-4.3-0.7c-35.3-5.6-108.8-17.1-102.6-63.2 2.9-20.7 18.6-34.9 42.2-39.1q1.7-4.2 4.7-8c9.1-11.7 25.4-16.8 39.8-18.9q0.4-1.1 0.6-1.7c0.8-2 1.8-3.8 3.1-5.4 13-15.9 38.2-23.3 79.4-23.3q6.6 0 13 0.3c-15-25.1-27.5-64-25.2-122.9 3.4-89.2 50.5-192.6 82.3-242.5 45.5-160.7 160.7-332.5 307.8-332.5 102.8 0 203.5 86.5 270.6 231.9 2 1.9 3.6 4.2 4.7 6.9 63.9 159.8 156.2 219.8 223.7 263.6 22.6 14.7 43.1 28 59.5 43 15.8-22.7 38.2-44.4 66-63.5 1.7-1.2 17.1-11.5 32-11.5 7.7 0 14.4 2.9 19.1 7.7 7.1-3.3 14.2-5.5 21-5.5 3.9 0 7.5 0.7 10.8 2 8.7 3.6 15.1 9.8 18.4 18.1 1.3 3.3 2.1 6.7 2.3 10.1 15.8 3.2 26.7 15.6 28.1 32.7 2.5 33.3-26.2 55.8-45.1 70.7-29.3 23.2-54.3 40.8-75.3 53.2 21 12.4 45.9 29.9 75.1 53 19.2 15.1 47.8 37.6 45.3 70.9z"/><path class="j" d="m1309.6 788.2c-1.3 17.2-12.2 29.6-28 32.8-0.3 3.3-1 6.7-2.3 10.1-3.3 8.3-9.7 14.5-18.4 18.1-3.3 1.3-7 2-10.8 2-6.8 0-13.9-2.2-21-5.6-4.7 4.9-11.5 7.8-19.2 7.8-14.8 0-30.2-10.3-31.9-11.5-46.2-31.8-77-70.5-87.9-108.8q-15.7 10.3-35.5 19.2 0.1 0.1 0.2 0.2 2.6 3.5 4.2 7.4c23.6 4.2 39.3 18.4 42.1 39.1 6.3 46.1-67.2 57.6-102.5 63.2l-4.4 0.7c-43.5 7.2-90.3 10.4-151.6 10.4q-12.7 0-25.5-0.1l-7.3-0.1c-49.7-0.3-147.9-0.9-178.8-50.6-19 3.9-39.3 5.9-60.7 7q-0.1 0-0.2 0c-12.5 0.5-20.7 0.5-33.2 0q-0.3 0-0.5 0c-21.2-1-41.5-3.1-60.4-7-30.9 49.7-129.1 50.3-178.9 50.6l-7.3 0.1q-12.7 0.1-25.4 0.1c-61.4 0-108.1-3.2-151.7-10.4l-4.3-0.7c-35.3-5.6-108.8-17.1-102.6-63.2 2.8-20.7 18.5-34.9 42.1-39.1 1.2-2.8 2.8-5.5 4.7-8 9.2-11.7 25.5-16.8 39.9-18.9q0.4-1.1 0.6-1.7c0.7-2 1.8-3.8 3.1-5.4 12.9-15.9 38.1-23.3 79.4-23.3 4.3 0 8.7 0.1 13 0.3-15-25.1-27.5-64-25.2-122.9 3.4-89.2 50.4-192.6 82.2-242.5 45.5-160.7 160.8-332.5 307.9-332.5 102.7 0 203.5 86.5 270.6 231.9 2 1.9 3.6 4.2 4.6 6.8 64 159.9 156.3 219.9 223.7 263.7 22.7 14.7 43.2 28 59.6 43 15.8-22.7 38.2-44.4 66-63.5 1.7-1.2 17.1-11.5 31.9-11.5 7.7 0 14.5 2.9 19.2 7.7 7.1-3.3 14.2-5.5 21-5.5 3.8 0 7.5 0.7 10.8 2 8.7 3.5 15.1 9.8 18.4 18.1 1.3 3.3 2 6.7 2.3 10.1 15.8 3.2 26.7 15.6 28 32.7 2.5 33.3-26.1 55.8-45 70.7-29.4 23.2-54.3 40.8-75.3 53.2 21 12.4 45.8 29.9 75 53 19.2 15.1 47.8 37.6 45.3 70.8z"/><path class="k" d="m1307.2 786c-1.3 17.2-12.2 29.5-28 32.8-0.3 3.3-1 6.7-2.3 10.1-3.3 8.3-9.7 14.5-18.4 18-3.4 1.4-7 2.1-10.8 2.1-6.8 0-14-2.2-21.1-5.6-4.7 4.9-11.4 7.8-19.1 7.8-14.8 0-30.2-10.3-31.9-11.5-46.2-31.8-77-70.5-87.9-108.8q-15.8 10.3-35.5 19.2 0.1 0.1 0.2 0.2 2.6 3.5 4.2 7.4c23.6 4.2 39.3 18.4 42.1 39.1 6.3 46-67.2 57.6-102.5 63.2l-4.4 0.7c-43.6 7.2-90.3 10.4-151.6 10.4q-12.8 0-25.5-0.1l-7.3-0.1c-49.7-0.3-147.9-1-178.8-50.6-19 3.9-39.4 5.9-60.7 7q-0.1 0-0.2 0c-12.5 0.5-20.8 0.7-33.3 0q-0.2 0-0.4 0c-21.2-1-41.5-3.1-60.5-7-30.9 49.6-129.1 50.3-178.8 50.6l-7.3 0.1q-12.7 0.1-25.5 0.1c-61.3 0-108-3.2-151.6-10.4l-4.4-0.7c-35.3-5.6-108.8-17.2-102.5-63.2 2.8-20.7 18.5-34.9 42.1-39.1 1.2-2.8 2.7-5.5 4.7-8 9.2-11.7 25.5-16.8 39.9-18.9q0.3-1.1 0.6-1.7c0.7-2 1.8-3.8 3.1-5.4 12.9-15.9 38.1-23.3 79.3-23.3 4.4 0 8.8 0.1 13.1 0.3-15-25.1-27.5-64-25.3-122.9 3.5-89.2 50.5-192.6 82.3-242.5 45.5-160.7 160.8-332.5 307.8-332.5 102.8 0 203.6 86.5 270.7 231.9 2 1.9 3.6 4.2 4.6 6.8 63.9 159.9 156.3 219.9 223.7 263.7 22.6 14.7 43.2 28 59.6 43 15.7-22.7 38.2-44.4 66-63.5 1.7-1.2 17.1-11.5 31.9-11.5 7.7 0 14.5 2.9 19.1 7.7 7.1-3.3 14.3-5.5 21.1-5.5 3.8 0 7.4 0.7 10.8 2 8.7 3.5 15.1 9.8 18.4 18.1 1.3 3.3 2 6.7 2.3 10.1 15.8 3.2 26.7 15.6 28 32.7 2.5 33.3-26.1 55.8-45 70.7-29.4 23.2-54.3 40.8-75.3 53.2 21 12.4 45.8 29.9 75 52.9 19.2 15.2 47.8 37.7 45.3 70.9z"/><path class="l" d="m1304.8 783.8c-1.3 17.2-12.2 29.5-28.1 32.8-0.2 3.3-0.9 6.7-2.3 10.1-3.3 8.3-9.6 14.5-18.4 18-3.3 1.4-6.9 2.1-10.7 2.1-6.9 0-14-2.2-21.1-5.6-4.7 4.9-11.4 7.8-19.1 7.8-14.9 0-30.3-10.3-32-11.5-46.2-31.8-77-70.5-87.9-108.8q-15.7 10.3-35.4 19.2 0.1 0.1 0.1 0.2 2.6 3.5 4.2 7.4c23.7 4.2 39.4 18.4 42.2 39.1 6.2 46-67.3 57.6-102.6 63.2l-4.3 0.7c-43.6 7.2-90.3 10.4-151.7 10.4q-12.7 0-25.4-0.1l-7.4-0.1c-49.7-0.3-147.9-1-178.8-50.6-18.9 3.8-39.3 6.2-60.6 7q-0.1 0-0.2 0c-12.5 0.5-20.8 0.5-33.3 0q-0.3 0-0.5 0c-21.1-0.8-41.4-3.2-60.4-7-30.9 49.6-129.1 50.3-178.8 50.6l-7.3 0.1q-12.8 0.1-25.5 0.1c-61.3 0-108.1-3.2-151.6-10.4l-4.4-0.7c-35.3-5.6-108.8-17.2-102.5-63.2 2.8-20.7 18.5-34.9 42.1-39.1q1.7-4.3 4.7-8c9.1-11.7 25.4-16.8 39.9-18.9q0.3-1.1 0.6-1.7c0.7-2 1.7-3.8 3-5.4 13-15.9 38.2-23.3 79.4-23.3 4.4 0 8.8 0.1 13 0.3-14.9-25.1-27.5-64-25.2-122.9 3.5-89.2 50.5-192.7 82.3-242.5 45.5-160.7 160.7-332.5 307.8-332.5 102.8 0 203.5 86.5 270.6 231.9 2 1.9 3.6 4.2 4.7 6.8 63.9 159.9 156.3 219.9 223.7 263.7 22.6 14.7 43.1 28 59.5 43 15.8-22.8 38.2-44.4 66-63.5 1.7-1.2 17.1-11.5 32-11.5 7.7 0 14.4 2.9 19.1 7.7 7.1-3.3 14.3-5.5 21.1-5.5 3.8 0 7.4 0.7 10.7 2 8.8 3.5 15.1 9.8 18.4 18.1 1.4 3.3 2.1 6.7 2.3 10.1 15.9 3.2 26.8 15.6 28.1 32.7 2.5 33.2-26.1 55.8-45.1 70.7-29.3 23.2-54.3 40.8-75.2 53.2 20.9 12.4 45.8 29.9 75 52.9 19.2 15.2 47.8 37.7 45.3 70.9z"/></g><path class="a" d="m1304.8 783.8c-1.3 17.2-12.2 29.5-28.1 32.8-0.2 3.3-0.9 6.7-2.3 10.1-3.3 8.3-9.6 14.5-18.4 18-3.3 1.4-6.9 2.1-10.7 2.1-6.9 0-14-2.2-21.1-5.6-4.7 4.9-11.4 7.8-19.1 7.8-14.9 0-30.3-10.3-32-11.5-46.2-31.8-77-70.5-87.9-108.8q-15.7 10.3-35.4 19.2 0.1 0.1 0.1 0.2 2.6 3.5 4.2 7.4c23.7 4.2 39.4 18.4 42.2 39.1 6.2 46-67.3 57.6-102.6 63.2l-4.3 0.7c-43.6 7.2-90.3 10.4-151.7 10.4q-12.7 0-25.4-0.1l-7.4-0.1c-49.7-0.3-147.9-1-178.8-50.6-18.9 3.8-39.3 6.2-60.6 7q-0.1 0-0.2 0c-12.5 0.5-20.8 0.5-33.3 0q-0.3 0-0.5 0c-21.1-0.8-41.4-3.2-60.4-7-30.9 49.6-129.1 50.3-178.8 50.6l-7.3 0.1q-12.8 0.1-25.5 0.1c-61.3 0-108.1-3.2-151.6-10.4l-4.4-0.7c-35.3-5.6-108.8-17.2-102.5-63.2 2.8-20.7 18.5-34.9 42.1-39.1q1.7-4.3 4.7-8c9.1-11.7 25.4-16.8 39.9-18.9q0.3-1.1 0.6-1.7c0.7-2 1.7-3.8 3-5.4 13-15.9 38.2-23.3 79.4-23.3 4.4 0 8.8 0.1 13 0.3-14.9-25.1-27.5-64-25.2-122.9 3.5-89.2 50.5-192.7 82.3-242.5 45.5-160.7 160.7-332.5 307.8-332.5 102.8 0 203.5 86.5 270.6 231.9 2 1.9 3.6 4.2 4.7 6.8 63.9 159.9 156.3 219.9 223.7 263.7 22.6 14.7 43.1 28 59.5 43 15.8-22.8 38.2-44.4 66-63.5 1.7-1.2 17.1-11.5 32-11.5 7.7 0 14.4 2.9 19.1 7.7 7.1-3.3 14.3-5.5 21.1-5.5 3.8 0 7.4 0.7 10.7 2 8.8 3.5 15.1 9.8 18.4 18.1 1.4 3.3 2.1 6.7 2.3 10.1 15.9 3.2 26.8 15.6 28.1 32.7 2.5 33.2-26.1 55.8-45.1 70.7-29.3 23.2-54.3 40.8-75.2 53.2 20.9 12.4 45.8 29.9 75 52.9 19.2 15.2 47.8 37.7 45.3 70.9z"/><path class="m" d="m1251.7 793.1c-1.7-1 15.7 26.1-2.9 33.7-11.9 4.8-42.6-20.5-42.2-19 0.5 2.1 6.6 14.6 5.1 16.6-1.2 10.6-19.9 2.4-27.6-2.9-69-47.6-99.5-109-76.1-156.6 16-32.7 110 40 139.5 63.3 16.6 13.1 39.7 31.1 37.9 54.2-1.3 17.4-19.7 19.2-33.7 10.7z"/><path class="m" d="m1285.4 537.6c1.8 23-21.3 41-37.9 54.2-29.5 23.2-123.5 95.9-139.5 63.3-23.4-47.7 7.1-109.1 76.1-156.7 7.7-5.3 26.4-13.5 27.6-2.9 1.5 2.1-4.6 14.6-5.1 16.6-0.4 1.5 30.3-23.7 42.2-18.9 18.6 7.6 1.2 34.7 2.9 33.6 14-8.4 32.4-6.7 33.7 10.8z"/><path class="n" d="m805.9 246.5c113.3 283.5 312.2 263.2 320.5 374.9 15.2 205.6-614 155.1-614 155.1z"/><path class="m" d="m636.2 784.2c1-114.7 14.9-327.9 176.6-469.4 12-10.5 101.9 140.1 106.6 261.5 4.6 121.5-56.7 146.4-56.7 146.4 0 0 105.4-16.9 128.2 11.1 0 0 3.3 8.5-1.1 12.7 0.1 0 55.1-0.5 46.6 27.2 0 0 37.1-2.4 40.7 23.5 3.9 29.2-72.8 39.1-90.9 42.1-57.5 9.6-115.6 10.8-173.7 10.1-43.2-0.5-177 2.3-176.3-65.2z"/><path class="o" d="m924.2 794.3c-7.2 0-14.6-0.2-22.3-0.6-1-0.1-1.7-0.9-1.7-1.9 0.1-1 0.9-1.8 1.9-1.7 80.7 4.7 133-17.9 133.5-18.1 1-0.4 2 0 2.4 0.9 0.4 0.9 0 2-0.9 2.4-0.5 0.2-44.1 19-112.9 19z"/><path class="o" d="m902.2 753.7c-12.9 0-26.3-0.4-39.5-1.4-0.9-0.1-1.7-1-1.6-1.9 0.1-1 1-1.7 1.9-1.7 60.9 4.8 126-3.9 126.6-4 0.9-0.2 1.9 0.6 2 1.5 0.1 1-0.5 1.9-1.5 2-0.5 0.1-40.9 5.5-87.9 5.5z"/><path class="m" d="m284.8 849.4c-58.2 0.7-116.3-0.5-173.8-10.1-18.1-3-94.8-12.9-90.8-42.1 3.5-25.9 40.7-23.5 40.7-23.5-8.5-27.7 46.4-27.2 46.5-27.2-4.3-4.2-1-12.7-1-12.7 22.8-28 128.1-11.1 128.1-11.1 0 0-61.3-24.9-56.6-146.4 4.7-121.4 94.6-272 106.5-261.5 161.7 141.5 175.7 354.7 176.7 469.4 0.6 67.5-133.1 64.7-176.3 65.2z"/><path class="o" d="m173 794.3c-68.8 0-112.4-18.8-112.9-19-0.9-0.4-1.3-1.5-0.9-2.4 0.4-0.9 1.5-1.3 2.4-0.9 0.5 0.2 52.9 22.8 133.5 18.1 1-0.1 1.9 0.7 1.9 1.7 0.1 1-0.7 1.8-1.6 1.9-7.7 0.4-15.2 0.6-22.4 0.6z"/><path class="o" d="m195 753.7c-47 0-87.3-5.4-87.8-5.5-1-0.1-1.7-1-1.6-2 0.2-0.9 1.1-1.7 2-1.5 0.7 0.1 65.7 8.8 126.6 4 1-0.1 1.9 0.7 1.9 1.7 0.1 0.9-0.6 1.8-1.6 1.9-13.2 1-26.6 1.4-39.5 1.4z"/><path class="p" d="m860.4 490.7c0 202.5-139.6 315.4-311.8 315.4-172.2 0-311.7-112.9-311.7-315.4 0-202.4 139.5-470.7 311.7-470.7 172.2 0 311.8 268.3 311.8 470.7z"/><path class="q" d="m454.3 156.9c0 15.2-12.4 27.6-27.7 27.6-15.2 0-27.6-12.4-27.6-27.6 0-15.3 12.4-27.7 27.6-27.7 15.3 0 27.7 12.4 27.7 27.7z"/><path class="a" d="m424.7 148.2c0 4.8-3.9 8.7-8.7 8.7-4.7 0-8.6-3.9-8.6-8.7 0-4.7 3.9-8.6 8.6-8.6 4.8 0 8.7 3.9 8.7 8.6z"/><path class="a" d="m415 166.4c0 2.1-1.7 3.7-3.8 3.7-2.1 0-3.8-1.6-3.8-3.7 0-2.1 1.7-3.8 3.8-3.8 2.1 0 3.8 1.7 3.8 3.8z"/><path class="q" d="m689.9 156.9c0 15.2-12.3 27.6-27.6 27.6-15.2 0-27.6-12.4-27.6-27.6 0-15.3 12.4-27.7 27.6-27.7 15.3 0 27.6 12.4 27.6 27.7z"/><path class="a" d="m660.4 148.2c0 4.8-3.9 8.7-8.7 8.7-4.7 0-8.6-3.9-8.6-8.7 0-4.7 3.9-8.6 8.6-8.6 4.8 0 8.7 3.9 8.7 8.6z"/><path class="a" d="m650.7 166.4c0 2.1-1.7 3.7-3.8 3.7-2.1 0-3.8-1.6-3.8-3.7 0-2.1 1.7-3.8 3.8-3.8 2.1 0 3.8 1.7 3.8 3.8z"/><path class="r" d="m674 266.5c0 39.1-29 61-64.8 61-33.8 0-61.6-19.6-64.4-54.9q-0.2 0-0.3 0-0.2 0-0.3 0c-2.9 35.3-30.6 54.9-64.5 54.9-35.8 0-64.8-21.9-64.8-61 0-22.9 9.9-50 25.2-68.7 16.6-26.3 57.1-51.2 104.4-51.2 47.3 0 87.7 24.9 104.3 51.1 15.4 18.7 25.2 45.9 25.2 68.8z"/><path class="s" d="m509.7 228.3c0 0 5.6 6.9-2.4 12.6-8 5.8-16.7-8-16.7-15.5 0-7.5 13.5-6.9 13.5-6.9 33.6-0.6 31.2 28.8 31.2 28.8-6.4-21.3-25.6-19-25.6-19z"/><path class="s" d="m553.7 247.3c0 0-2.4-29.4 31.1-28.8 0 0 13.6-0.6 13.6 6.9 0 7.5-8.8 21.3-16.8 15.5-8-5.7-2.4-12.6-2.4-12.6 0 0-19.1-2.3-25.5 19z"/><path class="t" d="m420.8 395.6c-0.8 0-1.5-0.6-1.6-1.4-4.2-41.4 7.7-67.6 18.5-82.2 11.7-16 24.3-22 24.9-22.2 0.8-0.4 1.7-0.1 2.1 0.7 0.4 0.8 0 1.8-0.8 2.2-0.5 0.2-49.4 24.1-41.5 101.2 0.1 0.8-0.6 1.6-1.4 1.7q-0.1 0-0.2 0z"/><path class="t" d="m388.2 362.3q-0.1 0-0.2-0.1c-0.9-0.1-1.5-0.9-1.4-1.8 5.4-38.9 23.3-58.9 37.3-68.8 15.2-10.8 29-12.3 29.6-12.4 0.9-0.1 1.7 0.6 1.7 1.5 0.1 0.8-0.5 1.6-1.4 1.7-0.5 0.1-53.9 6.4-64 78.5-0.1 0.8-0.8 1.4-1.6 1.4z"/><path class="t" d="m361.8 337.5q0 0-0.1 0c-0.9-0.1-1.5-0.9-1.4-1.7 4.2-40.4 25.7-59 43-67.6 18.6-9.2 36.1-8.9 36.8-8.9 0.9 0 1.6 0.7 1.6 1.6 0 0.9-0.8 1.6-1.6 1.6-0.2 0-0.3 0-0.6 0-6.9 0-68.6 2-76.1 73.6-0.1 0.8-0.7 1.4-1.6 1.4z"/><path class="t" d="m481.2 397.2c-0.7 0-1.3-0.5-1.5-1.2-8.6-33.4-4.5-59.5 0.4-75.6 5.3-17.4 12.6-26.8 12.9-27.1 0.6-0.7 1.6-0.9 2.3-0.3 0.7 0.5 0.8 1.5 0.2 2.2-0.3 0.4-28.8 37.6-12.7 100 0.2 0.9-0.3 1.7-1.2 2q-0.1 0-0.4 0z"/><path class="t" d="m388.2 254.5c-0.5 0-1.1-0.3-1.4-0.8-0.4-0.7-0.2-1.7 0.5-2.2 45.9-29 85.6-0.2 86 0.1 0.7 0.5 0.8 1.5 0.3 2.2-0.5 0.7-1.5 0.9-2.2 0.4-0.4-0.3-38.3-27.8-82.4 0q-0.4 0.3-0.8 0.3z"/><path class="t" d="m394.6 300q-0.5 0-1-0.3c-0.7-0.5-0.8-1.5-0.3-2.3 28.2-38.6 78.8-30.2 79.3-30.1 0.9 0.1 1.4 1 1.3 1.8-0.2 0.9-1 1.5-1.9 1.3-0.5-0.1-49.1-8.1-76.1 28.9-0.3 0.5-0.8 0.7-1.3 0.7z"/><path class="t" d="m452.3 350.3c-0.8 0-1.5-0.6-1.6-1.4-4.2-49.7 42.4-73.3 42.9-73.5 0.8-0.4 1.7-0.1 2.1 0.7 0.4 0.8 0.1 1.8-0.7 2.2-0.5 0.2-45.2 22.9-41.1 70.3 0.1 0.9-0.6 1.6-1.4 1.7q-0.1 0-0.2 0z"/><path class="t" d="m508.7 346.5c-0.6 0-1.2-0.4-1.5-1.1-14.6-43 3.6-58.8 4.4-59.4 0.7-0.6 1.7-0.5 2.3 0.2 0.5 0.7 0.5 1.7-0.2 2.2-0.2 0.2-17.3 15.2-3.4 56 0.2 0.8-0.2 1.8-1 2q-0.3 0.1-0.6 0.1z"/><path class="t" d="m668.1 395.6q0 0-0.1 0c-0.9-0.1-1.5-0.9-1.4-1.7 7.9-77.2-41.1-101-41.6-101.2-0.8-0.4-1.1-1.4-0.7-2.2 0.3-0.8 1.3-1.1 2.1-0.7 0.5 0.2 51.5 25 43.3 104.4-0.1 0.8-0.7 1.4-1.6 1.4z"/><path class="t" d="m701 362.2c0.8-0.1 1.5-0.9 1.3-1.8-10.4-74.6-66.3-81.1-66.9-81.2-0.8-0.1-1.6 0.6-1.7 1.5-0.1 0.8 0.5 1.6 1.4 1.7 0.2 0 13.7 1.5 28.2 11.9 13.5 9.6 30.6 28.9 35.9 66.6 0.1 0.8 0.8 1.4 1.6 1.4q0.1 0 0.2-0.1z"/><path class="t" d="m727.3 337.5c0.8-0.1 1.5-0.9 1.4-1.7-8.1-77.2-79.1-76.5-79.9-76.5-0.8 0-1.6 0.7-1.5 1.6 0 0.9 0.8 1.6 1.6 1.6 0.1 0 17.4-0.3 35.4 8.6 24.1 11.9 38 33.8 41.2 65 0.1 0.8 0.8 1.4 1.6 1.4q0.1 0 0.2 0z"/><path class="t" d="m609.2 396c16.5-64.1-13-102.4-13.3-102.7-0.5-0.7-1.5-0.9-2.2-0.3-0.7 0.5-0.8 1.5-0.3 2.2 0.1 0.1 7.3 9.4 12.5 26.3 4.7 15.6 8.6 41.1 0.2 73.7-0.2 0.9 0.3 1.7 1.2 2q0.2 0 0.4 0c0.7 0 1.4-0.5 1.5-1.2z"/><path class="t" d="m700.8 254.5q-0.5 0-0.9-0.3c-44-27.8-82-0.3-82.3 0-0.7 0.5-1.7 0.3-2.3-0.4-0.5-0.7-0.3-1.7 0.4-2.2 0.4-0.3 40-29.1 85.9-0.1 0.8 0.5 1 1.5 0.5 2.2-0.3 0.5-0.8 0.8-1.3 0.8z"/><path class="t" d="m694.4 300c-0.5 0-1-0.2-1.3-0.7-27-37-75.7-28.9-76.2-28.9-0.9 0.2-1.7-0.4-1.8-1.3-0.2-0.8 0.4-1.7 1.2-1.8 0.6-0.1 51.1-8.5 79.4 30.1 0.5 0.8 0.3 1.8-0.4 2.3q-0.4 0.3-0.9 0.3z"/><path class="t" d="m636.6 350.3q0 0-0.1 0c-0.9-0.1-1.5-0.8-1.5-1.7 4.1-47.5-40.6-70.1-41-70.3-0.8-0.4-1.2-1.4-0.8-2.2 0.4-0.8 1.4-1.1 2.2-0.7 0.4 0.2 47.1 23.8 42.8 73.5-0.1 0.8-0.8 1.4-1.6 1.4z"/><path class="t" d="m580.2 346.5q-0.3 0-0.5-0.1c-0.8-0.2-1.3-1.2-1-2 13.9-41-3.2-55.8-3.4-56-0.7-0.5-0.8-1.5-0.2-2.2 0.5-0.7 1.5-0.8 2.2-0.2 0.8 0.6 19.1 16.4 4.4 59.4-0.2 0.7-0.8 1.1-1.5 1.1z"/><path class="u" d="m766.6 643.9c0 113.3-97.6 162.2-218 162.2-120.3 0-217.9-48.9-217.9-162.2 0-113.3 97.6-248.3 217.9-248.3 120.4 0 218 135 218 248.3z"/></svg>