<svg version="1.2" xmlns="http://www.w3.org/2000/svg" viewBox="0 0 1200 1300" width="0" height="120"><style>.a{fill:#fff}.b{fill:#f1f1f1}.c{fill:#e2e2e2}.d{fill:#d4d4d4}.e{fill:#c5c5c5}.f{fill:#b7b7b7}.g{fill:#a8a8a8}.h{fill:#9a9a9a}.i{fill:#8b8b8b}.j{fill:#7d7d7d}.k{fill:#6e6e6e}.l{fill:#606060}.m{fill:#4b5f6c}.n{fill:#4e6472}.o{fill:#e6ecf1}.p{fill:#374550}.q{fill:#1a2022}.r{fill:#161615}.s{fill:#7f0004}</style><g style="mix-blend-mode:multiply"><path class="a" d="m1212.6 1027.4c-2.1 8.2-9.3 14.2-17.8 14.6-7.2 0.4-166.5 8.6-231.5 11-25.2 62.4-105.1 209.4-108.7 216.1-3.5 6.3-10 10.1-17.1 10.1q-1.4 0-2.8-0.2c-8.1-1.2-14.5-7.3-16.2-15.2-22.9-110.4-12.1-186.6 0.6-230.4-22.7 3-44.6 4.3-62.4 4.8-5.4 8.7-9.6 18.1-12.6 27.9-6.4 21.2-19.6 24.3-26.9 24.3-17.4 0-30.3-15.4-47.6-58.1-133.5-20.3-242.1-74.5-322.9-161.2-54.4-58.2-82.3-117-95.2-151-72.6 20.3-200.8 50.8-206.7 52.2-6.6 1.6-13.6-0.5-18.4-5.4-4.7-4.9-6.6-12-4.8-18.6 15.9-58.5 85.4-132.7 169.1-180.3 12.1-6.9 23.3-12.6 33.4-16.9 1.1-87.9 22.4-183.2 60.4-269.4 70.2-159.2 179.2-254.3 291.8-254.3 92 0 180.7 62.2 250.3 175.2 40.5 9.9 95.7 24.7 142.7 41.9 68.6 25.1 100.8 48.2 104.3 74.7 1.7 12.5-2.2 30.7-30.4 46.1-46.7 25.6-88.4 54.4-124.2 85.9 2 11.6 3.7 23.2 5 34.6 14.1 2.9 30.5 8.3 49.6 16.2 88.2 36.3 165.9 100.2 189.8 155.8 1.5 2.7 2.3 5.8 2.3 9.1 0 10.7-8.7 19.4-19.4 19.4-0.7 0-1.4 0-2.1-0.1-6.2-0.7-135.7-14.5-210.4-25.5 3.8 41.3 8.8 75.6 12.9 100.8 59.1 23.2 82.3 41.4 81.9 63.7-0.2 14.9-10.9 26.1-31.6 33.1-10.8 3.7-21.3 8.2-31.5 13.4q0.1 0.5 0.2 1c21.5 9.6 35.1 19.9 34.7 35.6-0.1 3.3-0.9 8-4 12.7 45.1 6.2 112.6 27.5 207.4 85 7.3 4.4 10.9 13.1 8.8 21.4z"/><path class="b" d="m1210.8 1024.9c-2.1 8.3-9.3 14.2-17.8 14.7-7.3 0.3-166.6 8.6-231.5 11-25.3 62.4-105.1 209.4-108.8 216.1-3.4 6.3-10 10.1-17 10.1q-1.4 0-2.9-0.2c-8-1.2-14.5-7.3-16.1-15.3-22.9-110.3-12.1-186.5 0.5-230.3-22.7 3-44.5 4.3-62.4 4.8-5.3 8.7-9.5 18-12.5 27.9-6.5 21.2-19.7 24.3-27 24.3-17.4 0-30.3-15.5-47.6-58.2-133.4-20.2-242-74.4-322.9-161.1-54.3-58.2-82.2-117-95.2-151.1-72.5 20.4-200.7 50.9-206.6 52.3-6.7 1.5-13.7-0.5-18.4-5.4-4.8-4.9-6.6-12-4.8-18.6 15.9-58.5 85.4-132.7 169.1-180.4 12-6.8 23.2-12.5 33.4-16.9 1-87.8 22.4-183.2 60.4-269.4 70.1-159.2 179.2-254.2 291.7-254.2 92.1 0 180.7 62.1 250.4 175.2 40.5 9.9 95.7 24.7 142.7 41.9 68.6 25.1 100.7 48.1 104.3 74.7 1.7 12.5-2.3 30.7-30.5 46.1-46.6 25.6-88.3 54.4-124.1 85.8 2 11.7 3.6 23.2 5 34.6 14.1 3 30.4 8.3 49.6 16.2 88.2 36.4 165.9 100.2 189.8 155.9 1.4 2.7 2.3 5.8 2.3 9.1 0 10.7-8.7 19.3-19.4 19.4q-1.1 0-2.2-0.2c-6.1-0.6-135.7-14.4-210.3-25.4 3.7 41.3 8.7 75.5 12.9 100.8 59.1 23.2 82.2 41.4 81.9 63.6-0.3 15-10.9 26.2-31.6 33.2-10.8 3.7-21.4 8.2-31.5 13.4q0.1 0.5 0.1 1c21.5 9.5 35.1 19.9 34.8 35.6-0.1 3.3-0.9 8-4 12.6 45.1 6.3 112.5 27.6 207.4 85.1 7.3 4.4 10.8 13.1 8.8 21.3z"/><path class="c" d="m1208.9 1022.5c-2 8.2-9.3 14.2-17.8 14.6-7.2 0.4-166.5 8.7-231.5 11-25.2 62.4-105.1 209.4-108.7 216.1-3.4 6.3-10 10.2-17 10.2q-1.5 0-2.9-0.2c-8-1.2-14.5-7.3-16.1-15.3-22.9-110.3-12.2-186.5 0.5-230.4-22.7 3.1-44.5 4.4-62.4 4.9-5.4 8.7-9.6 18-12.6 27.9-6.4 21.1-19.6 24.3-26.9 24.3-17.4 0-30.3-15.5-47.6-58.2-133.4-20.3-242-74.4-322.9-161.2-54.3-58.2-82.3-116.9-95.2-151-72.5 20.4-200.8 50.8-206.6 52.2-6.7 1.6-13.7-0.4-18.5-5.4-4.7-4.9-6.5-11.9-4.8-18.5 15.9-58.6 85.5-132.7 169.2-180.4 12-6.9 23.2-12.5 33.3-16.9 1.1-87.8 22.5-183.2 60.5-269.4 70.1-159.2 179.1-254.2 291.7-254.2 92 0 180.7 62.1 250.3 175.1 40.6 9.9 95.8 24.7 142.7 41.9 68.6 25.2 100.8 48.2 104.4 74.8 1.6 12.5-2.3 30.6-30.5 46.1-46.6 25.5-88.4 54.4-124.2 85.8 2 11.6 3.7 23.2 5.1 34.6 14 2.9 30.4 8.3 49.6 16.2 88.2 36.3 165.8 100.2 189.8 155.8 1.4 2.8 2.2 5.8 2.2 9.1 0 10.7-8.6 19.3-19.4 19.4-0.7 0-1.4 0-2.1-0.1-6.1-0.6-135.7-14.5-210.3-25.4 3.7 41.2 8.7 75.5 12.8 100.7 59.1 23.2 82.3 41.4 81.9 63.7-0.2 15-10.8 26.1-31.5 33.2-10.9 3.7-21.4 8.2-31.5 13.4q0 0.5 0.1 1c21.5 9.5 35.1 19.8 34.7 35.6-0.1 3.3-0.9 8-4 12.6 45.1 6.3 112.6 27.6 207.5 85.1 7.3 4.4 10.8 13 8.7 21.3z"/><path class="d" d="m1207.1 1020.1c-2.1 8.2-9.3 14.1-17.8 14.6-7.3 0.4-166.5 8.6-231.5 11-25.2 62.4-105.1 209.4-108.7 216.1-3.5 6.3-10.1 10.1-17.1 10.1q-1.4 0-2.8-0.2c-8.1-1.2-14.5-7.3-16.2-15.2-22.9-110.4-12.1-186.5 0.5-230.4-22.6 3-44.5 4.3-62.3 4.8-5.4 8.7-9.6 18.1-12.6 27.9-6.4 21.2-19.6 24.3-26.9 24.3-17.4 0-30.3-15.4-47.6-58.1-133.5-20.3-242.1-74.5-323-161.2-54.3-58.2-82.2-117-95.1-151-72.6 20.3-200.8 50.8-206.7 52.2-6.6 1.6-13.6-0.5-18.4-5.4-4.8-4.9-6.6-12-4.8-18.6 15.9-58.5 85.4-132.7 169.1-180.3 12.1-6.9 23.2-12.5 33.4-16.9 1.1-87.9 22.4-183.2 60.4-269.4 70.1-159.2 179.2-254.3 291.8-254.3 92 0 180.7 62.2 250.3 175.2 40.5 9.9 95.7 24.7 142.7 41.9 68.6 25.1 100.8 48.2 104.3 74.7 1.7 12.5-2.2 30.7-30.5 46.2-46.6 25.5-88.3 54.3-124.1 85.8 2 11.6 3.7 23.2 5 34.6 14.1 2.9 30.5 8.3 49.6 16.2 88.2 36.3 165.9 100.2 189.8 155.8 1.5 2.7 2.3 5.8 2.3 9.1 0 10.7-8.7 19.3-19.4 19.4q-1.1 0-2.1-0.1c-6.2-0.7-135.7-14.5-210.4-25.5 3.8 41.3 8.8 75.6 12.9 100.8 59.1 23.2 82.3 41.4 81.9 63.7-0.2 14.9-10.9 26.1-31.6 33.2-10.8 3.6-21.4 8.1-31.5 13.3q0.1 0.5 0.2 1c21.5 9.6 35.1 19.9 34.7 35.6-0.1 3.4-0.9 8-4 12.7 45.1 6.2 112.5 27.5 207.4 85 7.3 4.4 10.9 13.1 8.8 21.4z"/><path class="e" d="m1205.3 1017.6c-2.1 8.3-9.3 14.2-17.8 14.7-7.3 0.3-166.6 8.6-231.5 11-25.3 62.4-105.1 209.4-108.8 216.1-3.4 6.3-10 10.1-17 10.1q-1.4 0-2.9-0.2c-8-1.2-14.5-7.3-16.1-15.3-22.9-110.3-12.1-186.5 0.5-230.3-22.7 3-44.5 4.3-62.4 4.8-5.3 8.7-9.6 18.1-12.6 27.9-6.4 21.2-19.6 24.3-26.9 24.3-17.4 0-30.3-15.5-47.6-58.2-133.4-20.2-242-74.4-322.9-161.1-54.3-58.2-82.3-117-95.2-151-72.5 20.3-200.7 50.8-206.6 52.2-6.7 1.5-13.7-0.5-18.4-5.4-4.8-4.9-6.6-12-4.8-18.6 15.9-58.5 85.4-132.7 169.1-180.4 12-6.8 23.2-12.5 33.4-16.9 1-87.8 22.4-183.2 60.4-269.4 70.1-159.2 179.2-254.2 291.7-254.2 92.1 0 180.7 62.1 250.4 175.2 40.5 9.9 95.7 24.7 142.7 41.9 68.6 25.1 100.7 48.1 104.3 74.7 1.7 12.5-2.3 30.7-30.5 46.1-46.6 25.6-88.3 54.4-124.1 85.8 2 11.7 3.6 23.2 5 34.7 14 2.9 30.4 8.2 49.6 16.1 88.2 36.4 165.9 100.2 189.8 155.9 1.4 2.7 2.2 5.8 2.2 9.1 0 10.7-8.6 19.3-19.3 19.4-0.8 0-1.5-0.1-2.2-0.1-6.1-0.7-135.7-14.5-210.3-25.5 3.7 41.3 8.7 75.5 12.9 100.8 59.1 23.2 82.2 41.4 81.9 63.6-0.3 15-10.9 26.2-31.6 33.2-10.8 3.7-21.4 8.2-31.5 13.4q0.1 0.5 0.1 1c21.5 9.5 35.1 19.9 34.8 35.6-0.1 3.3-0.9 8-4 12.6 45.1 6.3 112.5 27.6 207.4 85.1 7.3 4.4 10.8 13.1 8.8 21.3z"/><path class="f" d="m1203.4 1015.2c-2.1 8.3-9.3 14.2-17.8 14.6-7.2 0.4-166.5 8.7-231.5 11-25.2 62.4-105.1 209.4-108.7 216.1-3.5 6.3-10 10.2-17.1 10.2q-1.4 0-2.8-0.2c-8.1-1.2-14.5-7.3-16.2-15.3-22.9-110.3-12.1-186.5 0.6-230.4-22.7 3.1-44.6 4.4-62.4 4.9-5.4 8.7-9.6 18-12.6 27.9-6.4 21.1-19.6 24.3-26.9 24.3-17.4 0-30.3-15.5-47.6-58.2-133.4-20.2-242-74.4-322.9-161.1-54.3-58.3-82.3-117-95.2-151.1-72.5 20.4-200.8 50.8-206.7 52.2-6.6 1.6-13.6-0.4-18.4-5.4-4.7-4.9-6.5-11.9-4.8-18.5 15.9-58.6 85.5-132.7 169.2-180.4 12-6.8 23.2-12.5 33.3-16.9 1.1-87.8 22.5-183.2 60.4-269.4 70.2-159.2 179.2-254.2 291.8-254.2 92 0 180.7 62.1 250.3 175.1 40.6 9.9 95.8 24.7 142.7 41.9 68.6 25.2 100.8 48.2 104.3 74.8 1.7 12.5-2.2 30.6-30.4 46.1-46.7 25.5-88.4 54.4-124.2 85.8 2 11.6 3.7 23.2 5.1 34.6 14 3 30.4 8.3 49.6 16.2 88.2 36.3 165.8 100.2 189.8 155.9 1.4 2.7 2.2 5.8 2.2 9 0 10.7-8.7 19.3-19.4 19.4q-1.1 0-2.1-0.1c-6.1-0.6-135.7-14.5-210.4-25.4 3.8 41.2 8.8 75.5 12.9 100.7 59.1 23.2 82.3 41.4 81.9 63.7-0.2 15-10.8 26.2-31.5 33.2-10.9 3.7-21.4 8.2-31.5 13.4q0 0.5 0.1 1c21.5 9.5 35.1 19.8 34.7 35.6-0.1 3.3-0.9 8-4 12.6 45.1 6.3 112.6 27.6 207.5 85.1 7.2 4.4 10.8 13 8.7 21.3z"/><path class="g" d="m1201.6 1012.8c-2.1 8.2-9.3 14.2-17.8 14.6-7.3 0.4-166.5 8.7-231.5 11-25.2 62.4-105.1 209.4-108.8 216.1-3.4 6.3-10 10.1-17 10.1q-1.4 0-2.8-0.2c-8.1-1.2-14.5-7.3-16.2-15.2-22.9-110.4-12.1-186.5 0.5-230.4-22.6 3-44.5 4.3-62.3 4.8-5.4 8.7-9.6 18.1-12.6 27.9-6.5 21.2-19.6 24.3-26.9 24.3-17.4 0-30.3-15.4-47.6-58.1-133.5-20.3-242.1-74.5-323-161.2-54.3-58.2-82.2-117-95.2-151-72.5 20.3-200.7 50.8-206.6 52.2-6.7 1.6-13.6-0.5-18.4-5.4-4.8-4.9-6.6-12-4.8-18.6 15.9-58.5 85.4-132.7 169.1-180.3 12.1-6.9 23.2-12.5 33.4-16.9 1.1-87.8 22.4-183.2 60.4-269.4 70.1-159.2 179.2-254.3 291.7-254.3 92.1 0 180.7 62.2 250.4 175.2 40.5 9.9 95.7 24.7 142.7 41.9 68.6 25.1 100.8 48.2 104.3 74.7 1.7 12.5-2.2 30.7-30.5 46.2-46.6 25.5-88.3 54.4-124.1 85.8 2 11.6 3.7 23.2 5 34.6 14.1 2.9 30.5 8.3 49.6 16.2 88.2 36.3 165.9 100.2 189.8 155.8 1.5 2.7 2.3 5.8 2.3 9.1 0 10.7-8.7 19.3-19.4 19.4q-1.1 0-2.2-0.1c-6.1-0.7-135.6-14.5-210.3-25.5 3.8 41.3 8.8 75.6 12.9 100.8 59.1 23.2 82.2 41.4 81.9 63.7-0.3 15-10.9 26.1-31.6 33.2-10.8 3.6-21.4 8.1-31.5 13.3q0.1 0.5 0.1 1.1c21.6 9.5 35.1 19.8 34.8 35.5-0.1 3.4-0.9 8-4 12.7 45.1 6.2 112.5 27.5 207.4 85 7.3 4.5 10.9 13.1 8.8 21.4z"/><path class="h" d="m1199.7 1010.3c-2 8.3-9.3 14.2-17.8 14.7-7.2 0.3-166.5 8.6-231.4 11-25.3 62.4-105.1 209.4-108.8 216.1-3.4 6.3-10 10.1-17 10.1q-1.4 0-2.9-0.2c-8-1.2-14.5-7.3-16.1-15.3-22.9-110.3-12.2-186.5 0.5-230.3-22.7 3-44.5 4.3-62.4 4.8-5.3 8.7-9.6 18.1-12.6 27.9-6.4 21.2-19.6 24.3-26.9 24.3-17.4 0-30.3-15.5-47.6-58.2-133.4-20.2-242-74.4-322.9-161.1-54.3-58.2-82.3-117-95.2-151-72.5 20.3-200.7 50.8-206.6 52.2-6.7 1.5-13.7-0.5-18.4-5.4-4.8-4.9-6.6-12-4.8-18.6 15.8-58.5 85.4-132.7 169.1-180.3 12-6.9 23.2-12.6 33.4-17 1-87.8 22.4-183.2 60.4-269.4 70.1-159.2 179.2-254.2 291.7-254.2 92 0 180.7 62.1 250.4 175.2 40.5 9.9 95.7 24.7 142.7 41.9 68.6 25.1 100.7 48.1 104.3 74.7 1.6 12.5-2.3 30.7-30.5 46.1-46.6 25.6-88.3 54.4-124.1 85.8 1.9 11.7 3.6 23.2 5 34.7 14 2.9 30.4 8.2 49.6 16.1 88.2 36.4 165.8 100.2 189.8 155.9 1.4 2.7 2.2 5.8 2.2 9.1 0 10.7-8.6 19.3-19.3 19.4-0.8 0-1.5-0.1-2.2-0.1-6.1-0.7-135.7-14.5-210.3-25.5 3.7 41.3 8.7 75.5 12.8 100.8 59.1 23.2 82.3 41.4 81.9 63.6-0.2 15-10.8 26.2-31.5 33.2-10.8 3.7-21.4 8.2-31.5 13.4q0 0.5 0.1 1c21.5 9.5 35.1 19.9 34.7 35.6 0 3.3-0.8 8-3.9 12.6 45 6.3 112.5 27.6 207.4 85.1 7.3 4.4 10.8 13.1 8.7 21.3z"/><path class="i" d="m1197.9 1007.9c-2.1 8.3-9.3 14.2-17.8 14.6-7.2 0.4-166.5 8.7-231.5 11.1-25.2 62.3-105.1 209.3-108.7 216-3.5 6.3-10 10.2-17.1 10.2q-1.4 0-2.8-0.2c-8.1-1.2-14.5-7.3-16.2-15.3-22.9-110.3-12.1-186.5 0.6-230.4-22.7 3.1-44.6 4.4-62.4 4.9-5.4 8.7-9.6 18-12.6 27.9-6.4 21.1-19.6 24.3-26.9 24.3-17.4 0-30.3-15.5-47.6-58.2-133.4-20.2-242-74.4-322.9-161.1-54.4-58.3-82.3-117-95.2-151.1-72.5 20.4-200.8 50.8-206.7 52.2-6.6 1.6-13.6-0.4-18.4-5.4-4.7-4.9-6.6-11.9-4.8-18.5 15.9-58.6 85.4-132.7 169.2-180.4 12-6.8 23.2-12.5 33.3-16.9 1.1-87.8 22.4-183.2 60.4-269.4 70.2-159.2 179.2-254.2 291.8-254.2 92 0 180.7 62.1 250.3 175.2 40.6 9.8 95.8 24.6 142.7 41.8 68.6 25.2 100.8 48.2 104.3 74.8 1.7 12.5-2.2 30.6-30.4 46.1-46.7 25.5-88.4 54.4-124.2 85.8 2 11.6 3.7 23.2 5.1 34.6 14 3 30.4 8.3 49.6 16.2 88.1 36.3 165.8 100.2 189.7 155.9 1.5 2.7 2.3 5.8 2.3 9 0 10.7-8.7 19.3-19.4 19.4q-1.1 0-2.1-0.1c-6.2-0.6-135.7-14.5-210.4-25.4 3.8 41.3 8.8 75.5 12.9 100.7 59.1 23.2 82.3 41.4 81.9 63.7-0.2 15-10.8 26.2-31.5 33.2-10.9 3.7-21.4 8.2-31.6 13.4q0.1 0.5 0.2 1c21.5 9.5 35.1 19.8 34.7 35.6-0.1 3.3-0.9 8-4 12.6 45.1 6.3 112.6 27.6 207.5 85.1 7.2 4.4 10.8 13 8.7 21.3z"/><path class="j" d="m1196.1 1005.5c-2.1 8.2-9.3 14.2-17.8 14.6-7.3 0.4-166.5 8.7-231.5 11-25.2 62.4-105.1 209.4-108.8 216.1-3.4 6.3-10 10.1-17 10.1q-1.4 0-2.8-0.2c-8.1-1.2-14.5-7.3-16.2-15.2-22.9-110.4-12.1-186.5 0.5-230.4-22.6 3-44.5 4.3-62.4 4.9-5.3 8.6-9.5 18-12.5 27.8-6.5 21.2-19.7 24.4-26.9 24.4-17.4 0-30.4-15.5-47.6-58.2-133.5-20.3-242.1-74.5-323-161.2-54.3-58.2-82.2-117-95.2-151-72.5 20.3-200.7 50.8-206.6 52.2-6.7 1.6-13.7-0.5-18.4-5.4-4.8-4.9-6.6-12-4.8-18.6 15.9-58.5 85.4-132.7 169.1-180.3 12.1-6.9 23.2-12.5 33.4-16.9 1.1-87.8 22.4-183.2 60.4-269.4 70.1-159.2 179.2-254.3 291.7-254.3 92.1 0 180.7 62.2 250.4 175.2 40.5 9.9 95.7 24.7 142.7 41.9 68.6 25.1 100.7 48.2 104.3 74.7 1.7 12.5-2.3 30.7-30.5 46.2-46.6 25.5-88.3 54.4-124.1 85.8 2 11.6 3.7 23.2 5 34.6 14.1 2.9 30.5 8.3 49.6 16.2 88.2 36.3 165.9 100.2 189.8 155.8 1.5 2.7 2.3 5.8 2.3 9.1 0 10.7-8.7 19.3-19.4 19.4-0.7 0-1.4 0-2.2-0.1-6.1-0.7-135.7-14.5-210.3-25.5 3.8 41.3 8.8 75.6 12.9 100.8 59.1 23.2 82.2 41.4 81.9 63.7-0.3 15-10.9 26.1-31.6 33.2-10.8 3.6-21.4 8.1-31.5 13.3q0.1 0.6 0.1 1.1c21.5 9.5 35.1 19.8 34.8 35.5-0.1 3.4-0.9 8-4 12.7 45.1 6.2 112.5 27.5 207.4 85 7.3 4.5 10.9 13.1 8.8 21.4z"/><path class="k" d="m1194.2 1003c-2 8.3-9.3 14.2-17.8 14.7-7.2 0.4-166.5 8.6-231.5 11-25.2 62.4-105.1 209.4-108.7 216.1-3.4 6.3-10 10.1-17 10.1q-1.4 0-2.9-0.2c-8-1.2-14.5-7.3-16.1-15.3-22.9-110.3-12.2-186.5 0.5-230.3-22.7 3-44.5 4.3-62.4 4.8-5.4 8.7-9.6 18.1-12.6 27.9-6.4 21.2-19.6 24.3-26.9 24.3-17.4 0-30.3-15.4-47.6-58.2-133.4-20.2-242-74.4-322.9-161.1-54.3-58.2-82.3-117-95.2-151-72.5 20.3-200.7 50.8-206.6 52.2-6.7 1.5-13.7-0.5-18.4-5.4-4.8-4.9-6.6-12-4.8-18.6 15.8-58.5 85.4-132.7 169.1-180.3 12-6.9 23.2-12.6 33.4-17 1-87.8 22.4-183.1 60.4-269.4 70.1-159.2 179.2-254.2 291.7-254.2 92 0 180.7 62.1 250.3 175.2 40.6 9.9 95.8 24.7 142.7 41.9 68.6 25.1 100.8 48.1 104.4 74.7 1.6 12.5-2.3 30.7-30.5 46.1-46.6 25.6-88.4 54.4-124.2 85.8 2 11.7 3.7 23.2 5.1 34.7 14 2.9 30.4 8.2 49.6 16.1 88.2 36.4 165.8 100.2 189.8 155.9 1.4 2.7 2.2 5.8 2.2 9.1 0 10.7-8.6 19.3-19.3 19.4-0.8 0-1.5-0.1-2.2-0.1-6.1-0.7-135.7-14.5-210.3-25.5 3.7 41.3 8.7 75.5 12.8 100.8 59.1 23.2 82.3 41.4 81.9 63.6-0.2 15-10.8 26.2-31.5 33.2-10.9 3.7-21.4 8.2-31.5 13.4q0 0.5 0.1 1c21.5 9.5 35.1 19.9 34.7 35.6 0 3.3-0.8 8-4 12.6 45.1 6.3 112.6 27.6 207.5 85.1 7.3 4.4 10.8 13.1 8.7 21.3z"/><path class="l" d="m1192.4 1000.6c-2.1 8.3-9.3 14.2-17.8 14.6-7.2 0.4-166.5 8.7-231.5 11.1-25.2 62.4-105.1 209.4-108.7 216-3.5 6.4-10 10.2-17.1 10.2q-1.4 0-2.8-0.2c-8.1-1.2-14.5-7.3-16.2-15.3-22.9-110.3-12.1-186.5 0.6-230.4-22.7 3.1-44.6 4.4-62.4 4.9-5.4 8.7-9.6 18-12.6 27.9-6.4 21.1-19.6 24.3-26.9 24.3-17.4 0-30.3-15.5-47.6-58.2-133.5-20.2-242.1-74.4-322.9-161.1-54.4-58.3-82.3-117-95.2-151.1-72.6 20.4-200.8 50.8-206.7 52.2-6.6 1.6-13.6-0.4-18.4-5.4-4.7-4.9-6.6-11.9-4.8-18.5 15.9-58.6 85.4-132.7 169.1-180.4 12.1-6.8 23.3-12.5 33.4-16.9 1.1-87.8 22.4-183.2 60.4-269.4 70.2-159.2 179.2-254.2 291.8-254.2 92 0 180.7 62.1 250.3 175.2 40.5 9.8 95.7 24.6 142.7 41.8 68.6 25.2 100.8 48.2 104.3 74.8 1.7 12.5-2.2 30.6-30.4 46.1-46.7 25.6-88.4 54.4-124.2 85.8 2 11.6 3.7 23.2 5 34.6 14.1 3 30.5 8.3 49.6 16.2 88.2 36.3 165.9 100.2 189.8 155.9 1.5 2.7 2.3 5.8 2.3 9 0 10.7-8.7 19.4-19.4 19.4-0.7 0.1-1.4 0-2.1-0.1-6.2-0.6-135.7-14.5-210.4-25.4 3.8 41.3 8.8 75.5 12.9 100.7 59.1 23.3 82.3 41.4 81.9 63.7-0.2 15-10.9 26.2-31.6 33.2-10.8 3.7-21.3 8.2-31.5 13.4q0.1 0.5 0.2 1c21.5 9.5 35.1 19.8 34.7 35.6-0.1 3.3-0.9 8-4 12.6 45.1 6.3 112.6 27.6 207.4 85.1 7.3 4.4 10.9 13 8.8 21.3z"/></g><path class="a" d="m1192.4 1000.6c-2.1 8.3-9.3 14.2-17.8 14.6-7.2 0.4-166.5 8.7-231.5 11.1-25.2 62.4-105.1 209.4-108.7 216-3.5 6.4-10 10.2-17.1 10.2q-1.4 0-2.8-0.2c-8.1-1.2-14.5-7.3-16.2-15.3-22.9-110.3-12.1-186.5 0.6-230.4-22.7 3.1-44.6 4.4-62.4 4.9-5.4 8.7-9.6 18-12.6 27.9-6.4 21.1-19.6 24.3-26.9 24.3-17.4 0-30.3-15.5-47.6-58.2-133.5-20.2-242.1-74.4-322.9-161.1-54.4-58.3-82.3-117-95.2-151.1-72.6 20.4-200.8 50.8-206.7 52.2-6.6 1.6-13.6-0.4-18.4-5.4-4.7-4.9-6.6-11.9-4.8-18.5 15.9-58.6 85.4-132.7 169.1-180.4 12.1-6.8 23.3-12.5 33.4-16.9 1.1-87.8 22.4-183.2 60.4-269.4 70.2-159.2 179.2-254.2 291.8-254.2 92 0 180.7 62.1 250.3 175.2 40.5 9.8 95.7 24.6 142.7 41.8 68.6 25.2 100.8 48.2 104.3 74.8 1.7 12.5-2.2 30.6-30.4 46.1-46.7 25.6-88.4 54.4-124.2 85.8 2 11.6 3.7 23.2 5 34.6 14.1 3 30.5 8.3 49.6 16.2 88.2 36.3 165.9 100.2 189.8 155.9 1.5 2.7 2.3 5.8 2.3 9 0 10.7-8.7 19.4-19.4 19.4-0.7 0.1-1.4 0-2.1-0.1-6.2-0.6-135.7-14.5-210.4-25.4 3.8 41.3 8.8 75.5 12.9 100.7 59.1 23.3 82.3 41.4 81.9 63.7-0.2 15-10.9 26.2-31.6 33.2-10.8 3.7-21.3 8.2-31.5 13.4q0.1 0.5 0.2 1c21.5 9.5 35.1 19.8 34.7 35.6-0.1 3.3-0.9 8-4 12.6 45.1 6.3 112.6 27.6 207.4 85.1 7.3 4.4 10.9 13 8.8 21.3z"/><path class="m" d="m952.1 888.2c-16.7 5.7-29.7 14.2-40 23.2-5.8-20.8-11.2-41.7-15.6-62.7 38.4 12.2 83.6 30 55.6 39.5z"/><path class="m" d="m656.6 969.6c24.9 4.5 49.7 10.1 74.5 16.1-10.3 12.4-19.7 28.2-25.8 48-10.1 33.4-32.9-19.1-48.7-64.1z"/><path class="m" d="m970.6 813.2c-35 11.9-62.8 29.8-84.4 48.8-12.1-44-23.7-88-33-132.4 81.3 25.8 176.5 63.5 117.4 83.6z"/><path class="m" d="m1173.6 995.9c0 0-190.7 9.9-244.1 11.4-16.9 50.7-112.2 225.8-112.2 225.8-36.1-174 15.1-259 15.1-259l69.8-54.2c0 0 70-46.1 271.4 76z"/><path class="m" d="m273.3 658.5c-4.4 9.2-253.2 68.2-253.2 68.2 13.4-49.3 75.4-120.4 160-168.6 84.7-48.3 87.4-14.6 87.4-14.6 0 0 10.2 105.9 5.8 115z"/><path class="m" d="m857.6 489.8c0 0-1.6-33.8 88.5 3.3 90.1 37.2 160.5 99.9 179.9 147 0 0-254.1-27-259.7-35.6-5.6-8.5-8.7-114.7-8.7-114.7z"/><path class="m" d="m745.1 181.8c0 0 380.8 78.3 268.5 139.8-135.6 74.3-190 154.1-190 154.1z"/><path class="n" d="m917.1 932.3c-35.9 67.4-216 59.8-216 59.8-388.6-32.9-460.3-332-460.3-332l0.1-0.2c-11.4-38.5-17.6-81.5-17.6-128.7 0-88.9 21.7-184.3 58.8-268.5 60-136.2 160.3-242.6 274-242.6 183.7 0 332.7 278.4 332.7 511.1 0 2-0.1 4-0.1 6 0 0.4 0.1 0.7 0.1 1.1 5.8 243.1 64.1 326.7 28.3 394z"/><path class="o" d="m897.3 929.7c31.3 53.8-191.2 78.4-267.8 50-182.8-67.8-309.3-222.2-330.4-408.9-10.1-89.5-2.3-201.7 37.9-283.4 51.6-104.9 179.5-118.1 283.8-96.5 210.6 43.9 220 476.7 220 478.1 0 0.3 25.5 207.4 56.5 260.7z"/><path class="p" d="m789.7 445v-19.5c34.7-28.4 51.1-80 51.1-80-0.9 56.3-51.1 99.5-51.1 99.5z"/><path class="p" d="m792.8 486.2v-19.4c34.8-28.4 51.2-80 51.2-80-1 56.3-51.2 99.4-51.2 99.4z"/><path class="p" d="m796.7 525.5v-19.5c34.8-28.4 51.1-80 51.1-80-0.9 56.3-51.1 99.5-51.1 99.5z"/><path class="p" d="m272.1 345.5c0 0 16.3 51.6 51.1 80v19.5c0 0-50.1-43.2-51.1-99.5z"/><path class="p" d="m268.9 386.8c0 0 16.4 51.6 51.1 80v19.4c0 0-50.1-43.1-51.1-99.4z"/><path class="p" d="m265 426c0 0 16.4 51.6 51.2 80v19.5c0 0-50.2-43.2-51.2-99.5z"/><path class="q" d="m382.8 234.8c0 15.9-12.9 28.7-28.8 28.7-15.8 0-28.7-12.8-28.7-28.7 0-15.9 12.9-28.8 28.7-28.8 15.9 0 28.8 12.9 28.8 28.8z"/><path class="a" d="m352 225.9c0 4.8-4 8.9-8.9 8.9-5 0-9-4.1-9-8.9 0-5 4-9.1 9-9.1 4.9 0 8.9 4.1 8.9 9.1z"/><path class="a" d="m341.9 244.7c0 2.1-1.8 3.9-3.9 3.9-2.2 0-3.9-1.8-3.9-3.9 0-2.2 1.7-4 3.9-4 2.1 0 3.9 1.8 3.9 4z"/><path class="r" d="m338 253c-4.6 0-8.3-3.7-8.3-8.3 0-4.6 3.7-8.4 8.3-8.4 4.6 0 8.3 3.8 8.3 8.4 0 4.6-3.7 8.3-8.3 8.3z"/><path class="q" d="m765.9 234.8c0 15.9-12.8 28.7-28.7 28.7-15.9 0-28.8-12.8-28.8-28.7 0-15.9 12.9-28.8 28.8-28.8 15.9 0 28.7 12.9 28.7 28.8z"/><path class="a" d="m735.2 225.9c0 4.8-4 8.9-9 8.9-4.9 0-9-4.1-9-8.9 0-5 4.1-9.1 9-9.1 5 0 9 4.1 9 9.1z"/><path class="a" d="m725.1 244.7c0 2.1-1.8 3.9-3.9 3.9-2.2 0-4-1.8-4-3.9 0-2.2 1.8-4 4-4 2.1 0 3.9 1.8 3.9 4z"/><path class="a" d="m540.7 357.3l15.8 29.2c-3.6 0.1-7.2 0.3-10.9 0.3-7 0-14-0.4-20.9-0.9z"/><path class="a" d="m496.5 353.4l14.5 31.3c-10.2-1.3-20.1-2.9-29.6-5.1z"/><path class="a" d="m517.6 357.3l-8.7-11.6c6.7 0.3 13.4 0.6 20.2 0.8z"/><path class="a" d="m628.5 353.4l11 17.5c-6.6 2.3-13.4 4.5-20.4 6.3 4.7-11.6 9.4-23.8 9.4-23.8z"/><path class="a" d="m457.9 349l11 27.4c-8.1-2.2-15.9-4.9-23.4-7.9z"/><path class="s" d="m674.3 354.6c-3.9-4.9-7.2-9.1-7.2-9.1l-7.2 16.8c-6.5 3.1-13.3 6-20.4 8.6l-11-17.5c0 0-4.7 12.2-9.4 23.8-6.3 1.8-12.8 3.3-19.5 4.6-7-11.5-14.7-24.5-14.7-24.5l-14.9 28.4c-4.4 0.4-8.9 0.6-13.5 0.8l-15.8-29.2-16 28.6c-4.6-0.3-9.2-0.7-13.7-1.2l-14.5-31.3-15.1 26.2c-4.3-1-8.4-2-12.5-3.2l-11-27.4-12.4 19.5c-6.3-2.5-12.4-5.3-18.3-8.3l-8.6-17.6c0 0-2.9 4.5-6 9.4-14.8-9.2-27.3-20-36.7-31.8 5.9 2.2 12.3 4.4 18.9 6.4l7.6 13.9 8.9-9.2q9 2.3 18.5 4.2l4.9 10 9.8-7.1q12.2 2.1 25.1 3.7l4.4 11.3 12.5-9.4c7.3 0.7 14.8 1.3 22.4 1.7l8.7 11.6 11.5-10.8q8.2 0.2 16.5 0.2c2 0 3.9 0 5.8 0l10.4 10.6 13.1-11.3c8.4-0.3 16.7-0.9 24.8-1.6l11.2 9 7.7-10.9c7.1-0.9 14.1-1.8 20.9-2.9l12.1 10.7 10.2-14.8c5.6-1.2 11.1-2.5 16.4-3.8l9.3 8.8c0 0 5.4-7.2 10.8-14.4q9-2.8 17.1-5.9c-10.4 13-24.4 24.6-41.1 34.4z"/><path class="a" d="m667.1 345.5c0 0 3.3 4.2 7.2 9.1q-6.9 4.1-14.4 7.7z"/><path class="a" d="m584.9 357.3c0 0 7.7 13 14.7 24.5-9.6 1.8-19.5 3-29.6 3.9z"/><path class="a" d="m687.5 340.5l-9.3-8.8c7-1.7 13.7-3.6 20.1-5.6-5.4 7.2-10.8 14.4-10.8 14.4z"/><path class="a" d="m418.6 342.6l8.6 17.6c-5.1-2.5-10-5.3-14.6-8.2 3.1-4.9 6-9.4 6-9.4z"/><path class="a" d="m610.9 353.4l-11.2-9c6.4-0.6 12.7-1.1 18.9-1.9z"/><path class="a" d="m561.8 357.3l-10.4-10.6q11.9-0.1 23.5-0.7z"/><path class="a" d="m651.6 350.3l-12.1-10.7q11.5-1.9 22.3-4.1z"/><path class="a" d="m474 353.4l-4.4-11.3q8.3 1.1 16.9 1.9z"/><path class="a" d="m402.4 340.5l-7.6-13.9c5.3 1.7 10.8 3.2 16.5 4.7z"/><path class="a" d="m434.7 345.5l-4.9-10c4.8 1 9.7 2 14.7 2.9z"/><path class="p" d="m490.8 216.8c0 7.1-2 12.9-4.3 12.9-2.4 0-4.4-5.8-4.4-12.9 0-7 2-12.8 4.4-12.8 2.3 0 4.3 5.8 4.3 12.8z"/><path class="p" d="m580.3 216.8c0 7.1-2 12.9-4.4 12.9-2.3 0-4.3-5.8-4.3-12.9 0-7 2-12.8 4.3-12.8 2.4 0 4.4 5.8 4.4 12.8z"/></svg>