<svg version="1.2" xmlns="http://www.w3.org/2000/svg" viewBox="0 0 1100 1700" width="1000" height="180"><style>.a{fill:#fff}.b{fill:#f1f1f1}.c{fill:#e2e2e2}.d{fill:#d4d4d4}.e{fill:#c5c5c5}.f{fill:#b7b7b7}.g{fill:#a8a8a8}.h{fill:#9a9a9a}.i{fill:#8b8b8b}.j{fill:#7d7d7d}.k{fill:#6e6e6e}.l{fill:#606060}.m{fill:#5c2f10}.n{fill:#f17995}.o{mix-blend-mode:screen;fill:#f17995}.p{mix-blend-mode:multiply;fill:#f17995}.q{fill:#f6f192}</style><g style="mix-blend-mode:multiply"><path class="a" d="m48 756.6c-16-31.2 6.3-66.4 15.8-81.5 29.4-46.4 66.3-86.5 116.1-126.1q5.2-4.1 10.6-8.4c22.9-18 46.6-36.6 60.7-56.9 2.7-3.8 4.8-7.5 6.3-11.1-3.8-12.6-11.7-25.7-19.2-37-14.5-21.9-29.5-42.6-45.3-64.5-7.4-10.2-14.8-20.4-22.1-30.8-2.5-3.5-5.1-7.2-7.6-10.9-37.2-48-60-95.3-67.8-140.5l-0.2-1c-3.9-22.6-11.3-64.8 17.2-92.7 21.9-21.5 58.6-31.4 96 5.4 47.5 46.9 104.7 87 154.3 120.1l3.6 2.4c26.7 17.8 57 38 85.4 46.2 3.7 1.1 7 1.5 10.2 1.2q1.3-1.1 2.6-2.2c9.1-7.5 17.7-14.7 25.1-22.2 4.4-4.4 8.9-9 13.4-13.8q1.8-2.3 3.7-4.4c10.8-12.6 21.7-24.3 33.3-35.6q1.6-1.6 3.3-3.1 0.6-0.5 1.2-1.1c16.1-16.8 29.1-29.3 42.1-40.4 9.2-7.8 16.8-14.2 23.8-19.9q1.3-1.1 2.5-2.2 2.1-1.9 4.1-3.7c26.5-22.8 48.7-39.3 69.9-51.8q2-1.2 4.4-2.7c20.8-12.7 63.9-39.2 98.6-14 16.5 11.9 39.5 40.3 7.1 95.3-6.2 10.6-12.7 21-18.9 31-10 16.1-19.4 31.3-28 47.2l-5.5 9.9c-15.4 28.1-29.9 54.6-38.6 82.8-1.1 3.6-2.5 7.2-3.7 10.7q-0.5 1.3-1 2.8c4.8-0.8 10.1-2 15.9-3.4l5.6-1.3c63.9-14.8 124.8-21.7 181-20.3 40.6 0.9 74.2 4.4 102.7 10.6 20.1 4.4 57.5 12.5 79.1 38.9 21.5 26.1 17.8 50 13.7 61.9-13.4 38.6-61.8 53.3-82 57.8-60.7 13.5-117.5 31.3-173.8 54.2-6.3 2.6-12.7 5.1-19.1 7.7-22 8.7-42.7 16.9-62 27.4l-4.3 2.3c-8.9 4.8-20 10.8-24.8 16.4q-0.1 0.1-0.2 0.2c-0.4 0.5-0.5 0.7-0.6 0.8q-0.1 0.2-0.2 0.4h-0.1q-0.2 0.5-0.4 0.9c-1.3 2.8-2.8 8.3-2.6 18.8 0.5 23.8 6.8 48.5 13.5 74.6 1.7 6.8 3.5 13.5 5.1 20.3q0.7 1.7 1.2 3.6c4.6 17.2 10.2 36.2 17.6 59.5 5 15.9 9.3 31.9 13.4 47.3 5.2 19.3 10 37.5 16.2 55.3 13.4 38 10.6 69.6-8.2 93.8-11.3 14.5-26.8 22.3-43.8 22.3q-0.8 0-1.5 0c-38.1-1-68.1-39.6-95.6-79.1-2.2-3.3-4.6-6.7-5.7-8.1-39.5-51.1-69.2-94.6-93.7-136.8-4.5-7.7-8.8-15.8-13.4-24.3-20.4-38-43.6-81.1-76.5-85.8-22.8-3.3-49.8 0-77.9 9.3-36.2 12.1-63.7 22.9-86.6 34.2-23.1 11.3-46.5 23.3-69.1 34.9-27.5 14.1-55.9 28.7-84.3 42.3q0 0 0 0l-1.2 0.6c-7.2 3.5-19.3 9.3-32.4 11.9-38.2 7.5-54.4-17.7-58.4-25.6z"/><path class="b" d="m44.1 752.8c-16-31.2 6.3-66.5 15.9-81.6 29.3-46.4 66.2-86.4 116-126q5.2-4.2 10.7-8.4c22.9-18 46.6-36.6 60.7-56.9 2.7-3.9 4.8-7.6 6.3-11.1-3.8-12.7-11.7-25.7-19.3-37.1-14.5-21.8-29.4-42.5-45.3-64.5-7.4-10.2-14.8-20.4-22.1-30.7-2.5-3.5-5-7.2-7.6-11-37.1-48-59.9-95.2-67.8-140.4l-0.2-1.1c-3.9-22.6-11.2-64.7 17.3-92.7 21.9-21.5 58.6-31.3 95.9 5.5 47.5 46.8 104.7 87 154.4 120.1l3.5 2.3c26.8 17.9 57.1 38.1 85.5 46.3 3.6 1 7 1.4 10.2 1.1q1.3-1 2.6-2.1c9-7.6 17.6-14.7 25.1-22.2 4.4-4.5 8.8-9.1 13.3-13.8q1.9-2.4 3.7-4.5c10.8-12.6 21.7-24.2 33.4-35.6q1.6-1.5 3.2-3 0.6-0.6 1.2-1.1c16.1-16.9 29.2-29.4 42.2-40.5 9.2-7.8 16.7-14.1 23.8-19.9q1.2-1.1 2.5-2.2 2-1.8 4.1-3.6c26.5-22.9 48.7-39.3 69.8-51.9q2-1.2 4.5-2.7c20.7-12.7 63.9-39.1 98.6-14 16.5 12 39.5 40.3 7.1 95.3-6.3 10.6-12.7 21-18.9 31.1-10 16.1-19.5 31.3-28.1 47.1l-5.4 10c-15.4 28.1-30 54.6-38.7 82.7-1.1 3.6-2.4 7.3-3.7 10.8q-0.4 1.2-1 2.8c4.9-0.8 10.1-2.1 16-3.5l5.6-1.3c63.9-14.8 124.8-21.6 180.9-20.3 40.7 1 74.3 4.5 102.8 10.7 20.1 4.3 57.5 12.5 79.1 38.8 21.4 26.2 17.7 50.1 13.6 62-13.3 38.6-61.8 53.3-82 57.8-60.7 13.5-117.5 31.2-173.7 54.2-6.4 2.6-12.8 5.1-19.1 7.6-22 8.8-42.7 17-62.1 27.5l-4.3 2.3c-8.9 4.8-20 10.7-24.8 16.3q-0.1 0.1-0.1 0.2c-0.4 0.5-0.6 0.8-0.6 0.8q-0.2 0.2-0.3 0.5v-0.1q-0.2 0.5-0.4 1c-1.3 2.8-2.8 8.3-2.6 18.8 0.5 23.8 6.8 48.4 13.5 74.5 1.7 6.8 3.4 13.6 5.1 20.3q0.6 1.8 1.1 3.6c4.7 17.3 10.2 36.2 17.6 59.6 5.1 15.9 9.4 31.8 13.5 47.3 5.1 19.3 10 37.5 16.2 55.3 13.4 37.9 10.6 69.5-8.3 93.8-11.2 14.4-26.7 22.3-43.8 22.3q-0.7 0-1.5 0c-38.1-1.1-68.1-39.7-95.5-79.1-2.3-3.3-4.7-6.7-5.8-8.1-39.4-51.1-69.2-94.6-93.6-136.8-4.5-7.8-8.9-15.9-13.5-24.4-20.4-38-43.5-81-76.5-85.7-22.8-3.3-49.7-0.1-77.9 9.3-36.1 12-63.7 22.9-86.6 34.1-23 11.3-46.4 23.3-69.1 35-27.4 14.1-55.8 28.6-84.2 42.3q0 0-0.1 0l-1.1 0.6c-7.3 3.4-19.4 9.3-32.4 11.8-38.3 7.5-54.4-17.6-58.5-25.5z"/><path class="c" d="m40.3 748.9c-16-31.1 6.3-66.4 15.8-81.5 29.4-46.4 66.3-86.5 116.1-126.1q5.2-4.1 10.6-8.4c22.9-18 46.6-36.6 60.8-56.9 2.6-3.8 4.7-7.5 6.2-11.1-3.8-12.6-11.7-25.7-19.2-37-14.5-21.9-29.5-42.6-45.3-64.5-7.4-10.2-14.8-20.4-22.1-30.8-2.5-3.5-5.1-7.2-7.6-10.9-37.2-48-60-95.3-67.8-140.5l-0.2-1c-3.9-22.6-11.3-64.7 17.2-92.7 21.9-21.5 58.7-31.4 96 5.4 47.5 46.9 104.7 87 154.4 120.1l3.5 2.4c26.7 17.8 57 38 85.4 46.2 3.7 1.1 7 1.5 10.2 1.2q1.3-1.1 2.6-2.2c9.1-7.5 17.7-14.7 25.1-22.2 4.4-4.4 8.9-9 13.4-13.8q1.8-2.3 3.7-4.4c10.8-12.6 21.7-24.3 33.3-35.6q1.6-1.6 3.3-3.1 0.6-0.5 1.2-1.1c16.1-16.8 29.1-29.3 42.1-40.4 9.2-7.8 16.8-14.2 23.8-19.9q1.3-1.1 2.5-2.2 2.1-1.9 4.1-3.7c26.5-22.8 48.7-39.3 69.9-51.8q2-1.2 4.4-2.7c20.8-12.7 63.9-39.2 98.6-14 16.6 11.9 39.5 40.3 7.1 95.3-6.2 10.6-12.7 21-18.9 31-10 16.1-19.4 31.3-28 47.2l-5.5 9.9c-15.4 28.1-29.9 54.6-38.6 82.8-1.1 3.6-2.5 7.2-3.7 10.7q-0.5 1.3-1 2.8c4.8-0.8 10.1-2 15.9-3.4l5.6-1.3c63.9-14.8 124.8-21.7 181-20.3 40.6 0.9 74.2 4.4 102.7 10.6 20.1 4.4 57.5 12.5 79.1 38.9 21.5 26.1 17.8 50 13.7 61.9-13.4 38.6-61.8 53.3-82 57.8-60.7 13.5-117.5 31.3-173.8 54.2-6.3 2.6-12.7 5.2-19.1 7.7-21.9 8.7-42.7 16.9-62 27.4l-4.3 2.3c-8.9 4.8-20 10.8-24.8 16.4q-0.1 0.1-0.2 0.2c-0.4 0.5-0.5 0.7-0.6 0.8q-0.1 0.2-0.2 0.4h-0.1q-0.2 0.5-0.4 0.9c-1.3 2.8-2.8 8.3-2.6 18.8 0.5 23.8 6.8 48.5 13.5 74.6 1.8 6.8 3.5 13.5 5.1 20.3q0.7 1.8 1.2 3.6c4.6 17.2 10.2 36.2 17.6 59.5 5.1 15.9 9.3 31.9 13.4 47.3 5.2 19.3 10 37.5 16.2 55.3 13.4 38 10.6 69.6-8.2 93.8-11.3 14.5-26.8 22.3-43.8 22.3q-0.8 0-1.5 0c-38.1-1-68.1-39.6-95.6-79.1-2.2-3.3-4.6-6.7-5.7-8.1-39.5-51.1-69.2-94.6-93.7-136.8-4.5-7.7-8.8-15.8-13.4-24.3-20.4-38-43.6-81.1-76.5-85.8-22.8-3.3-49.8 0-77.9 9.3-36.2 12.1-63.7 22.9-86.6 34.2-23.1 11.3-46.5 23.3-69.1 34.9-27.5 14.1-55.9 28.7-84.3 42.3q0 0 0 0l-1.2 0.6c-7.2 3.5-19.3 9.3-32.3 11.9-38.3 7.5-54.5-17.7-58.5-25.6z"/><path class="d" d="m36.4 745.1c-16-31.2 6.3-66.5 15.9-81.6 29.4-46.4 66.2-86.4 116-126q5.2-4.2 10.7-8.4c22.9-18 46.6-36.6 60.7-56.9 2.7-3.9 4.8-7.5 6.3-11.1-3.8-12.7-11.7-25.7-19.3-37.1-14.4-21.8-29.4-42.5-45.3-64.5-7.4-10.2-14.7-20.4-22.1-30.7-2.5-3.5-5-7.2-7.6-11-37.1-48-59.9-95.2-67.8-140.4l-0.2-1.1c-3.9-22.6-11.2-64.7 17.3-92.7 21.9-21.5 58.6-31.3 95.9 5.5 47.5 46.8 104.7 87 154.4 120.1l3.5 2.3c26.8 17.9 57.1 38.1 85.5 46.3 3.7 1 7 1.4 10.2 1.1q1.3-1 2.6-2.1c9-7.6 17.6-14.7 25.1-22.2 4.4-4.4 8.8-9.1 13.3-13.8q1.9-2.4 3.7-4.5c10.8-12.6 21.7-24.2 33.4-35.6q1.6-1.5 3.2-3 0.6-0.6 1.2-1.1c16.1-16.9 29.2-29.4 42.2-40.5 9.2-7.8 16.7-14.1 23.8-19.9q1.3-1.1 2.5-2.2 2-1.8 4.1-3.6c26.5-22.9 48.7-39.3 69.8-51.9q2-1.2 4.5-2.7c20.7-12.7 63.9-39.1 98.6-14 16.5 12 39.5 40.3 7.1 95.3-6.3 10.6-12.7 21-18.9 31.1-10 16.1-19.4 31.3-28.1 47.1l-5.4 10c-15.4 28.1-30 54.6-38.7 82.7-1.1 3.6-2.4 7.3-3.7 10.8q-0.4 1.2-1 2.8c4.9-0.8 10.1-2.1 16-3.5l5.6-1.3c63.9-14.8 124.8-21.6 181-20.3 40.6 1 74.2 4.5 102.7 10.7 20.1 4.3 57.5 12.5 79.1 38.8 21.4 26.2 17.7 50.1 13.6 62-13.3 38.6-61.8 53.3-82 57.8-60.6 13.5-117.5 31.2-173.7 54.2-6.4 2.6-12.7 5.1-19.1 7.6-22 8.8-42.7 17-62.1 27.5l-4.2 2.3c-9 4.8-20.1 10.7-24.9 16.3q-0.1 0.1-0.1 0.2c-0.4 0.5-0.6 0.8-0.6 0.8q-0.2 0.3-0.3 0.5-0.2 0.4-0.4 0.9c-1.3 2.8-2.8 8.3-2.6 18.8 0.5 23.8 6.8 48.4 13.5 74.5 1.7 6.8 3.4 13.6 5.1 20.3q0.7 1.8 1.1 3.7c4.7 17.2 10.3 36.1 17.6 59.5 5.1 15.9 9.4 31.8 13.5 47.3 5.1 19.3 10 37.5 16.2 55.3 13.4 37.9 10.6 69.5-8.3 93.8-11.2 14.4-26.7 22.3-43.8 22.3q-0.7 0-1.5 0c-38.1-1-68.1-39.7-95.5-79.1-2.3-3.3-4.7-6.7-5.8-8.1-39.4-51.1-69.2-94.6-93.6-136.8-4.5-7.8-8.9-15.8-13.5-24.4-20.4-38-43.5-81-76.5-85.7-22.8-3.3-49.7-0.1-77.9 9.3-36.1 12-63.7 22.9-86.6 34.1-23 11.3-46.4 23.3-69.1 35-27.4 14.1-55.8 28.6-84.2 42.3q0 0 0 0l-1.2 0.6c-7.3 3.4-19.4 9.3-32.4 11.8-38.3 7.5-54.4-17.6-58.5-25.5z"/><path class="e" d="m32.6 741.2c-16-31.1 6.3-66.4 15.8-81.5 29.4-46.4 66.3-86.5 116.1-126.1q5.2-4.1 10.6-8.4c22.9-18 46.6-36.6 60.8-56.9 2.6-3.8 4.7-7.5 6.2-11.1-3.8-12.6-11.7-25.7-19.2-37-14.5-21.9-29.5-42.6-45.3-64.5-7.4-10.2-14.8-20.4-22.1-30.8-2.5-3.5-5.1-7.2-7.6-10.9-37.2-48-60-95.3-67.8-140.5l-0.2-1c-3.9-22.6-11.3-64.7 17.2-92.7 21.9-21.5 58.7-31.4 96 5.4 47.5 46.9 104.7 87 154.4 120.2l3.5 2.3c26.7 17.8 57 38.1 85.4 46.2 3.7 1.1 7 1.5 10.2 1.2q1.3-1.1 2.6-2.2c9.1-7.5 17.7-14.7 25.1-22.2 4.4-4.4 8.9-9 13.4-13.8q1.8-2.3 3.7-4.4c10.8-12.6 21.7-24.3 33.3-35.6q1.7-1.6 3.3-3.1 0.6-0.5 1.2-1.1c16.1-16.8 29.1-29.3 42.1-40.4 9.2-7.8 16.8-14.2 23.9-19.9q1.2-1.1 2.4-2.2 2.1-1.9 4.1-3.7c26.5-22.8 48.7-39.3 69.9-51.8q2-1.2 4.4-2.7c20.8-12.7 64-39.2 98.6-14 16.6 12 39.5 40.3 7.1 95.3-6.2 10.6-12.7 21-18.9 31-10 16.1-19.4 31.3-28 47.2l-5.5 9.9c-15.4 28.1-29.9 54.6-38.6 82.8-1.1 3.6-2.5 7.2-3.7 10.7q-0.5 1.3-1 2.8c4.8-0.8 10.1-2 15.9-3.4l5.7-1.3c63.8-14.8 124.7-21.7 180.9-20.3 40.6 0.9 74.2 4.4 102.7 10.6 20.1 4.4 57.5 12.5 79.2 38.9 21.4 26.1 17.7 50 13.6 61.9-13.4 38.6-61.8 53.3-82 57.8-60.7 13.5-117.5 31.3-173.8 54.2q-9.5 3.9-19.1 7.7c-21.9 8.7-42.7 17-62 27.4l-4.3 2.4c-8.9 4.7-20 10.7-24.8 16.3q-0.1 0.1-0.2 0.2c-0.4 0.5-0.5 0.7-0.6 0.8q-0.1 0.2-0.2 0.4h-0.1q-0.2 0.5-0.4 0.9c-1.3 2.8-2.8 8.3-2.6 18.8 0.5 23.8 6.8 48.5 13.5 74.6 1.8 6.8 3.5 13.5 5.1 20.3q0.7 1.8 1.2 3.6c4.6 17.3 10.2 36.2 17.6 59.5 5.1 15.9 9.3 31.9 13.4 47.3 5.2 19.3 10 37.5 16.3 55.3 13.3 38 10.6 69.6-8.3 93.8-11.3 14.5-26.8 22.4-43.8 22.4q-0.8 0-1.5-0.1c-38.1-1-68.1-39.6-95.6-79.1-2.2-3.3-4.6-6.7-5.7-8.1-39.5-51.1-69.2-94.6-93.7-136.8-4.5-7.7-8.8-15.8-13.4-24.3-20.4-38-43.6-81.1-76.5-85.8-22.8-3.2-49.8 0-77.9 9.3-36.2 12.1-63.7 22.9-86.6 34.2-23.1 11.3-46.5 23.3-69.1 34.9-27.5 14.1-55.9 28.7-84.3 42.3q0 0 0 0l-1.2 0.6c-7.2 3.5-19.3 9.3-32.3 11.9-38.3 7.5-54.5-17.7-58.5-25.6z"/><path class="f" d="m28.7 737.4c-16-31.2 6.3-66.5 15.9-81.6 29.4-46.4 66.2-86.4 116-126q5.2-4.2 10.7-8.4c22.9-18 46.6-36.6 60.7-56.9 2.7-3.9 4.8-7.5 6.3-11.1-3.8-12.7-11.7-25.7-19.3-37.1-14.4-21.8-29.4-42.5-45.3-64.4-7.4-10.3-14.7-20.5-22.1-30.8-2.5-3.5-5-7.2-7.6-11-37.1-48-59.9-95.2-67.8-140.4l-0.2-1.1c-3.9-22.6-11.2-64.7 17.3-92.6 21.9-21.5 58.6-31.4 95.9 5.4 47.5 46.8 104.7 87 154.4 120.1l3.5 2.3c26.8 17.9 57.1 38.1 85.5 46.3 3.7 1 7 1.4 10.2 1.1q1.3-1 2.6-2.1c9-7.6 17.6-14.7 25.1-22.2 4.4-4.4 8.8-9.1 13.3-13.8q1.9-2.4 3.7-4.5c10.8-12.6 21.7-24.2 33.4-35.6q1.6-1.5 3.2-3 0.6-0.6 1.2-1.1c16.2-16.9 29.2-29.4 42.2-40.5 9.2-7.8 16.7-14.1 23.8-19.9q1.3-1.1 2.5-2.2 2-1.8 4.1-3.6c26.5-22.9 48.7-39.3 69.8-51.9q2-1.2 4.5-2.7c20.7-12.7 63.9-39.1 98.6-14 16.5 12 39.5 40.3 7.1 95.3-6.3 10.6-12.7 21-18.9 31.1-10 16.1-19.4 31.3-28.1 47.1l-5.4 10c-15.4 28.1-30 54.6-38.7 82.7-1.1 3.6-2.4 7.3-3.7 10.8q-0.4 1.2-1 2.8c4.9-0.8 10.1-2.1 16-3.5l5.6-1.3c63.9-14.8 124.8-21.6 181-20.3 40.6 1 74.2 4.5 102.7 10.7 20.1 4.3 57.5 12.5 79.1 38.8 21.4 26.2 17.7 50.1 13.6 62-13.3 38.6-61.8 53.3-82 57.8-60.6 13.5-117.5 31.2-173.7 54.2q-9.5 3.9-19.1 7.6c-22 8.8-42.7 17-62 27.5l-4.3 2.3c-9 4.8-20 10.7-24.9 16.3q0 0.1-0.1 0.2c-0.4 0.5-0.6 0.8-0.6 0.8q-0.2 0.3-0.3 0.5-0.2 0.4-0.4 0.9c-1.3 2.8-2.8 8.3-2.6 18.8 0.5 23.8 6.8 48.4 13.5 74.5 1.7 6.8 3.4 13.6 5.1 20.3q0.7 1.8 1.1 3.7c4.7 17.2 10.3 36.1 17.7 59.5 5 15.9 9.3 31.8 13.4 47.3 5.1 19.3 10 37.5 16.2 55.3 13.4 38 10.6 69.5-8.3 93.8-11.2 14.4-26.7 22.3-43.8 22.3q-0.7 0-1.5 0c-38.1-1-68.1-39.7-95.5-79.1-2.3-3.3-4.7-6.7-5.7-8.1-39.5-51.1-69.3-94.6-93.7-136.8-4.5-7.8-8.9-15.8-13.5-24.4-20.4-38-43.5-81-76.5-85.7-22.8-3.3-49.7-0.1-77.9 9.3-36.1 12-63.6 22.9-86.6 34.1-23 11.3-46.4 23.3-69.1 35-27.4 14.1-55.8 28.6-84.2 42.3q0 0 0 0l-1.2 0.6c-7.3 3.4-19.4 9.3-32.4 11.8-38.3 7.5-54.4-17.6-58.5-25.5z"/><path class="g" d="m24.9 733.5c-16-31.1 6.3-66.4 15.8-81.5 29.4-46.4 66.3-86.5 116.1-126.1q5.2-4.1 10.6-8.4c22.9-18 46.6-36.6 60.8-56.9 2.6-3.8 4.7-7.5 6.2-11.1-3.8-12.6-11.7-25.7-19.2-37-14.5-21.9-29.5-42.6-45.3-64.5-7.4-10.2-14.8-20.4-22.1-30.8-2.5-3.5-5.1-7.2-7.6-10.9-37.2-48-60-95.3-67.8-140.5l-0.2-1c-3.9-22.6-11.3-64.7 17.2-92.7 22-21.5 58.7-31.4 96 5.5 47.5 46.8 104.7 87 154.4 120.1l3.5 2.3c26.7 17.8 57 38.1 85.4 46.2 3.7 1.1 7 1.5 10.2 1.2q1.3-1.1 2.6-2.2c9.1-7.5 17.7-14.7 25.1-22.2 4.4-4.4 8.9-9 13.4-13.8q1.9-2.3 3.7-4.4c10.8-12.6 21.7-24.2 33.3-35.6q1.7-1.6 3.3-3.1 0.6-0.5 1.2-1.1c16.1-16.8 29.1-29.3 42.1-40.4 9.2-7.8 16.8-14.2 23.9-19.9q1.2-1.1 2.4-2.2 2.1-1.9 4.2-3.7c26.4-22.8 48.6-39.3 69.8-51.8q2-1.2 4.4-2.7c20.8-12.7 64-39.2 98.6-14 16.6 12 39.5 40.3 7.1 95.3-6.2 10.6-12.7 21-18.9 31-10 16.1-19.4 31.3-28 47.2l-5.5 10c-15.4 28-29.9 54.5-38.6 82.7-1.1 3.6-2.4 7.2-3.7 10.7q-0.5 1.3-1 2.8c4.8-0.8 10.1-2 15.9-3.4l5.7-1.3c63.8-14.8 124.7-21.7 180.9-20.3 40.6 0.9 74.2 4.4 102.7 10.6 20.1 4.4 57.5 12.5 79.2 38.9 21.4 26.1 17.7 50 13.6 61.9-13.4 38.7-61.8 53.3-82 57.8-60.7 13.5-117.5 31.3-173.7 54.2q-9.6 3.9-19.2 7.7c-21.9 8.7-42.7 17-62 27.4l-4.3 2.4c-8.9 4.7-20 10.7-24.8 16.3q-0.1 0.1-0.2 0.2c-0.4 0.5-0.5 0.7-0.6 0.8q-0.1 0.2-0.2 0.4h-0.1q-0.2 0.5-0.4 0.9c-1.3 2.8-2.8 8.4-2.6 18.8 0.5 23.8 6.8 48.5 13.5 74.6 1.8 6.8 3.5 13.5 5.1 20.3q0.7 1.8 1.2 3.6c4.6 17.3 10.2 36.2 17.6 59.5 5.1 15.9 9.3 31.9 13.4 47.3 5.2 19.3 10 37.5 16.3 55.3 13.3 38 10.6 69.6-8.3 93.8-11.3 14.5-26.8 22.4-43.8 22.4q-0.8 0-1.5-0.1c-38.1-1-68.1-39.6-95.5-79.1-2.3-3.2-4.7-6.7-5.8-8.1-39.5-51.1-69.2-94.6-93.7-136.8-4.5-7.7-8.8-15.8-13.4-24.3-20.4-38-43.6-81.1-76.5-85.8-22.8-3.2-49.8 0-77.9 9.3-36.2 12.1-63.7 22.9-86.6 34.2-23.1 11.3-46.5 23.3-69.1 34.9-27.5 14.1-55.8 28.7-84.3 42.3q0 0 0 0l-1.2 0.6c-7.2 3.5-19.3 9.3-32.3 11.9-38.3 7.5-54.5-17.7-58.5-25.6z"/><path class="h" d="m21 729.7c-16-31.2 6.3-66.5 15.9-81.6 29.4-46.4 66.2-86.4 116-126q5.2-4.2 10.7-8.4c22.9-18 46.6-36.6 60.7-56.9 2.7-3.9 4.8-7.5 6.3-11.1-3.8-12.7-11.7-25.7-19.3-37.1-14.4-21.8-29.4-42.5-45.3-64.4-7.3-10.2-14.7-20.5-22.1-30.8-2.5-3.5-5-7.2-7.6-11-37.1-47.9-59.9-95.2-67.8-140.4l-0.2-1c-3.9-22.7-11.2-64.8 17.3-92.7 21.9-21.5 58.6-31.4 95.9 5.4 47.6 46.8 104.7 87 154.4 120.1l3.5 2.4c26.8 17.8 57.1 38 85.5 46.2 3.7 1 7 1.4 10.2 1.1q1.3-1 2.6-2.1c9.1-7.6 17.6-14.7 25.1-22.2 4.4-4.4 8.8-9.1 13.3-13.8q1.9-2.4 3.7-4.5c10.8-12.6 21.7-24.2 33.4-35.6q1.6-1.5 3.2-3 0.6-0.6 1.2-1.1c16.2-16.9 29.2-29.4 42.2-40.5 9.2-7.8 16.8-14.1 23.8-19.9q1.3-1.1 2.5-2.2 2-1.8 4.1-3.6c26.5-22.8 48.7-39.3 69.8-51.9q2-1.2 4.5-2.7c20.7-12.7 63.9-39.1 98.6-14 16.5 12 39.5 40.3 7.1 95.3-6.3 10.6-12.7 21-18.9 31.1-10 16.1-19.4 31.3-28.1 47.1l-5.4 10c-15.4 28.1-30 54.6-38.7 82.7-1.1 3.6-2.4 7.3-3.7 10.8q-0.4 1.2-1 2.8c4.9-0.8 10.1-2.1 16-3.5l5.6-1.3c63.9-14.8 124.8-21.6 181-20.2 40.6 0.9 74.2 4.4 102.7 10.6 20.1 4.3 57.5 12.5 79.1 38.8 21.4 26.2 17.7 50.1 13.6 62-13.3 38.6-61.8 53.3-82 57.8-60.6 13.5-117.5 31.2-173.7 54.2q-9.5 3.9-19.1 7.6c-22 8.8-42.7 17-62 27.5l-4.3 2.3c-9 4.8-20 10.8-24.9 16.3q0 0.1-0.1 0.2c-0.4 0.5-0.6 0.8-0.6 0.9q-0.2 0.2-0.3 0.4-0.2 0.4-0.4 0.9c-1.3 2.8-2.8 8.3-2.6 18.8 0.5 23.8 6.8 48.4 13.5 74.5 1.7 6.8 3.4 13.6 5.1 20.3q0.7 1.8 1.2 3.7c4.6 17.2 10.2 36.1 17.6 59.5 5 15.9 9.3 31.8 13.4 47.3 5.1 19.3 10 37.5 16.2 55.3 13.4 38 10.6 69.5-8.3 93.8-11.2 14.4-26.7 22.3-43.8 22.3q-0.7 0-1.5 0c-38.1-1-68.1-39.6-95.5-79.1-2.3-3.3-4.7-6.7-5.7-8.1-39.5-51.1-69.3-94.6-93.7-136.8-4.5-7.8-8.9-15.8-13.4-24.4-20.5-38-43.6-81-76.6-85.7-22.8-3.3-49.7-0.1-77.9 9.3-36.1 12-63.6 22.9-86.6 34.1-23 11.3-46.4 23.3-69.1 35-27.4 14.1-55.8 28.6-84.2 42.3q0 0 0 0l-1.2 0.6c-7.3 3.5-19.4 9.3-32.4 11.8-38.3 7.5-54.4-17.6-58.5-25.5z"/><path class="i" d="m17.2 725.9c-16-31.2 6.3-66.5 15.8-81.6 29.4-46.4 66.3-86.5 116.1-126.1q5.2-4.1 10.6-8.4c22.9-18 46.6-36.6 60.8-56.8 2.7-3.9 4.7-7.6 6.2-11.2-3.8-12.6-11.7-25.6-19.2-37-14.5-21.9-29.5-42.6-45.3-64.5-7.4-10.2-14.8-20.4-22.1-30.8-2.5-3.5-5.1-7.2-7.6-10.9-37.2-48-60-95.3-67.8-140.5l-0.2-1c-3.9-22.6-11.3-64.7 17.2-92.7 22-21.5 58.7-31.4 96 5.5 47.5 46.8 104.7 87 154.4 120.1l3.5 2.3c26.7 17.8 57 38.1 85.4 46.2 3.7 1.1 7 1.5 10.3 1.2q1.2-1.1 2.5-2.2c9.1-7.5 17.7-14.7 25.1-22.2 4.4-4.4 8.9-9 13.4-13.8q1.9-2.3 3.7-4.4c10.8-12.6 21.7-24.2 33.4-35.6q1.6-1.6 3.2-3.1 0.6-0.5 1.2-1.1c16.1-16.8 29.1-29.3 42.1-40.4 9.2-7.8 16.8-14.2 23.9-19.9q1.2-1.1 2.4-2.2 2.1-1.9 4.2-3.7c26.4-22.8 48.6-39.3 69.8-51.8q2-1.2 4.4-2.7c20.8-12.7 64-39.2 98.6-14 16.6 12 39.5 40.3 7.1 95.3-6.2 10.6-12.6 21-18.9 31-10 16.1-19.4 31.4-28 47.2l-5.5 10c-15.4 28-29.9 54.5-38.6 82.7-1.1 3.6-2.4 7.2-3.7 10.7q-0.5 1.3-1 2.8c4.8-0.8 10.1-2 15.9-3.4l5.7-1.3c63.8-14.8 124.7-21.6 180.9-20.3 40.6 0.9 74.2 4.4 102.7 10.6 20.1 4.4 57.5 12.5 79.2 38.9 21.4 26.1 17.7 50 13.6 61.9-13.4 38.7-61.8 53.3-82 57.8-60.7 13.6-117.5 31.3-173.7 54.2-6.4 2.6-12.8 5.2-19.2 7.7-21.9 8.7-42.7 17-62 27.4l-4.3 2.4c-8.9 4.7-20 10.7-24.8 16.3q-0.1 0.1-0.2 0.2c-0.4 0.5-0.5 0.7-0.6 0.8q-0.1 0.2-0.2 0.4-0.2 0.5-0.5 0.9c-1.3 2.8-2.8 8.4-2.5 18.8 0.4 23.9 6.8 48.5 13.4 74.6 1.8 6.8 3.5 13.5 5.1 20.3q0.7 1.8 1.2 3.6c4.6 17.3 10.2 36.2 17.6 59.5 5.1 15.9 9.3 31.9 13.4 47.3 5.2 19.3 10 37.6 16.3 55.3 13.3 38 10.6 69.6-8.3 93.8-11.2 14.5-26.8 22.4-43.8 22.4q-0.8 0-1.5-0.1c-38.1-1-68.1-39.6-95.5-79.1-2.3-3.2-4.7-6.6-5.8-8.1-39.5-51.1-69.2-94.5-93.7-136.8-4.5-7.7-8.8-15.8-13.4-24.3-20.4-38-43.6-81.1-76.5-85.8-22.8-3.2-49.8 0-77.9 9.3-36.2 12.1-63.7 22.9-86.6 34.2-23.1 11.3-46.5 23.3-69.1 34.9-27.5 14.1-55.8 28.7-84.3 42.3q0 0 0 0l-1.2 0.6c-7.2 3.5-19.3 9.3-32.3 11.9-38.3 7.5-54.5-17.7-58.5-25.5z"/><path class="j" d="m13.3 722c-16-31.2 6.3-66.5 15.9-81.5 29.4-46.5 66.2-86.5 116-126.1q5.2-4.2 10.7-8.4c22.9-18 46.6-36.6 60.7-56.9 2.7-3.9 4.8-7.5 6.3-11.1-3.8-12.7-11.7-25.7-19.3-37.1-14.4-21.8-29.4-42.5-45.3-64.4-7.3-10.2-14.7-20.5-22.1-30.8-2.5-3.5-5-7.2-7.6-11-37.1-47.9-59.9-95.2-67.8-140.4l-0.1-1c-4-22.7-11.3-64.8 17.2-92.7 21.9-21.5 58.6-31.4 95.9 5.4 47.6 46.8 104.7 87 154.4 120.1l3.5 2.4c26.8 17.8 57.1 38 85.5 46.2 3.7 1 7 1.4 10.2 1.1q1.3-1 2.6-2.1c9.1-7.6 17.6-14.7 25.1-22.2 4.4-4.4 8.8-9.1 13.3-13.8q1.9-2.4 3.7-4.5c10.8-12.6 21.7-24.2 33.4-35.6q1.6-1.5 3.2-3 0.6-0.6 1.2-1.1c16.2-16.9 29.2-29.4 42.2-40.4 9.2-7.9 16.8-14.2 23.8-20q1.3-1.1 2.5-2.2 2-1.8 4.1-3.6c26.5-22.8 48.7-39.3 69.8-51.9q2-1.2 4.5-2.7c20.7-12.7 63.9-39.1 98.6-14 16.5 12 39.5 40.3 7.1 95.3-6.2 10.6-12.7 21-18.9 31.1-10 16.1-19.4 31.3-28.1 47.1l-5.4 10c-15.4 28.1-30 54.6-38.7 82.7-1.1 3.6-2.4 7.3-3.7 10.8q-0.4 1.2-1 2.8c4.9-0.8 10.1-2.1 16-3.5l5.6-1.3c63.9-14.8 124.8-21.6 181-20.2 40.6 0.9 74.2 4.4 102.7 10.6 20.1 4.3 57.5 12.5 79.1 38.8 21.4 26.2 17.7 50.1 13.6 62-13.3 38.6-61.8 53.3-82 57.8-60.6 13.5-117.5 31.2-173.7 54.2-6.4 2.6-12.7 5.1-19.1 7.7-22 8.7-42.7 16.9-62 27.4l-4.3 2.3c-9 4.8-20 10.8-24.9 16.3q0 0.1-0.1 0.2c-0.4 0.5-0.6 0.8-0.6 0.9q-0.1 0.2-0.3 0.4-0.2 0.4-0.4 0.9c-1.3 2.8-2.8 8.3-2.6 18.8 0.5 23.8 6.8 48.4 13.5 74.5 1.7 6.8 3.4 13.6 5.1 20.3q0.7 1.8 1.2 3.7c4.6 17.2 10.2 36.1 17.6 59.5 5 15.9 9.3 31.8 13.4 47.3 5.1 19.3 10 37.5 16.2 55.3 13.4 38 10.6 69.5-8.2 93.8-11.3 14.4-26.8 22.3-43.9 22.3q-0.7 0-1.5 0c-38.1-1-68.1-39.6-95.5-79.1-2.3-3.3-4.6-6.7-5.7-8.1-39.5-51.1-69.3-94.6-93.7-136.8-4.5-7.8-8.8-15.8-13.4-24.4-20.5-38-43.6-81-76.6-85.7-22.8-3.3-49.7-0.1-77.9 9.3-36.1 12-63.6 22.9-86.6 34.1-23 11.3-46.4 23.3-69.1 35-27.4 14.1-55.8 28.6-84.2 42.3q0 0 0 0l-1.2 0.6c-7.3 3.5-19.4 9.3-32.4 11.8-38.3 7.5-54.4-17.6-58.5-25.5z"/><path class="k" d="m9.5 718.2c-16-31.2 6.3-66.5 15.8-81.6 29.4-46.4 66.3-86.5 116.1-126.1q5.2-4.1 10.6-8.4c22.9-18 46.6-36.6 60.8-56.8 2.7-3.9 4.7-7.6 6.2-11.2-3.8-12.6-11.7-25.6-19.2-37-14.5-21.9-29.5-42.6-45.3-64.5-7.4-10.2-14.8-20.4-22.1-30.8-2.5-3.5-5.1-7.1-7.6-10.9-37.2-48-60-95.3-67.8-140.5l-0.2-1c-3.9-22.6-11.2-64.7 17.2-92.7 22-21.5 58.7-31.4 96 5.5 47.5 46.8 104.7 87 154.4 120.1l3.5 2.3c26.7 17.8 57 38.1 85.4 46.2 3.7 1.1 7 1.5 10.3 1.2q1.2-1.1 2.5-2.2c9.1-7.5 17.7-14.7 25.1-22.2 4.4-4.4 8.9-9 13.4-13.7q1.9-2.4 3.7-4.5c10.8-12.6 21.7-24.2 33.4-35.6q1.6-1.6 3.2-3.1 0.6-0.5 1.2-1.1c16.1-16.8 29.1-29.3 42.1-40.4 9.2-7.8 16.8-14.2 23.9-19.9q1.2-1.1 2.5-2.2 2-1.8 4.1-3.6c26.4-22.9 48.6-39.4 69.8-51.9q2-1.2 4.4-2.7c20.8-12.7 64-39.2 98.6-14 16.6 12 39.5 40.3 7.1 95.3-6.2 10.6-12.6 21-18.9 31-10 16.1-19.4 31.4-28 47.2l-5.5 10c-15.4 28-29.9 54.5-38.6 82.7-1.1 3.6-2.4 7.2-3.7 10.8q-0.5 1.2-1 2.7c4.8-0.8 10.1-2 15.9-3.4l5.7-1.3c63.8-14.8 124.7-21.6 180.9-20.3 40.6 1 74.3 4.4 102.8 10.6 20 4.4 57.4 12.5 79.1 38.9 21.4 26.2 17.7 50 13.6 61.9-13.4 38.7-61.8 53.3-82 57.8-60.7 13.6-117.5 31.3-173.7 54.2-6.4 2.6-12.8 5.2-19.2 7.7-21.9 8.7-42.7 17-62 27.5l-4.3 2.3c-8.9 4.7-20 10.7-24.8 16.3q-0.1 0.1-0.2 0.2c-0.4 0.5-0.5 0.7-0.6 0.8q-0.1 0.2-0.2 0.4-0.2 0.5-0.5 0.9c-1.3 2.8-2.8 8.4-2.5 18.8 0.5 23.9 6.8 48.5 13.4 74.6 1.8 6.8 3.5 13.6 5.1 20.3q0.7 1.8 1.2 3.6c4.6 17.3 10.2 36.2 17.6 59.6 5.1 15.8 9.3 31.8 13.4 47.2 5.2 19.3 10 37.6 16.3 55.3 13.3 38 10.6 69.6-8.3 93.8-11.2 14.5-26.8 22.4-43.8 22.4q-0.8 0-1.5-0.1c-38.1-1-68.1-39.6-95.5-79.1-2.3-3.2-4.7-6.6-5.8-8.1-39.5-51.1-69.2-94.5-93.7-136.8-4.5-7.7-8.8-15.8-13.4-24.3-20.4-38-43.6-81.1-76.5-85.8-22.8-3.2-49.7 0-77.9 9.3-36.2 12.1-63.7 23-86.6 34.2-23.1 11.3-46.5 23.3-69.1 34.9-27.5 14.1-55.8 28.7-84.3 42.3q0 0 0 0.1l-1.2 0.5c-7.2 3.5-19.3 9.3-32.3 11.9-38.3 7.5-54.5-17.7-58.5-25.5z"/><path class="l" d="m5.6 714.3c-16-31.2 6.3-66.5 15.9-81.5 29.4-46.5 66.2-86.5 116-126.1q5.3-4.2 10.7-8.4c22.9-18 46.6-36.6 60.7-56.9 2.7-3.9 4.8-7.5 6.3-11.1-3.8-12.7-11.7-25.7-19.3-37.1-14.4-21.8-29.4-42.5-45.3-64.4-7.3-10.2-14.7-20.5-22.1-30.8-2.5-3.5-5-7.2-7.6-10.9-37.1-48-59.9-95.3-67.8-140.5l-0.1-1c-4-22.7-11.3-64.8 17.2-92.7 21.9-21.5 58.6-31.4 95.9 5.4 47.6 46.9 104.7 87 154.4 120.1l3.5 2.4c26.8 17.8 57.1 38 85.5 46.2 3.7 1 7 1.4 10.2 1.1q1.3-1 2.6-2.1c9.1-7.6 17.6-14.7 25.1-22.2 4.4-4.4 8.8-9.1 13.3-13.8q1.9-2.4 3.7-4.5c10.8-12.6 21.7-24.2 33.4-35.6q1.6-1.5 3.2-3 0.6-0.5 1.2-1.1c16.2-16.9 29.2-29.3 42.2-40.4 9.2-7.9 16.8-14.2 23.8-20q1.3-1 2.5-2.2 2-1.8 4.1-3.6c26.5-22.8 48.7-39.3 69.8-51.9q2-1.1 4.5-2.7c20.7-12.7 63.9-39.1 98.6-14 16.5 12 39.5 40.4 7.1 95.3-6.2 10.6-12.7 21-18.9 31.1-10 16.1-19.4 31.3-28.1 47.1l-5.4 10c-15.4 28.1-30 54.6-38.7 82.7-1.1 3.6-2.4 7.3-3.7 10.8q-0.4 1.2-1 2.8c4.9-0.8 10.1-2.1 16-3.4l5.6-1.4c63.9-14.8 124.8-21.6 181-20.2 40.6 0.9 74.2 4.4 102.7 10.6 20.1 4.3 57.5 12.5 79.1 38.8 21.4 26.2 17.7 50.1 13.6 62-13.3 38.6-61.8 53.3-82 57.8-60.6 13.5-117.5 31.2-173.7 54.2-6.3 2.6-12.7 5.1-19.1 7.7-22 8.7-42.7 16.9-62 27.4l-4.3 2.3c-9 4.8-20.1 10.7-24.8 16.3q-0.1 0.1-0.2 0.2c-0.4 0.5-0.6 0.8-0.6 0.9q-0.1 0.2-0.3 0.4-0.2 0.4-0.4 0.9c-1.3 2.8-2.8 8.3-2.6 18.8 0.5 23.8 6.8 48.4 13.5 74.5 1.7 6.8 3.4 13.6 5.1 20.3q0.7 1.8 1.2 3.7c4.6 17.2 10.2 36.1 17.6 59.5 5 15.9 9.3 31.8 13.4 47.3 5.1 19.3 10 37.5 16.2 55.3 13.4 38 10.6 69.5-8.2 93.8-11.3 14.4-26.8 22.3-43.9 22.3q-0.7 0-1.5 0c-38.1-1-68-39.6-95.5-79.1-2.3-3.3-4.6-6.7-5.7-8.1-39.5-51.1-69.3-94.6-93.7-136.8-4.5-7.8-8.8-15.8-13.4-24.4-20.5-38-43.6-81-76.6-85.7-22.8-3.3-49.7-0.1-77.9 9.3-36.1 12.1-63.6 22.9-86.6 34.1-23 11.3-46.4 23.4-69.1 35-27.4 14.1-55.8 28.7-84.2 42.3q0 0 0 0l-1.2 0.6c-7.3 3.5-19.4 9.3-32.4 11.8-38.3 7.5-54.4-17.6-58.5-25.5z"/></g><path class="a" d="m5.6 714.3c-16-31.2 6.3-66.5 15.9-81.5 29.4-46.5 66.2-86.5 116-126.1q5.3-4.2 10.7-8.4c22.9-18 46.6-36.6 60.7-56.9 2.7-3.9 4.8-7.5 6.3-11.1-3.8-12.7-11.7-25.7-19.3-37.1-14.4-21.8-29.4-42.5-45.3-64.4-7.3-10.2-14.7-20.5-22.1-30.8-2.5-3.5-5-7.2-7.6-10.9-37.1-48-59.9-95.3-67.8-140.5l-0.1-1c-4-22.7-11.3-64.8 17.2-92.7 21.9-21.5 58.6-31.4 95.9 5.4 47.6 46.9 104.7 87 154.4 120.1l3.5 2.4c26.8 17.8 57.1 38 85.5 46.2 3.7 1 7 1.4 10.2 1.1q1.3-1 2.6-2.1c9.1-7.6 17.6-14.7 25.1-22.2 4.4-4.4 8.8-9.1 13.3-13.8q1.9-2.4 3.7-4.5c10.8-12.6 21.7-24.2 33.4-35.6q1.6-1.5 3.2-3 0.6-0.5 1.2-1.1c16.2-16.9 29.2-29.3 42.2-40.4 9.2-7.9 16.8-14.2 23.8-20q1.3-1 2.5-2.2 2-1.8 4.1-3.6c26.5-22.8 48.7-39.3 69.8-51.9q2-1.1 4.5-2.7c20.7-12.7 63.9-39.1 98.6-14 16.5 12 39.5 40.4 7.1 95.3-6.2 10.6-12.7 21-18.9 31.1-10 16.1-19.4 31.3-28.1 47.1l-5.4 10c-15.4 28.1-30 54.6-38.7 82.7-1.1 3.6-2.4 7.3-3.7 10.8q-0.4 1.2-1 2.8c4.9-0.8 10.1-2.1 16-3.4l5.6-1.4c63.9-14.8 124.8-21.6 181-20.2 40.6 0.9 74.2 4.4 102.7 10.6 20.1 4.3 57.5 12.5 79.1 38.8 21.4 26.2 17.7 50.1 13.6 62-13.3 38.6-61.8 53.3-82 57.8-60.6 13.5-117.5 31.2-173.7 54.2-6.3 2.6-12.7 5.1-19.1 7.7-22 8.7-42.7 16.9-62 27.4l-4.3 2.3c-9 4.8-20.1 10.7-24.8 16.3q-0.1 0.1-0.2 0.2c-0.4 0.5-0.6 0.8-0.6 0.9q-0.1 0.2-0.3 0.4-0.2 0.4-0.4 0.9c-1.3 2.8-2.8 8.3-2.6 18.8 0.5 23.8 6.8 48.4 13.5 74.5 1.7 6.8 3.4 13.6 5.1 20.3q0.7 1.8 1.2 3.7c4.6 17.2 10.2 36.1 17.6 59.5 5 15.9 9.3 31.8 13.4 47.3 5.1 19.3 10 37.5 16.2 55.3 13.4 38 10.6 69.5-8.2 93.8-11.3 14.4-26.8 22.3-43.9 22.3q-0.7 0-1.5 0c-38.1-1-68-39.6-95.5-79.1-2.3-3.3-4.6-6.7-5.7-8.1-39.5-51.1-69.3-94.6-93.7-136.8-4.5-7.8-8.8-15.8-13.4-24.4-20.5-38-43.6-81-76.6-85.7-22.8-3.3-49.7-0.1-77.9 9.3-36.1 12.1-63.6 22.9-86.6 34.1-23 11.3-46.4 23.4-69.1 35-27.4 14.1-55.8 28.7-84.2 42.3q0 0 0 0l-1.2 0.6c-7.3 3.5-19.4 9.3-32.4 11.8-38.3 7.5-54.4-17.6-58.5-25.5z"/><path class="m" d="m967.4 401c-62.1 13.8-120.3 31.9-179.3 55.9-28.4 11.7-57.5 22.1-84.6 36.8-12.5 6.8-28.8 14.8-38.9 26.5q-0.6 0.8-1.2 1.5c-1.1 1.4-2 2.7-2.9 4.2q-0.8 1.2-1.5 2.5c-0.2 0.6-0.6 1-0.9 1.6q0 0.3-0.1 0.6c-4.7 10.1-6.1 21.9-5.8 34.2 0.7 35.7 12.1 70.9 20.2 105.3 0.2 0.6 0.4 1 0.7 1.5 5.5 20.5 11.7 41 18 61 11 34.4 18.1 69.6 30 103.6 7.1 20 10.9 43.2-2.8 60.9-28.2 36.2-79.2-48.9-91.6-64.8-32.9-42.6-64.1-86.4-91.1-133-26.7-46.2-55.4-118.6-115.1-127.1-31.3-4.5-64.1 0.8-93.8 10.7-30.3 10.1-62.3 21.9-91 35.9-51.2 25.2-101.7 52.5-153.1 77.2-11.9 5.7-37.6 18.8-46 2.4-6.8-13.4 7.7-36.6 14.3-47 29.5-46.5 65.4-83.3 108.3-117.4 26.7-21.3 58.7-44.5 78.3-72.7 7.2-10.4 11.5-20.1 13.7-29.6-3.4-20.5-14.2-39.6-26.2-57.7-21.8-32.9-45.2-64-68-96.2q-3.9-5.4-7.8-11.2c-29.3-37.6-53.9-80.8-61.7-126-3.3-19-8.6-47.4 7.1-62.9 15.9-15.6 32.2-9.3 47.1 5.4 47.4 46.8 104.2 87.5 159.5 124.3 30.1 20 63.7 43 98.6 53.1 13.4 3.8 25.1 3.2 35.9-0.2 12.3-10.5 25.1-20.5 36.4-31.9 5.1-5.2 10.1-10.4 15.1-15.6q1.9-2.5 3.7-4.6c9.9-11.6 20.3-22.6 31.2-33.3 1.6-1.5 3.2-2.9 4.7-4.4 12.9-13.5 26.1-26.6 40.2-38.6 7.8-6.7 15.6-13.3 23.7-19.8 2.3-2 4.5-4.1 6.9-6.1 19.9-17.2 42.2-34.9 64.8-48.3 14.4-8.5 47.2-31.2 64.8-18.5 17.3 12.6 6.1 34.9-2.4 49.5-15.7 26.5-32.8 52-47.6 79.2-17.4 32-35.9 63.9-46.8 99.1-4.2 13.7-15 35.4-8.4 49.6 0.1 0.3 0.3 0.5 0.5 0.8 4 4.1 9.1 7.2 15.9 8.3 17.4 2.7 33.3-1.9 50-5.7 56-13 114.9-20.8 172.3-19.4 31.6 0.7 65.3 3.1 96.2 9.8 19.4 4.2 46.2 10.7 59.6 26.9 29 35.5-20 57.2-49.1 63.7z"/><path class="n" d="m964.5 392.2c-57.8 12.8-112.8 29-167.3 52.3-42 17.9-85 32.4-122.8 58.8-3.1 2.1-5.8 4.3-8.2 6.6 2.8-5.3 6.2-10.6 10.3-15.8q-5.3 3.4-10.3 7.2c-10.4 14.4-16.9 28.9-20.2 47.9-4.9 28.6 5 58.4 8.8 86.5 3.6 27.1 14.3 55.3 21.2 81.9 8.6 32.6 19.6 64.4 27.3 97.4 2.8 12 8.5 23.9 12.6 35.6 3.1 8.8 3.4 18.4 3.4 27.6 0.2 27.8-18.9 17.4-28.7 11.1-24.8-15.8-38.8-43.3-56.9-65.7-17.4-21.4-32-45.1-48.7-67-8.6-11.5-17-23.5-24.8-35.5-7.4-11.6-12.1-26-20.8-36.6-18-22-28.2-51.1-44-74.7-13.6-20.4-33.8-39.1-57.7-45.7-52.2-14.4-109.4 8-156.9 27.8-53.4 22.3-107.2 46.4-158 74.3-13.3 7.2-78.1 49-79 17.1-0.5-17.4 16.1-36.7 25.2-50.4 10-14.9 21.9-27.8 33.7-41.2 37.9-43.1 90.4-70.9 128.6-113.7 5-5.7 9.8-11.6 14-17.9 14.2-27.8 21.8-57.6 3.1-79.9 1.4 6.4 2.7 12.7 3.5 18.6-5.1-11.3-12.6-22-19.3-32.2-8.4-12.9-16.1-27.2-25.5-39.4q-9.1-11.7-18-23.4c-33.4-37.1-64.7-78.2-79.4-125.1 0.3 2.3 0.6 4.5 1.1 6.7-5.1-12.3-9.5-24.9-13-37.7-4.3-15.6-5.7-31.1-5.4-47.1 0.4-32.4 20.7-24.8 32.8-16.8 7 4.8 12.9 11.9 19.3 17.5 25.7 22.2 51.3 45.4 79.3 64.8 23.8 16.4 46 34.4 70 50.5 26.3 17.6 53.8 31.4 81.3 46.6 12 6.6 26.3 9.8 40.3 9.2 20.8-2 36.5-20 51.2-33.5 4.7-4.3 9.4-8.5 14.1-12.7 0.6-0.8 1.3-1.6 1.9-2.5 23.6-23.7 46-48.5 69.9-72.1q8.7-7.9 17.5-15.7c10.3-9.1 20.9-17.8 31.7-26.2 17.3-15.6 35.3-30.3 55.6-41.4 10.3-6.8 21.3-12.4 32.7-17.3 10.8-4.7 23.3-7.1 33.5 0.3 13.1 9.7-2.6 32.4-8.5 42.3-31.6 53.4-64.1 104.5-88 161.9-3.8 9.1-8.6 20.7-12 32.6-2.8 17.7-2.9 36.8 9.8 48 9.4 4.7 22 4.2 32.3 0.8 19-2.2 38.6-9.3 56-12.5 63.3-11.9 123.8-19 188.3-12.6 29.1 2.9 58.4 6.8 85.4 18.7 11.5 5.1 21.5 12.8 27.9 23.8 14.3 24.4-37.5 35.1-50.2 37.9z"/><path class="o" d="m97.8 147.7c-4.3-15.6-5.7-31.1-5.4-47.1 0-6.1 0.8-10.7 2.1-14.2-1.9 40.7 22.4 82.1 42.6 116.5 21.3 36.4 43.5 72.3 65.1 108.6 15 25.2 39.3 53.3 47.7 83.3-5-9.9-11.4-19.3-17.3-28.2-8.4-12.9-16.1-27.2-25.5-39.4q-9.1-11.7-18-23.4c-33.4-37.1-64.7-78.2-79.4-125.1 0.3 2.3 0.6 4.5 1.1 6.7-5.1-12.3-9.5-24.9-13-37.7z"/><path class="o" d="m428.6 268.8c14.5-6.3 26.6-19.4 38-29.9 4.7-4.3 9.4-8.5 14.1-12.7 0.6-0.8 1.3-1.6 1.9-2.5 23.6-23.7 46-48.5 69.9-72.1q8.7-7.9 17.5-15.7c10.3-9.1 20.9-17.8 31.7-26.2 17.3-15.6 35.3-30.3 55.6-41.4 10.3-6.8 21.3-12.4 32.7-17.3 6.8-3 14.2-5 21.4-4.2-60.4 25.5-113 71-156.6 118.6-26.5 29.1-78.1 108.2-126.2 103.4z"/><path class="o" d="m411.7 559.9c-44.7-2.8-91.1 15.5-130.9 32-53.4 22.3-107.2 46.4-158 74.3-10.2 5.6-51.2 31.7-69.7 28.6 18.2-6.2 33.8-21.6 51.4-35.1 39-30 80.9-55.1 126.8-73 50.1-19.5 123-42.1 180.4-26.8z"/><path class="o" d="m653.6 669.6c-3.5-15.9-7.8-47-6.4-76.4 2.4 14.4 5.7 28.6 7.6 42.5 3.6 27.1 14.3 55.3 21.2 81.9 8.6 32.6 19.6 64.4 27.3 97.4 2.2 9.5 6.2 19 9.9 28.3-3.7-7.4-7.3-14.7-10.9-22.1-22.8-47.8-37.2-100-48.7-151.6z"/><path class="p" d="m964.5 392.2c-57.8 12.8-112.8 29-167.3 52.3-42 17.9-85 32.4-122.8 58.8-3.1 2.1-5.8 4.3-8.2 6.6 2.8-5.3 6.2-10.6 10.3-15.8q-5.3 3.4-10.3 7.2c-10.4 14.4-16.9 28.9-20.2 47.9-1.2 7.4-1.4 15-1 22.6-21.5-26.3-113.1-123.8-141-139.2-4-2.3 19.3 81.9 38.9 116.3 0.3 0.6 53.9 104.7 75.9 149.8 23.3 47.7 49 93.5 75.8 139.3 8.2 14 15.6 29.7 24.6 43.6-1.4 23.4-19.2 13.7-28.6 7.7-24.8-15.8-38.8-43.3-56.9-65.7-17.4-21.4-32-45.1-48.7-67-8.6-11.5-17-23.5-24.8-35.5-7.4-11.6-12.1-26-20.8-36.6-18-22-28.2-51.1-44-74.7-13.6-20.4-33.8-39.1-57.7-45.7-52.2-14.4-109.4 8-156.9 27.8-1.6 0.7-3.2 1.4-4.8 2.1 11-8.5 21.7-17.1 32.4-26 22.6-19 116.2-134.1 110.5-132.9-68.2 14.4-129.2 66.9-183.7 107.8-56.5 42.5-105.2 94.3-153.9 145.4-19 8.1-37 11.7-37.5-5-0.5-17.4 16.1-36.7 25.2-50.4 10-14.9 21.9-27.8 33.7-41.2 37.9-43.1 90.4-70.9 128.6-113.7 5-5.7 9.8-11.6 14-17.9 12.8-25.1 20-51.7 7.7-73 39.3 18.2 82.7 25.8 126 15.9 5.6-1.3 5.9-8.8 1.5-11.6-62.4-40.1-125.3-74.8-178.1-127.9-49-49.1-93.1-110.4-106.8-179.5 6.3-12.2 20.3-6.3 29.6-0.2 7 4.8 12.9 11.9 19.3 17.5 25.7 22.2 51.3 45.4 79.3 64.8 23.8 16.4 46 34.4 70 50.5 26.3 17.6 53.8 31.4 81.3 46.6 12 6.6 26.3 9.8 40.3 9.2 13.7-1.3 25.1-9.5 35.5-18.8-12.4 29.2-18.3 60.4-15.5 95.8 0.4 5.6 154.7-231.2 271.9-302.8 5.6-0.1 11.2 1.1 16.2 4.7 13.1 9.7-2.6 32.4-8.5 42.3-31.6 53.4-64.1 104.5-88 161.9-3.8 9.1-8.6 20.7-12 32.6-2 12.6-2.5 25.9 1.9 36.7-6.8 1.3-103.6 50.6-97.5 49.7 54.5-8.9 106.8-23.5 162-28.6 57.3-5.3 115.3-8.8 172.9-9.9 52.3-0.9 103.9 4 155.6 11.5 1.7 2.2 3.3 4.3 4.8 6.8 14.3 24.4-37.5 35.1-50.2 37.9z"/><path class="q" d="m131.3 98c11 3.1 18.6 14.7 17.1 26.6-1.5 11.9-11.6 19.7-23.1 16.9-11.5-2.8-19.9-15.5-18-27.8 1.8-12.4 13-18.7 24-15.7z"/><path class="q" d="m161.5 149.6c9.8 1.9 16.9 11.5 16.4 21.6-0.4 10.2-8.6 17.4-18.5 15.7-10-1.7-17.5-12-17-22.3 0.7-10.4 9.5-17 19.1-15z"/><path class="q" d="m191.6 193.8c8.1 1 14.6 8.4 14.7 16.8 0 8.4-6.3 14.7-14.4 13.7-8.1-1-14.9-8.8-15-17.3 0-8.5 6.8-14.3 14.7-13.2z"/><path class="q" d="m221.8 230.1c7.7 0.5 13.8 7.4 14.6 15.1 0.7 7.7-4.8 14-12.6 13.6-7.9-0.3-14.6-7.4-15-15.4-0.6-8 5.4-13.9 13-13.3z"/><path class="q" d="m252 263.6c6.3 0.2 12.5 5.1 13.4 11.8 1 6.6-3.3 12.2-9.9 12.3-6.5 0-13-5.3-13.8-12.1-0.8-6.9 3.9-12.2 10.3-12z"/><path class="q" d="m281.2 292c5.3-0.4 10.5 3.4 11.7 8.8 1.2 5.3-2 10.1-7.4 10.5-5.3 0.4-10.8-3.7-12-9-1.2-5.4 2.4-10 7.7-10.3z"/><path class="q" d="m307 310.7c6.3-0.7 13 3.4 14.9 9.8 1.8 6.3-1.6 12.4-8 13.3-6.5 1-13.6-3.5-15.5-10-1.7-6.7 2.3-12.4 8.6-13.1z"/><path class="q" d="m333.9 330.6c5.2-0.7 11.2 2.2 13.2 7.4 2.1 5.2-0.4 10.6-5.9 11.8-5.3 1.2-11.9-1.9-13.7-7.6-1.8-5.5 1.2-10.6 6.4-11.6z"/><path class="q" d="m359.1 346.6c4.3-1.2 9.1 1.5 11 5.6 2.1 4.1 0.3 8.6-4.1 10-4.5 1.5-9.4-1.6-11.4-5.8-1.8-4.4 0.2-8.8 4.5-9.8z"/><path class="q" d="m382.6 358.4c3.9-1.4 8.7 0.5 10.8 4.4 2.1 3.9 0.8 8.3-3.2 9.7-3.9 1.4-9-0.7-11.1-4.6-2.1-3.9-0.5-8.1 3.5-9.5z"/><path class="q" d="m405.4 368.8c3.3-1.5 7.6-0.3 9.6 2.8 2.1 3 1.2 6.8-2 8.3-3.3 1.5-7.8 0.2-9.9-2.9-2.1-3-1-6.7 2.3-8.2z"/><path class="q" d="m426.8 376.3c2.6-1.3 6.1-0.3 7.9 2.3 1.8 2.5 1.3 5.7-1.2 6.9-2.6 1.3-6.2 0.2-8-2.3-1.9-2.5-1.2-5.6 1.3-6.9z"/><path class="q" d="m698.2 86.4c0.1 11.1-8.8 20.7-20.2 21.7-11.3 0.9-20.9-7.2-21.1-18.4-0.2-11.2 9.1-21.2 20.6-22.1 11.5-0.9 20.6 7.7 20.7 18.8z"/><path class="q" d="m657.9 125.1c0.3 9.4-7.2 17.8-16.8 18.9-9.6 1-17.9-5.7-18.2-15.2-0.4-9.4 7.1-18.1 16.9-19.1 9.7-1 17.7 5.9 18.1 15.4z"/><path class="q" d="m622.7 160.1c0.4 7.8-5.6 14.7-13.4 15.8-7.9 1.1-14.7-4.3-15.2-12-0.5-7.8 5.6-15 13.5-16 7.9-1 14.6 4.5 15.1 12.2z"/><path class="q" d="m593.3 192.6c0.5 7.2-4.9 14-12.2 15.2-7.4 1.1-14-3.8-14.6-11-0.6-7.3 4.9-14.2 12.3-15.4 7.5-1.1 13.9 3.9 14.5 11.2z"/><path class="q" d="m565.4 223.7c0.7 6.2-3.8 12-10.1 13.1-6.2 1.2-11.9-2.8-12.6-9-0.6-6.1 3.9-12.1 10.2-13.3 6.3-1.1 11.8 3 12.5 9.2z"/><path class="q" d="m540.9 252.3c0.7 5-2.8 9.9-7.9 11-5.1 1-9.9-2.1-10.5-7.1-0.7-5 2.9-10 8-11.1 5.1-1.1 9.8 2.2 10.4 7.2z"/><path class="q" d="m524.3 276.6c1 6.1-3.1 12.1-9.2 13.6-6.2 1.5-12-2.1-13.1-8.1-1-6.1 3.3-12.3 9.4-13.8 6.2-1.6 11.9 2.2 12.9 8.3z"/><path class="q" d="m505.6 301.2c1 5.1-2.2 10.4-7.4 11.9-5.2 1.4-10.2-1.4-11.3-6.5-1.1-5.1 2.3-10.5 7.5-12.1 5.2-1.5 10.1 1.6 11.2 6.7z"/><path class="q" d="m489.7 323.6c1 4.1-1.4 8.6-5.5 10-4.2 1.4-8.5-0.7-9.5-4.9-1.1-4.1 1.5-8.7 5.6-10.2 4.2-1.4 8.3 0.9 9.4 5.1z"/><path class="q" d="m477.2 344.3c1 3.7-0.8 8.1-4.6 9.6-3.8 1.6-7.9-0.1-9.2-4-1.2-3.8 0.8-8.5 4.8-9.9 3.9-1.5 8 0.5 9 4.3z"/><path class="q" d="m466.3 364.5c1.1 3.1-0.7 6.7-3.6 8.3-3 1.6-6.6 0.5-7.9-2.8-1.5-3.2 0.2-7.1 3.5-8.6 3.3-1.5 6.8-0.1 8 3.1z"/><path class="q" d="m457.7 383.3c1.2 2.4 0.1 5.5-2.4 7-2.5 1.5-5.6 0.8-6.7-1.6-1.2-2.5 0-5.8 2.5-7.3 2.5-1.5 5.5-0.6 6.6 1.9z"/><path class="q" d="m966.8 374.3c-10 7.6-26.9 7.2-38.1-0.6-11.3-7.8-12.5-20.5-2.5-28.4 10.1-8 27.9-7.4 39.1 0.6 11.5 8.3 11.5 21 1.5 28.4z"/><path class="q" d="m894.7 370.3c-8.3 6.5-22.8 7.3-32.6 0.9-9.8-6.3-11.2-17.1-2.9-24 8.3-6.8 23.2-7.5 33-0.9 9.9 6.6 10.8 17.3 2.5 24z"/><path class="q" d="m830.4 368.9c-6.6 5.5-18.5 6.5-26.7 1.5-8.1-4.9-9.5-13.7-2.9-19.5 6.6-5.8 18.8-6.8 27-1.7 8.1 5.2 9.3 14 2.6 19.7z"/><path class="q" d="m773.8 370.7c-6.1 5.5-17.3 6.2-25.1 1.6-7.8-4.4-9.3-12.5-3.2-18.3 6.1-5.6 17.5-6.3 25.3-1.7 7.8 4.6 9.1 12.8 3 18.4z"/><path class="q" d="m719.8 372.7c-5.1 5-14.6 5.9-21.3 2.2-6.7-3.7-8.1-10.6-3-15.5 5-4.9 14.7-5.8 21.4-2.2 6.7 3.7 8 10.7 2.9 15.5z"/><path class="q" d="m671.1 375.3c-4.1 3.9-11.8 4.7-17.3 2-5.6-2.8-6.8-8.4-2.7-12.6 4-4.3 11.8-5.2 17.4-2.1 5.6 3 6.7 8.7 2.6 12.7z"/><path class="q" d="m633.5 380.8c-4.9 5-14.2 6.3-21 2.9-6.8-3.4-8.5-10.2-3.6-15.2 4.8-5.1 14.4-6.4 21.2-3 6.8 3.4 8.3 10.2 3.4 15.3z"/><path class="q" d="m593.6 384.4c-4.1 4.3-12 5.4-17.9 2.5-5.8-2.8-7.3-8.6-3.2-12.9 4.1-4.3 12.1-5.4 18-2.6 5.8 2.9 7.2 8.7 3.1 13z"/><path class="q" d="m558.2 387.7c-3.3 3.7-9.7 4.9-14.5 2.8-4.8-2.2-6.1-6.9-2.8-10.5 3.2-3.7 9.8-4.9 14.6-2.8 4.8 2.2 6 6.9 2.7 10.5z"/><path class="q" d="m527.3 392.6c-3 3.4-9.1 4.5-13.6 2.5-4.6-2-5.8-6.4-2.8-9.8 3-3.5 9.2-4.6 13.7-2.6 4.5 2 5.7 6.4 2.7 9.9z"/><path class="q" d="m497.8 396.7c-2.6 2.9-7.7 3.9-11.6 2.2-3.9-1.7-5-5.5-2.5-8.3 2.6-3 7.8-4 11.7-2.2 3.8 1.7 4.9 5.4 2.4 8.3z"/><path class="q" d="m471.1 400.4c-2 2.4-6.2 3.2-9.5 1.8-3.1-1.4-4.1-4.5-2-6.9 2-2.3 6.3-3.1 9.5-1.7 3.2 1.4 4.1 4.4 2 6.8z"/><path class="q" d="m687.6 883c-12.5-2.9-24.4-17.1-24.7-31.2-0.7-14.1 9-22.3 21.1-19.1 12 3.5 22.3 16.3 23.4 29.9 0.9 13-6.7 23.4-19.8 20.4z"/><path class="q" d="m645.3 821.5c-10.2-3.4-18.6-16-18.5-27.8 0.1-11.9 8.7-18.4 19-15 10.3 3.4 18.3 15.4 18.1 27.2-0.1 11.8-8.3 18.9-18.6 15.6z"/><path class="q" d="m612.5 764.6c-8.2-3.1-14.5-13.6-13.9-23.3 0.6-9.6 7.8-14.7 16-11.5 8.2 3.1 14.4 13.4 13.8 23-0.6 9.6-7.6 15-15.9 11.8z"/><path class="q" d="m584.5 714.5c-7.6-3.3-13-13.5-12.1-22.6 1-9.1 7.9-13.6 15.5-10.3 7.6 3.2 12.9 13.2 11.9 22.2-0.8 9-7.4 13.8-15.3 10.7z"/><path class="q" d="m560.8 665c-6.4-2.9-11.1-11.5-10.2-19.1 0.8-7.6 6.8-11.3 13.3-8.4 6.5 2.8 11 11.3 10.2 18.9-0.9 7.6-6.8 11.5-13.3 8.6z"/><path class="q" d="m540.3 620.2c-5.1-2.5-8.5-9.7-7.6-16 1-6.2 6-9.2 11.1-6.6 5.2 2.5 8.5 9.6 7.5 15.8-0.9 6.3-5.8 9.3-11 6.8z"/><path class="q" d="m523.3 585.7c-6.3-3.1-10.4-11.9-9.2-19.4 1.2-7.5 7.3-11 13.5-7.8 6.3 3.1 10.4 11.7 9.2 19.2-1.2 7.6-7.2 11.2-13.5 8z"/><path class="q" d="m507.7 548.3c-5.3-2.7-9-10.1-7.6-16.5 1.3-6.5 6.5-9.4 11.7-6.6 5 2.9 8.5 10.2 7.5 16.6-1.1 6.3-6.2 9.3-11.6 6.5z"/><path class="q" d="m495 514.7c-4.2-2.3-6.8-8.5-5.7-13.7 1-5.2 5.3-7.6 9.6-5.2 4.2 2.4 6.8 8.5 5.7 13.7-1.1 5.2-5.3 7.6-9.6 5.2z"/><path class="q" d="m483.7 485.3c-4-2.3-6.4-8.1-5.4-13 1-4.9 5.1-7 9.1-4.7 3.9 2.2 6.4 8 5.3 12.9-1 4.8-5 7-9 4.8z"/><path class="q" d="m473.3 457c-3.4-1.9-5.4-6.8-4.6-11 0.9-4.1 4.4-5.9 7.8-3.9 3.4 1.9 5.4 6.8 4.6 10.9-0.9 4.1-4.4 5.9-7.8 4z"/><path class="q" d="m464.1 431.5c-2.8-1.6-4.5-5.6-3.8-9 0.7-3.3 3.6-4.7 6.4-3.1 2.8 1.6 4.4 5.6 3.7 8.9-0.7 3.4-3.5 4.9-6.3 3.2z"/><path class="q" d="m47.9 667.2c0-12.4 10.9-24.8 23.8-27.5 13-2.7 23 5.3 22.6 17.2-0.3 12.1-10.6 23.7-23.1 26.6-12.5 2.8-23.3-3.9-23.3-16.3z"/><path class="q" d="m96.1 618.6c0.8-10.2 10.3-20.5 21.5-22 11.2-1.6 19.3 5.6 18.4 15.7-1 10.1-10.2 19.8-21.1 21.5-11 1.8-19.5-4.9-18.8-15.2z"/><path class="q" d="m141.3 578.4c1-8.4 9.3-16.1 18.3-17.1 9.2-0.9 15.6 5.3 14.4 13.5-1 8.4-9 15.8-18 16.8-9.1 1-15.7-4.8-14.7-13.2z"/><path class="q" d="m181.8 544.1c1.2-8 9.3-14.9 18-15.3 8.7-0.5 14.4 5.6 13 13.4-1.4 7.7-9.4 14.1-17.8 14.9-8.5 0.6-14.5-5.2-13.2-13z"/><path class="q" d="m222.3 513.7c1.5-6.6 8.7-12.1 16-12.1 7.3-0.1 11.9 5.2 10.5 11.8-1.5 6.6-8.5 11.8-15.8 11.9-7.3 0-12.1-5-10.7-11.6z"/><path class="q" d="m260.3 488.4c1.4-5.3 7.5-9.5 13.4-9.3 6 0.2 9.6 4.7 8.1 10-1.4 5.3-7.3 9.4-13.2 9.2-6-0.2-9.8-4.6-8.3-9.9z"/><path class="q" d="m289.3 467.8c2.1-6.3 9.8-11.1 17-10.5 7.3 0.6 11.3 6.3 9.2 12.6-2 6.4-9.4 10.9-16.6 10.4-7.2-0.6-11.6-6.2-9.6-12.5z"/><path class="q" d="m322.3 449.7c1.9-5.3 8.7-9 14.8-8.1 6.2 0.8 9.4 5.8 7.3 11.1-2 5.3-8.4 8.8-14.5 7.9-6-0.6-9.5-5.4-7.6-10.9z"/><path class="q" d="m352.4 435.4c1.7-4.3 7.1-7.5 12.2-6.3 5.1 1 7.5 5.2 5.6 9.3-1.9 4.1-7.2 6.9-12.1 6.3-4.9-0.8-7.5-4.9-5.7-9.3z"/><path class="q" d="m379 423.4c1.9-3.9 7.3-6.4 11.9-5.4 4.6 0.9 6.7 5 4.8 9-1.9 3.9-7 6.3-11.6 5.3-4.6-0.9-6.9-4.9-5.1-8.9z"/><path class="q" d="m405.1 413.3c1.7-3.2 6.4-4.9 10.3-3.8 3.9 1.1 5.5 4.6 3.8 7.8-1.8 3.2-6.3 4.9-10.2 3.8-3.9-1.1-5.7-4.5-3.9-7.8z"/><path class="q" d="m429 405.8c1.6-2.7 5.4-4.2 8.5-3.2 3.1 0.9 4.3 3.8 2.8 6.5-1.6 2.7-5.3 4-8.4 3.1-3.1-0.9-4.4-3.8-2.9-6.4z"/></svg>