<svg version="1.2" xmlns="http://www.w3.org/2000/svg" viewBox="0 0 1200 1100" width="1081" height="200"><style>.a{fill:#fff}.b{fill:#f5f5f5}.c{fill:#ebebeb}.d{fill:#e1e1e1}.e{fill:#d7d7d7}.f{fill:#cdcdcd}.g{fill:#c3c3c3}.h{fill:#b9b9b9}.i{fill:#b0b0b0}.j{fill:#a6a6a6}.k{fill:#9c9c9c}.l{fill:#929292}.m{fill:#888}.n{fill:#7e7e7e}.o{fill:#747474}.p{fill:#6a6a6a}.q{fill:#606060}.r{fill:#ffdea9}.s{fill:#b8765b}.t{fill:#7b523f}.u{mix-blend-mode:multiply;fill:#e2b066}.v{opacity:.6;mix-blend-mode:screen;fill:#dfc7a4}.w{fill:#dd9c6e}.x{mix-blend-mode:screen;fill:#dd9c6e}.y{mix-blend-mode:multiply;fill:#dee3d2}.z{mix-blend-mode:multiply;fill:#dc8f62}.A{opacity:.4;mix-blend-mode:multiply;fill:#ab745b}.B{fill:#e2b066}.C{mix-blend-mode:multiply;fill:#e17f3d}.D{mix-blend-mode:multiply;fill:#dfc7a4}.E{fill:#abadb0}.F{opacity:.4;mix-blend-mode:multiply;fill:#abadb0}.G{fill:#412206}.H{fill:#050000}.I{fill:#85684c}.J{fill:#985a4d}.K{fill:#4f3223}.L{mix-blend-mode:screen;fill:#ab745b}.M{mix-blend-mode:screen;fill:#985a4d}</style><g style="mix-blend-mode:multiply"><path class="a" d="m1079.8 274.2c4.5 24.2-18.9 45.3-29.1 53.2-48.4 37.4-111.4 59.2-167.6 57.7-27-0.7-59.1-7.1-72.9-31.4-23.2 9.1-49.3 16.3-78.7 21.7q1.9 0.9 3.8 1.9c25 12.1 50.8 25.9 78.9 42.2q6.7 3.8 13.5 7.6c26.2 14.8 53.3 30.1 74.4 53.9 27.5 31.1 7.9 51.6 3.7 55.4-12.7 11.5-28.9 13.4-39.9 13.8-6.4 0.2-12.9 0.3-19.3 0.3-63.1 0-130.6-11.5-200.8-34.2-45.8-14.8-81.1-29.5-111.3-46.4-25.3-14-60.9-36.5-78.2-69.3q-5.1-9.6-7.4-19.2-8-1.4-15.6-3c-11.7 2-23 3.3-33.2 4.5h-0.4c-6 0.7-11.7 1.3-16.4 2l-7.3 1.1c-27.9 4.3-56.6 8.6-80.9 18.9-21.5 9.2-42.1 23.2-62 36.8l-8.1 5.4c-1.1 0.8-2.4 1.8-3.9 2.8-10.1 7.5-25.2 18.6-42.3 18.6-5.6 0-11-1.2-15.9-3.5-25.3-11.9-31.2-44.2-15.4-84.3 10.7-27.4 29.2-50.5 49.2-69.2-16.2 2.6-31.2 3.9-44.9 3.9-55 0-72.3-20.5-77.6-32.7-1.9-4.1-2.8-8.3-2.9-12.5-10.5-1.4-21-4.9-31.5-10.5-6.6-3.5-11.2-10-12.4-17.3l-0.1-0.4q0-0.5-0.1-1c-0.7-5.8 0.7-11.5 3.8-16.1 1-3.3 3.1-11.3 5.7-25.9 3.3-18.8 20.7-67.9 60.5-69 4.6-0.1 10.5-2.2 16.8-4.3 4.9-1.7 10.4-3.6 16.4-4.9 23.7-5.5 43.2-8 61.4-8 9.9 0 19.6 0.8 28.8 2.4 30.7 5.3 56.5 20.3 74.3 43.4q1.8 2.3 3.6 4.8c1.1 1.5 2.6 3.4 4.1 5.4 74.9-122.7 210.1-141.2 284.8-141.2 33.2 0 57.9 3.6 69.7 5.7 34.1 6.2 65.1 15.8 92.3 28.6 44.4 20.9 146.1 113.4 161.3 129.2 4 4.2 7.6 8.3 11.1 12.3 10.1 11.4 18 20.5 29 23.9 9.4 2.9 16.5 11.2 17.6 21.2q0.4 3.6-0.1 7 0.7-0.1 1.5-0.1c15.2-1 29.7-3.2 43.1-6.4l0.8-0.1c7.1-1.8 15.1-3.7 24.2-3.7 5.6 0 10.8 0.8 15.9 2.3 14.1 4.2 23.6 13.9 26 26.7z"/><path class="b" d="m1078.1 272.5c4.5 24.2-18.9 45.3-29.1 53.2-48.4 37.5-111.3 59.2-167.6 57.8-26.9-0.7-59-7.2-72.9-31.5-23.1 9.1-49.2 16.3-78.7 21.7q1.9 1 3.8 1.9c25.1 12.2 50.9 26 79 42.2q6.6 3.8 13.4 7.6c26.3 14.8 53.4 30.1 74.5 54 27.4 31 7.8 51.6 3.6 55.4-12.7 11.4-28.8 13.3-39.9 13.7-6.3 0.3-12.8 0.4-19.3 0.4-63 0-130.6-11.5-200.8-34.2-45.7-14.9-81.1-29.6-111.3-46.4-25.3-14.1-60.8-36.6-78.2-69.4q-5.1-9.6-7.4-19.1-7.9-1.4-15.6-3.1c-11.6 2.1-23 3.4-33.2 4.5h-0.3c-6.1 0.7-11.8 1.4-16.4 2.1l-7.4 1.1c-27.8 4.2-56.6 8.6-80.8 18.9-21.6 9.1-42.2 23.2-62.1 36.7l-8 5.5c-1.2 0.7-2.5 1.7-3.9 2.8-10.2 7.5-25.2 18.5-42.4 18.5-5.6 0-10.9-1.2-15.9-3.5-25.2-11.9-31.1-44.2-15.4-84.3 10.8-27.4 29.2-50.4 49.3-69.1-16.3 2.5-31.3 3.8-45 3.8-55 0-72.2-20.4-77.6-32.6-1.8-4.1-2.8-8.4-2.9-12.6-10.4-1.4-21-4.9-31.5-10.4-6.5-3.6-11.2-10-12.4-17.4v-0.4q-0.1-0.5-0.2-1c-0.7-5.7 0.8-11.4 3.9-16.1 1-3.3 3-11.3 5.6-25.8 3.3-18.8 20.7-67.9 60.5-69.1 4.6-0.1 10.6-2.1 16.9-4.3 4.9-1.6 10.4-3.5 16.3-4.9 23.7-5.4 43.2-7.9 61.4-7.9 10 0 19.7 0.7 28.8 2.3 30.8 5.3 56.5 20.4 74.4 43.4q1.7 2.4 3.6 4.8c1.1 1.5 2.5 3.5 4.1 5.4 74.9-122.7 210-141.2 284.7-141.2 33.2 0 58 3.6 69.7 5.7 34.1 6.2 65.1 15.8 92.3 28.6 44.4 20.9 146.2 113.5 161.4 129.3 4 4.1 7.5 8.2 11 12.2 10.1 11.5 18 20.6 29 24 9.4 2.9 16.5 11.2 17.7 21.1q0.4 3.6-0.2 7 0.8 0 1.5-0.1c15.3-1 29.8-3.1 43.1-6.3l0.8-0.2c7.2-1.7 15.2-3.6 24.2-3.6 5.7 0 10.9 0.7 15.9 2.2 14.2 4.2 23.6 14 26 26.7z"/><path class="c" d="m1076.5 270.9c4.5 24.2-18.9 45.2-29.2 53.2-48.4 37.4-111.3 59.2-167.5 57.7-27-0.7-59.1-7.1-73-31.5-23.1 9.2-49.2 16.4-78.7 21.8q1.9 0.9 3.9 1.8c25 12.2 50.8 26 78.9 42.2q6.7 3.9 13.4 7.7c26.3 14.8 53.4 30.1 74.5 53.9 27.4 31.1 7.8 51.6 3.6 55.4-12.6 11.4-28.8 13.3-39.8 13.7-6.4 0.3-12.9 0.4-19.4 0.4-63 0-130.5-11.5-200.7-34.2-45.8-14.8-81.2-29.6-111.4-46.4-25.2-14.1-60.8-36.6-78.1-69.3q-5.1-9.7-7.4-19.2-8-1.4-15.7-3.1c-11.6 2.1-22.9 3.4-33.1 4.5l-0.4 0.1c-6.1 0.7-11.8 1.3-16.4 2l-7.3 1.1c-27.9 4.2-56.7 8.6-80.9 18.9-21.5 9.2-42.1 23.2-62.1 36.8l-8 5.4c-1.1 0.8-2.4 1.8-3.9 2.8-10.2 7.5-25.2 18.5-42.3 18.5-5.6 0-11-1.1-15.9-3.4-25.3-11.9-31.2-44.2-15.4-84.4 10.7-27.3 29.2-50.4 49.2-69.1-16.2 2.6-31.2 3.9-44.9 3.9-55.1 0-72.3-20.5-77.7-32.7-1.8-4.1-2.7-8.3-2.8-12.5-10.5-1.4-21.1-4.9-31.5-10.5-6.6-3.5-11.2-10-12.4-17.3l-0.1-0.4q-0.1-0.5-0.1-1.1c-0.7-5.7 0.7-11.4 3.8-16.1 1-3.2 3.1-11.2 5.7-25.8 3.3-18.8 20.7-67.9 60.5-69 4.6-0.2 10.5-2.2 16.8-4.3 4.9-1.7 10.4-3.6 16.4-5 23.6-5.4 43.1-7.9 61.3-7.9 10 0 19.7 0.8 28.9 2.4 30.7 5.3 56.4 20.3 74.3 43.4q1.8 2.3 3.6 4.8c1.1 1.4 2.6 3.4 4.1 5.3 74.9-122.6 210.1-141.1 284.7-141.1 33.3 0 58 3.5 69.8 5.7 34 6.2 65.1 15.8 92.3 28.6 44.4 20.9 146.1 113.4 161.3 129.2 4 4.2 7.6 8.3 11.1 12.2 10 11.5 18 20.6 28.9 24 9.5 2.9 16.5 11.2 17.7 21.2q0.4 3.6-0.1 6.9 0.7 0 1.4 0c15.3-1 29.8-3.2 43.1-6.4l0.8-0.2c7.2-1.7 15.2-3.6 24.3-3.6 5.6 0 10.8 0.7 15.9 2.2 14.1 4.3 23.6 14 26 26.8z"/><path class="d" d="m1074.8 269.2c4.5 24.2-18.9 45.3-29.1 53.2-48.4 37.4-111.4 59.2-167.6 57.8-26.9-0.7-59.1-7.2-72.9-31.5-23.2 9.1-49.3 16.3-78.7 21.7q1.9 0.9 3.8 1.9c25 12.1 50.9 25.9 79 42.2q6.6 3.8 13.4 7.6c26.2 14.8 53.3 30.1 74.4 53.9 27.5 31.1 7.9 51.6 3.7 55.4-12.7 11.5-28.8 13.4-39.9 13.8-6.3 0.2-12.8 0.4-19.3 0.4-63.1 0-130.6-11.6-200.8-34.3-45.7-14.8-81.1-29.5-111.3-46.4-25.3-14-60.9-36.5-78.2-69.3q-5.1-9.6-7.4-19.2-8-1.3-15.6-3c-11.6 2.1-23 3.3-33.2 4.5h-0.4c-6 0.7-11.7 1.3-16.4 2l-7.3 1.2c-27.8 4.2-56.6 8.5-80.8 18.8-21.6 9.2-42.2 23.2-62.1 36.8l-8 5.5c-1.2 0.7-2.5 1.7-3.9 2.8-10.2 7.4-25.3 18.5-42.4 18.5-5.6 0-10.9-1.2-15.9-3.5-25.2-11.9-31.1-44.2-15.4-84.3 10.7-27.4 29.2-50.5 49.2-69.2-16.2 2.6-31.2 3.9-44.9 3.9-55 0-72.3-20.4-77.6-32.6-1.8-4.1-2.8-8.4-2.9-12.6-10.5-1.4-21-4.9-31.5-10.5-6.6-3.5-11.2-9.9-12.4-17.3v-0.4q-0.1-0.5-0.2-1c-0.7-5.7 0.7-11.5 3.8-16.1 1-3.3 3.1-11.3 5.7-25.9 3.3-18.8 20.7-67.9 60.5-69 4.6-0.1 10.5-2.2 16.8-4.3 4.9-1.7 10.5-3.6 16.4-4.9 23.7-5.4 43.2-8 61.4-8 10 0 19.7 0.8 28.8 2.4 30.8 5.3 56.5 20.3 74.3 43.4q1.8 2.3 3.6 4.8c1.1 1.5 2.6 3.4 4.1 5.4 74.9-122.7 210.1-141.2 284.8-141.2 33.2 0 57.9 3.6 69.7 5.7 34.1 6.2 65.1 15.8 92.3 28.6 44.4 20.9 146.2 113.4 161.3 129.2 4 4.2 7.6 8.3 11.1 12.3 10.1 11.4 18 20.5 29 23.9 9.4 3 16.5 11.2 17.6 21.2q0.5 3.6-0.1 7 0.7-0.1 1.5-0.1c15.2-1 29.7-3.1 43.1-6.3l0.8-0.2c7.2-1.8 15.1-3.7 24.2-3.7 5.6 0 10.8 0.8 15.9 2.3 14.1 4.2 23.6 14 26 26.7z"/><path class="e" d="m1073.1 267.6c4.5 24.1-18.8 45.2-29.1 53.1-48.4 37.5-111.3 59.2-167.6 57.8-26.9-0.7-59-7.1-72.9-31.5-23.1 9.1-49.2 16.4-78.7 21.7q1.9 1 3.8 1.9c25.1 12.2 50.9 26 79 42.2q6.7 3.9 13.4 7.6c26.3 14.9 53.4 30.1 74.5 54 27.4 31 7.8 51.6 3.6 55.4-12.6 11.4-28.8 13.3-39.9 13.7-6.3 0.3-12.8 0.4-19.3 0.4-63 0-130.6-11.5-200.7-34.2-45.8-14.8-81.2-29.6-111.4-46.4-25.3-14.1-60.8-36.6-78.2-69.4q-5.1-9.6-7.4-19.1-7.9-1.4-15.6-3.1c-11.6 2.1-23 3.4-33.2 4.5h-0.3c-6.1 0.7-11.8 1.4-16.4 2.1l-7.4 1.1c-27.8 4.2-56.6 8.6-80.8 18.9-21.5 9.2-42.1 23.2-62.1 36.7l-8 5.5c-1.1 0.8-2.5 1.7-3.9 2.8-10.2 7.5-25.2 18.5-42.3 18.5-5.7 0-11-1.2-16-3.5-25.2-11.8-31.1-44.1-15.4-84.3 10.8-27.3 29.3-50.4 49.3-69.1-16.3 2.6-31.3 3.9-44.9 3.9-55.1 0-72.3-20.5-77.7-32.7-1.8-4.1-2.7-8.4-2.9-12.6-10.4-1.4-21-4.9-31.4-10.4-6.6-3.5-11.2-10-12.4-17.3l-0.1-0.5q-0.1-0.5-0.2-1c-0.7-5.7 0.8-11.4 3.9-16.1 1-3.2 3-11.3 5.6-25.8 3.4-18.8 20.7-67.9 60.5-69.1 4.6-0.1 10.6-2.1 16.9-4.3 4.9-1.6 10.4-3.5 16.4-4.9 23.6-5.4 43.1-7.9 61.3-7.9 10 0 19.7 0.8 28.8 2.3 30.8 5.4 56.5 20.4 74.4 43.5q1.8 2.3 3.6 4.7c1.1 1.5 2.5 3.5 4.1 5.4 74.9-122.6 210-141.2 284.7-141.2 33.3 0 58 3.6 69.7 5.8 34.1 6.1 65.1 15.8 92.3 28.5 44.5 20.9 146.2 113.5 161.4 129.3 4 4.2 7.6 8.3 11 12.2 10.1 11.5 18 20.6 29 24 9.5 2.9 16.5 11.2 17.7 21.2q0.4 3.6-0.1 6.9 0.7 0 1.4-0.1c15.3-1 29.8-3.1 43.1-6.3l0.8-0.2c7.2-1.7 15.2-3.6 24.2-3.6 5.7 0 10.9 0.7 16 2.2 14.1 4.2 23.6 14 25.9 26.8z"/><path class="f" d="m1071.5 265.9c4.5 24.2-18.9 45.2-29.2 53.2-48.3 37.4-111.3 59.2-167.5 57.7-27-0.7-59.1-7.1-72.9-31.4-23.2 9.1-49.3 16.3-78.8 21.7q1.9 0.9 3.9 1.9c25 12.1 50.8 25.9 78.9 42.2q6.7 3.8 13.4 7.6c26.3 14.8 53.4 30.1 74.5 53.9 27.5 31.1 7.9 51.6 3.7 55.4-12.7 11.5-28.9 13.3-39.9 13.8-6.4 0.2-12.9 0.3-19.3 0.3-63.1 0-130.6-11.5-200.8-34.2-45.8-14.8-81.2-29.5-111.4-46.4-25.2-14.1-60.8-36.6-78.1-69.3q-5.1-9.6-7.4-19.2-8-1.4-15.6-3c-11.7 2-23 3.3-33.2 4.4l-0.4 0.1c-6 0.7-11.7 1.3-16.4 2l-7.3 1.1c-27.9 4.2-56.6 8.6-80.9 18.9-21.5 9.2-42.1 23.2-62 36.8l-8.1 5.4c-1.1 0.8-2.4 1.8-3.9 2.8-10.1 7.5-25.2 18.6-42.3 18.6-5.6 0-11-1.2-15.9-3.5-25.3-11.9-31.2-44.2-15.4-84.4 10.7-27.3 29.2-50.4 49.2-69.1-16.2 2.6-31.2 3.9-44.9 3.9-55.1 0-72.3-20.5-77.7-32.7-1.8-4.1-2.7-8.3-2.8-12.5-10.5-1.4-21.1-4.9-31.5-10.5-6.6-3.5-11.2-10-12.4-17.3l-0.1-0.4q-0.1-0.5-0.1-1c-0.7-5.8 0.7-11.5 3.8-16.2 1-3.2 3.1-11.2 5.7-25.8 3.3-18.8 20.7-67.9 60.5-69 4.6-0.2 10.5-2.2 16.8-4.3 4.9-1.7 10.4-3.6 16.4-4.9 23.7-5.5 43.2-8 61.4-8 9.9 0 19.6 0.8 28.8 2.4 30.7 5.3 56.4 20.3 74.3 43.4q1.8 2.3 3.6 4.8c1.1 1.4 2.6 3.4 4.1 5.3 74.9-122.6 210.1-141.1 284.7-141.1 33.3 0 58 3.6 69.8 5.7 34 6.2 65.1 15.8 92.3 28.6 44.4 20.9 146.1 113.4 161.3 129.2 4 4.2 7.6 8.3 11.1 12.2 10 11.5 18 20.6 28.9 24 9.5 2.9 16.6 11.2 17.7 21.2q0.4 3.6-0.1 7 0.7-0.1 1.4-0.1c15.3-1 29.8-3.2 43.1-6.4l0.8-0.2c7.2-1.7 15.2-3.6 24.3-3.6 5.6 0 10.8 0.7 15.9 2.3 14.1 4.2 23.6 13.9 26 26.7z"/><path class="g" d="m1069.8 264.2c4.5 24.2-18.9 45.3-29.1 53.2-48.4 37.4-111.3 59.2-167.6 57.8-26.9-0.7-59-7.2-72.9-31.5-23.1 9.1-49.3 16.3-78.7 21.7q1.9 1 3.8 1.9c25 12.1 50.9 25.9 79 42.2q6.6 3.8 13.4 7.6c26.3 14.8 53.3 30.1 74.4 54 27.5 31 7.9 51.5 3.7 55.3-12.7 11.5-28.8 13.4-39.9 13.8-6.3 0.2-12.8 0.4-19.3 0.4-63 0-130.6-11.6-200.8-34.3-45.7-14.8-81.1-29.5-111.3-46.3-25.3-14.1-60.9-36.6-78.2-69.4q-5.1-9.6-7.4-19.2-8-1.3-15.6-3c-11.6 2.1-23 3.3-33.2 4.5h-0.4c-6 0.7-11.7 1.3-16.3 2.1l-7.4 1.1c-27.8 4.2-56.6 8.5-80.8 18.9-21.6 9.1-42.2 23.2-62.1 36.7l-8 5.5c-1.2 0.7-2.5 1.7-3.9 2.8-10.2 7.4-25.2 18.5-42.4 18.5-5.6 0-10.9-1.2-15.9-3.5-25.2-11.9-31.1-44.2-15.4-84.3 10.8-27.4 29.2-50.5 49.2-69.1-16.2 2.5-31.2 3.8-44.9 3.8-55 0-72.3-20.4-77.6-32.6-1.8-4.1-2.8-8.4-2.9-12.6-10.4-1.4-21-4.9-31.5-10.5-6.6-3.5-11.2-9.9-12.4-17.3v-0.4q-0.1-0.5-0.2-1c-0.7-5.7 0.8-11.4 3.8-16.1 1-3.3 3.1-11.3 5.7-25.8 3.3-18.9 20.7-67.9 60.5-69.1 4.6-0.1 10.6-2.1 16.9-4.3 4.8-1.7 10.4-3.5 16.3-4.9 23.7-5.4 43.2-8 61.4-8 10 0 19.7 0.8 28.8 2.4 30.8 5.3 56.5 20.3 74.4 43.4q1.7 2.3 3.6 4.8c1.1 1.5 2.5 3.4 4 5.4 75-122.7 210.1-141.2 284.8-141.2 33.2 0 57.9 3.6 69.7 5.7 34.1 6.2 65.1 15.8 92.3 28.6 44.4 20.9 146.2 113.4 161.3 129.3 4 4.1 7.6 8.2 11.1 12.2 10.1 11.4 18 20.6 29 23.9 9.4 3 16.5 11.3 17.6 21.2q0.5 3.6-0.1 7 0.8 0 1.5-0.1c15.2-1 29.7-3.1 43.1-6.3l0.8-0.2c7.2-1.7 15.2-3.7 24.2-3.7 5.7 0 10.9 0.8 15.9 2.3 14.2 4.2 23.6 14 26 26.7z"/><path class="h" d="m1068.2 262.6c4.5 24.1-18.9 45.2-29.2 53.2-48.4 37.4-111.3 59.2-167.5 57.7-27-0.7-59.1-7.1-73-31.5-23.1 9.2-49.2 16.4-78.7 21.8q1.9 0.9 3.9 1.8c25 12.2 50.8 26 78.9 42.2q6.7 3.9 13.4 7.7c26.3 14.8 53.4 30 74.5 53.9 27.4 31 7.8 51.6 3.6 55.4-12.6 11.4-28.8 13.3-39.9 13.7-6.3 0.3-12.8 0.4-19.3 0.4-63 0-130.6-11.5-200.7-34.2-45.8-14.8-81.2-29.6-111.4-46.4-25.2-14.1-60.8-36.6-78.2-69.4q-5-9.6-7.4-19.1-7.9-1.4-15.6-3.1c-11.6 2.1-23 3.4-33.1 4.5l-0.4 0.1c-6.1 0.6-11.8 1.3-16.4 2l-7.3 1.1c-27.9 4.2-56.7 8.6-80.9 18.9-21.5 9.2-42.1 23.2-62.1 36.8l-8 5.4c-1.1 0.8-2.4 1.7-3.9 2.8-10.2 7.5-25.2 18.5-42.3 18.5-5.6 0-11-1.1-15.9-3.5-25.3-11.8-31.2-44.1-15.4-84.3 10.7-27.3 29.2-50.4 49.2-69.1-16.3 2.6-31.3 3.9-44.9 3.9-55.1 0-72.3-20.5-77.7-32.7-1.8-4.1-2.7-8.3-2.8-12.5-10.5-1.4-21.1-5-31.5-10.5-6.6-3.5-11.2-10-12.4-17.3l-0.1-0.5q-0.1-0.5-0.1-1c-0.7-5.7 0.7-11.4 3.8-16.1 1-3.2 3.1-11.3 5.6-25.8 3.4-18.8 20.7-67.9 60.6-69.1 4.5-0.1 10.5-2.1 16.8-4.3 4.9-1.6 10.4-3.5 16.4-4.9 23.6-5.4 43.1-7.9 61.3-7.9 10 0 19.7 0.8 28.9 2.4 30.7 5.3 56.4 20.3 74.3 43.4q1.8 2.3 3.6 4.7c1.1 1.5 2.6 3.5 4.1 5.4 74.9-122.6 210-141.2 284.7-141.2 33.3 0 58 3.6 69.7 5.8 34.1 6.2 65.2 15.8 92.3 28.6 44.5 20.9 146.2 113.4 161.4 129.2 4 4.2 7.6 8.3 11.1 12.2 10 11.5 18 20.6 28.9 24 9.5 2.9 16.5 11.2 17.7 21.2q0.4 3.6-0.1 6.9 0.7 0 1.4-0.1c15.3-1 29.8-3.1 43.1-6.3l0.8-0.2c7.2-1.7 15.2-3.6 24.3-3.6 5.6 0 10.8 0.7 15.9 2.2 14.1 4.3 23.6 14 26 26.8z"/><path class="i" d="m1066.5 260.9c4.5 24.2-18.9 45.3-29.1 53.2-48.4 37.4-111.4 59.2-167.6 57.7-27-0.7-59.1-7.1-72.9-31.4-23.2 9.1-49.3 16.3-78.7 21.7q1.9 0.9 3.8 1.9c25 12.1 50.8 25.9 78.9 42.2q6.7 3.8 13.5 7.6c26.2 14.8 53.3 30.1 74.4 53.9 27.5 31.1 7.9 51.6 3.7 55.4-12.7 11.5-28.9 13.4-39.9 13.8-6.4 0.2-12.9 0.3-19.3 0.3-63.1 0-130.6-11.5-200.8-34.2-45.8-14.8-81.1-29.5-111.3-46.4-25.3-14-60.9-36.5-78.2-69.3q-5.1-9.6-7.4-19.2-8-1.4-15.6-3c-11.7 2-23 3.3-33.2 4.5h-0.4c-6 0.7-11.7 1.3-16.4 2l-7.3 1.1c-27.9 4.3-56.6 8.6-80.9 18.9-21.5 9.2-42.1 23.2-62 36.8l-8.1 5.4c-1.1 0.8-2.4 1.8-3.9 2.8-10.1 7.5-25.2 18.6-42.3 18.6-5.6 0-11-1.2-15.9-3.5-25.3-11.9-31.2-44.2-15.4-84.3 10.7-27.4 29.2-50.5 49.2-69.2-16.2 2.6-31.2 3.9-44.9 3.9-55 0-72.3-20.5-77.6-32.7-1.9-4.1-2.8-8.3-2.9-12.5-10.5-1.4-21-4.9-31.5-10.5-6.6-3.5-11.2-10-12.4-17.3l-0.1-0.4q0-0.5-0.1-1c-0.7-5.8 0.7-11.5 3.8-16.1 1-3.3 3.1-11.3 5.7-25.9 3.3-18.8 20.7-67.9 60.5-69 4.6-0.1 10.5-2.2 16.8-4.3 4.9-1.7 10.4-3.6 16.4-4.9 23.7-5.5 43.2-8 61.4-8 9.9 0 19.6 0.8 28.8 2.4 30.7 5.3 56.5 20.3 74.3 43.4q1.8 2.3 3.6 4.8c1.1 1.5 2.6 3.4 4.1 5.4 74.9-122.7 210.1-141.2 284.8-141.2 33.2 0 57.9 3.6 69.7 5.7 34.1 6.2 65.1 15.8 92.3 28.6 44.4 20.9 146.1 113.4 161.3 129.2 4 4.2 7.6 8.3 11.1 12.3 10.1 11.4 18 20.5 29 23.9 9.4 2.9 16.5 11.2 17.6 21.2q0.4 3.6-0.1 7 0.7-0.1 1.5-0.1c15.2-1 29.7-3.2 43.1-6.4l0.8-0.1c7.1-1.8 15.1-3.7 24.2-3.7 5.6 0 10.8 0.8 15.9 2.3 14.1 4.2 23.6 13.9 26 26.7z"/><path class="j" d="m1064.8 259.2c4.5 24.2-18.9 45.3-29.1 53.2-48.4 37.5-111.3 59.2-167.6 57.8-26.9-0.7-59-7.2-72.9-31.5-23.1 9.1-49.2 16.3-78.7 21.7q1.9 1 3.8 1.9c25.1 12.2 50.9 26 79 42.2q6.6 3.8 13.4 7.6c26.3 14.8 53.4 30.1 74.5 54 27.4 31 7.8 51.6 3.6 55.4-12.7 11.4-28.8 13.3-39.9 13.7-6.3 0.3-12.8 0.4-19.3 0.4-63 0-130.6-11.5-200.8-34.2-45.7-14.9-81.1-29.6-111.3-46.4-25.3-14.1-60.8-36.6-78.2-69.4q-5.1-9.6-7.4-19.1-7.9-1.4-15.6-3.1c-11.6 2.1-23 3.4-33.2 4.5h-0.3c-6.1 0.7-11.8 1.4-16.4 2.1l-7.4 1.1c-27.8 4.2-56.6 8.6-80.8 18.9-21.6 9.1-42.2 23.2-62.1 36.7l-8 5.5c-1.2 0.7-2.5 1.7-3.9 2.8-10.2 7.5-25.2 18.5-42.4 18.5-5.6 0-10.9-1.2-15.9-3.5-25.2-11.9-31.1-44.2-15.4-84.3 10.8-27.4 29.2-50.4 49.3-69.1-16.3 2.5-31.3 3.8-45 3.8-55 0-72.2-20.4-77.6-32.6-1.8-4.1-2.8-8.4-2.9-12.6-10.4-1.4-21-4.9-31.5-10.4-6.5-3.6-11.2-10-12.4-17.4v-0.4q-0.1-0.5-0.2-1c-0.7-5.7 0.8-11.4 3.9-16.1 1-3.3 3-11.3 5.6-25.8 3.3-18.8 20.7-67.9 60.5-69.1 4.6-0.1 10.6-2.1 16.9-4.3 4.9-1.6 10.4-3.5 16.3-4.9 23.7-5.4 43.2-7.9 61.4-7.9 10 0 19.7 0.7 28.8 2.3 30.8 5.3 56.5 20.4 74.4 43.4q1.7 2.4 3.6 4.8c1.1 1.5 2.5 3.5 4.1 5.4 74.9-122.7 210-141.2 284.7-141.2 33.2 0 58 3.6 69.7 5.7 34.1 6.2 65.1 15.8 92.3 28.6 44.4 20.9 146.2 113.5 161.4 129.3 4 4.1 7.5 8.2 11 12.2 10.1 11.5 18 20.6 29 24 9.4 2.9 16.5 11.2 17.7 21.1q0.4 3.6-0.2 7 0.8 0 1.5-0.1c15.3-1 29.8-3.1 43.1-6.3l0.8-0.2c7.2-1.7 15.2-3.6 24.2-3.6 5.7 0 10.9 0.7 15.9 2.2 14.2 4.2 23.6 14 26 26.7z"/><path class="k" d="m1063.2 257.6c4.5 24.2-18.9 45.2-29.2 53.2-48.4 37.4-111.3 59.2-167.5 57.7-27-0.7-59.1-7.1-73-31.5-23.1 9.2-49.2 16.4-78.7 21.8q1.9 0.9 3.9 1.8c25 12.2 50.8 26 78.9 42.2q6.7 3.9 13.4 7.7c26.3 14.8 53.4 30.1 74.5 53.9 27.4 31.1 7.8 51.6 3.6 55.4-12.6 11.4-28.8 13.3-39.8 13.7-6.4 0.3-12.9 0.4-19.4 0.4-63 0-130.5-11.5-200.7-34.2-45.8-14.8-81.2-29.6-111.4-46.4-25.2-14.1-60.8-36.6-78.1-69.3q-5.1-9.7-7.4-19.2-8-1.4-15.7-3.1c-11.6 2.1-22.9 3.4-33.1 4.5l-0.4 0.1c-6.1 0.7-11.8 1.3-16.4 2l-7.3 1.1c-27.9 4.2-56.7 8.6-80.9 18.9-21.5 9.2-42.1 23.2-62.1 36.8l-8 5.4c-1.1 0.8-2.4 1.8-3.9 2.8-10.2 7.5-25.2 18.5-42.3 18.5-5.6 0-11-1.1-15.9-3.4-25.3-11.9-31.2-44.2-15.4-84.4 10.7-27.3 29.2-50.4 49.2-69.1-16.2 2.6-31.2 3.9-44.9 3.9-55.1 0-72.3-20.5-77.7-32.7-1.8-4.1-2.7-8.3-2.8-12.5-10.5-1.4-21.1-4.9-31.5-10.5-6.6-3.5-11.2-10-12.4-17.3l-0.1-0.4q-0.1-0.5-0.1-1.1c-0.7-5.7 0.7-11.4 3.8-16.1 1-3.2 3.1-11.2 5.7-25.8 3.3-18.8 20.7-67.9 60.5-69 4.6-0.2 10.5-2.2 16.8-4.3 4.9-1.7 10.4-3.6 16.4-5 23.6-5.4 43.1-7.9 61.3-7.9 10 0 19.7 0.8 28.9 2.4 30.7 5.3 56.4 20.3 74.3 43.4q1.8 2.3 3.6 4.8c1.1 1.4 2.6 3.4 4.1 5.3 74.9-122.6 210.1-141.1 284.7-141.1 33.3 0 58 3.5 69.8 5.7 34 6.2 65.1 15.8 92.3 28.6 44.4 20.9 146.1 113.4 161.3 129.2 4 4.2 7.6 8.3 11.1 12.2 10 11.5 18 20.6 28.9 24 9.5 2.9 16.5 11.2 17.7 21.2q0.4 3.6-0.1 6.9 0.7 0 1.4 0c15.3-1 29.8-3.2 43.1-6.4l0.8-0.2c7.2-1.7 15.2-3.6 24.3-3.6 5.6 0 10.8 0.7 15.9 2.2 14.1 4.3 23.6 14 26 26.8z"/><path class="l" d="m1061.5 255.9c4.5 24.2-18.9 45.3-29.1 53.2-48.4 37.4-111.4 59.2-167.6 57.8-26.9-0.7-59.1-7.2-72.9-31.5-23.2 9.1-49.3 16.3-78.7 21.7q1.9 0.9 3.8 1.9c25 12.1 50.9 25.9 79 42.2q6.6 3.8 13.4 7.6c26.2 14.8 53.3 30.1 74.4 53.9 27.5 31.1 7.9 51.6 3.7 55.4-12.7 11.5-28.8 13.4-39.9 13.8-6.3 0.2-12.8 0.4-19.3 0.4-63.1 0-130.6-11.6-200.8-34.3-45.7-14.8-81.1-29.5-111.3-46.4-25.3-14-60.9-36.5-78.2-69.3q-5.1-9.6-7.4-19.2-8-1.3-15.6-3c-11.6 2.1-23 3.3-33.2 4.5h-0.4c-6 0.7-11.7 1.3-16.4 2l-7.3 1.2c-27.8 4.2-56.6 8.5-80.8 18.8-21.6 9.2-42.2 23.2-62.1 36.8l-8 5.5c-1.2 0.7-2.5 1.7-3.9 2.8-10.2 7.4-25.3 18.5-42.4 18.5-5.6 0-10.9-1.2-15.9-3.5-25.2-11.9-31.1-44.2-15.4-84.3 10.7-27.4 29.2-50.5 49.2-69.2-16.2 2.6-31.2 3.9-44.9 3.9-55 0-72.3-20.4-77.6-32.6-1.8-4.1-2.8-8.4-2.9-12.6-10.5-1.4-21-4.9-31.5-10.5-6.6-3.5-11.2-9.9-12.4-17.3v-0.4q-0.1-0.5-0.2-1c-0.7-5.7 0.7-11.5 3.8-16.1 1-3.3 3.1-11.3 5.7-25.9 3.3-18.8 20.7-67.9 60.5-69 4.6-0.1 10.5-2.2 16.8-4.3 4.9-1.7 10.5-3.6 16.4-4.9 23.7-5.4 43.2-8 61.4-8 10 0 19.7 0.8 28.8 2.4 30.8 5.3 56.5 20.3 74.3 43.4q1.8 2.3 3.6 4.8c1.1 1.5 2.6 3.4 4.1 5.4 74.9-122.7 210.1-141.2 284.8-141.2 33.2 0 57.9 3.6 69.7 5.7 34.1 6.2 65.1 15.8 92.3 28.6 44.4 20.9 146.2 113.4 161.3 129.2 4 4.2 7.6 8.3 11.1 12.3 10.1 11.4 18 20.5 29 23.9 9.4 3 16.5 11.2 17.6 21.2q0.5 3.6-0.1 7 0.7-0.1 1.5-0.1c15.2-1 29.7-3.1 43.1-6.3l0.8-0.2c7.2-1.8 15.1-3.7 24.2-3.7 5.6 0 10.8 0.8 15.9 2.3 14.1 4.2 23.6 14 26 26.7z"/><path class="m" d="m1059.8 254.3c4.5 24.1-18.8 45.2-29.1 53.1-48.4 37.5-111.3 59.2-167.6 57.8-26.9-0.7-59-7.1-72.9-31.5-23.1 9.1-49.2 16.4-78.7 21.7q1.9 1 3.8 1.9c25.1 12.2 50.9 26 79 42.2q6.7 3.9 13.4 7.6c26.3 14.9 53.4 30.1 74.5 54 27.4 31 7.8 51.6 3.6 55.4-12.6 11.4-28.8 13.3-39.9 13.7-6.3 0.3-12.8 0.4-19.3 0.4-63 0-130.6-11.5-200.7-34.2-45.8-14.8-81.2-29.6-111.4-46.4-25.3-14.1-60.8-36.6-78.2-69.4q-5.1-9.6-7.4-19.1-7.9-1.4-15.6-3.1c-11.6 2.1-23 3.4-33.2 4.5h-0.3c-6.1 0.7-11.8 1.4-16.4 2.1l-7.4 1.1c-27.8 4.2-56.6 8.6-80.8 18.9-21.5 9.2-42.1 23.2-62.1 36.7l-8 5.5c-1.1 0.8-2.5 1.7-3.9 2.8-10.2 7.5-25.2 18.5-42.3 18.5-5.7 0-11-1.2-16-3.5-25.2-11.8-31.1-44.1-15.4-84.3 10.8-27.3 29.3-50.4 49.3-69.1-16.3 2.6-31.3 3.9-44.9 3.9-55.1 0-72.3-20.5-77.7-32.7-1.8-4.1-2.7-8.4-2.9-12.6-10.4-1.4-21-4.9-31.4-10.4-6.6-3.5-11.2-10-12.4-17.3l-0.1-0.5q-0.1-0.5-0.2-1c-0.7-5.7 0.8-11.4 3.9-16.1 1-3.2 3-11.3 5.6-25.8 3.4-18.8 20.7-67.9 60.5-69.1 4.6-0.1 10.6-2.1 16.9-4.3 4.9-1.6 10.4-3.5 16.4-4.9 23.6-5.4 43.1-7.9 61.3-7.9 10 0 19.7 0.8 28.8 2.3 30.8 5.4 56.5 20.4 74.4 43.5q1.8 2.3 3.6 4.7c1.1 1.5 2.5 3.5 4.1 5.4 74.9-122.6 210-141.2 284.7-141.2 33.3 0 58 3.6 69.7 5.8 34.1 6.1 65.1 15.8 92.3 28.5 44.5 20.9 146.2 113.5 161.4 129.3 4 4.2 7.6 8.3 11 12.2 10.1 11.5 18 20.6 29 24 9.5 2.9 16.5 11.2 17.7 21.2q0.4 3.6-0.1 6.9 0.7 0 1.4-0.1c15.3-1 29.8-3.1 43.1-6.3l0.8-0.2c7.2-1.7 15.2-3.6 24.2-3.6 5.7 0 10.9 0.7 16 2.2 14.1 4.2 23.6 14 25.9 26.8z"/><path class="n" d="m1058.2 252.6c4.5 24.2-18.9 45.2-29.2 53.2-48.3 37.4-111.3 59.2-167.5 57.7-27-0.7-59.1-7.1-72.9-31.4-23.2 9.1-49.3 16.3-78.8 21.7q1.9 0.9 3.9 1.9c25 12.1 50.8 25.9 78.9 42.2q6.7 3.8 13.4 7.6c26.3 14.8 53.4 30.1 74.5 53.9 27.5 31.1 7.9 51.6 3.7 55.4-12.7 11.5-28.9 13.3-39.9 13.8-6.4 0.2-12.9 0.3-19.3 0.3-63.1 0-130.6-11.5-200.8-34.2-45.8-14.8-81.2-29.5-111.4-46.4-25.2-14.1-60.8-36.6-78.1-69.3q-5.1-9.6-7.4-19.2-8-1.4-15.6-3c-11.7 2-23 3.3-33.2 4.4l-0.4 0.1c-6 0.7-11.7 1.3-16.4 2l-7.3 1.1c-27.9 4.2-56.6 8.6-80.9 18.9-21.5 9.2-42.1 23.2-62 36.8l-8.1 5.4c-1.1 0.8-2.4 1.8-3.9 2.8-10.1 7.5-25.2 18.6-42.3 18.6-5.6 0-11-1.2-15.9-3.5-25.3-11.9-31.2-44.2-15.4-84.4 10.7-27.3 29.2-50.4 49.2-69.1-16.2 2.6-31.2 3.9-44.9 3.9-55.1 0-72.3-20.5-77.7-32.7-1.8-4.1-2.7-8.3-2.8-12.5-10.5-1.4-21.1-4.9-31.5-10.5-6.6-3.5-11.2-10-12.4-17.3l-0.1-0.4q-0.1-0.5-0.1-1c-0.7-5.8 0.7-11.5 3.8-16.2 1-3.2 3.1-11.2 5.7-25.8 3.3-18.8 20.7-67.9 60.5-69 4.6-0.2 10.5-2.2 16.8-4.3 4.9-1.7 10.4-3.6 16.4-4.9 23.7-5.5 43.2-8 61.4-8 9.9 0 19.6 0.8 28.8 2.4 30.7 5.3 56.4 20.3 74.3 43.4q1.8 2.3 3.6 4.8c1.1 1.4 2.6 3.4 4.1 5.3 74.9-122.6 210.1-141.1 284.7-141.1 33.3 0 58 3.6 69.8 5.7 34 6.2 65.1 15.8 92.3 28.6 44.4 20.9 146.1 113.4 161.3 129.2 4 4.2 7.6 8.3 11.1 12.2 10 11.5 18 20.6 28.9 24 9.5 2.9 16.6 11.2 17.7 21.2q0.4 3.6-0.1 7 0.7-0.1 1.4-0.1c15.3-1 29.8-3.2 43.1-6.4l0.8-0.2c7.2-1.7 15.2-3.6 24.3-3.6 5.6 0 10.8 0.7 15.9 2.3 14.1 4.2 23.6 13.9 26 26.7z"/><path class="o" d="m1056.5 250.9c4.5 24.2-18.9 45.3-29.1 53.2-48.4 37.4-111.3 59.2-167.6 57.8-26.9-0.7-59-7.2-72.9-31.5-23.1 9.1-49.3 16.3-78.7 21.7q1.9 1 3.8 1.9c25 12.1 50.9 25.9 79 42.2q6.6 3.8 13.4 7.6c26.3 14.8 53.3 30.1 74.4 54 27.5 31 7.9 51.5 3.7 55.3-12.7 11.5-28.8 13.4-39.9 13.8-6.3 0.2-12.8 0.4-19.3 0.4-63 0-130.6-11.6-200.8-34.3-45.7-14.8-81.1-29.5-111.3-46.3-25.3-14.1-60.9-36.6-78.2-69.4q-5.1-9.6-7.4-19.2-8-1.3-15.6-3c-11.6 2.1-23 3.3-33.2 4.5h-0.4c-6 0.7-11.7 1.3-16.3 2.1l-7.4 1.1c-27.8 4.2-56.6 8.5-80.8 18.9-21.6 9.1-42.2 23.2-62.1 36.7l-8 5.5c-1.2 0.7-2.5 1.7-3.9 2.8-10.2 7.4-25.2 18.5-42.4 18.5-5.6 0-10.9-1.2-15.9-3.5-25.2-11.9-31.1-44.2-15.4-84.3 10.8-27.4 29.2-50.5 49.2-69.1-16.2 2.5-31.2 3.8-44.9 3.8-55 0-72.3-20.4-77.6-32.6-1.8-4.1-2.8-8.4-2.9-12.6-10.4-1.4-21-4.9-31.5-10.5-6.6-3.5-11.2-9.9-12.4-17.3v-0.4q-0.1-0.5-0.2-1c-0.7-5.7 0.8-11.4 3.8-16.1 1-3.3 3.1-11.3 5.7-25.8 3.3-18.9 20.7-67.9 60.5-69.1 4.6-0.1 10.6-2.1 16.9-4.3 4.8-1.7 10.4-3.5 16.3-4.9 23.7-5.4 43.2-8 61.4-8 10 0 19.7 0.8 28.8 2.4 30.8 5.3 56.5 20.3 74.4 43.4q1.7 2.3 3.6 4.8c1.1 1.5 2.5 3.4 4 5.4 75-122.7 210.1-141.2 284.8-141.2 33.2 0 57.9 3.6 69.7 5.7 34.1 6.2 65.1 15.8 92.3 28.6 44.4 20.9 146.2 113.4 161.3 129.3 4 4.1 7.6 8.2 11.1 12.2 10.1 11.4 18 20.6 29 23.9 9.4 3 16.5 11.3 17.6 21.2q0.5 3.6-0.1 7 0.8 0 1.5-0.1c15.2-1 29.7-3.1 43.1-6.3l0.8-0.2c7.2-1.7 15.2-3.7 24.2-3.7 5.7 0 10.9 0.8 15.9 2.3 14.2 4.2 23.6 14 26 26.7z"/><path class="p" d="m1054.9 249.3c4.5 24.1-18.9 45.2-29.2 53.2-48.4 37.4-111.3 59.2-167.5 57.7-27-0.7-59.1-7.1-73-31.5-23.1 9.2-49.2 16.4-78.7 21.8q1.9 0.9 3.9 1.8c25 12.2 50.8 26 78.9 42.2q6.7 3.9 13.4 7.7c26.3 14.8 53.4 30 74.5 53.9 27.4 31 7.8 51.6 3.6 55.4-12.6 11.4-28.8 13.3-39.9 13.7-6.3 0.3-12.8 0.4-19.3 0.4-63 0-130.6-11.5-200.7-34.2-45.8-14.8-81.2-29.6-111.4-46.4-25.2-14.1-60.8-36.6-78.2-69.4q-5-9.6-7.4-19.1-7.9-1.4-15.6-3.1c-11.6 2.1-23 3.4-33.1 4.5l-0.4 0.1c-6.1 0.6-11.8 1.3-16.4 2l-7.3 1.1c-27.9 4.2-56.7 8.6-80.9 18.9-21.5 9.2-42.1 23.2-62.1 36.8l-8 5.4c-1.1 0.8-2.4 1.7-3.9 2.8-10.2 7.5-25.2 18.5-42.3 18.5-5.6 0-11-1.1-15.9-3.5-25.3-11.8-31.2-44.1-15.4-84.3 10.7-27.3 29.2-50.4 49.2-69.1-16.3 2.6-31.3 3.9-44.9 3.9-55.1 0-72.3-20.5-77.7-32.7-1.8-4.1-2.7-8.3-2.8-12.5-10.5-1.4-21.1-5-31.5-10.5-6.6-3.5-11.2-10-12.4-17.3l-0.1-0.5q-0.1-0.5-0.1-1c-0.7-5.7 0.7-11.4 3.8-16.1 1-3.2 3.1-11.3 5.6-25.8 3.4-18.8 20.7-67.9 60.6-69.1 4.5-0.1 10.5-2.1 16.8-4.3 4.9-1.6 10.4-3.5 16.4-4.9 23.6-5.4 43.1-7.9 61.3-7.9 10 0 19.7 0.8 28.9 2.4 30.7 5.3 56.4 20.3 74.3 43.4q1.8 2.3 3.6 4.7c1.1 1.5 2.6 3.5 4.1 5.4 74.9-122.6 210-141.2 284.7-141.2 33.3 0 58 3.6 69.7 5.8 34.1 6.2 65.2 15.8 92.3 28.6 44.5 20.9 146.2 113.4 161.4 129.2 4 4.2 7.6 8.3 11.1 12.2 10 11.5 18 20.6 28.9 24 9.5 2.9 16.5 11.2 17.7 21.2q0.4 3.6-0.1 6.9 0.7 0 1.4-0.1c15.3-1 29.8-3.1 43.1-6.3l0.8-0.2c7.2-1.7 15.2-3.6 24.3-3.6 5.6 0 10.8 0.7 15.9 2.2 14.1 4.3 23.6 14 26 26.8z"/><path class="q" d="m1053.2 247.6c4.5 24.2-18.9 45.3-29.1 53.2-48.4 37.4-111.4 59.2-167.6 57.7-27-0.7-59.1-7.1-72.9-31.4-23.2 9.1-49.3 16.3-78.7 21.7q1.9 0.9 3.8 1.9c25 12.1 50.8 25.9 78.9 42.2q6.7 3.8 13.5 7.6c26.2 14.8 53.3 30.1 74.4 53.9 27.5 31.1 7.9 51.6 3.7 55.4-12.7 11.5-28.9 13.4-39.9 13.8-6.4 0.2-12.9 0.3-19.3 0.3-63.1 0-130.6-11.5-200.8-34.2-45.8-14.8-81.1-29.5-111.3-46.4-25.3-14-60.9-36.5-78.2-69.3q-5.1-9.6-7.4-19.2-8-1.4-15.6-3c-11.7 2-23 3.3-33.2 4.5h-0.4c-6 0.7-11.7 1.3-16.4 2l-7.3 1.1c-27.9 4.3-56.6 8.6-80.9 18.9-21.5 9.2-42.1 23.2-62 36.8l-8.1 5.4c-1.1 0.8-2.4 1.8-3.9 2.8-10.1 7.5-25.2 18.6-42.3 18.6-5.6 0-11-1.2-15.9-3.5-25.3-11.9-31.2-44.2-15.4-84.3 10.7-27.4 29.2-50.5 49.2-69.2-16.2 2.6-31.2 3.9-44.9 3.9-55 0-72.3-20.5-77.6-32.7-1.9-4.1-2.8-8.3-2.9-12.5-10.5-1.4-21-4.9-31.5-10.5-6.6-3.5-11.2-10-12.4-17.3l-0.1-0.4q0-0.5-0.1-1c-0.7-5.8 0.7-11.5 3.8-16.1 1-3.3 3.1-11.3 5.7-25.9 3.3-18.8 20.7-67.9 60.5-69 4.6-0.1 10.5-2.2 16.8-4.3 4.9-1.7 10.4-3.6 16.4-4.9 23.7-5.5 43.2-8 61.4-8 9.9 0 19.6 0.8 28.8 2.4 30.7 5.3 56.5 20.3 74.3 43.4q1.8 2.3 3.6 4.8c1.1 1.5 2.6 3.4 4.1 5.4 74.9-122.7 210.1-141.2 284.8-141.2 33.2 0 57.9 3.6 69.7 5.7 34.1 6.2 65.1 15.8 92.3 28.6 44.4 20.9 146.1 113.4 161.3 129.2 4 4.2 7.6 8.3 11.1 12.3 10.1 11.4 18 20.5 29 23.9 9.4 2.9 16.5 11.2 17.6 21.2q0.4 3.6-0.1 7 0.7-0.1 1.5-0.1c15.2-1 29.7-3.2 43.1-6.4l0.8-0.1c7.1-1.8 15.1-3.7 24.2-3.7 5.6 0 10.8 0.8 15.9 2.3 14.1 4.2 23.6 13.9 26 26.7z"/></g><path class="a" d="m1053.2 247.6c4.5 24.2-18.9 45.3-29.1 53.2-48.4 37.4-111.4 59.2-167.6 57.7-27-0.7-59.1-7.1-72.9-31.4-23.2 9.1-49.3 16.3-78.7 21.7q1.9 0.9 3.8 1.9c25 12.1 50.8 25.9 78.9 42.2q6.7 3.8 13.5 7.6c26.2 14.8 53.3 30.1 74.4 53.9 27.5 31.1 7.9 51.6 3.7 55.4-12.7 11.5-28.9 13.4-39.9 13.8-6.4 0.2-12.9 0.3-19.3 0.3-63.1 0-130.6-11.5-200.8-34.2-45.8-14.8-81.1-29.5-111.3-46.4-25.3-14-60.9-36.5-78.2-69.3q-5.1-9.6-7.4-19.2-8-1.4-15.6-3c-11.7 2-23 3.3-33.2 4.5h-0.4c-6 0.7-11.7 1.3-16.4 2l-7.3 1.1c-27.9 4.3-56.6 8.6-80.9 18.9-21.5 9.2-42.1 23.2-62 36.8l-8.1 5.4c-1.1 0.8-2.4 1.8-3.9 2.8-10.1 7.5-25.2 18.6-42.3 18.6-5.6 0-11-1.2-15.9-3.5-25.3-11.9-31.2-44.2-15.4-84.3 10.7-27.4 29.2-50.5 49.2-69.2-16.2 2.6-31.2 3.9-44.9 3.9-55 0-72.3-20.5-77.6-32.7-1.9-4.1-2.8-8.3-2.9-12.5-10.5-1.4-21-4.9-31.5-10.5-6.6-3.5-11.2-10-12.4-17.3l-0.1-0.4q0-0.5-0.1-1c-0.7-5.8 0.7-11.5 3.8-16.1 1-3.3 3.1-11.3 5.7-25.9 3.3-18.8 20.7-67.9 60.5-69 4.6-0.1 10.5-2.2 16.8-4.3 4.9-1.7 10.4-3.6 16.4-4.9 23.7-5.5 43.2-8 61.4-8 9.9 0 19.6 0.8 28.8 2.4 30.7 5.3 56.5 20.3 74.3 43.4q1.8 2.3 3.6 4.8c1.1 1.5 2.6 3.4 4.1 5.4 74.9-122.7 210.1-141.2 284.8-141.2 33.2 0 57.9 3.6 69.7 5.7 34.1 6.2 65.1 15.8 92.3 28.6 44.4 20.9 146.1 113.4 161.3 129.2 4 4.2 7.6 8.3 11.1 12.3 10.1 11.4 18 20.5 29 23.9 9.4 2.9 16.5 11.2 17.6 21.2q0.4 3.6-0.1 7 0.7-0.1 1.5-0.1c15.2-1 29.7-3.2 43.1-6.4l0.8-0.1c7.1-1.8 15.1-3.7 24.2-3.7 5.6 0 10.8 0.8 15.9 2.3 14.1 4.2 23.6 13.9 26 26.7z"/><path class="r" d="m466.6 282.7c-7.7 46.7-78.7 46.6-113.5 51.9-31.3 4.8-64.7 9.2-94 21.7-26.6 11.3-50.2 28.2-74.1 44.4-8.9 6-26.4 21.6-38.5 16-17.7-8.3-8.4-40.7-3.3-53.9 18-45.7 62.3-80.8 104.1-103.7 23.2-12.6 47.6-23.7 72.8-31.7 13.6-4.2 27.4-8.1 41.4-10 3.6-0.5 7.3-0.6 10.9-0.6 5.3-1.4 10.7-2.4 16.2-2.5 13.4-0.3 28.4 3.2 40.6 9.1 21.9 10.6 41.8 33.1 37.4 59.3z"/><path fill-rule="evenodd" class="s" d="m152.2 419.1q0 0 0 0-3.4 0-6.2-1.4c-21-9.8-5.7-50.7-3.9-55.3 20.5-52.1 74.4-87.7 104.7-104.3 25.6-14 49.5-24.4 73-31.8 12.1-3.8 26.5-8 41.6-10.1 3-0.4 6.3-0.6 10.3-0.6h0.6c5.9-1.6 11.3-2.4 16.3-2.5 13.4-0.3 28.5 3.1 41.1 9.2 22.2 10.8 42.6 33.7 38.1 60.6-6.7 40.6-58.8 46.4-96.8 50.7-6.5 0.7-12.5 1.4-17.7 2.2l-7.3 1.1c-29.3 4.4-59.5 9-86.4 20.5-23.6 10-45.1 24.7-66 38.8q-3.9 2.8-7.9 5.5c-1.4 0.9-3.1 2.1-4.9 3.4-8 5.9-18.9 14-28.6 14zm219.5-201.1c-3.9 0-7.1 0.2-10 0.6-14.9 2-29.2 6.2-41.2 10-23.4 7.3-47.1 17.7-72.6 31.6-30 16.4-83.4 51.7-103.6 103.1-1.7 4.4-16.3 43.3 2.7 52.3q2.3 1.1 5.2 1.1c8.9 0 19.5-7.8 27.2-13.5 1.8-1.3 3.5-2.5 4.9-3.5q4-2.7 8-5.4c20.9-14.3 42.6-29 66.4-39.1 27.1-11.6 57.5-16.2 86.9-20.7l7.3-1.1c5.3-0.8 11.3-1.4 17.8-2.2 37.3-4.1 88.3-9.9 94.8-48.7 4.2-25.7-15.4-47.6-36.9-58.1-12.2-5.9-26.9-9.2-40-8.9-4.8 0.1-10 0.9-15.9 2.5q-0.1 0-0.3 0z"/><path class="t" d="m328.5 262c-4.1-3.1-5.9-8.3-5.6-13.4 0.2-5 2.1-11.9 6.9-14.5 4.6-2.4 10-0.7 14.7 0.8 3.7 1.2 8.1 1.9 9.9 5.5 1.1 1.4 1.7 3.2 1.4 5.1-0.6 5.2-4.4 11.7-9.2 14.3-4.9 2.5-13 5.9-18.1 2.2z"/><path class="t" d="m290.4 265.3c-2.1-3.4-0.7-8.3 3-9.9 3.2-1.3 8-0.5 10.6 1.8 1.8 1.7 2.5 3.6 1.7 5.5 0.1 1.2 0 2.3-0.5 3.1-1 2-3 2.8-5.1 3.2-3.5 0.5-7.8-0.6-9.7-3.7z"/><path class="t" d="m247.3 281.5c3.1-6.6 8.1-12.9 12.9-18.2 2.4-2.6 5.2-6.7 8.6-8 11.1-4.2 11.2 12.6 7.9 18.9-3.9 7.5-11.1 13.8-18.2 18.2-3.3 2.1-7.8 5.2-11.2 1.8-2.9-2.9-1.4-9.5 0-12.7z"/><path class="t" d="m212.7 332.7c3.8-2 16.8-7.1 17.8 0 0.5 3.6-4 7.6-6.3 9.8-1.8 1.7-3.6 3.4-5.6 4.8q-3.4 3.7-7.9 6.4c-2 1.2-6.3 3.9-8.3 1.3-5.4-6.8 4.4-19.2 10.3-22.3z"/><path class="t" d="m214.1 284.7c3.8-2 16.8-7.1 17.8 0 0.5 3.6-4.1 7.6-6.3 9.8-1.8 1.7-3.6 3.4-5.6 4.8q-3.4 3.6-7.9 6.4c-2 1.2-6.3 3.9-8.3 1.3-5.4-6.8 4.4-19.2 10.3-22.3z"/><path class="t" d="m216.7 320.5c-2.3-4.2 0.7-10.7 3-14.1 1.6-2.5 6.3-8.7 9.8-5.4 1.3 1.3 1.1 4.3 0.9 5.9q-0.1 0.8-0.2 1.6c-0.1 3.6-1.8 7.5-3.9 10.3-2.2 2.9-7.1 6.3-9.6 1.7z"/><path class="t" d="m179 359.7c-1.7-4.5 2.7-10.2 5.5-13.3 1.8-2 8.1-9.6 11.7-7.8 3.6 1.8 2.5 5.1 0.4 8.2-0.2 3.4-4 7.8-5.5 9.6-2.2 2.5-9.8 9.4-12.1 3.3z"/><path class="t" d="m161.5 397.2c0.8-2.7 3-4.3 5.5-5.4 3.4-1.4 6.7-3.2 10.1-4.6 2.5-0.9 6.7-2.9 8.7-0.5q0 0 0 0 0.1 0.1 0.1 0.2 0.6 0.7 0.7 1.6c0.8 3.3-1.6 7.4-4.2 9q-0.5 0.3-1 0.6c-3.8 2.9-8.7 4.4-13.5 4.4-3.3-0.1-7.7-0.9-6.4-5.3z"/><path class="t" d="m242.9 336.5c-0.4-2.4 0.9-4.5 2.6-6 1.1-1.1 3-2.6 4.7-2.2 0.6 0.2 0.6 1 0.6 1.4q0 0.1 0 0.1 0 0.1 0 0.1c0.3 3.5-3.3 7.2-6.7 7.5-0.6 0.1-1.1-0.4-1.2-0.9z"/><path class="t" d="m152.9 346.6c3-6.6 13.2-7 19.2-5.3 2.7 0.7 7 2 7.8 5.2 0.6 2.4 0 4.9-1.6 6.8-2.6 5.9-12.2 9.2-17.5 9.2-8.5-0.1-10.7-9.4-7.9-15.9z"/><path class="t" d="m164.7 376.6c0.1-3.5 4.6-5.5 7.5-5.9 1.4-0.2 3.5-0.4 4.5 0.9 0.7 0.9 0.9 2.2 0.5 3.3-0.1 3.1-3.7 6.3-6.1 7.3-3.8 1.5-6.5-2.2-6.4-5.6z"/><path class="t" d="m143.3 391.1c-0.6-2.1 0.6-4.3 2.4-5.3 2.6-1.4 7.5-2.4 9.8 0.1 1.5 1.6 1.4 4.2-0.3 5.6q-0.7 0.6-1.5 1c-1.2 2-3.9 2.6-6.1 2.1-1.8-0.4-3.8-1.6-4.3-3.5z"/><path class="t" d="m182 330.9c1.8-1.5 4-2.6 6.2-3.2 1.7-0.5 4-0.9 5.7-0.4 2.4 0.6 1.2 4.1 0 5.2-0.2 0.2-0.4 0.3-0.6 0.5-1.1 3.6-5.3 6.5-9 6.7-5.5 0.3-5.8-5.9-2.3-8.8z"/><path class="t" d="m202.4 326c2.1-0.3 6-0.7 7.5 1.2 0.8 1.1 0.7 3.3-0.3 4.2q-0.4 0.3-0.8 0.4-0.4 0.5-0.9 0.9c-2.1 1.6-5.4-0.7-6.9-2.3-1.1-1.2-0.4-4.1 1.4-4.4z"/><path class="t" d="m144.1 407.7c-1-3 0.3-7.1 3.8-7.6 3.8-0.6 8 1.2 11.3 2.8 2.1 1 5.8 4.1 3.7 6.8q-0.1 0.1-0.1 0.2c-0.4 1-1.2 1.8-2.2 2.2-5.4 1.7-14.4 2.4-16.5-4.4z"/><path class="t" d="m299.1 248.3c-1.8-1.2-2.7-3.8-2.1-5.9 1.2-4.6 6.6-7.6 11.4-7.1q0.5-0.1 0.9-0.2c2.6-0.3 5-0.2 6.9 1.9 1.4 1.5 1.3 4.2 0.3 6-1.9 3.6-7 4.8-10.7 5.6-2.1 0.4-4.8 0.9-6.7-0.3z"/><path class="t" d="m350.9 231.7c-4.3-8.4 6-14.1 12.9-13.2 3.5 0.4 7.8 1.6 11.1 3.7 3.8 1.6 9.8 4.3 10.8 8.9 0.6 2.6 1 7.9-3.1 8.3-6.1 0.7-12.5-1.8-18.5-2.8-4.2-0.7-11-0.5-13.2-4.9z"/><path class="t" d="m391.7 241.5c-1.1-2.7-2.2-5.9-1.7-8.9 0.5-2.4 2.7-3.8 4.6-2.2 1.1 0.6 2.1 2.1 2.6 2.8 1.2 1.7 2.4 3.4 3.1 5.4 0.9 2.7 0.9 9.3-3.5 9.2-2.9-0.1-4.2-4-5.1-6.3z"/><path class="t" d="m327.9 228.8c-0.7-0.8-1-2.7-0.2-3.5 0.5-0.5 1-0.9 1.6-1.2 0.1-0.3 0.3-0.6 0.6-0.7 3.2-1.7 7.4-3.3 11.1-3.4 1.4 0 2.5 0.1 3.4 1.2 1 1 1.1 3.1 0.5 4.3-1.8 3.1-5.9 3.5-9.1 4-2.5 0.4-6 1.5-7.9-0.7z"/><path class="t" d="m264.4 302.6c-1.3-0.7-1.5-2.9-1.2-4.2 0.5-3 3.3-5.4 5.2-7.6 2.3-2.5 5.4-6.1 8.7-7.3 2.5-1 5-1.3 7.4-1q1.1-0.3 2.2-0.6c3.6-0.7 9.1-2 10.4 2.6 1.8 6.9-8.5 11-13.1 13.1-4.6 2.1-14.4 7.9-19.6 5z"/><path class="t" d="m311.5 268.2c-0.4-2 0-5 2.1-6 2.4-1 6.9-0.8 7.7 2 0.5 1.3 0.2 2.9-0.6 4-1.2 1.4-2.8 2.4-4.6 2.6-2 0.3-4.1-0.4-4.6-2.6z"/><path class="t" d="m230.5 280.4c0.3-4.3 4.5-6.5 7.8-8.6 3.2-2.1 6.6-5.3 10.6-4.7 1.4 0.2 1.6 2.5 1.4 3.5-0.9 5.3-6.6 9-11.9 11.1-1.9 1-4 1.7-6.1 1.6-1.3-0.1-1.9-1.7-1.8-2.9z"/><path class="t" d="m235.4 314.8c-1.9-1.5-1.8-4.5-0.9-6.6 1.2-2.9 5-5.3 7.9-4.4q0.1 0 0.2 0c1.8-0.7 4-1 5.4 0.5 2 2.1 0.6 5.2-1.1 6.8-1.8 1.5-3.9 2.7-6.1 3.5-1.6 0.7-3.9 1.6-5.4 0.2z"/><path class="t" d="m170.6 326.2c2.1-5 8.4-8.7 12.4-12.2 3.2-2.8 6.4-5.8 10.7-6.4 2.9-1.3 5.3-1.3 5.4 1.5 0 5.1-5.9 9.1-9.7 11.7-5.4 3.7-10.9 7.4-17.2 9.4-1.8 0.6-1.9-3.1-1.6-4z"/><path class="t" d="m146.5 370.1c2.4-2.4 6.9-5.1 10.4-4.2 0.9 0.3 1.4 0.6 1.6 1q0.3 0.2 0.7 0.5 0.5-0.1 1 0.1c0.7 0.1 0.8 1.3 0.4 1.8q-0.1 0-0.1 0.1c1.1 4.9-11.7 8.7-14.9 6.9-2.7-1.5-0.5-4.8 0.9-6.2z"/><path class="t" d="m189.1 366.5c-0.4-0.4-0.5-1.6 0.2-1.8 0.8-0.2 1.4-0.3 2.1-0.3q0 0 0-0.1c0.5-0.3 1.1-0.3 1.6 0.1q0.1 0.1 0.2 0.3 0.1 0.1 0.2 0.3c0.4 0.8 0.4 2.1-0.6 2.3-1.2 0.4-2.8 0.2-3.7-0.8z"/><path class="u" d="m466.6 282.7c-7.7 46.7-78.7 46.6-113.5 51.9-31.3 4.8-64.7 9.2-94 21.7-26.6 11.3-50.2 28.2-74.1 44.4-8.9 6-26.4 21.6-38.5 16-1.6-0.8-3-1.7-4.1-2.8q0.2-0.1 0.4-0.2c6.5-2.7 8-9.8 8.3-16 0.8-12.9 6.8-25.5 13.3-36.3 13.5-22.8 33-41.7 54.1-57.3 10.3-7.6 21.2-14 32.7-19.7 10.5-5.1 23.2-8.3 32.1-16.2 0.6-0.6 0.5-1.6 0-2.2-11-11.8-33.9-4.4-47.4-0.3q5.7-3.4 11.4-6.6c23.2-12.6 47.6-23.7 72.8-31.7 13.6-4.2 27.4-8.1 41.4-10 3.6-0.5 7.3-0.6 10.9-0.6 5.3-1.4 10.7-2.4 16.2-2.5 13.4-0.3 28.4 3.2 40.6 9.1 21.9 10.6 41.8 33.1 37.4 59.3z"/><path class="u" d="m466.6 282.7c-7.7 46.7-78.7 46.6-113.5 51.9-31.3 4.8-64.7 9.2-94 21.7-26.6 11.3-50.2 28.2-74.1 44.4-8.6 5.8-25.1 20.4-37.1 16.5q0.1 0 0.2 0c5.5-0.4 10.3-4.2 14.3-7.5 6.2-5.1 12.2-10.4 18.5-15.4 30.1-23.7 61.5-44.1 96.7-59.6 9.5-4.1 19.1-7.7 29-10.5 5.4-1.5 11.6-1.9 16.7-4.5 9.3-4.7 7.6-13.1 1.7-20.2-4-4.8-8.7-8.9-12.9-13.5-5.2-5.6-9.5-12.4-13.6-18.7-5.4-8.2-10.2-17.6-12.3-27.2 11.2-4.8 22.5-9.1 33.9-12.7 13.6-4.2 27.4-8.1 41.4-10 3.6-0.5 7.3-0.6 10.9-0.6 5.3-1.4 10.7-2.4 16.2-2.5 13.4-0.3 28.4 3.2 40.6 9.1 21.9 10.6 41.8 33.1 37.4 59.3z"/><path class="v" d="m242.5 274.4c-39.7 24.4-86 56.4-94.4 106-0.1 1-2.4 2.6-2.4 1 0.1-25.5 16.5-47.8 33.1-65.8 17.2-18.8 41-30.8 63.2-42.6 1.3-0.7 1.4 0.8 0.5 1.4z"/><path class="w" d="m878.6 218.4c-58.3 110.8-224.4 120.8-380.7 118.9-156.3-2-192.6-64-205.8-88.4-13.2-24.4 3.3-38.9 3.3-38.9z"/><path fill-rule="evenodd" class="s" d="m529.1 338.7q-0.1 0-0.1 0c-9.8 0-20-0.1-31.1-0.2-159.8-2.1-195.2-67.5-206.9-89.1-13.5-24.9 3.4-40.2 3.6-40.3 0.2-0.2 0.5-0.3 0.8-0.3l583.3 8.4c0.4 0 0.7 0.2 1 0.6 0.2 0.4 0.2 0.8 0 1.2-55.6 105.4-208.4 119.7-350.6 119.7zm-233.3-127.5c-2.2 2.2-14.4 15.5-2.7 37.1 11.5 21.2 46.4 85.8 204.8 87.8 11.1 0.1 21.3 0.2 31.1 0.2 140.8 0 291.9-13.9 347.7-116.7z"/><path class="x" d="m528 337.5q-15.1 0-30.1-0.2c-156.3-2-192.6-64-205.8-88.4-6.5-12-5.8-21.6-3.5-28.2 30.1 56.1 91.6 91.5 152.1 105.9 28.8 6.9 58 9.3 87.3 10.9z"/><path class="y" d="m563.4 337.2c-13.2 0.2-26.4 0.3-39.6 0.3 6.2-5.2 12.2-10.7 18.4-15.7 6.4-5.1 12.9-10 19.7-14.4 4.3-2.8 10.9-7.5 16.4-6.5 11.9 2.1-10.8 31.3-13.2 34.2q-0.8 1-1.7 2.1z"/><path class="y" d="m629.9 334.1c-14.8 1.1-29.9 1.9-45 2.5 4.1-5.3 8.4-10.3 12.9-15.2 8.3-8.8 22.2-23.1 35.7-20.7 8.7 1.5 2.5 18.9-3.6 33.4z"/><path class="z" d="m878.6 218.4c-31.8 60.4-95.6 90.8-172.4 105.7 4.9-15 6.3-29.5-8.4-31.6-13.4-1.9-26 11.4-33.9 20.4-5.2 5.8-10.3 12.4-14.6 19.4q-8.5 0.9-17.2 1.6c2-4.3 3.9-8.5 5.4-12.8 2.3-6.7 6.4-19.2-2.5-22.7-11.6-4.7-26.6 9.1-34.1 16.1-7.1 6.8-13.5 14.3-19.6 22.2q-7.2 0.2-14.4 0.4 1.9-2.4 3.7-4.8c4.5-5.9 20.5-25.4 10.5-32.9-3.4-2.6-8.3-0.6-11.8 0.9-7.5 3.2-14.3 8.4-20.8 13.3-9.9 7.4-19 16.1-28.8 23.8q-6.3 0-12.6 0c4.8-3.3 9.4-6.8 13.8-10.6 4-3.4 23.2-22.9 8.2-24.2-6.1-0.6-12.9 2.1-18.6 3.8-10.4 3.1-20.9 6.2-31.2 9.6-17.1 5.8-34.4 11.9-52.1 15.4q-14.1-2.4-26.3-5.5c11.5-2.5 23-5.6 34.3-8.8 13-3.6 26.2-7.2 38.9-11.9 9.8-3.7 19.9-8.8 25.7-17.9 0.4-0.6 0.1-1.8-0.8-1.9-9.8-1.5-19.6-0.5-29.4 0.7-12 1.5-23.9 2.1-36 2.1-22.5 0.1-44.6-2.1-66.9-4.3-16.1-1.6-32.1-3.7-47.8-7.9-3.7-0.9-7.5-2.1-11.2-3.4-7.6-9.3-12.3-17.7-15.6-23.7-13.2-24.4 3.3-38.9 3.3-38.9z"/><path class="A" d="m889.7 249.8c-55.2 32.2-114.2 57.6-178.4 63.9-18.9 1.8-37.9 2.7-56.9 2.6q-16.2 0-32.5-0.6 1.5-0.2 2.9-0.3c42.4-4.8 84.9-11.8 125.7-24.1 52-15.6 106.3-41.9 136-88.4 8.5 9 17.8 16.7 30.4 20.7 7.5 2.2-26.8 25.9-27.2 26.2z"/><path class="A" d="m677.4 236.7c-7.6-27-11.5-55.3-29.3-76.6 6 2.1 12.5 2.9 17.8 2.1 4.9-0.7 9.3-2.9 13.2-5.9-2.1 5.9-3.5 11.9-4.5 17.1-3.9 20.8-0.4 42.3 2.8 63.3z"/><path class="A" d="m401.1 160.3c-2.7 5.8-1 10.6 3.4 14.8 6.9 6.3 12 14 16.5 22.1-14.6-11.6-28.1-27-44.2-36.6 21.8-3.4 40.6-24.8 60.6-36.2-6.1 5.6-12.4 10.9-18.3 16.6-6.4 6.1-14.2 11-18 19.3z"/><path class="A" d="m539.6 187c-9.4 18.9-15.6 39.2-24.6 58.3 2.7-22.5 12.4-43.2 19.8-64.5 5.1-14.3 3.7-28.7-1.2-42.2 3.9 3.9 8.1 7.4 13.3 9.7 9.6 4.2 20 2.7 30 1-6 4.7-12.5 8.8-18.4 13.6-8.5 6.8-14.1 14.4-18.9 24.1z"/><path class="r" d="m613.1 224c-146.8 113.6-373 19.1-373 19.1-143.8 45.6-180.9 7.2-169.5-5.2 11.2-1.7 78.3-20.8 77.2-20.8-22.3 0-44.4 1.6-66.6 2.6-10.2 0.5-20.7 1.3-30.9 0.4-9.1-0.8-17.8-3.9-25.8-8.2q-0.1-0.2-0.1-0.4c3.3-2.1 8-27.4 9.3-34.9 2-11.5 14.5-48.6 37.6-49.2 13-0.4 25.2-6.9 37.9-9.9 26.2-6 54-9.9 80.7-5.3 23.7 4.1 44.7 15.4 59.5 34.5 10.2 13.2 22.5 34.4 42.1 22 9.7-6.1 17.7-26.8 32.2-22.4 35.6 10.7 290.2 54.6 289.4 77.7z"/><path fill-rule="evenodd" class="s" d="m430.3 281.2q0 0 0 0c-97.5-0.1-183.6-34.1-190.2-36.8-45.4 14.3-84.1 21.6-114.9 21.6-35.7 0-52.7-9.8-56.8-19-1.6-3.7-1.1-7.3 1.3-9.9q0.3-0.3 0.7-0.4c8.3-1.3 51.2-13.2 69.1-18.3-13.9 0.2-27.9 0.9-41.5 1.6q-8.4 0.5-16.8 0.9-2.4 0.1-5 0.2c-5.2 0.3-10.5 0.6-15.8 0.6-3.7 0-7.1-0.1-10.2-0.4-8.5-0.8-17.4-3.6-26.3-8.3-0.3-0.2-0.5-0.5-0.6-0.9l-0.1-0.5c0-0.4 0.2-0.9 0.6-1.1 1.4-1 4.8-12 8.7-34.1 1.8-9.8 14.1-49.5 38.8-50.2 8-0.3 15.9-2.9 23.5-5.5 4.6-1.6 9.3-3.2 14.1-4.3 22-5 39.8-7.4 56.3-7.4 8.7 0 17.1 0.7 24.9 2.1 25.1 4.3 45.9 16.4 60.2 34.9q1.6 2.1 3.3 4.4c7.3 9.8 15.6 20.8 26.4 20.8 3.5 0 7.2-1.2 10.9-3.5 3.1-2 6.1-5.6 9.2-9.3 5.4-6.5 11.5-13.9 19.7-13.9q2.1 0 4.3 0.7c9.7 2.9 35.8 8.3 68.9 15.1 116.9 24.3 221.9 47.4 221.3 63.8 0 0.3-0.2 0.6-0.4 0.9-48.3 37.2-110 56.2-183.6 56.2zm-190.2-39.3q0.2 0 0.5 0.1c0.8 0.4 89.1 36.8 189.7 36.8q0 0 0 0c72.8 0 133.9-18.6 181.6-55.3-2.6-15.9-143.3-45.1-219.4-60.8-33.1-6.9-59.3-12.3-69.1-15.3q-1.8-0.5-3.6-0.5c-7.1 0-12.6 6.6-17.9 13-3.2 3.9-6.3 7.6-9.7 9.8-4.2 2.6-8.3 3.9-12.2 3.9-12 0-20.7-11.6-28.3-21.8q-1.7-2.3-3.3-4.4c-13.9-18-34.2-29.8-58.7-34-7.7-1.3-16-2-24.5-2-16.3 0-34 2.3-55.7 7.3-4.7 1.1-9.4 2.7-13.9 4.2-7.8 2.7-15.9 5.4-24.3 5.7-23 0.6-34.8 38.8-36.4 48.2-2.4 13.7-5.8 30-8.9 34.6 8.3 4.3 16.5 6.8 24.4 7.5 3.1 0.3 6.3 0.4 10 0.4 5.2 0 10.6-0.3 15.7-0.5q2.5-0.2 5-0.3 8.4-0.4 16.7-0.8c16.4-0.9 33.3-1.8 50-1.8 0.6 0 1.1 0.5 1.2 1.1 0 0.4 0 0.7-1.2 1.2v0.1q-0.1 0-0.1 0c-2.6 1.1-10.5 3.3-34 9.8-13 3.6-35.5 9.7-42.5 10.9-1.5 1.9-1.8 4.4-0.6 7 3.6 8.1 20 17.6 54.6 17.6 30.7 0 69.2-7.3 114.6-21.6q0.1-0.1 0.3-0.1z"/><path class="t" d="m89.7 148.3c-6.8 4.6-15.3 7.7-23.1 9.9-3.8 1.2-9 3.4-13 2.7-13.2-2.5-3.3-18.8 3.5-22.9 8.3-5 18.9-6.8 28.4-6.8 4.4 0 10.5-0.4 11.8 4.9 1.1 4.6-4.2 10-7.6 12.2z"/><path class="t" d="m127.6 140.4c-4.9-0.3-20.4-3.1-17.2-10.5 1.6-3.8 8.4-5 11.8-5.7 2.8-0.7 5.6-1.2 8.3-1.4 3.6-1 7.4-1.5 11.4-1.4 2.6 0 8.3-0.1 8.8 3.5 1.1 9.8-15.6 16-23.1 15.5z"/><path class="t" d="m110.9 147.1c-0.2 5.3-6.9 9.8-11.2 11.8-3 1.4-11.2 4.6-12.6-0.6-0.5-2 1.4-4.8 2.6-6.2q0.5-0.7 1.2-1.4c2.1-3.5 6.1-6.2 9.7-7.7 3.9-1.5 10.6-1.8 10.3 4.1z"/><path class="t" d="m181.7 137.8c-1 5.4-8.6 8.2-13.1 9.6-2.9 0.9-13.6 4.4-16 0.6-2.4-3.9 0.7-6.4 4.5-8.1 2.2-3.2 8.5-5.3 11-6 3.5-1.1 15-3.3 13.6 3.9z"/><path class="t" d="m185.7 127.4c-2.4 2.1-5.5 2.4-8.5 1.9-4.2-0.6-8.3-0.9-12.5-1.6-2.9-0.4-8.2-1-8.6-4.6q0 0 0 0-0.1-0.1-0.1-0.2-0.1-1.1 0.3-2c1.3-3.6 5.9-6.1 9.4-6.1q0.7 0 1.3 0c5.4-0.6 11 0.9 15.6 3.7 3.1 2 6.9 5.5 3.1 8.9z"/><path class="t" d="m110.1 122.7c-0.9 2.5-3.4 3.8-6 4.3-1.7 0.3-4.5 0.7-5.9-0.7-0.4-0.5 0-1.3 0.3-1.7q0.1-0.1 0.1-0.1 0-0.1 0-0.1c1.9-3.5 7.5-5 11-3.3 0.6 0.3 0.8 1 0.5 1.6z"/><path class="t" d="m206.9 166c-6.8 4.6-16.9-1-21.7-6.2-2.2-2.3-5.5-6-4.4-9.7 0.8-2.7 2.9-4.7 5.6-5.6 5.9-4.1 17.2-1.6 22.3 1.6 8.1 5.1 4.7 15.4-1.8 19.9z"/><path class="t" d="m208.9 129.3c-0.6 2.3-3.2 3.7-5.5 3.6-3.4-0.2-8.6-2.1-9.3-5.9-0.6-2.4 1.1-4.8 3.6-5.2q1-0.2 2-0.1c2.4-1.2 5.2-0.2 7.1 1.6 1.5 1.4 2.7 3.8 2.1 6z"/><path class="t" d="m165.5 164.1c-2.6 0.4-5.3 0.1-7.8-0.6-2-0.6-4.4-1.5-5.8-2.9-1.9-2 1.3-4.7 3.1-5.1 0.3 0 0.6 0 0.9 0 3.2-2.9 8.9-3.2 12.6-1.2 5.4 2.9 2.1 9.1-3 9.8z"/><path class="t" d="m143 156.8c-2.3-0.9-6.2-2.9-6.5-5.6-0.2-1.5 1.3-3.6 2.7-3.8q0.6-0.1 1 0 0.7-0.2 1.4-0.3c3-0.3 4.8 3.9 5.3 6.3 0.3 1.8-2.1 4.2-3.9 3.4z"/><path class="t" d="m241.3 150.1c-1.2 4.7-6 8.9-11 6.8-5.2-2.3-9.3-7.8-12.3-12.5-1.9-3-4.2-9.9 0.7-11.8q0.1 0 0.3-0.1c1.2-0.9 2.9-1.4 4.5-1 8.3 2 20.5 8.2 17.8 18.6z"/><path class="t" d="m76 179.2c-1.6 10.2-6.3 21.3-15.8 26.4-6.6 3.6-19.3 5.3-26.6 3.3q-0.3-0.2-0.4-0.5c-2.2-8.8 1.8-21.2 7.1-30.6 1-5.8 3.6-12.6 10-10.9 7.7 1.9 27.5 0.6 25.7 12.3z"/><path class="t" d="m89.2 183.9c-0.1 5.1-0.6 10.1-1.7 15.1-1.3 5.8-3.1 12.9-10.1 13.2-4.5 0.2-10.8-1.2-9.4-6.7 0.6-2.6 3.5-5.6 5-7.7q0.8-1.2 1.8-2.4c1.1-2 2.4-4 3.4-6.1 2-4.3 3.4-9.2 6.6-12.8 0.5-0.6 2.2-1.8 3-0.8 1.8 2.4 1.5 5.4 1.4 8.2z"/><path class="t" d="m87 168.5c-0.4 1.8-1.5 3.4-2.8 4.8-1 1-3.3 2.7-4.7 1.3-0.9-0.8-1.1-2.1-0.9-3.4-0.3-0.6-0.4-1.3-0.3-2 0.4-2.7 1.9-5.1 4.2-6.5 1.6-1 3.6-1 4.3 0.9 0.6 1.5 0.5 3.3 0.2 4.9z"/><path class="t" d="m161.9 186.5c-6.4 4.2-13.7 6.6-20.1 10.9-2.6 1.7-6.6 3.7-7.5-0.7-0.3-1.6 0.1-3.6 0.5-5.2 0.7-2.7 0.6-5.7 1.7-8.3 0.8-2.2 1.7-4.2 3-6.1 1.1-2.4 2.6-4.8 3.9-6 3.6-3.4 7.7-3.8 12.4-2.7 4.8 1.2 10.7 3 12.7 8 1.5 3.7-4.1 8.5-6.6 10.1z"/><path class="t" d="m196.3 138.9c-1.7 0.9-3.2 1.2-5 0.8-1.4-0.3-3.3-0.8-4.1-2.1-0.9-1.4-0.2-3 1.1-3.9 0.8-1.8 2.8-3.2 4.8-2.4 1.6 0.6 3.4 1.7 4.6 2.9 1.7 1.5 0.3 3.8-1.4 4.7z"/><path class="t" d="m265.6 181c-3.8 4.3-10.6 3.3-15.7 2.3-5.1-0.9-10.1-1.9-15.2-2.9-2.7-0.6-6.6-0.6-8.2-3.3-0.4-0.7-0.1-1.4 0.3-2 3.6-4.7 10.3-7.6 15.3-10.6 2-1.1 3.9-1.7 5.7-1.5 3.4-1 6.7 0.9 9.6 3.9 2.4 2.6 12.3 9.5 8.2 14.1z"/><path class="t" d="m223.2 167.1c-1.6 1.8-3.5 3.4-5.8 4.3-1.5 0.6-4 1.6-5.5 0.3-1.7-1.5 0.6-4.5 1.5-5.8q0.9-1.3 2-2.5 0.2-0.2 0.4-0.5c1.3-1.9 2.9-3.8 5.1-4.7 2-0.9 4.2-0.3 4.8 2 0.7 2.4-1.1 5.2-2.5 6.9z"/><path class="t" d="m189.1 176.1c-2 2.4-5.4 2.8-7.8 0.8q-0.7-0.6-1.4-1.3-1-0.8-2-1.6c-1.7-1.4-3.7-3.1-4.2-5.4-0.5-2.8 2-5.4 4.6-5.8 2.3-0.3 4.9 1 6.8 2.2 3.7 2.2 7.6 6.9 4 11.1z"/><g style="opacity:.4;mix-blend-mode:multiply"><path class="B" d="m81.2 219.7c-10.2 0.5-20.7 1.3-30.9 0.4-9.1-0.8-17.8-3.9-25.8-8.2q-0.1-0.2-0.1-0.4c3.3-2.1 8-27.4 9.3-34.9 0.4-2.2 1.2-5.4 2.4-9.1-1.5 7.5-2.5 15-2.4 22.8 0.3 13.2 8.5 19.9 20.8 22.2 19.2 3.7 39.3 2 58.7 0.6 9.4-0.7 18.7-2 28-2.8 4.8-0.5 9.5-0.4 14.2 0.4 1.7 0.3 3.3 0.9 4.9 1.3-5.4 3.5-11.4 4.6-17.6 5.1-20.5 0.3-41 1.6-61.5 2.6z"/><path class="z" d="m613.1 224c-146.8 113.6-373 19.1-373 19.1-143.8 45.6-180.9 7.2-169.5-5.2 2.2-0.4 6.4-1.3 11.8-2.7-0.9 5.3 4.8 11.4 9.1 13.8 10.4 6 24.5 6 36.1 5.9 11-0.1 22-1.1 32.8-2.9 30-5.1 63.4-14.5 70.1-48.7 6.6-33.9-19-61.6-48.6-73-31.9-12.4-67.4-4.4-100.2-1.3-8.5 0.8-17.1 1.8-24.9 4 4.3-3.3 9.1-5.5 14.5-5.6 13-0.4 25.2-6.9 37.9-9.9 26.2-6 54-9.9 80.7-5.3 23.7 4.1 44.7 15.4 59.5 34.5 10.2 13.2 22.5 34.4 42.1 22 9.7-6.1 17.7-26.8 32.2-22.4 35.6 10.7 290.2 54.6 289.4 77.7z"/><path class="C" d="m613.1 224c-146.8 113.6-373 19.1-373 19.1-16.9 5.4-32.3 9.6-46.4 12.8q8.8-4.3 17.1-9.7c9.2-5.9 18-12.7 24.1-22 5.1-7.9 7.5-17.3 9.3-26.5 2.1 7.2 2.8 14.6 2.7 22.2-0.1 4.7-3.3 11.3-0.8 15.7 1.8 3.2 7.4 4.4 10.6 5.3 6 1.8 12.3 3.1 18.5 4.7 16.2 4.2 33.6 5.5 50.3 5.9 8.5 0.2 22.4-0.5 25.7-10.4 3.8-11.2-2.1-24.5-8.7-33.5-7.3-9.7-18.2-16.3-29.6-20.3-5.9-2.1-12.3-3.1-18.6-3.4-6.3-0.3-13-1.2-18.7 1.9-5 2.7-7.6 11-9.7 15.8-2.9 6.5-6.3 13.1-10.1 19.3 2.4-16.5 6.6-31.9 2.6-48.9-3.6-15.2-14.1-29.1-26.5-38.3-13.5-10-29.4-16.2-45.8-19.9-6-1.4-12.1-2.5-18.2-3.6 7.4 0.2 14.7 0.8 22 2 23.7 4.1 44.7 15.4 59.5 34.5 10.2 13.2 22.5 34.4 42.1 22 9.7-6.1 17.7-26.8 32.2-22.4 35.6 10.7 290.2 54.6 289.4 77.7z"/></g><path class="D" d="m91.9 147.7q1.5 1.5 3.1 2.7c0.3-0.2 0.6-0.3 0.8-0.1 8.7 5.6 21.5 1 30.5 6.5 4.2 2.5 10.2 6.6 9.2 12.1-0.1 0.7-1.1 1.5-1.8 1.2-9.8-5-4.3 1-4.4 6.8 0 3.4-0.3 6.7-1 10.1-0.3 1.3 5.6-3.1 5.9-3.3 0.4-0.3 1.4-0.4 1.3 0.3-1.5 12.4-13.6 19.3-25.8 19.8-5.4-1-10.6-4.1-13.6-8.6-5.9-8.8-3.6-19.8-0.9-29.2 0.6-2.3 0.4-3.9-1-5.7-3.1-3.7-4.9-7.7-2.5-12.2q0.1-0.2 0.2-0.4z"/><path class="a" d="m126 177.9c0 10.2-6.8 18.6-15.2 18.6-8.5 0-15.3-8.4-15.3-18.6 0-10.3 6.8-18.7 15.3-18.7 8.4 0 15.2 8.4 15.2 18.7z"/><path fill-rule="evenodd" class="E" d="m110.8 197.7c-9.1 0-16.5-8.9-16.5-19.8 0-11 7.4-19.9 16.5-19.9 9 0 16.4 8.9 16.4 19.9 0 10.9-7.4 19.8-16.4 19.8zm0-37.3c-7.8 0-14.1 7.8-14.1 17.5 0 9.6 6.3 17.4 14.1 17.4 7.7 0 14-7.8 14-17.4 0-9.7-6.3-17.5-14-17.5z"/><path fill-rule="evenodd" class="F" d="m126 177.9c0 10.2-6.8 18.6-15.2 18.6-8.5 0-15.3-8.4-15.3-18.6 0-10.3 6.8-18.7 15.3-18.7 8.4 0 15.2 8.4 15.2 18.7zm-2.5-0.6c0-8.6-5.7-15.6-12.7-15.6-7.1 0-12.8 7-12.8 15.6 0 8.7 5.7 15.7 12.8 15.7 7 0 12.7-7 12.7-15.7z"/><path class="G" d="m118.1 178.6c0.9 6.8-2.3 12.9-7.2 13.5-4.8 0.7-9.5-4.3-10.4-11.1-1-6.9 2.2-12.9 7.1-13.6 4.8-0.7 9.5 4.3 10.5 11.2z"/><path class="H" d="m114.5 179.1c0.6 4-1.3 7.7-4.2 8.1-2.9 0.4-5.8-2.6-6.3-6.7-0.6-4.1 1.3-7.7 4.3-8.1 2.9-0.4 5.7 2.6 6.2 6.7z"/><path class="a" d="m106.4 176c0.2 1.6-0.6 3-1.7 3.1-1.1 0.2-2.2-1-2.4-2.5-0.2-1.6 0.5-3 1.7-3.1 1.1-0.2 2.1 1 2.4 2.5z"/><path class="I" d="m127.3 190.2c-3.2 6.2-10.1 11.2-17.4 11-6-0.1-14.3-3.1-14.1-10.4 0-0.3 0.6-0.8 0.7-0.4 1.4 4.9 9.2 7.3 13.6 7.3 6.5 0 12.2-2.6 16.3-7.8 0.3-0.4 1.3-0.5 0.9 0.3z"/><path class="I" d="m125.2 168.1c-5.5-2.6-10.8-3.7-16.9-4.1-3-0.2-6.3-0.8-9-2-4.6-2.1-6.9-5.5-5-10.4 0.1-0.3 0.9-0.8 1.2-0.4 3 6.4 9.5 7.1 15.7 8.3 6.1 1.1 10.8 3.1 15.2 7.6 0.5 0.5-0.7 1.2-1.2 1z"/><path class="v" d="m42.6 191.8c0-18.3 1-33.4 12.6-48.4 8.5-11 27.2-9.3 39.6-9.1 0.4 0 0.6 0.2 0.5 0.5-10.9 1.2-22.8 5.4-30.4 11.9-1.7 1.3-3.2 2.8-4.5 4.5-9.2 11.2-13 27.7-17.4 41.1-0.2 0-0.4-0.1-0.4-0.5z"/><path class="v" d="m95.8 236.6c8.5-1.2 17.6-5.3 25.3-7.4 10.9-3 21.8-5.6 32.7-8.7 0.4-0.2 0.7-0.1 0.8 0-8.8 4.7-18.5 7.3-28.2 9.7-8.8 2.1-20.5 6.6-30.6 6.4z"/><path class="v" d="m179.3 135.9c13.2 4.2 20.7 19.1 27.1 30.3 3.4 6 6.3 12.2 8.5 18.6q1 2.3 1.9 4.6c1.9 5.1 2.4 10.5 2.1 15.9 0.4 3.7 0.6 7.4 0.8 11.1 10.4-34.3-1.8-73.6-40.4-80.7q-0.2-0.1-0.4 0 0.2 0.1 0.4 0.2z"/><path class="t" d="m399.6 250.9c0.1 2-0.6 4-1.9 5.4-1.6 1.7-4.2 3.6-6.7 3.1-2.6-0.6-4-3.2-4.9-5.5-1.1-3.4-0.7-6.3 2.3-8.5 0.2-0.2 0.4-0.3 0.7-0.4 2-1.9 4.8-2.8 7.2-1.2 2.2 1.6 3.1 4.5 3.3 7.1z"/><path class="t" d="m364 240.1q-0.2-0.1-0.4-0.3c-1-0.8 0.4-2.7 1-3.2 0.7-0.7 2.5-1.6 3.3-0.6l0.3 0.4c1.6 1.9-2.4 5.1-4.2 3.7z"/><path class="t" d="m348.2 205.3c-2.2 2.5-5.4 4.6-8.9 3.7-4.1-1.1-5.7-6.9-4.9-11.6-0.6-4 5.3-9.5 9.1-8.9 3.1 0.6 5.3 3.5 6.2 6.5 1 3.4 0.9 7.5-1.5 10.3z"/><path class="t" d="m339.4 215c-1.8 0-4.4 3.7-2 3.7 1.7 0 4.3-3.7 2-3.7z"/><path class="t" d="m360.3 218q0 0.2 0 0.3c-0.2 1.2-1 2.2-2.1 2.6-0.6 0.2-1.9 0.4-2-0.5q0-0.2 0-0.3c-0.2-1.4 0.9-2.6 2.1-3.1 0.8-0.3 2.2-0.2 2 1z"/><path class="t" d="m299.8 203.4c-1.6 3.2-4.6 5.7-8.3 5.8-4.4 0.1-8-5.2-8.5-10q0 0 0-0.1-0.1-0.8-0.1-1.5c0.1-1.5 0.4-3.1 1.2-4.6 1.7-3.3 6.1-6 9.8-4.9 2.6 0.8 3.9 3.2 5.1 5.5 1.6 2.9 2.4 6.7 0.8 9.8z"/><path class="t" d="m307.9 198.4q-0.3-0.1-0.6-0.2c-1.5-0.5-0.1-2.7 0.6-3.3 0.7-0.6 2.8-1.6 3.3-0.1q0.1 0.3 0.2 0.6c0.5 1.7-2 3.6-3.5 3z"/><path class="r" d="m863.1 492c-6.3 5.7-15.5 7.2-24.7 7.6-70.8 2.7-143-10.4-211.8-32.7-36.6-11.9-73.6-25.9-107.1-44.5-26.4-14.8-55.1-34.2-68.6-59.6-13.3-25.1-5.8-45.1 15.4-61.4 10.9-8.4 23.1-15.8 36.3-21.6 3.7-1.6 7.6-3.3 11.6-4.5 8-3.3 15.7-6.9 25.2-6.4 10.2 0.5 23 4.7 32.5 8.7 23.1 9.7 45.4 23.5 60.6 42.1 8.6 10.6 16.2 22.2 27.6 30.8 11.7 8.8 24.8 15.3 38.1 21.8 26.4 12.8 52.1 26.7 77.4 41.3 29.1 16.8 60.1 32 81.9 56.7 5.2 5.8 12.3 15.6 5.6 21.7z"/><path fill-rule="evenodd" class="s" d="m820 501.1c-60.7 0-125.9-11.1-193.8-33.1-44.3-14.3-78.4-28.5-107.2-44.6-22.8-12.6-54.7-32.7-69.2-60.1-12.7-24-7.4-45.1 15.8-62.8 11.5-8.9 23.9-16.3 36.5-21.8l1.1-0.4c3.4-1.5 6.9-3.1 10.7-4.2l1.4-0.6c7.4-3.1 15.1-6.2 24.1-5.8 12.4 0.6 27.2 6.4 33 8.8 26.8 11.3 47.3 25.6 61 42.5 2 2.4 3.9 4.9 5.9 7.4 6.3 8.2 12.9 16.7 21.5 23.2 11.3 8.4 23.9 14.8 37.9 21.6 24.6 11.9 49.9 25.4 77.5 41.4q6.8 3.9 13.7 7.8c24.6 13.8 50 28.1 68.5 49.1 9.3 10.5 11.1 18.3 5.5 23.4-7.1 6.4-17.3 7.6-25.5 7.9-6.1 0.2-12.3 0.3-18.4 0.3zm-282.3-231c-7.9 0-14.5 2.7-21.4 5.6l-1.6 0.7c-3.7 1.1-7.2 2.6-10.6 4.1l-1 0.4c-12.5 5.5-24.7 12.7-36.1 21.4-22.4 17.2-27.3 36.8-15.1 59.9 14.3 26.9 45.8 46.6 68.2 59.1 28.7 16 62.7 30.2 106.9 44.5 74.5 24.1 145.8 35.1 211.3 32.6 11.5-0.4 18.9-2.7 24-7.3 4.4-4 2.5-10.7-5.7-20-18.2-20.7-43.5-34.9-67.9-48.7q-6.9-3.8-13.7-7.7c-27.5-16-52.8-29.5-77.3-41.4-14.2-6.9-26.8-13.2-38.3-21.8-8.9-6.7-15.6-15.3-22-23.7-1.9-2.4-3.9-4.9-5.8-7.3-13.5-16.6-33.7-30.7-60.2-41.8-5.6-2.4-20.1-8-32.1-8.6q-0.8 0-1.6 0z"/><path class="t" d="m521.6 374c-0.2 5.9-4 10.9-8.9 13.9-4.8 2.9-12.4 5.6-17.9 2.7-5.3-2.7-7-8.8-8.6-14.2-1.3-4.2-3.5-8.8-1.2-12.8 0.6-1.9 1.9-3.5 3.8-4.5 5.3-2.8 13.8-3.4 19.2-0.5 5.5 2.9 13.8 8.3 13.6 15.4z"/><path class="t" d="m549 407.5c-1.8 4.1-7.3 6-11.1 3.5-3.3-2.1-5.6-7.1-5.1-11 0.4-2.7 1.8-4.6 4-5 1.1-0.9 2.2-1.5 3.2-1.6 2.5-0.3 4.6 1 6.3 2.8 2.7 2.9 4.4 7.5 2.7 11.3z"/><path class="t" d="m585.7 436.7c-8.1 1.4-17.2 0.7-25.2-0.4-4-0.6-9.6-0.6-13-2.9-11-7.7 4.7-18.5 12.6-19.5 9.6-1.1 20 1.6 28.7 5.4 4 1.8 9.8 4 8.8 9.3-0.9 4.7-8 7.4-11.9 8.1z"/><path class="t" d="m654.4 429.8c-4.3-2.3-17.3-11.2-11.3-16.7 3-2.7 9.7-1 13.1-0.4 2.8 0.6 5.5 1.3 8.1 2.2q5.6 0.9 11 3.3c2.3 1.1 7.6 3.4 6.5 6.9-2.9 9.4-20.8 8.2-27.4 4.7z"/><path class="t" d="m624.1 460.8c-4.3-2.3-17.4-11.2-11.4-16.7 3.1-2.7 9.7-1 13.2-0.4 2.7 0.6 5.5 1.3 8.1 2.2q5.5 0.9 10.9 3.3c2.4 1.1 7.7 3.4 6.6 6.9-3 9.4-20.8 8.2-27.4 4.7z"/><path class="t" d="m636.5 429c-2.4 4.8-10.3 6.2-15.1 6.2-3.3 0.1-12.1-0.4-11.2-5.7 0.4-2 3.2-3.8 4.9-4.6q0.8-0.4 1.6-0.8c3.5-2.3 8.2-3.1 12.1-3 4.2 0.2 10.4 2.7 7.7 7.9z"/><path class="t" d="m704.9 449.6c-3.1 4.5-11.2 3.9-15.9 3.3-3-0.4-14.1-1.5-14.8-6-0.6-4.5 3.2-5.5 7.4-5.6 3.3-1.9 9.9-1.3 12.5-0.9 3.7 0.4 15 3.2 10.8 9.2z"/><path class="t" d="m741.8 446.3c-3 0.9-6-0.1-8.5-1.7-3.6-2.3-7.3-4.3-10.8-6.6-2.4-1.6-7-4.3-6-7.7q0 0 0 0 0.1-0.2 0.1-0.3 0.3-1 1.1-1.7c2.6-2.7 7.9-3.1 11-1.7q0.6 0.3 1.2 0.6c5.2 1.6 9.7 5.2 12.7 9.7 2.1 3.1 4.1 7.8-0.8 9.4z"/><path class="t" d="m645.8 406.5c-2 1.9-4.7 2-7.2 1.4-1.8-0.4-4.5-1.2-5.1-3-0.3-0.7 0.5-1.2 0.9-1.5q0.1 0 0.1 0 0.1-0.1 0.1-0.1c3.1-2.5 8.8-1.5 11.3 1.5 0.4 0.5 0.3 1.3-0.1 1.7z"/><path class="t" d="m716.3 485.5c-8 1.5-14.9-7.8-17.2-14.4-1-3.1-2.5-7.8-0.1-10.7 1.9-2.1 4.6-3.1 7.4-2.8 7.1-1.3 16.3 5.5 19.7 10.5 5.4 8-2 16-9.8 17.4z"/><path class="t" d="m838.8 494.6c-6.9 4.5-16.8-1.5-21.5-6.7-2.1-2.4-5.3-6.3-4.1-9.8 0.8-2.7 3-4.7 5.7-5.5 6-3.9 17.2-1.2 22.2 2.2 8 5.3 4.3 15.5-2.3 19.8z"/><path class="t" d="m760.2 464.7c-1.5 1.9-4.4 2.1-6.4 1.1-3.1-1.5-7-5.4-6.2-9.2 0.5-2.4 3-4 5.5-3.3q1 0.3 1.8 0.8c2.7-0.2 4.9 1.9 5.9 4.3 0.8 2 0.9 4.6-0.6 6.3z"/><path class="t" d="m679.3 466.9c-2.5-0.7-4.9-2-6.9-3.7-1.5-1.4-3.3-3.2-4-5.1-0.9-2.6 3.1-3.7 4.9-3.3 0.3 0.1 0.5 0.2 0.8 0.3 4.1-1.3 9.5 0.8 12 4.1 3.8 4.9-1.8 9.1-6.8 7.7z"/><path class="t" d="m661.8 451c-1.7-1.8-4.4-5.2-3.6-7.8 0.4-1.4 2.6-2.7 4-2.3q0.6 0.1 0.9 0.5 0.7 0 1.4 0.2c2.9 0.9 2.8 5.5 2.2 7.9-0.4 1.8-3.6 3-4.9 1.5z"/><path class="t" d="m785.9 488.5c-3 3.7-9.1 5.6-12.8 1.6-3.9-4.2-5.3-10.9-6.1-16.4-0.5-3.5 0.2-10.8 5.4-10.5q0.1 0.1 0.3 0.1c1.5-0.4 3.3-0.2 4.6 0.8 6.7 5.3 15.3 15.9 8.6 24.4z"/><path class="t" d="m527.6 410.3c0.1 2.4-1.8 4.9-4.1 5.7-5.1 1.8-11.4-1.4-14-6.1q-0.4-0.4-0.7-0.8c-1.9-2.2-3.4-4.5-2.7-7.6 0.6-2.3 3.2-3.9 5.4-4.1 4.6-0.5 9 3.4 12.1 6.4 1.7 1.7 3.9 3.9 4 6.5z"/><path class="t" d="m479.1 372.5c-5.1 9.3-17 3.3-20.6-3.7-1.8-3.5-3.4-8.2-3.6-12.6-1-4.7-2.2-12 1.4-15.8 2.1-2.3 6.8-6 9.8-2.5 4.5 5.4 6.3 12.9 9.2 19.1 2 4.4 6.5 10.6 3.8 15.5z"/><path class="t" d="m462.3 328.1c-1.9 2.8-4.2 5.9-7.4 7.3-2.5 1.1-5.1-0.1-4.9-2.9-0.1-1.4 0.6-3.3 1-4.3 0.8-2.1 1.6-4.4 3-6.2 2-2.6 8.2-6.8 10.9-2.7 1.7 2.8-1.1 6.5-2.6 8.8z"/><path class="t" d="m491 395.8c-0.3 1.2-1.8 2.6-3.1 2.4-0.8-0.1-1.5-0.4-2.1-0.7-0.4 0.1-0.8 0.1-1.1-0.1-3.6-1.9-7.8-4.8-10.2-8.3-0.9-1.2-1.5-2.4-1.1-3.9 0.4-1.5 2.2-3 3.8-3.2 4-0.3 6.9 3.3 9.4 6 2 2 5.3 4.6 4.4 7.8z"/><path class="t" d="m588.4 405.4c0.2 1.7-1.7 3.2-3.1 3.8-3.1 1.4-7.1 0.3-10.4-0.1-3.8-0.5-9.2-1.1-12.4-3.4-2.5-1.7-4.3-3.9-5.6-6.3q-1-0.8-2-1.7c-3-2.8-7.7-7.2-4.2-11.3 5.3-6.1 15.7 1 20.6 3.9 4.9 3 16.6 8.4 17.1 15.1z"/><path class="t" d="m538.3 385.9c-1.6 1.7-4.7 3.3-7 1.9-2.4-1.5-5.2-5.9-3-8.4 0.9-1.3 2.6-2.1 4.1-1.9 2.1 0.1 4 1 5.4 2.5 1.5 1.7 2.2 4.1 0.5 5.9z"/><path class="t" d="m601.3 453.8c-4.3 2.5-8.9 0-13-1.8-3.9-1.6-9.2-2.7-11.2-6.9-0.7-1.4 1.4-3.1 2.5-3.5 5.5-2.5 12.6 0.4 17.9 4 2.1 1.2 4.1 2.7 5.3 4.7 0.8 1.3-0.4 2.8-1.5 3.5z"/><path class="t" d="m611.4 412.5c-0.3 2.7-3.1 4.5-5.6 5-3.5 0.8-8.2-1.2-9.2-4.6q0 0-0.1-0.1c-1.8-1.3-3.4-3.1-3-5.4 0.7-3.1 4.5-3.9 7.1-3.3 2.5 0.7 5 1.9 7.2 3.4 1.6 1.2 3.8 2.7 3.6 5z"/><path class="t" d="m682.2 480.5c-6 1.3-13.4-2.2-19.3-3.7-4.6-1.2-9.4-2.3-12.7-5.9-3.2-2-4.7-4.2-2-6 4.7-3.3 12.2-0.3 17 1.6 6.9 2.7 13.9 5.5 19.8 10 1.7 1.3-1.7 3.8-2.8 4z"/><path class="t" d="m752.5 492.6c-6.3-1.2-15.8-5.5-18.1-12.2-0.6-1.7-0.6-2.8-0.1-3.6q-0.2-0.8-0.1-1.6-0.6-0.8-1-1.8c-0.5-1.2 1.4-2.8 2.5-2.6q0.2 0 0.3 0c6.6-7.2 26.9 9.2 27.6 16.5 0.6 5.9-7.1 6-11.1 5.3z"/><path class="t" d="m708.1 437.6c-0.1 0.7-1.2 1.5-1.9 0.9-0.6-0.5-1.2-1.1-1.6-1.7q0 0 0 0c-0.7-0.2-1-0.8-1-1.4q0.1-0.3 0.2-0.5 0-0.2 0.1-0.3c0.6-0.9 1.7-1.7 2.6-1 1.1 1 1.9 2.5 1.6 4z"/><path class="u" d="m469.6 299c10-7.4 21.1-14 33-19.2 3.7-1.6 7.6-3.3 11.6-4.5 8-3.3 15.7-6.9 25.2-6.4 10.2 0.5 23 4.7 32.5 8.7 23.1 9.7 45.4 23.5 60.6 42.1 8.6 10.6 16.2 22.2 27.6 30.8 11.7 8.8 24.8 15.3 38.1 21.8 26.4 12.8 52.1 26.7 77.4 41.3 29.1 16.8 60.1 32 81.9 56.7 5.2 5.8 12.3 15.6 5.6 21.7-6.3 5.7-15.5 7.2-24.7 7.6q-14.4 0.5-28.8 0.2c-4.4-0.9-8.7-1.9-13-2.9-25-5.5-49.9-11.7-74.7-18.3-41-11-82.2-22.7-121.8-38.1-35.8-13.8-71.4-32.4-96.6-62.1-6.8-8-12.7-16.8-16-26.9-3.4-10.3-1.3-21.4 1.7-31.6 1.4-4.8 2.6-9.5 0-14-2.6-4.6-10.1-6.5-14.9-6.9-1.7-0.2-3.2-0.2-4.7 0z"/><path class="u" d="m863.1 492c-2.3 2.1-5 3.6-7.9 4.7-3.7-10.1-10-19-17.1-26.9-17.3-19-41-31.6-64-42.2-22.2-10.2-45.4-18.3-68.1-27.4-36.8-14.7-70.6-36.5-100.8-62.1-1.4-1.2-3.2 0.3-2.4 1.9 2.7 6.3 7 11.9 9.8 18.2-19.7-16-39.8-31.2-64.5-38.8-8.4-2.6-16.9-6.2-25.8-6.7-8-0.4-9.7 6.5-11.4 12.7-5-10.4-11.7-20-20.6-27.3-3.7-3-7.5-4.5-11.4-5.5 7.5-4.8 15.4-9.2 23.7-12.8 3.7-1.6 7.6-3.3 11.6-4.5 8-3.3 15.7-6.9 25.2-6.4 10.2 0.5 23 4.7 32.5 8.7 23.1 9.7 45.4 23.5 60.6 42.1 8.6 10.6 16.2 22.2 27.6 30.8 11.7 8.8 24.8 15.3 38.1 21.8 26.4 12.8 52.1 26.7 77.4 41.3 29.1 16.8 60.1 32 81.9 56.7 5.2 5.8 12.3 15.6 5.6 21.7z"/><path class="v" d="m579.5 443.6c-8.6-4.8-17.5-7.6-26.7-10.6-8.8-2.9-16.6-8-24.8-12.1-15.7-7.9-32.5-15.8-45.6-27.7-22.4-20.3-36.5-52.7-20.5-81.5 0.3-0.6 2.2-1.3 1.7-0.1-11.4 31 12.8 63.3 34.8 82.3 13.2 11.3 27.6 21 42.7 29.5 12.8 7.1 26.9 11.3 39.6 18.7 0.8 0.5-0.5 1.9-1.2 1.5z"/><path class="r" d="m1009.4 281.8c-41.9 32.4-99 54.2-152.3 52.8-20.3-0.6-51.9-4.2-55.9-29.1-1-5.8 0.9-12.3 3.6-18.3-0.3 0-0.5-0.3-0.4-0.9 0.8-4.5 2.1-8.7 3.9-13 8.6-20.5 27.4-30.8 48.8-32.6 13.1-1.1 26 3 38.4 6.7 16.1 4.8 32.5 6.4 49.2 5.3 15.8-1 31.8-3.2 47.1-6.9 9.3-2.2 19.1-4.8 28.5-1.9 22.7 6.7-1.4 30.5-10.9 37.9z"/><path fill-rule="evenodd" class="s" d="m862 335.8q0 0 0 0-2.5 0-4.9 0c-35.3-1-54-10.8-57.1-30.1-0.8-5 0.3-11 3.4-18.2-0.2-0.3-0.3-0.8-0.2-1.4 0.8-4.4 2.1-8.8 4-13.3 8.2-19.5 25.9-31.3 49.8-33.3q2.2-0.2 4.5-0.2c11.1 0 21.9 3.3 32.4 6.4l2 0.6c15.4 4.6 31.8 6.4 48.8 5.2 16.5-1.1 32.3-3.4 46.9-6.9l0.8-0.2c6.2-1.5 12.5-3 18.9-3 3.4 0 6.5 0.4 9.4 1.3 5.9 1.8 9.3 4.8 10.1 9.1 1.9 10.3-12.7 24.8-20.7 31-42.9 33.2-98.3 53-148.1 53zm-56.4-49.4q0.2 0.1 0.3 0.3c0.1 0.3 0.1 0.7 0 1-3.2 7.2-4.3 12.9-3.5 17.7 2.8 17.9 20.8 27.1 54.7 28q2.4 0 4.9 0c49.3 0 104.1-19.6 146.6-52.5 8.5-6.6 21.4-20.2 19.8-28.7-0.6-3.3-3.4-5.7-8.4-7.2-2.7-0.8-5.5-1.2-8.7-1.2-6.1 0-12.3 1.5-18.3 2.9l-0.9 0.2c-14.7 3.6-30.6 5.9-47.3 7-17.2 1.2-33.9-0.6-49.6-5.3l-1.9-0.6c-10.4-3.1-21-6.3-31.8-6.3q-2.2 0-4.3 0.2c-23 1.9-39.9 13.2-47.8 31.8-1.8 4.3-3 8.5-3.8 12.7z"/><path class="t" d="m830.8 297.1c1.8 3.8 1 8.3-1.3 11.8-2.1 3.4-6.2 7.7-10.6 7.6-4.3-0.1-7.5-3.4-10.2-6.4-2.2-2.3-5.1-4.5-4.9-7.9-0.2-1.4 0-2.9 0.9-4.1 2.6-3.5 7.8-6.7 12.3-6.6 4.5 0.1 11.6 0.9 13.8 5.6z"/><path class="t" d="m847 310.8c0.2 3.2-2.8 6.2-6 5.8-2.9-0.3-6-2.7-6.9-5.5-0.6-1.8-0.3-3.5 1-4.5 0.4-0.9 0.9-1.6 1.5-2.1 1.5-0.9 3.3-0.8 5-0.2 2.6 1 5.3 3.5 5.4 6.5z"/><path class="t" d="m874.7 321.7c-4.7 3.5-10.8 6-16.4 7.9-2.7 0.9-6.3 2.7-9.3 2.3-9.6-1.4-3-13.4 1.8-16.6 5.8-3.9 13.4-5.5 20.3-5.9 3.2-0.1 7.6-0.6 8.7 3.2 0.9 3.3-2.7 7.4-5.1 9.1z"/><path class="t" d="m922.3 290.9c-3.5-0.1-14.8-1.6-12.7-7.1 1-2.7 5.9-3.8 8.3-4.5 2-0.5 4-1 6-1.2q3.9-1.3 8.1-1.4c1.9-0.1 6.1-0.3 6.5 2.3 1.1 7-10.8 12-16.2 11.9z"/><path class="t" d="m909.8 317.8c-3.5-0.1-14.8-1.6-12.7-7.1 1.1-2.7 5.9-3.8 8.3-4.5 2-0.5 4-1 6-1.2q3.9-1.3 8.1-1.4c1.9-0.1 6.1-0.3 6.5 2.3 1.2 7-10.7 12-16.2 11.9z"/><path class="t" d="m910.5 296.2c0 3.9-4.7 7.4-7.7 8.9-2.1 1.1-8 3.7-9.1 0-0.5-1.4 0.8-3.5 1.6-4.6q0.4-0.5 0.8-1c1.5-2.6 4.3-4.7 6.9-5.9 2.7-1.2 7.5-1.6 7.5 2.6z"/><path class="t" d="m956.4 283.3c-0.6 3.9-6 6.2-9.2 7.3-2.1 0.8-9.6 3.6-11.5 1-1.9-2.7 0.3-4.7 3-6 1.5-2.4 5.9-4.1 7.7-4.7 2.5-0.9 10.8-2.8 10 2.4z"/><path class="t" d="m998.4 269.7c-1.6 1.6-3.8 1.9-6 1.7-3-0.4-6-0.4-9.1-0.8-2.1-0.2-5.9-0.5-6.4-3q0 0 0 0 0-0.1 0-0.2-0.1-0.8 0.2-1.5c0.7-2.6 4-4.6 6.5-4.7q0.5 0 1 0c3.8-0.6 7.9 0.3 11.3 2.2 2.4 1.3 5.2 3.7 2.5 6.3z"/><path class="t" d="m909.2 278.7c-0.7 1.8-2.4 2.8-4.2 3.2-1.3 0.3-3.3 0.7-4.3-0.3-0.4-0.3-0.1-0.9 0.1-1.2q0.1-0.1 0.1-0.1 0 0 0-0.1c1.2-2.6 5.2-3.8 7.8-2.7 0.5 0.2 0.6 0.8 0.5 1.2z"/><path class="t" d="m979.4 298.4c-4.7 3.5-12.2-0.2-15.8-3.8-1.7-1.6-4.2-4.2-3.5-6.8 0.5-2 2-3.5 3.8-4.2 4.2-3.2 12.4-1.8 16.2 0.4 6 3.4 3.9 10.9-0.7 14.4z"/><path class="t" d="m1021.9 258.5c-3 5.1-11.4 4.5-16.1 2.6-2.1-0.8-5.4-2.3-5.8-4.9-0.3-2.1 0.4-4 1.9-5.4 2.6-4.6 10.7-6.4 15-5.9 7 0.9 7.9 8.6 5 13.6z"/><path class="t" d="m1000.5 280.6c-0.3 1.7-2.2 2.8-3.8 2.8-2.5 0-6.3-1.3-7-4-0.4-1.7 0.7-3.5 2.5-3.9q0.7-0.1 1.4-0.1c1.7-1 3.8-0.3 5.2 0.9 1.2 1 2.1 2.7 1.7 4.3z"/><path class="t" d="m950.5 306.8c-1.9 0.3-3.9 0.2-5.7-0.2-1.4-0.3-3.2-0.9-4.3-1.9-1.4-1.4 0.9-3.5 2.1-3.8q0.3 0 0.6-0.1c2.3-2.2 6.4-2.5 9.2-1.2 4 1.9 1.8 6.5-1.9 7.2z"/><path class="t" d="m934 302.2c-1.7-0.6-4.6-1.9-4.9-3.8-0.2-1.1 0.8-2.6 1.9-2.9q0.4-0.1 0.7 0.1 0.4-0.3 1-0.3c2.2-0.4 3.6 2.6 4 4.3 0.3 1.3-1.4 3.1-2.7 2.6z"/><path class="t" d="m1012.3 272.6c-0.5 2.3-2.8 4.6-5.3 3.6-2.7-1-4.9-3.7-6.5-5.9-1-1.5-2.3-4.9 0.1-5.9q0-0.1 0.1-0.1c0.6-0.5 1.5-0.8 2.2-0.6 4.3 0.8 10.5 3.6 9.4 8.9z"/><path class="t" d="m836.5 321.5c0.9 1.6 0.5 3.7-0.7 5-2.8 2.8-7.8 2.8-11.1 0.6q-0.4-0.1-0.7-0.2c-2-0.9-3.7-1.9-4.2-4.1-0.3-1.7 0.8-3.6 2.2-4.4 2.8-1.8 6.9-0.7 9.9 0.2 1.6 0.6 3.7 1.3 4.6 2.9z"/><path class="t" d="m871.8 296.6c0.6 1-0.1 2.6-0.8 3.4-1.6 2-4.5 2.6-6.8 3.4-2.6 0.9-6.2 2.2-9 1.8-2.3-0.3-4.1-1.1-5.8-2.2q-0.9-0.2-1.8-0.5c-2.8-0.8-7.3-2.1-6.3-5.9 1.3-5.7 10.4-4.5 14.5-4.2 4.1 0.3 13.4 0 16 4.2z"/><path class="t" d="m842 294.4c-0.5 1.6-2 3.6-3.9 3.5-2.1-0.2-5.3-2.2-4.7-4.5 0.2-1.1 1-2.2 2-2.6 1.4-0.5 3-0.6 4.3-0.1 1.5 0.6 2.8 2 2.3 3.7z"/><path class="t" d="m895.8 323.7c-1.9 3-5.8 2.8-9 3.1-3 0.2-6.8 1.2-9.4-0.9-0.9-0.7-0.1-2.4 0.4-3.1 2.8-3.3 8.3-3.8 12.9-3.2 1.8 0.1 3.5 0.4 5 1.3 0.9 0.6 0.6 2 0.1 2.8z"/><path class="t" d="m888.9 293.7c0.7 1.9-0.5 3.9-2 5.1-1.9 1.6-5.7 1.8-7.4 0q0 0-0.1 0c-1.6-0.3-3.2-0.9-3.7-2.6-0.6-2.2 1.7-3.9 3.5-4.4 1.9-0.4 3.9-0.4 5.8-0.1 1.4 0.2 3.3 0.4 3.9 2z"/><path class="t" d="m944.7 313.6c-2.9 3.4-8.7 4.7-12.7 6.4-3.2 1.4-6.4 2.8-9.9 2.2-2.7 0.3-4.5-0.3-3.8-2.5 1.2-4 6.8-5.6 10.4-6.6 5.2-1.5 10.4-3 15.8-3 1.5 0 0.7 2.9 0.2 3.5z"/><path class="t" d="m966 272.4c-4.5 1.3-12 1.6-15.7-2-0.9-0.9-1.2-1.7-1.2-2.3q-0.4-0.5-0.6-1.1-0.6-0.2-1.2-0.8c-0.7-0.6 0-2.2 0.8-2.5q0.1 0 0.2 0c1.9-6.9 20.4-2.8 23.1 1.6 2.4 3.7-2.6 6.2-5.4 7.1z"/><path class="t" d="m959.5 278.5c0.2 0.5-0.3 1.3-0.9 1.2-0.6-0.1-1.1-0.3-1.6-0.6q0 0 0 0c-0.5 0.1-0.9-0.1-1.1-0.6q0-0.2 0-0.3-0.1-0.2 0-0.3c0-0.7 0.5-1.6 1.3-1.5 1 0.3 2 1 2.3 2.1z"/><path class="u" d="m804.8 287.2c-0.3 0-0.5-0.3-0.4-0.9 0.8-4.5 2.1-8.7 3.9-13 8.6-20.5 27.4-30.8 48.8-32.6 13.1-1.1 26 3 38.4 6.7 16.1 4.8 32.5 6.4 49.2 5.3 15.8-1 31.8-3.2 47.1-6.9 9.3-2.2 19.1-4.8 28.5-1.9 1.9 0.5 3.4 1.2 4.7 2-29.7 43.1-83.8 64.5-135.3 65.5-18 0.4-34.9-4.6-52.3-8-9.4-1.9-23-5.2-31.1 2.1-1.7 1.6-2.9 3.2-3.9 4.9q-0.8-2.3-1.2-4.9c-1-5.8 0.9-12.3 3.6-18.3z"/><path class="u" d="m804.8 287.2c-0.3 0-0.5-0.3-0.4-0.9 0.8-4.5 2.1-8.7 3.9-13 8.6-20.5 27.4-30.8 48.8-32.6 13.1-1.1 26 3 38.4 6.7 16.1 4.8 32.5 6.4 49.2 5.3 15.8-1 31.8-3.2 47.1-6.9 7.8-1.9 16-3.9 24-2.9-24.6 32.8-78.1 31.2-115.8 30.6-21.8-0.4-42.4 0.6-63.2 7.8-13.3 4.6-27.2 12.2-35.7 23.5-0.7-5.6 1.2-11.8 3.7-17.6z"/><path class="v" d="m979.1 298.6c-25.5 12.9-55.8 23.9-84.4 26.8-23.7 2.5-53.6 7.3-71.2-12.8-0.8-0.8 1-2.3 1.8-1.6 11.1 8.9 24.4 9.8 38.1 9.2 14-0.6 28.1-1.4 42-3.8 25.3-4.4 48.9-13 73.4-20.2 1.9-0.6 1.6 1.7 0.3 2.4z"/><path class="J" d="m889.7 249.8c-55.2 32.2-114.2 57.6-178.4 63.9-18.9 1.8-37.9 2.7-56.9 2.6-64.5-0.2-130.6-5.6-190.9-29.8-41.8-16.8-68-51.1-98.9-81.8-14.2-14.1-30-26.3-49.4-32-8.4-2.4-17.1-3.5-25.8-3.6q1.3-4.5 3.7-8.6c86.2-149.5 272.3-141.2 333.1-130.2 29.7 5.4 59 13.9 86.4 26.7 38.2 18 136.9 106.1 154.2 124.1 16.2 16.9 27.8 35.5 50.1 42.5 7.5 2.2-26.8 25.9-27.2 26.2z"/><path fill-rule="evenodd" class="K" d="m656.3 317.5h-1.9c-54.9-0.2-126.2-3.7-191.4-29.9-33.5-13.5-56.6-37.7-81-63.3-5.9-6.2-12-12.6-18.3-18.8-16.8-16.7-32.4-26.8-48.8-31.6-7.8-2.3-16.2-3.5-25.5-3.6h-1.6l0.4-1.5c0.9-3.1 2.2-6.2 3.8-8.9 68.4-118.4 197.7-136.1 268.8-136.1 31.4 0 54.6 3.3 65.6 5.3 32.1 5.9 61.3 14.9 86.7 26.8 38.6 18.2 137.1 106.2 154.6 124.4 3.6 3.8 7 7.7 10.4 11.5 11.4 13 22.2 25.3 39.2 30.7 1.5 0.4 1.8 1.4 1.9 2 0.7 6.3-28.6 26.1-28.9 26.3-65.2 38.1-122.1 58.5-178.9 64.1-17.9 1.7-36.4 2.6-55.1 2.6zm-365.3-149.5c8.9 0.2 17 1.4 24.5 3.6 16.9 4.9 32.7 15.2 49.9 32.2 6.3 6.2 12.4 12.7 18.3 18.9 24.3 25.4 47.1 49.3 80.2 62.6 64.8 26.1 135.8 29.7 190.5 29.8h1.9c18.6 0 37-0.9 54.9-2.6 56.5-5.6 113-25.8 177.9-63.8 5.7-3.7 28.3-20.6 27.7-23.9q0 0-0.2-0.1c-17.7-5.5-28.7-18-40.3-31.3-3.3-3.8-6.8-7.7-10.4-11.4-17.4-18.2-115.4-105.8-153.8-123.9-25.2-11.9-54.2-20.8-86.1-26.6-11-2-34-5.3-65.2-5.3-70.6 0-199 17.5-266.7 134.8q-1.9 3.3-3.1 7z"/><path class="A" d="m889.7 249.8c-55.2 32.2-114.2 57.6-178.4 63.9-18.9 1.8-37.9 2.7-56.9 2.6-64.5-0.2-130.6-5.6-190.9-29.8-41.8-16.8-68-51.1-98.9-81.8-14.2-14.1-30-26.3-49.4-32-8.4-2.4-17.1-3.5-25.8-3.6q1.3-4.5 3.7-8.6c16.7-29 37.2-52 59.7-70.3-4.5 35.1 59.9 68.2 85.1 80.1 39.5 18.6 80.5 29.9 124.2 32.8 40.6 2.7 83.2 0.4 122.6-10.3 30.2-8.3 70.6-25.7 67.5-63.1-2.9-33.9-35-62.5-61.9-79-5.1-3-10.2-5.8-15.5-8.4 12.9 4.1 25.5 8.9 37.8 14.7 38.2 18 136.9 106.1 154.2 124.1 16.2 16.9 27.8 35.5 50.1 42.5 7.5 2.2-26.8 25.9-27.2 26.2z"/><path fill-rule="evenodd" class="L" d="m892.5 241.2q-8.3-0.1-16.6-0.4c-9.8-1.5-19.5-4.2-28.8-6.5-6.8-1.7-18.1-3-23.3-8.5-5.3 3.3-10.9 6.3-16.6 9-19.2 9-38.1 17.7-57.7 25.2 5.4 1 14.1 7.2 18.4 8.7q12.1 4.4 24.6 7.3-6.6-0.3-13.2-0.7c-11.7-2.7-23.4-7-32.1-14.4-5.6 2.1-11.3 4.2-17.1 6.1-13 4.3-26.5 7.8-40.3 10.6-0.2 1.4-3.2 3.5-3.6 1.6q-0.1-0.4-0.2-0.9-8.2 1.6-16.4 2.7c3.7 6 9.8 10.7 14 16.2 2.3 3 4.6 5.9 6.9 8.7-3.3-2.4-6.8-4.7-10.1-7.2-0.7-1.1-1.5-2.1-2.2-3-3.5-4.3-9-8.9-10.5-14.4-29.4 3.9-59.5 4-88.2-0.4 2.9 3.7 4.9 8.7 6.9 12.7 1.9 4 4.5 7.6 6.7 11.3q-3.9-4.9-8-9.7c-1.7-2-3.3-4.6-5-7-1.1-2.5-2.1-5.1-2.8-7.7q-4.1-0.7-8.2-1.5c-26.5-5.2-52.3-14.6-76.2-27.1 0.1 2.6-0.4 5.6-0.2 7.9 0.1 2.6 0.5 5.2 0.8 7.8-0.3 4.6-0.6 9.2-1.2 13.8-1.2-5.8-2.2-12.1-2.1-18 0-4.2 0.8-8.4 0.6-12.6-23.8-12.7-43.9-31.2-64.3-48.6q-0.6-0.5-1.3-1.1c-3.1 7.3-7.7 14.1-10.8 21.4q-0.9 2.1-1.7 4.2-2.5 3-4.8 6.1c1.6-4.4 3.1-8.8 4.9-13.2 2.9-7 6.4-13.7 10.7-20-10.5-9.3-20.8-19.5-32.5-27.2-11.2-7.3-23.1-13.6-34.9-19.9-5.8-3.1-11.8-6.2-18-8.3-2.7 5-8.8 7.9-12.1 12.6q-1.2 1.7-2.4 3.3c-3 2.2-5.9 4.6-8.6 7.1 2-4.3 5.3-8.6 8-11.8 3.5-4.1 7.6-9.2 12.3-12.1-4.6-1.3-9.4-2-14.3-1.6-3.3 0.2-10.8 1.8-13.9 0.1 6-0.1 12-1.4 18-1.6 4.4-0.1 8.8 0 13.2-0.3 6.4 1.8 12.8 4.9 17.9 7.6 10.5 5.6 20.6 11.3 30.4 17.5q0.1-0.2 0.2-0.4c0.2-0.4 1.1-0.6 0.8 0.1 0.8-1.7 10.9-10.1 13.9-12.9 6.3-5.8 12.8-11.2 19.5-16.3 9.7-7.4 19.7-16.1 30.5-21.8-3.1-10.1-4.9-20.7-6.7-31.1-1.5-8.8-1.7-24.5-14.1-20.6-16.6 5.2-34.1 7.2-51.1 10.8-0.2 0.1-0.4 0-0.5 0 10.1-4 20.8-6.4 31.1-10q0.1 0 0.2 0c7.5-1.6 15.1-3.2 22.2-5.8 1.9-0.8 5.3-2.4 7.5-2q0-0.4 0-0.7c0-2.4 0.1-4.8 0.5-7.2 0.3-2 0.9-3.8 2.6-5q0.5 2.2 1 4.3 0 0.1 0 0.2c-0.4 1.7-0.7 3.4-1.1 5.2-0.2 1.1-0.3 2.7-0.7 4.2 5.2 3.6 5.7 14.9 6.6 20.1 0.4 2.5 4 36.1 4.7 36.2q0.2 0 0.2 0.2c5.4-2.5 9.1-2.5 15.2-1.5 6.6 1 13.1 0.8 19.7 1 6.8 0.2 19.7-1.3 28 1.3-0.7-4.9 0.1-10 1.1-14.8 2-10.1 3-20.1 4.6-30.2 2.5-7.9 4.2-16 6.4-23.9 1.4-4.8 3.2-9.3 5.1-13.9q0 3.3-0.2 6.6c-1.8 7.6-3.3 15.2-4.8 22.9-1.7 9.1-2.4 18.4-4.1 27.5-1.7 9-4 18-5.3 26.9 0.8 0.5 1.6 0.9 2.2 1.4 4.9 4.1 7.6 11.1 10.8 16.4 3.9 6.4 7.4 12.8 10.8 19.4 2 3.8 5.1 7.7 4.7 12.2q0.6-0.5 1.7-1c4.9-2.5 10.1-4.6 14.9-7.4 11.3-6.7 24.2-10.6 35.5-17.4 2.1-1.3 4.1-2.3 5.9-2.7-2.1-18-1.4-36.4-2.6-54.5q-0.1-2.5-0.2-5c0-9.2 0.3-18.5 0.8-27.7 0.2-4.7 0.7-9.4 1.1-14.2q0.5 1.5 1 3.1c0.1 2.4 0.1 4.7 0.2 6.6 1.1 10.5 0.9 21.1 1.6 31.6 0.7 11.3 1 22.7 1.1 34.1 0 4 1.5 19.1 0.3 25.9 1.8 0.3 3.7 1.3 5.6 3.1 5.2 4.8 10.6 7.2 16.8 10.2 5.4 2.6 10.2 6.2 15.2 9.4 5.3 3.4 10.1 7.3 15.6 10.3 1.5 0.9 3.9 1.9 5.4 3.4 5.5-12.4 28.7-44 30.8-46.5 3.2-3.8 7-9.1 12-11.2-4.6-10.4-7.4-21.8-11.4-32.4-4.2-11.4-9.3-22.6-12.1-34.4 1.2 2.1 2.9 4 4.2 5.7q1.2 1.8 2.4 3.5c1 1.6 2 3.2 2.8 4.9q1.7 3.2 3.4 6.4c5.7 14.7 9 30.5 12.7 45.6 1.4-0.3 2.8-0.4 4.4-0.1 10.2 1.8 20 6.6 29.5 10.6 7 3 13.6 6.3 20.9 8.1 0.9 0.2 1.9 0.4 2.9 0.7 0-3.3 2.6-6.8 4.6-9.9 3-3.3 6-6.7 8.9-10.2-1.1 2.9-2.2 5.8-3 8.7-1.6 2.1-3.2 4.1-4.4 6.3-0.7 1.1-2.1 6.1-2.8 6.5q0 0 0 0.1c0.2-0.1 0.4 0 0.3 0.2q0.4 0.2 0.7 0.5c6.7 7.3 12.2 15.9 17.3 24.4 12.1 19.7 26.1 39.4 41.7 56.5 3.5-2.7 6.9-5.6 10.5-8.2 4.4-3.2 9.2-6.2 13.2-9.9-2.4 3-4.9 6-7.3 8.9-4.6 3.4-9.3 6.5-13.6 10.1q-0.8 0.7-1.7 1.4c-0.3 0.9-1.5 1.9-2.5 1.9q-3.6 2.8-7.5 5.3c9.3 4.2 20.4 6.3 30.3 8.6 12.3 2.7 24.5 5.5 37 6.7 0.5 0.1 0.5 0.4 0.3 0.8zm-504.9-76.5q0 0 0 0 0 0 0 0zm122.4 90.9c3.2-9.6 8-18.5 11.2-28.1 4-12.4 8.6-24.5 13.4-36.6 2.1-5.3 3.9-10.8 6.4-16 3.5-7.2 3.7-11.4 0-18.5-5.9-11.4-11.8-24.5-19.7-34.6-4.1-5.2-12-5.4-18.1-5.4-6.6 0-13.3-0.6-19.9-0.6-6.6 0-12.8-0.6-19.4-1.6-8.5-1.2-15 4.6-21.4 9-11.6 8.1-23.2 16.4-33.9 25.6-6.4 5.3-12.9 13.7-20.7 17.1 9.7 6.3 19 13.1 28.1 21 10.3 9 21 17.5 31.3 26.4 10.8 9.3 21.5 19.3 33.7 26.8 9.2 5.6 19 10.8 29 15.5zm175.3 19.8c-4.8-20.4-7-41.4-12.1-61.7-2.2-8.8-5.6-17.4-6.7-26.4-0.8-6.9-0.5-10.8-7.3-14.8q-2.6-1.5-5.1-3.2c-5.1-5.2-11.3-8.9-17.6-12.6-9-5.4-17.8-11.4-27.2-16.3-0.4-0.3-0.9-0.1-1.2 0.2-4.3-1-9.1 2.2-12.7 3.9-10.9 5.1-21.9 10.1-32.6 15.6-4.5 2.3-9.8 5.2-15.1 6-1.2 5-3.7 9.3-5.6 14.2-5.6 14.5-11.7 28.8-16.8 43.5-1.4 4.1-12 32.7-13.4 32.5 0.4 0.1 0.6 0.2 0.7 0.5 13.5 6.1 27.5 11.3 41.5 15 26.3 6.9 53.4 9.3 80.5 8.3 10.9-0.4 22-1.1 33.1-2.3q0 0 0 0 8.8-1 17.6-2.4zm-173.4-19.1q0 0 0 0 0 0 0 0zm315.3-35.6q1.6-1.2 3.2-2.4c-13.5-13.9-26.8-31-36.5-47.6-5-8.6-9.4-18.2-15.5-26-1.8-2.2-3.7-6.9-6.2-8.8-0.3 0.1-0.5 0.1-0.7-0.1q-0.1-0.2-0.2-0.4-0.1 0-0.2 0c-3.4-1.4-6.9-1.9-10.3-3.1-10.3-3.5-20.9-6.8-31.1-10.5-7-2.6-16.3-7.8-22.5-0.5-3.2 3.7-6.3 7.3-9.3 11.1-10.6 13.5-19.5 27.4-28.3 41.8 1.7 4.5 1 9.4 2 14.1 1.2 5.3 2.7 10.6 4 15.9 6 23.1 8.6 47.2 13.8 70.5 10.4-1.8 20.7-4.2 30.7-7.4 12.3-3.9 24.8-7.8 36.9-12.5 12-4.7 23-11.6 35-16.2 12-4.6 24.7-10.3 35.2-17.9z"/><path fill-rule="evenodd" class="A" d="m889.7 249.8c-55.2 32.2-114.2 57.6-178.4 63.9-18.9 1.8-37.9 2.7-56.9 2.6-64.5-0.2-130.6-5.6-190.9-29.8-41.8-16.8-68-51.1-98.9-81.8-14.2-14.1-30-26.3-49.4-32-8.4-2.4-17-3.4-25.7-3.6q3-0.2 5.9-0.6c8.5-1.1 15.9-1.3 24.4 0.4 18.4 3.5 34.6 14.2 49.6 24.8 28.2 19.9 52.6 44.3 79.4 65.8 23.3 18.7 49 31.2 78 38.2 27.1 6.4 57.3 8.8 84.1 0.1 1.3-0.4 1.6-2.1 0.4-2.9-4.6-2.6-9.8-3-15-3.4-10.1-0.8-20-2.3-29.9-4.2-18.2-3.4-36.1-7.6-53.6-13.9-17-6.1-33.1-14.4-47.7-25.1-15.8-11.5-29.4-26.2-43-40.2-20.7-21.1-42.1-41.4-67-57.5-3.8-2.5-7.9-5-12.3-7.4 5.4 0.6 10.8 1.6 16.2 2.9 11.3 2.6 23.4 7.8 34.8 2.5 11.5-5.4 19.8-15.4 30.1-22.6 9.2-6.5 15-12.2 14.8-23.8 0-5.7-1.3-11.3-1.8-16.8-0.4-3.9-0.8-7.7-2.5-11.2-3.3-6.7-15.4-5.4-21.2-5.5-11.3 0-22.8 0.9-34.1 3 19.9-12.3 40.8-21.6 61.8-28.5 2.4 8 4 16.4 5.6 24.6 1.7 8.3 2.3 18.1 5.7 25.8 2.8 6.6 7.6 9.4 14.7 10 6.6 0.6 29.7-1.4 33.9-1.1 14.8 1.1 17.3-23.3 21.1-33.1 1.9-5 4-10 6.2-15q-0.5 3.5-0.9 7c-1.9 13.9-4.3 28.5-2.7 42.5 1.1 10.1 6.6 18.4 12.5 26.4 5.1 6.7 7.4 15.1 17.5 13.9 10.6-1.3 19.6-11.3 27.6-17.5 8.7-6.8 13.9-12.5 16.2-23.5 3.3-15.2 3.7-31 5.9-46.4q0.6-4.5 1.4-8.9c0.6 5.5 1 11 1.4 16.6 1 15.5 1.2 31.7 5.4 46.8 2.7 9.4 9 16.4 16.5 22.4 7.5 6 15.6 15.9 24.6 19.4 8.1 3.1 11.7-5 14.9-11.1 7.1-13.4 19.7-23.5 25-38.1 5.1-14.1-0.3-27.9-4.3-41.6q-1.4-4.8-2.9-9.5 2.4 3.3 4.9 6.6c3.8 5.3 7.3 10.5 10.2 16.4 3.9 8.2 7.1 16.8 13.3 23.6 5.2 5.9 14.4 7.6 21.7 9.1 6.6 1.4 16.6 5.4 23.2 3 4.9-1.8 3.4-9.2 2.8-12.9q-0.6-4.4-0.9-8.8c42.8 33.1 93.4 78.9 105.4 91.3 16.2 16.9 27.8 35.5 50.1 42.5 7.5 2.2-26.8 25.9-27.2 26.2zm-377.8-125.6c-10.1-8.6-30.8-9.4-43.1-7.3-8.3 1.4-15.6 4.7-22.2 9.2q-2.7 1.7-5.2 3.7c-8 6.6-15.7 13.6-23.3 20.6-5 4.7-12 11.1-10.3 18.6 1.6 6.5 12.6 11.6 17.3 15.1 10.4 7.5 20.4 15.8 30.2 23.9 8.7 7.3 20.4 23.1 32.4 13.6 6.6-5.2 11.5-14.8 16.3-21.5 6.8-9.6 14.2-19.2 18.7-30.1 6-14.3 1.1-35.8-10.8-45.8zm102.8 22.1c-6.5-2.8-12.2-1.6-18.4 1.1-9.2 4.1-17.5 10-26.7 14.3-5 2.3-9.8 5-13.9 8.7-0.4 0.5-0.5 1-0.4 1.4-5.3 5-8.2 11.4-10.8 18.2-4.5 11.6-7.2 23.9-10.2 36-2.7 10.5-10.2 24.8 3 30.8 5.7 2.6 12.4 3.2 18.5 3.7 10.2 0.9 20.4 1.4 30.7 1 10.2-0.4 20.2-2.4 30.2-4.6 6.8-1.5 12.3-3.9 14.5-10.9 2.3-7.4 0.4-16.2 0-23.8-0.6-10.5 1.1-21.2 1.4-31.7 0.4-17.1-0.2-36.6-17.9-44.2zm79.2 85.5c3.2 11 3.1 25.7 17.5 25.2 19.9-0.7 37.3-14 53.9-23.5 3.4-1.9 10-5.1 9.9-10-0.2-6.3-3.6-12.2-6.4-17.7-9.1-17.7-14.5-36.8-25.5-53.6-4.5-7-10.2-12.3-17-17-3.8-2.6-22.5-2.2-24.8 1.9-6.9 12.2-17 22.2-18.1 36.9-1.4 19.5 5.1 39.4 10.5 57.8zm175.6-29.8c-16.9 8.2-32.3 18.7-47.6 29.3-15.8 7.7-32.2 14.4-48.3 21.2-18.6 7.9-37.1 15.9-56 22.8-7.5 2.8-15 5-22.8 6.6-6.8 1.4-13.6 2.8-19.6 6.5-1 0.6-1 2 0 2.7 12.2 8.4 30.7 1.7 43.8-0.9 22.7-4.6 45.2-11.1 66.6-20.1 32.2-13.6 69.3-33.7 86-65.9 0.8-1.5-0.7-2.9-2.1-2.2z"/><path fill-rule="evenodd" class="A" d="m889.7 249.8c-55.2 32.2-114.2 57.6-178.4 63.9-18.9 1.8-37.9 2.7-56.9 2.6-64.5-0.2-130.6-5.6-190.9-29.8-41.8-16.8-68-51.1-98.9-81.8-14.2-14.1-30-26.3-49.4-32-8.4-2.4-17-3.4-25.7-3.6q3-0.2 5.9-0.6c8.5-1.1 15.9-1.3 24.4 0.4 18.4 3.5 34.6 14.2 49.6 24.8 28.2 19.9 52.6 44.3 79.4 65.8 23.3 18.7 49 31.2 78 38.2 27.1 6.4 57.3 8.8 84.1 0.1 1.3-0.4 1.6-2.1 0.4-2.9-4.6-2.6-9.8-3-15-3.4-10.1-0.8-20-2.3-29.9-4.2-18.2-3.4-36.1-7.6-53.6-13.9-17-6.1-33.1-14.4-47.7-25.1-15.8-11.5-29.4-26.2-43-40.2-20.7-21.1-42.1-41.4-67-57.5-3.8-2.5-7.9-5-12.3-7.4 5.4 0.6 10.8 1.6 16.2 2.9 11.3 2.6 23.4 7.8 34.8 2.5 11.5-5.4 19.8-15.4 30.1-22.6 9.2-6.5 15-12.2 14.8-23.8 0-5.7-1.3-11.3-1.8-16.8-0.4-3.9-0.8-7.7-2.5-11.2-3.3-6.7-15.4-5.4-21.2-5.5-11.3 0-22.8 0.9-34.1 3 19.9-12.3 40.8-21.6 61.8-28.5 2.4 8 4 16.4 5.6 24.6 1.7 8.3 2.3 18.1 5.7 25.8 2.8 6.6 7.6 9.4 14.7 10 6.6 0.6 29.7-1.4 33.9-1.1 14.8 1.1 17.3-23.3 21.1-33.1 1.9-5 4-10 6.2-15q-0.5 3.5-0.9 7c-1.9 13.9-4.3 28.5-2.7 42.5 1.1 10.1 6.6 18.4 12.5 26.4 5.1 6.7 7.4 15.1 17.5 13.9 10.6-1.3 19.6-11.3 27.6-17.5 8.7-6.8 13.9-12.5 16.2-23.5 3.3-15.2 3.7-31 5.9-46.4q0.6-4.5 1.4-8.9c0.6 5.5 1 11 1.4 16.6 1 15.5 1.2 31.7 5.4 46.8 2.7 9.4 9 16.4 16.5 22.4 7.5 6 15.6 15.9 24.6 19.4 8.1 3.1 11.7-5 14.9-11.1 7.1-13.4 19.7-23.5 25-38.1 5.1-14.1-0.3-27.9-4.3-41.6q-1.4-4.8-2.9-9.5 2.4 3.3 4.9 6.6c3.8 5.3 7.3 10.5 10.2 16.4 3.9 8.2 7.1 16.8 13.3 23.6 5.2 5.9 14.4 7.6 21.7 9.1 6.6 1.4 16.6 5.4 23.2 3 4.9-1.8 3.4-9.2 2.8-12.9q-0.6-4.4-0.9-8.8c42.8 33.1 93.4 78.9 105.4 91.3 16.2 16.9 27.8 35.5 50.1 42.5 7.5 2.2-26.8 25.9-27.2 26.2zm-377.8-125.6c-10.1-8.6-30.8-9.4-43.1-7.3-8.3 1.4-15.6 4.7-22.2 9.2q-2.7 1.7-5.2 3.7c-8 6.6-15.7 13.6-23.3 20.6-5 4.7-12 11.1-10.3 18.6 1.6 6.5 12.6 11.6 17.3 15.1 10.4 7.5 20.4 15.8 30.2 23.9 8.7 7.3 20.4 23.1 32.4 13.6 6.6-5.2 11.5-14.8 16.3-21.5 6.8-9.6 14.2-19.2 18.7-30.1 6-14.3 1.1-35.8-10.8-45.8zm102.8 22.1c-6.5-2.8-12.2-1.6-18.4 1.1-9.2 4.1-17.5 10-26.7 14.3-5 2.3-9.8 5-13.9 8.7-0.4 0.5-0.5 1-0.4 1.4-5.3 5-8.2 11.4-10.8 18.2-4.5 11.6-7.2 23.9-10.2 36-2.7 10.5-10.2 24.8 3 30.8 5.7 2.6 12.4 3.2 18.5 3.7 10.2 0.9 20.4 1.4 30.7 1 10.2-0.4 20.2-2.4 30.2-4.6 6.8-1.5 12.3-3.9 14.5-10.9 2.3-7.4 0.4-16.2 0-23.8-0.6-10.5 1.1-21.2 1.4-31.7 0.4-17.1-0.2-36.6-17.9-44.2zm79.2 85.5c3.2 11 3.1 25.7 17.5 25.2 19.9-0.7 37.3-14 53.9-23.5 3.4-1.9 10-5.1 9.9-10-0.2-6.3-3.6-12.2-6.4-17.7-9.1-17.7-14.5-36.8-25.5-53.6-4.5-7-10.2-12.3-17-17-3.8-2.6-22.5-2.2-24.8 1.9-6.9 12.2-17 22.2-18.1 36.9-1.4 19.5 5.1 39.4 10.5 57.8zm175.6-29.8c-16.9 8.2-32.3 18.7-47.6 29.3-15.8 7.7-32.2 14.4-48.3 21.2-18.6 7.9-37.1 15.9-56 22.8-7.5 2.8-15 5-22.8 6.6-6.8 1.4-13.6 2.8-19.6 6.5-1 0.6-1 2 0 2.7 12.2 8.4 30.7 1.7 43.8-0.9 22.7-4.6 45.2-11.1 66.6-20.1 32.2-13.6 69.3-33.7 86-65.9 0.8-1.5-0.7-2.9-2.1-2.2z"/><path class="A" d="m778.3 103.2c38.4 31 78.1 67.1 88.5 77.9q1.9 2 3.7 4.1c-1 0.3-1.7 1.6-0.8 2.6q0.3 0.3 0.6 0.6c1 0.9 2.2 0.3 2.6-0.6q0.4 0.4 0.7 0.8c-29.7 22.8-62.4 41.6-96.7 56.5-24.5 10.7-50.2 19.1-76 26.2-13.3 3.7-26.8 6.1-40.3 9-10.4 2.1-20.8 4.4-31.2 3.9 13.5-2.8 27.4-4.1 40.8-7.7 17.8-4.8 35.2-11.4 52.6-17.5 27.6-9.8 56-20.6 77.8-40.8 9.1-8.4 1.3-20.5-2.8-29.5-4.1-8.8-8.6-17.5-13.3-26-3.5-6.4-6.7-13.5-11.2-19.2-7.3-9.5-20.8-13.2-31-18.9-3.9-2.2-8.4-4.9-13-7.3 4.5 0.8 9 1.5 13.3 1.7 5.8 0.2 11.6 0.4 17.4 0.7 4.1 0.3 8.1 1 12-0.6 4.6-1.9 5.1-9.2 5.9-13.3q0.2-1.3 0.4-2.6z"/><path class="M" d="m494.5 51.2c-26.4 6.6-53.7 10.4-79 20.4-10.5 4.1-20.6 8.4-30.2 14.4-2.6 1.6-6.5 4.7-9.9 3.9-2-0.4 0.2-3 1.4-3.1 3.2-0.4 6.9-6.1 9.2-8.1 3.8-3.5 8.3-6.4 12.8-9 10.5-6.2 21.6-11.5 33.1-15.6 25.9-9.3 53.3-14.2 80.4-18.6 14.1-2.3 28.3-4.1 42.7-4.2 13.2 0 76.9-0.7 111 15.5 1.8 0.9-96-14.5-171.5 4.4z"/><path class="M" d="m669.4 293.6c-14.9 6.2-29.3 8-45.4 7.5-17.5-0.6-34.6-0.9-52-4-32.8-5.8-65.3-13.8-95.2-29.1-59-30.2-97.4-96.9-164.3-111.8-1.3-0.3 0.1-2.2 1-2.2 14.8-0.7 28.2-0.3 42 6.2 13.7 6.5 25.8 15.7 37.2 25.7 25.2 21.9 47.9 47.4 76.3 65.4 30.4 19.3 63.2 29.8 98.4 36.8 16.7 3.2 34.6 6.4 51.6 5.8 17.5-0.6 33.3 2.1 50.5-3.3 2.6-0.8 1.5 2.4-0.1 3z"/></svg>