<svg version="1.2" xmlns="http://www.w3.org/2000/svg" viewBox="0 0 1250 1200" width="1000" height="200"><style>.a{fill:#fff}.b{fill:#f1f1f1}.c{fill:#e2e2e2}.d{fill:#d4d4d4}.e{fill:#c5c5c5}.f{fill:#b7b7b7}.g{fill:#a8a8a8}.h{fill:#9a9a9a}.i{fill:#8b8b8b}.j{fill:#7d7d7d}.k{fill:#6e6e6e}.l{fill:#606060}.m{fill:#5c2f10}.n{fill:#42474d}.o{fill:#4f6883}.p{opacity:.6;fill:#fff}.q{mix-blend-mode:multiply;fill:#bcbec0}.r{fill:#8a8c8e}.s{mix-blend-mode:screen;fill:#5b90a9}</style><g style="mix-blend-mode:multiply"><path class="a" d="m1264.8 26.1c6.1 6.4 8.4 15.5 6.1 24.3-3.6 14.2-15.3 20.3-20.8 23.2-0.7 0.4-1.4 0.7-2 1.1-1.6 1-3.3 2.2-5.1 3.4-8.9 6-19.1 12.7-24.6 19.3-0.6 0.8-1.4 2.9-1.8 4.5 0.8 1.5 1.7 2.9 2.5 3.8q0.6 0.6 1.2 1.2 0 0 0 0 1.1 0.9 2.2 2 2.1 1.8 4.6 3.8c4 3.3 8.6 7 12.8 11.5 1.2 1.2 2.7 2.5 4.1 4.1 6.6 7.1 12.6 15.4 18.3 25.2 1.5 2 3.1 4.2 4.8 6.4 4.1 5 8.3 7.6 18.9 11.4 11.6 4.3 17.9 16.4 15.1 28.9-2.7 11.8-10.2 19.5-22.2 23.1l-2.8 0.8c-8.4 2.5-18.1 5.3-29.3 5.7-22.2 0.8-42.9-3.1-61.1-6.5-25.1-4.6-42.2-17.1-55.6-28.6-9.4-8-16.7-17.3-23.2-26.1-11.8-0.7-22-0.2-31.8 1.4-9.9 1.7-19.2 3.3-27.1 6.4-7.1 2.8-14.2 6.8-21.7 10.9q-3.2 1.8-6.4 3.6c-24 13-65.6 45.9-94 70.1q-0.4 0.4-0.9 0.8h-0.1q-0.5 0.5-1 0.9c-4.8 3.7-9.4 7.5-14.3 11.5-8.4 7-17.2 14.3-26.7 21-14.1 10-29.4 20.6-45.2 30.7-26.8 17-57.1 34.3-92.7 53-12.9 6.7-25.6 13-38.4 18.7 3.3 1 6.6 1.9 10 2.9 4.8 1.3 9.8 2.6 14.9 4.3 0.8 0.2 2.6 0.4 3.9 0.6 8.7 1.1 28.9 3.6 35.5 24 4.6 14.3-2.7 29.5-17.9 37q-2 1-4.2 1.8c-8.5 3.1-18.1 3.8-27 1.8q-0.2 0-0.3-0.1-0.5 0.4-1.2 1.1c-3.7 3.2-12.1 10.7-23.9 11.2-4.8 0.2-8.9-0.7-12-1.8-4.2 2.5-10.3 5.1-17.9 4.8-9.6-0.5-16.1-4.4-19.9-7-2.8 0.9-6.6 1.8-11.3 2-9.8 0.3-16.5-3.6-19.8-5.4q-0.2-0.2-0.4-0.3c-0.9 0-2.6 0.2-3.9 0.3-2.9 0.4-6.7 0.8-11 0.7-11.2-0.3-18.4-6.8-21.8-10.1-0.9-0.1-2.1-0.3-3.1-0.4-6-0.9-15.1-2.2-23.8-8.7-1.4-1-2.7-2.2-3.8-3.3-47.8 12.7-95.6 21.8-140.7 30-31.4 5.7-60.6 8.9-89.2 9.7l-3.9 0.1c-26 0.8-52.9 1.6-80-1.9-12.3-1.6-23.8-4.4-34.8-7.1q-3-0.7-6-1.4c-13.9-3.4-28.5-7.3-41.9-13.6-12-5.6-23.7-11.8-35-17.7l-4.7-2.5c-3-1.5-6.2-3-9.6-4.6q-3.2-1.5-6.4-3.1c-0.6-0.3-1.4-0.6-2.4-0.9-0.9 0-2.1 0.1-3.8 0.4-13.2 2.8-24.6 1.5-34.8-3.8-10.7-5.6-18.6-20.3-18-33.4 0.5-11.1 7-20.6 17-24.8q2.1-0.9 4.3-1.6c6-9.9 13.6-17.3 17.4-20.7 10.7-9.4 23.1-15.6 33.9-21 4.7-2.4 9.1-4.6 13-6.8l5.1-2.9c15.9-9.2 32.4-18.6 46.4-29.2 8.4-6.5 16.5-13.7 25-21.2 7.1-6.4 14.5-12.9 22.2-19.1 33.2-26.7 72.3-51.2 116.3-73.1 13.9-6.9 28-13.2 41.7-19.3 7.3-3.3 14.6-6.6 21.9-9.9 7.6-3.5 15.3-7.3 22.8-11 10.9-5.4 22.2-11 33.9-16 27.3-11.8 56.7-24 86.7-33 13.6-4 27.3-7.3 40.5-10.5l6.5-1.6c6.3-1.5 12.7-3.3 19.3-5.2 7-1.9 14.3-4 21.7-5.7 29.8-7.2 60.2-12.5 90.2-15.9 13.1-1.5 27-2.2 43.8-2.3 5.2-1 10.8-2.4 17.1-4.1l3-0.9c10.9-3 22.2-6 30.9-10.6 5.4-2.7 21.7-11.1 36.7-2.5 7.6 4.4 12.4 12 13.6 21 45.9 2.3 83.6 6.2 119.1 12.2q11.8 1.9 23.8 3.8c33.4 5.4 68 10.9 101.5 20.7 0.4 0 0.7-0.1 0.8-0.2 1.9-0.6 4.1-1.9 7.9-6l4.6-5.2c7.1-7.8 14.4-15.9 22.2-23.6 18.5-18.6 45.7-31.5 81-38.4q0 0 0.1 0c16.7-3.3 28.6-0.8 36.4 7.5z"/><path class="a" d="m1220.3 104.9q0 0 0 0 0 0 0 0z"/><path class="b" d="m1261.5 24.6c6.1 6.4 8.4 15.5 6.2 24.3-3.7 14.2-15.3 20.3-20.9 23.2-0.7 0.3-1.4 0.7-2 1-1.5 1.1-3.3 2.3-5 3.5-9 5.9-19.2 12.7-24.7 19.3-0.6 0.8-1.4 2.9-1.8 4.5 0.9 1.5 1.7 2.8 2.5 3.8q0.6 0.6 1.2 1.2 0 0 0 0 1.1 0.9 2.2 1.9 2.1 1.9 4.6 3.9c4 3.3 8.6 7 12.8 11.5 1.2 1.1 2.7 2.5 4.1 4.1 6.6 7.1 12.6 15.4 18.4 25.2 1.4 2 3.1 4.2 4.8 6.3 4 5.1 8.3 7.7 18.8 11.5 11.6 4.3 18 16.4 15.1 28.9-2.7 11.8-10.2 19.5-22.2 23l-2.7 0.8c-8.5 2.6-18.1 5.4-29.4 5.8-22.1 0.8-42.8-3.1-61.1-6.5-25.1-4.7-42.2-17.1-55.6-28.6-9.4-8.1-16.7-17.3-23.2-26.2-11.7-0.6-22-0.2-31.7 1.5-9.9 1.7-19.2 3.3-27.1 6.4-7.2 2.8-14.3 6.8-21.8 10.9q-3.2 1.8-6.4 3.6c-24 13-65.6 45.9-93.9 70.1q-0.5 0.4-1 0.8h-0.1q-0.5 0.4-1 0.8c-4.7 3.7-9.3 7.6-14.2 11.6-8.5 7-17.3 14.3-26.8 21-14.1 10-29.4 20.6-45.2 30.7-26.8 16.9-57.1 34.3-92.6 52.9-12.9 6.8-25.7 13-38.4 18.8 3.2 1 6.5 1.9 10 2.9 4.8 1.3 9.7 2.6 14.8 4.3 0.8 0.2 2.7 0.4 3.9 0.6 8.7 1 28.9 3.6 35.5 24 4.7 14.3-2.7 29.5-17.9 37q-2 1-4.2 1.8c-8.4 3.1-18.1 3.7-27 1.8q-0.1-0.1-0.2-0.1-0.5 0.4-1.3 1.1c-3.6 3.2-12.1 10.6-23.9 11.2-4.8 0.2-8.9-0.7-12-1.8-4.2 2.5-10.2 5.1-17.9 4.7-9.6-0.4-16.1-4.3-19.9-6.9-2.8 0.9-6.6 1.8-11.3 1.9-9.8 0.4-16.5-3.5-19.7-5.3q-0.3-0.2-0.5-0.3c-0.9 0-2.6 0.2-3.8 0.3-3 0.4-6.7 0.8-11.1 0.7-11.2-0.4-18.4-6.9-21.8-10.1-0.8-0.1-2.1-0.3-3-0.5-6.1-0.8-15.2-2.1-23.9-8.6-1.4-1.1-2.7-2.2-3.8-3.3-47.7 12.7-95.5 21.8-140.7 30-31.4 5.7-60.6 8.9-89.2 9.7l-3.9 0.1c-26 0.8-52.9 1.6-80-1.9-12.3-1.6-23.7-4.4-34.8-7.1q-3-0.7-6-1.5c-13.8-3.3-28.5-7.2-41.9-13.5-12-5.6-23.7-11.8-35-17.7l-4.7-2.5c-3-1.6-6.2-3.1-9.6-4.7q-3.2-1.5-6.4-3c-0.5-0.3-1.4-0.6-2.4-0.9-0.9 0-2.1 0.1-3.8 0.4-13.2 2.8-24.6 1.5-34.7-3.8-10.7-5.7-18.7-20.3-18.1-33.4 0.5-11.1 7-20.7 17-24.8q2.2-0.9 4.3-1.6c6-10 13.6-17.3 17.4-20.7 10.7-9.4 23.1-15.6 34-21.1 4.6-2.3 9-4.5 13-6.8l5-2.8c15.9-9.2 32.4-18.6 46.4-29.3 8.5-6.4 16.5-13.6 25-21.1 7.1-6.4 14.5-12.9 22.2-19.2 33.2-26.6 72.3-51.2 116.3-73 13.9-6.9 28-13.2 41.7-19.3 7.3-3.3 14.6-6.6 21.9-9.9 7.6-3.5 15.3-7.3 22.8-11 10.9-5.4 22.2-11 33.9-16 27.3-11.8 56.8-24 86.7-33 13.6-4 27.3-7.3 40.6-10.5l6.4-1.6c6.4-1.5 12.7-3.3 19.4-5.2 7-1.9 14.2-4 21.6-5.8 29.8-7.1 60.2-12.4 90.2-15.8 13.1-1.5 27.1-2.2 43.8-2.3 5.2-1.1 10.8-2.4 17.1-4.2l3-0.8c10.9-3 22.2-6 31-10.6 5.3-2.7 21.7-11.1 36.6-2.5 7.6 4.4 12.5 12 13.6 21 46 2.3 83.6 6.2 119.1 12.1q11.9 2 23.8 3.9c33.5 5.4 68 10.9 101.6 20.7 0.3 0 0.6-0.1 0.8-0.2 1.8-0.6 4-1.9 7.8-6l4.7-5.2c7-7.8 14.4-15.9 22.1-23.6 18.5-18.6 45.8-31.5 81.1-38.4q0 0 0 0c16.7-3.3 28.6-0.8 36.4 7.5z"/><path class="b" d="m1217 103.4q0 0 0 0 0 0 0 0z"/><path class="c" d="m1258.3 23.1c6 6.4 8.3 15.5 6.1 24.3-3.7 14.2-15.3 20.2-20.9 23.2-0.7 0.3-1.4 0.7-1.9 1-1.6 1.1-3.4 2.3-5.1 3.4-9 6-19.1 12.8-24.6 19.4-0.6 0.8-1.5 2.9-1.9 4.5 0.9 1.5 1.7 2.8 2.5 3.8q0.6 0.6 1.2 1.2 0 0 0 0 1.2 0.9 2.2 1.9 2.1 1.9 4.6 3.9c4 3.2 8.6 7 12.9 11.5 1.1 1.1 2.6 2.5 4.1 4.1 6.5 7.1 12.5 15.4 18.3 25.2 1.4 2 3.1 4.2 4.8 6.3 4.1 5.1 8.3 7.7 18.8 11.5 11.6 4.2 18 16.4 15.2 28.8-2.8 11.9-10.3 19.6-22.3 23.1l-2.7 0.8c-8.5 2.5-18.1 5.4-29.3 5.8-22.2 0.8-42.9-3.1-61.2-6.5-25.1-4.7-42.2-17.1-55.6-28.6-9.3-8.1-16.7-17.3-23.1-26.2-11.8-0.7-22.1-0.2-31.8 1.5-9.9 1.7-19.2 3.3-27.1 6.4-7.1 2.8-14.2 6.7-21.7 10.9q-3.2 1.8-6.5 3.5c-24 13.1-65.6 45.9-93.9 70.1q-0.5 0.5-1 0.8l-0.1 0.1q-0.5 0.4-1 0.8c-4.7 3.7-9.3 7.5-14.2 11.6-8.5 7-17.3 14.3-26.8 21-14.1 10-29.4 20.6-45.2 30.6-26.8 17-57.1 34.4-92.6 53-12.9 6.8-25.7 13-38.4 18.8 3.2 1 6.5 1.9 10 2.8 4.8 1.4 9.8 2.7 14.9 4.4 0.7 0.2 2.6 0.4 3.9 0.6 8.6 1 28.8 3.5 35.4 24 4.7 14.3-2.7 29.5-17.8 36.9q-2.1 1-4.3 1.8c-8.4 3.1-18 3.8-27 1.8q-0.1 0-0.2 0-0.5 0.4-1.3 1.1c-3.6 3.2-12.1 10.6-23.8 11.1-4.9 0.2-9-0.6-12.1-1.7-4.2 2.5-10.2 5.1-17.8 4.7-9.7-0.4-16.2-4.4-20-6.9-2.8 0.8-6.5 1.8-11.3 1.9-9.8 0.4-16.5-3.5-19.7-5.4q-0.3-0.1-0.5-0.2c-0.9 0-2.5 0.2-3.8 0.3-3 0.3-6.7 0.8-11.1 0.6-11.2-0.3-18.4-6.8-21.7-10-0.9-0.2-2.1-0.3-3.1-0.5-6.1-0.8-15.2-2.1-23.9-8.6-1.4-1.1-2.6-2.2-3.7-3.4-47.8 12.8-95.6 21.8-140.7 30-31.5 5.7-60.6 8.9-89.2 9.8l-4 0.1c-26 0.8-52.9 1.6-79.9-1.9-12.4-1.6-23.8-4.4-34.9-7.1q-3-0.7-6-1.5c-13.8-3.3-28.5-7.2-41.9-13.5-12-5.7-23.7-11.8-35-17.7l-4.7-2.5c-3-1.6-6.2-3.1-9.6-4.7q-3.2-1.5-6.4-3c-0.5-0.3-1.4-0.6-2.3-0.9-0.9 0-2.1 0.1-3.9 0.4-13.2 2.7-24.6 1.5-34.7-3.9-10.7-5.6-18.7-20.2-18.1-33.3 0.5-11.2 7-20.7 17-24.9q2.2-0.9 4.3-1.5c6-10 13.6-17.4 17.5-20.7 10.7-9.4 23-15.6 33.9-21.1 4.6-2.3 9-4.5 13-6.8l5-2.9c16-9.1 32.5-18.5 46.4-29.2 8.5-6.4 16.5-13.6 25-21.2 7.1-6.3 14.5-12.8 22.3-19.1 33.1-26.6 72.2-51.2 116.2-73 13.9-6.9 28.1-13.2 41.7-19.4 7.4-3.2 14.7-6.5 21.9-9.8 7.6-3.5 15.3-7.3 22.8-11 10.9-5.4 22.2-11 33.9-16 27.3-11.8 56.8-24 86.8-33 13.5-4.1 27.2-7.4 40.5-10.5l6.4-1.6c6.4-1.5 12.7-3.3 19.4-5.2 7-2 14.2-4 21.6-5.8 29.9-7.1 60.2-12.4 90.2-15.8 13.1-1.5 27.1-2.2 43.9-2.3 5.1-1.1 10.7-2.5 17-4.2l3.1-0.8c10.9-3 22.1-6.1 30.9-10.6 5.4-2.8 21.7-11.2 36.7-2.5 7.5 4.4 12.4 11.9 13.5 20.9 46 2.4 83.6 6.2 119.1 12.2q11.9 2 23.8 3.9c33.5 5.4 68 10.9 101.6 20.7 0.3-0.1 0.6-0.1 0.8-0.2 1.8-0.7 4-1.9 7.8-6.1l4.7-5.1c7.1-7.8 14.4-15.9 22.1-23.7 18.5-18.5 45.8-31.5 81.1-38.3q0 0 0 0c16.7-3.3 28.6-0.8 36.5 7.5z"/><path class="c" d="m1213.7 101.9q0 0 0 0 0 0 0 0z"/><path class="d" d="m1255 21.5c6.1 6.5 8.3 15.6 6.1 24.4-3.7 14.1-15.3 20.2-20.9 23.2-0.7 0.3-1.3 0.6-1.9 1-1.6 1.1-3.3 2.2-5.1 3.4-9 6-19.1 12.8-24.6 19.3-0.6 0.9-1.4 3-1.9 4.6 0.9 1.4 1.8 2.8 2.6 3.8q0.5 0.6 1.1 1.2 0 0 0 0 1.2 0.9 2.2 1.9 2.2 1.8 4.6 3.8c4.1 3.3 8.6 7 12.9 11.6 1.2 1.1 2.6 2.5 4.1 4.1 6.5 7.1 12.5 15.3 18.3 25.2 1.4 1.9 3.1 4.2 4.8 6.3 4.1 5.1 8.3 7.7 18.8 11.5 11.7 4.2 18 16.4 15.2 28.8-2.7 11.9-10.2 19.6-22.2 23.1l-2.8 0.8c-8.5 2.5-18.1 5.4-29.3 5.8-22.2 0.7-42.9-3.1-61.1-6.5-25.2-4.7-42.3-17.1-55.6-28.6-9.4-8.1-16.7-17.4-23.2-26.2-11.8-0.7-22.1-0.2-31.8 1.5-9.9 1.7-19.2 3.3-27.1 6.4-7.1 2.8-14.2 6.7-21.7 10.9q-3.2 1.8-6.5 3.5c-23.9 13-65.6 45.9-93.9 70.1q-0.5 0.4-1 0.8l-0.1 0.1q-0.5 0.4-1 0.8c-4.7 3.7-9.3 7.5-14.2 11.6-8.5 7-17.3 14.3-26.8 21-14.1 9.9-29.3 20.6-45.2 30.6-26.8 17-57.1 34.3-92.6 53-12.9 6.8-25.6 13-38.4 18.8 3.2 1 6.6 1.9 10 2.8 4.8 1.3 9.8 2.7 14.9 4.4 0.7 0.1 2.6 0.4 3.9 0.5 8.6 1.1 28.8 3.6 35.5 24.1 4.6 14.3-2.7 29.5-17.9 36.9q-2.1 1-4.2 1.8c-8.5 3.1-18.1 3.8-27.1 1.8q-0.1 0-0.2 0-0.5 0.4-1.3 1c-3.6 3.2-12.1 10.7-23.8 11.2-4.9 0.2-8.9-0.6-12.1-1.7-4.2 2.5-10.2 5.1-17.8 4.7-9.7-0.4-16.1-4.4-19.9-6.9-2.8 0.8-6.6 1.7-11.3 1.9-9.9 0.4-16.6-3.5-19.8-5.4q-0.2-0.1-0.5-0.3c-0.8 0.1-2.5 0.2-3.8 0.4-3 0.3-6.7 0.7-11.1 0.6-11.2-0.3-18.4-6.8-21.7-10-0.9-0.2-2.1-0.3-3.1-0.5-6-0.9-15.2-2.2-23.9-8.6-1.4-1.1-2.6-2.2-3.7-3.4-47.8 12.8-95.6 21.8-140.7 30-31.4 5.7-60.6 8.9-89.2 9.8l-4 0.1c-26 0.8-52.9 1.6-79.9-1.9-12.4-1.6-23.8-4.4-34.8-7.1q-3-0.8-6.1-1.5c-13.8-3.3-28.5-7.2-41.9-13.6-12-5.6-23.7-11.7-35-17.7l-4.7-2.4c-3-1.6-6.2-3.1-9.5-4.7q-3.3-1.5-6.5-3c-0.5-0.3-1.4-0.6-2.3-0.9-0.9 0-2.1 0-3.8 0.4-13.3 2.7-24.7 1.5-34.8-3.9-10.7-5.6-18.6-20.3-18.1-33.3 0.5-11.2 7.1-20.7 17-24.9q2.2-0.9 4.3-1.5c6-10 13.7-17.4 17.5-20.7 10.7-9.4 23-15.6 33.9-21.1 4.6-2.3 9-4.5 13-6.8l5-2.9c16-9.1 32.5-18.5 46.4-29.2 8.5-6.5 16.5-13.6 25-21.2 7.2-6.3 14.5-12.9 22.3-19.1 33.1-26.6 72.2-51.2 116.3-73.1 13.8-6.8 28-13.2 41.7-19.3 7.3-3.2 14.6-6.5 21.9-9.9 7.5-3.4 15.2-7.3 22.7-10.9 11-5.4 22.3-11 33.9-16 27.4-11.8 56.8-24 86.8-33 13.6-4.1 27.3-7.4 40.5-10.6l6.5-1.5c6.3-1.5 12.6-3.3 19.3-5.2 7-2 14.2-4 21.7-5.8 29.8-7.1 60.1-12.5 90.2-15.8 13-1.5 27-2.3 43.8-2.3 5.2-1.1 10.8-2.5 17-4.2l3.1-0.8c10.9-3 22.1-6.1 30.9-10.6 5.4-2.8 21.7-11.2 36.7-2.5 7.6 4.4 12.4 11.9 13.5 20.9 46 2.4 83.6 6.2 119.2 12.2q11.8 2 23.7 3.9c33.5 5.3 68 10.9 101.6 20.7 0.3-0.1 0.6-0.1 0.8-0.2 1.8-0.7 4.1-1.9 7.9-6.1l4.6-5.1c7.1-7.8 14.4-15.9 22.1-23.7 18.5-18.6 45.8-31.5 81.1-38.4q0 0 0 0c16.7-3.2 28.7-0.8 36.5 7.5z"/><path class="d" d="m1210.4 100.4q0 0 0 0 0 0 0 0z"/><path class="e" d="m1251.7 20c6.1 6.5 8.4 15.6 6.1 24.3-3.6 14.2-15.3 20.3-20.9 23.2-0.6 0.4-1.3 0.7-1.9 1.1-1.6 1.1-3.3 2.2-5.1 3.4-8.9 6-19.1 12.8-24.6 19.3-0.6 0.9-1.4 2.9-1.8 4.5 0.8 1.5 1.7 2.9 2.5 3.9q0.6 0.6 1.2 1.1v0.1q0 0 0 0 1.1 0.9 2.1 1.9 2.2 1.8 4.6 3.8c4.1 3.3 8.6 7 12.9 11.6 1.2 1.1 2.6 2.5 4.1 4.1 6.5 7.1 12.6 15.3 18.3 25.1 1.5 2 3.1 4.3 4.8 6.4 4.1 5.1 8.3 7.6 18.9 11.5 11.6 4.2 18 16.3 15.1 28.8-2.7 11.9-10.2 19.6-22.2 23.1l-2.8 0.8c-8.5 2.5-18.1 5.4-29.3 5.8-22.2 0.7-42.9-3.1-61.1-6.5-25.2-4.7-42.2-17.1-55.6-28.6-9.4-8.1-16.7-17.4-23.2-26.2-11.8-0.7-22-0.2-31.8 1.5-9.9 1.7-19.2 3.2-27.1 6.4-7.1 2.8-14.2 6.7-21.7 10.9q-3.2 1.7-6.4 3.5c-24 13-65.6 45.9-94 70.1q-0.5 0.4-0.9 0.8l-0.1 0.1q-0.5 0.4-1 0.8c-4.8 3.7-9.4 7.5-14.3 11.6-8.5 7-17.2 14.2-26.8 21-14.1 9.9-29.3 20.5-45.2 30.6-26.8 17-57 34.3-92.6 53-12.9 6.8-25.6 13-38.4 18.7 3.2 1 6.6 2 10 2.9 4.8 1.3 9.8 2.7 14.9 4.4 0.7 0.1 2.6 0.4 3.9 0.5 8.6 1.1 28.9 3.6 35.5 24.1 4.6 14.3-2.7 29.5-17.9 36.9q-2 1-4.2 1.8c-8.5 3.1-18.1 3.8-27.1 1.8q-0.1 0-0.2 0-0.5 0.3-1.2 1c-3.7 3.2-12.1 10.7-23.9 11.2-4.9 0.2-8.9-0.7-12.1-1.7-4.1 2.4-10.2 5-17.8 4.7-9.6-0.5-16.1-4.4-19.9-6.9-2.8 0.8-6.6 1.7-11.3 1.9-9.8 0.3-16.6-3.5-19.8-5.4q-0.2-0.1-0.5-0.3c-0.8 0-2.5 0.2-3.8 0.4-3 0.3-6.7 0.7-11 0.6-11.2-0.3-18.4-6.8-21.8-10-0.9-0.2-2.1-0.4-3.1-0.5-6-0.9-15.1-2.2-23.8-8.7-1.4-1-2.7-2.1-3.8-3.3-47.8 12.8-95.6 21.8-140.7 30-31.4 5.7-60.6 8.9-89.2 9.8l-4 0.1c-26 0.8-52.8 1.6-79.9-1.9-12.3-1.6-23.8-4.4-34.8-7.1q-3-0.8-6.1-1.5c-13.8-3.3-28.4-7.3-41.9-13.6-12-5.6-23.7-11.7-35-17.7l-4.6-2.4c-3-1.6-6.2-3.1-9.6-4.7q-3.2-1.5-6.4-3.1c-0.6-0.2-1.5-0.5-2.4-0.8-0.9-0.1-2.1 0-3.8 0.4-13.3 2.7-24.6 1.4-34.8-3.9-10.7-5.6-18.6-20.3-18-33.4 0.5-11.1 7-20.6 17-24.8q2.1-0.9 4.3-1.5c5.9-10 13.6-17.4 17.4-20.8 10.7-9.4 23-15.5 33.9-21 4.7-2.3 9-4.5 13-6.8l5.1-2.9c15.9-9.1 32.4-18.6 46.4-29.2 8.4-6.5 16.5-13.6 25-21.2 7.1-6.3 14.4-12.9 22.2-19.1 33.1-26.6 72.3-51.2 116.3-73.1 13.9-6.9 28-13.2 41.7-19.3 7.3-3.3 14.6-6.5 21.9-9.9 7.5-3.5 15.3-7.3 22.7-11 11-5.4 22.3-10.9 33.9-16 27.4-11.8 56.8-23.9 86.8-32.9 13.6-4.1 27.3-7.4 40.5-10.6l6.5-1.5c6.3-1.6 12.6-3.3 19.3-5.2 7-2 14.3-4 21.7-5.8 29.8-7.1 60.1-12.5 90.2-15.9 13.1-1.4 27-2.2 43.8-2.2 5.2-1.1 10.8-2.5 17.1-4.2l3-0.9c10.9-2.9 22.2-6 30.9-10.5 5.4-2.8 21.7-11.2 36.7-2.5 7.6 4.4 12.4 11.9 13.5 20.9 46 2.3 83.6 6.2 119.2 12.2q11.8 2 23.8 3.9c33.4 5.3 67.9 10.9 101.5 20.7 0.4-0.1 0.7-0.2 0.8-0.2 1.8-0.7 4.1-1.9 7.9-6.1l4.6-5.1c7.1-7.8 14.4-15.9 22.1-23.7 18.6-18.6 45.8-31.5 81.1-38.4q0 0 0 0c16.7-3.2 28.7-0.8 36.5 7.5z"/><path class="e" d="m1207.2 98.9q0 0 0 0 0 0 0 0z"/><path class="f" d="m1248.4 18.5c6.1 6.4 8.4 15.5 6.1 24.3-3.6 14.2-15.2 20.3-20.8 23.2-0.7 0.4-1.4 0.7-2 1.1-1.6 1-3.3 2.2-5.1 3.4-8.9 6-19.1 12.8-24.6 19.3-0.6 0.9-1.4 2.9-1.8 4.5 0.9 1.5 1.7 2.9 2.5 3.9q0.6 0.6 1.2 1.1 0 0 0 0 1.1 0.9 2.2 2 2.1 1.8 4.6 3.8c4 3.3 8.6 7 12.8 11.5 1.2 1.2 2.7 2.5 4.1 4.1 6.6 7.1 12.6 15.4 18.3 25.2 1.5 2 3.1 4.2 4.8 6.4 4.1 5 8.3 7.6 18.9 11.4 11.6 4.3 18 16.4 15.1 28.9-2.7 11.8-10.2 19.5-22.2 23.1l-2.8 0.8c-8.4 2.5-18.1 5.3-29.3 5.7-22.2 0.8-42.9-3-61.1-6.5-25.1-4.6-42.2-17-55.6-28.6-9.4-8-16.7-17.3-23.2-26.1-11.7-0.7-22-0.2-31.7 1.4-10 1.7-19.2 3.3-27.2 6.5-7.1 2.8-14.2 6.7-21.7 10.8q-3.2 1.8-6.4 3.6c-24 13-65.6 45.9-94 70.1q-0.4 0.4-0.9 0.8l-0.1 0.1q-0.5 0.4-1 0.8c-4.8 3.7-9.4 7.5-14.2 11.5-8.5 7.1-17.3 14.3-26.8 21-14.1 10-29.4 20.6-45.2 30.7-26.8 17-57.1 34.3-92.7 53-12.8 6.8-25.6 13-38.4 18.7 3.3 1 6.6 1.9 10.1 2.9 4.8 1.3 9.7 2.7 14.8 4.3 0.8 0.2 2.7 0.4 3.9 0.6 8.7 1.1 28.9 3.6 35.5 24 4.7 14.3-2.7 29.6-17.9 37q-2 1-4.2 1.8c-8.5 3.1-18.1 3.8-27 1.8q-0.2 0-0.3-0.1-0.4 0.4-1.2 1.1c-3.6 3.2-12.1 10.7-23.9 11.2-4.8 0.2-8.9-0.7-12-1.7-4.2 2.4-10.3 5-17.9 4.7-9.6-0.5-16.1-4.4-19.9-6.9-2.8 0.8-6.6 1.7-11.3 1.9-9.8 0.3-16.5-3.5-19.8-5.4q-0.2-0.1-0.4-0.3c-0.9 0-2.6 0.2-3.8 0.4-3 0.3-6.8 0.7-11.1 0.6-11.2-0.3-18.4-6.8-21.8-10-0.9-0.2-2.1-0.4-3.1-0.5-6-0.9-15.1-2.2-23.8-8.7-1.4-1-2.7-2.2-3.8-3.3-47.8 12.7-95.6 21.8-140.7 30-31.4 5.7-60.6 8.9-89.2 9.7l-3.9 0.2c-26 0.7-52.9 1.5-80-2-12.3-1.6-23.7-4.4-34.8-7.1q-3-0.7-6-1.4c-13.9-3.3-28.5-7.3-41.9-13.6-12-5.6-23.7-11.8-35-17.7l-4.7-2.5c-3-1.5-6.2-3-9.6-4.6q-3.2-1.5-6.4-3.1c-0.6-0.2-1.4-0.5-2.4-0.8-0.9-0.1-2.1 0-3.8 0.4-13.2 2.7-24.6 1.4-34.8-3.9-10.7-5.6-18.6-20.3-18-33.4 0.5-11.1 7-20.6 17-24.8q2.1-0.9 4.3-1.5c6-10 13.6-17.4 17.4-20.8 10.7-9.4 23.1-15.6 34-21 4.6-2.4 9-4.5 12.9-6.8l5.1-2.9c15.9-9.1 32.4-18.6 46.4-29.2 8.4-6.5 16.5-13.6 25-21.2 7.1-6.3 14.5-12.9 22.2-19.1 33.2-26.6 72.3-51.2 116.3-73.1 13.9-6.9 28-13.2 41.7-19.3 7.3-3.3 14.6-6.5 21.9-9.9 7.6-3.5 15.3-7.3 22.8-11 10.9-5.4 22.2-11 33.9-16 27.3-11.8 56.7-23.9 86.7-32.9 13.6-4.1 27.3-7.4 40.5-10.6l6.5-1.5c6.4-1.6 12.7-3.4 19.3-5.2 7-2 14.3-4.1 21.7-5.8 29.8-7.2 60.2-12.5 90.2-15.9 13.1-1.5 27.1-2.2 43.8-2.3 5.2-1 10.8-2.4 17.1-4.1l3-0.9c10.9-2.9 22.2-6 30.9-10.5 5.4-2.8 21.7-11.2 36.7-2.5 7.6 4.3 12.4 11.9 13.6 20.9 46 2.3 83.6 6.2 119.1 12.2q11.8 1.9 23.8 3.8c33.4 5.4 68 10.9 101.5 20.8 0.4-0.1 0.7-0.2 0.8-0.2 1.9-0.7 4.1-1.9 7.9-6.1l4.6-5.1c7.1-7.9 14.4-16 22.2-23.7 18.5-18.6 45.8-31.5 81-38.4q0.1 0 0.1 0c16.7-3.3 28.6-0.8 36.4 7.5z"/><path class="f" d="m1203.9 97.3q0 0 0 0 0 0 0 0z"/><path class="g" d="m1245.1 17c6.1 6.4 8.4 15.5 6.2 24.3-3.7 14.2-15.3 20.3-20.9 23.2-0.7 0.4-1.4 0.7-2 1.1-1.5 1-3.3 2.2-5 3.4-9 5.9-19.2 12.7-24.7 19.3-0.6 0.8-1.4 2.9-1.8 4.5 0.9 1.5 1.7 2.9 2.5 3.8q0.6 0.6 1.2 1.2 0 0 0 0 1.2 0.9 2.2 2 2.1 1.8 4.6 3.8c4 3.3 8.6 7 12.8 11.5 1.2 1.1 2.7 2.5 4.1 4.1 6.6 7.1 12.6 15.4 18.4 25.2 1.4 2 3.1 4.2 4.8 6.4 4 5 8.3 7.6 18.8 11.4 11.6 4.3 18 16.4 15.1 28.9-2.7 11.8-10.2 19.5-22.2 23l-2.7 0.9c-8.5 2.5-18.1 5.3-29.3 5.7-22.2 0.8-42.9-3.1-61.2-6.5-25.1-4.7-42.2-17.1-55.6-28.6-9.4-8-16.7-17.3-23.2-26.1-11.7-0.7-22-0.2-31.7 1.4-9.9 1.7-19.2 3.3-27.1 6.4-7.2 2.8-14.2 6.8-21.8 10.9q-3.2 1.8-6.4 3.6c-24 13-65.6 45.9-93.9 70.1q-0.5 0.4-1 0.8h-0.1q-0.5 0.5-1 0.9c-4.7 3.7-9.3 7.5-14.2 11.5-8.5 7-17.3 14.3-26.8 21-14.1 10-29.4 20.6-45.2 30.7-26.8 17-57.1 34.3-92.6 53-12.9 6.7-25.7 13-38.4 18.7 3.2 1 6.5 1.9 10 2.9 4.8 1.3 9.7 2.6 14.8 4.3 0.8 0.2 2.7 0.4 3.9 0.6 8.7 1.1 28.9 3.6 35.5 24 4.7 14.3-2.7 29.5-17.9 37q-2 1-4.2 1.8c-8.4 3.1-18.1 3.7-27 1.8q-0.1-0.1-0.2-0.1-0.5 0.4-1.3 1.1c-3.6 3.2-12.1 10.6-23.9 11.2-4.8 0.2-8.9-0.7-12-1.8-4.2 2.5-10.2 5.1-17.9 4.8-9.6-0.5-16.1-4.4-19.9-7-2.8 0.9-6.6 1.8-11.3 2-9.8 0.3-16.5-3.6-19.7-5.4q-0.3-0.2-0.5-0.3c-0.9 0-2.6 0.2-3.8 0.3-3 0.4-6.7 0.8-11.1 0.7-11.2-0.3-18.4-6.8-21.8-10.1-0.8-0.1-2.1-0.3-3-0.4-6.1-0.9-15.2-2.2-23.9-8.7-1.4-1.1-2.7-2.2-3.8-3.3-47.7 12.7-95.5 21.8-140.7 30-31.4 5.7-60.6 8.9-89.2 9.7l-3.9 0.1c-26 0.8-52.9 1.6-80-1.9-12.3-1.6-23.7-4.4-34.8-7.1q-3-0.7-6-1.4c-13.8-3.4-28.5-7.3-41.9-13.6-12-5.6-23.7-11.8-35-17.7l-4.7-2.5c-3-1.6-6.2-3.1-9.6-4.6q-3.2-1.5-6.4-3.1c-0.5-0.3-1.4-0.6-2.4-0.9-0.9 0-2.1 0.1-3.8 0.4-13.2 2.8-24.6 1.5-34.7-3.8-10.7-5.7-18.7-20.3-18.1-33.4 0.5-11.1 7-20.6 17-24.8q2.2-0.9 4.3-1.6c6-9.9 13.6-17.3 17.4-20.7 10.7-9.4 23.1-15.6 34-21 4.6-2.4 9-4.6 13-6.9l5-2.8c15.9-9.2 32.4-18.6 46.4-29.3 8.5-6.4 16.5-13.6 25-21.1 7.1-6.4 14.5-12.9 22.2-19.2 33.2-26.6 72.3-51.1 116.3-73 13.9-6.9 28-13.2 41.7-19.3 7.3-3.3 14.7-6.6 21.9-9.9 7.6-3.5 15.3-7.3 22.8-11 10.9-5.4 22.2-11 33.9-16 27.3-11.8 56.8-24 86.7-33 13.6-4 27.3-7.3 40.6-10.5l6.4-1.6c6.4-1.5 12.7-3.3 19.4-5.2 7-1.9 14.2-4 21.6-5.8 29.8-7.1 60.2-12.4 90.2-15.8 13.1-1.5 27.1-2.2 43.8-2.3 5.2-1.1 10.8-2.4 17.1-4.2l3.1-0.8c10.8-3 22.1-6 30.9-10.6 5.3-2.7 21.7-11.1 36.6-2.5 7.6 4.4 12.5 12 13.6 21 46 2.3 83.6 6.2 119.1 12.2q11.9 1.9 23.8 3.8c33.5 5.4 68 10.9 101.6 20.7 0.3 0 0.6-0.1 0.8-0.2 1.8-0.6 4-1.9 7.8-6l4.7-5.2c7-7.8 14.4-15.9 22.1-23.6 18.5-18.6 45.8-31.5 81.1-38.4q0 0 0 0c16.7-3.3 28.6-0.8 36.4 7.5z"/><path class="g" d="m1200.6 95.8q0 0 0 0 0 0 0 0z"/><path class="h" d="m1241.9 15.5c6 6.4 8.3 15.5 6.1 24.3-3.7 14.2-15.3 20.3-20.9 23.2-0.7 0.3-1.3 0.7-1.9 1-1.6 1.1-3.3 2.3-5.1 3.4-9 6-19.1 12.8-24.6 19.4-0.6 0.8-1.5 2.9-1.9 4.5 0.9 1.5 1.8 2.8 2.5 3.8q0.6 0.6 1.2 1.2 0 0 0 0 1.2 0.9 2.2 1.9 2.2 1.9 4.6 3.9c4.1 3.3 8.6 7 12.9 11.5 1.1 1.1 2.6 2.5 4.1 4.1 6.5 7.1 12.5 15.4 18.3 25.2 1.4 2 3.1 4.2 4.8 6.3 4.1 5.1 8.3 7.7 18.8 11.5 11.6 4.3 18 16.4 15.2 28.9-2.8 11.8-10.3 19.5-22.3 23l-2.7 0.8c-8.5 2.6-18.1 5.4-29.3 5.8-22.2 0.8-42.9-3.1-61.2-6.5-25.1-4.7-42.2-17.1-55.6-28.6-9.3-8.1-16.6-17.3-23.1-26.2-11.8-0.6-22.1-0.2-31.8 1.5-9.9 1.7-19.2 3.3-27.1 6.4-7.1 2.8-14.2 6.7-21.7 10.9q-3.2 1.8-6.5 3.6c-24 13-65.6 45.9-93.9 70.1q-0.5 0.4-1 0.7l-0.1 0.1q-0.5 0.4-1 0.8c-4.7 3.7-9.3 7.6-14.2 11.6-8.5 7-17.3 14.3-26.8 21-14.1 10-29.4 20.6-45.2 30.6-26.8 17-57.1 34.4-92.6 53-12.9 6.8-25.7 13-38.4 18.8 3.2 1 6.5 1.9 10 2.8 4.8 1.4 9.8 2.7 14.9 4.4 0.7 0.2 2.6 0.4 3.9 0.6 8.6 1 28.8 3.5 35.4 24 4.7 14.3-2.7 29.5-17.8 37q-2.1 1-4.3 1.8c-8.4 3.1-18 3.7-27 1.8q-0.1-0.1-0.2-0.1-0.5 0.4-1.3 1.1c-3.6 3.2-12.1 10.6-23.8 11.1-4.9 0.3-8.9-0.6-12.1-1.7-4.2 2.5-10.2 5.1-17.8 4.7-9.7-0.4-16.2-4.3-20-6.9-2.8 0.8-6.5 1.8-11.3 1.9-9.8 0.4-16.5-3.5-19.7-5.3q-0.3-0.2-0.5-0.3c-0.9 0-2.5 0.2-3.8 0.3-3 0.4-6.7 0.8-11.1 0.7-11.2-0.4-18.4-6.9-21.7-10.1-0.9-0.1-2.1-0.3-3.1-0.5-6.1-0.8-15.2-2.1-23.9-8.6-1.4-1.1-2.6-2.2-3.7-3.3-47.8 12.7-95.6 21.8-140.7 30-31.5 5.7-60.6 8.8-89.2 9.7l-4 0.1c-26 0.8-52.9 1.6-79.9-1.9-12.4-1.6-23.8-4.4-34.9-7.1q-3-0.7-6-1.5c-13.8-3.3-28.5-7.2-41.9-13.5-12-5.7-23.7-11.8-35-17.7l-4.7-2.5c-3-1.6-6.2-3.1-9.6-4.7q-3.2-1.5-6.4-3c-0.5-0.3-1.4-0.6-2.3-0.9-0.9 0-2.1 0.1-3.9 0.4-13.2 2.8-24.6 1.5-34.7-3.8-10.7-5.7-18.6-20.3-18.1-33.4 0.5-11.1 7-20.7 17-24.8q2.2-0.9 4.3-1.6c6-10 13.6-17.3 17.5-20.7 10.7-9.4 23-15.6 33.9-21.1 4.6-2.3 9-4.5 13-6.8l5-2.9c16-9.1 32.5-18.5 46.4-29.2 8.5-6.4 16.5-13.6 25-21.2 7.1-6.3 14.5-12.8 22.3-19.1 33.1-26.6 72.2-51.2 116.3-73 13.8-6.9 28-13.2 41.7-19.3 7.3-3.3 14.6-6.6 21.8-9.9 7.6-3.5 15.3-7.3 22.8-11 10.9-5.4 22.2-11 33.9-16 27.3-11.8 56.8-24 86.8-33 13.5-4.1 27.2-7.3 40.5-10.5l6.4-1.6c6.4-1.5 12.7-3.3 19.4-5.2 7-2 14.2-4 21.6-5.8 29.9-7.1 60.2-12.4 90.2-15.8 13.1-1.5 27.1-2.2 43.9-2.3 5.1-1.1 10.8-2.4 17-4.2l3.1-0.8c10.9-3 22.1-6.1 30.9-10.6 5.4-2.7 21.7-11.1 36.7-2.5 7.5 4.4 12.4 11.9 13.5 21 46 2.3 83.6 6.2 119.1 12.1q11.9 2 23.8 3.9c33.5 5.4 68 10.9 101.6 20.7 0.3 0 0.6-0.1 0.8-0.2 1.8-0.6 4-1.9 7.8-6l4.7-5.2c7.1-7.8 14.4-15.9 22.1-23.6 18.5-18.6 45.8-31.5 81.1-38.4q0 0 0 0c16.7-3.3 28.6-0.8 36.5 7.5z"/><path class="h" d="m1197.3 94.3q0 0 0 0 0 0 0 0z"/><path class="i" d="m1238.6 13.9c6.1 6.5 8.4 15.6 6.1 24.4-3.7 14.2-15.3 20.2-20.9 23.2-0.7 0.3-1.3 0.6-1.9 1-1.6 1.1-3.3 2.2-5.1 3.4-9 6-19.1 12.8-24.6 19.4-0.6 0.8-1.4 2.9-1.9 4.5 0.9 1.5 1.8 2.8 2.6 3.8q0.5 0.6 1.1 1.2 0 0 0.1 0 1.1 0.9 2.1 1.9 2.2 1.9 4.6 3.8c4.1 3.3 8.6 7.1 12.9 11.6 1.2 1.1 2.6 2.5 4.1 4.1 6.5 7.1 12.5 15.3 18.3 25.2 1.4 2 3.1 4.2 4.8 6.3 4.1 5.1 8.3 7.7 18.9 11.5 11.6 4.2 17.9 16.4 15.1 28.8-2.7 11.9-10.2 19.6-22.2 23.1l-2.8 0.8c-8.5 2.5-18.1 5.4-29.3 5.8-22.2 0.8-42.9-3.1-61.1-6.5-25.2-4.7-42.3-17.1-55.6-28.6-9.4-8.1-16.7-17.4-23.2-26.2-11.8-0.7-22.1-0.2-31.8 1.5-9.9 1.7-19.2 3.3-27.1 6.4-7.1 2.8-14.2 6.7-21.7 10.9q-3.2 1.8-6.5 3.5c-23.9 13.1-65.6 45.9-93.9 70.1q-0.5 0.5-1 0.8v0.1q-0.6 0.4-1.1 0.8c-4.7 3.7-9.3 7.5-14.2 11.6-8.5 7-17.2 14.3-26.8 21-14.1 10-29.3 20.6-45.2 30.6-26.8 17-57.1 34.4-92.6 53-12.9 6.8-25.6 13-38.4 18.8 3.2 1 6.6 1.9 10 2.8 4.8 1.3 9.8 2.7 14.9 4.4 0.7 0.2 2.6 0.4 3.9 0.6 8.6 1 28.9 3.5 35.5 24 4.6 14.3-2.7 29.5-17.9 36.9q-2.1 1-4.2 1.8c-8.5 3.1-18.1 3.8-27.1 1.8q-0.1 0-0.2 0-0.5 0.4-1.3 1.1c-3.6 3.2-12 10.6-23.8 11.1-4.9 0.2-8.9-0.6-12.1-1.7-4.2 2.5-10.2 5.1-17.8 4.7-9.7-0.4-16.1-4.4-19.9-6.9-2.8 0.8-6.6 1.8-11.3 1.9-9.9 0.4-16.6-3.5-19.8-5.4q-0.2-0.1-0.5-0.2c-0.8 0-2.5 0.2-3.8 0.3-3 0.3-6.7 0.8-11.1 0.6-11.2-0.3-18.4-6.8-21.7-10-0.9-0.2-2.1-0.3-3.1-0.5-6-0.8-15.2-2.2-23.8-8.6-1.5-1.1-2.7-2.2-3.8-3.4-47.8 12.8-95.6 21.8-140.7 30-31.4 5.7-60.6 8.9-89.2 9.8l-4 0.1c-26 0.8-52.9 1.6-79.9-1.9-12.4-1.6-23.8-4.4-34.8-7.1q-3-0.8-6.1-1.5c-13.8-3.3-28.4-7.2-41.9-13.5-12-5.7-23.7-11.8-35-17.8l-4.6-2.4c-3.1-1.6-6.3-3.1-9.6-4.7q-3.2-1.5-6.4-3c-0.6-0.3-1.5-0.6-2.4-0.9-0.9 0-2.1 0-3.8 0.4-13.3 2.7-24.6 1.5-34.8-3.9-10.7-5.6-18.6-20.2-18.1-33.3 0.5-11.2 7.1-20.7 17.1-24.9q2.1-0.9 4.2-1.5c6-10 13.7-17.4 17.5-20.7 10.7-9.4 23-15.6 33.9-21.1 4.6-2.3 9-4.5 13-6.8l5-2.9c16-9.1 32.5-18.5 46.4-29.2 8.5-6.4 16.5-13.6 25.1-21.2 7.1-6.3 14.4-12.8 22.2-19.1 33.1-26.6 72.2-51.2 116.3-73 13.8-6.9 28-13.3 41.7-19.4 7.3-3.2 14.6-6.5 21.9-9.8 7.5-3.5 15.3-7.3 22.7-11 11-5.4 22.3-11 33.9-16 27.4-11.8 56.8-24 86.8-33 13.6-4.1 27.3-7.4 40.5-10.5l6.5-1.6c6.3-1.5 12.6-3.3 19.3-5.2 7-2 14.2-4 21.7-5.8 29.8-7.1 60.1-12.4 90.2-15.8 13-1.5 27-2.2 43.8-2.3 5.2-1.1 10.8-2.5 17-4.2l3.1-0.8c10.9-3 22.1-6.1 30.9-10.6 5.4-2.8 21.7-11.2 36.7-2.5 7.6 4.4 12.4 11.9 13.5 20.9 46 2.4 83.6 6.2 119.2 12.2q11.8 2 23.7 3.9c33.5 5.3 68 10.9 101.6 20.7 0.4-0.1 0.6-0.1 0.8-0.2 1.8-0.7 4.1-1.9 7.9-6.1l4.6-5.1c7.1-7.8 14.4-15.9 22.1-23.7 18.5-18.5 45.8-31.5 81.1-38.4q0 0 0 0c16.7-3.2 28.7-0.8 36.5 7.5z"/><path class="i" d="m1194 92.8q0 0 0 0h0.1q0 0-0.1 0z"/><path class="j" d="m1235.3 12.4c6.1 6.5 8.4 15.6 6.1 24.3-3.6 14.2-15.3 20.3-20.9 23.2-0.6 0.4-1.3 0.7-1.9 1.1-1.6 1.1-3.3 2.2-5.1 3.4-8.9 6-19.1 12.8-24.6 19.3-0.6 0.9-1.4 3-1.8 4.6 0.8 1.4 1.7 2.8 2.5 3.8q0.6 0.6 1.2 1.2 0 0 0 0 1.1 0.9 2.1 1.9 2.2 1.8 4.7 3.8c4 3.3 8.5 7 12.8 11.6 1.2 1.1 2.6 2.5 4.1 4.1 6.5 7.1 12.6 15.3 18.3 25.1 1.5 2 3.1 4.3 4.8 6.4 4.1 5.1 8.3 7.6 18.9 11.5 11.6 4.2 18 16.4 15.1 28.8-2.7 11.9-10.2 19.6-22.2 23.1l-2.8 0.8c-8.5 2.5-18.1 5.4-29.3 5.8-22.2 0.7-42.9-3.1-61.1-6.5-25.1-4.7-42.2-17.1-55.6-28.6-9.4-8.1-16.7-17.4-23.2-26.2-11.8-0.7-22-0.2-31.8 1.5-9.9 1.7-19.2 3.3-27.1 6.4-7.1 2.8-14.2 6.7-21.7 10.9q-3.2 1.8-6.4 3.5c-24 13-65.6 45.9-94 70.1q-0.5 0.4-0.9 0.8l-0.1 0.1q-0.5 0.4-1 0.8c-4.8 3.7-9.4 7.5-14.3 11.6-8.5 7-17.2 14.2-26.8 21-14.1 9.9-29.3 20.6-45.2 30.6-26.7 17-57 34.3-92.6 53-12.9 6.8-25.6 13-38.4 18.8 3.2 0.9 6.6 1.9 10 2.8 4.8 1.3 9.8 2.7 14.9 4.4 0.8 0.1 2.6 0.4 3.9 0.5 8.6 1.1 28.9 3.6 35.5 24.1 4.6 14.3-2.7 29.5-17.9 36.9q-2 1-4.2 1.8c-8.5 3.1-18.1 3.8-27.1 1.8q-0.1 0-0.2 0-0.5 0.4-1.2 1c-3.7 3.2-12.1 10.7-23.9 11.2-4.9 0.2-8.9-0.6-12.1-1.7-4.1 2.4-10.2 5.1-17.8 4.7-9.6-0.4-16.1-4.4-19.9-6.9-2.8 0.8-6.6 1.7-11.3 1.9-9.8 0.4-16.6-3.5-19.8-5.4q-0.2-0.1-0.5-0.3c-0.8 0.1-2.5 0.2-3.8 0.4-3 0.3-6.7 0.7-11 0.6-11.2-0.3-18.4-6.8-21.8-10-0.9-0.2-2.1-0.4-3.1-0.5-6-0.9-15.1-2.2-23.8-8.7-1.4-1-2.7-2.1-3.8-3.3-47.8 12.8-95.6 21.8-140.7 30-31.4 5.7-60.6 8.9-89.2 9.8l-4 0.1c-26 0.8-52.8 1.6-79.9-1.9-12.3-1.6-23.8-4.4-34.8-7.1q-3-0.8-6-1.5c-13.9-3.3-28.5-7.3-42-13.6-12-5.6-23.6-11.7-35-17.7l-4.6-2.4c-3-1.6-6.2-3.1-9.6-4.7q-3.2-1.5-6.4-3c-0.6-0.3-1.5-0.6-2.4-0.9-0.9 0-2.1 0-3.8 0.4-13.3 2.7-24.6 1.5-34.8-3.9-10.7-5.6-18.6-20.3-18-33.3 0.5-11.2 7-20.7 17-24.9q2.1-0.9 4.3-1.5c5.9-10 13.6-17.4 17.4-20.7 10.7-9.4 23-15.6 33.9-21.1 4.7-2.3 9-4.5 13-6.8l5.1-2.9c15.9-9.1 32.4-18.6 46.4-29.2 8.4-6.5 16.5-13.6 25-21.2 7.1-6.3 14.4-12.9 22.2-19.1 33.2-26.6 72.3-51.2 116.3-73.1 13.9-6.9 28-13.2 41.7-19.3 7.3-3.2 14.6-6.5 21.9-9.9 7.5-3.4 15.3-7.3 22.8-11 10.9-5.3 22.2-10.9 33.8-16 27.4-11.8 56.8-23.9 86.8-32.9 13.6-4.1 27.3-7.4 40.5-10.6l6.5-1.5c6.3-1.6 12.6-3.3 19.3-5.2 7-2 14.3-4 21.7-5.8 29.8-7.1 60.1-12.5 90.2-15.9 13.1-1.4 27-2.2 43.8-2.2 5.2-1.1 10.8-2.5 17.1-4.2l3-0.8c10.9-3 22.2-6.1 30.9-10.6 5.4-2.8 21.7-11.2 36.7-2.5 7.6 4.4 12.4 11.9 13.5 20.9 46 2.4 83.6 6.2 119.2 12.2q11.8 2 23.8 3.9c33.4 5.3 68 10.9 101.5 20.7 0.4-0.1 0.7-0.2 0.8-0.2 1.8-0.7 4.1-1.9 7.9-6.1l4.6-5.1c7.1-7.8 14.4-15.9 22.1-23.7 18.6-18.6 45.8-31.5 81.1-38.4q0 0 0 0c16.8-3.2 28.7-0.8 36.5 7.5z"/><path class="j" d="m1190.8 91.3q0 0 0 0 0 0 0 0z"/><path class="k" d="m1232 10.9c6.1 6.5 8.4 15.6 6.1 24.3-3.6 14.2-15.2 20.3-20.8 23.2-0.7 0.4-1.4 0.7-2 1.1-1.6 1-3.3 2.2-5.1 3.4-8.9 6-19.1 12.8-24.6 19.3-0.6 0.9-1.4 2.9-1.8 4.5 0.9 1.5 1.7 2.9 2.5 3.9q0.6 0.6 1.2 1.1 0 0.1 0 0.1 1.1 0.8 2.2 1.9 2.1 1.8 4.6 3.8c4 3.3 8.6 7 12.8 11.6 1.2 1.1 2.7 2.4 4.1 4.1 6.6 7 12.6 15.3 18.3 25.1 1.5 2 3.1 4.2 4.9 6.4 4 5.1 8.2 7.6 18.8 11.5 11.6 4.2 18 16.3 15.1 28.8-2.7 11.9-10.2 19.6-22.2 23.1l-2.8 0.8c-8.4 2.5-18 5.4-29.3 5.7-22.2 0.8-42.8-3-61.1-6.4-25.1-4.7-42.2-17.1-55.6-28.7-9.4-8-16.7-17.3-23.2-26.1-11.7-0.7-22-0.2-31.7 1.5-10 1.7-19.2 3.2-27.1 6.4-7.2 2.8-14.3 6.7-21.8 10.9q-3.2 1.7-6.4 3.5c-24 13-65.6 45.9-94 70.1q-0.4 0.4-0.9 0.8l-0.1 0.1q-0.5 0.4-1 0.8c-4.8 3.7-9.4 7.5-14.2 11.5-8.5 7.1-17.3 14.3-26.8 21.1-14.1 9.9-29.4 20.5-45.2 30.6-26.8 17-57.1 34.3-92.7 53-12.8 6.8-25.6 13-38.3 18.7 3.2 1 6.5 1.9 10 2.9 4.8 1.3 9.7 2.7 14.8 4.4 0.8 0.1 2.7 0.4 3.9 0.5 8.7 1.1 28.9 3.6 35.5 24.1 4.7 14.3-2.7 29.5-17.9 36.9q-2 1-4.2 1.8c-8.5 3.1-18.1 3.8-27 1.8q-0.2 0-0.3 0-0.4 0.3-1.2 1c-3.6 3.2-12.1 10.7-23.9 11.2-4.8 0.2-8.9-0.7-12-1.7-4.2 2.4-10.3 5-17.9 4.7-9.6-0.5-16.1-4.4-19.9-6.9-2.8 0.8-6.6 1.7-11.3 1.9-9.8 0.3-16.5-3.5-19.8-5.4q-0.2-0.1-0.4-0.3c-0.9 0-2.6 0.2-3.8 0.4-3 0.3-6.7 0.7-11.1 0.6-11.2-0.3-18.4-6.8-21.8-10-0.9-0.2-2.1-0.4-3.1-0.5-6-0.9-15.1-2.2-23.8-8.7-1.4-1-2.7-2.2-3.8-3.3-47.8 12.8-95.6 21.8-140.7 30-31.4 5.7-60.6 8.9-89.2 9.7l-3.9 0.2c-26 0.8-52.9 1.6-80-1.9-12.3-1.7-23.7-4.4-34.8-7.2q-3-0.7-6-1.4c-13.9-3.3-28.5-7.3-41.9-13.6-12-5.6-23.7-11.8-35-17.7l-4.7-2.4c-3-1.6-6.2-3.1-9.6-4.7q-3.2-1.5-6.4-3.1c-0.6-0.2-1.4-0.5-2.4-0.8-0.9-0.1-2.1 0-3.8 0.4-13.2 2.7-24.6 1.4-34.8-3.9-10.7-5.6-18.6-20.3-18-33.4 0.5-11.1 7-20.6 17-24.8q2.2-0.9 4.3-1.5c6-10 13.6-17.4 17.4-20.8 10.7-9.4 23.1-15.6 34-21 4.6-2.3 9-4.5 13-6.8l5-2.9c15.9-9.1 32.4-18.6 46.4-29.2 8.4-6.5 16.5-13.6 25-21.2 7.1-6.3 14.5-12.9 22.2-19.1 33.2-26.6 72.3-51.2 116.3-73.1 13.9-6.9 28-13.2 41.7-19.3 7.3-3.3 14.6-6.5 21.9-9.9 7.6-3.5 15.3-7.3 22.8-11 10.9-5.4 22.2-10.9 33.9-16 27.3-11.8 56.7-23.9 86.7-32.9 13.6-4.1 27.3-7.4 40.5-10.6l6.5-1.5c6.4-1.6 12.7-3.4 19.4-5.2 6.9-2 14.2-4 21.6-5.8 29.8-7.2 60.2-12.5 90.2-15.9 13.1-1.4 27.1-2.2 43.8-2.2 5.2-1.1 10.8-2.5 17.1-4.2l3-0.9c10.9-2.9 22.2-6 31-10.5 5.3-2.8 21.6-11.2 36.6-2.5 7.6 4.4 12.5 11.9 13.6 20.9 46 2.3 83.6 6.2 119.1 12.2q11.8 2 23.8 3.9c33.4 5.3 68 10.8 101.6 20.7 0.3-0.1 0.6-0.2 0.7-0.2 1.9-0.7 4.1-1.9 7.9-6.1l4.6-5.1c7.1-7.9 14.4-15.9 22.2-23.7 18.5-18.6 45.8-31.5 81-38.4q0.1 0 0.1 0c16.7-3.2 28.6-0.8 36.4 7.5z"/><path class="k" d="m1187.5 89.8v-0.1q0 0 0 0 0 0.1 0 0.1z"/><path class="l" d="m1228.7 9.4c6.1 6.4 8.4 15.5 6.2 24.3-3.7 14.2-15.3 20.3-20.9 23.2-0.7 0.4-1.4 0.7-2 1.1-1.5 1-3.3 2.2-5 3.4-9 6-19.2 12.7-24.6 19.3-0.7 0.8-1.5 2.9-1.9 4.5 0.9 1.5 1.7 2.9 2.5 3.9q0.6 0.6 1.2 1.1 0 0 0 0 1.2 0.9 2.2 2 2.1 1.8 4.6 3.8c4 3.3 8.6 7 12.8 11.5 1.2 1.2 2.7 2.5 4.2 4.1 6.5 7.1 12.5 15.4 18.3 25.2 1.4 2 3.1 4.2 4.8 6.4 4 5 8.3 7.6 18.8 11.4 11.6 4.3 18 16.4 15.1 28.9-2.7 11.8-10.2 19.5-22.2 23.1l-2.7 0.8c-8.5 2.5-18.1 5.3-29.3 5.7-22.2 0.8-42.9-3.1-61.2-6.5-25.1-4.6-42.2-17.1-55.6-28.6-9.4-8-16.7-17.3-23.2-26.1-11.7-0.7-22-0.2-31.7 1.4-9.9 1.7-19.2 3.3-27.1 6.4-7.2 2.8-14.2 6.8-21.8 10.9q-3.2 1.8-6.4 3.6c-24 13-65.6 45.9-93.9 70.1q-0.5 0.4-1 0.8l-0.1 0.1q-0.5 0.4-1 0.8c-4.7 3.7-9.3 7.5-14.2 11.5-8.5 7.1-17.3 14.3-26.8 21-14.1 10-29.4 20.6-45.2 30.7-26.8 17-57.1 34.3-92.6 53-12.9 6.7-25.7 13-38.4 18.7 3.2 1 6.5 1.9 10 2.9 4.8 1.3 9.7 2.7 14.9 4.3 0.7 0.2 2.6 0.4 3.8 0.6 8.7 1.1 28.9 3.6 35.5 24 4.7 14.3-2.7 29.5-17.9 37q-2 1-4.2 1.8c-8.4 3.1-18.1 3.8-27 1.8q-0.1 0-0.2-0.1-0.5 0.4-1.3 1.1c-3.6 3.2-12.1 10.7-23.9 11.2-4.8 0.2-8.9-0.7-12-1.8-4.2 2.5-10.2 5.1-17.9 4.8-9.6-0.5-16.1-4.4-19.9-6.9-2.8 0.8-6.6 1.7-11.3 1.9-9.8 0.3-16.5-3.6-19.7-5.4q-0.3-0.2-0.5-0.3c-0.9 0-2.5 0.2-3.8 0.3-3 0.4-6.7 0.8-11.1 0.7-11.2-0.3-18.4-6.8-21.8-10-0.8-0.2-2.1-0.4-3-0.5-6.1-0.9-15.2-2.2-23.9-8.7-1.4-1-2.7-2.2-3.8-3.3-47.7 12.7-95.5 21.8-140.7 30-31.4 5.7-60.5 8.9-89.1 9.7l-4 0.2c-26 0.7-52.9 1.5-80-2-12.3-1.6-23.7-4.4-34.8-7.1q-3-0.7-6-1.4c-13.8-3.4-28.5-7.3-41.9-13.6-12-5.6-23.7-11.8-35-17.7l-4.7-2.5c-3-1.5-6.2-3-9.6-4.6q-3.2-1.5-6.4-3.1c-0.5-0.2-1.4-0.6-2.3-0.8-1-0.1-2.2 0-3.9 0.3-13.2 2.8-24.6 1.5-34.7-3.8-10.7-5.6-18.7-20.3-18.1-33.4 0.5-11.1 7-20.6 17-24.8q2.2-0.9 4.3-1.6c6-9.9 13.6-17.3 17.4-20.7 10.7-9.4 23.1-15.6 34-21 4.6-2.4 9-4.6 13-6.8l5-2.9c16-9.2 32.4-18.6 46.4-29.2 8.5-6.5 16.5-13.6 25-21.2 7.1-6.4 14.5-12.9 22.3-19.1 33.1-26.7 72.2-51.2 116.2-73.1 13.9-6.9 28.1-13.2 41.7-19.3 7.3-3.3 14.7-6.5 21.9-9.9 7.6-3.5 15.3-7.3 22.8-11 10.9-5.4 22.2-11 33.9-16 27.3-11.8 56.8-23.9 86.7-32.9 13.6-4.1 27.3-7.4 40.6-10.6l6.4-1.6c6.4-1.5 12.7-3.3 19.4-5.2 7-1.9 14.2-4 21.6-5.7 29.8-7.2 60.2-12.5 90.2-15.9 13.1-1.5 27.1-2.2 43.8-2.3 5.2-1 10.8-2.4 17.1-4.1l3.1-0.9c10.8-3 22.1-6 30.9-10.5 5.3-2.8 21.7-11.2 36.6-2.5 7.6 4.3 12.5 11.9 13.6 20.9 46 2.3 83.6 6.2 119.1 12.2q11.9 1.9 23.8 3.8c33.5 5.4 68 10.9 101.6 20.8 0.3-0.1 0.6-0.2 0.8-0.2 1.8-0.7 4-1.9 7.8-6.1l4.7-5.1c7-7.9 14.4-16 22.1-23.7 18.5-18.6 45.8-31.5 81.1-38.4q0 0 0 0c16.7-3.3 28.6-0.8 36.4 7.5z"/><path class="l" d="m1184.2 88.2q0 0 0 0 0 0 0 0z"/></g><path class="a" d="m1228.7 9.4c6.1 6.4 8.4 15.5 6.2 24.3-3.7 14.2-15.3 20.3-20.9 23.2-0.7 0.4-1.4 0.7-2 1.1-1.5 1-3.3 2.2-5 3.4-9 6-19.2 12.7-24.6 19.3-0.7 0.8-1.5 2.9-1.9 4.5 0.9 1.5 1.7 2.9 2.5 3.9q0.6 0.6 1.2 1.1 0 0 0 0 1.2 0.9 2.2 2 2.1 1.8 4.6 3.8c4 3.3 8.6 7 12.8 11.5 1.2 1.2 2.7 2.5 4.2 4.1 6.5 7.1 12.5 15.4 18.3 25.2 1.4 2 3.1 4.2 4.8 6.4 4 5 8.3 7.6 18.8 11.4 11.6 4.3 18 16.4 15.1 28.9-2.7 11.8-10.2 19.5-22.2 23.1l-2.7 0.8c-8.5 2.5-18.1 5.3-29.3 5.7-22.2 0.8-42.9-3.1-61.2-6.5-25.1-4.6-42.2-17.1-55.6-28.6-9.4-8-16.7-17.3-23.2-26.1-11.7-0.7-22-0.2-31.7 1.4-9.9 1.7-19.2 3.3-27.1 6.4-7.2 2.8-14.2 6.8-21.8 10.9q-3.2 1.8-6.4 3.6c-24 13-65.6 45.9-93.9 70.1q-0.5 0.4-1 0.8l-0.1 0.1q-0.5 0.4-1 0.8c-4.7 3.7-9.3 7.5-14.2 11.5-8.5 7.1-17.3 14.3-26.8 21-14.1 10-29.4 20.6-45.2 30.7-26.8 17-57.1 34.3-92.6 53-12.9 6.7-25.7 13-38.4 18.7 3.2 1 6.5 1.9 10 2.9 4.8 1.3 9.7 2.7 14.9 4.3 0.7 0.2 2.6 0.4 3.8 0.6 8.7 1.1 28.9 3.6 35.5 24 4.7 14.3-2.7 29.5-17.9 37q-2 1-4.2 1.8c-8.4 3.1-18.1 3.8-27 1.8q-0.1 0-0.2-0.1-0.5 0.4-1.3 1.1c-3.6 3.2-12.1 10.7-23.9 11.2-4.8 0.2-8.9-0.7-12-1.8-4.2 2.5-10.2 5.1-17.9 4.8-9.6-0.5-16.1-4.4-19.9-6.9-2.8 0.8-6.6 1.7-11.3 1.9-9.8 0.3-16.5-3.6-19.7-5.4q-0.3-0.2-0.5-0.3c-0.9 0-2.5 0.2-3.8 0.3-3 0.4-6.7 0.8-11.1 0.7-11.2-0.3-18.4-6.8-21.8-10-0.8-0.2-2.1-0.4-3-0.5-6.1-0.9-15.2-2.2-23.9-8.7-1.4-1-2.7-2.2-3.8-3.3-47.7 12.7-95.5 21.8-140.7 30-31.4 5.7-60.5 8.9-89.1 9.7l-4 0.2c-26 0.7-52.9 1.5-80-2-12.3-1.6-23.7-4.4-34.8-7.1q-3-0.7-6-1.4c-13.8-3.4-28.5-7.3-41.9-13.6-12-5.6-23.7-11.8-35-17.7l-4.7-2.5c-3-1.5-6.2-3-9.6-4.6q-3.2-1.5-6.4-3.1c-0.5-0.2-1.4-0.6-2.3-0.8-1-0.1-2.2 0-3.9 0.3-13.2 2.8-24.6 1.5-34.7-3.8-10.7-5.6-18.7-20.3-18.1-33.4 0.5-11.1 7-20.6 17-24.8q2.2-0.9 4.3-1.6c6-9.9 13.6-17.3 17.4-20.7 10.7-9.4 23.1-15.6 34-21 4.6-2.4 9-4.6 13-6.8l5-2.9c16-9.2 32.4-18.6 46.4-29.2 8.5-6.5 16.5-13.6 25-21.2 7.1-6.4 14.5-12.9 22.3-19.1 33.1-26.7 72.2-51.2 116.2-73.1 13.9-6.9 28.1-13.2 41.7-19.3 7.3-3.3 14.7-6.5 21.9-9.9 7.6-3.5 15.3-7.3 22.8-11 10.9-5.4 22.2-11 33.9-16 27.3-11.8 56.8-23.9 86.7-32.9 13.6-4.1 27.3-7.4 40.6-10.6l6.4-1.6c6.4-1.5 12.7-3.3 19.4-5.2 7-1.9 14.2-4 21.6-5.7 29.8-7.2 60.2-12.5 90.2-15.9 13.1-1.5 27.1-2.2 43.8-2.3 5.2-1 10.8-2.4 17.1-4.1l3.1-0.9c10.8-3 22.1-6 30.9-10.5 5.3-2.8 21.7-11.2 36.6-2.5 7.6 4.3 12.5 11.9 13.6 20.9 46 2.3 83.6 6.2 119.1 12.2q11.9 1.9 23.8 3.8c33.5 5.4 68 10.9 101.6 20.8 0.3-0.1 0.6-0.2 0.8-0.2 1.8-0.7 4-1.9 7.8-6.1l4.7-5.1c7-7.9 14.4-16 22.1-23.7 18.5-18.6 45.8-31.5 81.1-38.4q0 0 0 0c16.7-3.3 28.6-0.8 36.4 7.5z"/><path class="m" d="m1212.5 28c-1.5 5.7-8.9 7.7-13.4 10.8-11.4 7.7-25.6 16.4-34.5 27-4.9 5.9-10.2 20.2-5.9 27.9 2.1 3.8 4.3 7.5 7.1 10.8q1.4 1.5 3 3c0.4 0.3 0.8 0.7 1.2 1 0 0 0 0 0 0.1 5.8 5.1 12.3 9.6 17.4 15.2 1.2 1.2 2.4 2.3 3.5 3.5 6.3 6.8 11.4 14.3 15.9 22.1 2 2.8 4.1 5.5 6.2 8.3 8.1 10.1 17.3 14.4 29 18.7 0.7 0.2 0.6 1.4 0.5 2-0.9 3.6-2.3 4.8-6.2 6-8.8 2.5-17.1 5.3-26.3 5.6-19.2 0.7-37.4-2.6-56.1-6.1-18-3.4-31.2-11.7-44.8-23.4-7.6-6.6-13.8-14.4-19.7-22.5-2-2.7-4-5.6-6.2-8.3-16-1.7-31.7-2-48 0.8-10.7 1.9-21.5 3.7-31.7 7.7-10.8 4.2-20.6 10.1-30.7 15.6-36.5 19.8-98.6 73.5-98.4 73.2q0.1 0 0.2-0.1-0.5 0.4-1.1 0.9c-13.4 10.5-26.1 22-40 31.8-14.6 10.3-29.3 20.5-44.3 30-29.5 18.7-60.1 35.9-91 52.1-25.6 13.5-51.6 25.2-78.8 35.1q-2.7 1-5.3 2 1 0.6 2.1 1.3c11.8 7.1 24.6 14.2 37.4 19.3 11.3 4.7 23.2 6.9 34.8 10.8 7.7 2.5 21.4 0.5 24.4 9.7 1.3 4-3.1 7.6-6 9-4.8 2.4-10.9 2.9-16.1 1.8-9.5-2.1-14.8 0.1-21.8 6.3-2.4 2.1-6.1 5.2-9.6 5.4-4.4 0.1-6.4-2.5-10.3-3.5-7.2-1.8-11.3 6.7-17.5 6.5-6.3-0.3-8.7-4.4-14.2-6.6-7.9-3.2-11.6 1.3-18.9 1.5-4.9 0.2-6.9-2.5-11.2-4.2-8-3.1-14.5-0.2-22.5-0.4-3.5-0.1-6-3.6-8.5-5.6-7.7-6.5-18.8-3-26.9-9-3.7-2.8-5.2-10-10-10.9-50.1 14.2-101.2 24-152.5 33.3-28.5 5.2-56.7 8.5-85.7 9.4-26.7 0.8-53.7 1.8-80.3-1.6-13.1-1.7-25.6-5-38.4-8.1-12.4-3-25.9-6.6-37.5-12-13.1-6.2-25.9-13-38.7-19.8-5.5-2.8-11.1-5.3-16.6-8-2.6-1.2-5.2-2-7.8-2.8-4.1-0.6-8.4-0.5-13.3 0.5-6.5 1.3-13.2 1.5-19.3-1.7-3.7-1.9-9-13.8-2.9-16.4 3.3-1.3 7.2-1.9 11.3-2.2 2.7-9.2 10.5-18.4 16.8-24 12.5-10.9 29-17 43.2-25.2 18.2-10.4 37.2-21 53.9-33.7 16.7-12.7 31.5-27.6 47.7-40.7 34.4-27.6 72.7-50.8 112.1-70.4 20.7-10.3 42-19.2 63-28.9 18.8-8.7 37.1-18.5 56.1-26.7 27.4-11.9 55.7-23.5 84.3-32.1 15.1-4.5 30.4-8.1 45.8-11.8 13.7-3.3 27.2-7.6 40.9-10.9 28.5-6.9 58.3-12.1 87.4-15.4 14.4-1.6 29-2.1 43.6-2.1 7-1.4 13.9-3.1 20.8-5 12.9-3.6 26.6-7.1 38.5-13.2 4.6-2.4 16.3-7.7 16.7 1.4 0.3 6.3-7.3 12.8-7.6 18.4 48.8 1.6 97.6 5 145.8 13.1 42.5 7.1 86.1 12.7 127.5 25.4 3.5-0.5 6.9-0.8 10.6-2.2 6.8-2.5 11.9-6.8 16.8-12.1 8.6-9.4 17.1-19.1 26.1-28.1 18-18 44.7-27.2 69.1-32 2.4-0.5 17.4-3.2 15.8 3.4z"/><path class="n" d="m776.5 49.5c4.2-1 8.6-2.9 12.4-4.9 7-3.7 22.8-8.9 12.6 6.5-1.5 2.4-3 4.7-3.6 7.2q-11.8-0.4-23.6-0.7c-8-0.2-15.9-0.4-23.9-0.5 8.7-2.4 17.3-5.4 26.1-7.6z"/><path class="o" d="m1207.7 29.5c-5.7 3.2-11.1 6.8-16.3 10.7-9.8 7.1-22.2 13.8-29.4 23.9-9.5 13.4-11.8 35.1 3 44.9-7-2.9-15-3.8-20.7-8.5 3.1 4.1 6.8 7.6 11.1 10.7 4.6 2 9.4 3 13.9 5.4 6.3 3.3 12 7.9 17.4 12.6q0.2 0.1 0.3 0.3c5.5 7.3 11.7 14 16.9 21.5 0.5 1 1 1.9 1.5 2.9 0.9 1 1.8 2 2.7 3.1 9.1 8.8 17.2 19.3 30.3 20.7 0.6 0.1 1.2 0.6 1.4 1.2l0.1 0.2c0.4 0.9-8.1 3.7-11.6 3.8q-4.3 1.1-8.7 1.7c-10.9 2.4-24.9 0.6-35.2-0.6-23.2-2.6-47.6-6.7-66.3-21.6-9.4-7.6-17.4-16.2-24.8-25.7-0.5-0.7-1.1-1.4-1.6-2.1-5.2-5.6-10.6-11.3-17.5-13.6q2.9 1.9 5.3 4.4c-31.9-5.2-64.6 2-93.6 16.7-20.6 12.8-41.7 25.2-61 39.7-4.1 3.1-8.1 6.2-12.1 9.4q-3.5 3.3-7.1 6.4c-11.2 9.7-22.9 18.5-34.5 27.6-11.7 9.1-22.5 19.2-34.6 27.8-24.2 17.1-48.8 33.9-74.6 48.5-49.7 28.3-98.8 55.9-152.9 74.3-15.9-9.6-32.1-19.6-45.6-32.2-15.9-14.8-32.4-28.9-48.2-43.8-11.2-10.6-22.4-19.8-35.3-27.2-1.1-1.7-2.4-3.4-3.8-5.1-0.7-0.4-1.4-0.9-2.1-1.3-3.4-1.8-6.9-3.4-10.4-5q3.9 3.2 7.4 6.8c-0.6-0.3-1.3-0.7-1.9-1-9.8-4.4-19.3-7.9-29.7-10.1-1.6-0.3-3.1-0.4-4.6-0.3 2.3 1 4.6 2.2 6.8 3.4 2.7 1 5.4 2.1 8 3.4 1.2 0.6 2.4 1.3 3.6 2 12.3 4.3 24.8 10.6 35.3 18.1 22.7 16.1 40.7 38 62.2 55.5 5.5 4.4 10.9 8.9 16.3 13.3 18.4 12.3 36.9 24.5 55.4 36.7 8.8 4.8 17.5 9.6 26.6 13.9 12 5.6 25.1 8.3 38 10.9 5.5 1.1 10.7 2.1 16.3 2.5 2.6 0.2 11.4 3.5 5.6 8.3-2.9 2.4-7.5 2.7-11 3-6.4 0.6-12-2.5-18.3-1.5-4.6 0.8-9.5 6.7-12.9 9.4-5.9 4.8-10.9 3.2-16.6-0.3-3-1.9-7.4 1.1-10.1 2.4-8.4 4.1-11.2 4.1-19.1-1.4-4.2-3-8.5-3.3-13.4-2.5-6.8 1.1-10.2 4.1-16.6-0.1-4.5-2.9-8.9-3.5-14.1-3.5-8.2 0.1-11.8 2.9-18.8-3.8-3.7-3.5-8.6-4.2-13.4-4.8-5.9-0.7-10.4-1.8-15.1-5.4-0.1-0.1-0.2-0.2-0.3-0.3-0.3-0.1-0.7-0.4-0.9-0.7-1.7-1.8-1.8-4.6-4-6.2-2.7-2-6.6-1.7-9.7-2.6-3.1-0.9-5.7-2.6-7.7-4.9-4.2-3.1-7-7.7-10.2-12.1-3.3-4.6-8.8-6.9-13.8-9.3-2.4-1.1-4.8-1.3-7.3-2.2-4.7-1.6-6.8-8.3-8.1-12.3-2.1-6.5-4.3-11.6-9.3-16.3-4.6-4.3-11.9-3.4-16.8-8-5.2-4.7-7.4-14-10.9-20.2-3.6-6.2-7.8-11.9-12.6-17.3-3.6-4-8.3-7.2-13.3-9.2-3.3-1.3-7-1.6-10.5-1.7-2.8-0.2-7.4 0.8-9.8 0.1-0.6-0.2-1.1 1.4-0.6 1.6 4.2 1.8 10 1.1 14.6 2.1 6.1 1.3 11.2 4.8 15.8 8.9 10.6 9.6 14.6 23 21.8 34.9 2.6 4.5 5.4 7.4 10.1 9.5 8.1 3.5 13 4.2 17 13.3 2.1 4.6 3.1 9.4 6 13.7 3.4 4.9 7.3 5 12.6 7 6.1 2.4 11.3 6 15.1 11.4 2.6 3.6 5.1 8.7 9.4 10.7 1.7 0.7 3.2 1.4 4.8 2-27.3 7.7-54.6 14.2-82.5 19-33.1 5.7-65.6 14.1-99 18.3-15.7 2-31.8 2.6-47.6 3.2-17.7 0.7-36 1.4-53.7 0.5-30.9-1.4-59.8-8.2-89.2-17.6-14.8-4.8-28.9-12.1-42.7-19.3-6.7-3.5-13.4-7.3-20.4-9.8-1-0.3-2-0.6-3-0.8-5-2.7-9.9-5.5-15.9-5.4-7.4 0.1-14.1 1.7-21.6 0.4-2.7-0.5-14.1-9.7-5.8-10.8 2.3-0.4 4.7-0.6 7.1-0.8q-0.2 1.4-0.2 2.9c0 0.6 0.3 1.1 0.9 0.5q1.5-1.3 3.1-2.7c0.1-0.1 0.3-0.6 0.4-1.1q0.8 0 1.7-0.1c10.1-1.1 19.4-2.6 29.3-5 18.6-4.3 36.3-10.6 54.5-16.4 17.8-5.8 34.1-15.2 51.8-21.5 16.4-5.8 33.4-12.1 50.9-12 18.7 0.1 31.8 18.8 49.4 23.7 13 3.7 24.2 4.6 36.1-2.4 3.7-2.1 13.2-12.2 12.2-17.3-0.2-0.7-0.6 0.3-0.6 0.6 0.6 6.2-11.6 12.9-15.5 15.2-7.6 4.4-17.3 3.6-25.3 1.2-8.2-2.4-15.1-4.7-22.5-9.2-8.4-5.2-15.3-11-24.5-14.8-14.3-5.9-34.1 2.6-47.7 7.1-18.7 6.3-35.9 14.7-54.1 22.1-17.5 7-36.2 13-54.5 17.8-9.4 2.5-19.1 5.5-28.8 6.6-2.8 0.3-5.8 0.4-9 0.4 0 0-0.9-0.1-0.5 0.1q-1.9 0-3.8 0.1c1.4-3.1 3.8-7.2 3.7-7 3.8-6.1 9.1-12.4 15.8-15.5 5-2.3 9.3-6.6 14.3-9.2 6.2-3.2 12.2-6.7 18.5-9.7 11.1-5.4 21.5-12.6 32-19.1 12.3-7.5 24.6-15 35.6-24.4 23-19.7 45.5-39.3 70.3-56.7 24.7-17.3 50.9-32 77.6-45.8 27.1-13.9 55.5-25.1 82.9-38.4 28.1-13.6 56.1-26.2 85.3-37.1 55.9-21 114.6-34.7 173.3-45.6 18.6-3.4 37.2-6.3 56.1-7.6 19-1.4 38.5 0.1 57.6 0.1 11.8 0 23.6 0.6 35.5 1.2v0.1q0.7 0 1.3 0c0 0 0.1 0 0.1 0 7.1 0.3 14.3 0.6 21.5 0.8 21.1 0.4 42.1 1.4 63 4.4 38.6 5.5 77.5 8.6 115.7 16.6 18.4 3.9 37.1 7 55.5 11.6 3.1 0.8 6.2 1.7 9.4 2.6 5.2 0.7 10.5 0.9 15.7-0.2q2.6-0.6 5.1-1.4c2.7-1.1 5.3-2.6 7.7-4.4 9.6-6.8 17.7-17.3 25.3-26.1 20.1-23.5 47.6-34.3 77-40.9 2.6-0.6 5.1-0.8 7.8-0.9 0.7-0.1 7.3-0.3 4.1 1.4z"/><path class="a" d="m902 198.7c-10 8.4-20.5 16.3-30.8 24.5-11.7 9.1-22.5 19.2-34.6 27.8-24.2 17.1-48.8 33.9-74.6 48.5-49.7 28.3-98.8 55.9-152.9 74.3-15.9-9.6-32.1-19.6-45.6-32.2-15.9-14.8-32.4-28.9-48.2-43.8q-4.2-4.1-8.5-7.8c14.9 1.2 29.7 4.1 44.5 6.2 22.2 3.1 43.5 1.5 65-4.7 23.7-6.8 45.9-18.6 67.9-29.6 11.1-5.5 22.3-10.9 33.8-15.6 13.2-5.5 27.3-7.9 41.5-9.8 24.4-3.3 48.5-5.8 72.4-12.2 23.9-6.4 46.4-16.3 69.4-25.3q0.4-0.2 0.7-0.3z"/><path class="a" d="m506.2 404c1.7 0.7 3.2 1.4 4.8 2-27.3 7.7-54.6 14.2-82.5 19-33.1 5.7-65.6 14.1-99 18.3-15.7 2-31.8 2.6-47.6 3.2-17.7 0.7-36 1.4-53.7 0.5-30.9-1.4-59.8-8.2-89.2-17.6-14.8-4.8-28.9-12.1-42.7-19.3-6.7-3.5-13.4-7.3-20.4-9.8-1-0.3-2-0.6-3-0.8-5-2.7-9.9-5.5-15.9-5.4-7.4 0.1-14.1 1.7-21.6 0.4-2.7-0.5-14.1-9.7-5.8-10.8 2.3-0.4 12.4-1.3 13-1.3 10.1-1.1 19.4-2.6 29.3-5 18.6-4.3 36.3-10.6 54.5-16.4 17.8-5.8 34.1-15.2 51.8-21.5 16.4-5.8 33.4-12.1 50.9-12 18.7 0.1 31.8 18.8 49.4 23.7 13 3.7 24.2 4.6 36.1-2.4 2.4-1.3 7-5.8 9.9-10.3 3.7-3.2 7.4-6.8 11.5-9.9 13.6-10.6 26.7-10.9 42.6-6.4 11.8 3.2 24.6 8.5 36.9 4.9 4.2-1.2 8.1-3.1 11.8-5.3 2.8 5.6 5.4 11.2 8.7 16.6 2.6 4.5 5.4 7.4 10.1 9.5 8.1 3.5 13 4.2 17 13.3 2.1 4.6 3.1 9.4 6 13.7 3.4 4.9 7.3 5 12.6 7 6.1 2.4 11.3 6 15.1 11.4 2.6 3.6 5.1 8.7 9.4 10.7z"/><path class="p" d="m709 422.6c-2.9 2.4-7.5 2.7-11 3-6.4 0.6-12-2.5-18.3-1.5-4.6 0.8-9.5 6.7-12.9 9.4-5.9 4.8-10.9 3.2-16.6-0.3-3-1.9-7.4 1.1-10.1 2.4-8.4 4.1-11.2 4.1-19.1-1.4-4.2-3-8.5-3.3-13.4-2.5-6.8 1.1-10.2 4.1-16.6-0.1-4.5-2.9-8.9-3.5-14.1-3.5-8.2 0.1-11.8 2.9-18.8-3.8-3.7-3.5-8.6-4.2-13.4-4.8-5.9-0.7-10.4-1.8-15.1-5.4-0.1-0.1-0.2-0.2-0.3-0.3-0.3-0.1-0.7-0.4-0.9-0.7-1.7-1.8-1.8-4.6-4-6.2-2.7-2-6.6-1.7-9.7-2.6-3.1-0.9-5.7-2.6-7.7-4.9-4.2-3.1-7-7.7-10.2-12.1-3.3-4.6-8.8-6.9-13.8-9.3-2.4-1.1-4.8-1.3-7.3-2.2-4.7-1.6-6.8-8.3-8.1-12.3-1.6-5-3.3-9.2-6.3-13 13.4 5.7 23.3 18.4 36.2 26.2 15.2 9.3 38.9 16.8 55.8 7.4 15.1-8.3 14.6-21.9 5.6-34.9-9-13.2-21.5-23.2-32.6-34.5 8 7.7 16 15.4 24.5 22.3 5.5 4.4 10.9 8.9 16.3 13.3 18.4 12.3 36.9 24.5 55.4 36.7 8.8 4.8 17.5 9.6 26.6 13.9 12 5.6 25.1 8.3 38 10.9 5.5 1.1 10.7 2.1 16.3 2.5 2.6 0.2 11.4 3.5 5.6 8.3z"/><path class="q" d="m441.6 257.9q0.1 0 0.1 0.1c2.7 1 5.4 2.1 8 3.4 1.2 0.6 2.4 1.3 3.6 2 12.3 4.3 24.8 10.6 35.3 18.1 22.7 16.1 40.7 38 62.2 55.5 5.5 4.4 10.9 8.9 16.3 13.3 18.4 12.3 36.9 24.5 55.4 36.7 8.8 4.8 17.5 9.6 26.6 13.9 11.6 5.4 24.3 8.2 36.8 10.7-5.9 0.2-11.8 0.3-17.6 0.2-18.8-0.4-37.8-4.1-56-8.5-35-8.5-64.7-27.9-91.5-51.3-39.1-34-75.9-79.4-131.8-80.2 8.4-19 33.3-18 52.6-13.9z"/><path class="m" d="m299.6 327.3c0 5.5-2.9 10-6.4 10-3.5-0.1-6.3-4.5-6.3-10.1 0-5.5 2.9-10 6.4-9.9 3.5 0 6.3 4.4 6.3 10z"/><path class="a" d="m293.2 323.4c0 1.6-0.8 3-1.9 3-1.1 0-1.9-1.4-1.9-3 0-1.7 0.8-3.1 1.9-3.1 1.1 0 1.9 1.4 1.9 3.1z"/><path class="r" d="m416.1 336.3c-23.6 3.7-49.1 7.5-72.9 6.1 2.4-0.7 4.8-1.3 7.2-1.9 18.8-0.8 37.6-4.6 56.5-6.4 3.2 0.4 6.2 1 9.1 2 0 0.1 0.1 0.1 0.1 0.2z"/><path class="r" d="m479.8 408.5c-26 6.8-52.1 13.8-78.4 19.4-35.9 7.7-72.1 11.8-108.7 13.6-17.7 0.9-35.7 1.2-53.5 0.6-15.8-0.6-31.3-4.7-46.9-6.8-32.3-4.4-64.2-16.5-93.6-30.7q3.4 0.3 6.7 0.8c28.6 10.8 58.4 21.1 88.6 24.8 17.9 2.2 35.3 6.7 53.4 6.8 17.9 0.2 35.8-0.1 53.7-1.1 36-2 72.7-5.3 108-13.3 17.3-3.9 34.6-7.9 52-11.8 3.1-0.7 6.1-1.5 9.1-2.3q4.8 0.2 9.6 0z"/><path class="r" d="m460.9 397.4c-58 18.9-120.1 27.7-180.6 31.4-27.7 1.7-57.9 1.1-85-5.5-25.3-6.2-50.9-13.9-72.7-28.3 2.5 0.7 5 1.3 7.5 1.9q1.2 0.4 2.4 0.7c21.3 10.5 44.8 16.6 67.8 21.6 28.5 6.3 59.1 5.6 88 4.4 33.5-1.3 66.7-6.1 99.7-11.6 21.3-3.5 42.2-7.9 62.8-13.9 3.4-0.1 6.8-0.3 10.1-0.7z"/><path class="r" d="m434.5 389.8q-4.3 1-8.5 1.9c-14.3 3.1-28.8 6-43.2 8.6-14.8 2.5-29.9 4-44.7 6-13.8 1.9-28 3.9-41.9 3.8-27.2-0.1-54 2.6-81.1-1.5-24.6-3.7-49.4-10.2-70.2-24.2q3.3 0.4 6.7 1.1c21.2 10.5 45.4 16 68.5 18.7 15.8 1.8 31.8 2.5 47.7 2.2 6.5-0.1 13.1-0.2 19.6-0.8 6.5-0.6 13 0.2 19.4-0.6 28.8-3.5 57.7-5.5 86.4-10.1 14.6-2.4 29-5.5 43.4-8.7 6.5-1.4 12.9-2.9 19.3-4.5 2.2-0.6 4.5-1.7 6.8-2.3-8.9 3.7-18 6.9-27.3 9.7-0.5 0.1-0.8 0.4-0.9 0.7z"/><path class="r" d="m397.6 375.5c-11.1 2.7-22.5 5.3-33.9 6.7-23.1 3-46.5 6.4-69.7 7.8-23.3 1.5-46.1 0-69.4-0.8-19.9-0.7-40.2-9.5-57.6-19.2q5.5 1.3 10.9 2.5c16.4 6.5 34 10.5 51.3 11.8 24.1 1.7 48.7 2.7 72.8 0.1 23-2.5 46.6-4.1 69.5-7.6 20.8-3.3 41.4-7.7 62.1-11.6-6.6 2.6-13.4 4.9-20.2 7-5.3 1-10.6 2.1-15.8 3.3z"/><path class="r" d="m416 356.4c-34.6 7.3-70.5 7.6-105.5 10.8-32 2.9-69.4 4.2-98.8-11.3 8.2 1.7 16.3 3.5 24.5 4.3 7.9 1.4 15.8 2.2 23.1 2.9 18.9 1.8 39.9 1.2 58.7-1.7 19.5-2.9 40-2.6 59.7-3.7 6.2-0.3 12.3-0.9 18.4-1.6q4.2 0 8.4-0.1c3.6 0 7.6 0.2 11.5 0.4z"/><path class="r" d="m95.6 385.5c17.6-8.6 35.6-16.8 55.1-20-9.2 3.3-18.4 6.7-27.3 10.7-8.2 3.5-18.3 7.7-27.8 9.3z"/><path class="s" d="m43.8 378.6q-1.9 0-3.8 0.1c1.4-3.1 3.8-7.2 3.7-7 3.8-6.1 9.1-12.4 15.8-15.5 5-2.3 9.3-6.6 14.3-9.2 6.2-3.2 12.2-6.7 18.5-9.7 11.1-5.4 21.5-12.6 32-19.1 12.3-7.5 24.6-15 35.6-24.4 23-19.7 45.5-39.3 70.3-56.7 24.7-17.3 50.9-32 77.6-45.8 27.1-13.9 55.5-25.1 82.9-38.4 28.1-13.6 56.1-26.2 85.3-37.1 50.1-18.8 102.4-31.8 154.9-42.1-47.5 14.2-94.5 29.6-140.9 47-56.4 21.2-111.7 45.5-164.9 73.7-52.4 27.8-97.9 63.2-143.8 100.4-10.9 8.8-21.7 17.8-33.1 25.8-13.1 9.1-27.6 15.7-41.9 22.4-12.5 5.8-24 11.3-34.5 20.4-5.2 4.5-10.1 9.3-14.9 14.1-1.2 0.2-2.4 0.4-3.6 0.6-2.8 0.3-5.8 0.4-9 0.4 0 0-0.9-0.1-0.5 0.1z"/><path class="s" d="m1239.8 176.9l0.1 0.2c0.4 0.9-8.1 3.7-11.6 3.8q-4.3 1.1-8.7 1.7c-10.9 2.4-24.9 0.6-35.2-0.6-23.2-2.6-47.6-6.7-66.3-21.6-9.4-7.6-17.4-16.2-24.8-25.7-0.5-0.7-1.1-1.4-1.6-2.1-5.2-5.6-10.6-11.3-17.5-13.6q2.9 1.9 5.3 4.4c-1-0.1-2.1-0.3-3.1-0.4-3.1-3.2-6.4-6.2-9.9-9 17.7 1.2 29.8 12.3 42.5 24.6 12.3 12 25.1 20.5 41.2 26.5 27.2 10 59.4 14.4 89 11 0.3 0.2 0.5 0.5 0.6 0.8z"/><path class="s" d="m675.1 426.3c-3.1 2.2-6 5.4-8.3 7.2-5.4 4.3-10 3.4-15.1 0.6 8-0.1 15.7-4.3 23.4-7.8z"/><path class="s" d="m645.3 433.1c-1.9 0.7-3.8 1.8-5.2 2.5-8.4 4.1-11.2 4.1-19.1-1.4-4.2-3-8.5-3.3-13.4-2.5-6.8 1.1-10.2 4.1-16.6-0.1-4.5-2.9-8.9-3.5-14.1-3.5-8.2 0.1-11.8 2.9-18.8-3.8-3.7-3.5-8.6-4.2-13.4-4.8-5.9-0.7-10.4-1.8-15.1-5.4-0.1-0.1-0.2-0.2-0.3-0.3-0.3-0.1-0.7-0.4-0.9-0.7-1.7-1.8-1.8-4.6-4-6.2-2.7-2-6.6-1.7-9.7-2.6-3.1-0.9-5.7-2.6-7.7-4.9-4.2-3.1-7-7.7-10.2-12.1-3.3-4.6-8.8-6.9-13.8-9.3-2.4-1.1-4.8-1.3-7.3-2.2-4.7-1.6-6.8-8.3-8.1-12.3-2.1-6.5-4.3-11.6-9.3-16.3-4.6-4.3-11.9-3.4-16.8-8-5.2-4.7-7.4-14-10.9-20.2-3.6-6.2-7.8-11.9-12.6-17.3-3.6-4-8.3-7.2-13.3-9.2-3.3-1.3-7-1.6-10.5-1.7q-0.7-0.1-1.6 0c18-8.8 37.8 7.7 46 24 3.3 6.7 5.8 13.7 10.4 19.6 3.7 4.6 9.2 7.5 14.1 10.4 8.2 4.9 12.5 10.7 16.3 19.4 2.3 5.3 5.8 8.7 10.8 11.6 6.6 3.8 14.7 4.6 21.5 7.9 7.8 3.7 11.2 12.2 17.7 17.4 3.9 3.2 9.7 2.7 14.3 2.6 10-0.1 14.9 9.7 23.1 13.5 4.5 2.1 10.1 1.5 14.8 1 4.2-0.5 8.1-0.8 12.1 0.7 3.2 1.2 5.9 3.5 9.2 4.6 4.9 1.4 9 0.7 13.9 0 10-1.6 16.2 3.4 24.3 7.9 1.4 0.8 2.8 1.3 4.2 1.7z"/><path class="q" d="m506.2 404c1.7 0.7 3.2 1.4 4.8 2-26.3 7.4-52.6 13.7-79.5 18.4 8.8-4.3 19.1-9.4 24.2-18 4.8-8.1 2.5-15.7-3-22.7-4.3-5.5-10.4-9.4-14.6-15-4-5.3-4.9-12.5-8.6-18.1-2.7-4.2-7.4-6.8-11.6-9.2-8.6-5.2-12.4-8.8-13.8-18.9-1.8-12.3-5.1-22.2-14.4-28.7 2.9 0.2 6 0.2 8.7 0.8 6.1 1.3 11.2 4.8 15.8 8.9 10.6 9.6 14.6 23 21.8 34.9 2.6 4.5 5.4 7.4 10.1 9.5 8.1 3.5 13 4.2 17 13.3 2.1 4.6 3.1 9.4 6 13.7 3.4 4.9 7.3 5 12.6 7 6.1 2.4 11.3 6 15.1 11.4 2.6 3.6 5.1 8.7 9.4 10.7z"/><path class="q" d="m1239.9 177.2c-0.1 1-8.2 3.6-11.6 3.7q-4.3 1.1-8.7 1.7c-10.9 2.4-24.9 0.6-35.2-0.6-23.2-2.6-47.6-6.7-66.3-21.6-9.4-7.6-17.4-16.2-24.8-25.7-0.5-0.7-1.1-1.4-1.6-2.1-5.2-5.6-10.6-11.3-17.5-13.6q2.9 1.9 5.3 4.4c-31.9-5.2-64.6 2-93.6 16.7-20.6 12.8-41.7 25.2-61 39.7-4.1 3.1-8.1 6.2-12.1 9.4q-3.5 3.3-7.1 6.4c-11.2 9.7-22.9 18.5-34.5 27.6-11.7 9.1-22.5 19.2-34.6 27.8-24.2 17.1-48.8 33.9-74.6 48.5-49.7 28.3-98.8 55.9-152.9 74.3-15.9-9.6-32.1-19.6-45.6-32.2-14.1-13.1-28.7-25.8-42.9-38.9 30.1 14.9 60.4 30.4 94.6 30.8 25.6 0.3 52.2-10.1 75.4-20 26.2-11.2 51-25.8 74.9-41.1 20.1-12.9 39.4-26.8 60-38.8 18.5-10.8 37.2-21.4 54.6-34 22.3-16.1 54.4-44.2 44.5-75.5-6.1-19.4-28.5-30-46-36.7-25.2-9.8-52.4-14.5-79.1-18.2-21.5-2.9-43.3-5.3-64.9-7.1 9.5 0.3 19 0.6 28.4 0.6 11.8 0 23.6 0.6 35.5 1.2v0.1q0.7 0 1.3 0c0 0 0.1 0 0.1 0 7.1 0.3 14.3 0.6 21.5 0.8 21.1 0.4 42.1 1.4 63 4.4 38.6 5.5 77.5 8.6 115.7 16.6 18.4 3.9 37.1 7 55.5 11.6 3.1 0.8 6.2 1.7 9.4 2.6 5.2 0.7 10.5 0.9 15.7-0.2q2.6-0.6 5.1-1.4c2.7-1.1 5.3-2.6 7.7-4.4 9.6-6.8 17.7-17.3 25.3-26.1 19.4-22.6 45.6-33.5 73.8-40.1-15.4 6.1-29.1 17.4-42.7 26.5-17.4 11.6-37.8 26.6-37.6 49.8 0.2 25.8 31.8 29 50.4 32.3 15.8 2.8 30 8.4 43.2 17.4q1.8 1.3 3.6 2.6c7.9 7.9 15.4 16.5 26.4 18.8q2 1.1 4 2z"/></svg>